<svg xmlns="http://www.w3.org/2000/svg" xmlns:xlink="http://www.w3.org/1999/xlink" contentStyleType="text/css" height="1162px" preserveAspectRatio="none" style="width:1334px;height:1162px;background:#FFFFFF;" version="1.1" viewBox="0 0 1334 1162" width="1334px" zoomAndPan="magnify"><defs/><g><text fill="#000000" font-family="sans-serif" font-size="14" font-weight="bold" lengthAdjust="spacing" textLength="295.8389" x="512.2427" y="22.9951">1_3_2_Studieforloebets_fagelementer</text><!--class Studieforl?bFagelementgruppering--><g id="elem_Studieforl&#248;bFagelementgruppering"><rect codeLine="2541" fill="#F1F1F1" height="235.5625" id="Studieforl&#248;bFagelementgruppering" rx="2.5" ry="2.5" style="stroke:#181818;stroke-width:0.5;" width="368.877" x="510.5" y="689.2969"/><ellipse cx="567.7954" cy="705.2969" fill="#ADD1B2" rx="11" ry="11" style="stroke:#181818;stroke-width:1.0;"/><path d="M570.7642,710.9375 Q570.186,711.2344 569.5454,711.375 Q568.9048,711.5313 568.2017,711.5313 Q565.7017,711.5313 564.3735,709.8906 Q563.061,708.2344 563.061,705.1094 Q563.061,701.9844 564.3735,700.3281 Q565.7017,698.6719 568.2017,698.6719 Q568.9048,698.6719 569.5454,698.8281 Q570.2017,698.9844 570.7642,699.2813 L570.7642,702 Q570.1392,701.4219 569.5454,701.1563 Q568.9517,700.875 568.3267,700.875 Q566.9829,700.875 566.2954,701.9531 Q565.6079,703.0156 565.6079,705.1094 Q565.6079,707.2031 566.2954,708.2813 Q566.9829,709.3438 568.3267,709.3438 Q568.9517,709.3438 569.5454,709.0781 Q570.1392,708.7969 570.7642,708.2188 L570.7642,710.9375 Z " fill="#000000"/><text fill="#000000" font-family="sans-serif" font-size="14" lengthAdjust="spacing" textLength="245.7861" x="588.2954" y="710.1436">Studieforl&#248;bFagelementgruppering</text><line style="stroke:#181818;stroke-width:0.5;" x1="511.5" x2="878.377" y1="721.2969" y2="721.2969"/><text fill="#000000" font-family="sans-serif" font-size="14" lengthAdjust="spacing" textLength="158.0469" x="516.5" y="738.292">karakterv&#230;gt: Percent</text><a href="1..1" target="_top" title="1..1" xlink:actuate="onRequest" xlink:href="1..1" xlink:show="new" xlink:title="1..1" xlink:type="simple"><text fill="#0000FF" font-family="sans-serif" font-size="14" lengthAdjust="spacing" text-decoration="underline" textLength="26.7148" x="678.9971" y="738.292">1..1</text></a><text fill="#000000" font-family="sans-serif" font-size="14" lengthAdjust="spacing" textLength="262.0488" x="516.5" y="754.5889">erEtSammenv&#230;gtetResultat: Percent</text><a href="1..1" target="_top" title="1..1" xlink:actuate="onRequest" xlink:href="1..1" xlink:show="new" xlink:title="1..1" xlink:type="simple"><text fill="#0000FF" font-family="sans-serif" font-size="14" lengthAdjust="spacing" text-decoration="underline" textLength="26.7148" x="782.999" y="754.5889">1..1</text></a><text fill="#000000" font-family="sans-serif" font-size="14" lengthAdjust="spacing" textLength="202.6787" x="516.5" y="770.8857">medtagesP&#229;Bevis: Checkbox</text><a href="1..1" target="_top" title="1..1" xlink:actuate="onRequest" xlink:href="1..1" xlink:show="new" xlink:title="1..1" xlink:type="simple"><text fill="#0000FF" font-family="sans-serif" font-size="14" lengthAdjust="spacing" text-decoration="underline" textLength="26.7148" x="723.6289" y="770.8857">1..1</text></a><text fill="#000000" font-family="sans-serif" font-size="14" lengthAdjust="spacing" textLength="150.5205" x="516.5" y="787.1826">r&#230;kkef&#248;lgeP&#229;Bevis: ?</text><a href="0..1" target="_top" title="0..1" xlink:actuate="onRequest" xlink:href="0..1" xlink:show="new" xlink:title="0..1" xlink:type="simple"><text fill="#0000FF" font-family="sans-serif" font-size="14" lengthAdjust="spacing" text-decoration="underline" textLength="26.7148" x="671.4707" y="787.1826">0..1</text></a><text fill="#000000" font-family="sans-serif" font-size="14" lengthAdjust="spacing" textLength="193.4297" x="516.5" y="803.4795">valgfrihedsgrad: Calculated</text><a href="1..1" target="_top" title="1..1" xlink:actuate="onRequest" xlink:href="1..1" xlink:show="new" xlink:title="1..1" xlink:type="simple"><text fill="#0000FF" font-family="sans-serif" font-size="14" lengthAdjust="spacing" text-decoration="underline" textLength="26.7148" x="714.3799" y="803.4795">1..1</text></a><text fill="#000000" font-family="sans-serif" font-size="14" lengthAdjust="spacing" textLength="270.5391" x="516.5" y="819.7764">best&#229;ECTS-pointMaksimum: Number.0</text><a href="1..1" target="_top" title="1..1" xlink:actuate="onRequest" xlink:href="1..1" xlink:show="new" xlink:title="1..1" xlink:type="simple"><text fill="#0000FF" font-family="sans-serif" font-size="14" lengthAdjust="spacing" text-decoration="underline" textLength="26.7148" x="791.4893" y="819.7764">1..1</text></a><text fill="#000000" font-family="sans-serif" font-size="14" lengthAdjust="spacing" textLength="259.3213" x="516.5" y="836.0732">best&#229;ECTS-pointMinimum: Number.0</text><a href="1..1" target="_top" title="1..1" xlink:actuate="onRequest" xlink:href="1..1" xlink:show="new" xlink:title="1..1" xlink:type="simple"><text fill="#0000FF" font-family="sans-serif" font-size="14" lengthAdjust="spacing" text-decoration="underline" textLength="26.7148" x="780.2715" y="836.0732">1..1</text></a><text fill="#000000" font-family="sans-serif" font-size="14" lengthAdjust="spacing" textLength="176.9551" x="516.5" y="852.3701">anvendelsestype: Picklist</text><a href="0..1" target="_top" title="0..1" xlink:actuate="onRequest" xlink:href="0..1" xlink:show="new" xlink:title="0..1" xlink:type="simple"><text fill="#0000FF" font-family="sans-serif" font-size="14" lengthAdjust="spacing" text-decoration="underline" textLength="26.7148" x="697.9053" y="852.3701">0..1</text></a><text fill="#000000" font-family="sans-serif" font-size="14" lengthAdjust="spacing" textLength="35.916" x="516.5" y="868.667">&#171;BK&#187;</text><text fill="#000000" font-family="sans-serif" font-size="14" lengthAdjust="spacing" textLength="202.5967" x="516.5" y="884.9639">/studieforl&#248;bskode: IgnoreBK</text><a href="1..1" target="_top" title="1..1" xlink:actuate="onRequest" xlink:href="1..1" xlink:show="new" xlink:title="1..1" xlink:type="simple"><text fill="#0000FF" font-family="sans-serif" font-size="14" lengthAdjust="spacing" text-decoration="underline" textLength="26.7148" x="723.5469" y="884.9639">1..1</text></a><text fill="#000000" font-family="sans-serif" font-size="14" lengthAdjust="spacing" textLength="276.3906" x="516.5" y="901.2607">/fagelementgrupperingskode: IgnoreBK</text><a href="1..1" target="_top" title="1..1" xlink:actuate="onRequest" xlink:href="1..1" xlink:show="new" xlink:title="1..1" xlink:type="simple"><text fill="#0000FF" font-family="sans-serif" font-size="14" lengthAdjust="spacing" text-decoration="underline" textLength="26.7148" x="797.3408" y="901.2607">1..1</text></a><text fill="#000000" font-family="sans-serif" font-size="14" lengthAdjust="spacing" textLength="325.7119" x="516.5" y="917.5576">/parentFagelementgrupperingskode: IgnoreBK</text><a href="0..1" target="_top" title="0..1" xlink:actuate="onRequest" xlink:href="0..1" xlink:show="new" xlink:title="0..1" xlink:type="simple"><text fill="#0000FF" font-family="sans-serif" font-size="14" lengthAdjust="spacing" text-decoration="underline" textLength="26.7148" x="846.6621" y="917.5576">0..1</text></a></g><!--class FagelementIStudieforl?bsperiode--><g id="elem_FagelementIStudieforl&#248;bsperiode"><rect codeLine="2556" fill="#F1F1F1" height="154.0781" id="FagelementIStudieforl&#248;bsperiode" rx="2.5" ry="2.5" style="stroke:#181818;stroke-width:0.5;" width="368.877" x="56.5" y="136.2969"/><ellipse cx="120.1323" cy="152.2969" fill="#ADD1B2" rx="11" ry="11" style="stroke:#181818;stroke-width:1.0;"/><path d="M123.1011,157.9375 Q122.5229,158.2344 121.8823,158.375 Q121.2417,158.5313 120.5386,158.5313 Q118.0386,158.5313 116.7104,156.8906 Q115.3979,155.2344 115.3979,152.1094 Q115.3979,148.9844 116.7104,147.3281 Q118.0386,145.6719 120.5386,145.6719 Q121.2417,145.6719 121.8823,145.8281 Q122.5386,145.9844 123.1011,146.2813 L123.1011,149 Q122.4761,148.4219 121.8823,148.1563 Q121.2886,147.875 120.6636,147.875 Q119.3198,147.875 118.6323,148.9531 Q117.9448,150.0156 117.9448,152.1094 Q117.9448,154.2031 118.6323,155.2813 Q119.3198,156.3438 120.6636,156.3438 Q121.2886,156.3438 121.8823,156.0781 Q122.4761,155.7969 123.1011,155.2188 L123.1011,157.9375 Z " fill="#000000"/><text fill="#000000" font-family="sans-serif" font-size="14" lengthAdjust="spacing" textLength="233.1123" x="140.6323" y="157.1436">FagelementIStudieforl&#248;bsperiode</text><line style="stroke:#181818;stroke-width:0.5;" x1="57.5" x2="424.377" y1="168.2969" y2="168.2969"/><text fill="#000000" font-family="sans-serif" font-size="14" lengthAdjust="spacing" textLength="275.6455" x="62.5" y="185.292">erPrim&#230;rAnbefaletPlacering: Checkbox</text><a href="1..1" target="_top" title="1..1" xlink:actuate="onRequest" xlink:href="1..1" xlink:show="new" xlink:title="1..1" xlink:type="simple"><text fill="#0000FF" font-family="sans-serif" font-size="14" lengthAdjust="spacing" text-decoration="underline" textLength="26.7148" x="342.5957" y="185.292">1..1</text></a><text fill="#000000" font-family="sans-serif" font-size="14" lengthAdjust="spacing" textLength="35.916" x="62.5" y="201.5889">&#171;BK&#187;</text><text fill="#000000" font-family="sans-serif" font-size="14" lengthAdjust="spacing" textLength="279.5146" x="62.5" y="217.8857">/Fagelementgrupperingskode: IgnoreBK</text><a href="0..1" target="_top" title="0..1" xlink:actuate="onRequest" xlink:href="0..1" xlink:show="new" xlink:title="0..1" xlink:type="simple"><text fill="#0000FF" font-family="sans-serif" font-size="14" lengthAdjust="spacing" text-decoration="underline" textLength="26.7148" x="346.4648" y="217.8857">0..1</text></a><text fill="#000000" font-family="sans-serif" font-size="14" lengthAdjust="spacing" textLength="202.5967" x="62.5" y="234.1826">/studieforl&#248;bskode: IgnoreBK</text><a href="1..1" target="_top" title="1..1" xlink:actuate="onRequest" xlink:href="1..1" xlink:show="new" xlink:title="1..1" xlink:type="simple"><text fill="#0000FF" font-family="sans-serif" font-size="14" lengthAdjust="spacing" text-decoration="underline" textLength="26.7148" x="269.5469" y="234.1826">1..1</text></a><text fill="#000000" font-family="sans-serif" font-size="14" lengthAdjust="spacing" textLength="191.7891" x="62.5" y="250.4795">/fagelementkode: IgnoreBK</text><a href="1..1" target="_top" title="1..1" xlink:actuate="onRequest" xlink:href="1..1" xlink:show="new" xlink:title="1..1" xlink:type="simple"><text fill="#0000FF" font-family="sans-serif" font-size="14" lengthAdjust="spacing" text-decoration="underline" textLength="26.7148" x="258.7393" y="250.4795">1..1</text></a><text fill="#000000" font-family="sans-serif" font-size="14" lengthAdjust="spacing" textLength="321.0498" x="62.5" y="266.7764">/studieforl&#248;bsperiodeR&#230;kkef&#248;lgeNr: IgnoreBK</text><a href="1..1" target="_top" title="1..1" xlink:actuate="onRequest" xlink:href="1..1" xlink:show="new" xlink:title="1..1" xlink:type="simple"><text fill="#0000FF" font-family="sans-serif" font-size="14" lengthAdjust="spacing" text-decoration="underline" textLength="26.7148" x="388" y="266.7764">1..1</text></a><text fill="#000000" font-family="sans-serif" font-size="14" lengthAdjust="spacing" textLength="325.7119" x="62.5" y="283.0732">/parentFagelementgrupperingskode: IgnoreBK</text><a href="0..1" target="_top" title="0..1" xlink:actuate="onRequest" xlink:href="0..1" xlink:show="new" xlink:title="0..1" xlink:type="simple"><text fill="#0000FF" font-family="sans-serif" font-size="14" lengthAdjust="spacing" text-decoration="underline" textLength="26.7148" x="392.6621" y="283.0732">0..1</text></a></g><!--class FagelementgrupperingIStudieforl?bsperiode--><g id="elem_FagelementgrupperingIStudieforl&#248;bsperiode"><rect codeLine="2566" fill="#F1F1F1" height="170.375" id="FagelementgrupperingIStudieforl&#248;bsperiode" rx="2.5" ry="2.5" style="stroke:#181818;stroke-width:0.5;" width="395.9336" x="7" y="985.2969"/><ellipse cx="46.0812" cy="1001.2969" fill="#ADD1B2" rx="11" ry="11" style="stroke:#181818;stroke-width:1.0;"/><path d="M49.0499,1006.9375 Q48.4718,1007.2344 47.8312,1007.375 Q47.1905,1007.5313 46.4874,1007.5313 Q43.9874,1007.5313 42.6593,1005.8906 Q41.3468,1004.2344 41.3468,1001.1094 Q41.3468,997.9844 42.6593,996.3281 Q43.9874,994.6719 46.4874,994.6719 Q47.1905,994.6719 47.8312,994.8281 Q48.4874,994.9844 49.0499,995.2813 L49.0499,998 Q48.4249,997.4219 47.8312,997.1563 Q47.2374,996.875 46.6124,996.875 Q45.2687,996.875 44.5812,997.9531 Q43.8937,999.0156 43.8937,1001.1094 Q43.8937,1003.2031 44.5812,1004.2813 Q45.2687,1005.3438 46.6124,1005.3438 Q47.2374,1005.3438 47.8312,1005.0781 Q48.4249,1004.7969 49.0499,1004.2188 L49.0499,1006.9375 Z " fill="#000000"/><text fill="#000000" font-family="sans-serif" font-size="14" lengthAdjust="spacing" textLength="310.4199" x="65.4325" y="1006.1436">FagelementgrupperingIStudieforl&#248;bsperiode</text><line style="stroke:#181818;stroke-width:0.5;" x1="8" x2="401.9336" y1="1017.2969" y2="1017.2969"/><text fill="#000000" font-family="sans-serif" font-size="14" lengthAdjust="spacing" textLength="306.9336" x="13" y="1034.292">placerbareECTS-pointMaksimum: Number.0</text><a href="1..1" target="_top" title="1..1" xlink:actuate="onRequest" xlink:href="1..1" xlink:show="new" xlink:title="1..1" xlink:type="simple"><text fill="#0000FF" font-family="sans-serif" font-size="14" lengthAdjust="spacing" text-decoration="underline" textLength="26.7148" x="324.3838" y="1034.292">1..1</text></a><text fill="#000000" font-family="sans-serif" font-size="14" lengthAdjust="spacing" textLength="295.7158" x="13" y="1050.5889">placerbareECTS-pointMinimum: Number.0</text><a href="1..1" target="_top" title="1..1" xlink:actuate="onRequest" xlink:href="1..1" xlink:show="new" xlink:title="1..1" xlink:type="simple"><text fill="#0000FF" font-family="sans-serif" font-size="14" lengthAdjust="spacing" text-decoration="underline" textLength="26.7148" x="313.166" y="1050.5889">1..1</text></a><text fill="#000000" font-family="sans-serif" font-size="14" lengthAdjust="spacing" textLength="352.7686" x="13" y="1066.8857">anbefaletOmfangPlacerbareECTS-point: Number.1</text><a href="0..1" target="_top" title="0..1" xlink:actuate="onRequest" xlink:href="0..1" xlink:show="new" xlink:title="0..1" xlink:type="simple"><text fill="#0000FF" font-family="sans-serif" font-size="14" lengthAdjust="spacing" text-decoration="underline" textLength="26.7148" x="370.2188" y="1066.8857">0..1</text></a><text fill="#000000" font-family="sans-serif" font-size="14" lengthAdjust="spacing" textLength="35.916" x="13" y="1083.1826">&#171;BK&#187;</text><text fill="#000000" font-family="sans-serif" font-size="14" lengthAdjust="spacing" textLength="276.3906" x="13" y="1099.4795">/fagelementgrupperingskode: IgnoreBK</text><a href="1..1" target="_top" title="1..1" xlink:actuate="onRequest" xlink:href="1..1" xlink:show="new" xlink:title="1..1" xlink:type="simple"><text fill="#0000FF" font-family="sans-serif" font-size="14" lengthAdjust="spacing" text-decoration="underline" textLength="26.7148" x="293.8408" y="1099.4795">1..1</text></a><text fill="#000000" font-family="sans-serif" font-size="14" lengthAdjust="spacing" textLength="202.5967" x="13" y="1115.7764">/studieforl&#248;bskode: IgnoreBK</text><a href="1..1" target="_top" title="1..1" xlink:actuate="onRequest" xlink:href="1..1" xlink:show="new" xlink:title="1..1" xlink:type="simple"><text fill="#0000FF" font-family="sans-serif" font-size="14" lengthAdjust="spacing" text-decoration="underline" textLength="26.7148" x="220.0469" y="1115.7764">1..1</text></a><text fill="#000000" font-family="sans-serif" font-size="14" lengthAdjust="spacing" textLength="321.0498" x="13" y="1132.0732">/studieforl&#248;bsperiodeR&#230;kkef&#248;lgeNr: IgnoreBK</text><a href="1..1" target="_top" title="1..1" xlink:actuate="onRequest" xlink:href="1..1" xlink:show="new" xlink:title="1..1" xlink:type="simple"><text fill="#0000FF" font-family="sans-serif" font-size="14" lengthAdjust="spacing" text-decoration="underline" textLength="26.7148" x="338.5" y="1132.0732">1..1</text></a><text fill="#000000" font-family="sans-serif" font-size="14" lengthAdjust="spacing" textLength="325.7119" x="13" y="1148.3701">/parentFagelementgrupperingskode: IgnoreBK</text><a href="0..1" target="_top" title="0..1" xlink:actuate="onRequest" xlink:href="0..1" xlink:show="new" xlink:title="0..1" xlink:type="simple"><text fill="#0000FF" font-family="sans-serif" font-size="14" lengthAdjust="spacing" text-decoration="underline" textLength="26.7148" x="343.1621" y="1148.3701">0..1</text></a></g><!--class Studieforl?bFagelement--><g id="elem_Studieforl&#248;bFagelement"><rect codeLine="2577" fill="#F1F1F1" height="186.6719" id="Studieforl&#248;bFagelement" rx="2.5" ry="2.5" style="stroke:#181818;stroke-width:0.5;" width="368.877" x="315.5" y="350.2969"/><ellipse cx="411.4492" cy="366.2969" fill="#ADD1B2" rx="11" ry="11" style="stroke:#181818;stroke-width:1.0;"/><path d="M414.418,371.9375 Q413.8398,372.2344 413.1992,372.375 Q412.5586,372.5313 411.8555,372.5313 Q409.3555,372.5313 408.0273,370.8906 Q406.7148,369.2344 406.7148,366.1094 Q406.7148,362.9844 408.0273,361.3281 Q409.3555,359.6719 411.8555,359.6719 Q412.5586,359.6719 413.1992,359.8281 Q413.8555,359.9844 414.418,360.2813 L414.418,363 Q413.793,362.4219 413.1992,362.1563 Q412.6055,361.875 411.9805,361.875 Q410.6367,361.875 409.9492,362.9531 Q409.2617,364.0156 409.2617,366.1094 Q409.2617,368.2031 409.9492,369.2813 Q410.6367,370.3438 411.9805,370.3438 Q412.6055,370.3438 413.1992,370.0781 Q413.793,369.7969 414.418,369.2188 L414.418,371.9375 Z " fill="#000000"/><text fill="#000000" font-family="sans-serif" font-size="14" lengthAdjust="spacing" textLength="168.4785" x="431.9492" y="371.1436">Studieforl&#248;bFagelement</text><line style="stroke:#181818;stroke-width:0.5;" x1="316.5" x2="683.377" y1="382.2969" y2="382.2969"/><text fill="#000000" font-family="sans-serif" font-size="14" lengthAdjust="spacing" textLength="202.6787" x="321.5" y="399.292">medtagesP&#229;Bevis: Checkbox</text><a href="1..1" target="_top" title="1..1" xlink:actuate="onRequest" xlink:href="1..1" xlink:show="new" xlink:title="1..1" xlink:type="simple"><text fill="#0000FF" font-family="sans-serif" font-size="14" lengthAdjust="spacing" text-decoration="underline" textLength="26.7148" x="528.6289" y="399.292">1..1</text></a><text fill="#000000" font-family="sans-serif" font-size="14" lengthAdjust="spacing" textLength="150.5205" x="321.5" y="415.5889">r&#230;kkef&#248;lgeP&#229;Bevis: ?</text><a href="0..1" target="_top" title="0..1" xlink:actuate="onRequest" xlink:href="0..1" xlink:show="new" xlink:title="0..1" xlink:type="simple"><text fill="#0000FF" font-family="sans-serif" font-size="14" lengthAdjust="spacing" text-decoration="underline" textLength="26.7148" x="476.4707" y="415.5889">0..1</text></a><text fill="#000000" font-family="sans-serif" font-size="14" lengthAdjust="spacing" textLength="158.0469" x="321.5" y="431.8857">karakterv&#230;gt: Percent</text><a href="1..1" target="_top" title="1..1" xlink:actuate="onRequest" xlink:href="1..1" xlink:show="new" xlink:title="1..1" xlink:type="simple"><text fill="#0000FF" font-family="sans-serif" font-size="14" lengthAdjust="spacing" text-decoration="underline" textLength="26.7148" x="483.9971" y="431.8857">1..1</text></a><text fill="#000000" font-family="sans-serif" font-size="14" lengthAdjust="spacing" textLength="193.4297" x="321.5" y="448.1826">valgfrihedsgrad: Calculated</text><a href="1..1" target="_top" title="1..1" xlink:actuate="onRequest" xlink:href="1..1" xlink:show="new" xlink:title="1..1" xlink:type="simple"><text fill="#0000FF" font-family="sans-serif" font-size="14" lengthAdjust="spacing" text-decoration="underline" textLength="26.7148" x="519.3799" y="448.1826">1..1</text></a><text fill="#000000" font-family="sans-serif" font-size="14" lengthAdjust="spacing" textLength="35.916" x="321.5" y="464.4795">&#171;BK&#187;</text><text fill="#000000" font-family="sans-serif" font-size="14" lengthAdjust="spacing" textLength="194.9131" x="321.5" y="480.7764">/Fagelementkode: IgnoreBK</text><a href="1..1" target="_top" title="1..1" xlink:actuate="onRequest" xlink:href="1..1" xlink:show="new" xlink:title="1..1" xlink:type="simple"><text fill="#0000FF" font-family="sans-serif" font-size="14" lengthAdjust="spacing" text-decoration="underline" textLength="26.7148" x="520.8633" y="480.7764">1..1</text></a><text fill="#000000" font-family="sans-serif" font-size="14" lengthAdjust="spacing" textLength="279.5146" x="321.5" y="497.0732">/Fagelementgrupperingskode: IgnoreBK</text><a href="0..1" target="_top" title="0..1" xlink:actuate="onRequest" xlink:href="0..1" xlink:show="new" xlink:title="0..1" xlink:type="simple"><text fill="#0000FF" font-family="sans-serif" font-size="14" lengthAdjust="spacing" text-decoration="underline" textLength="26.7148" x="605.4648" y="497.0732">0..1</text></a><text fill="#000000" font-family="sans-serif" font-size="14" lengthAdjust="spacing" textLength="202.5967" x="321.5" y="513.3701">/studieforl&#248;bskode: IgnoreBK</text><a href="1..1" target="_top" title="1..1" xlink:actuate="onRequest" xlink:href="1..1" xlink:show="new" xlink:title="1..1" xlink:type="simple"><text fill="#0000FF" font-family="sans-serif" font-size="14" lengthAdjust="spacing" text-decoration="underline" textLength="26.7148" x="528.5469" y="513.3701">1..1</text></a><text fill="#000000" font-family="sans-serif" font-size="14" lengthAdjust="spacing" textLength="325.7119" x="321.5" y="529.667">/parentFagelementgrupperingskode: IgnoreBK</text><a href="0..1" target="_top" title="0..1" xlink:actuate="onRequest" xlink:href="0..1" xlink:show="new" xlink:title="0..1" xlink:type="simple"><text fill="#0000FF" font-family="sans-serif" font-size="14" lengthAdjust="spacing" text-decoration="underline" textLength="26.7148" x="651.6621" y="529.667">0..1</text></a></g><!--class ValgfrihedsgradEnum--><g id="elem_ValgfrihedsgradEnum"><rect codeLine="2589" fill="#90EE90" height="97.1563" id="ValgfrihedsgradEnum" rx="2.5" ry="2.5" style="stroke:#181818;stroke-width:0.5;" width="183.5117" x="915" y="758.7969"/><ellipse cx="930" cy="778.9297" fill="#EB937F" rx="11" ry="11" style="stroke:#181818;stroke-width:1.0;"/><path d="M934.1094,784.9297 L926.3906,784.9297 L926.3906,772.5391 L934.1094,772.5391 L934.1094,774.6953 L928.8438,774.6953 L928.8438,777.3672 L933.6094,777.3672 L933.6094,779.5234 L928.8438,779.5234 L928.8438,782.7734 L934.1094,782.7734 L934.1094,784.9297 Z " fill="#000000"/><text fill="#000000" font-family="sans-serif" font-size="12" font-style="italic" lengthAdjust="spacing" textLength="49.0957" x="995.208" y="774.9355">&#171;enum&#187;</text><text fill="#000000" font-family="sans-serif" font-size="14" lengthAdjust="spacing" textLength="151.5117" x="944" y="790.7607">ValgfrihedsgradEnum</text><line style="stroke:#181818;stroke-width:0.5;" x1="916" x2="1097.5117" y1="799.0625" y2="799.0625"/><text fill="#000000" font-family="sans-serif" font-size="14" lengthAdjust="spacing" textLength="81.7988" x="921" y="816.0576">obligatorisk</text><text fill="#000000" font-family="sans-serif" font-size="14" lengthAdjust="spacing" textLength="49.7041" x="921" y="832.3545">valgfrit</text><text fill="#000000" font-family="sans-serif" font-size="14" lengthAdjust="spacing" textLength="123.1631" x="921" y="848.6514">afgr&#230;nsetValgfrit</text></g><!--class AnvendelsestypeEnum--><g id="elem_AnvendelsestypeEnum"><rect codeLine="2595" fill="#90EE90" height="64.5625" id="AnvendelsestypeEnum" rx="2.5" ry="2.5" style="stroke:#181818;stroke-width:0.5;" width="192.8242" x="1134.5" y="774.7969"/><ellipse cx="1149.7285" cy="794.9297" fill="#EB937F" rx="11" ry="11" style="stroke:#181818;stroke-width:1.0;"/><path d="M1153.8379,800.9297 L1146.1191,800.9297 L1146.1191,788.5391 L1153.8379,788.5391 L1153.8379,790.6953 L1148.5723,790.6953 L1148.5723,793.3672 L1153.3379,793.3672 L1153.3379,795.5234 L1148.5723,795.5234 L1148.5723,798.7734 L1153.8379,798.7734 L1153.8379,800.9297 Z " fill="#000000"/><text fill="#000000" font-family="sans-serif" font-size="12" font-style="italic" lengthAdjust="spacing" textLength="49.0957" x="1219.3896" y="790.9355">&#171;enum&#187;</text><text fill="#000000" font-family="sans-serif" font-size="14" lengthAdjust="spacing" textLength="160.3164" x="1163.7793" y="806.7607">AnvendelsestypeEnum</text><line style="stroke:#181818;stroke-width:0.5;" x1="1135.5" x2="1326.3242" y1="815.0625" y2="815.0625"/><text fill="#000000" font-family="sans-serif" font-size="14" lengthAdjust="spacing" textLength="180.8242" x="1140.5" y="832.0576">lokalt defineret v&#230;rdiliste</text></g><!--class Studieforl?b--><g id="elem_Studieforl&#248;b"><rect fill="#F1F1F1" height="32" id="Studieforl&#248;b" rx="2.5" ry="2.5" style="stroke:#181818;stroke-width:0.5;" width="117.2305" x="836.5" y="597.2969"/><ellipse cx="851.5" cy="613.2969" fill="#ADD1B2" rx="11" ry="11" style="stroke:#181818;stroke-width:1.0;"/><path d="M854.4688,618.9375 Q853.8906,619.2344 853.25,619.375 Q852.6094,619.5313 851.9063,619.5313 Q849.4063,619.5313 848.0781,617.8906 Q846.7656,616.2344 846.7656,613.1094 Q846.7656,609.9844 848.0781,608.3281 Q849.4063,606.6719 851.9063,606.6719 Q852.6094,606.6719 853.25,606.8281 Q853.9063,606.9844 854.4688,607.2813 L854.4688,610 Q853.8438,609.4219 853.25,609.1563 Q852.6563,608.875 852.0313,608.875 Q850.6875,608.875 850,609.9531 Q849.3125,611.0156 849.3125,613.1094 Q849.3125,615.2031 850,616.2813 Q850.6875,617.3438 852.0313,617.3438 Q852.6563,617.3438 853.25,617.0781 Q853.8438,616.7969 854.4688,616.2188 L854.4688,618.9375 Z " fill="#000000"/><text fill="#000000" font-family="sans-serif" font-size="14" lengthAdjust="spacing" textLength="85.2305" x="865.5" y="618.1436">Studieforl&#248;b</text></g><!--class GrupperingAfFagelement--><g id="elem_GrupperingAfFagelement"><rect fill="#F1F1F1" height="32" id="GrupperingAfFagelement" rx="2.5" ry="2.5" style="stroke:#181818;stroke-width:0.5;" width="209.0234" x="592.5" y="597.2969"/><ellipse cx="607.5" cy="613.2969" fill="#ADD1B2" rx="11" ry="11" style="stroke:#181818;stroke-width:1.0;"/><path d="M610.4688,618.9375 Q609.8906,619.2344 609.25,619.375 Q608.6094,619.5313 607.9063,619.5313 Q605.4063,619.5313 604.0781,617.8906 Q602.7656,616.2344 602.7656,613.1094 Q602.7656,609.9844 604.0781,608.3281 Q605.4063,606.6719 607.9063,606.6719 Q608.6094,606.6719 609.25,606.8281 Q609.9063,606.9844 610.4688,607.2813 L610.4688,610 Q609.8438,609.4219 609.25,609.1563 Q608.6563,608.875 608.0313,608.875 Q606.6875,608.875 606,609.9531 Q605.3125,611.0156 605.3125,613.1094 Q605.3125,615.2031 606,616.2813 Q606.6875,617.3438 608.0313,617.3438 Q608.6563,617.3438 609.25,617.0781 Q609.8438,616.7969 610.4688,616.2188 L610.4688,618.9375 Z " fill="#000000"/><text fill="#000000" font-family="sans-serif" font-size="14" lengthAdjust="spacing" textLength="177.0234" x="621.5" y="618.1436">GrupperingAfFagelement</text></g><!--class Fagomr?de--><g id="elem_Fagomr&#229;de"><rect fill="#F1F1F1" height="32" id="Fagomr&#229;de" rx="2.5" ry="2.5" style="stroke:#181818;stroke-width:0.5;" width="111.5566" x="639" y="1054.2969"/><ellipse cx="654" cy="1070.2969" fill="#ADD1B2" rx="11" ry="11" style="stroke:#181818;stroke-width:1.0;"/><path d="M656.9688,1075.9375 Q656.3906,1076.2344 655.75,1076.375 Q655.1094,1076.5313 654.4063,1076.5313 Q651.9063,1076.5313 650.5781,1074.8906 Q649.2656,1073.2344 649.2656,1070.1094 Q649.2656,1066.9844 650.5781,1065.3281 Q651.9063,1063.6719 654.4063,1063.6719 Q655.1094,1063.6719 655.75,1063.8281 Q656.4063,1063.9844 656.9688,1064.2813 L656.9688,1067 Q656.3438,1066.4219 655.75,1066.1563 Q655.1563,1065.875 654.5313,1065.875 Q653.1875,1065.875 652.5,1066.9531 Q651.8125,1068.0156 651.8125,1070.1094 Q651.8125,1072.2031 652.5,1073.2813 Q653.1875,1074.3438 654.5313,1074.3438 Q655.1563,1074.3438 655.75,1074.0781 Q656.3438,1073.7969 656.9688,1073.2188 L656.9688,1075.9375 Z " fill="#000000"/><text fill="#000000" font-family="sans-serif" font-size="14" lengthAdjust="spacing" textLength="79.5566" x="668" y="1075.1436">Fagomr&#229;de</text></g><!--class Studieforl?bsperiode--><g id="elem_Studieforl&#248;bsperiode"><rect fill="#F1F1F1" height="32" id="Studieforl&#248;bsperiode" rx="2.5" ry="2.5" style="stroke:#181818;stroke-width:0.5;" width="177.7354" x="33" y="44.2969"/><ellipse cx="48" cy="60.2969" fill="#ADD1B2" rx="11" ry="11" style="stroke:#181818;stroke-width:1.0;"/><path d="M50.9688,65.9375 Q50.3906,66.2344 49.75,66.375 Q49.1094,66.5313 48.4063,66.5313 Q45.9063,66.5313 44.5781,64.8906 Q43.2656,63.2344 43.2656,60.1094 Q43.2656,56.9844 44.5781,55.3281 Q45.9063,53.6719 48.4063,53.6719 Q49.1094,53.6719 49.75,53.8281 Q50.4063,53.9844 50.9688,54.2813 L50.9688,57 Q50.3438,56.4219 49.75,56.1563 Q49.1563,55.875 48.5313,55.875 Q47.1875,55.875 46.5,56.9531 Q45.8125,58.0156 45.8125,60.1094 Q45.8125,62.2031 46.5,63.2813 Q47.1875,64.3438 48.5313,64.3438 Q49.1563,64.3438 49.75,64.0781 Q50.3438,63.7969 50.9688,63.2188 L50.9688,65.9375 Z " fill="#000000"/><text fill="#000000" font-family="sans-serif" font-size="14" lengthAdjust="spacing" textLength="145.7354" x="62" y="65.1436">Studieforl&#248;bsperiode</text></g><!--class FagelementIFagelementgruppering--><g id="elem_FagelementIFagelementgruppering"><rect fill="#F1F1F1" height="32" id="FagelementIFagelementgruppering" rx="2.5" ry="2.5" style="stroke:#181818;stroke-width:0.5;" width="279.9326" x="127" y="597.2969"/><ellipse cx="142" cy="613.2969" fill="#ADD1B2" rx="11" ry="11" style="stroke:#181818;stroke-width:1.0;"/><path d="M144.9688,618.9375 Q144.3906,619.2344 143.75,619.375 Q143.1094,619.5313 142.4063,619.5313 Q139.9063,619.5313 138.5781,617.8906 Q137.2656,616.2344 137.2656,613.1094 Q137.2656,609.9844 138.5781,608.3281 Q139.9063,606.6719 142.4063,606.6719 Q143.1094,606.6719 143.75,606.8281 Q144.4063,606.9844 144.9688,607.2813 L144.9688,610 Q144.3438,609.4219 143.75,609.1563 Q143.1563,608.875 142.5313,608.875 Q141.1875,608.875 140.5,609.9531 Q139.8125,611.0156 139.8125,613.1094 Q139.8125,615.2031 140.5,616.2813 Q141.1875,617.3438 142.5313,617.3438 Q143.1563,617.3438 143.75,617.0781 Q144.3438,616.7969 144.9688,616.2188 L144.9688,618.9375 Z " fill="#000000"/><text fill="#000000" font-family="sans-serif" font-size="14" lengthAdjust="spacing" textLength="247.9326" x="156" y="618.1436">FagelementIFagelementgruppering</text></g><!--class Fagelement--><g id="elem_Fagelement"><rect fill="#F1F1F1" height="32" id="Fagelement" rx="2.5" ry="2.5" style="stroke:#181818;stroke-width:0.5;" width="115.248" x="442.5" y="597.2969"/><ellipse cx="457.5" cy="613.2969" fill="#ADD1B2" rx="11" ry="11" style="stroke:#181818;stroke-width:1.0;"/><path d="M460.4688,618.9375 Q459.8906,619.2344 459.25,619.375 Q458.6094,619.5313 457.9063,619.5313 Q455.4063,619.5313 454.0781,617.8906 Q452.7656,616.2344 452.7656,613.1094 Q452.7656,609.9844 454.0781,608.3281 Q455.4063,606.6719 457.9063,606.6719 Q458.6094,606.6719 459.25,606.8281 Q459.9063,606.9844 460.4688,607.2813 L460.4688,610 Q459.8438,609.4219 459.25,609.1563 Q458.6563,608.875 458.0313,608.875 Q456.6875,608.875 456,609.9531 Q455.3125,611.0156 455.3125,613.1094 Q455.3125,615.2031 456,616.2813 Q456.6875,617.3438 458.0313,617.3438 Q458.6563,617.3438 459.25,617.0781 Q459.8438,616.7969 460.4688,616.2188 L460.4688,618.9375 Z " fill="#000000"/><text fill="#000000" font-family="sans-serif" font-size="14" lengthAdjust="spacing" textLength="83.248" x="471.5" y="618.1436">Fagelement</text></g><!--class PersonligtFagelement--><g id="elem_PersonligtFagelement"><rect fill="#F1F1F1" height="32" id="PersonligtFagelement" rx="2.5" ry="2.5" style="stroke:#181818;stroke-width:0.5;" width="184.9473" x="460.5" y="197.2969"/><ellipse cx="475.5" cy="213.2969" fill="#ADD1B2" rx="11" ry="11" style="stroke:#181818;stroke-width:1.0;"/><path d="M478.4688,218.9375 Q477.8906,219.2344 477.25,219.375 Q476.6094,219.5313 475.9063,219.5313 Q473.4063,219.5313 472.0781,217.8906 Q470.7656,216.2344 470.7656,213.1094 Q470.7656,209.9844 472.0781,208.3281 Q473.4063,206.6719 475.9063,206.6719 Q476.6094,206.6719 477.25,206.8281 Q477.9063,206.9844 478.4688,207.2813 L478.4688,210 Q477.8438,209.4219 477.25,209.1563 Q476.6563,208.875 476.0313,208.875 Q474.6875,208.875 474,209.9531 Q473.3125,211.0156 473.3125,213.1094 Q473.3125,215.2031 474,216.2813 Q474.6875,217.3438 476.0313,217.3438 Q476.6563,217.3438 477.25,217.0781 Q477.8438,216.7969 478.4688,216.2188 L478.4688,218.9375 Z " fill="#000000"/><text fill="#000000" font-family="sans-serif" font-size="14" lengthAdjust="spacing" textLength="152.9473" x="489.5" y="218.1436">PersonligtFagelement</text></g><!--link Studieforl?b to Studieforl?bFagelementgruppering--><g id="link_Studieforl&#248;b_Studieforl&#248;bFagelementgruppering"><path codeLine="2599" d="M858,629.5069 C858,643.6169 858,665.4869 858,689.1069 " fill="none" id="Studieforl&#248;b-Studieforl&#248;bFagelementgruppering" style="stroke:#181818;stroke-width:1.0;"/><text fill="#000000" font-family="sans-serif" font-size="13" lengthAdjust="spacing" textLength="8.271" x="836.4255" y="649.4497">1</text><text fill="#000000" font-family="sans-serif" font-size="13" lengthAdjust="spacing" textLength="23.0356" x="844.7106" y="678.14">0..*</text></g><!--link GrupperingAfFagelement to Studieforl?bFagelementgruppering--><g id="link_GrupperingAfFagelement_Studieforl&#248;bFagelementgruppering"><path codeLine="2600" d="M697,629.5069 C697,643.6169 697,665.4869 697,689.1069 " fill="none" id="GrupperingAfFagelement-Studieforl&#248;bFagelementgruppering" style="stroke:#181818;stroke-width:1.0;"/><text fill="#000000" font-family="sans-serif" font-size="13" lengthAdjust="spacing" textLength="8.271" x="687.716" y="649.4497">1</text><text fill="#000000" font-family="sans-serif" font-size="13" lengthAdjust="spacing" textLength="23.0356" x="673.3965" y="678.14">0..*</text></g><!--link Studieforl?bFagelementgruppering to Fagomr?de--><g id="link_Studieforl&#248;bFagelementgruppering_Fagomr&#229;de"><path codeLine="2601" d="M695,925.3369 C695,975.5869 695,1028.4869 695,1054.2669 " fill="none" id="Studieforl&#248;bFagelementgruppering-Fagomr&#229;de" style="stroke:#181818;stroke-width:1.0;"/><text fill="#000000" font-family="sans-serif" font-size="13" lengthAdjust="spacing" textLength="73.5757" x="621" y="985.8738">henf&#248;res til</text><text fill="#000000" font-family="sans-serif" font-size="13" lengthAdjust="spacing" textLength="23.0356" x="671.3041" y="945.0712">0..*</text><text fill="#000000" font-family="sans-serif" font-size="13" lengthAdjust="spacing" textLength="24.8066" x="667.0898" y="1043.2682">0..1</text></g><!--link Studieforl?bsperiode to FagelementgrupperingIStudieforl?bsperiode--><g id="link_Studieforl&#248;bsperiode_FagelementgrupperingIStudieforl&#248;bsperiode"><path codeLine="2602" d="M44.75,76.5669 C44.75,181.3569 44.75,763.6869 44.75,984.9569 " fill="none" id="Studieforl&#248;bsperiode-FagelementgrupperingIStudieforl&#248;bsperiode" style="stroke:#181818;stroke-width:1.0;"/><text fill="#000000" font-family="sans-serif" font-size="13" lengthAdjust="spacing" textLength="8.271" x="17.0106" y="94.4439">1</text><text fill="#000000" font-family="sans-serif" font-size="13" lengthAdjust="spacing" textLength="23.0356" x="7.5312" y="974.3254">0..*</text></g><!--link Studieforl?bsperiode to FagelementIStudieforl?bsperiode--><g id="link_Studieforl&#248;bsperiode_FagelementIStudieforl&#248;bsperiode"><path codeLine="2603" d="M133.75,76.3769 C133.75,90.9569 133.75,113.5669 133.75,136.2469 " fill="none" id="Studieforl&#248;bsperiode-FagelementIStudieforl&#248;bsperiode" style="stroke:#181818;stroke-width:1.0;"/><text fill="#000000" font-family="sans-serif" font-size="13" lengthAdjust="spacing" textLength="8.271" x="128.4059" y="96.2766">1</text><text fill="#000000" font-family="sans-serif" font-size="13" lengthAdjust="spacing" textLength="23.0356" x="99.4392" y="125.2577">0..*</text></g><!--link Studieforl?bFagelementgruppering to FagelementgrupperingIStudieforl?bsperiode--><g id="link_Studieforl&#248;bFagelementgruppering_FagelementgrupperingIStudieforl&#248;bsperiode"><path codeLine="2604" d="M574.75,925.3169 C574.75,974.4669 574.75,1020.2969 574.75,1020.2969 C574.75,1020.2969 490.95,1020.2969 403.13,1020.2969 " fill="none" id="Studieforl&#248;bFagelementgruppering-FagelementgrupperingIStudieforl&#248;bsperiode" style="stroke:#181818;stroke-width:1.0;"/><text fill="#000000" font-family="sans-serif" font-size="13" lengthAdjust="spacing" textLength="8.271" x="559.1905" y="945.05">1</text><text fill="#000000" font-family="sans-serif" font-size="13" lengthAdjust="spacing" textLength="23.0356" x="410.6654" y="1015.293">0..*</text></g><!--link Studieforl?bFagelement to Studieforl?bFagelementgruppering--><g id="link_Studieforl&#248;bFagelement_Studieforl&#248;bFagelementgruppering"><path codeLine="2605" d="M575,537.4069 C575,583.6869 575,640.0269 575,689.2269 " fill="none" id="Studieforl&#248;bFagelement-Studieforl&#248;bFagelementgruppering" style="stroke:#181818;stroke-width:1.0;"/><text fill="#000000" font-family="sans-serif" font-size="13" lengthAdjust="spacing" textLength="23.0356" x="556.6691" y="556.916">0..*</text><text fill="#000000" font-family="sans-serif" font-size="13" lengthAdjust="spacing" textLength="24.8066" x="542.5735" y="678.2677">0..1</text></g><!--link Studieforl?bFagelement to FagelementIFagelementgruppering--><g id="link_Studieforl&#248;bFagelement_FagelementIFagelementgruppering"><path codeLine="2606" d="M361.25,537.4669 C361.25,560.5969 361.25,582.8169 361.25,597.1669 " fill="none" id="Studieforl&#248;bFagelement-FagelementIFagelementgruppering" style="stroke:#181818;stroke-width:1.0;"/><text fill="#000000" font-family="sans-serif" font-size="13" lengthAdjust="spacing" textLength="23.0356" x="327.2218" y="556.9804">0..*</text><text fill="#000000" font-family="sans-serif" font-size="13" lengthAdjust="spacing" textLength="24.8066" x="365.6737" y="586.1338">0..1</text></g><!--link Studieforl?bFagelement to Fagelement--><g id="link_Studieforl&#248;bFagelement_Fagelement"><path codeLine="2607" d="M500,537.4669 C500,560.5969 500,582.8169 500,597.1669 " fill="none" id="Studieforl&#248;bFagelement-Fagelement" style="stroke:#181818;stroke-width:1.0;"/><text fill="#000000" font-family="sans-serif" font-size="13" lengthAdjust="spacing" textLength="23.0356" x="476.1613" y="556.9804">0..*</text><text fill="#000000" font-family="sans-serif" font-size="13" lengthAdjust="spacing" textLength="8.271" x="490.6289" y="586.1338">1</text></g><!--link FagelementIStudieforl?bsperiode to Studieforl?bFagelement--><g id="link_FagelementIStudieforl&#248;bsperiode_Studieforl&#248;bFagelement"><path codeLine="2608" d="M370.5,290.3669 C370.5,309.4769 370.5,330.1669 370.5,349.9769 " fill="none" id="FagelementIStudieforl&#248;bsperiode-Studieforl&#248;bFagelement" style="stroke:#181818;stroke-width:1.0;"/><text fill="#000000" font-family="sans-serif" font-size="13" lengthAdjust="spacing" textLength="23.0356" x="358.7544" y="310.497">0..*</text><text fill="#000000" font-family="sans-serif" font-size="13" lengthAdjust="spacing" textLength="8.271" x="352.294" y="339.3041">1</text></g><!--link Studieforl?bFagelement to Studieforl?b--><g id="link_Studieforl&#248;bFagelement_Studieforl&#248;b"><path codeLine="2609" d="M684.78,475.2969 C787.58,475.2969 895,475.2969 895,475.2969 C895,475.2969 895,560.7969 895,597.1969 " fill="none" id="Studieforl&#248;bFagelement-Studieforl&#248;b" style="stroke:#181818;stroke-width:1.0;"/><text fill="#000000" font-family="sans-serif" font-size="13" lengthAdjust="spacing" textLength="23.0356" x="692.4503" y="473.3103">1..*</text><text fill="#000000" font-family="sans-serif" font-size="13" lengthAdjust="spacing" textLength="8.271" x="885.632" y="586.1741">1</text></g><!--link PersonligtFagelement to Studieforl?bFagelement--><g id="link_PersonligtFagelement_Studieforl&#248;bFagelement"><path codeLine="2610" d="M553,229.5069 C553,254.6069 553,304.7569 553,350.2369 " fill="none" id="PersonligtFagelement-Studieforl&#248;bFagelement" style="stroke:#181818;stroke-width:1.0;"/><text fill="#000000" font-family="sans-serif" font-size="13" lengthAdjust="spacing" textLength="23.0356" x="526.2053" y="249.4497">0..*</text><text fill="#000000" font-family="sans-serif" font-size="13" lengthAdjust="spacing" textLength="24.8066" x="532.3042" y="339.2689">0..1</text></g><!--link Studieforl?bFagelementgruppering to ValgfrihedsgradEnum--><g id="link_Studieforl&#248;bFagelementgruppering_ValgfrihedsgradEnum"><path codeLine="2611" d="M879.65,807.2969 C891.75,807.2969 897.62,807.2969 908.94,807.2969 " fill="none" id="Studieforl&#248;bFagelementgruppering-to-ValgfrihedsgradEnum" style="stroke:#181818;stroke-width:1.0;stroke-dasharray:7.0,7.0;"/><polygon fill="#181818" points="914.94,807.2969,905.94,803.2969,909.94,807.2969,905.94,811.2969,914.94,807.2969" style="stroke:#181818;stroke-width:1.0;"/></g><!--link Studieforl?bFagelement to ValgfrihedsgradEnum--><g id="link_Studieforl&#248;bFagelement_ValgfrihedsgradEnum"><path codeLine="2612" d="M684.8,413.2969 C836.43,413.2969 1026.25,413.2969 1026.25,413.2969 C1026.25,413.2969 1026.25,647.1769 1026.25,752.5869 " fill="none" id="Studieforl&#248;bFagelement-to-ValgfrihedsgradEnum" style="stroke:#181818;stroke-width:1.0;stroke-dasharray:7.0,7.0;"/><polygon fill="#181818" points="1026.25,758.5869,1030.25,749.5869,1026.25,753.5869,1022.25,749.5869,1026.25,758.5869" style="stroke:#181818;stroke-width:1.0;"/></g><!--link Studieforl?bFagelementgruppering to AnvendelsestypeEnum--><g id="link_Studieforl&#248;bFagelementgruppering_AnvendelsestypeEnum"><path codeLine="2613" d="M879.84,724.2969 C1034.82,724.2969 1231,724.2969 1231,724.2969 C1231,724.2969 1231,745.2969 1231,768.4969 " fill="none" id="Studieforl&#248;bFagelementgruppering-to-AnvendelsestypeEnum" style="stroke:#181818;stroke-width:1.0;stroke-dasharray:7.0,7.0;"/><polygon fill="#181818" points="1231,774.4969,1235,765.4969,1231,769.4969,1227,765.4969,1231,774.4969" style="stroke:#181818;stroke-width:1.0;"/></g><!--SRC=[ZSwn3i8W54RXdQUunjr4NPiE-WYw4rh-KjBBXLnWQ8plhgEZP_sMyuoDGMTxjHVxQDr7B5avOqAhTd41Z0HfKBD63q8gRQU4D46hgLkKujGbuYXeUm5bRMl-WPbThVGozEtcvYrexkBlcRCE0wIdSQGZnx2se82Ojp67A3DtZzedIYxAgVJ4XpyMFm00]--></g></svg>