<svg xmlns="http://www.w3.org/2000/svg" xmlns:xlink="http://www.w3.org/1999/xlink" contentStyleType="text/css" height="208px" preserveAspectRatio="none" style="width:1238px;height:208px;background:#FFFFFF;" version="1.1" viewBox="0 0 1238 208" width="1238px" zoomAndPan="magnify"><defs/><g><text fill="#000000" font-family="sans-serif" font-size="14" font-weight="bold" lengthAdjust="spacing" textLength="185.165" x="519.4888" y="22.9951">1_4_3_Laeringsaktivitet</text><!--class L?ringsaktivitet--><g id="elem_L&#230;ringsaktivitet"><rect codeLine="599" fill="#F1F1F1" height="32" id="L&#230;ringsaktivitet" rx="2.5" ry="2.5" style="stroke:#181818;stroke-width:0.5;" width="146.2627" x="672" y="169.2969"/><ellipse cx="687" cy="185.2969" fill="#A9DCDF" rx="11" ry="11" style="stroke:#181818;stroke-width:1.0;"/><path d="M687.1094,180.6406 L685.9531,185.7188 L688.2813,185.7188 L687.1094,180.6406 Z M685.625,178.4063 L688.6094,178.4063 L691.9688,190.7969 L689.5156,190.7969 L688.75,187.7344 L685.4688,187.7344 L684.7188,190.7969 L682.2813,190.7969 L685.625,178.4063 Z " fill="#000000"/><text fill="#000000" font-family="sans-serif" font-size="14" font-style="italic" lengthAdjust="spacing" textLength="114.2627" x="701" y="190.1436">L&#230;ringsaktivitet</text></g><!--class Undervisning--><g id="elem_Undervisning"><rect codeLine="602" fill="#F1F1F1" height="56.2969" id="Undervisning" rx="2.5" ry="2.5" style="stroke:#181818;stroke-width:0.5;" width="232.2061" x="7" y="48.7969"/><ellipse cx="72.6694" cy="64.7969" fill="#ADD1B2" rx="11" ry="11" style="stroke:#181818;stroke-width:1.0;"/><path d="M75.6382,70.4375 Q75.0601,70.7344 74.4194,70.875 Q73.7788,71.0313 73.0757,71.0313 Q70.5757,71.0313 69.2476,69.3906 Q67.9351,67.7344 67.9351,64.6094 Q67.9351,61.4844 69.2476,59.8281 Q70.5757,58.1719 73.0757,58.1719 Q73.7788,58.1719 74.4194,58.3281 Q75.0757,58.4844 75.6382,58.7813 L75.6382,61.5 Q75.0132,60.9219 74.4194,60.6563 Q73.8257,60.375 73.2007,60.375 Q71.8569,60.375 71.1694,61.4531 Q70.4819,62.5156 70.4819,64.6094 Q70.4819,66.7031 71.1694,67.7813 Q71.8569,68.8438 73.2007,68.8438 Q73.8257,68.8438 74.4194,68.5781 Q75.0132,68.2969 75.6382,67.7188 L75.6382,70.4375 Z " fill="#000000"/><text fill="#000000" font-family="sans-serif" font-size="14" lengthAdjust="spacing" textLength="92.3672" x="93.1694" y="69.6436">Undervisning</text><line style="stroke:#181818;stroke-width:0.5;" x1="8" x2="238.2061" y1="80.7969" y2="80.7969"/><text fill="#000000" font-family="sans-serif" font-size="14" lengthAdjust="spacing" textLength="189.041" x="13" y="97.792">undervisningsform: Picklist</text><a href="1..1" target="_top" title="1..1" xlink:actuate="onRequest" xlink:href="1..1" xlink:show="new" xlink:title="1..1" xlink:type="simple"><text fill="#0000FF" font-family="sans-serif" font-size="14" lengthAdjust="spacing" text-decoration="underline" textLength="26.7148" x="206.4912" y="97.792">1..1</text></a></g><!--class Praktikophold--><g id="elem_Praktikophold"><rect codeLine="606" fill="#F1F1F1" height="32" id="Praktikophold" rx="2.5" ry="2.5" style="stroke:#181818;stroke-width:0.5;" width="128.0381" x="515" y="60.7969"/><ellipse cx="530" cy="76.7969" fill="#ADD1B2" rx="11" ry="11" style="stroke:#181818;stroke-width:1.0;"/><path d="M532.9688,82.4375 Q532.3906,82.7344 531.75,82.875 Q531.1094,83.0313 530.4063,83.0313 Q527.9063,83.0313 526.5781,81.3906 Q525.2656,79.7344 525.2656,76.6094 Q525.2656,73.4844 526.5781,71.8281 Q527.9063,70.1719 530.4063,70.1719 Q531.1094,70.1719 531.75,70.3281 Q532.4063,70.4844 532.9688,70.7813 L532.9688,73.5 Q532.3438,72.9219 531.75,72.6563 Q531.1563,72.375 530.5313,72.375 Q529.1875,72.375 528.5,73.4531 Q527.8125,74.5156 527.8125,76.6094 Q527.8125,78.7031 528.5,79.7813 Q529.1875,80.8438 530.5313,80.8438 Q531.1563,80.8438 531.75,80.5781 Q532.3438,80.2969 532.9688,79.7188 L532.9688,82.4375 Z " fill="#000000"/><text fill="#000000" font-family="sans-serif" font-size="14" lengthAdjust="spacing" textLength="96.0381" x="544" y="81.6436">Praktikophold</text></g><!--class Projektarbejde--><g id="elem_Projektarbejde"><rect codeLine="609" fill="#F1F1F1" height="32" id="Projektarbejde" rx="2.5" ry="2.5" style="stroke:#181818;stroke-width:0.5;" width="134.0879" x="678" y="60.7969"/><ellipse cx="693" cy="76.7969" fill="#ADD1B2" rx="11" ry="11" style="stroke:#181818;stroke-width:1.0;"/><path d="M695.9688,82.4375 Q695.3906,82.7344 694.75,82.875 Q694.1094,83.0313 693.4063,83.0313 Q690.9063,83.0313 689.5781,81.3906 Q688.2656,79.7344 688.2656,76.6094 Q688.2656,73.4844 689.5781,71.8281 Q690.9063,70.1719 693.4063,70.1719 Q694.1094,70.1719 694.75,70.3281 Q695.4063,70.4844 695.9688,70.7813 L695.9688,73.5 Q695.3438,72.9219 694.75,72.6563 Q694.1563,72.375 693.5313,72.375 Q692.1875,72.375 691.5,73.4531 Q690.8125,74.5156 690.8125,76.6094 Q690.8125,78.7031 691.5,79.7813 Q692.1875,80.8438 693.5313,80.8438 Q694.1563,80.8438 694.75,80.5781 Q695.3438,80.2969 695.9688,79.7188 L695.9688,82.4375 Z " fill="#000000"/><text fill="#000000" font-family="sans-serif" font-size="14" lengthAdjust="spacing" textLength="102.0879" x="707" y="81.6436">Projektarbejde</text></g><!--class FagligVejledning--><g id="elem_FagligVejledning"><rect codeLine="612" fill="#F1F1F1" height="32" id="FagligVejledning" rx="2.5" ry="2.5" style="stroke:#181818;stroke-width:0.5;" width="148.1768" x="847" y="60.7969"/><ellipse cx="862" cy="76.7969" fill="#ADD1B2" rx="11" ry="11" style="stroke:#181818;stroke-width:1.0;"/><path d="M864.9688,82.4375 Q864.3906,82.7344 863.75,82.875 Q863.1094,83.0313 862.4063,83.0313 Q859.9063,83.0313 858.5781,81.3906 Q857.2656,79.7344 857.2656,76.6094 Q857.2656,73.4844 858.5781,71.8281 Q859.9063,70.1719 862.4063,70.1719 Q863.1094,70.1719 863.75,70.3281 Q864.4063,70.4844 864.9688,70.7813 L864.9688,73.5 Q864.3438,72.9219 863.75,72.6563 Q863.1563,72.375 862.5313,72.375 Q861.1875,72.375 860.5,73.4531 Q859.8125,74.5156 859.8125,76.6094 Q859.8125,78.7031 860.5,79.7813 Q861.1875,80.8438 862.5313,80.8438 Q863.1563,80.8438 863.75,80.5781 Q864.3438,80.2969 864.9688,79.7188 L864.9688,82.4375 Z " fill="#000000"/><text fill="#000000" font-family="sans-serif" font-size="14" lengthAdjust="spacing" textLength="116.1768" x="876" y="81.6436">FagligVejledning</text></g><!--class ProjektorienteretOphold--><g id="elem_ProjektorienteretOphold"><rect codeLine="615" fill="#F1F1F1" height="32" id="ProjektorienteretOphold" rx="2.5" ry="2.5" style="stroke:#181818;stroke-width:0.5;" width="200.6426" x="1030.5" y="60.7969"/><ellipse cx="1045.5" cy="76.7969" fill="#ADD1B2" rx="11" ry="11" style="stroke:#181818;stroke-width:1.0;"/><path d="M1048.4688,82.4375 Q1047.8906,82.7344 1047.25,82.875 Q1046.6094,83.0313 1045.9063,83.0313 Q1043.4063,83.0313 1042.0781,81.3906 Q1040.7656,79.7344 1040.7656,76.6094 Q1040.7656,73.4844 1042.0781,71.8281 Q1043.4063,70.1719 1045.9063,70.1719 Q1046.6094,70.1719 1047.25,70.3281 Q1047.9063,70.4844 1048.4688,70.7813 L1048.4688,73.5 Q1047.8438,72.9219 1047.25,72.6563 Q1046.6563,72.375 1046.0313,72.375 Q1044.6875,72.375 1044,73.4531 Q1043.3125,74.5156 1043.3125,76.6094 Q1043.3125,78.7031 1044,79.7813 Q1044.6875,80.8438 1046.0313,80.8438 Q1046.6563,80.8438 1047.25,80.5781 Q1047.8438,80.2969 1048.4688,79.7188 L1048.4688,82.4375 Z " fill="#000000"/><text fill="#000000" font-family="sans-serif" font-size="14" lengthAdjust="spacing" textLength="168.6426" x="1059.5" y="81.6436">ProjektorienteretOphold</text></g><!--class UndervisningsformEnum--><g id="elem_UndervisningsformEnum"><rect codeLine="618" fill="#90EE90" height="64.5625" id="UndervisningsformEnum" rx="2.5" ry="2.5" style="stroke:#181818;stroke-width:0.5;" width="204.7783" x="274.5" y="44.2969"/><ellipse cx="289.5" cy="64.4297" fill="#EB937F" rx="11" ry="11" style="stroke:#181818;stroke-width:1.0;"/><path d="M293.6094,70.4297 L285.8906,70.4297 L285.8906,58.0391 L293.6094,58.0391 L293.6094,60.1953 L288.3438,60.1953 L288.3438,62.8672 L293.1094,62.8672 L293.1094,65.0234 L288.3438,65.0234 L288.3438,68.2734 L293.6094,68.2734 L293.6094,70.4297 Z " fill="#000000"/><text fill="#000000" font-family="sans-serif" font-size="12" font-style="italic" lengthAdjust="spacing" textLength="49.0957" x="365.3413" y="60.4355">&#171;enum&#187;</text><text fill="#000000" font-family="sans-serif" font-size="14" lengthAdjust="spacing" textLength="172.7783" x="303.5" y="76.2607">UndervisningsformEnum</text><line style="stroke:#181818;stroke-width:0.5;" x1="275.5" x2="478.2783" y1="84.5625" y2="84.5625"/><text fill="#000000" font-family="sans-serif" font-size="14" lengthAdjust="spacing" textLength="184.7344" x="280.5" y="101.5576">Lokalt defineret v&#230;rdiliste</text></g><!--link Undervisning to L?ringsaktivitet--><g id="link_Undervisning_L&#230;ringsaktivitet"><path codeLine="622" d="M123,104.8069 C123,138.7069 123,191.2969 123,191.2969 C123,191.2969 489.4,191.2969 653.82,191.2969 " fill="none" id="Undervisning-to-L&#230;ringsaktivitet" style="stroke:#181818;stroke-width:1.0;"/><polygon fill="none" points="671.82,191.2969,653.82,185.2969,653.82,197.2969,671.82,191.2969" style="stroke:#181818;stroke-width:1.0;"/></g><!--link Praktikophold to L?ringsaktivitet--><g id="link_Praktikophold_L&#230;ringsaktivitet"><path codeLine="623" d="M579,92.9669 C579,122.0769 579,180.2969 579,180.2969 C579,180.2969 609.24,180.2969 653.71,180.2969 " fill="none" id="Praktikophold-to-L&#230;ringsaktivitet" style="stroke:#181818;stroke-width:1.0;"/><polygon fill="none" points="671.71,180.2969,653.71,174.2969,653.71,186.2969,671.71,180.2969" style="stroke:#181818;stroke-width:1.0;"/></g><!--link ProjektorienteretOphold to L?ringsaktivitet--><g id="link_ProjektorienteretOphold_L&#230;ringsaktivitet"><path codeLine="624" d="M1131,93.2069 C1131,124.8669 1131,191.2969 1131,191.2969 C1131,191.2969 947.96,191.2969 836.06,191.2969 " fill="none" id="ProjektorienteretOphold-to-L&#230;ringsaktivitet" style="stroke:#181818;stroke-width:1.0;"/><polygon fill="none" points="818.06,191.2969,836.06,197.2969,836.06,185.2969,818.06,191.2969" style="stroke:#181818;stroke-width:1.0;"/></g><!--link Projektarbejde to L?ringsaktivitet--><g id="link_Projektarbejde_L&#230;ringsaktivitet"><path codeLine="625" d="M745,92.8069 C745,113.3169 745,130.6769 745,151.2169 " fill="none" id="Projektarbejde-to-L&#230;ringsaktivitet" style="stroke:#181818;stroke-width:1.0;"/><polygon fill="none" points="745,169.2169,751,151.2169,739,151.2169,745,169.2169" style="stroke:#181818;stroke-width:1.0;"/></g><!--link FagligVejledning to L?ringsaktivitet--><g id="link_FagligVejledning_L&#230;ringsaktivitet"><path codeLine="626" d="M921,92.9669 C921,122.0769 921,180.2969 921,180.2969 C921,180.2969 884.47,180.2969 836.11,180.2969 " fill="none" id="FagligVejledning-to-L&#230;ringsaktivitet" style="stroke:#181818;stroke-width:1.0;"/><polygon fill="none" points="818.11,180.2969,836.11,186.2969,836.11,174.2969,818.11,180.2969" style="stroke:#181818;stroke-width:1.0;"/></g><!--link Undervisning to UndervisningsformEnum--><g id="link_Undervisning_UndervisningsformEnum"><path codeLine="627" d="M239.22,77.2969 C250.98,77.2969 256.86,77.2969 268.46,77.2969 " fill="none" id="Undervisning-to-UndervisningsformEnum" style="stroke:#181818;stroke-width:1.0;stroke-dasharray:7.0,7.0;"/><polygon fill="#181818" points="274.46,77.2969,265.46,73.2969,269.46,77.2969,265.46,81.2969,274.46,77.2969" style="stroke:#181818;stroke-width:1.0;"/></g><!--SRC=[TSwn2i90383X_PuYnLqG7Ki7NHtTIzg6QsWkT-HoGX7VNKSN__LR_WUx49p6otWUxqZ66Yjkpazsyh3oGa2f-0w9qaHMGzrO2nec45RolH1aypN_m2nOAxm2VBlYl4NBJPTRbcnzJzhICC11EAuUZKZ3EuIETPQsK6qJ96GzbfQa-xFr0G00]--></g></svg>