<svg xmlns="http://www.w3.org/2000/svg" xmlns:xlink="http://www.w3.org/1999/xlink" contentStyleType="text/css" height="462px" preserveAspectRatio="none" style="width:1056px;height:462px;background:#FFFFFF;" version="1.1" viewBox="0 0 1056 462" width="1056px" zoomAndPan="magnify"><defs/><g><text fill="#000000" font-family="sans-serif" font-size="14" font-weight="bold" lengthAdjust="spacing" textLength="242.7031" x="399.8252" y="22.9951">1_5_Gruppering_af_fagelement</text><!--class GrupperingAfFagelement--><g id="elem_GrupperingAfFagelement"><rect codeLine="393" fill="#F1F1F1" height="137.7813" id="GrupperingAfFagelement" rx="2.5" ry="2.5" style="stroke:#181818;stroke-width:0.5;" width="316.7188" x="408" y="136.2969"/><ellipse cx="473.5977" cy="152.2969" fill="#ADD1B2" rx="11" ry="11" style="stroke:#181818;stroke-width:1.0;"/><path d="M476.5664,157.9375 Q475.9883,158.2344 475.3477,158.375 Q474.707,158.5313 474.0039,158.5313 Q471.5039,158.5313 470.1758,156.8906 Q468.8633,155.2344 468.8633,152.1094 Q468.8633,148.9844 470.1758,147.3281 Q471.5039,145.6719 474.0039,145.6719 Q474.707,145.6719 475.3477,145.8281 Q476.0039,145.9844 476.5664,146.2813 L476.5664,149 Q475.9414,148.4219 475.3477,148.1563 Q474.7539,147.875 474.1289,147.875 Q472.7852,147.875 472.0977,148.9531 Q471.4102,150.0156 471.4102,152.1094 Q471.4102,154.2031 472.0977,155.2813 Q472.7852,156.3438 474.1289,156.3438 Q474.7539,156.3438 475.3477,156.0781 Q475.9414,155.7969 476.5664,155.2188 L476.5664,157.9375 Z " fill="#000000"/><text fill="#000000" font-family="sans-serif" font-size="14" lengthAdjust="spacing" textLength="177.0234" x="494.0977" y="157.1436">GrupperingAfFagelement</text><line style="stroke:#181818;stroke-width:0.5;" x1="409" x2="723.7188" y1="168.2969" y2="168.2969"/><text fill="#000000" font-family="sans-serif" font-size="14" lengthAdjust="spacing" textLength="226.6797" x="414" y="185.292">fagelementgrupperingsform&#229;l: ?</text><a href="1..1" target="_top" title="1..1" xlink:actuate="onRequest" xlink:href="1..1" xlink:show="new" xlink:title="1..1" xlink:type="simple"><text fill="#0000FF" font-family="sans-serif" font-size="14" lengthAdjust="spacing" text-decoration="underline" textLength="26.7148" x="645.1299" y="185.292">1..1</text></a><text fill="#000000" font-family="sans-serif" font-size="14" lengthAdjust="spacing" textLength="257.2568" x="414" y="201.5889">fagelementgrupperingsnavn: Text80</text><a href="1..1" target="_top" title="1..1" xlink:actuate="onRequest" xlink:href="1..1" xlink:show="new" xlink:title="1..1" xlink:type="simple"><text fill="#0000FF" font-family="sans-serif" font-size="14" lengthAdjust="spacing" text-decoration="underline" textLength="26.7148" x="675.707" y="201.5889">1..1</text></a><text fill="#000000" font-family="sans-serif" font-size="14" lengthAdjust="spacing" textLength="253.8662" x="414" y="217.8857">fagelementgrupperingstype: Picklist</text><a href="0..1" target="_top" title="0..1" xlink:actuate="onRequest" xlink:href="0..1" xlink:show="new" xlink:title="0..1" xlink:type="simple"><text fill="#0000FF" font-family="sans-serif" font-size="14" lengthAdjust="spacing" text-decoration="underline" textLength="26.7148" x="672.3164" y="217.8857">0..1</text></a><text fill="#000000" font-family="sans-serif" font-size="14" lengthAdjust="spacing" textLength="257.0996" x="414" y="234.1826">prioriteringVedTilmelding: Number.0</text><a href="1..1" target="_top" title="1..1" xlink:actuate="onRequest" xlink:href="1..1" xlink:show="new" xlink:title="1..1" xlink:type="simple"><text fill="#0000FF" font-family="sans-serif" font-size="14" lengthAdjust="spacing" text-decoration="underline" textLength="26.7148" x="675.5498" y="234.1826">1..1</text></a><text fill="#000000" font-family="sans-serif" font-size="14" lengthAdjust="spacing" textLength="35.916" x="414" y="250.4795">&#171;BK&#187;</text><text fill="#000000" font-family="sans-serif" font-size="14" lengthAdjust="spacing" textLength="273.5537" x="414" y="266.7764">fagelementgrupperingskode: AutoNum</text><a href="1..1" target="_top" title="1..1" xlink:actuate="onRequest" xlink:href="1..1" xlink:show="new" xlink:title="1..1" xlink:type="simple"><text fill="#0000FF" font-family="sans-serif" font-size="14" lengthAdjust="spacing" text-decoration="underline" textLength="26.7148" x="692.0039" y="266.7764">1..1</text></a></g><!--class FagelementIFagelementgruppering--><g id="elem_FagelementIFagelementgruppering"><rect codeLine="402" fill="#F1F1F1" height="121.4844" id="FagelementIFagelementgruppering" rx="2.5" ry="2.5" style="stroke:#181818;stroke-width:0.5;" width="319.5557" x="82.5" y="334.2969"/><ellipse cx="115.3304" cy="350.2969" fill="#ADD1B2" rx="11" ry="11" style="stroke:#181818;stroke-width:1.0;"/><path d="M118.2991,355.9375 Q117.721,356.2344 117.0804,356.375 Q116.4397,356.5313 115.7366,356.5313 Q113.2366,356.5313 111.9085,354.8906 Q110.596,353.2344 110.596,350.1094 Q110.596,346.9844 111.9085,345.3281 Q113.2366,343.6719 115.7366,343.6719 Q116.4397,343.6719 117.0804,343.8281 Q117.7366,343.9844 118.2991,344.2813 L118.2991,347 Q117.6741,346.4219 117.0804,346.1563 Q116.4866,345.875 115.8616,345.875 Q114.5179,345.875 113.8304,346.9531 Q113.1429,348.0156 113.1429,350.1094 Q113.1429,352.2031 113.8304,353.2813 Q114.5179,354.3438 115.8616,354.3438 Q116.4866,354.3438 117.0804,354.0781 Q117.6741,353.7969 118.2991,353.2188 L118.2991,355.9375 Z " fill="#000000"/><text fill="#000000" font-family="sans-serif" font-size="14" lengthAdjust="spacing" textLength="247.9326" x="133.2927" y="355.1436">FagelementIFagelementgruppering</text><line style="stroke:#181818;stroke-width:0.5;" x1="83.5" x2="401.0557" y1="366.2969" y2="366.2969"/><text fill="#000000" font-family="sans-serif" font-size="14" lengthAdjust="spacing" textLength="150.5205" x="88.5" y="383.292">r&#230;kkef&#248;lgeP&#229;Bevis: ?</text><a href="0..1" target="_top" title="0..1" xlink:actuate="onRequest" xlink:href="0..1" xlink:show="new" xlink:title="0..1" xlink:type="simple"><text fill="#0000FF" font-family="sans-serif" font-size="14" lengthAdjust="spacing" text-decoration="underline" textLength="26.7148" x="243.4707" y="383.292">0..1</text></a><text fill="#000000" font-family="sans-serif" font-size="14" lengthAdjust="spacing" textLength="202.6787" x="88.5" y="399.5889">medtagesP&#229;Bevis: Checkbox</text><a href="1..1" target="_top" title="1..1" xlink:actuate="onRequest" xlink:href="1..1" xlink:show="new" xlink:title="1..1" xlink:type="simple"><text fill="#0000FF" font-family="sans-serif" font-size="14" lengthAdjust="spacing" text-decoration="underline" textLength="26.7148" x="295.6289" y="399.5889">1..1</text></a><text fill="#000000" font-family="sans-serif" font-size="14" lengthAdjust="spacing" textLength="35.916" x="88.5" y="415.8857">&#171;BK&#187;</text><text fill="#000000" font-family="sans-serif" font-size="14" lengthAdjust="spacing" textLength="276.3906" x="88.5" y="432.1826">/fagelementgrupperingskode: IgnoreBK</text><a href="1..1" target="_top" title="1..1" xlink:actuate="onRequest" xlink:href="1..1" xlink:show="new" xlink:title="1..1" xlink:type="simple"><text fill="#0000FF" font-family="sans-serif" font-size="14" lengthAdjust="spacing" text-decoration="underline" textLength="26.7148" x="369.3408" y="432.1826">1..1</text></a><text fill="#000000" font-family="sans-serif" font-size="14" lengthAdjust="spacing" textLength="191.7891" x="88.5" y="448.4795">/fagelementkode: IgnoreBK</text><a href="1..1" target="_top" title="1..1" xlink:actuate="onRequest" xlink:href="1..1" xlink:show="new" xlink:title="1..1" xlink:type="simple"><text fill="#0000FF" font-family="sans-serif" font-size="14" lengthAdjust="spacing" text-decoration="underline" textLength="26.7148" x="284.7393" y="448.4795">1..1</text></a></g><!--class FagelementgrupperingstypeEnum--><g id="elem_FagelementgrupperingstypeEnum"><rect codeLine="410" fill="#90EE90" height="129.75" id="FagelementgrupperingstypeEnum" rx="2.5" ry="2.5" style="stroke:#181818;stroke-width:0.5;" width="271.3535" x="778" y="140.2969"/><ellipse cx="793" cy="160.4297" fill="#EB937F" rx="11" ry="11" style="stroke:#181818;stroke-width:1.0;"/><path d="M797.1094,166.4297 L789.3906,166.4297 L789.3906,154.0391 L797.1094,154.0391 L797.1094,156.1953 L791.8438,156.1953 L791.8438,158.8672 L796.6094,158.8672 L796.6094,161.0234 L791.8438,161.0234 L791.8438,164.2734 L797.1094,164.2734 L797.1094,166.4297 Z " fill="#000000"/><text fill="#000000" font-family="sans-serif" font-size="12" font-style="italic" lengthAdjust="spacing" textLength="49.0957" x="902.1289" y="156.4355">&#171;enum&#187;</text><text fill="#000000" font-family="sans-serif" font-size="14" lengthAdjust="spacing" textLength="239.3535" x="807" y="172.2607">FagelementgrupperingstypeEnum</text><line style="stroke:#181818;stroke-width:0.5;" x1="779" x2="1048.3535" y1="180.5625" y2="180.5625"/><text fill="#000000" font-family="sans-serif" font-size="14" lengthAdjust="spacing" textLength="71.292" x="784" y="197.5576">centralfag</text><text fill="#000000" font-family="sans-serif" font-size="14" lengthAdjust="spacing" textLength="51.0781" x="784" y="213.8545">sidefag</text><text fill="#000000" font-family="sans-serif" font-size="14" lengthAdjust="spacing" textLength="72.5977" x="784" y="230.1514">tilvalgsfag</text><text fill="#000000" font-family="sans-serif" font-size="14" lengthAdjust="spacing" textLength="64.6885" x="784" y="246.4482">fagpakke</text><text fill="#000000" font-family="sans-serif" font-size="14" lengthAdjust="spacing" textLength="89.7012" x="784" y="262.7451">prop&#230;deutik</text></g><!--class PersonligFagelementgruppering--><g id="elem_PersonligFagelementgruppering"><rect fill="#F1F1F1" height="32" id="PersonligFagelementgruppering" rx="2.5" ry="2.5" style="stroke:#181818;stroke-width:0.5;" width="256.7656" x="438" y="378.7969"/><ellipse cx="453" cy="394.7969" fill="#ADD1B2" rx="11" ry="11" style="stroke:#181818;stroke-width:1.0;"/><path d="M455.9688,400.4375 Q455.3906,400.7344 454.75,400.875 Q454.1094,401.0313 453.4063,401.0313 Q450.9063,401.0313 449.5781,399.3906 Q448.2656,397.7344 448.2656,394.6094 Q448.2656,391.4844 449.5781,389.8281 Q450.9063,388.1719 453.4063,388.1719 Q454.1094,388.1719 454.75,388.3281 Q455.4063,388.4844 455.9688,388.7813 L455.9688,391.5 Q455.3438,390.9219 454.75,390.6563 Q454.1563,390.375 453.5313,390.375 Q452.1875,390.375 451.5,391.4531 Q450.8125,392.5156 450.8125,394.6094 Q450.8125,396.7031 451.5,397.7813 Q452.1875,398.8438 453.5313,398.8438 Q454.1563,398.8438 454.75,398.5781 Q455.3438,398.2969 455.9688,397.7188 L455.9688,400.4375 Z " fill="#000000"/><text fill="#000000" font-family="sans-serif" font-size="14" lengthAdjust="spacing" textLength="224.7656" x="467" y="399.6436">PersonligFagelementgruppering</text></g><!--class Studieforl?bFagelementgruppering--><g id="elem_Studieforl&#248;bFagelementgruppering"><rect fill="#F1F1F1" height="32" id="Studieforl&#248;bFagelementgruppering" rx="2.5" ry="2.5" style="stroke:#181818;stroke-width:0.5;" width="277.7861" x="730.5" y="378.7969"/><ellipse cx="745.5" cy="394.7969" fill="#ADD1B2" rx="11" ry="11" style="stroke:#181818;stroke-width:1.0;"/><path d="M748.4688,400.4375 Q747.8906,400.7344 747.25,400.875 Q746.6094,401.0313 745.9063,401.0313 Q743.4063,401.0313 742.0781,399.3906 Q740.7656,397.7344 740.7656,394.6094 Q740.7656,391.4844 742.0781,389.8281 Q743.4063,388.1719 745.9063,388.1719 Q746.6094,388.1719 747.25,388.3281 Q747.9063,388.4844 748.4688,388.7813 L748.4688,391.5 Q747.8438,390.9219 747.25,390.6563 Q746.6563,390.375 746.0313,390.375 Q744.6875,390.375 744,391.4531 Q743.3125,392.5156 743.3125,394.6094 Q743.3125,396.7031 744,397.7813 Q744.6875,398.8438 746.0313,398.8438 Q746.6563,398.8438 747.25,398.5781 Q747.8438,398.2969 748.4688,397.7188 L748.4688,400.4375 Z " fill="#000000"/><text fill="#000000" font-family="sans-serif" font-size="14" lengthAdjust="spacing" textLength="245.7861" x="759.5" y="399.6436">Studieforl&#248;bFagelementgruppering</text></g><!--class Fagelement--><g id="elem_Fagelement"><rect fill="#F1F1F1" height="32" id="Fagelement" rx="2.5" ry="2.5" style="stroke:#181818;stroke-width:0.5;" width="115.248" x="7" y="189.2969"/><ellipse cx="22" cy="205.2969" fill="#ADD1B2" rx="11" ry="11" style="stroke:#181818;stroke-width:1.0;"/><path d="M24.9688,210.9375 Q24.3906,211.2344 23.75,211.375 Q23.1094,211.5313 22.4063,211.5313 Q19.9063,211.5313 18.5781,209.8906 Q17.2656,208.2344 17.2656,205.1094 Q17.2656,201.9844 18.5781,200.3281 Q19.9063,198.6719 22.4063,198.6719 Q23.1094,198.6719 23.75,198.8281 Q24.4063,198.9844 24.9688,199.2813 L24.9688,202 Q24.3438,201.4219 23.75,201.1563 Q23.1563,200.875 22.5313,200.875 Q21.1875,200.875 20.5,201.9531 Q19.8125,203.0156 19.8125,205.1094 Q19.8125,207.2031 20.5,208.2813 Q21.1875,209.3438 22.5313,209.3438 Q23.1563,209.3438 23.75,209.0781 Q24.3438,208.7969 24.9688,208.2188 L24.9688,210.9375 Z " fill="#000000"/><text fill="#000000" font-family="sans-serif" font-size="14" lengthAdjust="spacing" textLength="83.248" x="36" y="210.1436">Fagelement</text></g><!--class Studieforl?b--><g id="elem_Studieforl&#248;b"><rect fill="#F1F1F1" height="32" id="Studieforl&#248;b" rx="2.5" ry="2.5" style="stroke:#181818;stroke-width:0.5;" width="117.2305" x="508" y="44.2969"/><ellipse cx="523" cy="60.2969" fill="#ADD1B2" rx="11" ry="11" style="stroke:#181818;stroke-width:1.0;"/><path d="M525.9688,65.9375 Q525.3906,66.2344 524.75,66.375 Q524.1094,66.5313 523.4063,66.5313 Q520.9063,66.5313 519.5781,64.8906 Q518.2656,63.2344 518.2656,60.1094 Q518.2656,56.9844 519.5781,55.3281 Q520.9063,53.6719 523.4063,53.6719 Q524.1094,53.6719 524.75,53.8281 Q525.4063,53.9844 525.9688,54.2813 L525.9688,57 Q525.3438,56.4219 524.75,56.1563 Q524.1563,55.875 523.5313,55.875 Q522.1875,55.875 521.5,56.9531 Q520.8125,58.0156 520.8125,60.1094 Q520.8125,62.2031 521.5,63.2813 Q522.1875,64.3438 523.5313,64.3438 Q524.1563,64.3438 524.75,64.0781 Q525.3438,63.7969 525.9688,63.2188 L525.9688,65.9375 Z " fill="#000000"/><text fill="#000000" font-family="sans-serif" font-size="14" lengthAdjust="spacing" textLength="85.2305" x="537" y="65.1436">Studieforl&#248;b</text></g><!--class Studieforl?bFagelement--><g id="elem_Studieforl&#248;bFagelement"><rect fill="#F1F1F1" height="32" id="Studieforl&#248;bFagelement" rx="2.5" ry="2.5" style="stroke:#181818;stroke-width:0.5;" width="200.4785" x="157.5" y="189.2969"/><ellipse cx="172.5" cy="205.2969" fill="#ADD1B2" rx="11" ry="11" style="stroke:#181818;stroke-width:1.0;"/><path d="M175.4688,210.9375 Q174.8906,211.2344 174.25,211.375 Q173.6094,211.5313 172.9063,211.5313 Q170.4063,211.5313 169.0781,209.8906 Q167.7656,208.2344 167.7656,205.1094 Q167.7656,201.9844 169.0781,200.3281 Q170.4063,198.6719 172.9063,198.6719 Q173.6094,198.6719 174.25,198.8281 Q174.9063,198.9844 175.4688,199.2813 L175.4688,202 Q174.8438,201.4219 174.25,201.1563 Q173.6563,200.875 173.0313,200.875 Q171.6875,200.875 171,201.9531 Q170.3125,203.0156 170.3125,205.1094 Q170.3125,207.2031 171,208.2813 Q171.6875,209.3438 173.0313,209.3438 Q173.6563,209.3438 174.25,209.0781 Q174.8438,208.7969 175.4688,208.2188 L175.4688,210.9375 Z " fill="#000000"/><text fill="#000000" font-family="sans-serif" font-size="14" lengthAdjust="spacing" textLength="168.4785" x="186.5" y="210.1436">Studieforl&#248;bFagelement</text></g><!--link GrupperingAfFagelement to GrupperingAfFagelement--><g id="link_GrupperingAfFagelement_GrupperingAfFagelement"><path codeLine="418" d="M458,136.2669 C458,119.5069 458,106.2969 458,106.2969 C458,106.2969 380,106.2969 380,106.2969 C380,106.2969 380,304.2969 380,304.2969 C380,304.2969 428,304.2969 428,304.2969 C428,304.2969 428,291.0869 428,274.3269 " fill="none" id="GrupperingAfFagelement-GrupperingAfFagelement" style="stroke:#181818;stroke-width:1.0;"/><text fill="#000000" font-family="sans-serif" font-size="13" lengthAdjust="spacing" textLength="23.0356" x="422.6413" y="125.4597">0..*</text><text fill="#000000" font-family="sans-serif" font-size="13" lengthAdjust="spacing" textLength="23.0356" x="414.9195" y="294.3041">0..*</text></g><!--link GrupperingAfFagelement to PersonligFagelementgruppering--><g id="link_GrupperingAfFagelement_PersonligFagelementgruppering"><path codeLine="419" d="M566.5,274.5169 C566.5,312.1569 566.5,355.6069 566.5,378.5869 " fill="none" id="GrupperingAfFagelement-PersonligFagelementgruppering" style="stroke:#181818;stroke-width:1.0;"/><text fill="#000000" font-family="sans-serif" font-size="13" lengthAdjust="spacing" textLength="8.271" x="558.1334" y="294.1532">1</text><text fill="#000000" font-family="sans-serif" font-size="13" lengthAdjust="spacing" textLength="23.0356" x="539.7353" y="367.8218">0..*</text></g><!--link GrupperingAfFagelement to Studieforl?bFagelementgruppering--><g id="link_GrupperingAfFagelement_Studieforl&#248;bFagelementgruppering"><path codeLine="420" d="M710,274.4269 C710,328.7569 710,395.2969 710,395.2969 C710,395.2969 717.91,395.2969 730.2,395.2969 " fill="none" id="GrupperingAfFagelement-Studieforl&#248;bFagelementgruppering" style="stroke:#181818;stroke-width:1.0;"/><text fill="#000000" font-family="sans-serif" font-size="13" lengthAdjust="spacing" textLength="8.271" x="715.7592" y="294.0543">1</text><text fill="#000000" font-family="sans-serif" font-size="13" lengthAdjust="spacing" textLength="23.0356" x="699.4308" y="392.0063">0..*</text></g><!--link GrupperingAfFagelement to FagelementIFagelementgruppering--><g id="link_GrupperingAfFagelement_FagelementIFagelementgruppering"><path codeLine="421" d="M418,274.6269 C418,314.7169 418,357.2969 418,357.2969 C418,357.2969 412.21,357.2969 402.73,357.2969 " fill="none" id="GrupperingAfFagelement-FagelementIFagelementgruppering" style="stroke:#181818;stroke-width:1.0;"/><text fill="#000000" font-family="sans-serif" font-size="13" lengthAdjust="spacing" textLength="8.271" x="395.4912" y="294.0334">1</text><text fill="#000000" font-family="sans-serif" font-size="13" lengthAdjust="spacing" textLength="23.0356" x="409.985" y="352.4579">0..*</text></g><!--link Fagelement to FagelementIFagelementgruppering--><g id="link_Fagelement_FagelementIFagelementgruppering"><path codeLine="422" d="M102.25,221.4569 C102.25,246.1569 102.25,294.5969 102.25,334.0069 " fill="none" id="Fagelement-FagelementIFagelementgruppering" style="stroke:#181818;stroke-width:1.0;"/><text fill="#000000" font-family="sans-serif" font-size="13" lengthAdjust="spacing" textLength="8.271" x="105.4335" y="241.3831">1</text><text fill="#000000" font-family="sans-serif" font-size="13" lengthAdjust="spacing" textLength="23.0356" x="61.7317" y="323.1574">0..*</text></g><!--link Studieforl?b to GrupperingAfFagelement--><g id="link_Studieforl&#248;b_GrupperingAfFagelement"><path codeLine="423" d="M566.5,76.3669 C566.5,91.0369 566.5,113.7869 566.5,136.1069 " fill="none" id="Studieforl&#248;b-GrupperingAfFagelement" style="stroke:#181818;stroke-width:1.0;"/><text fill="#000000" font-family="sans-serif" font-size="13" lengthAdjust="spacing" textLength="165.5215" x="567.5" y="102.3038">sidefag / tilvalg indl&#229;nt til</text><text fill="#000000" font-family="sans-serif" font-size="13" lengthAdjust="spacing" textLength="24.8066" x="538.6204" y="96.2633">0..1</text><text fill="#000000" font-family="sans-serif" font-size="13" lengthAdjust="spacing" textLength="23.0356" x="542.3304" y="125.2832">0..*</text></g><!--link Studieforl?bFagelement to FagelementIFagelementgruppering--><g id="link_Studieforl&#248;bFagelement_FagelementIFagelementgruppering"><path codeLine="424" d="M257.5,221.4569 C257.5,246.1569 257.5,294.5969 257.5,334.0069 " fill="none" id="Studieforl&#248;bFagelement-FagelementIFagelementgruppering" style="stroke:#181818;stroke-width:1.0;"/><text fill="#000000" font-family="sans-serif" font-size="13" lengthAdjust="spacing" textLength="23.0356" x="230.6173" y="241.3831">0..*</text><text fill="#000000" font-family="sans-serif" font-size="13" lengthAdjust="spacing" textLength="24.8066" x="233.9192" y="323.1574">0..1</text></g><!--link GrupperingAfFagelement to FagelementgrupperingstypeEnum--><g id="link_GrupperingAfFagelement_FagelementgrupperingstypeEnum"><path codeLine="425" d="M725.02,205.2969 C742.7,205.2969 754.59,205.2969 771.95,205.2969 " fill="none" id="GrupperingAfFagelement-to-FagelementgrupperingstypeEnum" style="stroke:#181818;stroke-width:1.0;stroke-dasharray:7.0,7.0;"/><polygon fill="#181818" points="777.95,205.2969,768.95,201.2969,772.95,205.2969,768.95,209.2969,777.95,205.2969" style="stroke:#181818;stroke-width:1.0;"/></g><!--SRC=[VSun3i8m343HFQTmnOx4m5PrW84Bi4TfuwPMRIToag52t1r69lxwbl-anWWNV_KFwwMWaIOVLh-6X8o2sjn64G6bj0C4PKQhhkwa9LWGO59iHq78rhRy0mk7Mk7buDijB7kot3NUCsSRHzGkqmGdfhIrP8ZgtiuDf0ltYBNF887qNBhmyE_j0m00]--></g></svg>