<svg xmlns="http://www.w3.org/2000/svg" xmlns:xlink="http://www.w3.org/1999/xlink" contentStyleType="text/css" height="175px" preserveAspectRatio="none" style="width:2851px;height:175px;background:#FFFFFF;" version="1.1" viewBox="0 0 2851 175" width="2851px" zoomAndPan="magnify"><defs/><g><text fill="#000000" font-family="sans-serif" font-size="14" font-weight="bold" lengthAdjust="spacing" textLength="190.6338" x="1323.4399" y="22.9951">1_7_2_Udbudt_enkeltfag</text><!--class UdbudtEnkeltfagSomTomplads--><g id="elem_UdbudtEnkeltfagSomTomplads"><rect codeLine="1413" fill="#F1F1F1" height="32" id="UdbudtEnkeltfagSomTomplads" rx="2.5" ry="2.5" style="stroke:#181818;stroke-width:0.5;" width="248.8633" x="7" y="44.2969"/><ellipse cx="22" cy="60.2969" fill="#ADD1B2" rx="11" ry="11" style="stroke:#181818;stroke-width:1.0;"/><path d="M24.9688,65.9375 Q24.3906,66.2344 23.75,66.375 Q23.1094,66.5313 22.4063,66.5313 Q19.9063,66.5313 18.5781,64.8906 Q17.2656,63.2344 17.2656,60.1094 Q17.2656,56.9844 18.5781,55.3281 Q19.9063,53.6719 22.4063,53.6719 Q23.1094,53.6719 23.75,53.8281 Q24.4063,53.9844 24.9688,54.2813 L24.9688,57 Q24.3438,56.4219 23.75,56.1563 Q23.1563,55.875 22.5313,55.875 Q21.1875,55.875 20.5,56.9531 Q19.8125,58.0156 19.8125,60.1094 Q19.8125,62.2031 20.5,63.2813 Q21.1875,64.3438 22.5313,64.3438 Q23.1563,64.3438 23.75,64.0781 Q24.3438,63.7969 24.9688,63.2188 L24.9688,65.9375 Z " fill="#000000"/><text fill="#000000" font-family="sans-serif" font-size="14" lengthAdjust="spacing" textLength="216.8633" x="36" y="65.1436">UdbudtEnkeltfagSomTomplads</text></g><!--class UdbudtEnkeltfagTilMeritstuderende--><g id="elem_UdbudtEnkeltfagTilMeritstuderende"><rect codeLine="1416" fill="#F1F1F1" height="32" id="UdbudtEnkeltfagTilMeritstuderende" rx="2.5" ry="2.5" style="stroke:#181818;stroke-width:0.5;" width="281.5391" x="291.5" y="44.2969"/><ellipse cx="306.5" cy="60.2969" fill="#ADD1B2" rx="11" ry="11" style="stroke:#181818;stroke-width:1.0;"/><path d="M309.4688,65.9375 Q308.8906,66.2344 308.25,66.375 Q307.6094,66.5313 306.9063,66.5313 Q304.4063,66.5313 303.0781,64.8906 Q301.7656,63.2344 301.7656,60.1094 Q301.7656,56.9844 303.0781,55.3281 Q304.4063,53.6719 306.9063,53.6719 Q307.6094,53.6719 308.25,53.8281 Q308.9063,53.9844 309.4688,54.2813 L309.4688,57 Q308.8438,56.4219 308.25,56.1563 Q307.6563,55.875 307.0313,55.875 Q305.6875,55.875 305,56.9531 Q304.3125,58.0156 304.3125,60.1094 Q304.3125,62.2031 305,63.2813 Q305.6875,64.3438 307.0313,64.3438 Q307.6563,64.3438 308.25,64.0781 Q308.8438,63.7969 309.4688,63.2188 L309.4688,65.9375 Z " fill="#000000"/><text fill="#000000" font-family="sans-serif" font-size="14" lengthAdjust="spacing" textLength="249.5391" x="320.5" y="65.1436">UdbudtEnkeltfagTilMeritstuderende</text></g><!--class UdbudtEnkeltfag--><g id="elem_UdbudtEnkeltfag"><rect codeLine="1419" fill="#F1F1F1" height="32" id="UdbudtEnkeltfag" rx="2.5" ry="2.5" style="stroke:#181818;stroke-width:0.5;" width="149.4824" x="1380" y="136.2969"/><ellipse cx="1395" cy="152.2969" fill="#A9DCDF" rx="11" ry="11" style="stroke:#181818;stroke-width:1.0;"/><path d="M1395.1094,147.6406 L1393.9531,152.7188 L1396.2813,152.7188 L1395.1094,147.6406 Z M1393.625,145.4063 L1396.6094,145.4063 L1399.9688,157.7969 L1397.5156,157.7969 L1396.75,154.7344 L1393.4688,154.7344 L1392.7188,157.7969 L1390.2813,157.7969 L1393.625,145.4063 Z " fill="#000000"/><text fill="#000000" font-family="sans-serif" font-size="14" font-style="italic" lengthAdjust="spacing" textLength="117.4824" x="1409" y="157.1436">UdbudtEnkeltfag</text></g><!--class UdbudtEnkeltfagTilUdvekslingsstuderende--><g id="elem_UdbudtEnkeltfagTilUdvekslingsstuderende"><rect codeLine="1422" fill="#F1F1F1" height="32" id="UdbudtEnkeltfagTilUdvekslingsstuderende" rx="2.5" ry="2.5" style="stroke:#181818;stroke-width:0.5;" width="329.9785" x="608.5" y="44.2969"/><ellipse cx="623.5" cy="60.2969" fill="#ADD1B2" rx="11" ry="11" style="stroke:#181818;stroke-width:1.0;"/><path d="M626.4688,65.9375 Q625.8906,66.2344 625.25,66.375 Q624.6094,66.5313 623.9063,66.5313 Q621.4063,66.5313 620.0781,64.8906 Q618.7656,63.2344 618.7656,60.1094 Q618.7656,56.9844 620.0781,55.3281 Q621.4063,53.6719 623.9063,53.6719 Q624.6094,53.6719 625.25,53.8281 Q625.9063,53.9844 626.4688,54.2813 L626.4688,57 Q625.8438,56.4219 625.25,56.1563 Q624.6563,55.875 624.0313,55.875 Q622.6875,55.875 622,56.9531 Q621.3125,58.0156 621.3125,60.1094 Q621.3125,62.2031 622,63.2813 Q622.6875,64.3438 624.0313,64.3438 Q624.6563,64.3438 625.25,64.0781 Q625.8438,63.7969 626.4688,63.2188 L626.4688,65.9375 Z " fill="#000000"/><text fill="#000000" font-family="sans-serif" font-size="14" lengthAdjust="spacing" textLength="297.9785" x="637.5" y="65.1436">UdbudtEnkeltfagTilUdvekslingsstuderende</text></g><!--class UdbudtEnkeltfagFraDeltidsuddannelse--><g id="elem_UdbudtEnkeltfagFraDeltidsuddannelse"><rect codeLine="1425" fill="#F1F1F1" height="32" id="UdbudtEnkeltfagFraDeltidsuddannelse" rx="2.5" ry="2.5" style="stroke:#181818;stroke-width:0.5;" width="302.0947" x="973.5" y="44.2969"/><ellipse cx="988.5" cy="60.2969" fill="#ADD1B2" rx="11" ry="11" style="stroke:#181818;stroke-width:1.0;"/><path d="M991.4688,65.9375 Q990.8906,66.2344 990.25,66.375 Q989.6094,66.5313 988.9063,66.5313 Q986.4063,66.5313 985.0781,64.8906 Q983.7656,63.2344 983.7656,60.1094 Q983.7656,56.9844 985.0781,55.3281 Q986.4063,53.6719 988.9063,53.6719 Q989.6094,53.6719 990.25,53.8281 Q990.9063,53.9844 991.4688,54.2813 L991.4688,57 Q990.8438,56.4219 990.25,56.1563 Q989.6563,55.875 989.0313,55.875 Q987.6875,55.875 987,56.9531 Q986.3125,58.0156 986.3125,60.1094 Q986.3125,62.2031 987,63.2813 Q987.6875,64.3438 989.0313,64.3438 Q989.6563,64.3438 990.25,64.0781 Q990.8438,63.7969 991.4688,63.2188 L991.4688,65.9375 Z " fill="#000000"/><text fill="#000000" font-family="sans-serif" font-size="14" lengthAdjust="spacing" textLength="270.0947" x="1002.5" y="65.1436">UdbudtEnkeltfagFraDeltidsuddannelse</text></g><!--class UdbudtEnkeltfagSomAdgangskursus--><g id="elem_UdbudtEnkeltfagSomAdgangskursus"><rect codeLine="1428" fill="#F1F1F1" height="32" id="UdbudtEnkeltfagSomAdgangskursus" rx="2.5" ry="2.5" style="stroke:#181818;stroke-width:0.5;" width="287.7529" x="1310.5" y="44.2969"/><ellipse cx="1325.5" cy="60.2969" fill="#ADD1B2" rx="11" ry="11" style="stroke:#181818;stroke-width:1.0;"/><path d="M1328.4688,65.9375 Q1327.8906,66.2344 1327.25,66.375 Q1326.6094,66.5313 1325.9063,66.5313 Q1323.4063,66.5313 1322.0781,64.8906 Q1320.7656,63.2344 1320.7656,60.1094 Q1320.7656,56.9844 1322.0781,55.3281 Q1323.4063,53.6719 1325.9063,53.6719 Q1326.6094,53.6719 1327.25,53.8281 Q1327.9063,53.9844 1328.4688,54.2813 L1328.4688,57 Q1327.8438,56.4219 1327.25,56.1563 Q1326.6563,55.875 1326.0313,55.875 Q1324.6875,55.875 1324,56.9531 Q1323.3125,58.0156 1323.3125,60.1094 Q1323.3125,62.2031 1324,63.2813 Q1324.6875,64.3438 1326.0313,64.3438 Q1326.6563,64.3438 1327.25,64.0781 Q1327.8438,63.7969 1328.4688,63.2188 L1328.4688,65.9375 Z " fill="#000000"/><text fill="#000000" font-family="sans-serif" font-size="14" lengthAdjust="spacing" textLength="255.7529" x="1339.5" y="65.1436">UdbudtEnkeltfagSomAdgangskursus</text></g><!--class UdbudtEnkeltfagSomFagspecifiktKursus--><g id="elem_UdbudtEnkeltfagSomFagspecifiktKursus"><rect codeLine="1431" fill="#F1F1F1" height="32" id="UdbudtEnkeltfagSomFagspecifiktKursus" rx="2.5" ry="2.5" style="stroke:#181818;stroke-width:0.5;" width="312.1572" x="1633.5" y="44.2969"/><ellipse cx="1648.5" cy="60.2969" fill="#ADD1B2" rx="11" ry="11" style="stroke:#181818;stroke-width:1.0;"/><path d="M1651.4688,65.9375 Q1650.8906,66.2344 1650.25,66.375 Q1649.6094,66.5313 1648.9063,66.5313 Q1646.4063,66.5313 1645.0781,64.8906 Q1643.7656,63.2344 1643.7656,60.1094 Q1643.7656,56.9844 1645.0781,55.3281 Q1646.4063,53.6719 1648.9063,53.6719 Q1649.6094,53.6719 1650.25,53.8281 Q1650.9063,53.9844 1651.4688,54.2813 L1651.4688,57 Q1650.8438,56.4219 1650.25,56.1563 Q1649.6563,55.875 1649.0313,55.875 Q1647.6875,55.875 1647,56.9531 Q1646.3125,58.0156 1646.3125,60.1094 Q1646.3125,62.2031 1647,63.2813 Q1647.6875,64.3438 1649.0313,64.3438 Q1649.6563,64.3438 1650.25,64.0781 Q1650.8438,63.7969 1651.4688,63.2188 L1651.4688,65.9375 Z " fill="#000000"/><text fill="#000000" font-family="sans-serif" font-size="14" lengthAdjust="spacing" textLength="280.1572" x="1662.5" y="65.1436">UdbudtEnkeltfagSomFagspecifiktKursus</text></g><!--class UdbudtEnkeltfagSomKortKursus--><g id="elem_UdbudtEnkeltfagSomKortKursus"><rect codeLine="1434" fill="#F1F1F1" height="32" id="UdbudtEnkeltfagSomKortKursus" rx="2.5" ry="2.5" style="stroke:#181818;stroke-width:0.5;" width="256.834" x="1981" y="44.2969"/><ellipse cx="1996" cy="60.2969" fill="#ADD1B2" rx="11" ry="11" style="stroke:#181818;stroke-width:1.0;"/><path d="M1998.9688,65.9375 Q1998.3906,66.2344 1997.75,66.375 Q1997.1094,66.5313 1996.4063,66.5313 Q1993.9063,66.5313 1992.5781,64.8906 Q1991.2656,63.2344 1991.2656,60.1094 Q1991.2656,56.9844 1992.5781,55.3281 Q1993.9063,53.6719 1996.4063,53.6719 Q1997.1094,53.6719 1997.75,53.8281 Q1998.4063,53.9844 1998.9688,54.2813 L1998.9688,57 Q1998.3438,56.4219 1997.75,56.1563 Q1997.1563,55.875 1996.5313,55.875 Q1995.1875,55.875 1994.5,56.9531 Q1993.8125,58.0156 1993.8125,60.1094 Q1993.8125,62.2031 1994.5,63.2813 Q1995.1875,64.3438 1996.5313,64.3438 Q1997.1563,64.3438 1997.75,64.0781 Q1998.3438,63.7969 1998.9688,63.2188 L1998.9688,65.9375 Z " fill="#000000"/><text fill="#000000" font-family="sans-serif" font-size="14" lengthAdjust="spacing" textLength="224.834" x="2010" y="65.1436">UdbudtEnkeltfagSomKortKursus</text></g><!--class UdbudtEnkeltfagSomS?rskiltModul--><g id="elem_UdbudtEnkeltfagSomS&#230;rskiltModul"><rect codeLine="1437" fill="#F1F1F1" height="32" id="UdbudtEnkeltfagSomS&#230;rskiltModul" rx="2.5" ry="2.5" style="stroke:#181818;stroke-width:0.5;" width="279.9258" x="2273.5" y="44.2969"/><ellipse cx="2288.5" cy="60.2969" fill="#ADD1B2" rx="11" ry="11" style="stroke:#181818;stroke-width:1.0;"/><path d="M2291.4688,65.9375 Q2290.8906,66.2344 2290.25,66.375 Q2289.6094,66.5313 2288.9063,66.5313 Q2286.4063,66.5313 2285.0781,64.8906 Q2283.7656,63.2344 2283.7656,60.1094 Q2283.7656,56.9844 2285.0781,55.3281 Q2286.4063,53.6719 2288.9063,53.6719 Q2289.6094,53.6719 2290.25,53.8281 Q2290.9063,53.9844 2291.4688,54.2813 L2291.4688,57 Q2290.8438,56.4219 2290.25,56.1563 Q2289.6563,55.875 2289.0313,55.875 Q2287.6875,55.875 2287,56.9531 Q2286.3125,58.0156 2286.3125,60.1094 Q2286.3125,62.2031 2287,63.2813 Q2287.6875,64.3438 2289.0313,64.3438 Q2289.6563,64.3438 2290.25,64.0781 Q2290.8438,63.7969 2291.4688,63.2188 L2291.4688,65.9375 Z " fill="#000000"/><text fill="#000000" font-family="sans-serif" font-size="14" lengthAdjust="spacing" textLength="247.9258" x="2302.5" y="65.1436">UdbudtEnkeltfagSomS&#230;rskiltModul</text></g><!--class UdbudtEnkeltfagSomSupplering--><g id="elem_UdbudtEnkeltfagSomSupplering"><rect codeLine="1440" fill="#F1F1F1" height="32" id="UdbudtEnkeltfagSomSupplering" rx="2.5" ry="2.5" style="stroke:#181818;stroke-width:0.5;" width="256.0137" x="2588.5" y="44.2969"/><ellipse cx="2603.5" cy="60.2969" fill="#ADD1B2" rx="11" ry="11" style="stroke:#181818;stroke-width:1.0;"/><path d="M2606.4688,65.9375 Q2605.8906,66.2344 2605.25,66.375 Q2604.6094,66.5313 2603.9063,66.5313 Q2601.4063,66.5313 2600.0781,64.8906 Q2598.7656,63.2344 2598.7656,60.1094 Q2598.7656,56.9844 2600.0781,55.3281 Q2601.4063,53.6719 2603.9063,53.6719 Q2604.6094,53.6719 2605.25,53.8281 Q2605.9063,53.9844 2606.4688,54.2813 L2606.4688,57 Q2605.8438,56.4219 2605.25,56.1563 Q2604.6563,55.875 2604.0313,55.875 Q2602.6875,55.875 2602,56.9531 Q2601.3125,58.0156 2601.3125,60.1094 Q2601.3125,62.2031 2602,63.2813 Q2602.6875,64.3438 2604.0313,64.3438 Q2604.6563,64.3438 2605.25,64.0781 Q2605.8438,63.7969 2606.4688,63.2188 L2606.4688,65.9375 Z " fill="#000000"/><text fill="#000000" font-family="sans-serif" font-size="14" lengthAdjust="spacing" textLength="224.0137" x="2617.5" y="65.1436">UdbudtEnkeltfagSomSupplering</text></g><!--link UdbudtEnkeltfagSomTomplads to UdbudtEnkeltfag--><g id="link_UdbudtEnkeltfagSomTomplads_UdbudtEnkeltfag"><path codeLine="1443" d="M131.5,76.6869 C131.5,105.5169 131.5,162.2969 131.5,162.2969 C131.5,162.2969 1081.71,162.2969 1361.58,162.2969 " fill="none" id="UdbudtEnkeltfagSomTomplads-to-UdbudtEnkeltfag" style="stroke:#181818;stroke-width:1.0;"/><polygon fill="none" points="1379.58,162.2969,1361.58,156.2969,1361.58,168.2969,1379.58,162.2969" style="stroke:#181818;stroke-width:1.0;"/></g><!--link UdbudtEnkeltfagTilMeritstuderende to UdbudtEnkeltfag--><g id="link_UdbudtEnkeltfagTilMeritstuderende_UdbudtEnkeltfag"><path codeLine="1444" d="M432.5,76.5869 C432.5,103.9669 432.5,156.2969 432.5,156.2969 C432.5,156.2969 1126.16,156.2969 1361.76,156.2969 " fill="none" id="UdbudtEnkeltfagTilMeritstuderende-to-UdbudtEnkeltfag" style="stroke:#181818;stroke-width:1.0;"/><polygon fill="none" points="1379.76,156.2969,1361.76,150.2969,1361.76,162.2969,1379.76,156.2969" style="stroke:#181818;stroke-width:1.0;"/></g><!--link UdbudtEnkeltfagTilUdvekslingsstuderende to UdbudtEnkeltfag--><g id="link_UdbudtEnkeltfagTilUdvekslingsstuderende_UdbudtEnkeltfag"><path codeLine="1445" d="M773.5,76.6169 C773.5,102.3169 773.5,149.2969 773.5,149.2969 C773.5,149.2969 1185.3,149.2969 1362,149.2969 " fill="none" id="UdbudtEnkeltfagTilUdvekslingsstuderende-to-UdbudtEnkeltfag" style="stroke:#181818;stroke-width:1.0;"/><polygon fill="none" points="1380,149.2969,1362,143.2969,1362,155.2969,1380,149.2969" style="stroke:#181818;stroke-width:1.0;"/></g><!--link UdbudtEnkeltfagFraDeltidsuddannelse to UdbudtEnkeltfag--><g id="link_UdbudtEnkeltfagFraDeltidsuddannelse_UdbudtEnkeltfag"><path codeLine="1446" d="M1124.5,76.2969 C1124.5,100.4169 1124.5,143.2969 1124.5,143.2969 C1124.5,143.2969 1264.25,143.2969 1361.62,143.2969 " fill="none" id="UdbudtEnkeltfagFraDeltidsuddannelse-to-UdbudtEnkeltfag" style="stroke:#181818;stroke-width:1.0;"/><polygon fill="none" points="1379.62,143.2969,1361.62,137.2969,1361.62,149.2969,1379.62,143.2969" style="stroke:#181818;stroke-width:1.0;"/></g><!--link UdbudtEnkeltfagSomAdgangskursus to UdbudtEnkeltfag--><g id="link_UdbudtEnkeltfagSomAdgangskursus_UdbudtEnkeltfag"><path codeLine="1447" d="M1454.5,76.3269 C1454.5,93.1069 1454.5,101.3169 1454.5,118.1469 " fill="none" id="UdbudtEnkeltfagSomAdgangskursus-to-UdbudtEnkeltfag" style="stroke:#181818;stroke-width:1.0;"/><polygon fill="none" points="1454.5,136.1469,1460.5,118.1469,1448.5,118.1469,1454.5,136.1469" style="stroke:#181818;stroke-width:1.0;"/></g><!--link UdbudtEnkeltfagSomFagspecifiktKursus to UdbudtEnkeltfag--><g id="link_UdbudtEnkeltfagSomFagspecifiktKursus_UdbudtEnkeltfag"><path codeLine="1448" d="M1789.5,76.2969 C1789.5,100.4169 1789.5,143.2969 1789.5,143.2969 C1789.5,143.2969 1646,143.2969 1547.26,143.2969 " fill="none" id="UdbudtEnkeltfagSomFagspecifiktKursus-to-UdbudtEnkeltfag" style="stroke:#181818;stroke-width:1.0;"/><polygon fill="none" points="1529.26,143.2969,1547.26,149.2969,1547.26,137.2969,1529.26,143.2969" style="stroke:#181818;stroke-width:1.0;"/></g><!--link UdbudtEnkeltfagSomKortKursus to UdbudtEnkeltfag--><g id="link_UdbudtEnkeltfagSomKortKursus_UdbudtEnkeltfag"><path codeLine="1449" d="M2109.5,76.6169 C2109.5,102.3169 2109.5,149.2969 2109.5,149.2969 C2109.5,149.2969 1719.18,149.2969 1547.32,149.2969 " fill="none" id="UdbudtEnkeltfagSomKortKursus-to-UdbudtEnkeltfag" style="stroke:#181818;stroke-width:1.0;"/><polygon fill="none" points="1529.32,149.2969,1547.32,155.2969,1547.32,143.2969,1529.32,149.2969" style="stroke:#181818;stroke-width:1.0;"/></g><!--link UdbudtEnkeltfagSomS?rskiltModul to UdbudtEnkeltfag--><g id="link_UdbudtEnkeltfagSomS&#230;rskiltModul_UdbudtEnkeltfag"><path codeLine="1450" d="M2413.5,76.5869 C2413.5,103.9669 2413.5,156.2969 2413.5,156.2969 C2413.5,156.2969 1773.05,156.2969 1547.35,156.2969 " fill="none" id="UdbudtEnkeltfagSomS&#230;rskiltModul-to-UdbudtEnkeltfag" style="stroke:#181818;stroke-width:1.0;"/><polygon fill="none" points="1529.35,156.2969,1547.35,162.2969,1547.35,150.2969,1529.35,156.2969" style="stroke:#181818;stroke-width:1.0;"/></g><!--link UdbudtEnkeltfagSomSupplering to UdbudtEnkeltfag--><g id="link_UdbudtEnkeltfagSomSupplering_UdbudtEnkeltfag"><path codeLine="1451" d="M2716.5,76.6869 C2716.5,105.5169 2716.5,162.2969 2716.5,162.2969 C2716.5,162.2969 1818.3,162.2969 1547.2,162.2969 " fill="none" id="UdbudtEnkeltfagSomSupplering-to-UdbudtEnkeltfag" style="stroke:#181818;stroke-width:1.0;"/><polygon fill="none" points="1529.2,162.2969,1547.2,168.2969,1547.2,156.2969,1529.2,162.2969" style="stroke:#181818;stroke-width:1.0;"/></g><!--SRC=[RSun3i8m343HFQTmnOu42qlL0Qu0SvGs9hLgEr7Y31NYxZ0oyDUt_3iP8vpynP_z8yuzcaVTaEqPabif8g0Ksq5GPgpDjOsqX1e4c1HjBmYvsff_OE7G6hmSVBk6PKirTustpBcE8sgNQO83KrejLKHrR-S6qeLxnDPda41wB5ru-7_r0G00]--></g></svg>