<svg xmlns="http://www.w3.org/2000/svg" xmlns:xlink="http://www.w3.org/1999/xlink" contentStyleType="text/css" height="429px" preserveAspectRatio="none" style="width:692px;height:429px;background:#FFFFFF;" version="1.1" viewBox="0 0 692 429" width="692px" zoomAndPan="magnify"><defs/><g><text fill="#000000" font-family="sans-serif" font-size="14" font-weight="bold" lengthAdjust="spacing" textLength="218.1074" x="230.1626" y="22.9951">1_7_3_Studiepladskapacitet</text><!--class Studiepladskapacitet--><g id="elem_Studiepladskapacitet"><rect codeLine="2617" fill="#F1F1F1" height="121.4844" id="Studiepladskapacitet" rx="2.5" ry="2.5" style="stroke:#181818;stroke-width:0.5;" width="296.7715" x="183" y="209.2969"/><ellipse cx="253.3828" cy="225.2969" fill="#ADD1B2" rx="11" ry="11" style="stroke:#181818;stroke-width:1.0;"/><path d="M256.3516,230.9375 Q255.7734,231.2344 255.1328,231.375 Q254.4922,231.5313 253.7891,231.5313 Q251.2891,231.5313 249.9609,229.8906 Q248.6484,228.2344 248.6484,225.1094 Q248.6484,221.9844 249.9609,220.3281 Q251.2891,218.6719 253.7891,218.6719 Q254.4922,218.6719 255.1328,218.8281 Q255.7891,218.9844 256.3516,219.2813 L256.3516,222 Q255.7266,221.4219 255.1328,221.1563 Q254.5391,220.875 253.9141,220.875 Q252.5703,220.875 251.8828,221.9531 Q251.1953,223.0156 251.1953,225.1094 Q251.1953,227.2031 251.8828,228.2813 Q252.5703,229.3438 253.9141,229.3438 Q254.5391,229.3438 255.1328,229.0781 Q255.7266,228.7969 256.3516,228.2188 L256.3516,230.9375 Z " fill="#000000"/><text fill="#000000" font-family="sans-serif" font-size="14" lengthAdjust="spacing" textLength="147.5059" x="273.8828" y="230.1436">Studiepladskapacitet</text><line style="stroke:#181818;stroke-width:0.5;" x1="184" x2="478.7715" y1="241.2969" y2="241.2969"/><text fill="#000000" font-family="sans-serif" font-size="14" lengthAdjust="spacing" textLength="253.1416" x="189" y="258.292">reelStudiepladskapacitet: Number.0</text><a href="1..1" target="_top" title="1..1" xlink:actuate="onRequest" xlink:href="1..1" xlink:show="new" xlink:title="1..1" xlink:type="simple"><text fill="#0000FF" font-family="sans-serif" font-size="14" lengthAdjust="spacing" text-decoration="underline" textLength="26.7148" x="446.5918" y="258.292">1..1</text></a><text fill="#000000" font-family="sans-serif" font-size="14" lengthAdjust="spacing" textLength="253.6064" x="189" y="274.5889">efteroptagelseskapacitet: Number.0</text><a href="1..1" target="_top" title="1..1" xlink:actuate="onRequest" xlink:href="1..1" xlink:show="new" xlink:title="1..1" xlink:type="simple"><text fill="#0000FF" font-family="sans-serif" font-size="14" lengthAdjust="spacing" text-decoration="underline" textLength="26.7148" x="447.0566" y="274.5889">1..1</text></a><text fill="#000000" font-family="sans-serif" font-size="14" lengthAdjust="spacing" textLength="213.1445" x="189" y="290.8857">ventelistekapacitet: Number.0</text><a href="1..1" target="_top" title="1..1" xlink:actuate="onRequest" xlink:href="1..1" xlink:show="new" xlink:title="1..1" xlink:type="simple"><text fill="#0000FF" font-family="sans-serif" font-size="14" lengthAdjust="spacing" text-decoration="underline" textLength="26.7148" x="406.5947" y="290.8857">1..1</text></a><text fill="#000000" font-family="sans-serif" font-size="14" lengthAdjust="spacing" textLength="221.0195" x="189" y="307.1826">/optagelseskapcitet: Calculated</text><a href="1..1" target="_top" title="1..1" xlink:actuate="onRequest" xlink:href="1..1" xlink:show="new" xlink:title="1..1" xlink:type="simple"><text fill="#0000FF" font-family="sans-serif" font-size="14" lengthAdjust="spacing" text-decoration="underline" textLength="26.7148" x="414.4697" y="307.1826">1..1</text></a><text fill="#000000" font-family="sans-serif" font-size="14" lengthAdjust="spacing" textLength="208.4619" x="189" y="323.4795">overbookingsantal: Number.0</text><a href="1..1" target="_top" title="1..1" xlink:actuate="onRequest" xlink:href="1..1" xlink:show="new" xlink:title="1..1" xlink:type="simple"><text fill="#0000FF" font-family="sans-serif" font-size="14" lengthAdjust="spacing" text-decoration="underline" textLength="26.7148" x="401.9121" y="323.4795">1..1</text></a></g><!--class StudiepladskapacitetBachelor--><g id="elem_StudiepladskapacitetBachelor"><rect codeLine="2625" fill="#F1F1F1" height="105.1875" id="StudiepladskapacitetBachelor" rx="2.5" ry="2.5" style="stroke:#181818;stroke-width:0.5;" width="292.5947" x="7" y="44.2969"/><ellipse cx="45.1798" cy="60.2969" fill="#ADD1B2" rx="11" ry="11" style="stroke:#181818;stroke-width:1.0;"/><path d="M48.1486,65.9375 Q47.5705,66.2344 46.9298,66.375 Q46.2892,66.5313 45.5861,66.5313 Q43.0861,66.5313 41.758,64.8906 Q40.4455,63.2344 40.4455,60.1094 Q40.4455,56.9844 41.758,55.3281 Q43.0861,53.6719 45.5861,53.6719 Q46.2892,53.6719 46.9298,53.8281 Q47.5861,53.9844 48.1486,54.2813 L48.1486,57 Q47.5236,56.4219 46.9298,56.1563 Q46.3361,55.875 45.7111,55.875 Q44.3673,55.875 43.6798,56.9531 Q42.9923,58.0156 42.9923,60.1094 Q42.9923,62.2031 43.6798,63.2813 Q44.3673,64.3438 45.7111,64.3438 Q46.3361,64.3438 46.9298,64.0781 Q47.5236,63.7969 48.1486,63.2188 L48.1486,65.9375 Z " fill="#000000"/><text fill="#000000" font-family="sans-serif" font-size="14" lengthAdjust="spacing" textLength="209.084" x="64.3309" y="65.1436">StudiepladskapacitetBachelor</text><line style="stroke:#181818;stroke-width:0.5;" x1="8" x2="298.5947" y1="76.2969" y2="76.2969"/><text fill="#000000" font-family="sans-serif" font-size="14" lengthAdjust="spacing" textLength="231.0752" x="13" y="93.292">/kvote2studiepladser: Calculated</text><a href="1..1" target="_top" title="1..1" xlink:actuate="onRequest" xlink:href="1..1" xlink:show="new" xlink:title="1..1" xlink:type="simple"><text fill="#0000FF" font-family="sans-serif" font-size="14" lengthAdjust="spacing" text-decoration="underline" textLength="26.7148" x="248.5254" y="93.292">1..1</text></a><text fill="#000000" font-family="sans-serif" font-size="14" lengthAdjust="spacing" textLength="185.8896" x="13" y="109.5889">kvote2procentdel: Percent</text><a href="1..1" target="_top" title="1..1" xlink:actuate="onRequest" xlink:href="1..1" xlink:show="new" xlink:title="1..1" xlink:type="simple"><text fill="#0000FF" font-family="sans-serif" font-size="14" lengthAdjust="spacing" text-decoration="underline" textLength="26.7148" x="203.3398" y="109.5889">1..1</text></a><text fill="#000000" font-family="sans-serif" font-size="14" lengthAdjust="spacing" textLength="249.4297" x="13" y="125.8857">standbykapacitetKvote2: Number.0</text><a href="1..1" target="_top" title="1..1" xlink:actuate="onRequest" xlink:href="1..1" xlink:show="new" xlink:title="1..1" xlink:type="simple"><text fill="#0000FF" font-family="sans-serif" font-size="14" lengthAdjust="spacing" text-decoration="underline" textLength="26.7148" x="266.8799" y="125.8857">1..1</text></a><text fill="#000000" font-family="sans-serif" font-size="14" lengthAdjust="spacing" textLength="249.4297" x="13" y="142.1826">standbykapacitetKvote1: Number.0</text><a href="1..1" target="_top" title="1..1" xlink:actuate="onRequest" xlink:href="1..1" xlink:show="new" xlink:title="1..1" xlink:type="simple"><text fill="#0000FF" font-family="sans-serif" font-size="14" lengthAdjust="spacing" text-decoration="underline" textLength="26.7148" x="266.8799" y="142.1826">1..1</text></a></g><!--class UdbudtStudieforl?b--><g id="elem_UdbudtStudieforl&#248;b"><rect fill="#F1F1F1" height="32" id="UdbudtStudieforl&#248;b" rx="2.5" ry="2.5" style="stroke:#181818;stroke-width:0.5;" width="168.5" x="247" y="390.2969"/><ellipse cx="262" cy="406.2969" fill="#ADD1B2" rx="11" ry="11" style="stroke:#181818;stroke-width:1.0;"/><path d="M264.9688,411.9375 Q264.3906,412.2344 263.75,412.375 Q263.1094,412.5313 262.4063,412.5313 Q259.9063,412.5313 258.5781,410.8906 Q257.2656,409.2344 257.2656,406.1094 Q257.2656,402.9844 258.5781,401.3281 Q259.9063,399.6719 262.4063,399.6719 Q263.1094,399.6719 263.75,399.8281 Q264.4063,399.9844 264.9688,400.2813 L264.9688,403 Q264.3438,402.4219 263.75,402.1563 Q263.1563,401.875 262.5313,401.875 Q261.1875,401.875 260.5,402.9531 Q259.8125,404.0156 259.8125,406.1094 Q259.8125,408.2031 260.5,409.2813 Q261.1875,410.3438 262.5313,410.3438 Q263.1563,410.3438 263.75,410.0781 Q264.3438,409.7969 264.9688,409.2188 L264.9688,411.9375 Z " fill="#000000"/><text fill="#000000" font-family="sans-serif" font-size="14" lengthAdjust="spacing" textLength="136.5" x="276" y="411.1436">UdbudtStudieforl&#248;b</text></g><!--class UdbudtVidereg?endeUddannelseOgEnkeltfag--><g id="elem_UdbudtVidereg&#229;endeUddannelseOgEnkeltfag"><rect fill="#F1F1F1" height="32" id="UdbudtVidereg&#229;endeUddannelseOgEnkeltfag" rx="2.5" ry="2.5" style="stroke:#181818;stroke-width:0.5;" width="349.9326" x="335.5" y="80.7969"/><ellipse cx="350.5" cy="96.7969" fill="#ADD1B2" rx="11" ry="11" style="stroke:#181818;stroke-width:1.0;"/><path d="M353.4688,102.4375 Q352.8906,102.7344 352.25,102.875 Q351.6094,103.0313 350.9063,103.0313 Q348.4063,103.0313 347.0781,101.3906 Q345.7656,99.7344 345.7656,96.6094 Q345.7656,93.4844 347.0781,91.8281 Q348.4063,90.1719 350.9063,90.1719 Q351.6094,90.1719 352.25,90.3281 Q352.9063,90.4844 353.4688,90.7813 L353.4688,93.5 Q352.8438,92.9219 352.25,92.6563 Q351.6563,92.375 351.0313,92.375 Q349.6875,92.375 349,93.4531 Q348.3125,94.5156 348.3125,96.6094 Q348.3125,98.7031 349,99.7813 Q349.6875,100.8438 351.0313,100.8438 Q351.6563,100.8438 352.25,100.5781 Q352.8438,100.2969 353.4688,99.7188 L353.4688,102.4375 Z " fill="#000000"/><text fill="#000000" font-family="sans-serif" font-size="14" lengthAdjust="spacing" textLength="317.9326" x="364.5" y="101.6436">UdbudtVidereg&#229;endeUddannelseOgEnkeltfag</text></g><!--link Studiepladskapacitet to UdbudtStudieforl?b--><g id="link_Studiepladskapacitet_UdbudtStudieforl&#248;b"><path codeLine="2632" d="M331.5,330.4669 C331.5,352.3969 331.5,375.3769 331.5,390.2169 " fill="none" id="Studiepladskapacitet-UdbudtStudieforl&#248;b" style="stroke:#181818;stroke-width:1.0;"/><text fill="#000000" font-family="sans-serif" font-size="13" lengthAdjust="spacing" textLength="199.4116" x="332.5" y="356.4038">kan have begr&#230;nset kapacitet</text><text fill="#000000" font-family="sans-serif" font-size="13" lengthAdjust="spacing" textLength="24.8066" x="306.1006" y="350.8206">0..1</text><text fill="#000000" font-family="sans-serif" font-size="13" lengthAdjust="spacing" textLength="24.8066" x="303.5996" y="379.201">0..1</text></g><!--link UdbudtVidereg?endeUddannelseOgEnkeltfag to Studiepladskapacitet--><g id="link_UdbudtVidereg&#229;endeUddannelseOgEnkeltfag_Studiepladskapacitet"><path codeLine="2633" d="M407.75,113.0769 C407.75,134.9369 407.75,175.0169 407.75,209.1669 " fill="none" id="UdbudtVidereg&#229;endeUddannelseOgEnkeltfag-Studiepladskapacitet" style="stroke:#181818;stroke-width:1.0;"/><text fill="#000000" font-family="sans-serif" font-size="13" lengthAdjust="spacing" textLength="199.4116" x="207.75" y="174.1838">kan have begr&#230;nset kapacitet</text><text fill="#000000" font-family="sans-serif" font-size="13" lengthAdjust="spacing" textLength="24.8066" x="347.3127" y="132.7448">0..1</text><text fill="#000000" font-family="sans-serif" font-size="13" lengthAdjust="spacing" textLength="24.8066" x="391.2388" y="198.3359">0..1</text></g><!--link StudiepladskapacitetBachelor to Studiepladskapacitet--><g id="link_StudiepladskapacitetBachelor_Studiepladskapacitet"><path codeLine="2634" d="M241.5,149.6469 C241.5,168.4269 241.5,171.7069 241.5,191.0969 " fill="none" id="StudiepladskapacitetBachelor-to-Studiepladskapacitet" style="stroke:#181818;stroke-width:1.0;"/><polygon fill="none" points="241.5,209.0969,247.5,191.0969,235.5,191.0969,241.5,209.0969" style="stroke:#181818;stroke-width:1.0;"/></g><!--SRC=[TSun3i8m343HFQSmOaT232nL1pW2x9MRMArLsuaIPwWGTuUHXR- -vJ_PXU0yNQVBzF2Uc8fWQXiMZEpaOUL4G5fy1oMTgRRGDhQ25HM4ZNml1BdwcdyW2hO6hm3VRXYtfUPkwPubrs4WwpgES1HULbygaOLt20UsA3rHwpCeifrALpdyF_i0]--></g></svg>