<svg xmlns="http://www.w3.org/2000/svg" xmlns:xlink="http://www.w3.org/1999/xlink" contentStyleType="text/css" height="1124px" preserveAspectRatio="none" style="width:899px;height:1124px;background:#FFFFFF;" version="1.1" viewBox="0 0 899 1124" width="899px" zoomAndPan="magnify"><title>1_8_Finansiering</title><defs/><g><text fill="#000000" font-family="sans-serif" font-size="14" font-weight="bold" lengthAdjust="spacing" textLength="114.3789" x="385.6621" y="24.5332">1_8_Finansiering</text><!--class EksternKontakt--><g id="elem_EksternKontakt"><rect codeLine="2348" fill="#F1F1F1" height="75.2188" id="EksternKontakt" rx="2.5" ry="2.5" style="stroke:#181818;stroke-width:0.5;" width="167.6406" x="15" y="167.1881"/><ellipse cx="48.3164" cy="183.1881" fill="#ADD1B2" rx="11" ry="11" style="stroke:#181818;stroke-width:1.0;"/><path d="M51.082,179.0631 Q51.2383,178.8444 51.4258,178.735 Q51.6133,178.6256 51.832,178.6256 Q52.207,178.6256 52.4414,178.8834 Q52.6758,179.1413 52.6758,179.7506 L52.6758,181.2038 Q52.6758,181.8131 52.4414,182.0788 Q52.207,182.3444 51.832,182.3444 Q51.4883,182.3444 51.2852,182.1413 Q51.082,181.9538 50.9727,181.4381 Q50.9258,181.0788 50.7383,180.8913 Q50.4102,180.5163 49.8008,180.2975 Q49.1914,180.0788 48.5664,180.0788 Q47.8008,180.0788 47.168,180.4069 Q46.5352,180.735 46.043,181.485 Q45.5508,182.235 45.5508,183.2663 L45.5508,184.36 Q45.5508,185.5944 46.4414,186.4147 Q47.332,187.235 48.9258,187.235 Q49.8633,187.235 50.5195,186.985 Q50.9102,186.8288 51.332,186.3913 Q51.5977,186.1256 51.7461,186.0475 Q51.8945,185.9694 52.0977,185.9694 Q52.4258,185.9694 52.6836,186.2272 Q52.9414,186.485 52.9414,186.8288 Q52.9414,187.1725 52.5977,187.5788 Q52.0977,188.1569 51.3008,188.485 Q50.2227,188.9381 48.9258,188.9381 Q47.4102,188.9381 46.207,188.3131 Q45.2227,187.8131 44.5352,186.7428 Q43.8477,185.6725 43.8477,184.3913 L43.8477,183.235 Q43.8477,181.9069 44.4648,180.7584 Q45.082,179.61 46.1758,178.9928 Q47.2695,178.3756 48.5039,178.3756 Q49.2383,178.3756 49.8867,178.5397 Q50.5352,178.7038 51.082,179.0631 Z " fill="#000000"/><text fill="#000000" font-family="sans-serif" font-size="14" lengthAdjust="spacing" textLength="94.9375" x="66.3867" y="188.9166">EksternKontakt</text><line style="stroke:#181818;stroke-width:0.5;" x1="16" x2="181.6406" y1="199.1881" y2="199.1881"/><text fill="#000000" font-family="sans-serif" font-size="14" lengthAdjust="spacing" textLength="128.3994" x="21" y="217.7213">kontaktNavn: Text80</text><a href="1..1" target="_top" title="1..1" xlink:actuate="onRequest" xlink:href="1..1" xlink:show="new" xlink:title="1..1" xlink:type="simple"><text fill="#0000FF" font-family="sans-serif" font-size="14" lengthAdjust="spacing" text-decoration="underline" textLength="23.3516" x="153.2891" y="217.7213">1..1</text></a><text fill="#000000" font-family="sans-serif" font-size="14" lengthAdjust="spacing" textLength="95.71" x="21" y="235.3307">kontaktEmail: ?</text><a href="1..1" target="_top" title="1..1" xlink:actuate="onRequest" xlink:href="1..1" xlink:show="new" xlink:title="1..1" xlink:type="simple"><text fill="#0000FF" font-family="sans-serif" font-size="14" lengthAdjust="spacing" text-decoration="underline" textLength="23.3516" x="120.5996" y="235.3307">1..1</text></a></g><!--class Indskrivningsfinansiering--><g id="elem_Indskrivningsfinansiering"><rect codeLine="2353" fill="#F1F1F1" height="128.0469" id="Indskrivningsfinansiering" rx="2.5" ry="2.5" style="stroke:#181818;stroke-width:0.5;" width="241.5508" x="253" y="742.1881"/><ellipse cx="293.3116" cy="758.1881" fill="#ADD1B2" rx="11" ry="11" style="stroke:#181818;stroke-width:1.0;"/><path d="M296.0772,754.0631 Q296.2335,753.8444 296.421,753.735 Q296.6085,753.6256 296.8272,753.6256 Q297.2022,753.6256 297.4366,753.8834 Q297.671,754.1413 297.671,754.7506 L297.671,756.2038 Q297.671,756.8131 297.4366,757.0788 Q297.2022,757.3444 296.8272,757.3444 Q296.4835,757.3444 296.2804,757.1413 Q296.0772,756.9538 295.9679,756.4381 Q295.921,756.0788 295.7335,755.8913 Q295.4054,755.5163 294.796,755.2975 Q294.1866,755.0788 293.5616,755.0788 Q292.796,755.0788 292.1632,755.4069 Q291.5304,755.735 291.0382,756.485 Q290.546,757.235 290.546,758.2663 L290.546,759.36 Q290.546,760.5944 291.4366,761.4147 Q292.3272,762.235 293.921,762.235 Q294.8585,762.235 295.5147,761.985 Q295.9054,761.8288 296.3272,761.3913 Q296.5929,761.1256 296.7413,761.0475 Q296.8897,760.9694 297.0929,760.9694 Q297.421,760.9694 297.6788,761.2272 Q297.9366,761.485 297.9366,761.8288 Q297.9366,762.1725 297.5929,762.5788 Q297.0929,763.1569 296.296,763.485 Q295.2179,763.9381 293.921,763.9381 Q292.4054,763.9381 291.2022,763.3131 Q290.2179,762.8131 289.5304,761.7428 Q288.8429,760.6725 288.8429,759.3913 L288.8429,758.235 Q288.8429,756.9069 289.4601,755.7584 Q290.0772,754.61 291.171,753.9928 Q292.2647,753.3756 293.4991,753.3756 Q294.2335,753.3756 294.8819,753.5397 Q295.5304,753.7038 296.0772,754.0631 Z " fill="#000000"/><text fill="#000000" font-family="sans-serif" font-size="14" lengthAdjust="spacing" textLength="153.3027" x="312.9364" y="763.9166">Indskrivningsfinansiering</text><line style="stroke:#181818;stroke-width:0.5;" x1="254" x2="493.5508" y1="774.1881" y2="774.1881"/><text fill="#000000" font-family="sans-serif" font-size="14" lengthAdjust="spacing" textLength="157.9375" x="259" y="792.7213">finansieringsform: Picklist</text><a href="1..1" target="_top" title="1..1" xlink:actuate="onRequest" xlink:href="1..1" xlink:show="new" xlink:title="1..1" xlink:type="simple"><text fill="#0000FF" font-family="sans-serif" font-size="14" lengthAdjust="spacing" text-decoration="underline" textLength="23.3516" x="420.8271" y="792.7213">1..1</text></a><text fill="#000000" font-family="sans-serif" font-size="14" lengthAdjust="spacing" textLength="140.8682" x="259" y="810.3307">finansieringsperiode: ?</text><a href="1..1" target="_top" title="1..1" xlink:actuate="onRequest" xlink:href="1..1" xlink:show="new" xlink:title="1..1" xlink:type="simple"><text fill="#0000FF" font-family="sans-serif" font-size="14" lengthAdjust="spacing" text-decoration="underline" textLength="23.3516" x="403.7578" y="810.3307">1..1</text></a><text fill="#000000" font-family="sans-serif" font-size="14" lengthAdjust="spacing" textLength="105.0205" x="259" y="827.9401">rekvirent: Picklist</text><a href="1..1" target="_top" title="1..1" xlink:actuate="onRequest" xlink:href="1..1" xlink:show="new" xlink:title="1..1" xlink:type="simple"><text fill="#0000FF" font-family="sans-serif" font-size="14" lengthAdjust="spacing" text-decoration="underline" textLength="23.3516" x="367.9102" y="827.9401">1..1</text></a><text fill="#000000" font-family="sans-serif" font-size="14" lengthAdjust="spacing" textLength="34.248" x="259" y="845.5495">&#171;BK&#187;</text><text fill="#000000" font-family="sans-serif" font-size="14" lengthAdjust="spacing" textLength="202.3096" x="259" y="863.1588">/indskrivningsnummer: IgnoreBK</text><a href="1..1" target="_top" title="1..1" xlink:actuate="onRequest" xlink:href="1..1" xlink:show="new" xlink:title="1..1" xlink:type="simple"><text fill="#0000FF" font-family="sans-serif" font-size="14" lengthAdjust="spacing" text-decoration="underline" textLength="23.3516" x="465.1992" y="863.1588">1..1</text></a></g><!--class Deltagerfinansiering--><g id="elem_Deltagerfinansiering"><rect codeLine="2361" fill="#F1F1F1" height="110.4375" id="Deltagerfinansiering" rx="2.5" ry="2.5" style="stroke:#181818;stroke-width:0.5;" width="208.1025" x="270" y="417.1881"/><ellipse cx="308.2137" cy="433.1881" fill="#ADD1B2" rx="11" ry="11" style="stroke:#181818;stroke-width:1.0;"/><path d="M310.9793,429.0631 Q311.1355,428.8444 311.323,428.735 Q311.5105,428.6256 311.7293,428.6256 Q312.1043,428.6256 312.3387,428.8834 Q312.573,429.1413 312.573,429.7506 L312.573,431.2038 Q312.573,431.8131 312.3387,432.0788 Q312.1043,432.3444 311.7293,432.3444 Q311.3855,432.3444 311.1824,432.1413 Q310.9793,431.9538 310.8699,431.4381 Q310.823,431.0788 310.6355,430.8913 Q310.3074,430.5163 309.698,430.2975 Q309.0887,430.0788 308.4637,430.0788 Q307.698,430.0788 307.0652,430.4069 Q306.4324,430.735 305.9402,431.485 Q305.448,432.235 305.448,433.2663 L305.448,434.36 Q305.448,435.5944 306.3387,436.4147 Q307.2293,437.235 308.823,437.235 Q309.7605,437.235 310.4168,436.985 Q310.8074,436.8288 311.2293,436.3913 Q311.4949,436.1256 311.6434,436.0475 Q311.7918,435.9694 311.9949,435.9694 Q312.323,435.9694 312.5809,436.2272 Q312.8387,436.485 312.8387,436.8288 Q312.8387,437.1725 312.4949,437.5788 Q311.9949,438.1569 311.198,438.485 Q310.1199,438.9381 308.823,438.9381 Q307.3074,438.9381 306.1043,438.3131 Q305.1199,437.8131 304.4324,436.7428 Q303.7449,435.6725 303.7449,434.3913 L303.7449,433.235 Q303.7449,431.9069 304.3621,430.7584 Q304.9793,429.61 306.073,428.9928 Q307.1668,428.3756 308.4012,428.3756 Q309.1355,428.3756 309.784,428.5397 Q310.4324,428.7038 310.9793,429.0631 Z " fill="#000000"/><text fill="#000000" font-family="sans-serif" font-size="14" lengthAdjust="spacing" textLength="124.5166" x="327.3723" y="438.9166">Deltagerfinansiering</text><line style="stroke:#181818;stroke-width:0.5;" x1="271" x2="477.1025" y1="449.1881" y2="449.1881"/><text fill="#000000" font-family="sans-serif" font-size="14" lengthAdjust="spacing" textLength="101.541" x="276" y="467.7213">bel&#65533;b: Currency</text><a href="1..1" target="_top" title="1..1" xlink:actuate="onRequest" xlink:href="1..1" xlink:show="new" xlink:title="1..1" xlink:type="simple"><text fill="#0000FF" font-family="sans-serif" font-size="14" lengthAdjust="spacing" text-decoration="underline" textLength="23.3516" x="381.4307" y="467.7213">1..1</text></a><text fill="#000000" font-family="sans-serif" font-size="14" lengthAdjust="spacing" textLength="148.6475" x="276" y="485.3307">personligAndel: Percent</text><a href="1..1" target="_top" title="1..1" xlink:actuate="onRequest" xlink:href="1..1" xlink:show="new" xlink:title="1..1" xlink:type="simple"><text fill="#0000FF" font-family="sans-serif" font-size="14" lengthAdjust="spacing" text-decoration="underline" textLength="23.3516" x="428.5371" y="485.3307">1..1</text></a><text fill="#000000" font-family="sans-serif" font-size="14" lengthAdjust="spacing" textLength="168.8613" x="276" y="502.9401">virksomhedsandel: Percent</text><a href="1..1" target="_top" title="1..1" xlink:actuate="onRequest" xlink:href="1..1" xlink:show="new" xlink:title="1..1" xlink:type="simple"><text fill="#0000FF" font-family="sans-serif" font-size="14" lengthAdjust="spacing" text-decoration="underline" textLength="23.3516" x="448.751" y="502.9401">1..1</text></a><text fill="#000000" font-family="sans-serif" font-size="14" lengthAdjust="spacing" textLength="133.8408" x="276" y="520.5495">antalRater: Number.0</text><a href="1..1" target="_top" title="1..1" xlink:actuate="onRequest" xlink:href="1..1" xlink:show="new" xlink:title="1..1" xlink:type="simple"><text fill="#0000FF" font-family="sans-serif" font-size="14" lengthAdjust="spacing" text-decoration="underline" textLength="23.3516" x="413.7305" y="520.5495">1..1</text></a></g><!--class Virksomhedsbetaling--><g id="elem_Virksomhedsbetaling"><rect codeLine="2368" fill="#F1F1F1" height="32" id="Virksomhedsbetaling" rx="2.5" ry="2.5" style="stroke:#181818;stroke-width:0.5;" width="161.958" x="210" y="52.1881"/><ellipse cx="225" cy="68.1881" fill="#ADD1B2" rx="11" ry="11" style="stroke:#181818;stroke-width:1.0;"/><path d="M227.7656,64.0631 Q227.9219,63.8444 228.1094,63.735 Q228.2969,63.6256 228.5156,63.6256 Q228.8906,63.6256 229.125,63.8834 Q229.3594,64.1413 229.3594,64.7506 L229.3594,66.2038 Q229.3594,66.8131 229.125,67.0788 Q228.8906,67.3444 228.5156,67.3444 Q228.1719,67.3444 227.9688,67.1413 Q227.7656,66.9538 227.6563,66.4381 Q227.6094,66.0788 227.4219,65.8913 Q227.0938,65.5163 226.4844,65.2975 Q225.875,65.0788 225.25,65.0788 Q224.4844,65.0788 223.8516,65.4069 Q223.2188,65.735 222.7266,66.485 Q222.2344,67.235 222.2344,68.2663 L222.2344,69.36 Q222.2344,70.5944 223.125,71.4147 Q224.0156,72.235 225.6094,72.235 Q226.5469,72.235 227.2031,71.985 Q227.5938,71.8288 228.0156,71.3913 Q228.2813,71.1256 228.4297,71.0475 Q228.5781,70.9694 228.7813,70.9694 Q229.1094,70.9694 229.3672,71.2272 Q229.625,71.485 229.625,71.8288 Q229.625,72.1725 229.2813,72.5788 Q228.7813,73.1569 227.9844,73.485 Q226.9063,73.9381 225.6094,73.9381 Q224.0938,73.9381 222.8906,73.3131 Q221.9063,72.8131 221.2188,71.7428 Q220.5313,70.6725 220.5313,69.3913 L220.5313,68.235 Q220.5313,66.9069 221.1484,65.7584 Q221.7656,64.61 222.8594,63.9928 Q223.9531,63.3756 225.1875,63.3756 Q225.9219,63.3756 226.5703,63.5397 Q227.2188,63.7038 227.7656,64.0631 Z " fill="#000000"/><text fill="#000000" font-family="sans-serif" font-size="14" lengthAdjust="spacing" textLength="129.958" x="239" y="73.9166">Virksomhedsbetaling</text></g><!--class PersonligBetaling--><g id="elem_PersonligBetaling"><rect codeLine="2371" fill="#F1F1F1" height="32" id="PersonligBetaling" rx="2.5" ry="2.5" style="stroke:#181818;stroke-width:0.5;" width="140.958" x="370.5" y="325.1881"/><ellipse cx="385.5" cy="341.1881" fill="#ADD1B2" rx="11" ry="11" style="stroke:#181818;stroke-width:1.0;"/><path d="M388.2656,337.0631 Q388.4219,336.8444 388.6094,336.735 Q388.7969,336.6256 389.0156,336.6256 Q389.3906,336.6256 389.625,336.8834 Q389.8594,337.1413 389.8594,337.7506 L389.8594,339.2038 Q389.8594,339.8131 389.625,340.0788 Q389.3906,340.3444 389.0156,340.3444 Q388.6719,340.3444 388.4688,340.1413 Q388.2656,339.9538 388.1563,339.4381 Q388.1094,339.0788 387.9219,338.8913 Q387.5938,338.5163 386.9844,338.2975 Q386.375,338.0788 385.75,338.0788 Q384.9844,338.0788 384.3516,338.4069 Q383.7188,338.735 383.2266,339.485 Q382.7344,340.235 382.7344,341.2663 L382.7344,342.36 Q382.7344,343.5944 383.625,344.4147 Q384.5156,345.235 386.1094,345.235 Q387.0469,345.235 387.7031,344.985 Q388.0938,344.8288 388.5156,344.3913 Q388.7813,344.1256 388.9297,344.0475 Q389.0781,343.9694 389.2813,343.9694 Q389.6094,343.9694 389.8672,344.2272 Q390.125,344.485 390.125,344.8288 Q390.125,345.1725 389.7813,345.5788 Q389.2813,346.1569 388.4844,346.485 Q387.4063,346.9381 386.1094,346.9381 Q384.5938,346.9381 383.3906,346.3131 Q382.4063,345.8131 381.7188,344.7428 Q381.0313,343.6725 381.0313,342.3913 L381.0313,341.235 Q381.0313,339.9069 381.6484,338.7584 Q382.2656,337.61 383.3594,336.9928 Q384.4531,336.3756 385.6875,336.3756 Q386.4219,336.3756 387.0703,336.5397 Q387.7188,336.7038 388.2656,337.0631 Z " fill="#000000"/><text fill="#000000" font-family="sans-serif" font-size="14" lengthAdjust="spacing" textLength="108.958" x="399.5" y="346.9166">PersonligBetaling</text></g><!--class Faktureringsgrundlag--><g id="elem_Faktureringsgrundlag"><rect codeLine="2374" fill="#F1F1F1" height="110.4375" id="Faktureringsgrundlag" rx="2.5" ry="2.5" style="stroke:#181818;stroke-width:0.5;" width="183.9717" x="360" y="149.6881"/><ellipse cx="383.8541" cy="165.6881" fill="#ADD1B2" rx="11" ry="11" style="stroke:#181818;stroke-width:1.0;"/><path d="M386.6197,161.5631 Q386.776,161.3444 386.9635,161.235 Q387.151,161.1256 387.3697,161.1256 Q387.7447,161.1256 387.9791,161.3834 Q388.2135,161.6413 388.2135,162.2506 L388.2135,163.7038 Q388.2135,164.3131 387.9791,164.5788 Q387.7447,164.8444 387.3697,164.8444 Q387.026,164.8444 386.8229,164.6413 Q386.6197,164.4538 386.5104,163.9381 Q386.4635,163.5788 386.276,163.3913 Q385.9479,163.0163 385.3385,162.7975 Q384.7291,162.5788 384.1041,162.5788 Q383.3385,162.5788 382.7057,162.9069 Q382.0729,163.235 381.5807,163.985 Q381.0885,164.735 381.0885,165.7663 L381.0885,166.86 Q381.0885,168.0944 381.9791,168.9147 Q382.8697,169.735 384.4635,169.735 Q385.401,169.735 386.0572,169.485 Q386.4479,169.3288 386.8697,168.8913 Q387.1354,168.6256 387.2838,168.5475 Q387.4322,168.4694 387.6354,168.4694 Q387.9635,168.4694 388.2213,168.7272 Q388.4791,168.985 388.4791,169.3288 Q388.4791,169.6725 388.1354,170.0788 Q387.6354,170.6569 386.8385,170.985 Q385.7604,171.4381 384.4635,171.4381 Q382.9479,171.4381 381.7447,170.8131 Q380.7604,170.3131 380.0729,169.2428 Q379.3854,168.1725 379.3854,166.8913 L379.3854,165.735 Q379.3854,164.4069 380.0025,163.2584 Q380.6197,162.11 381.7135,161.4928 Q382.8072,160.8756 384.0416,160.8756 Q384.776,160.8756 385.4244,161.0397 Q386.0729,161.2038 386.6197,161.5631 Z " fill="#000000"/><text fill="#000000" font-family="sans-serif" font-size="14" lengthAdjust="spacing" textLength="132.2959" x="399.8217" y="171.4166">Faktureringsgrundlag</text><line style="stroke:#181818;stroke-width:0.5;" x1="361" x2="542.9717" y1="181.6881" y2="181.6881"/><text fill="#000000" font-family="sans-serif" font-size="14" lengthAdjust="spacing" textLength="144.7305" x="366" y="200.2213">betalingsstatus: Picklist</text><a href="1..1" target="_top" title="1..1" xlink:actuate="onRequest" xlink:href="1..1" xlink:show="new" xlink:title="1..1" xlink:type="simple"><text fill="#0000FF" font-family="sans-serif" font-size="14" lengthAdjust="spacing" text-decoration="underline" textLength="23.3516" x="514.6201" y="200.2213">1..1</text></a><text fill="#000000" font-family="sans-serif" font-size="14" lengthAdjust="spacing" textLength="115.9443" x="366" y="217.8307">betalingsfrist: Date</text><a href="1..1" target="_top" title="1..1" xlink:actuate="onRequest" xlink:href="1..1" xlink:show="new" xlink:title="1..1" xlink:type="simple"><text fill="#0000FF" font-family="sans-serif" font-size="14" lengthAdjust="spacing" text-decoration="underline" textLength="23.3516" x="485.834" y="217.8307">1..1</text></a><text fill="#000000" font-family="sans-serif" font-size="14" lengthAdjust="spacing" textLength="101.541" x="366" y="235.4401">bel&#65533;b: Currency</text><a href="1..1" target="_top" title="1..1" xlink:actuate="onRequest" xlink:href="1..1" xlink:show="new" xlink:title="1..1" xlink:type="simple"><text fill="#0000FF" font-family="sans-serif" font-size="14" lengthAdjust="spacing" text-decoration="underline" textLength="23.3516" x="471.4307" y="235.4401">1..1</text></a><text fill="#000000" font-family="sans-serif" font-size="14" lengthAdjust="spacing" textLength="120.6406" x="366" y="253.0495">betalingsdato: Date</text><a href="0..1" target="_top" title="0..1" xlink:actuate="onRequest" xlink:href="0..1" xlink:show="new" xlink:title="0..1" xlink:type="simple"><text fill="#0000FF" font-family="sans-serif" font-size="14" lengthAdjust="spacing" text-decoration="underline" textLength="23.3516" x="490.5303" y="253.0495">0..1</text></a></g><!--class FinansieringsformEnum--><g id="elem_FinansieringsformEnum"><rect codeLine="2381" fill="#90EE90" height="173.9688" id="FinansieringsformEnum" rx="2.5" ry="2.5" style="stroke:#181818;stroke-width:0.5;" width="200.3369" x="530" y="719.1881"/><ellipse cx="554.2263" cy="740.5397" fill="#EB937F" rx="11" ry="11" style="stroke:#181818;stroke-width:1.0;"/><path d="M553.0857,741.3366 L553.0857,743.8366 L557.4138,743.8366 L557.4138,742.9147 Q557.4138,742.3053 557.656,742.0397 Q557.8982,741.7741 558.2732,741.7741 Q558.6482,741.7741 558.8826,742.0397 Q559.1169,742.3053 559.1169,742.9147 L559.1169,745.5397 L551.1169,745.5397 Q550.4919,745.5397 550.2341,745.3053 Q549.9763,745.0709 549.9763,744.6803 Q549.9763,744.3053 550.2419,744.0709 Q550.5076,743.8366 551.1169,743.8366 L551.3826,743.8366 L551.3826,737.1803 L551.1169,737.1803 Q550.4919,737.1803 550.2341,736.9459 Q549.9763,736.7116 549.9763,736.3209 Q549.9763,735.9459 550.2341,735.7116 Q550.4919,735.4772 551.1169,735.4772 L558.7419,735.4772 L558.7419,738.0709 Q558.7419,738.6803 558.5154,738.9381 Q558.2888,739.1959 557.8982,739.1959 Q557.5232,739.1959 557.2888,738.9381 Q557.0544,738.6803 557.0544,738.0709 L557.0544,737.1803 L553.0857,737.1803 L553.0857,739.6334 L554.5701,739.6334 Q554.5701,738.9772 554.6951,738.7897 Q554.9607,738.3834 555.4294,738.3834 Q555.8044,738.3834 556.0388,738.6413 Q556.2732,738.8991 556.2732,739.5084 L556.2732,741.4772 Q556.2732,742.0241 556.1482,742.2116 Q555.8826,742.6022 555.4294,742.6022 Q554.9607,742.6022 554.6951,742.1959 Q554.5701,742.0084 554.5701,741.3366 L553.0857,741.3366 Z " fill="#000000"/><text fill="#000000" font-family="sans-serif" font-size="12" font-style="italic" lengthAdjust="spacing" textLength="43.3652" x="622.511" y="736.6452">&#171;enum&#187;</text><text fill="#000000" font-family="sans-serif" font-size="14" lengthAdjust="spacing" textLength="147.834" x="570.2766" y="753.8151">FinansieringsformEnum</text><line style="stroke:#181818;stroke-width:0.5;" x1="531" x2="729.3369" y1="761.8913" y2="761.8913"/><text fill="#000000" font-family="sans-serif" font-size="14" lengthAdjust="spacing" textLength="97.6445" x="536" y="780.4245">ST&#65533;-finansieret</text><text fill="#000000" font-family="sans-serif" font-size="14" lengthAdjust="spacing" textLength="163.4404" x="536" y="798.0338">udenlandskSelvfinansieret</text><text fill="#000000" font-family="sans-serif" font-size="14" lengthAdjust="spacing" textLength="112.4375" x="536" y="815.6432">&#65533;rselevfinansieret</text><text fill="#000000" font-family="sans-serif" font-size="14" lengthAdjust="spacing" textLength="167.3301" x="536" y="833.2526">andenOffentligFinansiering</text><text fill="#000000" font-family="sans-serif" font-size="14" lengthAdjust="spacing" textLength="188.3369" x="536" y="850.862">friplads-ogStipendiefinansieret</text><text fill="#000000" font-family="sans-serif" font-size="14" lengthAdjust="spacing" textLength="99.6338" x="536" y="868.4713">deltagerbetaling</text><text fill="#000000" font-family="sans-serif" font-size="14" lengthAdjust="spacing" textLength="129.1855" x="536" y="886.0807">danskSelvfinansieret</text></g><!--class BetalingsstatusEnum--><g id="elem_BetalingsstatusEnum"><rect codeLine="2391" fill="#90EE90" height="121.1406" id="BetalingsstatusEnum" rx="2.5" ry="2.5" style="stroke:#181818;stroke-width:0.5;" width="163.5166" x="579" y="144.1881"/><ellipse cx="594" cy="165.5397" fill="#EB937F" rx="11" ry="11" style="stroke:#181818;stroke-width:1.0;"/><path d="M592.8594,166.3366 L592.8594,168.8366 L597.1875,168.8366 L597.1875,167.9147 Q597.1875,167.3053 597.4297,167.0397 Q597.6719,166.7741 598.0469,166.7741 Q598.4219,166.7741 598.6563,167.0397 Q598.8906,167.3053 598.8906,167.9147 L598.8906,170.5397 L590.8906,170.5397 Q590.2656,170.5397 590.0078,170.3053 Q589.75,170.0709 589.75,169.6803 Q589.75,169.3053 590.0156,169.0709 Q590.2813,168.8366 590.8906,168.8366 L591.1563,168.8366 L591.1563,162.1803 L590.8906,162.1803 Q590.2656,162.1803 590.0078,161.9459 Q589.75,161.7116 589.75,161.3209 Q589.75,160.9459 590.0078,160.7116 Q590.2656,160.4772 590.8906,160.4772 L598.5156,160.4772 L598.5156,163.0709 Q598.5156,163.6803 598.2891,163.9381 Q598.0625,164.1959 597.6719,164.1959 Q597.2969,164.1959 597.0625,163.9381 Q596.8281,163.6803 596.8281,163.0709 L596.8281,162.1803 L592.8594,162.1803 L592.8594,164.6334 L594.3438,164.6334 Q594.3438,163.9772 594.4688,163.7897 Q594.7344,163.3834 595.2031,163.3834 Q595.5781,163.3834 595.8125,163.6413 Q596.0469,163.8991 596.0469,164.5084 L596.0469,166.4772 Q596.0469,167.0241 595.9219,167.2116 Q595.6563,167.6022 595.2031,167.6022 Q594.7344,167.6022 594.4688,167.1959 Q594.3438,167.0084 594.3438,166.3366 L592.8594,166.3366 Z " fill="#000000"/><text fill="#000000" font-family="sans-serif" font-size="12" font-style="italic" lengthAdjust="spacing" textLength="43.3652" x="652.0757" y="161.6452">&#171;enum&#187;</text><text fill="#000000" font-family="sans-serif" font-size="14" lengthAdjust="spacing" textLength="131.5166" x="608" y="178.8151">BetalingsstatusEnum</text><line style="stroke:#181818;stroke-width:0.5;" x1="580" x2="741.5166" y1="186.8913" y2="186.8913"/><text fill="#000000" font-family="sans-serif" font-size="14" lengthAdjust="spacing" textLength="56.4102" x="585" y="205.4245">opkr&#65533;vet</text><text fill="#000000" font-family="sans-serif" font-size="14" lengthAdjust="spacing" textLength="34.248" x="585" y="223.0338">betalt</text><text fill="#000000" font-family="sans-serif" font-size="14" lengthAdjust="spacing" textLength="58.3584" x="585" y="240.6432">krediteret</text><text fill="#000000" font-family="sans-serif" font-size="14" lengthAdjust="spacing" textLength="61.4893" x="585" y="258.2526">annulleret</text></g><!--class RekvirentEnum--><g id="elem_RekvirentEnum"><rect codeLine="2398" fill="#90EE90" height="438.1094" id="RekvirentEnum" rx="2.5" ry="2.5" style="stroke:#181818;stroke-width:0.5;" width="127.7031" x="765" y="587.1881"/><ellipse cx="780" cy="608.5397" fill="#EB937F" rx="11" ry="11" style="stroke:#181818;stroke-width:1.0;"/><path d="M778.8594,609.3366 L778.8594,611.8366 L783.1875,611.8366 L783.1875,610.9147 Q783.1875,610.3053 783.4297,610.0397 Q783.6719,609.7741 784.0469,609.7741 Q784.4219,609.7741 784.6563,610.0397 Q784.8906,610.3053 784.8906,610.9147 L784.8906,613.5397 L776.8906,613.5397 Q776.2656,613.5397 776.0078,613.3053 Q775.75,613.0709 775.75,612.6803 Q775.75,612.3053 776.0156,612.0709 Q776.2813,611.8366 776.8906,611.8366 L777.1563,611.8366 L777.1563,605.1803 L776.8906,605.1803 Q776.2656,605.1803 776.0078,604.9459 Q775.75,604.7116 775.75,604.3209 Q775.75,603.9459 776.0078,603.7116 Q776.2656,603.4772 776.8906,603.4772 L784.5156,603.4772 L784.5156,606.0709 Q784.5156,606.6803 784.2891,606.9381 Q784.0625,607.1959 783.6719,607.1959 Q783.2969,607.1959 783.0625,606.9381 Q782.8281,606.6803 782.8281,606.0709 L782.8281,605.1803 L778.8594,605.1803 L778.8594,607.6334 L780.3438,607.6334 Q780.3438,606.9772 780.4688,606.7897 Q780.7344,606.3834 781.2031,606.3834 Q781.5781,606.3834 781.8125,606.6413 Q782.0469,606.8991 782.0469,607.5084 L782.0469,609.4772 Q782.0469,610.0241 781.9219,610.2116 Q781.6563,610.6022 781.2031,610.6022 Q780.7344,610.6022 780.4688,610.1959 Q780.3438,610.0084 780.3438,609.3366 L778.8594,609.3366 Z " fill="#000000"/><text fill="#000000" font-family="sans-serif" font-size="12" font-style="italic" lengthAdjust="spacing" textLength="43.3652" x="820.1689" y="604.6452">&#171;enum&#187;</text><text fill="#000000" font-family="sans-serif" font-size="14" lengthAdjust="spacing" textLength="95.7031" x="794" y="621.8151">RekvirentEnum</text><line style="stroke:#181818;stroke-width:0.5;" x1="766" x2="891.7031" y1="629.8913" y2="629.8913"/><text fill="#000000" font-family="sans-serif" font-size="14" lengthAdjust="spacing" textLength="37.3516" x="771" y="648.4245">AAKA</text><text fill="#000000" font-family="sans-serif" font-size="14" lengthAdjust="spacing" textLength="36.5654" x="771" y="666.0338">AAKF</text><text fill="#000000" font-family="sans-serif" font-size="14" lengthAdjust="spacing" textLength="38.124" x="771" y="683.6432">AAKR</text><text fill="#000000" font-family="sans-serif" font-size="14" lengthAdjust="spacing" textLength="36.5654" x="771" y="701.2526">AAST</text><text fill="#000000" font-family="sans-serif" font-size="14" lengthAdjust="spacing" textLength="26.4414" x="771" y="718.862">AFT</text><text fill="#000000" font-family="sans-serif" font-size="14" lengthAdjust="spacing" textLength="29.5586" x="771" y="736.4713">AND</text><text fill="#000000" font-family="sans-serif" font-size="14" lengthAdjust="spacing" textLength="29.5654" x="771" y="754.0807">ASO</text><text fill="#000000" font-family="sans-serif" font-size="14" lengthAdjust="spacing" textLength="28.7861" x="771" y="771.6901">AUS</text><text fill="#000000" font-family="sans-serif" font-size="14" lengthAdjust="spacing" textLength="28" x="771" y="789.2995">FRB</text><text fill="#000000" font-family="sans-serif" font-size="14" lengthAdjust="spacing" textLength="27.2139" x="771" y="806.9088">FRF</text><text fill="#000000" font-family="sans-serif" font-size="14" lengthAdjust="spacing" textLength="28.7725" x="771" y="824.5182">FRU</text><text fill="#000000" font-family="sans-serif" font-size="14" lengthAdjust="spacing" textLength="35" x="771" y="842.1276">INNO</text><text fill="#000000" font-family="sans-serif" font-size="14" lengthAdjust="spacing" textLength="41.2275" x="771" y="859.737">KOMA</text><text fill="#000000" font-family="sans-serif" font-size="14" lengthAdjust="spacing" textLength="40.4414" x="771" y="877.3463">KOMF</text><text fill="#000000" font-family="sans-serif" font-size="14" lengthAdjust="spacing" textLength="42" x="771" y="894.9557">KOMR</text><text fill="#000000" font-family="sans-serif" font-size="14" lengthAdjust="spacing" textLength="31.124" x="771" y="912.5651">SID1</text><text fill="#000000" font-family="sans-serif" font-size="14" lengthAdjust="spacing" textLength="36.5654" x="771" y="930.1745">SJOB</text><text fill="#000000" font-family="sans-serif" font-size="14" lengthAdjust="spacing" textLength="35.0137" x="771" y="947.7838">TALE</text><text fill="#000000" font-family="sans-serif" font-size="14" lengthAdjust="spacing" textLength="14" x="771" y="965.3932">UI</text><text fill="#000000" font-family="sans-serif" font-size="14" lengthAdjust="spacing" textLength="24.1104" x="771" y="983.0026">UNI</text><text fill="#000000" font-family="sans-serif" font-size="14" lengthAdjust="spacing" textLength="28.7861" x="771" y="1000.612">USB</text><text fill="#000000" font-family="sans-serif" font-size="14" lengthAdjust="spacing" textLength="31.1104" x="771" y="1018.2213">UVM</text></g><!--class Organisation--><g id="elem_Organisation"><rect fill="#F1F1F1" height="32" id="Organisation" rx="2.5" ry="2.5" style="stroke:#181818;stroke-width:0.5;" width="111.3789" x="93.5" y="325.1881"/><ellipse cx="108.5" cy="341.1881" fill="#ADD1B2" rx="11" ry="11" style="stroke:#181818;stroke-width:1.0;"/><path d="M111.2656,337.0631 Q111.4219,336.8444 111.6094,336.735 Q111.7969,336.6256 112.0156,336.6256 Q112.3906,336.6256 112.625,336.8834 Q112.8594,337.1413 112.8594,337.7506 L112.8594,339.2038 Q112.8594,339.8131 112.625,340.0788 Q112.3906,340.3444 112.0156,340.3444 Q111.6719,340.3444 111.4688,340.1413 Q111.2656,339.9538 111.1563,339.4381 Q111.1094,339.0788 110.9219,338.8913 Q110.5938,338.5163 109.9844,338.2975 Q109.375,338.0788 108.75,338.0788 Q107.9844,338.0788 107.3516,338.4069 Q106.7188,338.735 106.2266,339.485 Q105.7344,340.235 105.7344,341.2663 L105.7344,342.36 Q105.7344,343.5944 106.625,344.4147 Q107.5156,345.235 109.1094,345.235 Q110.0469,345.235 110.7031,344.985 Q111.0938,344.8288 111.5156,344.3913 Q111.7813,344.1256 111.9297,344.0475 Q112.0781,343.9694 112.2813,343.9694 Q112.6094,343.9694 112.8672,344.2272 Q113.125,344.485 113.125,344.8288 Q113.125,345.1725 112.7813,345.5788 Q112.2813,346.1569 111.4844,346.485 Q110.4063,346.9381 109.1094,346.9381 Q107.5938,346.9381 106.3906,346.3131 Q105.4063,345.8131 104.7188,344.7428 Q104.0313,343.6725 104.0313,342.3913 L104.0313,341.235 Q104.0313,339.9069 104.6484,338.7584 Q105.2656,337.61 106.3594,336.9928 Q107.4531,336.3756 108.6875,336.3756 Q109.4219,336.3756 110.0703,336.5397 Q110.7188,336.7038 111.2656,337.0631 Z " fill="#000000"/><text fill="#000000" font-family="sans-serif" font-size="14" lengthAdjust="spacing" textLength="79.3789" x="122.5" y="346.9166">Organisation</text></g><!--class Aftalegrundlag--><g id="elem_Aftalegrundlag"><rect fill="#F1F1F1" height="32" id="Aftalegrundlag" rx="2.5" ry="2.5" style="stroke:#181818;stroke-width:0.5;" width="122.2891" x="38" y="52.1881"/><ellipse cx="53" cy="68.1881" fill="#ADD1B2" rx="11" ry="11" style="stroke:#181818;stroke-width:1.0;"/><path d="M55.7656,64.0631 Q55.9219,63.8444 56.1094,63.735 Q56.2969,63.6256 56.5156,63.6256 Q56.8906,63.6256 57.125,63.8834 Q57.3594,64.1413 57.3594,64.7506 L57.3594,66.2038 Q57.3594,66.8131 57.125,67.0788 Q56.8906,67.3444 56.5156,67.3444 Q56.1719,67.3444 55.9688,67.1413 Q55.7656,66.9538 55.6563,66.4381 Q55.6094,66.0788 55.4219,65.8913 Q55.0938,65.5163 54.4844,65.2975 Q53.875,65.0788 53.25,65.0788 Q52.4844,65.0788 51.8516,65.4069 Q51.2188,65.735 50.7266,66.485 Q50.2344,67.235 50.2344,68.2663 L50.2344,69.36 Q50.2344,70.5944 51.125,71.4147 Q52.0156,72.235 53.6094,72.235 Q54.5469,72.235 55.2031,71.985 Q55.5938,71.8288 56.0156,71.3913 Q56.2813,71.1256 56.4297,71.0475 Q56.5781,70.9694 56.7813,70.9694 Q57.1094,70.9694 57.3672,71.2272 Q57.625,71.485 57.625,71.8288 Q57.625,72.1725 57.2813,72.5788 Q56.7813,73.1569 55.9844,73.485 Q54.9063,73.9381 53.6094,73.9381 Q52.0938,73.9381 50.8906,73.3131 Q49.9063,72.8131 49.2188,71.7428 Q48.5313,70.6725 48.5313,69.3913 L48.5313,68.235 Q48.5313,66.9069 49.1484,65.7584 Q49.7656,64.61 50.8594,63.9928 Q51.9531,63.3756 53.1875,63.3756 Q53.9219,63.3756 54.5703,63.5397 Q55.2188,63.7038 55.7656,64.0631 Z " fill="#000000"/><text fill="#000000" font-family="sans-serif" font-size="14" lengthAdjust="spacing" textLength="90.2891" x="67" y="73.9166">Aftalegrundlag</text></g><!--class Indskrivning--><g id="elem_Indskrivning"><rect fill="#F1F1F1" height="32" id="Indskrivning" rx="2.5" ry="2.5" style="stroke:#181818;stroke-width:0.5;" width="106.7031" x="320.5" y="1085.1881"/><ellipse cx="335.5" cy="1101.1881" fill="#ADD1B2" rx="11" ry="11" style="stroke:#181818;stroke-width:1.0;"/><path d="M338.2656,1097.0631 Q338.4219,1096.8444 338.6094,1096.735 Q338.7969,1096.6256 339.0156,1096.6256 Q339.3906,1096.6256 339.625,1096.8834 Q339.8594,1097.1413 339.8594,1097.7506 L339.8594,1099.2038 Q339.8594,1099.8131 339.625,1100.0788 Q339.3906,1100.3444 339.0156,1100.3444 Q338.6719,1100.3444 338.4688,1100.1413 Q338.2656,1099.9538 338.1563,1099.4381 Q338.1094,1099.0788 337.9219,1098.8913 Q337.5938,1098.5163 336.9844,1098.2975 Q336.375,1098.0788 335.75,1098.0788 Q334.9844,1098.0788 334.3516,1098.4069 Q333.7188,1098.735 333.2266,1099.485 Q332.7344,1100.235 332.7344,1101.2663 L332.7344,1102.36 Q332.7344,1103.5944 333.625,1104.4147 Q334.5156,1105.235 336.1094,1105.235 Q337.0469,1105.235 337.7031,1104.985 Q338.0938,1104.8288 338.5156,1104.3913 Q338.7813,1104.1256 338.9297,1104.0475 Q339.0781,1103.9694 339.2813,1103.9694 Q339.6094,1103.9694 339.8672,1104.2272 Q340.125,1104.485 340.125,1104.8288 Q340.125,1105.1725 339.7813,1105.5788 Q339.2813,1106.1569 338.4844,1106.485 Q337.4063,1106.9381 336.1094,1106.9381 Q334.5938,1106.9381 333.3906,1106.3131 Q332.4063,1105.8131 331.7188,1104.7428 Q331.0313,1103.6725 331.0313,1102.3913 L331.0313,1101.235 Q331.0313,1099.9069 331.6484,1098.7584 Q332.2656,1097.61 333.3594,1096.9928 Q334.4531,1096.3756 335.6875,1096.3756 Q336.4219,1096.3756 337.0703,1096.5397 Q337.7188,1096.7038 338.2656,1097.0631 Z " fill="#000000"/><text fill="#000000" font-family="sans-serif" font-size="14" lengthAdjust="spacing" textLength="74.7031" x="349.5" y="1106.9166">Indskrivning</text></g><!--link EksternKontakt to Organisation--><g id="link_EksternKontakt_Organisation"><path codeLine="2423" d="M138.25,242.3481 C138.25,269.4981 138.25,304.7781 138.25,325.0181 " fill="none" id="EksternKontakt-Organisation" style="stroke:#181818;stroke-width:1.0;"/><text fill="#000000" font-family="sans-serif" font-size="13" lengthAdjust="spacing" textLength="19.5127" x="124.6269" y="263.9883">0..*</text><text fill="#000000" font-family="sans-serif" font-size="13" lengthAdjust="spacing" textLength="7.23" x="126.326" y="314.2652">1</text></g><!--link Aftalegrundlag to EksternKontakt--><g id="link_Aftalegrundlag_EksternKontakt"><path codeLine="2424" d="M99,84.3781 C99,104.6481 99,139.9981 99,167.1481 " fill="none" id="Aftalegrundlag-EksternKontakt" style="stroke:#181818;stroke-width:1.0;"/><text fill="#000000" font-family="sans-serif" font-size="13" lengthAdjust="spacing" textLength="91.7681" x="7" y="122.2632">ekstern vejleder</text><text fill="#000000" font-family="sans-serif" font-size="13" lengthAdjust="spacing" textLength="19.5127" x="77.0075" y="105.6398">0..*</text><text fill="#000000" font-family="sans-serif" font-size="13" lengthAdjust="spacing" textLength="21.6836" x="76.1602" y="156.2591">0..1</text></g><!--link Indskrivningsfinansiering to Indskrivning--><g id="link_Indskrivningsfinansiering_Indskrivning"><path codeLine="2425" d="M374,870.1981 C374,939.3381 374,1044.9681 374,1085.0281 " fill="none" id="Indskrivningsfinansiering-Indskrivning" style="stroke:#181818;stroke-width:1.0;"/><text fill="#000000" font-family="sans-serif" font-size="13" lengthAdjust="spacing" textLength="19.5127" x="354.0135" y="891.586">1..*</text><text fill="#000000" font-family="sans-serif" font-size="13" lengthAdjust="spacing" textLength="7.23" x="365.8874" y="1074.2787">1</text></g><!--link Virksomhedsbetaling to Organisation--><g id="link_Virksomhedsbetaling_Organisation"><path codeLine="2426" d="M209.81,74.1881 C200.21,74.1881 193.75,74.1881 193.75,74.1881 C193.75,74.1881 193.75,266.9181 193.75,324.8881 " fill="none" id="Virksomhedsbetaling-Organisation" style="stroke:#181818;stroke-width:1.0;"/><text fill="#000000" font-family="sans-serif" font-size="13" lengthAdjust="spacing" textLength="39.749" x="194.75" y="188.0032">debitor</text><text fill="#000000" font-family="sans-serif" font-size="13" lengthAdjust="spacing" textLength="19.5127" x="182.4751" y="88.9901">0..*</text><text fill="#000000" font-family="sans-serif" font-size="13" lengthAdjust="spacing" textLength="7.23" x="200.3894" y="314.3921">1</text></g><!--link Virksomhedsbetaling to EksternKontakt--><g id="link_Virksomhedsbetaling_EksternKontakt"><path codeLine="2427" d="M209.97,63.1881 C188.66,63.1881 171.5,63.1881 171.5,63.1881 C171.5,63.1881 171.5,125.2181 171.5,167.1381 " fill="none" id="Virksomhedsbetaling-EksternKontakt" style="stroke:#181818;stroke-width:1.0;"/><text fill="#000000" font-family="sans-serif" font-size="13" lengthAdjust="spacing" textLength="41.9136" x="129.5" y="110.4232">kontakt</text><text fill="#000000" font-family="sans-serif" font-size="13" lengthAdjust="spacing" textLength="19.5127" x="182.3678" y="59.4609">0..*</text><text fill="#000000" font-family="sans-serif" font-size="13" lengthAdjust="spacing" textLength="19.5127" x="164.196" y="156.2472">0..*</text></g><!--link Virksomhedsbetaling to Faktureringsgrundlag--><g id="link_Virksomhedsbetaling_Faktureringsgrundlag"><path codeLine="2428" d="M366,84.3781 C366,100.4881 366,126.0981 366,149.5681 " fill="none" id="Virksomhedsbetaling-Faktureringsgrundlag" style="stroke:#181818;stroke-width:1.0;"/><text fill="#000000" font-family="sans-serif" font-size="13" lengthAdjust="spacing" textLength="21.6836" x="365.675" y="105.6398">0..1</text><text fill="#000000" font-family="sans-serif" font-size="13" lengthAdjust="spacing" textLength="19.5127" x="334.7987" y="138.9705">1..*</text></g><!--link Faktureringsgrundlag to PersonligBetaling--><g id="link_Faktureringsgrundlag_PersonligBetaling"><path codeLine="2429" d="M441,259.8181 C441,283.3481 441,309.0381 441,325.1281 " fill="none" id="Faktureringsgrundlag-PersonligBetaling" style="stroke:#181818;stroke-width:1.0;"/><text fill="#000000" font-family="sans-serif" font-size="13" lengthAdjust="spacing" textLength="19.5127" x="419.2817" y="281.7906">1..*</text><text fill="#000000" font-family="sans-serif" font-size="13" lengthAdjust="spacing" textLength="21.6836" x="416.5153" y="314.413">0..1</text></g><!--link Virksomhedsbetaling to Deltagerfinansiering--><g id="link_Virksomhedsbetaling_Deltagerfinansiering"><path codeLine="2430" d="M315,84.2781 C315,139.5981 315,323.7681 315,417.0381 " fill="none" id="Virksomhedsbetaling-Deltagerfinansiering" style="stroke:#181818;stroke-width:1.0;"/><text fill="#000000" font-family="sans-serif" font-size="13" lengthAdjust="spacing" textLength="21.6836" x="298.5921" y="105.8113">0..1</text><text fill="#000000" font-family="sans-serif" font-size="13" lengthAdjust="spacing" textLength="7.23" x="300.0004" y="406.4366">1</text></g><!--link PersonligBetaling to Deltagerfinansiering--><g id="link_PersonligBetaling_Deltagerfinansiering"><path codeLine="2431" d="M424.25,357.2481 C424.25,372.2181 424.25,395.4081 424.25,417.0481 " fill="none" id="PersonligBetaling-Deltagerfinansiering" style="stroke:#181818;stroke-width:1.0;"/><text fill="#000000" font-family="sans-serif" font-size="13" lengthAdjust="spacing" textLength="21.6836" x="394.3436" y="378.7713">0..1</text><text fill="#000000" font-family="sans-serif" font-size="13" lengthAdjust="spacing" textLength="7.23" x="423.248" y="406.4479">1</text></g><!--link Deltagerfinansiering to Indskrivningsfinansiering--><g id="link_Deltagerfinansiering_Indskrivningsfinansiering"><path codeLine="2432" d="M374,527.3381 C374,586.3581 374,661.8481 374,724.0981 " fill="none" id="Deltagerfinansiering-to-Indskrivningsfinansiering" style="stroke:#181818;stroke-width:1.0;"/><polygon fill="none" points="374,742.0981,380,724.0981,368,724.0981,374,742.0981" style="stroke:#181818;stroke-width:1.0;"/></g><!--link Indskrivningsfinansiering to FinansieringsformEnum--><g id="link_Indskrivningsfinansiering_FinansieringsformEnum"><path codeLine="2433" d="M495.25,806.1881 C506.88,806.1881 512.59,806.1881 523.98,806.1881 " fill="none" id="Indskrivningsfinansiering-to-FinansieringsformEnum" style="stroke:#181818;stroke-width:1.0;stroke-dasharray:7.0,7.0;"/><polygon fill="#181818" points="529.98,806.1881,520.98,802.1881,524.98,806.1881,520.98,810.1881,529.98,806.1881" style="stroke:#181818;stroke-width:1.0;"/></g><!--link Faktureringsgrundlag to BetalingsstatusEnum--><g id="link_Faktureringsgrundlag_BetalingsstatusEnum"><path codeLine="2434" d="M544.28,205.1881 C555.76,205.1881 561.44,205.1881 572.76,205.1881 " fill="none" id="Faktureringsgrundlag-to-BetalingsstatusEnum" style="stroke:#181818;stroke-width:1.0;stroke-dasharray:7.0,7.0;"/><polygon fill="#181818" points="578.76,205.1881,569.76,201.1881,573.76,205.1881,569.76,209.1881,578.76,205.1881" style="stroke:#181818;stroke-width:1.0;"/></g><!--link Indskrivningsfinansiering to RekvirentEnum--><g id="link_Indskrivningsfinansiering_RekvirentEnum"><path codeLine="2435" d="M486.5,741.7481 C486.5,699.9281 486.5,653.1881 486.5,653.1881 C486.5,653.1881 659.85,653.1881 758.98,653.1881 " fill="none" id="Indskrivningsfinansiering-to-RekvirentEnum" style="stroke:#181818;stroke-width:1.0;stroke-dasharray:7.0,7.0;"/><polygon fill="#181818" points="764.98,653.1881,755.98,649.1881,759.98,653.1881,755.98,657.1881,764.98,653.1881" style="stroke:#181818;stroke-width:1.0;"/></g><!--SRC=[NSun3i8m343HFQTmnOx4nb1r08aJi5TfOYLMRIToag52t1r6n5_Vyf_K6U6oNjS7gTT6QAJ9POe8ABKV82WRMdDj9wtUl02JOZygGh6Uomy4zgt1oy6tcmzxiZ8qtWiNcsVK8Si29wQKUp94TM_d9jB08s8R6uWdFTSXFFt_V000]--></g></svg>