<svg xmlns="http://www.w3.org/2000/svg" xmlns:xlink="http://www.w3.org/1999/xlink" contentStyleType="text/css" height="1077px" preserveAspectRatio="none" style="width:984px;height:1077px;background:#FFFFFF;" version="1.1" viewBox="0 0 984 1077" width="984px" zoomAndPan="magnify"><defs/><g><text fill="#000000" font-family="sans-serif" font-size="14" font-weight="bold" lengthAdjust="spacing" textLength="131.5439" x="419.52" y="22.9951">1_8_Finansiering</text><!--class EksternKontakt--><g id="elem_EksternKontakt"><rect codeLine="2348" fill="#F1F1F1" height="72.5938" id="EksternKontakt" rx="2.5" ry="2.5" style="stroke:#181818;stroke-width:0.5;" width="190.5068" x="17.5" y="161.8147"/><ellipse cx="55.5599" cy="177.8147" fill="#ADD1B2" rx="11" ry="11" style="stroke:#181818;stroke-width:1.0;"/><path d="M58.5286,183.4554 Q57.9505,183.7522 57.3099,183.8929 Q56.6692,184.0491 55.9661,184.0491 Q53.4661,184.0491 52.138,182.4085 Q50.8255,180.7522 50.8255,177.6272 Q50.8255,174.5022 52.138,172.846 Q53.4661,171.1897 55.9661,171.1897 Q56.6692,171.1897 57.3099,171.346 Q57.9661,171.5022 58.5286,171.7991 L58.5286,174.5179 Q57.9036,173.9397 57.3099,173.6741 Q56.7161,173.3929 56.0911,173.3929 Q54.7474,173.3929 54.0599,174.471 Q53.3724,175.5335 53.3724,177.6272 Q53.3724,179.721 54.0599,180.7991 Q54.7474,181.8616 56.0911,181.8616 Q56.7161,181.8616 57.3099,181.596 Q57.9036,181.3147 58.5286,180.7366 L58.5286,183.4554 Z " fill="#000000"/><text fill="#000000" font-family="sans-serif" font-size="14" lengthAdjust="spacing" textLength="107.2627" x="74.6843" y="182.6614">EksternKontakt</text><line style="stroke:#181818;stroke-width:0.5;" x1="18.5" x2="207.0068" y1="193.8147" y2="193.8147"/><text fill="#000000" font-family="sans-serif" font-size="14" lengthAdjust="spacing" textLength="147.3418" x="23.5" y="210.8099">kontaktNavn: Text80</text><a href="1..1" target="_top" title="1..1" xlink:actuate="onRequest" xlink:href="1..1" xlink:show="new" xlink:title="1..1" xlink:type="simple"><text fill="#0000FF" font-family="sans-serif" font-size="14" lengthAdjust="spacing" text-decoration="underline" textLength="26.7148" x="175.292" y="210.8099">1..1</text></a><text fill="#000000" font-family="sans-serif" font-size="14" lengthAdjust="spacing" textLength="108.6504" x="23.5" y="227.1067">kontaktEmail: ?</text><a href="1..1" target="_top" title="1..1" xlink:actuate="onRequest" xlink:href="1..1" xlink:show="new" xlink:title="1..1" xlink:type="simple"><text fill="#0000FF" font-family="sans-serif" font-size="14" lengthAdjust="spacing" text-decoration="underline" textLength="26.7148" x="136.6006" y="227.1067">1..1</text></a></g><!--class Indskrivningsfinansiering--><g id="elem_Indskrivningsfinansiering"><rect codeLine="2353" fill="#F1F1F1" height="121.4844" id="Indskrivningsfinansiering" rx="2.5" ry="2.5" style="stroke:#181818;stroke-width:0.5;" width="272.8457" x="267.5" y="714.8147"/><ellipse cx="311.9814" cy="730.8147" fill="#ADD1B2" rx="11" ry="11" style="stroke:#181818;stroke-width:1.0;"/><path d="M314.9502,736.4554 Q314.3721,736.7522 313.7314,736.8929 Q313.0908,737.0491 312.3877,737.0491 Q309.8877,737.0491 308.5596,735.4085 Q307.2471,733.7522 307.2471,730.6272 Q307.2471,727.5022 308.5596,725.846 Q309.8877,724.1897 312.3877,724.1897 Q313.0908,724.1897 313.7314,724.346 Q314.3877,724.5022 314.9502,724.7991 L314.9502,727.5179 Q314.3252,726.9397 313.7314,726.6741 Q313.1377,726.3929 312.5127,726.3929 Q311.1689,726.3929 310.4814,727.471 Q309.7939,728.5335 309.7939,730.6272 Q309.7939,732.721 310.4814,733.7991 Q311.1689,734.8616 312.5127,734.8616 Q313.1377,734.8616 313.7314,734.596 Q314.3252,734.3147 314.9502,733.7366 L314.9502,736.4554 Z " fill="#000000"/><text fill="#000000" font-family="sans-serif" font-size="14" lengthAdjust="spacing" textLength="175.3828" x="332.4814" y="735.6614">Indskrivningsfinansiering</text><line style="stroke:#181818;stroke-width:0.5;" x1="268.5" x2="539.3457" y1="746.8147" y2="746.8147"/><text fill="#000000" font-family="sans-serif" font-size="14" lengthAdjust="spacing" textLength="180.3936" x="273.5" y="763.8099">finansieringsform: Picklist</text><a href="1..1" target="_top" title="1..1" xlink:actuate="onRequest" xlink:href="1..1" xlink:show="new" xlink:title="1..1" xlink:type="simple"><text fill="#0000FF" font-family="sans-serif" font-size="14" lengthAdjust="spacing" text-decoration="underline" textLength="26.7148" x="458.3438" y="763.8099">1..1</text></a><text fill="#000000" font-family="sans-serif" font-size="14" lengthAdjust="spacing" textLength="159.4482" x="273.5" y="780.1067">finansieringsperiode: ?</text><a href="1..1" target="_top" title="1..1" xlink:actuate="onRequest" xlink:href="1..1" xlink:show="new" xlink:title="1..1" xlink:type="simple"><text fill="#0000FF" font-family="sans-serif" font-size="14" lengthAdjust="spacing" text-decoration="underline" textLength="26.7148" x="437.3984" y="780.1067">1..1</text></a><text fill="#000000" font-family="sans-serif" font-size="14" lengthAdjust="spacing" textLength="121.249" x="273.5" y="796.4036">rekvirent: Picklist</text><a href="1..1" target="_top" title="1..1" xlink:actuate="onRequest" xlink:href="1..1" xlink:show="new" xlink:title="1..1" xlink:type="simple"><text fill="#0000FF" font-family="sans-serif" font-size="14" lengthAdjust="spacing" text-decoration="underline" textLength="26.7148" x="399.1992" y="796.4036">1..1</text></a><text fill="#000000" font-family="sans-serif" font-size="14" lengthAdjust="spacing" textLength="35.916" x="273.5" y="812.7005">&#171;BK&#187;</text><text fill="#000000" font-family="sans-serif" font-size="14" lengthAdjust="spacing" textLength="229.6807" x="273.5" y="828.9974">/indskrivningsnummer: IgnoreBK</text><a href="1..1" target="_top" title="1..1" xlink:actuate="onRequest" xlink:href="1..1" xlink:show="new" xlink:title="1..1" xlink:type="simple"><text fill="#0000FF" font-family="sans-serif" font-size="14" lengthAdjust="spacing" text-decoration="underline" textLength="26.7148" x="507.6309" y="828.9974">1..1</text></a></g><!--class Deltagerfinansiering--><g id="elem_Deltagerfinansiering"><rect codeLine="2361" fill="#F1F1F1" height="105.1875" id="Deltagerfinansiering" rx="2.5" ry="2.5" style="stroke:#181818;stroke-width:0.5;" width="233.8604" x="287" y="406.8147"/><ellipse cx="328.5083" cy="422.8147" fill="#ADD1B2" rx="11" ry="11" style="stroke:#181818;stroke-width:1.0;"/><path d="M331.477,428.4554 Q330.8989,428.7522 330.2583,428.8929 Q329.6176,429.0491 328.9145,429.0491 Q326.4145,429.0491 325.0864,427.4085 Q323.7739,425.7522 323.7739,422.6272 Q323.7739,419.5022 325.0864,417.846 Q326.4145,416.1897 328.9145,416.1897 Q329.6176,416.1897 330.2583,416.346 Q330.9145,416.5022 331.477,416.7991 L331.477,419.5179 Q330.852,418.9397 330.2583,418.6741 Q329.6645,418.3929 329.0395,418.3929 Q327.6958,418.3929 327.0083,419.471 Q326.3208,420.5335 326.3208,422.6272 Q326.3208,424.721 327.0083,425.7991 Q327.6958,426.8616 329.0395,426.8616 Q329.6645,426.8616 330.2583,426.596 Q330.852,426.3147 331.477,425.7366 L331.477,428.4554 Z " fill="#000000"/><text fill="#000000" font-family="sans-serif" font-size="14" lengthAdjust="spacing" textLength="142.9531" x="348.399" y="427.6614">Deltagerfinansiering</text><line style="stroke:#181818;stroke-width:0.5;" x1="288" x2="519.8604" y1="438.8147" y2="438.8147"/><text fill="#000000" font-family="sans-serif" font-size="14" lengthAdjust="spacing" textLength="111.6377" x="293" y="455.8099">bel&#248;b: Currency</text><a href="1..1" target="_top" title="1..1" xlink:actuate="onRequest" xlink:href="1..1" xlink:show="new" xlink:title="1..1" xlink:type="simple"><text fill="#0000FF" font-family="sans-serif" font-size="14" lengthAdjust="spacing" text-decoration="underline" textLength="26.7148" x="409.0879" y="455.8099">1..1</text></a><text fill="#000000" font-family="sans-serif" font-size="14" lengthAdjust="spacing" textLength="167.1455" x="293" y="472.1067">personligAndel: Percent</text><a href="1..1" target="_top" title="1..1" xlink:actuate="onRequest" xlink:href="1..1" xlink:show="new" xlink:title="1..1" xlink:type="simple"><text fill="#0000FF" font-family="sans-serif" font-size="14" lengthAdjust="spacing" text-decoration="underline" textLength="26.7148" x="464.5957" y="472.1067">1..1</text></a><text fill="#000000" font-family="sans-serif" font-size="14" lengthAdjust="spacing" textLength="190.6953" x="293" y="488.4036">virksomhedsandel: Percent</text><a href="1..1" target="_top" title="1..1" xlink:actuate="onRequest" xlink:href="1..1" xlink:show="new" xlink:title="1..1" xlink:type="simple"><text fill="#0000FF" font-family="sans-serif" font-size="14" lengthAdjust="spacing" text-decoration="underline" textLength="26.7148" x="488.1455" y="488.4036">1..1</text></a><text fill="#000000" font-family="sans-serif" font-size="14" lengthAdjust="spacing" textLength="152.3389" x="293" y="504.7005">antalRater: Number.0</text><a href="1..1" target="_top" title="1..1" xlink:actuate="onRequest" xlink:href="1..1" xlink:show="new" xlink:title="1..1" xlink:type="simple"><text fill="#0000FF" font-family="sans-serif" font-size="14" lengthAdjust="spacing" text-decoration="underline" textLength="26.7148" x="449.7891" y="504.7005">1..1</text></a></g><!--class Virksomhedsbetaling--><g id="elem_Virksomhedsbetaling"><rect codeLine="2368" fill="#F1F1F1" height="32" id="Virksomhedsbetaling" rx="2.5" ry="2.5" style="stroke:#181818;stroke-width:0.5;" width="179.6016" x="229" y="49.8147"/><ellipse cx="244" cy="65.8147" fill="#ADD1B2" rx="11" ry="11" style="stroke:#181818;stroke-width:1.0;"/><path d="M246.9688,71.4554 Q246.3906,71.7522 245.75,71.8929 Q245.1094,72.0491 244.4063,72.0491 Q241.9063,72.0491 240.5781,70.4085 Q239.2656,68.7522 239.2656,65.6272 Q239.2656,62.5022 240.5781,60.846 Q241.9063,59.1897 244.4063,59.1897 Q245.1094,59.1897 245.75,59.346 Q246.4063,59.5022 246.9688,59.7991 L246.9688,62.5179 Q246.3438,61.9397 245.75,61.6741 Q245.1563,61.3929 244.5313,61.3929 Q243.1875,61.3929 242.5,62.471 Q241.8125,63.5335 241.8125,65.6272 Q241.8125,67.721 242.5,68.7991 Q243.1875,69.8616 244.5313,69.8616 Q245.1563,69.8616 245.75,69.596 Q246.3438,69.3147 246.9688,68.7366 L246.9688,71.4554 Z " fill="#000000"/><text fill="#000000" font-family="sans-serif" font-size="14" lengthAdjust="spacing" textLength="147.6016" x="258" y="70.6614">Virksomhedsbetaling</text></g><!--class PersonligBetaling--><g id="elem_PersonligBetaling"><rect codeLine="2371" fill="#F1F1F1" height="32" id="PersonligBetaling" rx="2.5" ry="2.5" style="stroke:#181818;stroke-width:0.5;" width="154.0352" x="399" y="314.8147"/><ellipse cx="414" cy="330.8147" fill="#ADD1B2" rx="11" ry="11" style="stroke:#181818;stroke-width:1.0;"/><path d="M416.9688,336.4554 Q416.3906,336.7522 415.75,336.8929 Q415.1094,337.0491 414.4063,337.0491 Q411.9063,337.0491 410.5781,335.4085 Q409.2656,333.7522 409.2656,330.6272 Q409.2656,327.5022 410.5781,325.846 Q411.9063,324.1897 414.4063,324.1897 Q415.1094,324.1897 415.75,324.346 Q416.4063,324.5022 416.9688,324.7991 L416.9688,327.5179 Q416.3438,326.9397 415.75,326.6741 Q415.1563,326.3929 414.5313,326.3929 Q413.1875,326.3929 412.5,327.471 Q411.8125,328.5335 411.8125,330.6272 Q411.8125,332.721 412.5,333.7991 Q413.1875,334.8616 414.5313,334.8616 Q415.1563,334.8616 415.75,334.596 Q416.3438,334.3147 416.9688,333.7366 L416.9688,336.4554 Z " fill="#000000"/><text fill="#000000" font-family="sans-serif" font-size="14" lengthAdjust="spacing" textLength="122.0352" x="428" y="335.6614">PersonligBetaling</text></g><!--class Faktureringsgrundlag--><g id="elem_Faktureringsgrundlag"><rect codeLine="2374" fill="#F1F1F1" height="105.1875" id="Faktureringsgrundlag" rx="2.5" ry="2.5" style="stroke:#181818;stroke-width:0.5;" width="208.4512" x="386" y="145.8147"/><ellipse cx="412.5427" cy="161.8147" fill="#ADD1B2" rx="11" ry="11" style="stroke:#181818;stroke-width:1.0;"/><path d="M415.5114,167.4554 Q414.9333,167.7522 414.2927,167.8929 Q413.6521,168.0491 412.9489,168.0491 Q410.4489,168.0491 409.1208,166.4085 Q407.8083,164.7522 407.8083,161.6272 Q407.8083,158.5022 409.1208,156.846 Q410.4489,155.1897 412.9489,155.1897 Q413.6521,155.1897 414.2927,155.346 Q414.9489,155.5022 415.5114,155.7991 L415.5114,158.5179 Q414.8864,157.9397 414.2927,157.6741 Q413.6989,157.3929 413.0739,157.3929 Q411.7302,157.3929 411.0427,158.471 Q410.3552,159.5335 410.3552,161.6272 Q410.3552,163.721 411.0427,164.7991 Q411.7302,165.8616 413.0739,165.8616 Q413.6989,165.8616 414.2927,165.596 Q414.8864,165.3147 415.5114,164.7366 L415.5114,167.4554 Z " fill="#000000"/><text fill="#000000" font-family="sans-serif" font-size="14" lengthAdjust="spacing" textLength="150.8008" x="429.1077" y="166.6614">Faktureringsgrundlag</text><line style="stroke:#181818;stroke-width:0.5;" x1="387" x2="593.4512" y1="177.8147" y2="177.8147"/><text fill="#000000" font-family="sans-serif" font-size="14" lengthAdjust="spacing" textLength="165.2861" x="392" y="194.8099">betalingsstatus: Picklist</text><a href="1..1" target="_top" title="1..1" xlink:actuate="onRequest" xlink:href="1..1" xlink:show="new" xlink:title="1..1" xlink:type="simple"><text fill="#0000FF" font-family="sans-serif" font-size="14" lengthAdjust="spacing" text-decoration="underline" textLength="26.7148" x="561.7363" y="194.8099">1..1</text></a><text fill="#000000" font-family="sans-serif" font-size="14" lengthAdjust="spacing" textLength="134.3877" x="392" y="211.1067">betalingsfrist: Date</text><a href="1..1" target="_top" title="1..1" xlink:actuate="onRequest" xlink:href="1..1" xlink:show="new" xlink:title="1..1" xlink:type="simple"><text fill="#0000FF" font-family="sans-serif" font-size="14" lengthAdjust="spacing" text-decoration="underline" textLength="26.7148" x="530.8379" y="211.1067">1..1</text></a><text fill="#000000" font-family="sans-serif" font-size="14" lengthAdjust="spacing" textLength="111.6377" x="392" y="227.4036">bel&#248;b: Currency</text><a href="1..1" target="_top" title="1..1" xlink:actuate="onRequest" xlink:href="1..1" xlink:show="new" xlink:title="1..1" xlink:type="simple"><text fill="#0000FF" font-family="sans-serif" font-size="14" lengthAdjust="spacing" text-decoration="underline" textLength="26.7148" x="508.0879" y="227.4036">1..1</text></a><text fill="#000000" font-family="sans-serif" font-size="14" lengthAdjust="spacing" textLength="138.5508" x="392" y="243.7005">betalingsdato: Date</text><a href="0..1" target="_top" title="0..1" xlink:actuate="onRequest" xlink:href="0..1" xlink:show="new" xlink:title="0..1" xlink:type="simple"><text fill="#0000FF" font-family="sans-serif" font-size="14" lengthAdjust="spacing" text-decoration="underline" textLength="26.7148" x="535.001" y="243.7005">0..1</text></a></g><!--class FinansieringsformEnum--><g id="elem_FinansieringsformEnum"><rect codeLine="2381" fill="#90EE90" height="162.3438" id="FinansieringsformEnum" rx="2.5" ry="2.5" style="stroke:#181818;stroke-width:0.5;" width="227.4414" x="575.5" y="694.3147"/><ellipse cx="603.8022" cy="714.4476" fill="#EB937F" rx="11" ry="11" style="stroke:#181818;stroke-width:1.0;"/><path d="M607.9116,720.4476 L600.1929,720.4476 L600.1929,708.0569 L607.9116,708.0569 L607.9116,710.2132 L602.646,710.2132 L602.646,712.8851 L607.4116,712.8851 L607.4116,715.0413 L602.646,715.0413 L602.646,718.2913 L607.9116,718.2913 L607.9116,720.4476 Z " fill="#000000"/><text fill="#000000" font-family="sans-serif" font-size="12" font-style="italic" lengthAdjust="spacing" textLength="49.0957" x="679.1509" y="710.4534">&#171;enum&#187;</text><text fill="#000000" font-family="sans-serif" font-size="14" lengthAdjust="spacing" textLength="165.8809" x="620.7583" y="726.2786">FinansieringsformEnum</text><line style="stroke:#181818;stroke-width:0.5;" x1="576.5" x2="801.9414" y1="734.5804" y2="734.5804"/><text fill="#000000" font-family="sans-serif" font-size="14" lengthAdjust="spacing" textLength="106.8662" x="581.5" y="751.5755">ST&#197;-finansieret</text><text fill="#000000" font-family="sans-serif" font-size="14" lengthAdjust="spacing" textLength="185.3496" x="581.5" y="767.8724">udenlandskSelvfinansieret</text><text fill="#000000" font-family="sans-serif" font-size="14" lengthAdjust="spacing" textLength="125.8291" x="581.5" y="784.1692">&#229;rselevfinansieret</text><text fill="#000000" font-family="sans-serif" font-size="14" lengthAdjust="spacing" textLength="189.8135" x="581.5" y="800.4661">andenOffentligFinansiering</text><text fill="#000000" font-family="sans-serif" font-size="14" lengthAdjust="spacing" textLength="215.4414" x="581.5" y="816.763">friplads-ogStipendiefinansieret</text><text fill="#000000" font-family="sans-serif" font-size="14" lengthAdjust="spacing" textLength="115.8213" x="581.5" y="833.0599">deltagerbetaling</text><text fill="#000000" font-family="sans-serif" font-size="14" lengthAdjust="spacing" textLength="146.2139" x="581.5" y="849.3567">danskSelvfinansieret</text></g><!--class BetalingsstatusEnum--><g id="elem_BetalingsstatusEnum"><rect codeLine="2391" fill="#90EE90" height="113.4531" id="BetalingsstatusEnum" rx="2.5" ry="2.5" style="stroke:#181818;stroke-width:0.5;" width="180.3672" x="629" y="141.8147"/><ellipse cx="644" cy="161.9476" fill="#EB937F" rx="11" ry="11" style="stroke:#181818;stroke-width:1.0;"/><path d="M648.1094,167.9476 L640.3906,167.9476 L640.3906,155.5569 L648.1094,155.5569 L648.1094,157.7132 L642.8438,157.7132 L642.8438,160.3851 L647.6094,160.3851 L647.6094,162.5413 L642.8438,162.5413 L642.8438,165.7913 L648.1094,165.7913 L648.1094,167.9476 Z " fill="#000000"/><text fill="#000000" font-family="sans-serif" font-size="12" font-style="italic" lengthAdjust="spacing" textLength="49.0957" x="707.6357" y="157.9534">&#171;enum&#187;</text><text fill="#000000" font-family="sans-serif" font-size="14" lengthAdjust="spacing" textLength="148.3672" x="658" y="173.7786">BetalingsstatusEnum</text><line style="stroke:#181818;stroke-width:0.5;" x1="630" x2="808.3672" y1="182.0804" y2="182.0804"/><text fill="#000000" font-family="sans-serif" font-size="14" lengthAdjust="spacing" textLength="67.4502" x="635" y="199.0755">opkr&#230;vet</text><text fill="#000000" font-family="sans-serif" font-size="14" lengthAdjust="spacing" textLength="40.9473" x="635" y="215.3724">betalt</text><text fill="#000000" font-family="sans-serif" font-size="14" lengthAdjust="spacing" textLength="69.2139" x="635" y="231.6692">krediteret</text><text fill="#000000" font-family="sans-serif" font-size="14" lengthAdjust="spacing" textLength="71.4492" x="635" y="247.9661">annulleret</text></g><!--class RekvirentEnum--><g id="elem_RekvirentEnum"><rect codeLine="2398" fill="#90EE90" height="406.7969" id="RekvirentEnum" rx="2.5" ry="2.5" style="stroke:#181818;stroke-width:0.5;" width="139.584" x="838" y="571.8147"/><ellipse cx="853" cy="591.9476" fill="#EB937F" rx="11" ry="11" style="stroke:#181818;stroke-width:1.0;"/><path d="M857.1094,597.9476 L849.3906,597.9476 L849.3906,585.5569 L857.1094,585.5569 L857.1094,587.7132 L851.8438,587.7132 L851.8438,590.3851 L856.6094,590.3851 L856.6094,592.5413 L851.8438,592.5413 L851.8438,595.7913 L857.1094,595.7913 L857.1094,597.9476 Z " fill="#000000"/><text fill="#000000" font-family="sans-serif" font-size="12" font-style="italic" lengthAdjust="spacing" textLength="49.0957" x="896.2441" y="587.9534">&#171;enum&#187;</text><text fill="#000000" font-family="sans-serif" font-size="14" lengthAdjust="spacing" textLength="107.584" x="867" y="603.7786">RekvirentEnum</text><line style="stroke:#181818;stroke-width:0.5;" x1="839" x2="976.584" y1="612.0804" y2="612.0804"/><text fill="#000000" font-family="sans-serif" font-size="14" lengthAdjust="spacing" textLength="37.9121" x="844" y="629.0755">AAKA</text><text fill="#000000" font-family="sans-serif" font-size="14" lengthAdjust="spacing" textLength="36.3877" x="844" y="645.3724">AAKF</text><text fill="#000000" font-family="sans-serif" font-size="14" lengthAdjust="spacing" textLength="38.0625" x="844" y="661.6692">AAKR</text><text fill="#000000" font-family="sans-serif" font-size="14" lengthAdjust="spacing" textLength="36.5928" x="844" y="677.9661">AAST</text><text fill="#000000" font-family="sans-serif" font-size="14" lengthAdjust="spacing" textLength="26.1816" x="844" y="694.263">AFT</text><text fill="#000000" font-family="sans-serif" font-size="14" lengthAdjust="spacing" textLength="30.8301" x="844" y="710.5599">AND</text><text fill="#000000" font-family="sans-serif" font-size="14" lengthAdjust="spacing" textLength="29.4834" x="844" y="726.8567">ASO</text><text fill="#000000" font-family="sans-serif" font-size="14" lengthAdjust="spacing" textLength="28.7109" x="844" y="743.1536">AUS</text><text fill="#000000" font-family="sans-serif" font-size="14" lengthAdjust="spacing" textLength="27.3848" x="844" y="759.4505">FRB</text><text fill="#000000" font-family="sans-serif" font-size="14" lengthAdjust="spacing" textLength="25.833" x="844" y="775.7474">FRF</text><text fill="#000000" font-family="sans-serif" font-size="14" lengthAdjust="spacing" textLength="28.0273" x="844" y="792.0442">FRU</text><text fill="#000000" font-family="sans-serif" font-size="14" lengthAdjust="spacing" textLength="36.0938" x="844" y="808.3411">INNO</text><text fill="#000000" font-family="sans-serif" font-size="14" lengthAdjust="spacing" textLength="41.8564" x="844" y="824.638">KOMA</text><text fill="#000000" font-family="sans-serif" font-size="14" lengthAdjust="spacing" textLength="40.332" x="844" y="840.9349">KOMF</text><text fill="#000000" font-family="sans-serif" font-size="14" lengthAdjust="spacing" textLength="42.0068" x="844" y="857.2317">KOMR</text><text fill="#000000" font-family="sans-serif" font-size="14" lengthAdjust="spacing" textLength="32.7031" x="844" y="873.5286">SID1</text><text fill="#000000" font-family="sans-serif" font-size="14" lengthAdjust="spacing" textLength="33.6396" x="844" y="889.8255">SJOB</text><text fill="#000000" font-family="sans-serif" font-size="14" lengthAdjust="spacing" textLength="34.7744" x="844" y="906.1224">TALE</text><text fill="#000000" font-family="sans-serif" font-size="14" lengthAdjust="spacing" textLength="14.376" x="844" y="922.4192">UI</text><text fill="#000000" font-family="sans-serif" font-size="14" lengthAdjust="spacing" textLength="24.8486" x="844" y="938.7161">UNI</text><text fill="#000000" font-family="sans-serif" font-size="14" lengthAdjust="spacing" textLength="28.7383" x="844" y="955.013">USB</text><text fill="#000000" font-family="sans-serif" font-size="14" lengthAdjust="spacing" textLength="31.9033" x="844" y="971.3099">UVM</text></g><!--class Organisation--><g id="elem_Organisation"><rect fill="#F1F1F1" height="32" id="Organisation" rx="2.5" ry="2.5" style="stroke:#181818;stroke-width:0.5;" width="121.6943" x="105" y="314.8147"/><ellipse cx="120" cy="330.8147" fill="#ADD1B2" rx="11" ry="11" style="stroke:#181818;stroke-width:1.0;"/><path d="M122.9688,336.4554 Q122.3906,336.7522 121.75,336.8929 Q121.1094,337.0491 120.4063,337.0491 Q117.9063,337.0491 116.5781,335.4085 Q115.2656,333.7522 115.2656,330.6272 Q115.2656,327.5022 116.5781,325.846 Q117.9063,324.1897 120.4063,324.1897 Q121.1094,324.1897 121.75,324.346 Q122.4063,324.5022 122.9688,324.7991 L122.9688,327.5179 Q122.3438,326.9397 121.75,326.6741 Q121.1563,326.3929 120.5313,326.3929 Q119.1875,326.3929 118.5,327.471 Q117.8125,328.5335 117.8125,330.6272 Q117.8125,332.721 118.5,333.7991 Q119.1875,334.8616 120.5313,334.8616 Q121.1563,334.8616 121.75,334.596 Q122.3438,334.3147 122.9688,333.7366 L122.9688,336.4554 Z " fill="#000000"/><text fill="#000000" font-family="sans-serif" font-size="14" lengthAdjust="spacing" textLength="89.6943" x="134" y="335.6614">Organisation</text></g><!--class Aftalegrundlag--><g id="elem_Aftalegrundlag"><rect fill="#F1F1F1" height="32" id="Aftalegrundlag" rx="2.5" ry="2.5" style="stroke:#181818;stroke-width:0.5;" width="135.708" x="45" y="49.8147"/><ellipse cx="60" cy="65.8147" fill="#ADD1B2" rx="11" ry="11" style="stroke:#181818;stroke-width:1.0;"/><path d="M62.9688,71.4554 Q62.3906,71.7522 61.75,71.8929 Q61.1094,72.0491 60.4063,72.0491 Q57.9063,72.0491 56.5781,70.4085 Q55.2656,68.7522 55.2656,65.6272 Q55.2656,62.5022 56.5781,60.846 Q57.9063,59.1897 60.4063,59.1897 Q61.1094,59.1897 61.75,59.346 Q62.4063,59.5022 62.9688,59.7991 L62.9688,62.5179 Q62.3438,61.9397 61.75,61.6741 Q61.1563,61.3929 60.5313,61.3929 Q59.1875,61.3929 58.5,62.471 Q57.8125,63.5335 57.8125,65.6272 Q57.8125,67.721 58.5,68.7991 Q59.1875,69.8616 60.5313,69.8616 Q61.1563,69.8616 61.75,69.596 Q62.3438,69.3147 62.9688,68.7366 L62.9688,71.4554 Z " fill="#000000"/><text fill="#000000" font-family="sans-serif" font-size="14" lengthAdjust="spacing" textLength="103.708" x="74" y="70.6614">Aftalegrundlag</text></g><!--class Indskrivning--><g id="elem_Indskrivning"><rect fill="#F1F1F1" height="32" id="Indskrivning" rx="2.5" ry="2.5" style="stroke:#181818;stroke-width:0.5;" width="117.7432" x="345" y="1038.8147"/><ellipse cx="360" cy="1054.8147" fill="#ADD1B2" rx="11" ry="11" style="stroke:#181818;stroke-width:1.0;"/><path d="M362.9688,1060.4554 Q362.3906,1060.7522 361.75,1060.8929 Q361.1094,1061.0491 360.4063,1061.0491 Q357.9063,1061.0491 356.5781,1059.4085 Q355.2656,1057.7522 355.2656,1054.6272 Q355.2656,1051.5022 356.5781,1049.846 Q357.9063,1048.1897 360.4063,1048.1897 Q361.1094,1048.1897 361.75,1048.346 Q362.4063,1048.5022 362.9688,1048.7991 L362.9688,1051.5179 Q362.3438,1050.9397 361.75,1050.6741 Q361.1563,1050.3929 360.5313,1050.3929 Q359.1875,1050.3929 358.5,1051.471 Q357.8125,1052.5335 357.8125,1054.6272 Q357.8125,1056.721 358.5,1057.7991 Q359.1875,1058.8616 360.5313,1058.8616 Q361.1563,1058.8616 361.75,1058.596 Q362.3438,1058.3147 362.9688,1057.7366 L362.9688,1060.4554 Z " fill="#000000"/><text fill="#000000" font-family="sans-serif" font-size="14" lengthAdjust="spacing" textLength="85.7432" x="374" y="1059.6614">Indskrivning</text></g><!--link EksternKontakt to Organisation--><g id="link_EksternKontakt_Organisation"><path codeLine="2423" d="M156.75,234.8747 C156.75,261.0647 156.75,295.0747 156.75,314.7747 " fill="none" id="EksternKontakt-Organisation" style="stroke:#181818;stroke-width:1.0;"/><text fill="#000000" font-family="sans-serif" font-size="13" lengthAdjust="spacing" textLength="23.0356" x="139.3384" y="254.5608">0..*</text><text fill="#000000" font-family="sans-serif" font-size="13" lengthAdjust="spacing" textLength="8.271" x="144.2944" y="303.7726">1</text></g><!--link Aftalegrundlag to EksternKontakt--><g id="link_Aftalegrundlag_EksternKontakt"><path codeLine="2424" d="M113,82.0647 C113,101.7547 113,135.5447 113,161.6347 " fill="none" id="Aftalegrundlag-EksternKontakt" style="stroke:#181818;stroke-width:1.0;"/><text fill="#000000" font-family="sans-serif" font-size="13" lengthAdjust="spacing" textLength="105.6187" x="7" y="117.9116">ekstern vejleder</text><text fill="#000000" font-family="sans-serif" font-size="13" lengthAdjust="spacing" textLength="23.0356" x="86.2449" y="102.0208">0..*</text><text fill="#000000" font-family="sans-serif" font-size="13" lengthAdjust="spacing" textLength="24.8066" x="86.9783" y="150.8801">0..1</text></g><!--link Indskrivningsfinansiering to Indskrivning--><g id="link_Indskrivningsfinansiering_Indskrivning"><path codeLine="2425" d="M404,835.9647 C404,900.9847 404,1000.0747 404,1038.6547 " fill="none" id="Indskrivningsfinansiering-Indskrivning" style="stroke:#181818;stroke-width:1.0;"/><text fill="#000000" font-family="sans-serif" font-size="13" lengthAdjust="spacing" textLength="23.0356" x="379.61" y="856.316">1..*</text><text fill="#000000" font-family="sans-serif" font-size="13" lengthAdjust="spacing" textLength="8.271" x="394.7157" y="1027.6113">1</text></g><!--link Virksomhedsbetaling to Organisation--><g id="link_Virksomhedsbetaling_Organisation"><path codeLine="2426" d="M228.97,71.8147 C222.09,71.8147 217.75,71.8147 217.75,71.8147 C217.75,71.8147 217.75,257.9147 217.75,314.6147 " fill="none" id="Virksomhedsbetaling-Organisation" style="stroke:#181818;stroke-width:1.0;"/><text fill="#000000" font-family="sans-serif" font-size="13" lengthAdjust="spacing" textLength="46.5093" x="218.75" y="183.6716">debitor</text><text fill="#000000" font-family="sans-serif" font-size="13" lengthAdjust="spacing" textLength="23.0356" x="197.8966" y="84.9627">0..*</text><text fill="#000000" font-family="sans-serif" font-size="13" lengthAdjust="spacing" textLength="8.271" x="225.6627" y="303.853">1</text></g><!--link Virksomhedsbetaling to EksternKontakt--><g id="link_Virksomhedsbetaling_EksternKontakt"><path codeLine="2427" d="M228.7,60.8147 C209.43,60.8147 194.75,60.8147 194.75,60.8147 C194.75,60.8147 194.75,120.7347 194.75,161.4647 " fill="none" id="Virksomhedsbetaling-EksternKontakt" style="stroke:#181818;stroke-width:1.0;"/><text fill="#000000" font-family="sans-serif" font-size="13" lengthAdjust="spacing" textLength="49.4102" x="144.75" y="107.2316">kontakt</text><text fill="#000000" font-family="sans-serif" font-size="13" lengthAdjust="spacing" textLength="23.0356" x="197.9226" y="56.9297">0..*</text><text fill="#000000" font-family="sans-serif" font-size="13" lengthAdjust="spacing" textLength="23.0356" x="184.3104" y="150.6798">0..*</text></g><!--link Virksomhedsbetaling to Faktureringsgrundlag--><g id="link_Virksomhedsbetaling_Faktureringsgrundlag"><path codeLine="2428" d="M397.5,82.0647 C397.5,97.8847 397.5,122.8147 397.5,145.5347 " fill="none" id="Virksomhedsbetaling-Faktureringsgrundlag" style="stroke:#181818;stroke-width:1.0;"/><text fill="#000000" font-family="sans-serif" font-size="13" lengthAdjust="spacing" textLength="24.8066" x="395.7277" y="102.0208">0..1</text><text fill="#000000" font-family="sans-serif" font-size="13" lengthAdjust="spacing" textLength="23.0356" x="361.1484" y="134.8748">1..*</text></g><!--link Faktureringsgrundlag to PersonligBetaling--><g id="link_Faktureringsgrundlag_PersonligBetaling"><path codeLine="2429" d="M476,251.0647 C476,273.8647 476,298.9047 476,314.7247 " fill="none" id="Faktureringsgrundlag-PersonligBetaling" style="stroke:#181818;stroke-width:1.0;"/><text fill="#000000" font-family="sans-serif" font-size="13" lengthAdjust="spacing" textLength="23.0356" x="449.5455" y="271.2241">1..*</text><text fill="#000000" font-family="sans-serif" font-size="13" lengthAdjust="spacing" textLength="24.8066" x="448.0076" y="303.7054">0..1</text></g><!--link Virksomhedsbetaling to Deltagerfinansiering--><g id="link_Virksomhedsbetaling_Deltagerfinansiering"><path codeLine="2430" d="M336.5,82.2247 C336.5,137.2047 336.5,316.5347 336.5,406.6447 " fill="none" id="Virksomhedsbetaling-Deltagerfinansiering" style="stroke:#181818;stroke-width:1.0;"/><text fill="#000000" font-family="sans-serif" font-size="13" lengthAdjust="spacing" textLength="24.8066" x="314.4452" y="101.9341">0..1</text><text fill="#000000" font-family="sans-serif" font-size="13" lengthAdjust="spacing" textLength="8.271" x="318.9198" y="395.6226">1</text></g><!--link PersonligBetaling to Deltagerfinansiering--><g id="link_PersonligBetaling_Deltagerfinansiering"><path codeLine="2431" d="M460,346.8247 C460,361.8347 460,385.1047 460,406.5947 " fill="none" id="PersonligBetaling-Deltagerfinansiering" style="stroke:#181818;stroke-width:1.0;"/><text fill="#000000" font-family="sans-serif" font-size="13" lengthAdjust="spacing" textLength="24.8066" x="426.5076" y="366.996">0..1</text><text fill="#000000" font-family="sans-serif" font-size="13" lengthAdjust="spacing" textLength="8.271" x="459.0151" y="395.5659">1</text></g><!--link Deltagerfinansiering to Indskrivningsfinansiering--><g id="link_Deltagerfinansiering_Indskrivningsfinansiering"><path codeLine="2432" d="M404,511.8547 C404,567.6547 404,637.7747 404,696.5447 " fill="none" id="Deltagerfinansiering-to-Indskrivningsfinansiering" style="stroke:#181818;stroke-width:1.0;"/><polygon fill="none" points="404,714.5447,410,696.5447,398,696.5447,404,714.5447" style="stroke:#181818;stroke-width:1.0;"/></g><!--link Indskrivningsfinansiering to FinansieringsformEnum--><g id="link_Indskrivningsfinansiering_FinansieringsformEnum"><path codeLine="2433" d="M540.66,775.8147 C552.23,775.8147 557.85,775.8147 569.22,775.8147 " fill="none" id="Indskrivningsfinansiering-to-FinansieringsformEnum" style="stroke:#181818;stroke-width:1.0;stroke-dasharray:7.0,7.0;"/><polygon fill="#181818" points="575.22,775.8147,566.22,771.8147,570.22,775.8147,566.22,779.8147,575.22,775.8147" style="stroke:#181818;stroke-width:1.0;"/></g><!--link Faktureringsgrundlag to BetalingsstatusEnum--><g id="link_Faktureringsgrundlag_BetalingsstatusEnum"><path codeLine="2434" d="M594.11,198.8147 C605.69,198.8147 611.41,198.8147 622.8,198.8147 " fill="none" id="Faktureringsgrundlag-to-BetalingsstatusEnum" style="stroke:#181818;stroke-width:1.0;stroke-dasharray:7.0,7.0;"/><polygon fill="#181818" points="628.8,198.8147,619.8,194.8147,623.8,198.8147,619.8,202.8147,628.8,198.8147" style="stroke:#181818;stroke-width:1.0;"/></g><!--link Indskrivningsfinansiering to RekvirentEnum--><g id="link_Indskrivningsfinansiering_RekvirentEnum"><path codeLine="2435" d="M530.75,714.4847 C530.75,676.1347 530.75,633.8147 530.75,633.8147 C530.75,633.8147 722.83,633.8147 831.93,633.8147 " fill="none" id="Indskrivningsfinansiering-to-RekvirentEnum" style="stroke:#181818;stroke-width:1.0;stroke-dasharray:7.0,7.0;"/><polygon fill="#181818" points="837.93,633.8147,828.93,629.8147,832.93,633.8147,828.93,637.8147,837.93,633.8147" style="stroke:#181818;stroke-width:1.0;"/></g><!--SRC=[NSun3i8m343HFQTmnOx4nb1r08aJi5TfOYLMRIToag52t1r6n5_Vyf_K6U6oNjS7gTT6QAJ9POe8ABKV82WRMdDj9wtUl02JOZygGh6Uomy4zgt1oy6tcmzxiZ8qtWiNcsVK8Si29wQKUp94TM_d9jB08s8R6uWdFTSXFFt_V000]--></g></svg>