<svg xmlns="http://www.w3.org/2000/svg" xmlns:xlink="http://www.w3.org/1999/xlink" contentStyleType="text/css" height="446px" preserveAspectRatio="none" style="width:1208px;height:446px;background:#FFFFFF;" version="1.1" viewBox="0 0 1208 446" width="1208px" zoomAndPan="magnify"><defs/><g><text fill="#000000" font-family="sans-serif" font-size="14" font-weight="bold" lengthAdjust="spacing" textLength="229.5166" x="482.5015" y="22.9951">2_1_2_Tilbud_om_studieplads</text><!--class Adgangspr?veResultat--><g id="elem_Adgangspr&#248;veResultat"><rect codeLine="2305" fill="#F1F1F1" height="88.8906" id="Adgangspr&#248;veResultat" rx="2.5" ry="2.5" style="stroke:#181818;stroke-width:0.5;" width="260.0625" x="7" y="44.2969"/><ellipse cx="53.2588" cy="60.2969" fill="#ADD1B2" rx="11" ry="11" style="stroke:#181818;stroke-width:1.0;"/><path d="M56.2275,65.9375 Q55.6494,66.2344 55.0088,66.375 Q54.3682,66.5313 53.665,66.5313 Q51.165,66.5313 49.8369,64.8906 Q48.5244,63.2344 48.5244,60.1094 Q48.5244,56.9844 49.8369,55.3281 Q51.165,53.6719 53.665,53.6719 Q54.3682,53.6719 55.0088,53.8281 Q55.665,53.9844 56.2275,54.2813 L56.2275,57 Q55.6025,56.4219 55.0088,56.1563 Q54.415,55.875 53.79,55.875 Q52.4463,55.875 51.7588,56.9531 Q51.0713,58.0156 51.0713,60.1094 Q51.0713,62.2031 51.7588,63.2813 Q52.4463,64.3438 53.79,64.3438 Q54.415,64.3438 55.0088,64.0781 Q55.6025,63.7969 56.2275,63.2188 L56.2275,65.9375 Z " fill="#000000"/><text fill="#000000" font-family="sans-serif" font-size="14" lengthAdjust="spacing" textLength="159.0449" x="73.7588" y="65.1436">Adgangspr&#248;veResultat</text><line style="stroke:#181818;stroke-width:0.5;" x1="8" x2="266.0625" y1="76.2969" y2="76.2969"/><text fill="#000000" font-family="sans-serif" font-size="14" lengthAdjust="spacing" textLength="69.5625" x="13" y="93.292">best&#229;et: ?</text><a href="1..1" target="_top" title="1..1" xlink:actuate="onRequest" xlink:href="1..1" xlink:show="new" xlink:title="1..1" xlink:type="simple"><text fill="#0000FF" font-family="sans-serif" font-size="14" lengthAdjust="spacing" text-decoration="underline" textLength="26.7148" x="87.0127" y="93.292">1..1</text></a><text fill="#000000" font-family="sans-serif" font-size="14" lengthAdjust="spacing" textLength="35.916" x="13" y="109.5889">&#171;BK&#187;</text><text fill="#000000" font-family="sans-serif" font-size="14" lengthAdjust="spacing" textLength="216.8975" x="13" y="125.8857">/ans&#248;gningsnummer: IgnoreBK</text><a href="1..1" target="_top" title="1..1" xlink:actuate="onRequest" xlink:href="1..1" xlink:show="new" xlink:title="1..1" xlink:type="simple"><text fill="#0000FF" font-family="sans-serif" font-size="14" lengthAdjust="spacing" text-decoration="underline" textLength="26.7148" x="234.3477" y="125.8857">1..1</text></a></g><!--class TilbudOmStudiepladsP?Uddannelse--><g id="elem_TilbudOmStudiepladsP&#229;Uddannelse"><rect codeLine="2311" fill="#F1F1F1" height="105.1875" id="TilbudOmStudiepladsP&#229;Uddannelse" rx="2.5" ry="2.5" style="stroke:#181818;stroke-width:0.5;" width="281.5869" x="365" y="217.7969"/><ellipse cx="380" cy="233.7969" fill="#ADD1B2" rx="11" ry="11" style="stroke:#181818;stroke-width:1.0;"/><path d="M382.9688,239.4375 Q382.3906,239.7344 381.75,239.875 Q381.1094,240.0313 380.4063,240.0313 Q377.9063,240.0313 376.5781,238.3906 Q375.2656,236.7344 375.2656,233.6094 Q375.2656,230.4844 376.5781,228.8281 Q377.9063,227.1719 380.4063,227.1719 Q381.1094,227.1719 381.75,227.3281 Q382.4063,227.4844 382.9688,227.7813 L382.9688,230.5 Q382.3438,229.9219 381.75,229.6563 Q381.1563,229.375 380.5313,229.375 Q379.1875,229.375 378.5,230.4531 Q377.8125,231.5156 377.8125,233.6094 Q377.8125,235.7031 378.5,236.7813 Q379.1875,237.8438 380.5313,237.8438 Q381.1563,237.8438 381.75,237.5781 Q382.3438,237.2969 382.9688,236.7188 L382.9688,239.4375 Z " fill="#000000"/><text fill="#000000" font-family="sans-serif" font-size="14" lengthAdjust="spacing" textLength="249.5869" x="394" y="238.6436">TilbudOmStudiepladsP&#229;Uddannelse</text><line style="stroke:#181818;stroke-width:0.5;" x1="366" x2="645.5869" y1="249.7969" y2="249.7969"/><text fill="#000000" font-family="sans-serif" font-size="14" lengthAdjust="spacing" textLength="99.9004" x="371" y="266.792">svarfrist: Date</text><a href="1..1" target="_top" title="1..1" xlink:actuate="onRequest" xlink:href="1..1" xlink:show="new" xlink:title="1..1" xlink:type="simple"><text fill="#0000FF" font-family="sans-serif" font-size="14" lengthAdjust="spacing" text-decoration="underline" textLength="26.7148" x="475.3506" y="266.792">1..1</text></a><text fill="#000000" font-family="sans-serif" font-size="14" lengthAdjust="spacing" textLength="148.0938" x="371" y="283.0889">tilbudsstatus: Picklist</text><a href="1..1" target="_top" title="1..1" xlink:actuate="onRequest" xlink:href="1..1" xlink:show="new" xlink:title="1..1" xlink:type="simple"><text fill="#0000FF" font-family="sans-serif" font-size="14" lengthAdjust="spacing" text-decoration="underline" textLength="26.7148" x="523.5439" y="283.0889">1..1</text></a><text fill="#000000" font-family="sans-serif" font-size="14" lengthAdjust="spacing" textLength="35.916" x="371" y="299.3857">&#171;BK&#187;</text><text fill="#000000" font-family="sans-serif" font-size="14" lengthAdjust="spacing" textLength="216.8975" x="371" y="315.6826">/ans&#248;gningsnummer: IgnoreBK</text><a href="1..1" target="_top" title="1..1" xlink:actuate="onRequest" xlink:href="1..1" xlink:show="new" xlink:title="1..1" xlink:type="simple"><text fill="#0000FF" font-family="sans-serif" font-size="14" lengthAdjust="spacing" text-decoration="underline" textLength="26.7148" x="592.3477" y="315.6826">1..1</text></a></g><!--class TilbudOmStudiepladsP?Enkeltfag--><g id="elem_TilbudOmStudiepladsP&#229;Enkeltfag"><rect codeLine="2318" fill="#F1F1F1" height="154.0781" id="TilbudOmStudiepladsP&#229;Enkeltfag" rx="2.5" ry="2.5" style="stroke:#181818;stroke-width:0.5;" width="265.0439" x="735.5" y="193.2969"/><ellipse cx="750.5" cy="209.2969" fill="#ADD1B2" rx="11" ry="11" style="stroke:#181818;stroke-width:1.0;"/><path d="M753.4688,214.9375 Q752.8906,215.2344 752.25,215.375 Q751.6094,215.5313 750.9063,215.5313 Q748.4063,215.5313 747.0781,213.8906 Q745.7656,212.2344 745.7656,209.1094 Q745.7656,205.9844 747.0781,204.3281 Q748.4063,202.6719 750.9063,202.6719 Q751.6094,202.6719 752.25,202.8281 Q752.9063,202.9844 753.4688,203.2813 L753.4688,206 Q752.8438,205.4219 752.25,205.1563 Q751.6563,204.875 751.0313,204.875 Q749.6875,204.875 749,205.9531 Q748.3125,207.0156 748.3125,209.1094 Q748.3125,211.2031 749,212.2813 Q749.6875,213.3438 751.0313,213.3438 Q751.6563,213.3438 752.25,213.0781 Q752.8438,212.7969 753.4688,212.2188 L753.4688,214.9375 Z " fill="#000000"/><text fill="#000000" font-family="sans-serif" font-size="14" lengthAdjust="spacing" textLength="233.0439" x="764.5" y="214.1436">TilbudOmStudiepladsP&#229;Enkeltfag</text><line style="stroke:#181818;stroke-width:0.5;" x1="736.5" x2="999.5439" y1="225.2969" y2="225.2969"/><text fill="#000000" font-family="sans-serif" font-size="14" lengthAdjust="spacing" textLength="99.9004" x="741.5" y="242.292">svarfrist: Date</text><a href="1..1" target="_top" title="1..1" xlink:actuate="onRequest" xlink:href="1..1" xlink:show="new" xlink:title="1..1" xlink:type="simple"><text fill="#0000FF" font-family="sans-serif" font-size="14" lengthAdjust="spacing" text-decoration="underline" textLength="26.7148" x="845.8506" y="242.292">1..1</text></a><text fill="#000000" font-family="sans-serif" font-size="14" lengthAdjust="spacing" textLength="148.0938" x="741.5" y="258.5889">tilbudsstatus: Picklist</text><a href="1..1" target="_top" title="1..1" xlink:actuate="onRequest" xlink:href="1..1" xlink:show="new" xlink:title="1..1" xlink:type="simple"><text fill="#0000FF" font-family="sans-serif" font-size="14" lengthAdjust="spacing" text-decoration="underline" textLength="26.7148" x="894.0439" y="258.5889">1..1</text></a><text fill="#000000" font-family="sans-serif" font-size="14" lengthAdjust="spacing" textLength="35.916" x="741.5" y="274.8857">&#171;BK&#187;</text><text fill="#000000" font-family="sans-serif" font-size="14" lengthAdjust="spacing" textLength="216.8975" x="741.5" y="291.1826">/ans&#248;gningsnummer: IgnoreBK</text><a href="1..1" target="_top" title="1..1" xlink:actuate="onRequest" xlink:href="1..1" xlink:show="new" xlink:title="1..1" xlink:type="simple"><text fill="#0000FF" font-family="sans-serif" font-size="14" lengthAdjust="spacing" text-decoration="underline" textLength="26.7148" x="962.8477" y="291.1826">1..1</text></a><text fill="#000000" font-family="sans-serif" font-size="14" lengthAdjust="spacing" textLength="184.9395" x="741.5" y="307.4795">/enkeltfagskode: IgnoreBK</text><a href="1..1" target="_top" title="1..1" xlink:actuate="onRequest" xlink:href="1..1" xlink:show="new" xlink:title="1..1" xlink:type="simple"><text fill="#0000FF" font-family="sans-serif" font-size="14" lengthAdjust="spacing" text-decoration="underline" textLength="26.7148" x="930.8896" y="307.4795">1..1</text></a><text fill="#000000" font-family="sans-serif" font-size="14" lengthAdjust="spacing" textLength="216.5762" x="741.5" y="323.7764">/udbudsperiodekode: IgnoreBK</text><a href="1..1" target="_top" title="1..1" xlink:actuate="onRequest" xlink:href="1..1" xlink:show="new" xlink:title="1..1" xlink:type="simple"><text fill="#0000FF" font-family="sans-serif" font-size="14" lengthAdjust="spacing" text-decoration="underline" textLength="26.7148" x="962.5264" y="323.7764">1..1</text></a><text fill="#000000" font-family="sans-serif" font-size="14" lengthAdjust="spacing" textLength="193.6484" x="741.5" y="340.0732">/udbudsstedkode: IgnoreBK</text><a href="1..1" target="_top" title="1..1" xlink:actuate="onRequest" xlink:href="1..1" xlink:show="new" xlink:title="1..1" xlink:type="simple"><text fill="#0000FF" font-family="sans-serif" font-size="14" lengthAdjust="spacing" text-decoration="underline" textLength="26.7148" x="939.5986" y="340.0732">1..1</text></a></g><!--class TilbudsstatusEnum--><g id="elem_TilbudsstatusEnum"><rect codeLine="2328" fill="#90EE90" height="113.4531" id="TilbudsstatusEnum" rx="2.5" ry="2.5" style="stroke:#181818;stroke-width:0.5;" width="165.5195" x="1036" y="213.7969"/><ellipse cx="1051" cy="233.9297" fill="#EB937F" rx="11" ry="11" style="stroke:#181818;stroke-width:1.0;"/><path d="M1055.1094,239.9297 L1047.3906,239.9297 L1047.3906,227.5391 L1055.1094,227.5391 L1055.1094,229.6953 L1049.8438,229.6953 L1049.8438,232.3672 L1054.6094,232.3672 L1054.6094,234.5234 L1049.8438,234.5234 L1049.8438,237.7734 L1055.1094,237.7734 L1055.1094,239.9297 Z " fill="#000000"/><text fill="#000000" font-family="sans-serif" font-size="12" font-style="italic" lengthAdjust="spacing" textLength="49.0957" x="1107.2119" y="229.9355">&#171;enum&#187;</text><text fill="#000000" font-family="sans-serif" font-size="14" lengthAdjust="spacing" textLength="133.5195" x="1065" y="245.7607">TilbudsstatusEnum</text><line style="stroke:#181818;stroke-width:0.5;" x1="1037" x2="1200.5195" y1="254.0625" y2="254.0625"/><text fill="#000000" font-family="sans-serif" font-size="14" lengthAdjust="spacing" textLength="90.6445" x="1042" y="271.0576">afventerSvar</text><text fill="#000000" font-family="sans-serif" font-size="14" lengthAdjust="spacing" textLength="47.373" x="1042" y="287.3545">afsl&#229;et</text><text fill="#000000" font-family="sans-serif" font-size="14" lengthAdjust="spacing" textLength="75.4346" x="1042" y="303.6514">accepteret</text><text fill="#000000" font-family="sans-serif" font-size="14" lengthAdjust="spacing" textLength="130.1768" x="1042" y="319.9482">fortrudtAccepteret</text></g><!--class Uddannelsesans?gning--><g id="elem_Uddannelsesans&#248;gning"><rect fill="#F1F1F1" height="32" id="Uddannelsesans&#248;gning" rx="2.5" ry="2.5" style="stroke:#181818;stroke-width:0.5;" width="194.7705" x="302.5" y="72.7969"/><ellipse cx="317.5" cy="88.7969" fill="#ADD1B2" rx="11" ry="11" style="stroke:#181818;stroke-width:1.0;"/><path d="M320.4688,94.4375 Q319.8906,94.7344 319.25,94.875 Q318.6094,95.0313 317.9063,95.0313 Q315.4063,95.0313 314.0781,93.3906 Q312.7656,91.7344 312.7656,88.6094 Q312.7656,85.4844 314.0781,83.8281 Q315.4063,82.1719 317.9063,82.1719 Q318.6094,82.1719 319.25,82.3281 Q319.9063,82.4844 320.4688,82.7813 L320.4688,85.5 Q319.8438,84.9219 319.25,84.6563 Q318.6563,84.375 318.0313,84.375 Q316.6875,84.375 316,85.4531 Q315.3125,86.5156 315.3125,88.6094 Q315.3125,90.7031 316,91.7813 Q316.6875,92.8438 318.0313,92.8438 Q318.6563,92.8438 319.25,92.5781 Q319.8438,92.2969 320.4688,91.7188 L320.4688,94.4375 Z " fill="#000000"/><text fill="#000000" font-family="sans-serif" font-size="14" lengthAdjust="spacing" textLength="162.7705" x="331.5" y="93.6436">Uddannelsesans&#248;gning</text></g><!--class IndskrivningTilVidereg?endeUddannelse--><g id="elem_IndskrivningTilVidereg&#229;endeUddannelse"><rect fill="#F1F1F1" height="32" id="IndskrivningTilVidereg&#229;endeUddannelse" rx="2.5" ry="2.5" style="stroke:#181818;stroke-width:0.5;" width="314.6182" x="164.5" y="407.2969"/><ellipse cx="179.5" cy="423.2969" fill="#ADD1B2" rx="11" ry="11" style="stroke:#181818;stroke-width:1.0;"/><path d="M182.4688,428.9375 Q181.8906,429.2344 181.25,429.375 Q180.6094,429.5313 179.9063,429.5313 Q177.4063,429.5313 176.0781,427.8906 Q174.7656,426.2344 174.7656,423.1094 Q174.7656,419.9844 176.0781,418.3281 Q177.4063,416.6719 179.9063,416.6719 Q180.6094,416.6719 181.25,416.8281 Q181.9063,416.9844 182.4688,417.2813 L182.4688,420 Q181.8438,419.4219 181.25,419.1563 Q180.6563,418.875 180.0313,418.875 Q178.6875,418.875 178,419.9531 Q177.3125,421.0156 177.3125,423.1094 Q177.3125,425.2031 178,426.2813 Q178.6875,427.3438 180.0313,427.3438 Q180.6563,427.3438 181.25,427.0781 Q181.8438,426.7969 182.4688,426.2188 L182.4688,428.9375 Z " fill="#000000"/><text fill="#000000" font-family="sans-serif" font-size="14" lengthAdjust="spacing" textLength="282.6182" x="193.5" y="428.1436">IndskrivningTilVidereg&#229;endeUddannelse</text></g><!--class UdbudtVidereg?endeUddannelse--><g id="elem_UdbudtVidereg&#229;endeUddannelse"><rect fill="#F1F1F1" height="32" id="UdbudtVidereg&#229;endeUddannelse" rx="2.5" ry="2.5" style="stroke:#181818;stroke-width:0.5;" width="263.8135" x="533" y="72.7969"/><ellipse cx="548" cy="88.7969" fill="#ADD1B2" rx="11" ry="11" style="stroke:#181818;stroke-width:1.0;"/><path d="M550.9688,94.4375 Q550.3906,94.7344 549.75,94.875 Q549.1094,95.0313 548.4063,95.0313 Q545.9063,95.0313 544.5781,93.3906 Q543.2656,91.7344 543.2656,88.6094 Q543.2656,85.4844 544.5781,83.8281 Q545.9063,82.1719 548.4063,82.1719 Q549.1094,82.1719 549.75,82.3281 Q550.4063,82.4844 550.9688,82.7813 L550.9688,85.5 Q550.3438,84.9219 549.75,84.6563 Q549.1563,84.375 548.5313,84.375 Q547.1875,84.375 546.5,85.4531 Q545.8125,86.5156 545.8125,88.6094 Q545.8125,90.7031 546.5,91.7813 Q547.1875,92.8438 548.5313,92.8438 Q549.1563,92.8438 549.75,92.5781 Q550.3438,92.2969 550.9688,91.7188 L550.9688,94.4375 Z " fill="#000000"/><text fill="#000000" font-family="sans-serif" font-size="14" lengthAdjust="spacing" textLength="231.8135" x="562" y="93.6436">UdbudtVidereg&#229;endeUddannelse</text></g><!--class Enkeltfagsans?gning--><g id="elem_Enkeltfagsans&#248;gning"><rect fill="#F1F1F1" height="32" id="Enkeltfagsans&#248;gning" rx="2.5" ry="2.5" style="stroke:#181818;stroke-width:0.5;" width="178.2275" x="832" y="72.7969"/><ellipse cx="847" cy="88.7969" fill="#ADD1B2" rx="11" ry="11" style="stroke:#181818;stroke-width:1.0;"/><path d="M849.9688,94.4375 Q849.3906,94.7344 848.75,94.875 Q848.1094,95.0313 847.4063,95.0313 Q844.9063,95.0313 843.5781,93.3906 Q842.2656,91.7344 842.2656,88.6094 Q842.2656,85.4844 843.5781,83.8281 Q844.9063,82.1719 847.4063,82.1719 Q848.1094,82.1719 848.75,82.3281 Q849.4063,82.4844 849.9688,82.7813 L849.9688,85.5 Q849.3438,84.9219 848.75,84.6563 Q848.1563,84.375 847.5313,84.375 Q846.1875,84.375 845.5,85.4531 Q844.8125,86.5156 844.8125,88.6094 Q844.8125,90.7031 845.5,91.7813 Q846.1875,92.8438 847.5313,92.8438 Q848.1563,92.8438 848.75,92.5781 Q849.3438,92.2969 849.9688,91.7188 L849.9688,94.4375 Z " fill="#000000"/><text fill="#000000" font-family="sans-serif" font-size="14" lengthAdjust="spacing" textLength="146.2275" x="861" y="93.6436">Enkeltfagsans&#248;gning</text></g><!--class UdbudtEnkeltfag--><g id="elem_UdbudtEnkeltfag"><rect fill="#F1F1F1" height="32" id="UdbudtEnkeltfag" rx="2.5" ry="2.5" style="stroke:#181818;stroke-width:0.5;" width="149.4824" x="730.5" y="407.2969"/><ellipse cx="745.5" cy="423.2969" fill="#ADD1B2" rx="11" ry="11" style="stroke:#181818;stroke-width:1.0;"/><path d="M748.4688,428.9375 Q747.8906,429.2344 747.25,429.375 Q746.6094,429.5313 745.9063,429.5313 Q743.4063,429.5313 742.0781,427.8906 Q740.7656,426.2344 740.7656,423.1094 Q740.7656,419.9844 742.0781,418.3281 Q743.4063,416.6719 745.9063,416.6719 Q746.6094,416.6719 747.25,416.8281 Q747.9063,416.9844 748.4688,417.2813 L748.4688,420 Q747.8438,419.4219 747.25,419.1563 Q746.6563,418.875 746.0313,418.875 Q744.6875,418.875 744,419.9531 Q743.3125,421.0156 743.3125,423.1094 Q743.3125,425.2031 744,426.2813 Q744.6875,427.3438 746.0313,427.3438 Q746.6563,427.3438 747.25,427.0781 Q747.8438,426.7969 748.4688,426.2188 L748.4688,428.9375 Z " fill="#000000"/><text fill="#000000" font-family="sans-serif" font-size="14" lengthAdjust="spacing" textLength="117.4824" x="759.5" y="428.1436">UdbudtEnkeltfag</text></g><!--class IndskrivningTilEnkeltfag--><g id="elem_IndskrivningTilEnkeltfag"><rect fill="#F1F1F1" height="32" id="IndskrivningTilEnkeltfag" rx="2.5" ry="2.5" style="stroke:#181818;stroke-width:0.5;" width="200.2871" x="915" y="407.2969"/><ellipse cx="930" cy="423.2969" fill="#ADD1B2" rx="11" ry="11" style="stroke:#181818;stroke-width:1.0;"/><path d="M932.9688,428.9375 Q932.3906,429.2344 931.75,429.375 Q931.1094,429.5313 930.4063,429.5313 Q927.9063,429.5313 926.5781,427.8906 Q925.2656,426.2344 925.2656,423.1094 Q925.2656,419.9844 926.5781,418.3281 Q927.9063,416.6719 930.4063,416.6719 Q931.1094,416.6719 931.75,416.8281 Q932.4063,416.9844 932.9688,417.2813 L932.9688,420 Q932.3438,419.4219 931.75,419.1563 Q931.1563,418.875 930.5313,418.875 Q929.1875,418.875 928.5,419.9531 Q927.8125,421.0156 927.8125,423.1094 Q927.8125,425.2031 928.5,426.2813 Q929.1875,427.3438 930.5313,427.3438 Q931.1563,427.3438 931.75,427.0781 Q932.3438,426.7969 932.9688,426.2188 L932.9688,428.9375 Z " fill="#000000"/><text fill="#000000" font-family="sans-serif" font-size="14" lengthAdjust="spacing" textLength="168.2871" x="944" y="428.1436">IndskrivningTilEnkeltfag</text></g><!--class Studiestart--><g id="elem_Studiestart"><rect fill="#F1F1F1" height="32" id="Studiestart" rx="2.5" ry="2.5" style="stroke:#181818;stroke-width:0.5;" width="109.2461" x="514.5" y="407.2969"/><ellipse cx="529.5" cy="423.2969" fill="#ADD1B2" rx="11" ry="11" style="stroke:#181818;stroke-width:1.0;"/><path d="M532.4688,428.9375 Q531.8906,429.2344 531.25,429.375 Q530.6094,429.5313 529.9063,429.5313 Q527.4063,429.5313 526.0781,427.8906 Q524.7656,426.2344 524.7656,423.1094 Q524.7656,419.9844 526.0781,418.3281 Q527.4063,416.6719 529.9063,416.6719 Q530.6094,416.6719 531.25,416.8281 Q531.9063,416.9844 532.4688,417.2813 L532.4688,420 Q531.8438,419.4219 531.25,419.1563 Q530.6563,418.875 530.0313,418.875 Q528.6875,418.875 528,419.9531 Q527.3125,421.0156 527.3125,423.1094 Q527.3125,425.2031 528,426.2813 Q528.6875,427.3438 530.0313,427.3438 Q530.6563,427.3438 531.25,427.0781 Q531.8438,426.7969 532.4688,426.2188 L532.4688,428.9375 Z " fill="#000000"/><text fill="#000000" font-family="sans-serif" font-size="14" lengthAdjust="spacing" textLength="77.2461" x="543.5" y="428.1436">Studiestart</text></g><!--link Uddannelsesans?gning to TilbudOmStudiepladsP?Uddannelse--><g id="link_Uddannelsesans&#248;gning_TilbudOmStudiepladsP&#229;Uddannelse"><path codeLine="2335" d="M453.33,104.9069 C453.33,129.9769 453.33,179.4369 453.33,217.7669 " fill="none" id="Uddannelsesans&#248;gning-TilbudOmStudiepladsP&#229;Uddannelse" style="stroke:#181818;stroke-width:1.0;"/><text fill="#000000" font-family="sans-serif" font-size="13" lengthAdjust="spacing" textLength="108.1387" x="344.33" y="157.4038">fremsendt tilbud</text><text fill="#000000" font-family="sans-serif" font-size="13" lengthAdjust="spacing" textLength="8.271" x="461.7535" y="124.8166">1</text><text fill="#000000" font-family="sans-serif" font-size="13" lengthAdjust="spacing" textLength="24.8066" x="420.7219" y="206.7636">0..1</text></g><!--link Adgangspr?veResultat to TilbudOmStudiepladsP?Uddannelse--><g id="link_Adgangspr&#248;veResultat_TilbudOmStudiepladsP&#229;Uddannelse"><path codeLine="2336" d="M267.1,119.2969 C337.08,119.2969 409.17,119.2969 409.17,119.2969 C409.17,119.2969 409.17,173.9369 409.17,217.4869 " fill="none" id="Adgangspr&#248;veResultat-TilbudOmStudiepladsP&#229;Uddannelse" style="stroke:#181818;stroke-width:1.0;"/><text fill="#000000" font-family="sans-serif" font-size="13" lengthAdjust="spacing" textLength="24.8066" x="269.7897" y="118.7307">0..1</text><text fill="#000000" font-family="sans-serif" font-size="13" lengthAdjust="spacing" textLength="8.271" x="388.295" y="206.823">1</text></g><!--link TilbudOmStudiepladsP?Uddannelse to IndskrivningTilVidereg?endeUddannelse--><g id="link_TilbudOmStudiepladsP&#229;Uddannelse_IndskrivningTilVidereg&#229;endeUddannelse"><path codeLine="2337" d="M422.25,322.9469 C422.25,352.5169 422.25,387.3569 422.25,407.2369 " fill="none" id="TilbudOmStudiepladsP&#229;Uddannelse-IndskrivningTilVidereg&#229;endeUddannelse" style="stroke:#181818;stroke-width:1.0;"/><text fill="#000000" font-family="sans-serif" font-size="13" lengthAdjust="spacing" textLength="107.8721" x="314.25" y="361.1538">accept medf&#248;rer</text><text fill="#000000" font-family="sans-serif" font-size="13" lengthAdjust="spacing" textLength="8.271" x="402.5046" y="343.0928">1</text><text fill="#000000" font-family="sans-serif" font-size="13" lengthAdjust="spacing" textLength="24.8066" x="428.7902" y="396.2278">0..1</text></g><!--link UdbudtVidereg?endeUddannelse to TilbudOmStudiepladsP?Uddannelse--><g id="link_UdbudtVidereg&#229;endeUddannelse_TilbudOmStudiepladsP&#229;Uddannelse"><path codeLine="2338" d="M590,104.9069 C590,129.9769 590,179.4369 590,217.7669 " fill="none" id="UdbudtVidereg&#229;endeUddannelse-TilbudOmStudiepladsP&#229;Uddannelse" style="stroke:#181818;stroke-width:1.0;"/><text fill="#000000" font-family="sans-serif" font-size="13" lengthAdjust="spacing" textLength="8.271" x="555.907" y="124.8166">1</text><text fill="#000000" font-family="sans-serif" font-size="13" lengthAdjust="spacing" textLength="23.0356" x="576.7723" y="206.7636">0..*</text></g><!--link Enkeltfagsans?gning to TilbudOmStudiepladsP?Enkeltfag--><g id="link_Enkeltfagsans&#248;gning_TilbudOmStudiepladsP&#229;Enkeltfag"><path codeLine="2339" d="M916.25,104.9069 C916.25,124.8569 916.25,160.2569 916.25,193.2069 " fill="none" id="Enkeltfagsans&#248;gning-TilbudOmStudiepladsP&#229;Enkeltfag" style="stroke:#181818;stroke-width:1.0;"/><text fill="#000000" font-family="sans-serif" font-size="13" lengthAdjust="spacing" textLength="108.1387" x="807.25" y="145.1238">fremsendt tilbud</text><text fill="#000000" font-family="sans-serif" font-size="13" lengthAdjust="spacing" textLength="8.271" x="905.3588" y="124.8166">1</text><text fill="#000000" font-family="sans-serif" font-size="13" lengthAdjust="spacing" textLength="24.8066" x="895.7414" y="182.2139">0..1</text></g><!--link TilbudOmStudiepladsP?Enkeltfag to UdbudtEnkeltfag--><g id="link_TilbudOmStudiepladsP&#229;Enkeltfag_UdbudtEnkeltfag"><path codeLine="2340" d="M807.5,347.6969 C807.5,370.2269 807.5,392.6569 807.5,407.1569 " fill="none" id="TilbudOmStudiepladsP&#229;Enkeltfag-UdbudtEnkeltfag" style="stroke:#181818;stroke-width:1.0;"/><text fill="#000000" font-family="sans-serif" font-size="13" lengthAdjust="spacing" textLength="23.0356" x="778.0871" y="367.3276">0..*</text><text fill="#000000" font-family="sans-serif" font-size="13" lengthAdjust="spacing" textLength="23.0356" x="781.3295" y="396.1203">1..*</text></g><!--link TilbudOmStudiepladsP?Enkeltfag to IndskrivningTilEnkeltfag--><g id="link_TilbudOmStudiepladsP&#229;Enkeltfag_IndskrivningTilEnkeltfag"><path codeLine="2341" d="M957.75,347.6969 C957.75,370.2269 957.75,392.6569 957.75,407.1569 " fill="none" id="TilbudOmStudiepladsP&#229;Enkeltfag-IndskrivningTilEnkeltfag" style="stroke:#181818;stroke-width:1.0;"/><text fill="#000000" font-family="sans-serif" font-size="13" lengthAdjust="spacing" textLength="107.8721" x="958.75" y="373.4938">accept medf&#248;rer</text><text fill="#000000" font-family="sans-serif" font-size="13" lengthAdjust="spacing" textLength="23.0356" x="941.7188" y="367.3276">0..*</text><text fill="#000000" font-family="sans-serif" font-size="13" lengthAdjust="spacing" textLength="24.8066" x="910.0346" y="396.1203">0..1</text></g><!--link TilbudOmStudiepladsP?Uddannelse to Studiestart--><g id="link_TilbudOmStudiepladsP&#229;Uddannelse_Studiestart"><path codeLine="2342" d="M569,322.9469 C569,352.5169 569,387.3569 569,407.2369 " fill="none" id="TilbudOmStudiepladsP&#229;Uddannelse-Studiestart" style="stroke:#181818;stroke-width:1.0;"/><text fill="#000000" font-family="sans-serif" font-size="13" lengthAdjust="spacing" textLength="23.0356" x="552.9505" y="343.0928">0..*</text><text fill="#000000" font-family="sans-serif" font-size="13" lengthAdjust="spacing" textLength="8.271" x="559.6293" y="396.2278">1</text></g><!--link TilbudOmStudiepladsP?Uddannelse to TilbudsstatusEnum--><g id="link_TilbudOmStudiepladsP&#229;Uddannelse_TilbudsstatusEnum"><path codeLine="2343" d="M635.25,322.8569 C635.25,349.9169 635.25,377.2969 635.25,377.2969 C635.25,377.2969 1075.5,377.2969 1075.5,377.2969 C1075.5,377.2969 1075.5,358.5969 1075.5,332.9269 " fill="none" id="TilbudOmStudiepladsP&#229;Uddannelse-to-TilbudsstatusEnum" style="stroke:#181818;stroke-width:1.0;stroke-dasharray:7.0,7.0;"/><polygon fill="#181818" points="1075.5,326.9269,1071.5,335.9269,1075.5,331.9269,1079.5,335.9269,1075.5,326.9269" style="stroke:#181818;stroke-width:1.0;"/></g><!--link TilbudOmStudiepladsP?Enkeltfag to TilbudsstatusEnum--><g id="link_TilbudOmStudiepladsP&#229;Enkeltfag_TilbudsstatusEnum"><path codeLine="2344" d="M1000.85,270.2969 C1012.73,270.2969 1018.52,270.2969 1029.79,270.2969 " fill="none" id="TilbudOmStudiepladsP&#229;Enkeltfag-to-TilbudsstatusEnum" style="stroke:#181818;stroke-width:1.0;stroke-dasharray:7.0,7.0;"/><polygon fill="#181818" points="1035.79,270.2969,1026.79,266.2969,1030.79,270.2969,1026.79,274.2969,1035.79,270.2969" style="stroke:#181818;stroke-width:1.0;"/></g><!--SRC=[VSun3i8m343HFQTmnOu4SzK1hj0zIXkhjMexKHmF5UBkC3BnrxVycJeZtECjtkDCl7YEHQ9rpuILKxQmKqP0gVq4GLcmMR23jAQM19WK-raHIkjx-O6Lancy0dnxfFNOMd7DpyAbZIEgopJ1XMdR-zOGDRn364XNzepc2qWYlLON7lwiVG00]--></g></svg>