<svg xmlns="http://www.w3.org/2000/svg" xmlns:xlink="http://www.w3.org/1999/xlink" contentStyleType="text/css" height="371px" preserveAspectRatio="none" style="width:1559px;height:371px;background:#FFFFFF;" version="1.1" viewBox="0 0 1559 371" width="1559px" zoomAndPan="magnify"><defs/><g><text fill="#000000" font-family="sans-serif" font-size="14" font-weight="bold" lengthAdjust="spacing" textLength="142.6387" x="701.2461" y="22.9951">2_1_5_Udmeldelse</text><!--class Udmeldelse--><g id="elem_Udmeldelse"><rect codeLine="1455" fill="#F1F1F1" height="32" id="Udmeldelse" rx="2.5" ry="2.5" style="stroke:#181818;stroke-width:0.5;" width="114.5713" x="674.5" y="332.2969"/><ellipse cx="689.5" cy="348.2969" fill="#A9DCDF" rx="11" ry="11" style="stroke:#181818;stroke-width:1.0;"/><path d="M689.6094,343.6406 L688.4531,348.7188 L690.7813,348.7188 L689.6094,343.6406 Z M688.125,341.4063 L691.1094,341.4063 L694.4688,353.7969 L692.0156,353.7969 L691.25,350.7344 L687.9688,350.7344 L687.2188,353.7969 L684.7813,353.7969 L688.125,341.4063 Z " fill="#000000"/><text fill="#000000" font-family="sans-serif" font-size="14" font-style="italic" lengthAdjust="spacing" textLength="82.5713" x="703.5" y="353.1436">Udmeldelse</text></g><!--class Selvudmeldelse--><g id="elem_Selvudmeldelse"><rect codeLine="1458" fill="#F1F1F1" height="56.2969" id="Selvudmeldelse" rx="2.5" ry="2.5" style="stroke:#181818;stroke-width:0.5;" width="228.6172" x="617.5" y="130.2969"/><ellipse cx="672.1226" cy="146.2969" fill="#ADD1B2" rx="11" ry="11" style="stroke:#181818;stroke-width:1.0;"/><path d="M675.0913,151.9375 Q674.5132,152.2344 673.8726,152.375 Q673.2319,152.5313 672.5288,152.5313 Q670.0288,152.5313 668.7007,150.8906 Q667.3882,149.2344 667.3882,146.1094 Q667.3882,142.9844 668.7007,141.3281 Q670.0288,139.6719 672.5288,139.6719 Q673.2319,139.6719 673.8726,139.8281 Q674.5288,139.9844 675.0913,140.2813 L675.0913,143 Q674.4663,142.4219 673.8726,142.1563 Q673.2788,141.875 672.6538,141.875 Q671.3101,141.875 670.6226,142.9531 Q669.9351,144.0156 669.9351,146.1094 Q669.9351,148.2031 670.6226,149.2813 Q671.3101,150.3438 672.6538,150.3438 Q673.2788,150.3438 673.8726,150.0781 Q674.4663,149.7969 675.0913,149.2188 L675.0913,151.9375 Z " fill="#000000"/><text fill="#000000" font-family="sans-serif" font-size="14" lengthAdjust="spacing" textLength="110.8721" x="692.6226" y="151.1436">Selvudmeldelse</text><line style="stroke:#181818;stroke-width:0.5;" x1="618.5" x2="845.1172" y1="162.2969" y2="162.2969"/><text fill="#000000" font-family="sans-serif" font-size="14" lengthAdjust="spacing" textLength="185.4521" x="623.5" y="179.292">udmeldelses&#229;rsag: Picklist</text><a href="1..1" target="_top" title="1..1" xlink:actuate="onRequest" xlink:href="1..1" xlink:show="new" xlink:title="1..1" xlink:type="simple"><text fill="#0000FF" font-family="sans-serif" font-size="14" lengthAdjust="spacing" text-decoration="underline" textLength="26.7148" x="813.4023" y="179.292">1..1</text></a></g><!--class Gennemf?rtUdbudtVidereg?endeUddannelseOgEnkeltfag--><g id="elem_Gennemf&#248;rtUdbudtVidereg&#229;endeUddannelseOgEnkeltfag"><rect codeLine="1462" fill="#F1F1F1" height="56.2969" id="Gennemf&#248;rtUdbudtVidereg&#229;endeUddannelseOgEnkeltfag" rx="2.5" ry="2.5" style="stroke:#181818;stroke-width:0.5;" width="434.1309" x="1118" y="130.2969"/><ellipse cx="1133" cy="146.2969" fill="#ADD1B2" rx="11" ry="11" style="stroke:#181818;stroke-width:1.0;"/><path d="M1135.9688,151.9375 Q1135.3906,152.2344 1134.75,152.375 Q1134.1094,152.5313 1133.4063,152.5313 Q1130.9063,152.5313 1129.5781,150.8906 Q1128.2656,149.2344 1128.2656,146.1094 Q1128.2656,142.9844 1129.5781,141.3281 Q1130.9063,139.6719 1133.4063,139.6719 Q1134.1094,139.6719 1134.75,139.8281 Q1135.4063,139.9844 1135.9688,140.2813 L1135.9688,143 Q1135.3438,142.4219 1134.75,142.1563 Q1134.1563,141.875 1133.5313,141.875 Q1132.1875,141.875 1131.5,142.9531 Q1130.8125,144.0156 1130.8125,146.1094 Q1130.8125,148.2031 1131.5,149.2813 Q1132.1875,150.3438 1133.5313,150.3438 Q1134.1563,150.3438 1134.75,150.0781 Q1135.3438,149.7969 1135.9688,149.2188 L1135.9688,151.9375 Z " fill="#000000"/><text fill="#000000" font-family="sans-serif" font-size="14" lengthAdjust="spacing" textLength="402.1309" x="1147" y="151.1436">Gennemf&#248;rtUdbudtVidereg&#229;endeUddannelseOgEnkeltfag</text><line style="stroke:#181818;stroke-width:0.5;" x1="1119" x2="1551.1309" y1="162.2969" y2="162.2969"/><text fill="#000000" font-family="sans-serif" font-size="14" lengthAdjust="spacing" textLength="210.2598" x="1124" y="179.292">/gennemf&#248;rselstid: Calculated</text><a href="1..1" target="_top" title="1..1" xlink:actuate="onRequest" xlink:href="1..1" xlink:show="new" xlink:title="1..1" xlink:type="simple"><text fill="#0000FF" font-family="sans-serif" font-size="14" lengthAdjust="spacing" text-decoration="underline" textLength="26.7148" x="1338.71" y="179.292">1..1</text></a></g><!--class AfbrudtIndskrivning--><g id="elem_AfbrudtIndskrivning"><rect codeLine="1466" fill="#F1F1F1" height="72.5938" id="AfbrudtIndskrivning" rx="2.5" ry="2.5" style="stroke:#181818;stroke-width:0.5;" width="227.9746" x="7" y="121.7969"/><ellipse cx="48.0253" cy="137.7969" fill="#ADD1B2" rx="11" ry="11" style="stroke:#181818;stroke-width:1.0;"/><path d="M50.994,143.4375 Q50.4159,143.7344 49.7753,143.875 Q49.1347,144.0313 48.4315,144.0313 Q45.9315,144.0313 44.6034,142.3906 Q43.2909,140.7344 43.2909,137.6094 Q43.2909,134.4844 44.6034,132.8281 Q45.9315,131.1719 48.4315,131.1719 Q49.1347,131.1719 49.7753,131.3281 Q50.4315,131.4844 50.994,131.7813 L50.994,134.5 Q50.369,133.9219 49.7753,133.6563 Q49.1815,133.375 48.5565,133.375 Q47.2128,133.375 46.5253,134.4531 Q45.8378,135.5156 45.8378,137.6094 Q45.8378,139.7031 46.5253,140.7813 Q47.2128,141.8438 48.5565,141.8438 Q49.1815,141.8438 49.7753,141.5781 Q50.369,141.2969 50.994,140.7188 L50.994,143.4375 Z " fill="#000000"/><text fill="#000000" font-family="sans-serif" font-size="14" lengthAdjust="spacing" textLength="138.1406" x="67.8087" y="142.6436">AfbrudtIndskrivning</text><line style="stroke:#181818;stroke-width:0.5;" x1="8" x2="233.9746" y1="153.7969" y2="153.7969"/><text fill="#000000" font-family="sans-serif" font-size="14" lengthAdjust="spacing" textLength="177.9873" x="13" y="170.792">afbrydelses&#229;rsag: Picklist</text><a href="1..1" target="_top" title="1..1" xlink:actuate="onRequest" xlink:href="1..1" xlink:show="new" xlink:title="1..1" xlink:type="simple"><text fill="#0000FF" font-family="sans-serif" font-size="14" lengthAdjust="spacing" text-decoration="underline" textLength="26.7148" x="195.4375" y="170.792">1..1</text></a><text fill="#000000" font-family="sans-serif" font-size="14" lengthAdjust="spacing" textLength="184.8096" x="13" y="187.0889">afbrydelsesbegrundelse: ?</text><a href="1..1" target="_top" title="1..1" xlink:actuate="onRequest" xlink:href="1..1" xlink:show="new" xlink:title="1..1" xlink:type="simple"><text fill="#0000FF" font-family="sans-serif" font-size="14" lengthAdjust="spacing" text-decoration="underline" textLength="26.7148" x="202.2598" y="187.0889">1..1</text></a></g><!--class Afbrydelses?rsagEnum--><g id="elem_Afbrydelses&#229;rsagEnum"><rect codeLine="1471" fill="#90EE90" height="227.5313" id="Afbrydelses&#229;rsagEnum" rx="2.5" ry="2.5" style="stroke:#181818;stroke-width:0.5;" width="312.0156" x="270" y="44.2969"/><ellipse cx="341.0835" cy="64.4297" fill="#EB937F" rx="11" ry="11" style="stroke:#181818;stroke-width:1.0;"/><path d="M345.1929,70.4297 L337.4741,70.4297 L337.4741,58.0391 L345.1929,58.0391 L345.1929,60.1953 L339.9272,60.1953 L339.9272,62.8672 L344.6929,62.8672 L344.6929,65.0234 L339.9272,65.0234 L339.9272,68.2734 L345.1929,68.2734 L345.1929,70.4297 Z " fill="#000000"/><text fill="#000000" font-family="sans-serif" font-size="12" font-style="italic" lengthAdjust="spacing" textLength="49.0957" x="417.71" y="60.4355">&#171;enum&#187;</text><text fill="#000000" font-family="sans-serif" font-size="14" lengthAdjust="spacing" textLength="161.3486" x="361.5835" y="76.2607">Afbrydelses&#229;rsagEnum</text><line style="stroke:#181818;stroke-width:0.5;" x1="271" x2="581.0156" y1="84.5625" y2="84.5625"/><text fill="#000000" font-family="sans-serif" font-size="14" lengthAdjust="spacing" textLength="26.3389" x="276" y="101.5576">d&#248;d</text><text fill="#000000" font-family="sans-serif" font-size="14" lengthAdjust="spacing" textLength="130.9766" x="276" y="117.8545">permanentbortvist</text><text fill="#000000" font-family="sans-serif" font-size="14" lengthAdjust="spacing" textLength="244.4053" x="276" y="134.1514">studieaktivitetskravF&#248;rste&#229;rspr&#248;ve</text><text fill="#000000" font-family="sans-serif" font-size="14" lengthAdjust="spacing" textLength="139.4463" x="276" y="150.4482">opbrugtpr&#248;vefors&#248;g</text><text fill="#000000" font-family="sans-serif" font-size="14" lengthAdjust="spacing" textLength="153.3916" x="276" y="166.7451">betingelseIkkeOpfyldt</text><text fill="#000000" font-family="sans-serif" font-size="14" lengthAdjust="spacing" textLength="70.3828" x="276" y="183.042">ikkeBetalt</text><text fill="#000000" font-family="sans-serif" font-size="14" lengthAdjust="spacing" textLength="266.2666" x="276" y="199.3389">studieaktivitetskravMaksimalstudietid</text><text fill="#000000" font-family="sans-serif" font-size="14" lengthAdjust="spacing" textLength="263.5459" x="276" y="215.6357">studieaktivitetskravStudiestartspr&#248;ve</text><text fill="#000000" font-family="sans-serif" font-size="14" lengthAdjust="spacing" textLength="300.0156" x="276" y="231.9326">studieaktivitetskravL&#248;bendestudieaktivitet</text><text fill="#000000" font-family="sans-serif" font-size="14" lengthAdjust="spacing" textLength="83.6445" x="276" y="248.2295">ikkeM&#248;dtOp</text><text fill="#000000" font-family="sans-serif" font-size="14" lengthAdjust="spacing" textLength="72.7549" x="276" y="264.5264">studieskift</text></g><!--class Udmeldelses?rsagEnum--><g id="elem_Udmeldelses&#229;rsagEnum"><rect codeLine="1485" fill="#90EE90" height="64.5625" id="Udmeldelses&#229;rsagEnum" rx="2.5" ry="2.5" style="stroke:#181818;stroke-width:0.5;" width="201.1895" x="881.5" y="125.7969"/><ellipse cx="896.5" cy="145.9297" fill="#EB937F" rx="11" ry="11" style="stroke:#181818;stroke-width:1.0;"/><path d="M900.6094,151.9297 L892.8906,151.9297 L892.8906,139.5391 L900.6094,139.5391 L900.6094,141.6953 L895.3438,141.6953 L895.3438,144.3672 L900.1094,144.3672 L900.1094,146.5234 L895.3438,146.5234 L895.3438,149.7734 L900.6094,149.7734 L900.6094,151.9297 Z " fill="#000000"/><text fill="#000000" font-family="sans-serif" font-size="12" font-style="italic" lengthAdjust="spacing" textLength="49.0957" x="970.5469" y="141.9355">&#171;enum&#187;</text><text fill="#000000" font-family="sans-serif" font-size="14" lengthAdjust="spacing" textLength="169.1895" x="910.5" y="157.7607">Udmeldelses&#229;rsagEnum</text><line style="stroke:#181818;stroke-width:0.5;" x1="882.5" x2="1081.6895" y1="166.0625" y2="166.0625"/><text fill="#000000" font-family="sans-serif" font-size="14" lengthAdjust="spacing" textLength="184.7344" x="887.5" y="183.0576">Lokalt defineret v&#230;rdiliste</text></g><!--link Selvudmeldelse to Udmeldelse--><g id="link_Selvudmeldelse_Udmeldelse"><path codeLine="1489" d="M732,186.3369 C732,226.6969 732,281.8669 732,314.1969 " fill="none" id="Selvudmeldelse-to-Udmeldelse" style="stroke:#181818;stroke-width:1.0;"/><polygon fill="none" points="732,332.1969,738,314.1969,726,314.1969,732,332.1969" style="stroke:#181818;stroke-width:1.0;"/></g><!--link Gennemf?rtUdbudtVidereg?endeUddannelseOgEnkeltfag to Udmeldelse--><g id="link_Gennemf&#248;rtUdbudtVidereg&#229;endeUddannelseOgEnkeltfag_Udmeldelse"><path codeLine="1490" d="M1335,186.3369 C1335,239.1869 1335,348.2969 1335,348.2969 C1335,348.2969 958.27,348.2969 807.55,348.2969 " fill="none" id="Gennemf&#248;rtUdbudtVidereg&#229;endeUddannelseOgEnkeltfag-to-Udmeldelse" style="stroke:#181818;stroke-width:1.0;"/><polygon fill="none" points="789.55,348.2969,807.55,354.2969,807.55,342.2969,789.55,348.2969" style="stroke:#181818;stroke-width:1.0;"/></g><!--link AfbrudtIndskrivning to Udmeldelse--><g id="link_AfbrudtIndskrivning_Udmeldelse"><path codeLine="1491" d="M121,194.9269 C121,250.1469 121,348.2969 121,348.2969 C121,348.2969 503.94,348.2969 656.24,348.2969 " fill="none" id="AfbrudtIndskrivning-to-Udmeldelse" style="stroke:#181818;stroke-width:1.0;"/><polygon fill="none" points="674.24,348.2969,656.24,342.2969,656.24,354.2969,674.24,348.2969" style="stroke:#181818;stroke-width:1.0;"/></g><!--link AfbrudtIndskrivning to Afbrydelses?rsagEnum--><g id="link_AfbrudtIndskrivning_Afbrydelses&#229;rsagEnum"><path codeLine="1492" d="M235,158.2969 C246.43,158.2969 252.15,158.2969 263.91,158.2969 " fill="none" id="AfbrudtIndskrivning-to-Afbrydelses&#229;rsagEnum" style="stroke:#181818;stroke-width:1.0;stroke-dasharray:7.0,7.0;"/><polygon fill="#181818" points="269.91,158.2969,260.91,154.2969,264.91,158.2969,260.91,162.2969,269.91,158.2969" style="stroke:#181818;stroke-width:1.0;"/></g><!--link Selvudmeldelse to Udmeldelses?rsagEnum--><g id="link_Selvudmeldelse_Udmeldelses&#229;rsagEnum"><path codeLine="1493" d="M846.76,158.2969 C858.31,158.2969 863.98,158.2969 875.37,158.2969 " fill="none" id="Selvudmeldelse-to-Udmeldelses&#229;rsagEnum" style="stroke:#181818;stroke-width:1.0;stroke-dasharray:7.0,7.0;"/><polygon fill="#181818" points="881.37,158.2969,872.37,154.2969,876.37,158.2969,872.37,162.2969,881.37,158.2969" style="stroke:#181818;stroke-width:1.0;"/></g><!--SRC=[NSwx2i9044RXVfzYWhsWO1TIw2je7JRPdsJ8pEoobo84trrByRHVSvvS1NGTB-DjV0M514Y1Mpc0eAdkfD09kRYoiIMVlPAmeUu957DTum_CuakXmz6tkv-t9STcuH4bvhw7DHq6EWalQrqoOExjNCSsImieRIBrREVKLBh_dmy0]--></g></svg>