<svg xmlns="http://www.w3.org/2000/svg" xmlns:xlink="http://www.w3.org/1999/xlink" contentStyleType="text/css" height="1035px" preserveAspectRatio="none" style="width:1529px;height:1035px;background:#FFFFFF;" version="1.1" viewBox="0 0 1529 1035" width="1529px" zoomAndPan="magnify"><defs/><g><text fill="#000000" font-family="sans-serif" font-size="14" font-weight="bold" lengthAdjust="spacing" textLength="244.583" x="635.6548" y="22.9951">2_1_1_1_Uddannelsesbaggrund</text><!--class Uddannelsesbaggrund--><g id="elem_Uddannelsesbaggrund"><rect codeLine="2217" fill="#F1F1F1" height="72.5938" id="Uddannelsesbaggrund" rx="2.5" ry="2.5" style="stroke:#181818;stroke-width:0.5;" width="189.6777" x="829" y="136.2969"/><ellipse cx="844" cy="152.2969" fill="#ADD1B2" rx="11" ry="11" style="stroke:#181818;stroke-width:1.0;"/><path d="M846.9688,157.9375 Q846.3906,158.2344 845.75,158.375 Q845.1094,158.5313 844.4063,158.5313 Q841.9063,158.5313 840.5781,156.8906 Q839.2656,155.2344 839.2656,152.1094 Q839.2656,148.9844 840.5781,147.3281 Q841.9063,145.6719 844.4063,145.6719 Q845.1094,145.6719 845.75,145.8281 Q846.4063,145.9844 846.9688,146.2813 L846.9688,149 Q846.3438,148.4219 845.75,148.1563 Q845.1563,147.875 844.5313,147.875 Q843.1875,147.875 842.5,148.9531 Q841.8125,150.0156 841.8125,152.1094 Q841.8125,154.2031 842.5,155.2813 Q843.1875,156.3438 844.5313,156.3438 Q845.1563,156.3438 845.75,156.0781 Q846.3438,155.7969 846.9688,155.2188 L846.9688,157.9375 Z " fill="#000000"/><text fill="#000000" font-family="sans-serif" font-size="14" lengthAdjust="spacing" textLength="157.6777" x="858" y="157.1436">Uddannelsesbaggrund</text><line style="stroke:#181818;stroke-width:0.5;" x1="830" x2="1017.6777" y1="168.2969" y2="168.2969"/><text fill="#000000" font-family="sans-serif" font-size="14" lengthAdjust="spacing" textLength="144.2793" x="835" y="185.292">godkendt: Checkbox</text><a href="1..1" target="_top" title="1..1" xlink:actuate="onRequest" xlink:href="1..1" xlink:show="new" xlink:title="1..1" xlink:type="simple"><text fill="#0000FF" font-family="sans-serif" font-size="14" lengthAdjust="spacing" text-decoration="underline" textLength="26.7148" x="983.7295" y="185.292">1..1</text></a><text fill="#000000" font-family="sans-serif" font-size="14" lengthAdjust="spacing" textLength="74.4775" x="835" y="201.5889">retskrav: ?</text><a href="1..1" target="_top" title="1..1" xlink:actuate="onRequest" xlink:href="1..1" xlink:show="new" xlink:title="1..1" xlink:type="simple"><text fill="#0000FF" font-family="sans-serif" font-size="14" lengthAdjust="spacing" text-decoration="underline" textLength="26.7148" x="913.9277" y="201.5889">1..1</text></a></g><!--class AdgangsgivendeEksamen--><g id="elem_AdgangsgivendeEksamen"><rect codeLine="2222" fill="#F1F1F1" height="512.6094" id="AdgangsgivendeEksamen" rx="2.5" ry="2.5" style="stroke:#181818;stroke-width:0.5;" width="344.0967" x="187" y="269.2969"/><ellipse cx="264.3076" cy="285.2969" fill="#ADD1B2" rx="11" ry="11" style="stroke:#181818;stroke-width:1.0;"/><path d="M267.2764,290.9375 Q266.6982,291.2344 266.0576,291.375 Q265.417,291.5313 264.7139,291.5313 Q262.2139,291.5313 260.8857,289.8906 Q259.5732,288.2344 259.5732,285.1094 Q259.5732,281.9844 260.8857,280.3281 Q262.2139,278.6719 264.7139,278.6719 Q265.417,278.6719 266.0576,278.8281 Q266.7139,278.9844 267.2764,279.2813 L267.2764,282 Q266.6514,281.4219 266.0576,281.1563 Q265.4639,280.875 264.8389,280.875 Q263.4951,280.875 262.8076,281.9531 Q262.1201,283.0156 262.1201,285.1094 Q262.1201,287.2031 262.8076,288.2813 Q263.4951,289.3438 264.8389,289.3438 Q265.4639,289.3438 266.0576,289.0781 Q266.6514,288.7969 267.2764,288.2188 L267.2764,290.9375 Z " fill="#000000"/><text fill="#000000" font-family="sans-serif" font-size="14" lengthAdjust="spacing" textLength="180.9814" x="284.8076" y="290.1436">AdgangsgivendeEksamen</text><line style="stroke:#181818;stroke-width:0.5;" x1="188" x2="530.0967" y1="301.2969" y2="301.2969"/><text fill="#000000" font-family="sans-serif" font-size="14" lengthAdjust="spacing" textLength="296.7959" x="193" y="318.292">adgangsgivendeEksamenDS-kode: Text80</text><a href="1..1" target="_top" title="1..1" xlink:actuate="onRequest" xlink:href="1..1" xlink:show="new" xlink:title="1..1" xlink:type="simple"><text fill="#0000FF" font-family="sans-serif" font-size="14" lengthAdjust="spacing" text-decoration="underline" textLength="26.7148" x="494.2461" y="318.292">1..1</text></a><text fill="#000000" font-family="sans-serif" font-size="14" lengthAdjust="spacing" textLength="274.1143" x="193" y="334.5889">adgangsgivendeEksamenNavn: Text80</text><a href="1..1" target="_top" title="1..1" xlink:actuate="onRequest" xlink:href="1..1" xlink:show="new" xlink:title="1..1" xlink:type="simple"><text fill="#0000FF" font-family="sans-serif" font-size="14" lengthAdjust="spacing" text-decoration="underline" textLength="26.7148" x="471.5645" y="334.5889">1..1</text></a><text fill="#000000" font-family="sans-serif" font-size="14" lengthAdjust="spacing" textLength="211.9141" x="193" y="350.8857">adgangsgivendeEksamen&#197;r: ?</text><a href="1..1" target="_top" title="1..1" xlink:actuate="onRequest" xlink:href="1..1" xlink:show="new" xlink:title="1..1" xlink:type="simple"><text fill="#0000FF" font-family="sans-serif" font-size="14" lengthAdjust="spacing" text-decoration="underline" textLength="26.7148" x="409.3643" y="350.8857">1..1</text></a><text fill="#000000" font-family="sans-serif" font-size="14" lengthAdjust="spacing" textLength="74.4775" x="193" y="367.1826">retskrav: ?</text><a href="1..1" target="_top" title="1..1" xlink:actuate="onRequest" xlink:href="1..1" xlink:show="new" xlink:title="1..1" xlink:type="simple"><text fill="#0000FF" font-family="sans-serif" font-size="14" lengthAdjust="spacing" text-decoration="underline" textLength="26.7148" x="271.9277" y="367.1826">1..1</text></a><text fill="#000000" font-family="sans-serif" font-size="14" lengthAdjust="spacing" textLength="133.8955" x="193" y="383.4795">adgangskvotient: ?</text><a href="1..1" target="_top" title="1..1" xlink:actuate="onRequest" xlink:href="1..1" xlink:show="new" xlink:title="1..1" xlink:type="simple"><text fill="#0000FF" font-family="sans-serif" font-size="14" lengthAdjust="spacing" text-decoration="underline" textLength="26.7148" x="331.3457" y="383.4795">1..1</text></a><text fill="#000000" font-family="sans-serif" font-size="14" lengthAdjust="spacing" textLength="188.6855" x="193" y="399.7764">bed&#248;mmelsesform: Picklist</text><a href="1..1" target="_top" title="1..1" xlink:actuate="onRequest" xlink:href="1..1" xlink:show="new" xlink:title="1..1" xlink:type="simple"><text fill="#0000FF" font-family="sans-serif" font-size="14" lengthAdjust="spacing" text-decoration="underline" textLength="26.7148" x="386.1357" y="399.7764">1..1</text></a><text fill="#000000" font-family="sans-serif" font-size="14" lengthAdjust="spacing" textLength="141.5928" x="193" y="416.0732">eksamensresultat: ?</text><a href="1..1" target="_top" title="1..1" xlink:actuate="onRequest" xlink:href="1..1" xlink:show="new" xlink:title="1..1" xlink:type="simple"><text fill="#0000FF" font-family="sans-serif" font-size="14" lengthAdjust="spacing" text-decoration="underline" textLength="26.7148" x="339.043" y="416.0732">1..1</text></a><text fill="#000000" font-family="sans-serif" font-size="14" lengthAdjust="spacing" textLength="118.8838" x="193" y="432.3701">eksamenstype: ?</text><a href="1..1" target="_top" title="1..1" xlink:actuate="onRequest" xlink:href="1..1" xlink:show="new" xlink:title="1..1" xlink:type="simple"><text fill="#0000FF" font-family="sans-serif" font-size="14" lengthAdjust="spacing" text-decoration="underline" textLength="26.7148" x="316.334" y="432.3701">1..1</text></a><text fill="#000000" font-family="sans-serif" font-size="14" lengthAdjust="spacing" textLength="300.9316" x="193" y="448.667">eksamenstypeTekstbeskrivelse: TekstLong</text><a href="1..1" target="_top" title="1..1" xlink:actuate="onRequest" xlink:href="1..1" xlink:show="new" xlink:title="1..1" xlink:type="simple"><text fill="#0000FF" font-family="sans-serif" font-size="14" lengthAdjust="spacing" text-decoration="underline" textLength="26.7148" x="498.3818" y="448.667">1..1</text></a><text fill="#000000" font-family="sans-serif" font-size="14" lengthAdjust="spacing" textLength="101.9443" x="193" y="464.9639">eksamens&#229;r: ?</text><a href="1..1" target="_top" title="1..1" xlink:actuate="onRequest" xlink:href="1..1" xlink:show="new" xlink:title="1..1" xlink:type="simple"><text fill="#0000FF" font-family="sans-serif" font-size="14" lengthAdjust="spacing" text-decoration="underline" textLength="26.7148" x="299.3945" y="464.9639">1..1</text></a><text fill="#000000" font-family="sans-serif" font-size="14" lengthAdjust="spacing" textLength="158.6279" x="193" y="481.2607">karaktergennemsnit: ?</text><a href="1..1" target="_top" title="1..1" xlink:actuate="onRequest" xlink:href="1..1" xlink:show="new" xlink:title="1..1" xlink:type="simple"><text fill="#0000FF" font-family="sans-serif" font-size="14" lengthAdjust="spacing" text-decoration="underline" textLength="26.7148" x="356.0781" y="481.2607">1..1</text></a><text fill="#000000" font-family="sans-serif" font-size="14" lengthAdjust="spacing" textLength="158.2998" x="193" y="497.5576">udmeldelsesperiode: ?</text><a href="1..1" target="_top" title="1..1" xlink:actuate="onRequest" xlink:href="1..1" xlink:show="new" xlink:title="1..1" xlink:type="simple"><text fill="#0000FF" font-family="sans-serif" font-size="14" lengthAdjust="spacing" text-decoration="underline" textLength="26.7148" x="355.75" y="497.5576">1..1</text></a><text fill="#000000" font-family="sans-serif" font-size="14" lengthAdjust="spacing" textLength="114.6797" x="193" y="513.8545">udstedelses&#229;r: ?</text><a href="1..1" target="_top" title="1..1" xlink:actuate="onRequest" xlink:href="1..1" xlink:show="new" xlink:title="1..1" xlink:type="simple"><text fill="#0000FF" font-family="sans-serif" font-size="14" lengthAdjust="spacing" text-decoration="underline" textLength="26.7148" x="312.1299" y="513.8545">1..1</text></a><text fill="#000000" font-family="sans-serif" font-size="14" lengthAdjust="spacing" textLength="180.2568" x="193" y="530.1514">&#229;rskaraktergennemsnit: ?</text><a href="1..1" target="_top" title="1..1" xlink:actuate="onRequest" xlink:href="1..1" xlink:show="new" xlink:title="1..1" xlink:type="simple"><text fill="#0000FF" font-family="sans-serif" font-size="14" lengthAdjust="spacing" text-decoration="underline" textLength="26.7148" x="377.707" y="530.1514">1..1</text></a><text fill="#000000" font-family="sans-serif" font-size="14" lengthAdjust="spacing" textLength="133.8955" x="193" y="546.4482">adgangskvotient: ?</text><a href="1..1" target="_top" title="1..1" xlink:actuate="onRequest" xlink:href="1..1" xlink:show="new" xlink:title="1..1" xlink:type="simple"><text fill="#0000FF" font-family="sans-serif" font-size="14" lengthAdjust="spacing" text-decoration="underline" textLength="26.7148" x="331.3457" y="546.4482">1..1</text></a><text fill="#000000" font-family="sans-serif" font-size="14" lengthAdjust="spacing" textLength="147.417" x="193" y="562.7451">bed&#248;mmelsesform: ?</text><a href="1..1" target="_top" title="1..1" xlink:actuate="onRequest" xlink:href="1..1" xlink:show="new" xlink:title="1..1" xlink:type="simple"><text fill="#0000FF" font-family="sans-serif" font-size="14" lengthAdjust="spacing" text-decoration="underline" textLength="26.7148" x="344.8672" y="562.7451">1..1</text></a><text fill="#000000" font-family="sans-serif" font-size="14" lengthAdjust="spacing" textLength="141.5928" x="193" y="579.042">eksamensresultat: ?</text><a href="1..1" target="_top" title="1..1" xlink:actuate="onRequest" xlink:href="1..1" xlink:show="new" xlink:title="1..1" xlink:type="simple"><text fill="#0000FF" font-family="sans-serif" font-size="14" lengthAdjust="spacing" text-decoration="underline" textLength="26.7148" x="339.043" y="579.042">1..1</text></a><text fill="#000000" font-family="sans-serif" font-size="14" lengthAdjust="spacing" textLength="118.8838" x="193" y="595.3389">eksamenstype: ?</text><a href="1..1" target="_top" title="1..1" xlink:actuate="onRequest" xlink:href="1..1" xlink:show="new" xlink:title="1..1" xlink:type="simple"><text fill="#0000FF" font-family="sans-serif" font-size="14" lengthAdjust="spacing" text-decoration="underline" textLength="26.7148" x="316.334" y="595.3389">1..1</text></a><text fill="#000000" font-family="sans-serif" font-size="14" lengthAdjust="spacing" textLength="300.9316" x="193" y="611.6357">eksamenstypeTekstbeskrivelse: TekstLong</text><a href="1..1" target="_top" title="1..1" xlink:actuate="onRequest" xlink:href="1..1" xlink:show="new" xlink:title="1..1" xlink:type="simple"><text fill="#0000FF" font-family="sans-serif" font-size="14" lengthAdjust="spacing" text-decoration="underline" textLength="26.7148" x="498.3818" y="611.6357">1..1</text></a><text fill="#000000" font-family="sans-serif" font-size="14" lengthAdjust="spacing" textLength="101.9443" x="193" y="627.9326">eksamens&#229;r: ?</text><a href="1..1" target="_top" title="1..1" xlink:actuate="onRequest" xlink:href="1..1" xlink:show="new" xlink:title="1..1" xlink:type="simple"><text fill="#0000FF" font-family="sans-serif" font-size="14" lengthAdjust="spacing" text-decoration="underline" textLength="26.7148" x="299.3945" y="627.9326">1..1</text></a><text fill="#000000" font-family="sans-serif" font-size="14" lengthAdjust="spacing" textLength="158.6279" x="193" y="644.2295">karaktergennemsnit: ?</text><a href="1..1" target="_top" title="1..1" xlink:actuate="onRequest" xlink:href="1..1" xlink:show="new" xlink:title="1..1" xlink:type="simple"><text fill="#0000FF" font-family="sans-serif" font-size="14" lengthAdjust="spacing" text-decoration="underline" textLength="26.7148" x="356.0781" y="644.2295">1..1</text></a><text fill="#000000" font-family="sans-serif" font-size="14" lengthAdjust="spacing" textLength="158.2998" x="193" y="660.5264">udmeldelsesperiode: ?</text><a href="1..1" target="_top" title="1..1" xlink:actuate="onRequest" xlink:href="1..1" xlink:show="new" xlink:title="1..1" xlink:type="simple"><text fill="#0000FF" font-family="sans-serif" font-size="14" lengthAdjust="spacing" text-decoration="underline" textLength="26.7148" x="355.75" y="660.5264">1..1</text></a><text fill="#000000" font-family="sans-serif" font-size="14" lengthAdjust="spacing" textLength="114.6797" x="193" y="676.8232">udstedelses&#229;r: ?</text><a href="1..1" target="_top" title="1..1" xlink:actuate="onRequest" xlink:href="1..1" xlink:show="new" xlink:title="1..1" xlink:type="simple"><text fill="#0000FF" font-family="sans-serif" font-size="14" lengthAdjust="spacing" text-decoration="underline" textLength="26.7148" x="312.1299" y="676.8232">1..1</text></a><text fill="#000000" font-family="sans-serif" font-size="14" lengthAdjust="spacing" textLength="180.2568" x="193" y="693.1201">&#229;rskaraktergennemsnit: ?</text><a href="1..1" target="_top" title="1..1" xlink:actuate="onRequest" xlink:href="1..1" xlink:show="new" xlink:title="1..1" xlink:type="simple"><text fill="#0000FF" font-family="sans-serif" font-size="14" lengthAdjust="spacing" text-decoration="underline" textLength="26.7148" x="377.707" y="693.1201">1..1</text></a><text fill="#000000" font-family="sans-serif" font-size="14" lengthAdjust="spacing" textLength="274.1143" x="193" y="709.417">adgangsgivendeEksamenNavn: Text80</text><a href="1..1" target="_top" title="1..1" xlink:actuate="onRequest" xlink:href="1..1" xlink:show="new" xlink:title="1..1" xlink:type="simple"><text fill="#0000FF" font-family="sans-serif" font-size="14" lengthAdjust="spacing" text-decoration="underline" textLength="26.7148" x="471.5645" y="709.417">1..1</text></a><text fill="#000000" font-family="sans-serif" font-size="14" lengthAdjust="spacing" textLength="277.1084" x="193" y="725.7139">adgangsgivendeEksamensTerminAar: ?</text><a href="1..1" target="_top" title="1..1" xlink:actuate="onRequest" xlink:href="1..1" xlink:show="new" xlink:title="1..1" xlink:type="simple"><text fill="#0000FF" font-family="sans-serif" font-size="14" lengthAdjust="spacing" text-decoration="underline" textLength="26.7148" x="474.5586" y="725.7139">1..1</text></a><text fill="#000000" font-family="sans-serif" font-size="14" lengthAdjust="spacing" textLength="35.916" x="193" y="742.0107">&#171;BK&#187;</text><text fill="#000000" font-family="sans-serif" font-size="14" lengthAdjust="spacing" textLength="296.1055" x="193" y="758.3076">adgangsgivendeEksamenskode: AutoNum</text><a href="1..1" target="_top" title="1..1" xlink:actuate="onRequest" xlink:href="1..1" xlink:show="new" xlink:title="1..1" xlink:type="simple"><text fill="#0000FF" font-family="sans-serif" font-size="14" lengthAdjust="spacing" text-decoration="underline" textLength="26.7148" x="493.5557" y="758.3076">1..1</text></a><text fill="#000000" font-family="sans-serif" font-size="14" lengthAdjust="spacing" textLength="297.6982" x="193" y="774.6045">adgangsgivenddeEksamenkode: AutoNum</text><a href="1..1" target="_top" title="1..1" xlink:actuate="onRequest" xlink:href="1..1" xlink:show="new" xlink:title="1..1" xlink:type="simple"><text fill="#0000FF" font-family="sans-serif" font-size="14" lengthAdjust="spacing" text-decoration="underline" textLength="26.7148" x="495.1484" y="774.6045">1..1</text></a></g><!--class TidligereOptag--><g id="elem_TidligereOptag"><rect codeLine="2254" fill="#F1F1F1" height="137.7813" id="TidligereOptag" rx="2.5" ry="2.5" style="stroke:#181818;stroke-width:0.5;" width="199.5029" x="1078" y="456.7969"/><ellipse cx="1121.6493" cy="472.7969" fill="#ADD1B2" rx="11" ry="11" style="stroke:#181818;stroke-width:1.0;"/><path d="M1124.618,478.4375 Q1124.0399,478.7344 1123.3993,478.875 Q1122.7586,479.0313 1122.0555,479.0313 Q1119.5555,479.0313 1118.2274,477.3906 Q1116.9149,475.7344 1116.9149,472.6094 Q1116.9149,469.4844 1118.2274,467.8281 Q1119.5555,466.1719 1122.0555,466.1719 Q1122.7586,466.1719 1123.3993,466.3281 Q1124.0555,466.4844 1124.618,466.7813 L1124.618,469.5 Q1123.993,468.9219 1123.3993,468.6563 Q1122.8055,468.375 1122.1805,468.375 Q1120.8368,468.375 1120.1493,469.4531 Q1119.4618,470.5156 1119.4618,472.6094 Q1119.4618,474.7031 1120.1493,475.7813 Q1120.8368,476.8438 1122.1805,476.8438 Q1122.8055,476.8438 1123.3993,476.5781 Q1123.993,476.2969 1124.618,475.7188 L1124.618,478.4375 Z " fill="#000000"/><text fill="#000000" font-family="sans-serif" font-size="14" lengthAdjust="spacing" textLength="103.8379" x="1142.0158" y="477.6436">TidligereOptag</text><line style="stroke:#181818;stroke-width:0.5;" x1="1079" x2="1276.5029" y1="488.7969" y2="488.7969"/><text fill="#000000" font-family="sans-serif" font-size="14" lengthAdjust="spacing" textLength="83.3301" x="1084" y="505.792">afbrudt&#197;r: ?</text><a href="0..1" target="_top" title="0..1" xlink:actuate="onRequest" xlink:href="0..1" xlink:show="new" xlink:title="0..1" xlink:type="simple"><text fill="#0000FF" font-family="sans-serif" font-size="14" lengthAdjust="spacing" text-decoration="underline" textLength="26.7148" x="1171.7803" y="505.792">0..1</text></a><text fill="#000000" font-family="sans-serif" font-size="14" lengthAdjust="spacing" textLength="136.6914" x="1084" y="522.0889">aktivIndskrivning: ?</text><a href="1..1" target="_top" title="1..1" xlink:actuate="onRequest" xlink:href="1..1" xlink:show="new" xlink:title="1..1" xlink:type="simple"><text fill="#0000FF" font-family="sans-serif" font-size="14" lengthAdjust="spacing" text-decoration="underline" textLength="26.7148" x="1225.1416" y="522.0889">1..1</text></a><text fill="#000000" font-family="sans-serif" font-size="14" lengthAdjust="spacing" textLength="155.5791" x="1084" y="538.3857">ECTS-point: Number.1</text><a href="0..1" target="_top" title="0..1" xlink:actuate="onRequest" xlink:href="0..1" xlink:show="new" xlink:title="0..1" xlink:type="simple"><text fill="#0000FF" font-family="sans-serif" font-size="14" lengthAdjust="spacing" text-decoration="underline" textLength="26.7148" x="1244.0293" y="538.3857">0..1</text></a><text fill="#000000" font-family="sans-serif" font-size="14" lengthAdjust="spacing" textLength="150.2266" x="1084" y="554.6826">forventetBest&#229;et&#197;r: ?</text><a href="1..1" target="_top" title="1..1" xlink:actuate="onRequest" xlink:href="1..1" xlink:show="new" xlink:title="1..1" xlink:type="simple"><text fill="#0000FF" font-family="sans-serif" font-size="14" lengthAdjust="spacing" text-decoration="underline" textLength="26.7148" x="1238.6768" y="554.6826">1..1</text></a><text fill="#000000" font-family="sans-serif" font-size="14" lengthAdjust="spacing" textLength="156.3379" x="1084" y="570.9795">indskrivningsstart&#229;r: ?</text><a href="1..1" target="_top" title="1..1" xlink:actuate="onRequest" xlink:href="1..1" xlink:show="new" xlink:title="1..1" xlink:type="simple"><text fill="#0000FF" font-family="sans-serif" font-size="14" lengthAdjust="spacing" text-decoration="underline" textLength="26.7148" x="1244.7881" y="570.9795">1..1</text></a><text fill="#000000" font-family="sans-serif" font-size="14" lengthAdjust="spacing" textLength="146.7471" x="1084" y="587.2764">optagelsesomr&#229;de: ?</text><a href="1..1" target="_top" title="1..1" xlink:actuate="onRequest" xlink:href="1..1" xlink:show="new" xlink:title="1..1" xlink:type="simple"><text fill="#0000FF" font-family="sans-serif" font-size="14" lengthAdjust="spacing" text-decoration="underline" textLength="26.7148" x="1235.1973" y="587.2764">1..1</text></a></g><!--class Fagniveau--><g id="elem_Fagniveau"><rect codeLine="2263" fill="#F1F1F1" height="186.6719" id="Fagniveau" rx="2.5" ry="2.5" style="stroke:#181818;stroke-width:0.5;" width="220.3799" x="7" y="842.2969"/><ellipse cx="76.624" cy="858.2969" fill="#ADD1B2" rx="11" ry="11" style="stroke:#181818;stroke-width:1.0;"/><path d="M79.5928,863.9375 Q79.0146,864.2344 78.374,864.375 Q77.7334,864.5313 77.0303,864.5313 Q74.5303,864.5313 73.2021,862.8906 Q71.8896,861.2344 71.8896,858.1094 Q71.8896,854.9844 73.2021,853.3281 Q74.5303,851.6719 77.0303,851.6719 Q77.7334,851.6719 78.374,851.8281 Q79.0303,851.9844 79.5928,852.2813 L79.5928,855 Q78.9678,854.4219 78.374,854.1563 Q77.7803,853.875 77.1553,853.875 Q75.8115,853.875 75.124,854.9531 Q74.4365,856.0156 74.4365,858.1094 Q74.4365,860.2031 75.124,861.2813 Q75.8115,862.3438 77.1553,862.3438 Q77.7803,862.3438 78.374,862.0781 Q78.9678,861.7969 79.5928,861.2188 L79.5928,863.9375 Z " fill="#000000"/><text fill="#000000" font-family="sans-serif" font-size="14" lengthAdjust="spacing" textLength="72.6318" x="97.124" y="863.1436">Fagniveau</text><line style="stroke:#181818;stroke-width:0.5;" x1="8" x2="226.3799" y1="874.2969" y2="874.2969"/><text fill="#000000" font-family="sans-serif" font-size="14" lengthAdjust="spacing" textLength="128.8643" x="13" y="891.292">bed&#248;mmelses&#229;r: ?</text><a href="1..1" target="_top" title="1..1" xlink:actuate="onRequest" xlink:href="1..1" xlink:show="new" xlink:title="1..1" xlink:type="simple"><text fill="#0000FF" font-family="sans-serif" font-size="14" lengthAdjust="spacing" text-decoration="underline" textLength="26.7148" x="146.3145" y="891.292">1..1</text></a><text fill="#000000" font-family="sans-serif" font-size="14" lengthAdjust="spacing" textLength="114.4883" x="13" y="907.5889">fagkode: Text80</text><a href="1..1" target="_top" title="1..1" xlink:actuate="onRequest" xlink:href="1..1" xlink:show="new" xlink:title="1..1" xlink:type="simple"><text fill="#0000FF" font-family="sans-serif" font-size="14" lengthAdjust="spacing" text-decoration="underline" textLength="26.7148" x="131.9385" y="907.5889">1..1</text></a><text fill="#000000" font-family="sans-serif" font-size="14" lengthAdjust="spacing" textLength="114.9258" x="13" y="923.8857">fagnavn: Text80</text><a href="1..1" target="_top" title="1..1" xlink:actuate="onRequest" xlink:href="1..1" xlink:show="new" xlink:title="1..1" xlink:type="simple"><text fill="#0000FF" font-family="sans-serif" font-size="14" lengthAdjust="spacing" text-decoration="underline" textLength="26.7148" x="132.376" y="923.8857">1..1</text></a><text fill="#000000" font-family="sans-serif" font-size="14" lengthAdjust="spacing" textLength="137.0059" x="13" y="940.1826">harMerit: Checkbox</text><a href="1..1" target="_top" title="1..1" xlink:actuate="onRequest" xlink:href="1..1" xlink:show="new" xlink:title="1..1" xlink:type="simple"><text fill="#0000FF" font-family="sans-serif" font-size="14" lengthAdjust="spacing" text-decoration="underline" textLength="26.7148" x="154.4561" y="940.1826">1..1</text></a><text fill="#000000" font-family="sans-serif" font-size="14" lengthAdjust="spacing" textLength="75.585" x="13" y="956.4795">karakter: ?</text><a href="1..1" target="_top" title="1..1" xlink:actuate="onRequest" xlink:href="1..1" xlink:show="new" xlink:title="1..1" xlink:type="simple"><text fill="#0000FF" font-family="sans-serif" font-size="14" lengthAdjust="spacing" text-decoration="underline" textLength="26.7148" x="93.0352" y="956.4795">1..1</text></a><text fill="#000000" font-family="sans-serif" font-size="14" lengthAdjust="spacing" textLength="106.8594" x="13" y="972.7764">karaktertype: ?</text><a href="1..1" target="_top" title="1..1" xlink:actuate="onRequest" xlink:href="1..1" xlink:show="new" xlink:title="1..1" xlink:type="simple"><text fill="#0000FF" font-family="sans-serif" font-size="14" lengthAdjust="spacing" text-decoration="underline" textLength="26.7148" x="124.3096" y="972.7764">1..1</text></a><text fill="#000000" font-family="sans-serif" font-size="14" lengthAdjust="spacing" textLength="177.2148" x="13" y="989.0732">karaktertypeForklaring: ?</text><a href="1..1" target="_top" title="1..1" xlink:actuate="onRequest" xlink:href="1..1" xlink:show="new" xlink:title="1..1" xlink:type="simple"><text fill="#0000FF" font-family="sans-serif" font-size="14" lengthAdjust="spacing" text-decoration="underline" textLength="26.7148" x="194.665" y="989.0732">1..1</text></a><text fill="#000000" font-family="sans-serif" font-size="14" lengthAdjust="spacing" textLength="158.0469" x="13" y="1005.3701">karakterv&#230;gt: Percent</text><a href="1..1" target="_top" title="1..1" xlink:actuate="onRequest" xlink:href="1..1" xlink:show="new" xlink:title="1..1" xlink:type="simple"><text fill="#0000FF" font-family="sans-serif" font-size="14" lengthAdjust="spacing" text-decoration="underline" textLength="26.7148" x="175.4971" y="1005.3701">1..1</text></a><text fill="#000000" font-family="sans-serif" font-size="14" lengthAdjust="spacing" textLength="133.2256" x="13" y="1021.667">mundtligtNiveau: ?</text><a href="1..1" target="_top" title="1..1" xlink:actuate="onRequest" xlink:href="1..1" xlink:show="new" xlink:title="1..1" xlink:type="simple"><text fill="#0000FF" font-family="sans-serif" font-size="14" lengthAdjust="spacing" text-decoration="underline" textLength="26.7148" x="150.6758" y="1021.667">1..1</text></a></g><!--class AndenEksamenEllerPr?ve--><g id="elem_AndenEksamenEllerPr&#248;ve"><rect codeLine="2275" fill="#F1F1F1" height="186.6719" id="AndenEksamenEllerPr&#248;ve" rx="2.5" ry="2.5" style="stroke:#181818;stroke-width:0.5;" width="237.0869" x="805.5" y="432.2969"/><ellipse cx="832.0458" cy="448.2969" fill="#ADD1B2" rx="11" ry="11" style="stroke:#181818;stroke-width:1.0;"/><path d="M835.0145,453.9375 Q834.4364,454.2344 833.7958,454.375 Q833.1551,454.5313 832.452,454.5313 Q829.952,454.5313 828.6239,452.8906 Q827.3114,451.2344 827.3114,448.1094 Q827.3114,444.9844 828.6239,443.3281 Q829.952,441.6719 832.452,441.6719 Q833.1551,441.6719 833.7958,441.8281 Q834.452,441.9844 835.0145,442.2813 L835.0145,445 Q834.3895,444.4219 833.7958,444.1563 Q833.202,443.875 832.577,443.875 Q831.2333,443.875 830.5458,444.9531 Q829.8583,446.0156 829.8583,448.1094 Q829.8583,450.2031 830.5458,451.2813 Q831.2333,452.3438 832.577,452.3438 Q833.202,452.3438 833.7958,452.0781 Q834.3895,451.7969 835.0145,451.2188 L835.0145,453.9375 Z " fill="#000000"/><text fill="#000000" font-family="sans-serif" font-size="14" lengthAdjust="spacing" textLength="179.4297" x="848.6115" y="453.1436">AndenEksamenEllerPr&#248;ve</text><line style="stroke:#181818;stroke-width:0.5;" x1="806.5" x2="1041.5869" y1="464.2969" y2="464.2969"/><text fill="#000000" font-family="sans-serif" font-size="14" lengthAdjust="spacing" textLength="83.3301" x="811.5" y="481.292">afbrudt&#197;r: ?</text><a href="0..1" target="_top" title="0..1" xlink:actuate="onRequest" xlink:href="0..1" xlink:show="new" xlink:title="0..1" xlink:type="simple"><text fill="#0000FF" font-family="sans-serif" font-size="14" lengthAdjust="spacing" text-decoration="underline" textLength="26.7148" x="899.2803" y="481.292">0..1</text></a><text fill="#000000" font-family="sans-serif" font-size="14" lengthAdjust="spacing" textLength="193.9219" x="811.5" y="497.5889">erStadigOptaget: Checkbox</text><a href="1..1" target="_top" title="1..1" xlink:actuate="onRequest" xlink:href="1..1" xlink:show="new" xlink:title="1..1" xlink:type="simple"><text fill="#0000FF" font-family="sans-serif" font-size="14" lengthAdjust="spacing" text-decoration="underline" textLength="26.7148" x="1009.8721" y="497.5889">1..1</text></a><text fill="#000000" font-family="sans-serif" font-size="14" lengthAdjust="spacing" textLength="114.9258" x="811.5" y="513.8857">fagnavn: Text80</text><a href="1..1" target="_top" title="1..1" xlink:actuate="onRequest" xlink:href="1..1" xlink:show="new" xlink:title="1..1" xlink:type="simple"><text fill="#0000FF" font-family="sans-serif" font-size="14" lengthAdjust="spacing" text-decoration="underline" textLength="26.7148" x="930.876" y="513.8857">1..1</text></a><text fill="#000000" font-family="sans-serif" font-size="14" lengthAdjust="spacing" textLength="181.9248" x="811.5" y="530.1826">forventetBest&#229;etM&#229;ned: ?</text><a href="0..1" target="_top" title="0..1" xlink:actuate="onRequest" xlink:href="0..1" xlink:show="new" xlink:title="0..1" xlink:type="simple"><text fill="#0000FF" font-family="sans-serif" font-size="14" lengthAdjust="spacing" text-decoration="underline" textLength="26.7148" x="997.875" y="530.1826">0..1</text></a><text fill="#000000" font-family="sans-serif" font-size="14" lengthAdjust="spacing" textLength="136.4521" x="811.5" y="546.4795">karakterMundtlig: ?</text><a href="0..1" target="_top" title="0..1" xlink:actuate="onRequest" xlink:href="0..1" xlink:show="new" xlink:title="0..1" xlink:type="simple"><text fill="#0000FF" font-family="sans-serif" font-size="14" lengthAdjust="spacing" text-decoration="underline" textLength="26.7148" x="952.4023" y="546.4795">0..1</text></a><text fill="#000000" font-family="sans-serif" font-size="14" lengthAdjust="spacing" textLength="129.3086" x="811.5" y="562.7764">karakterSkriftlig: ?</text><a href="0..1" target="_top" title="0..1" xlink:actuate="onRequest" xlink:href="0..1" xlink:show="new" xlink:title="0..1" xlink:type="simple"><text fill="#0000FF" font-family="sans-serif" font-size="14" lengthAdjust="spacing" text-decoration="underline" textLength="26.7148" x="945.2588" y="562.7764">0..1</text></a><text fill="#000000" font-family="sans-serif" font-size="14" lengthAdjust="spacing" textLength="138.7285" x="811.5" y="579.0732">kursusnavn: Text80</text><a href="1..1" target="_top" title="1..1" xlink:actuate="onRequest" xlink:href="1..1" xlink:show="new" xlink:title="1..1" xlink:type="simple"><text fill="#0000FF" font-family="sans-serif" font-size="14" lengthAdjust="spacing" text-decoration="underline" textLength="26.7148" x="954.6787" y="579.0732">1..1</text></a><text fill="#000000" font-family="sans-serif" font-size="14" lengthAdjust="spacing" textLength="64.5381" x="811.5" y="595.3701">start&#197;r: ?</text><a href="1..1" target="_top" title="1..1" xlink:actuate="onRequest" xlink:href="1..1" xlink:show="new" xlink:title="1..1" xlink:type="simple"><text fill="#0000FF" font-family="sans-serif" font-size="14" lengthAdjust="spacing" text-decoration="underline" textLength="26.7148" x="880.4883" y="595.3701">1..1</text></a><text fill="#000000" font-family="sans-serif" font-size="14" lengthAdjust="spacing" textLength="193.6553" x="811.5" y="611.667">uddannelsesniveau: Picklist</text><a href="1..1" target="_top" title="1..1" xlink:actuate="onRequest" xlink:href="1..1" xlink:show="new" xlink:title="1..1" xlink:type="simple"><text fill="#0000FF" font-family="sans-serif" font-size="14" lengthAdjust="spacing" text-decoration="underline" textLength="26.7148" x="1009.6055" y="611.667">1..1</text></a></g><!--class GymnasialUddannelse--><g id="elem_GymnasialUddannelse"><rect codeLine="2287" fill="#F1F1F1" height="32" id="GymnasialUddannelse" rx="2.5" ry="2.5" style="stroke:#181818;stroke-width:0.5;" width="188.6318" x="132.5" y="156.7969"/><ellipse cx="147.5" cy="172.7969" fill="#ADD1B2" rx="11" ry="11" style="stroke:#181818;stroke-width:1.0;"/><path d="M150.4688,178.4375 Q149.8906,178.7344 149.25,178.875 Q148.6094,179.0313 147.9063,179.0313 Q145.4063,179.0313 144.0781,177.3906 Q142.7656,175.7344 142.7656,172.6094 Q142.7656,169.4844 144.0781,167.8281 Q145.4063,166.1719 147.9063,166.1719 Q148.6094,166.1719 149.25,166.3281 Q149.9063,166.4844 150.4688,166.7813 L150.4688,169.5 Q149.8438,168.9219 149.25,168.6563 Q148.6563,168.375 148.0313,168.375 Q146.6875,168.375 146,169.4531 Q145.3125,170.5156 145.3125,172.6094 Q145.3125,174.7031 146,175.7813 Q146.6875,176.8438 148.0313,176.8438 Q148.6563,176.8438 149.25,176.5781 Q149.8438,176.2969 150.4688,175.7188 L150.4688,178.4375 Z " fill="#000000"/><text fill="#000000" font-family="sans-serif" font-size="14" lengthAdjust="spacing" textLength="156.6318" x="161.5" y="177.6436">GymnasialUddannelse</text></g><!--class Uddannelsesinstitution--><g id="elem_Uddannelsesinstitution"><rect fill="#F1F1F1" height="32" id="Uddannelsesinstitution" rx="2.5" ry="2.5" style="stroke:#181818;stroke-width:0.5;" width="192.665" x="262.5" y="919.7969"/><ellipse cx="277.5" cy="935.7969" fill="#ADD1B2" rx="11" ry="11" style="stroke:#181818;stroke-width:1.0;"/><path d="M280.4688,941.4375 Q279.8906,941.7344 279.25,941.875 Q278.6094,942.0313 277.9063,942.0313 Q275.4063,942.0313 274.0781,940.3906 Q272.7656,938.7344 272.7656,935.6094 Q272.7656,932.4844 274.0781,930.8281 Q275.4063,929.1719 277.9063,929.1719 Q278.6094,929.1719 279.25,929.3281 Q279.9063,929.4844 280.4688,929.7813 L280.4688,932.5 Q279.8438,931.9219 279.25,931.6563 Q278.6563,931.375 278.0313,931.375 Q276.6875,931.375 276,932.4531 Q275.3125,933.5156 275.3125,935.6094 Q275.3125,937.7031 276,938.7813 Q276.6875,939.8438 278.0313,939.8438 Q278.6563,939.8438 279.25,939.5781 Q279.8438,939.2969 280.4688,938.7188 L280.4688,941.4375 Z " fill="#000000"/><text fill="#000000" font-family="sans-serif" font-size="14" lengthAdjust="spacing" textLength="160.665" x="291.5" y="940.6436">Uddannelsesinstitution</text></g><!--class Ans?gningOmOptagelse--><g id="elem_Ans&#248;gningOmOptagelse"><rect fill="#F1F1F1" height="32" id="Ans&#248;gningOmOptagelse" rx="2.5" ry="2.5" style="stroke:#181818;stroke-width:0.5;" width="201.6475" x="823" y="44.2969"/><ellipse cx="838" cy="60.2969" fill="#ADD1B2" rx="11" ry="11" style="stroke:#181818;stroke-width:1.0;"/><path d="M840.9688,65.9375 Q840.3906,66.2344 839.75,66.375 Q839.1094,66.5313 838.4063,66.5313 Q835.9063,66.5313 834.5781,64.8906 Q833.2656,63.2344 833.2656,60.1094 Q833.2656,56.9844 834.5781,55.3281 Q835.9063,53.6719 838.4063,53.6719 Q839.1094,53.6719 839.75,53.8281 Q840.4063,53.9844 840.9688,54.2813 L840.9688,57 Q840.3438,56.4219 839.75,56.1563 Q839.1563,55.875 838.5313,55.875 Q837.1875,55.875 836.5,56.9531 Q835.8125,58.0156 835.8125,60.1094 Q835.8125,62.2031 836.5,63.2813 Q837.1875,64.3438 838.5313,64.3438 Q839.1563,64.3438 839.75,64.0781 Q840.3438,63.7969 840.9688,63.2188 L840.9688,65.9375 Z " fill="#000000"/><text fill="#000000" font-family="sans-serif" font-size="14" lengthAdjust="spacing" textLength="169.6475" x="852" y="65.1436">Ans&#248;gningOmOptagelse</text></g><!--class Adgangsgrundlag--><g id="elem_Adgangsgrundlag"><rect fill="#F1F1F1" height="32" id="Adgangsgrundlag" rx="2.5" ry="2.5" style="stroke:#181818;stroke-width:0.5;" width="155.6143" x="491" y="919.7969"/><ellipse cx="506" cy="935.7969" fill="#ADD1B2" rx="11" ry="11" style="stroke:#181818;stroke-width:1.0;"/><path d="M508.9688,941.4375 Q508.3906,941.7344 507.75,941.875 Q507.1094,942.0313 506.4063,942.0313 Q503.9063,942.0313 502.5781,940.3906 Q501.2656,938.7344 501.2656,935.6094 Q501.2656,932.4844 502.5781,930.8281 Q503.9063,929.1719 506.4063,929.1719 Q507.1094,929.1719 507.75,929.3281 Q508.4063,929.4844 508.9688,929.7813 L508.9688,932.5 Q508.3438,931.9219 507.75,931.6563 Q507.1563,931.375 506.5313,931.375 Q505.1875,931.375 504.5,932.4531 Q503.8125,933.5156 503.8125,935.6094 Q503.8125,937.7031 504.5,938.7813 Q505.1875,939.8438 506.5313,939.8438 Q507.1563,939.8438 507.75,939.5781 Q508.3438,939.2969 508.9688,938.7188 L508.9688,941.4375 Z " fill="#000000"/><text fill="#000000" font-family="sans-serif" font-size="14" lengthAdjust="spacing" textLength="123.6143" x="520" y="940.6436">Adgangsgrundlag</text></g><!--class Videreg?endeUddannelse--><g id="elem_Videreg&#229;endeUddannelse"><rect fill="#F1F1F1" height="32" id="Videreg&#229;endeUddannelse" rx="2.5" ry="2.5" style="stroke:#181818;stroke-width:0.5;" width="212.5439" x="1071.5" y="156.7969"/><ellipse cx="1086.5" cy="172.7969" fill="#ADD1B2" rx="11" ry="11" style="stroke:#181818;stroke-width:1.0;"/><path d="M1089.4688,178.4375 Q1088.8906,178.7344 1088.25,178.875 Q1087.6094,179.0313 1086.9063,179.0313 Q1084.4063,179.0313 1083.0781,177.3906 Q1081.7656,175.7344 1081.7656,172.6094 Q1081.7656,169.4844 1083.0781,167.8281 Q1084.4063,166.1719 1086.9063,166.1719 Q1087.6094,166.1719 1088.25,166.3281 Q1088.9063,166.4844 1089.4688,166.7813 L1089.4688,169.5 Q1088.8438,168.9219 1088.25,168.6563 Q1087.6563,168.375 1087.0313,168.375 Q1085.6875,168.375 1085,169.4531 Q1084.3125,170.5156 1084.3125,172.6094 Q1084.3125,174.7031 1085,175.7813 Q1085.6875,176.8438 1087.0313,176.8438 Q1087.6563,176.8438 1088.25,176.5781 Q1088.8438,176.2969 1089.4688,175.7188 L1089.4688,178.4375 Z " fill="#000000"/><text fill="#000000" font-family="sans-serif" font-size="14" lengthAdjust="spacing" textLength="180.5439" x="1100.5" y="177.6436">Videreg&#229;endeUddannelse</text></g><!--class Uddannelse--><g id="elem_Uddannelse"><rect fill="#F1F1F1" height="32" id="Uddannelse" rx="2.5" ry="2.5" style="stroke:#181818;stroke-width:0.5;" width="114.7559" x="36.5" y="509.7969"/><ellipse cx="51.5" cy="525.7969" fill="#ADD1B2" rx="11" ry="11" style="stroke:#181818;stroke-width:1.0;"/><path d="M54.4688,531.4375 Q53.8906,531.7344 53.25,531.875 Q52.6094,532.0313 51.9063,532.0313 Q49.4063,532.0313 48.0781,530.3906 Q46.7656,528.7344 46.7656,525.6094 Q46.7656,522.4844 48.0781,520.8281 Q49.4063,519.1719 51.9063,519.1719 Q52.6094,519.1719 53.25,519.3281 Q53.9063,519.4844 54.4688,519.7813 L54.4688,522.5 Q53.8438,521.9219 53.25,521.6563 Q52.6563,521.375 52.0313,521.375 Q50.6875,521.375 50,522.4531 Q49.3125,523.5156 49.3125,525.6094 Q49.3125,527.7031 50,528.7813 Q50.6875,529.8438 52.0313,529.8438 Q52.6563,529.8438 53.25,529.5781 Q53.8438,529.2969 54.4688,528.7188 L54.4688,531.4375 Z " fill="#000000"/><text fill="#000000" font-family="sans-serif" font-size="14" lengthAdjust="spacing" textLength="82.7559" x="65.5" y="530.6436">Uddannelse</text></g><!--class UddannelsesniveauEnum--><g id="elem_UddannelsesniveauEnum"><rect fill="#F1F1F1" height="32" id="UddannelsesniveauEnum" rx="2.5" ry="2.5" style="stroke:#181818;stroke-width:0.5;" width="209.3926" x="1313.5" y="509.7969"/><ellipse cx="1328.5" cy="525.7969" fill="#ADD1B2" rx="11" ry="11" style="stroke:#181818;stroke-width:1.0;"/><path d="M1331.4688,531.4375 Q1330.8906,531.7344 1330.25,531.875 Q1329.6094,532.0313 1328.9063,532.0313 Q1326.4063,532.0313 1325.0781,530.3906 Q1323.7656,528.7344 1323.7656,525.6094 Q1323.7656,522.4844 1325.0781,520.8281 Q1326.4063,519.1719 1328.9063,519.1719 Q1329.6094,519.1719 1330.25,519.3281 Q1330.9063,519.4844 1331.4688,519.7813 L1331.4688,522.5 Q1330.8438,521.9219 1330.25,521.6563 Q1329.6563,521.375 1329.0313,521.375 Q1327.6875,521.375 1327,522.4531 Q1326.3125,523.5156 1326.3125,525.6094 Q1326.3125,527.7031 1327,528.7813 Q1327.6875,529.8438 1329.0313,529.8438 Q1329.6563,529.8438 1330.25,529.5781 Q1330.8438,529.2969 1331.4688,528.7188 L1331.4688,531.4375 Z " fill="#000000"/><text fill="#000000" font-family="sans-serif" font-size="14" lengthAdjust="spacing" textLength="177.3926" x="1342.5" y="530.6436">UddannelsesniveauEnum</text></g><!--class Bed?mmelsesformEnum--><g id="elem_Bed&#248;mmelsesformEnum"><rect fill="#F1F1F1" height="32" id="Bed&#248;mmelsesformEnum" rx="2.5" ry="2.5" style="stroke:#181818;stroke-width:0.5;" width="203.7666" x="566" y="509.7969"/><ellipse cx="581" cy="525.7969" fill="#ADD1B2" rx="11" ry="11" style="stroke:#181818;stroke-width:1.0;"/><path d="M583.9688,531.4375 Q583.3906,531.7344 582.75,531.875 Q582.1094,532.0313 581.4063,532.0313 Q578.9063,532.0313 577.5781,530.3906 Q576.2656,528.7344 576.2656,525.6094 Q576.2656,522.4844 577.5781,520.8281 Q578.9063,519.1719 581.4063,519.1719 Q582.1094,519.1719 582.75,519.3281 Q583.4063,519.4844 583.9688,519.7813 L583.9688,522.5 Q583.3438,521.9219 582.75,521.6563 Q582.1563,521.375 581.5313,521.375 Q580.1875,521.375 579.5,522.4531 Q578.8125,523.5156 578.8125,525.6094 Q578.8125,527.7031 579.5,528.7813 Q580.1875,529.8438 581.5313,529.8438 Q582.1563,529.8438 582.75,529.5781 Q583.3438,529.2969 583.9688,528.7188 L583.9688,531.4375 Z " fill="#000000"/><text fill="#000000" font-family="sans-serif" font-size="14" lengthAdjust="spacing" textLength="171.7666" x="595" y="530.6436">Bed&#248;mmelsesformEnum</text></g><!--link AdgangsgivendeEksamen to Uddannelsesinstitution--><g id="link_AdgangsgivendeEksamen_Uddannelsesinstitution"><path codeLine="2290" d="M359,782.5469 C359,841.2869 359,893.9669 359,919.5069 " fill="none" id="AdgangsgivendeEksamen-Uddannelsesinstitution" style="stroke:#181818;stroke-width:1.0;"/><text fill="#000000" font-family="sans-serif" font-size="13" lengthAdjust="spacing" textLength="139.731" x="360" y="847.0938">adgangsgivende inst.</text><text fill="#000000" font-family="sans-serif" font-size="13" lengthAdjust="spacing" textLength="23.0356" x="335.6937" y="801.6399">0..*</text><text fill="#000000" font-family="sans-serif" font-size="13" lengthAdjust="spacing" textLength="8.271" x="349.7754" y="908.7153">1</text></g><!--link Ans?gningOmOptagelse to Uddannelsesbaggrund--><g id="link_Ans&#248;gningOmOptagelse_Uddannelsesbaggrund"><path codeLine="2291" d="M924,76.4169 C924,91.9669 924,116.0669 924,136.2669 " fill="none" id="Ans&#248;gningOmOptagelse-Uddannelsesbaggrund" style="stroke:#181818;stroke-width:1.0;"/><text fill="#000000" font-family="sans-serif" font-size="13" lengthAdjust="spacing" textLength="141.1592" x="925" y="102.4138">ans&#248;gning indeholder</text><text fill="#000000" font-family="sans-serif" font-size="13" lengthAdjust="spacing" textLength="8.271" x="914.7783" y="96.3299">1</text><text fill="#000000" font-family="sans-serif" font-size="13" lengthAdjust="spacing" textLength="24.8066" x="897.8916" y="125.2654">0..1</text></g><!--link AdgangsgivendeEksamen to Adgangsgrundlag--><g id="link_AdgangsgivendeEksamen_Adgangsgrundlag"><path codeLine="2292" d="M511,782.5469 C511,841.2869 511,893.9669 511,919.5069 " fill="none" id="AdgangsgivendeEksamen-Adgangsgrundlag" style="stroke:#181818;stroke-width:1.0;"/><text fill="#000000" font-family="sans-serif" font-size="13" lengthAdjust="spacing" textLength="23.0356" x="491.7312" y="801.6399">0..*</text><text fill="#000000" font-family="sans-serif" font-size="13" lengthAdjust="spacing" textLength="24.8066" x="464.01" y="908.7153">0..1</text></g><!--link Uddannelsesbaggrund to TidligereOptag--><g id="link_Uddannelsesbaggrund_TidligereOptag"><path codeLine="2293" d="M1019.18,199.2969 C1078.91,199.2969 1144.67,199.2969 1144.67,199.2969 C1144.67,199.2969 1144.67,360.7169 1144.67,456.5569 " fill="none" id="Uddannelsesbaggrund-TidligereOptag" style="stroke:#181818;stroke-width:1.0;"/><text fill="#000000" font-family="sans-serif" font-size="13" lengthAdjust="spacing" textLength="8.271" x="1026.7962" y="197.8391">1</text><text fill="#000000" font-family="sans-serif" font-size="13" lengthAdjust="spacing" textLength="23.0356" x="1117.0744" y="445.7281">0..*</text></g><!--link Uddannelsesbaggrund to AdgangsgivendeEksamen--><g id="link_Uddannelsesbaggrund_AdgangsgivendeEksamen"><path codeLine="2294" d="M828.91,199.2969 C684.44,199.2969 426.25,199.2969 426.25,199.2969 C426.25,199.2969 426.25,228.2669 426.25,268.9369 " fill="none" id="Uddannelsesbaggrund-AdgangsgivendeEksamen" style="stroke:#181818;stroke-width:1.0;"/><text fill="#000000" font-family="sans-serif" font-size="13" lengthAdjust="spacing" textLength="8.271" x="812.7287" y="197.9595">1</text><text fill="#000000" font-family="sans-serif" font-size="13" lengthAdjust="spacing" textLength="23.0356" x="404.9042" y="258.1634">0..*</text></g><!--link Uddannelsesbaggrund to AndenEksamenEllerPr?ve--><g id="link_Uddannelsesbaggrund_AndenEksamenEllerPr&#248;ve"><path codeLine="2295" d="M924,209.5769 C924,261.7569 924,359.0369 924,431.9769 " fill="none" id="Uddannelsesbaggrund-AndenEksamenEllerPr&#248;ve" style="stroke:#181818;stroke-width:1.0;"/><text fill="#000000" font-family="sans-serif" font-size="13" lengthAdjust="spacing" textLength="8.271" x="915.3866" y="229.0223">1</text><text fill="#000000" font-family="sans-serif" font-size="13" lengthAdjust="spacing" textLength="23.0356" x="900.1176" y="421.3041">0..*</text></g><!--link AdgangsgivendeEksamen to Fagniveau--><g id="link_AdgangsgivendeEksamen_Fagniveau"><path codeLine="2296" d="M207,782.5469 C207,803.5269 207,823.7269 207,842.2069 " fill="none" id="AdgangsgivendeEksamen-Fagniveau" style="stroke:#181818;stroke-width:1.0;"/><text fill="#000000" font-family="sans-serif" font-size="13" lengthAdjust="spacing" textLength="8.271" x="194.8586" y="801.6399">1</text><text fill="#000000" font-family="sans-serif" font-size="13" lengthAdjust="spacing" textLength="23.0356" x="190.2418" y="831.2365">0..*</text></g><!--link Videreg?endeUddannelse to TidligereOptag--><g id="link_Videreg&#229;endeUddannelse_TidligereOptag"><path codeLine="2297" d="M1211.33,188.8769 C1211.33,235.4169 1211.33,372.2069 1211.33,456.4969 " fill="none" id="Videreg&#229;endeUddannelse-TidligereOptag" style="stroke:#181818;stroke-width:1.0;"/><text fill="#000000" font-family="sans-serif" font-size="13" lengthAdjust="spacing" textLength="8.271" x="1213.166" y="208.7766">1</text><text fill="#000000" font-family="sans-serif" font-size="13" lengthAdjust="spacing" textLength="23.0356" x="1190.6087" y="445.6619">0..*</text></g><!--link GymnasialUddannelse to AdgangsgivendeEksamen--><g id="link_GymnasialUddannelse_AdgangsgivendeEksamen"><path codeLine="2298" d="M254.25,188.8769 C254.25,205.8769 254.25,234.9069 254.25,269.0269 " fill="none" id="GymnasialUddannelse-AdgangsgivendeEksamen" style="stroke:#181818;stroke-width:1.0;"/><text fill="#000000" font-family="sans-serif" font-size="13" lengthAdjust="spacing" textLength="8.271" x="254.0574" y="208.7766">1</text><text fill="#000000" font-family="sans-serif" font-size="13" lengthAdjust="spacing" textLength="23.0356" x="227.7979" y="258.256">0..*</text></g><!--link GymnasialUddannelse to Uddannelse--><g id="link_GymnasialUddannelse_Uddannelse"><path codeLine="2299" d="M142,188.8769 C142,247.6869 142,432.6569 142,491.6169 " fill="none" id="GymnasialUddannelse-to-Uddannelse" style="stroke:#181818;stroke-width:1.0;"/><polygon fill="none" points="142,509.6169,148,491.6169,136,491.6169,142,509.6169" style="stroke:#181818;stroke-width:1.0;"/></g><!--link AndenEksamenEllerPr?ve to UddannelsesniveauEnum--><g id="link_AndenEksamenEllerPr&#248;ve_UddannelsesniveauEnum"><path codeLine="2300" d="M1042.64,445.2969 C1188.8,445.2969 1418,445.2969 1418,445.2969 C1418,445.2969 1418,479.9869 1418,503.5069 " fill="none" id="AndenEksamenEllerPr&#248;ve-to-UddannelsesniveauEnum" style="stroke:#181818;stroke-width:1.0;stroke-dasharray:7.0,7.0;"/><polygon fill="#181818" points="1418,509.5069,1422,500.5069,1418,504.5069,1414,500.5069,1418,509.5069" style="stroke:#181818;stroke-width:1.0;"/></g><!--link AdgangsgivendeEksamen to Bed?mmelsesformEnum--><g id="link_AdgangsgivendeEksamen_Bed&#248;mmelsesformEnum"><path codeLine="2301" d="M531.12,526.2969 C542.9,526.2969 548.54,526.2969 559.76,526.2969 " fill="none" id="AdgangsgivendeEksamen-to-Bed&#248;mmelsesformEnum" style="stroke:#181818;stroke-width:1.0;stroke-dasharray:7.0,7.0;"/><polygon fill="#181818" points="565.76,526.2969,556.76,522.2969,560.76,526.2969,556.76,530.2969,565.76,526.2969" style="stroke:#181818;stroke-width:1.0;"/></g><!--SRC=[VOun3i8m34NtdCA87GdcgWDS0MRaDbPgrNQYE1agnDsfc9ZuRtpIqxzp4uBBy_pb4IEQaJZvX2dLRZ4i70b8Izj0IIUg7dnbArXHGTYeROKWrxRa7p4BkiChmBuhpckgUO_TikGw36HTnn6EmcbfgH9PU8TmO9kbH_8-WIBRgNILmvzh7m00]--></g></svg>