<svg xmlns="http://www.w3.org/2000/svg" xmlns:xlink="http://www.w3.org/1999/xlink" contentStyleType="text/css" height="563px" preserveAspectRatio="none" style="width:1298px;height:563px;background:#FFFFFF;" version="1.1" viewBox="0 0 1298 563" width="1298px" zoomAndPan="magnify"><defs/><g><text fill="#000000" font-family="sans-serif" font-size="14" font-weight="bold" lengthAdjust="spacing" textLength="198.7344" x="542.9873" y="22.9951">2_1_4_Uddannelsespause</text><!--class Uddannelsespause--><g id="elem_Uddannelsespause"><rect codeLine="1536" fill="#F1F1F1" height="32" id="Uddannelsespause" rx="2.5" ry="2.5" style="stroke:#181818;stroke-width:0.5;" width="164.2959" x="274" y="524.2969"/><ellipse cx="289" cy="540.2969" fill="#A9DCDF" rx="11" ry="11" style="stroke:#181818;stroke-width:1.0;"/><path d="M289.1094,535.6406 L287.9531,540.7188 L290.2813,540.7188 L289.1094,535.6406 Z M287.625,533.4063 L290.6094,533.4063 L293.9688,545.7969 L291.5156,545.7969 L290.75,542.7344 L287.4688,542.7344 L286.7188,545.7969 L284.2813,545.7969 L287.625,533.4063 Z " fill="#000000"/><text fill="#000000" font-family="sans-serif" font-size="14" font-style="italic" lengthAdjust="spacing" textLength="132.2959" x="303" y="545.1436">Uddannelsespause</text></g><!--class Uddannelsesbarsel--><g id="elem_Uddannelsesbarsel"><rect codeLine="1539" fill="#F1F1F1" height="72.5938" id="Uddannelsesbarsel" rx="2.5" ry="2.5" style="stroke:#181818;stroke-width:0.5;" width="283.209" x="1008.5" y="144.2969"/><ellipse cx="1079.3203" cy="160.2969" fill="#ADD1B2" rx="11" ry="11" style="stroke:#181818;stroke-width:1.0;"/><path d="M1082.2891,165.9375 Q1081.7109,166.2344 1081.0703,166.375 Q1080.4297,166.5313 1079.7266,166.5313 Q1077.2266,166.5313 1075.8984,164.8906 Q1074.5859,163.2344 1074.5859,160.1094 Q1074.5859,156.9844 1075.8984,155.3281 Q1077.2266,153.6719 1079.7266,153.6719 Q1080.4297,153.6719 1081.0703,153.8281 Q1081.7266,153.9844 1082.2891,154.2813 L1082.2891,157 Q1081.6641,156.4219 1081.0703,156.1563 Q1080.4766,155.875 1079.8516,155.875 Q1078.5078,155.875 1077.8203,156.9531 Q1077.1328,158.0156 1077.1328,160.1094 Q1077.1328,162.2031 1077.8203,163.2813 Q1078.5078,164.3438 1079.8516,164.3438 Q1080.4766,164.3438 1081.0703,164.0781 Q1081.6641,163.7969 1082.2891,163.2188 L1082.2891,165.9375 Z " fill="#000000"/><text fill="#000000" font-family="sans-serif" font-size="14" lengthAdjust="spacing" textLength="133.0684" x="1099.8203" y="165.1436">Uddannelsesbarsel</text><line style="stroke:#181818;stroke-width:0.5;" x1="1009.5" x2="1290.709" y1="176.2969" y2="176.2969"/><text fill="#000000" font-family="sans-serif" font-size="14" lengthAdjust="spacing" textLength="240.0439" x="1014.5" y="193.292">uddannelsesbarselStartdato: Date</text><a href="1..1" target="_top" title="1..1" xlink:actuate="onRequest" xlink:href="1..1" xlink:show="new" xlink:title="1..1" xlink:type="simple"><text fill="#0000FF" font-family="sans-serif" font-size="14" lengthAdjust="spacing" text-decoration="underline" textLength="26.7148" x="1258.9941" y="193.292">1..1</text></a><text fill="#000000" font-family="sans-serif" font-size="14" lengthAdjust="spacing" textLength="232.9824" x="1014.5" y="209.5889">uddannelsesbarselSlutdato: Date</text><a href="1..1" target="_top" title="1..1" xlink:actuate="onRequest" xlink:href="1..1" xlink:show="new" xlink:title="1..1" xlink:type="simple"><text fill="#0000FF" font-family="sans-serif" font-size="14" lengthAdjust="spacing" text-decoration="underline" textLength="26.7148" x="1251.9326" y="209.5889">1..1</text></a></g><!--class Uddannelsesorlov--><g id="elem_Uddannelsesorlov"><rect codeLine="1544" fill="#F1F1F1" height="56.2969" id="Uddannelsesorlov" rx="2.5" ry="2.5" style="stroke:#181818;stroke-width:0.5;" width="182.4814" x="501" y="346.7969"/><ellipse cx="527.4166" cy="362.7969" fill="#ADD1B2" rx="11" ry="11" style="stroke:#181818;stroke-width:1.0;"/><path d="M530.3853,368.4375 Q529.8072,368.7344 529.1666,368.875 Q528.5259,369.0313 527.8228,369.0313 Q525.3228,369.0313 523.9947,367.3906 Q522.6822,365.7344 522.6822,362.6094 Q522.6822,359.4844 523.9947,357.8281 Q525.3228,356.1719 527.8228,356.1719 Q528.5259,356.1719 529.1666,356.3281 Q529.8228,356.4844 530.3853,356.7813 L530.3853,359.5 Q529.7603,358.9219 529.1666,358.6563 Q528.5728,358.375 527.9478,358.375 Q526.6041,358.375 525.9166,359.4531 Q525.2291,360.5156 525.2291,362.6094 Q525.2291,364.7031 525.9166,365.7813 Q526.6041,366.8438 527.9478,366.8438 Q528.5728,366.8438 529.1666,366.5781 Q529.7603,366.2969 530.3853,365.7188 L530.3853,368.4375 Z " fill="#000000"/><text fill="#000000" font-family="sans-serif" font-size="14" lengthAdjust="spacing" textLength="125.1113" x="543.9536" y="367.6436">Uddannelsesorlov</text><line style="stroke:#181818;stroke-width:0.5;" x1="502" x2="682.4814" y1="378.7969" y2="378.7969"/><text fill="#000000" font-family="sans-serif" font-size="14" lengthAdjust="spacing" textLength="139.3164" x="507" y="395.792">orlovs&#229;rsag: Picklist</text><a href="1..1" target="_top" title="1..1" xlink:actuate="onRequest" xlink:href="1..1" xlink:show="new" xlink:title="1..1" xlink:type="simple"><text fill="#0000FF" font-family="sans-serif" font-size="14" lengthAdjust="spacing" text-decoration="underline" textLength="26.7148" x="650.7666" y="395.792">1..1</text></a></g><!--class MidlertidigBortvisning--><g id="elem_MidlertidigBortvisning"><rect codeLine="1548" fill="#F1F1F1" height="56.2969" id="MidlertidigBortvisning" rx="2.5" ry="2.5" style="stroke:#181818;stroke-width:0.5;" width="226.1084" x="7" y="346.7969"/><ellipse cx="40.2457" cy="362.7969" fill="#ADD1B2" rx="11" ry="11" style="stroke:#181818;stroke-width:1.0;"/><path d="M43.2144,368.4375 Q42.6363,368.7344 41.9957,368.875 Q41.355,369.0313 40.6519,369.0313 Q38.1519,369.0313 36.8238,367.3906 Q35.5113,365.7344 35.5113,362.6094 Q35.5113,359.4844 36.8238,357.8281 Q38.1519,356.1719 40.6519,356.1719 Q41.355,356.1719 41.9957,356.3281 Q42.6519,356.4844 43.2144,356.7813 L43.2144,359.5 Q42.5894,358.9219 41.9957,358.6563 Q41.4019,358.375 40.7769,358.375 Q39.4332,358.375 38.7457,359.4531 Q38.0582,360.5156 38.0582,362.6094 Q38.0582,364.7031 38.7457,365.7813 Q39.4332,366.8438 40.7769,366.8438 Q41.4019,366.8438 41.9957,366.5781 Q42.5894,366.2969 43.2144,365.7188 L43.2144,368.4375 Z " fill="#000000"/><text fill="#000000" font-family="sans-serif" font-size="14" lengthAdjust="spacing" textLength="153.5625" x="58.3002" y="367.6436">MidlertidigBortvisning</text><line style="stroke:#181818;stroke-width:0.5;" x1="8" x2="232.1084" y1="378.7969" y2="378.7969"/><text fill="#000000" font-family="sans-serif" font-size="14" lengthAdjust="spacing" textLength="182.9434" x="13" y="395.792">bortvisnings&#229;rsag: Picklist</text><a href="1..1" target="_top" title="1..1" xlink:actuate="onRequest" xlink:href="1..1" xlink:show="new" xlink:title="1..1" xlink:type="simple"><text fill="#0000FF" font-family="sans-serif" font-size="14" lengthAdjust="spacing" text-decoration="underline" textLength="26.7148" x="200.3936" y="395.792">1..1</text></a></g><!--class Ans?gningOmUddannelsespause--><g id="elem_Ans&#248;gningOmUddannelsespause"><rect codeLine="1552" fill="#F1F1F1" height="88.8906" id="Ans&#248;gningOmUddannelsespause" rx="2.5" ry="2.5" style="stroke:#181818;stroke-width:0.5;" width="262.6719" x="460.5" y="136.2969"/><ellipse cx="475.5" cy="152.2969" fill="#ADD1B2" rx="11" ry="11" style="stroke:#181818;stroke-width:1.0;"/><path d="M478.4688,157.9375 Q477.8906,158.2344 477.25,158.375 Q476.6094,158.5313 475.9063,158.5313 Q473.4063,158.5313 472.0781,156.8906 Q470.7656,155.2344 470.7656,152.1094 Q470.7656,148.9844 472.0781,147.3281 Q473.4063,145.6719 475.9063,145.6719 Q476.6094,145.6719 477.25,145.8281 Q477.9063,145.9844 478.4688,146.2813 L478.4688,149 Q477.8438,148.4219 477.25,148.1563 Q476.6563,147.875 476.0313,147.875 Q474.6875,147.875 474,148.9531 Q473.3125,150.0156 473.3125,152.1094 Q473.3125,154.2031 474,155.2813 Q474.6875,156.3438 476.0313,156.3438 Q476.6563,156.3438 477.25,156.0781 Q477.8438,155.7969 478.4688,155.2188 L478.4688,157.9375 Z " fill="#000000"/><text fill="#000000" font-family="sans-serif" font-size="14" lengthAdjust="spacing" textLength="230.6719" x="489.5" y="157.1436">Ans&#248;gningOmUddannelsespause</text><line style="stroke:#181818;stroke-width:0.5;" x1="461.5" x2="722.1719" y1="168.2969" y2="168.2969"/><text fill="#000000" font-family="sans-serif" font-size="14" lengthAdjust="spacing" textLength="197.4082" x="466.5" y="185.292">godkendelsesstatus: Picklist</text><a href="1..1" target="_top" title="1..1" xlink:actuate="onRequest" xlink:href="1..1" xlink:show="new" xlink:title="1..1" xlink:type="simple"><text fill="#0000FF" font-family="sans-serif" font-size="14" lengthAdjust="spacing" text-decoration="underline" textLength="26.7148" x="668.3584" y="185.292">1..1</text></a><text fill="#000000" font-family="sans-serif" font-size="14" lengthAdjust="spacing" textLength="35.916" x="466.5" y="201.5889">&#171;BK&#187;</text><text fill="#000000" font-family="sans-serif" font-size="14" lengthAdjust="spacing" textLength="212.1807" x="466.5" y="217.8857">ans&#248;gningsnummer: IgnoreBK</text><a href="1..1" target="_top" title="1..1" xlink:actuate="onRequest" xlink:href="1..1" xlink:show="new" xlink:title="1..1" xlink:type="simple"><text fill="#0000FF" font-family="sans-serif" font-size="14" lengthAdjust="spacing" text-decoration="underline" textLength="26.7148" x="683.1309" y="217.8857">1..1</text></a></g><!--class Orlovs?rsagEnum--><g id="elem_Orlovs&#229;rsagEnum"><rect codeLine="1558" fill="#90EE90" height="178.6406" id="Orlovs&#229;rsagEnum" rx="2.5" ry="2.5" style="stroke:#181818;stroke-width:0.5;" width="185.3047" x="718.5" y="285.2969"/><ellipse cx="746.6269" cy="305.4297" fill="#EB937F" rx="11" ry="11" style="stroke:#181818;stroke-width:1.0;"/><path d="M750.7363,311.4297 L743.0175,311.4297 L743.0175,299.0391 L750.7363,299.0391 L750.7363,301.1953 L745.4707,301.1953 L745.4707,303.8672 L750.2363,303.8672 L750.2363,306.0234 L745.4707,306.0234 L745.4707,309.2734 L750.7363,309.2734 L750.7363,311.4297 Z " fill="#000000"/><text fill="#000000" font-family="sans-serif" font-size="12" font-style="italic" lengthAdjust="spacing" textLength="49.0957" x="801.063" y="301.4355">&#171;enum&#187;</text><text fill="#000000" font-family="sans-serif" font-size="14" lengthAdjust="spacing" textLength="124.1338" x="763.544" y="317.2607">Orlovs&#229;rsagEnum</text><line style="stroke:#181818;stroke-width:0.5;" x1="719.5" x2="902.8047" y1="325.5625" y2="325.5625"/><text fill="#000000" font-family="sans-serif" font-size="14" lengthAdjust="spacing" textLength="92.1348" x="724.5" y="342.5576">egenSygdom</text><text fill="#000000" font-family="sans-serif" font-size="14" lengthAdjust="spacing" textLength="105.752" x="724.5" y="358.8545">barselAdoption</text><text fill="#000000" font-family="sans-serif" font-size="14" lengthAdjust="spacing" textLength="76.3164" x="724.5" y="375.1514">v&#230;rnepligt</text><text fill="#000000" font-family="sans-serif" font-size="14" lengthAdjust="spacing" textLength="72.8984" x="724.5" y="391.4482">&#248;vrigOrlov</text><text fill="#000000" font-family="sans-serif" font-size="14" lengthAdjust="spacing" textLength="68.9541" x="724.5" y="407.7451">plejeorlov</text><text fill="#000000" font-family="sans-serif" font-size="14" lengthAdjust="spacing" textLength="173.3047" x="724.5" y="424.042">udsendelseVedForsvaret</text><text fill="#000000" font-family="sans-serif" font-size="14" lengthAdjust="spacing" textLength="151.3066" x="724.5" y="440.3389">andreOffentligeHverv</text><text fill="#000000" font-family="sans-serif" font-size="14" lengthAdjust="spacing" textLength="43.0186" x="724.5" y="456.6357">barsel</text></g><!--class Bortvisnings?rsagEnum--><g id="elem_Bortvisnings&#229;rsagEnum"><rect codeLine="1569" fill="#90EE90" height="64.5625" id="Bortvisnings&#229;rsagEnum" rx="2.5" ry="2.5" style="stroke:#181818;stroke-width:0.5;" width="198.0244" x="268" y="342.2969"/><ellipse cx="283" cy="362.4297" fill="#EB937F" rx="11" ry="11" style="stroke:#181818;stroke-width:1.0;"/><path d="M287.1094,368.4297 L279.3906,368.4297 L279.3906,356.0391 L287.1094,356.0391 L287.1094,358.1953 L281.8438,358.1953 L281.8438,360.8672 L286.6094,360.8672 L286.6094,363.0234 L281.8438,363.0234 L281.8438,366.2734 L287.1094,366.2734 L287.1094,368.4297 Z " fill="#000000"/><text fill="#000000" font-family="sans-serif" font-size="12" font-style="italic" lengthAdjust="spacing" textLength="49.0957" x="355.4644" y="358.4355">&#171;enum&#187;</text><text fill="#000000" font-family="sans-serif" font-size="14" lengthAdjust="spacing" textLength="166.0244" x="297" y="374.2607">Bortvisnings&#229;rsagEnum</text><line style="stroke:#181818;stroke-width:0.5;" x1="269" x2="465.0244" y1="382.5625" y2="382.5625"/><text fill="#000000" font-family="sans-serif" font-size="14" lengthAdjust="spacing" textLength="184.7344" x="274" y="399.5576">Lokalt defineret v&#230;rdiliste</text></g><!--class Indskrivning--><g id="elem_Indskrivning"><rect fill="#F1F1F1" height="32" id="Indskrivning" rx="2.5" ry="2.5" style="stroke:#181818;stroke-width:0.5;" width="117.7432" x="812" y="44.2969"/><ellipse cx="827" cy="60.2969" fill="#ADD1B2" rx="11" ry="11" style="stroke:#181818;stroke-width:1.0;"/><path d="M829.9688,65.9375 Q829.3906,66.2344 828.75,66.375 Q828.1094,66.5313 827.4063,66.5313 Q824.9063,66.5313 823.5781,64.8906 Q822.2656,63.2344 822.2656,60.1094 Q822.2656,56.9844 823.5781,55.3281 Q824.9063,53.6719 827.4063,53.6719 Q828.1094,53.6719 828.75,53.8281 Q829.4063,53.9844 829.9688,54.2813 L829.9688,57 Q829.3438,56.4219 828.75,56.1563 Q828.1563,55.875 827.5313,55.875 Q826.1875,55.875 825.5,56.9531 Q824.8125,58.0156 824.8125,60.1094 Q824.8125,62.2031 825.5,63.2813 Q826.1875,64.3438 827.5313,64.3438 Q828.1563,64.3438 828.75,64.0781 Q829.3438,63.7969 829.9688,63.2188 L829.9688,65.9375 Z " fill="#000000"/><text fill="#000000" font-family="sans-serif" font-size="14" lengthAdjust="spacing" textLength="85.7432" x="841" y="65.1436">Indskrivning</text></g><!--class GodkendelsesstatusEnum--><g id="elem_GodkendelsesstatusEnum"><rect fill="#F1F1F1" height="32" id="GodkendelsesstatusEnum" rx="2.5" ry="2.5" style="stroke:#181818;stroke-width:0.5;" width="213.7334" x="759" y="164.7969"/><ellipse cx="774" cy="180.7969" fill="#ADD1B2" rx="11" ry="11" style="stroke:#181818;stroke-width:1.0;"/><path d="M776.9688,186.4375 Q776.3906,186.7344 775.75,186.875 Q775.1094,187.0313 774.4063,187.0313 Q771.9063,187.0313 770.5781,185.3906 Q769.2656,183.7344 769.2656,180.6094 Q769.2656,177.4844 770.5781,175.8281 Q771.9063,174.1719 774.4063,174.1719 Q775.1094,174.1719 775.75,174.3281 Q776.4063,174.4844 776.9688,174.7813 L776.9688,177.5 Q776.3438,176.9219 775.75,176.6563 Q775.1563,176.375 774.5313,176.375 Q773.1875,176.375 772.5,177.4531 Q771.8125,178.5156 771.8125,180.6094 Q771.8125,182.7031 772.5,183.7813 Q773.1875,184.8438 774.5313,184.8438 Q775.1563,184.8438 775.75,184.5781 Q776.3438,184.2969 776.9688,183.7188 L776.9688,186.4375 Z " fill="#000000"/><text fill="#000000" font-family="sans-serif" font-size="14" lengthAdjust="spacing" textLength="181.7334" x="788" y="185.6436">GodkendelsesstatusEnum</text></g><!--link Indskrivning to Ans?gningOmUddannelsespause--><g id="link_Indskrivning_Ans&#248;gningOmUddannelsespause"><path codeLine="1573" d="M851.33,76.4869 C851.33,99.8669 851.33,140.2969 851.33,140.2969 C851.33,140.2969 787.76,140.2969 723.57,140.2969 " fill="none" id="Indskrivning-Ans&#248;gningOmUddannelsespause" style="stroke:#181818;stroke-width:1.0;"/><text fill="#000000" font-family="sans-serif" font-size="13" lengthAdjust="spacing" textLength="8.271" x="835.5767" y="96.4231">1</text><text fill="#000000" font-family="sans-serif" font-size="13" lengthAdjust="spacing" textLength="23.0356" x="730.9564" y="134.895">0..*</text></g><!--link Ans?gningOmUddannelsespause to Uddannelsesorlov--><g id="link_Ans&#248;gningOmUddannelsespause_Uddannelsesorlov"><path codeLine="1574" d="M592,225.3069 C592,262.6669 592,314.8969 592,346.7069 " fill="none" id="Ans&#248;gningOmUddannelsespause-Uddannelsesorlov" style="stroke:#181818;stroke-width:1.0;"/><text fill="#000000" font-family="sans-serif" font-size="13" lengthAdjust="spacing" textLength="8.271" x="583.4334" y="245.3563">1</text><text fill="#000000" font-family="sans-serif" font-size="13" lengthAdjust="spacing" textLength="24.8066" x="565.2626" y="335.5246">0..1</text></g><!--link Indskrivning to Uddannelsesbarsel--><g id="link_Indskrivning_Uddannelsesbarsel"><path codeLine="1575" d="M890.67,76.4169 C890.67,103.5169 890.67,155.2969 890.67,155.2969 C890.67,155.2969 947.65,155.2969 1008.19,155.2969 " fill="none" id="Indskrivning-Uddannelsesbarsel" style="stroke:#181818;stroke-width:1.0;"/><text fill="#000000" font-family="sans-serif" font-size="13" lengthAdjust="spacing" textLength="8.271" x="887.9481" y="96.3299">1</text><text fill="#000000" font-family="sans-serif" font-size="13" lengthAdjust="spacing" textLength="23.0356" x="977.2805" y="150.6761">0..*</text></g><!--link Uddannelsesorlov to Uddannelsespause--><g id="link_Uddannelsesorlov_Uddannelsespause"><path codeLine="1576" d="M592,402.8669 C592,450.0869 592,540.2969 592,540.2969 C592,540.2969 524.32,540.2969 456.21,540.2969 " fill="none" id="Uddannelsesorlov-to-Uddannelsespause" style="stroke:#181818;stroke-width:1.0;"/><polygon fill="none" points="438.21,540.2969,456.21,546.2969,456.21,534.2969,438.21,540.2969" style="stroke:#181818;stroke-width:1.0;"/></g><!--link MidlertidigBortvisning to Uddannelsespause--><g id="link_MidlertidigBortvisning_Uddannelsespause"><path codeLine="1577" d="M120,402.8669 C120,450.0869 120,540.2969 120,540.2969 C120,540.2969 187.68,540.2969 255.79,540.2969 " fill="none" id="MidlertidigBortvisning-to-Uddannelsespause" style="stroke:#181818;stroke-width:1.0;"/><polygon fill="none" points="273.79,540.2969,255.79,534.2969,255.79,546.2969,273.79,540.2969" style="stroke:#181818;stroke-width:1.0;"/></g><!--link MidlertidigBortvisning to Bortvisnings?rsagEnum--><g id="link_MidlertidigBortvisning_Bortvisnings&#229;rsagEnum"><path codeLine="1578" d="M233.02,375.2969 C244.58,375.2969 250.26,375.2969 261.66,375.2969 " fill="none" id="MidlertidigBortvisning-to-Bortvisnings&#229;rsagEnum" style="stroke:#181818;stroke-width:1.0;stroke-dasharray:7.0,7.0;"/><polygon fill="#181818" points="267.66,375.2969,258.66,371.2969,262.66,375.2969,258.66,379.2969,267.66,375.2969" style="stroke:#181818;stroke-width:1.0;"/></g><!--link Uddannelsesorlov to Orlovs?rsagEnum--><g id="link_Uddannelsesorlov_Orlovs&#229;rsagEnum"><path codeLine="1579" d="M683.29,375.2969 C694.91,375.2969 700.81,375.2969 712.45,375.2969 " fill="none" id="Uddannelsesorlov-to-Orlovs&#229;rsagEnum" style="stroke:#181818;stroke-width:1.0;stroke-dasharray:7.0,7.0;"/><polygon fill="#181818" points="718.45,375.2969,709.45,371.2969,713.45,375.2969,709.45,379.2969,718.45,375.2969" style="stroke:#181818;stroke-width:1.0;"/></g><!--link Ans?gningOmUddannelsespause to GodkendelsesstatusEnum--><g id="link_Ans&#248;gningOmUddannelsespause_GodkendelsesstatusEnum"><path codeLine="1580" d="M723.78,181.2969 C735.57,181.2969 741.42,181.2969 752.96,181.2969 " fill="none" id="Ans&#248;gningOmUddannelsespause-to-GodkendelsesstatusEnum" style="stroke:#181818;stroke-width:1.0;stroke-dasharray:7.0,7.0;"/><polygon fill="#181818" points="758.96,181.2969,749.96,177.2969,753.96,181.2969,749.96,185.2969,758.96,181.2969" style="stroke:#181818;stroke-width:1.0;"/></g><!--SRC=[RSun3i8m343HFQTmnOu4Ogmwm1LWhjp6QgtQJXGdGrLnTnWP-EjR_fEh45p7otWRNp6Y6OcJPsnEOUL8G9hh3aewKV7W6rl6WWh2HdNF1AdKDVt0BEWEHu1lTvotfQHcyP4abRudQpeCS19UrheK8Wll43gsMLeaRnCeifrpK-d-Ntq0]--></g></svg>