<svg xmlns="http://www.w3.org/2000/svg" xmlns:xlink="http://www.w3.org/1999/xlink" contentStyleType="text/css" height="626px" preserveAspectRatio="none" style="width:2758px;height:626px;background:#FFFFFF;" version="1.1" viewBox="0 0 2758 626" width="2758px" zoomAndPan="magnify"><defs/><g><text fill="#000000" font-family="sans-serif" font-size="14" font-weight="bold" lengthAdjust="spacing" textLength="148.6475" x="1297.8188" y="22.9951">2_1_3_Indskrivning</text><!--class Adgangsgrundlag--><g id="elem_Adgangsgrundlag"><rect codeLine="1332" fill="#F1F1F1" height="32" id="Adgangsgrundlag" rx="2.5" ry="2.5" style="stroke:#181818;stroke-width:0.5;" width="155.6143" x="2221" y="397.2969"/><ellipse cx="2236" cy="413.2969" fill="#A9DCDF" rx="11" ry="11" style="stroke:#181818;stroke-width:1.0;"/><path d="M2236.1094,408.6406 L2234.9531,413.7188 L2237.2813,413.7188 L2236.1094,408.6406 Z M2234.625,406.4063 L2237.6094,406.4063 L2240.9688,418.7969 L2238.5156,418.7969 L2237.75,415.7344 L2234.4688,415.7344 L2233.7188,418.7969 L2231.2813,418.7969 L2234.625,406.4063 Z " fill="#000000"/><text fill="#000000" font-family="sans-serif" font-size="14" font-style="italic" lengthAdjust="spacing" textLength="123.6143" x="2250" y="418.1436">Adgangsgrundlag</text></g><!--class Indskrivning--><g id="elem_Indskrivning"><rect codeLine="1335" fill="#F1F1F1" height="32" id="Indskrivning" rx="2.5" ry="2.5" style="stroke:#181818;stroke-width:0.5;" width="117.7432" x="1422" y="587.2969"/><ellipse cx="1437" cy="603.2969" fill="#A9DCDF" rx="11" ry="11" style="stroke:#181818;stroke-width:1.0;"/><path d="M1437.1094,598.6406 L1435.9531,603.7188 L1438.2813,603.7188 L1437.1094,598.6406 Z M1435.625,596.4063 L1438.6094,596.4063 L1441.9688,608.7969 L1439.5156,608.7969 L1438.75,605.7344 L1435.4688,605.7344 L1434.7188,608.7969 L1432.2813,608.7969 L1435.625,596.4063 Z " fill="#000000"/><text fill="#000000" font-family="sans-serif" font-size="14" font-style="italic" lengthAdjust="spacing" textLength="85.7432" x="1451" y="608.1436">Indskrivning</text></g><!--class IndskrivningTilEnkeltfag--><g id="elem_IndskrivningTilEnkeltfag"><rect codeLine="1338" fill="#F1F1F1" height="88.8906" id="IndskrivningTilEnkeltfag" rx="2.5" ry="2.5" style="stroke:#181818;stroke-width:0.5;" width="298.3779" x="1534" y="368.7969"/><ellipse cx="1594.7954" cy="384.7969" fill="#ADD1B2" rx="11" ry="11" style="stroke:#181818;stroke-width:1.0;"/><path d="M1597.7642,390.4375 Q1597.186,390.7344 1596.5454,390.875 Q1595.9048,391.0313 1595.2017,391.0313 Q1592.7017,391.0313 1591.3735,389.3906 Q1590.061,387.7344 1590.061,384.6094 Q1590.061,381.4844 1591.3735,379.8281 Q1592.7017,378.1719 1595.2017,378.1719 Q1595.9048,378.1719 1596.5454,378.3281 Q1597.2017,378.4844 1597.7642,378.7813 L1597.7642,381.5 Q1597.1392,380.9219 1596.5454,380.6563 Q1595.9517,380.375 1595.3267,380.375 Q1593.9829,380.375 1593.2954,381.4531 Q1592.6079,382.5156 1592.6079,384.6094 Q1592.6079,386.7031 1593.2954,387.7813 Q1593.9829,388.8438 1595.3267,388.8438 Q1595.9517,388.8438 1596.5454,388.5781 Q1597.1392,388.2969 1597.7642,387.7188 L1597.7642,390.4375 Z " fill="#000000"/><text fill="#000000" font-family="sans-serif" font-size="14" lengthAdjust="spacing" textLength="168.2871" x="1615.2954" y="389.6436">IndskrivningTilEnkeltfag</text><line style="stroke:#181818;stroke-width:0.5;" x1="1535" x2="1831.3779" y1="400.7969" y2="400.7969"/><text fill="#000000" font-family="sans-serif" font-size="14" lengthAdjust="spacing" textLength="255.2129" x="1540" y="417.792">enkeltfagsindskrivningstype: Picklist</text><a href="1..1" target="_top" title="1..1" xlink:actuate="onRequest" xlink:href="1..1" xlink:show="new" xlink:title="1..1" xlink:type="simple"><text fill="#0000FF" font-family="sans-serif" font-size="14" lengthAdjust="spacing" text-decoration="underline" textLength="26.7148" x="1799.6631" y="417.792">1..1</text></a><text fill="#000000" font-family="sans-serif" font-size="14" lengthAdjust="spacing" textLength="35.916" x="1540" y="434.0889">&#171;BK&#187;</text><text fill="#000000" font-family="sans-serif" font-size="14" lengthAdjust="spacing" textLength="229.6807" x="1540" y="450.3857">/indskrivningsnummer: IgnoreBK</text><a href="1..1" target="_top" title="1..1" xlink:actuate="onRequest" xlink:href="1..1" xlink:show="new" xlink:title="1..1" xlink:type="simple"><text fill="#0000FF" font-family="sans-serif" font-size="14" lengthAdjust="spacing" text-decoration="underline" textLength="26.7148" x="1774.1309" y="450.3857">1..1</text></a></g><!--class IndskrivningTilVidereg?endeUddannelse--><g id="elem_IndskrivningTilVidereg&#229;endeUddannelse"><rect codeLine="1344" fill="#F1F1F1" height="105.1875" id="IndskrivningTilVidereg&#229;endeUddannelse" rx="2.5" ry="2.5" style="stroke:#181818;stroke-width:0.5;" width="314.6182" x="559.5" y="360.7969"/><ellipse cx="574.5" cy="376.7969" fill="#ADD1B2" rx="11" ry="11" style="stroke:#181818;stroke-width:1.0;"/><path d="M577.4688,382.4375 Q576.8906,382.7344 576.25,382.875 Q575.6094,383.0313 574.9063,383.0313 Q572.4063,383.0313 571.0781,381.3906 Q569.7656,379.7344 569.7656,376.6094 Q569.7656,373.4844 571.0781,371.8281 Q572.4063,370.1719 574.9063,370.1719 Q575.6094,370.1719 576.25,370.3281 Q576.9063,370.4844 577.4688,370.7813 L577.4688,373.5 Q576.8438,372.9219 576.25,372.6563 Q575.6563,372.375 575.0313,372.375 Q573.6875,372.375 573,373.4531 Q572.3125,374.5156 572.3125,376.6094 Q572.3125,378.7031 573,379.7813 Q573.6875,380.8438 575.0313,380.8438 Q575.6563,380.8438 576.25,380.5781 Q576.8438,380.2969 577.4688,379.7188 L577.4688,382.4375 Z " fill="#000000"/><text fill="#000000" font-family="sans-serif" font-size="14" lengthAdjust="spacing" textLength="282.6182" x="588.5" y="381.6436">IndskrivningTilVidereg&#229;endeUddannelse</text><line style="stroke:#181818;stroke-width:0.5;" x1="560.5" x2="873.1182" y1="392.7969" y2="392.7969"/><text fill="#000000" font-family="sans-serif" font-size="14" lengthAdjust="spacing" textLength="198.5293" x="565.5" y="409.792">dispensationsindskrivning: ?</text><a href="1..1" target="_top" title="1..1" xlink:actuate="onRequest" xlink:href="1..1" xlink:show="new" xlink:title="1..1" xlink:type="simple"><text fill="#0000FF" font-family="sans-serif" font-size="14" lengthAdjust="spacing" text-decoration="underline" textLength="26.7148" x="768.4795" y="409.792">1..1</text></a><text fill="#000000" font-family="sans-serif" font-size="14" lengthAdjust="spacing" textLength="270.6143" x="565.5" y="426.0889">uddannelsesindskrivningstype: Picklist</text><a href="1..1" target="_top" title="1..1" xlink:actuate="onRequest" xlink:href="1..1" xlink:show="new" xlink:title="1..1" xlink:type="simple"><text fill="#0000FF" font-family="sans-serif" font-size="14" lengthAdjust="spacing" text-decoration="underline" textLength="26.7148" x="840.5645" y="426.0889">1..1</text></a><text fill="#000000" font-family="sans-serif" font-size="14" lengthAdjust="spacing" textLength="35.916" x="565.5" y="442.3857">&#171;BK&#187;</text><text fill="#000000" font-family="sans-serif" font-size="14" lengthAdjust="spacing" textLength="229.6807" x="565.5" y="458.6826">/indskrivningsnummer: IgnoreBK</text><a href="1..1" target="_top" title="1..1" xlink:actuate="onRequest" xlink:href="1..1" xlink:show="new" xlink:title="1..1" xlink:type="simple"><text fill="#0000FF" font-family="sans-serif" font-size="14" lengthAdjust="spacing" text-decoration="underline" textLength="26.7148" x="799.6309" y="458.6826">1..1</text></a></g><!--class AdgangsgivendeErhvervserfaring--><g id="elem_AdgangsgivendeErhvervserfaring"><rect codeLine="1351" fill="#F1F1F1" height="88.8906" id="AdgangsgivendeErhvervserfaring" rx="2.5" ry="2.5" style="stroke:#181818;stroke-width:0.5;" width="418.0137" x="2090" y="97.2969"/><ellipse cx="2177.7461" cy="113.2969" fill="#ADD1B2" rx="11" ry="11" style="stroke:#181818;stroke-width:1.0;"/><path d="M2180.7148,118.9375 Q2180.1367,119.2344 2179.4961,119.375 Q2178.8555,119.5313 2178.1523,119.5313 Q2175.6523,119.5313 2174.3242,117.8906 Q2173.0117,116.2344 2173.0117,113.1094 Q2173.0117,109.9844 2174.3242,108.3281 Q2175.6523,106.6719 2178.1523,106.6719 Q2178.8555,106.6719 2179.4961,106.8281 Q2180.1523,106.9844 2180.7148,107.2813 L2180.7148,110 Q2180.0898,109.4219 2179.4961,109.1563 Q2178.9023,108.875 2178.2773,108.875 Q2176.9336,108.875 2176.2461,109.9531 Q2175.5586,111.0156 2175.5586,113.1094 Q2175.5586,115.2031 2176.2461,116.2813 Q2176.9336,117.3438 2178.2773,117.3438 Q2178.9023,117.3438 2179.4961,117.0781 Q2180.0898,116.7969 2180.7148,116.2188 L2180.7148,118.9375 Z " fill="#000000"/><text fill="#000000" font-family="sans-serif" font-size="14" lengthAdjust="spacing" textLength="234.0215" x="2198.2461" y="118.1436">AdgangsgivendeErhvervserfaring</text><line style="stroke:#181818;stroke-width:0.5;" x1="2091" x2="2507.0137" y1="129.2969" y2="129.2969"/><text fill="#000000" font-family="sans-serif" font-size="14" lengthAdjust="spacing" textLength="374.8486" x="2096" y="146.292">adgangsgivendeErhvervserfaringVarighed: Number.1</text><a href="1..1" target="_top" title="1..1" xlink:actuate="onRequest" xlink:href="1..1" xlink:show="new" xlink:title="1..1" xlink:type="simple"><text fill="#0000FF" font-family="sans-serif" font-size="14" lengthAdjust="spacing" text-decoration="underline" textLength="26.7148" x="2475.2988" y="146.292">1..1</text></a><text fill="#000000" font-family="sans-serif" font-size="14" lengthAdjust="spacing" textLength="73.876" x="2096" y="162.5889">branche: ?</text><a href="1..1" target="_top" title="1..1" xlink:actuate="onRequest" xlink:href="1..1" xlink:show="new" xlink:title="1..1" xlink:type="simple"><text fill="#0000FF" font-family="sans-serif" font-size="14" lengthAdjust="spacing" text-decoration="underline" textLength="26.7148" x="2174.3262" y="162.5889">1..1</text></a><text fill="#000000" font-family="sans-serif" font-size="14" lengthAdjust="spacing" textLength="210.8887" x="2096" y="178.8857">erhvervserfaringNavn: Text80</text><a href="1..1" target="_top" title="1..1" xlink:actuate="onRequest" xlink:href="1..1" xlink:show="new" xlink:title="1..1" xlink:type="simple"><text fill="#0000FF" font-family="sans-serif" font-size="14" lengthAdjust="spacing" text-decoration="underline" textLength="26.7148" x="2311.3389" y="178.8857">1..1</text></a></g><!--class IndskrivningsstatusEnum--><g id="elem_IndskrivningsstatusEnum"><rect codeLine="1357" fill="#90EE90" height="194.9375" id="IndskrivningsstatusEnum" rx="2.5" ry="2.5" style="stroke:#181818;stroke-width:0.5;" width="208.2852" x="2543" y="44.2969"/><ellipse cx="2558" cy="64.4297" fill="#EB937F" rx="11" ry="11" style="stroke:#181818;stroke-width:1.0;"/><path d="M2562.1094,70.4297 L2554.3906,70.4297 L2554.3906,58.0391 L2562.1094,58.0391 L2562.1094,60.1953 L2556.8438,60.1953 L2556.8438,62.8672 L2561.6094,62.8672 L2561.6094,65.0234 L2556.8438,65.0234 L2556.8438,68.2734 L2562.1094,68.2734 L2562.1094,70.4297 Z " fill="#000000"/><text fill="#000000" font-family="sans-serif" font-size="12" font-style="italic" lengthAdjust="spacing" textLength="49.0957" x="2635.5947" y="60.4355">&#171;enum&#187;</text><text fill="#000000" font-family="sans-serif" font-size="14" lengthAdjust="spacing" textLength="176.2852" x="2572" y="76.2607">IndskrivningsstatusEnum</text><line style="stroke:#181818;stroke-width:0.5;" x1="2544" x2="2750.2852" y1="84.5625" y2="84.5625"/><text fill="#000000" font-family="sans-serif" font-size="14" lengthAdjust="spacing" textLength="78.9346" x="2549" y="101.5576">kommende</text><text fill="#000000" font-family="sans-serif" font-size="14" lengthAdjust="spacing" textLength="34.3506" x="2549" y="117.8545">aktiv</text><text fill="#000000" font-family="sans-serif" font-size="14" lengthAdjust="spacing" textLength="85.9824" x="2549" y="134.1514">pauseBarsel</text><text fill="#000000" font-family="sans-serif" font-size="14" lengthAdjust="spacing" textLength="79.7617" x="2549" y="150.4482">pauseOrlov</text><text fill="#000000" font-family="sans-serif" font-size="14" lengthAdjust="spacing" textLength="110.6738" x="2549" y="166.7451">udmeldtAfbrudt</text><text fill="#000000" font-family="sans-serif" font-size="14" lengthAdjust="spacing" textLength="111.959" x="2549" y="183.042">udmeldtBest&#229;et</text><text fill="#000000" font-family="sans-serif" font-size="14" lengthAdjust="spacing" textLength="112.6494" x="2549" y="199.3389">udmeldtBortvist</text><text fill="#000000" font-family="sans-serif" font-size="14" lengthAdjust="spacing" textLength="96.6191" x="2549" y="215.6357">pauseBortvist</text><text fill="#000000" font-family="sans-serif" font-size="14" lengthAdjust="spacing" textLength="150.2061" x="2549" y="231.9326">nedsatStudieaktivitet</text></g><!--class EnkeltfagsindskrivningstypeEnum--><g id="elem_EnkeltfagsindskrivningstypeEnum"><rect codeLine="1369" fill="#90EE90" height="227.5313" id="EnkeltfagsindskrivningstypeEnum" rx="2.5" ry="2.5" style="stroke:#181818;stroke-width:0.5;" width="269.8086" x="1867" y="299.2969"/><ellipse cx="1882" cy="319.4297" fill="#EB937F" rx="11" ry="11" style="stroke:#181818;stroke-width:1.0;"/><path d="M1886.1094,325.4297 L1878.3906,325.4297 L1878.3906,313.0391 L1886.1094,313.0391 L1886.1094,315.1953 L1880.8438,315.1953 L1880.8438,317.8672 L1885.6094,317.8672 L1885.6094,320.0234 L1880.8438,320.0234 L1880.8438,323.2734 L1886.1094,323.2734 L1886.1094,325.4297 Z " fill="#000000"/><text fill="#000000" font-family="sans-serif" font-size="12" font-style="italic" lengthAdjust="spacing" textLength="49.0957" x="1990.3564" y="315.4355">&#171;enum&#187;</text><text fill="#000000" font-family="sans-serif" font-size="14" lengthAdjust="spacing" textLength="237.8086" x="1896" y="331.2607">EnkeltfagsindskrivningstypeEnum</text><line style="stroke:#181818;stroke-width:0.5;" x1="1868" x2="2135.8086" y1="339.5625" y2="339.5625"/><text fill="#000000" font-family="sans-serif" font-size="14" lengthAdjust="spacing" textLength="192.9238" x="1873" y="356.5576">AdgangskursusIndskrivning</text><text fill="#000000" font-family="sans-serif" font-size="14" lengthAdjust="spacing" textLength="208.0928" x="1873" y="372.8545">DeltidsEnkeltfagsIndskrivning</text><text fill="#000000" font-family="sans-serif" font-size="14" lengthAdjust="spacing" textLength="226.7617" x="1873" y="389.1514">FagspecifikkeKurserIndskrivning</text><text fill="#000000" font-family="sans-serif" font-size="14" lengthAdjust="spacing" textLength="168.8203" x="1873" y="405.4482">KorteKurserIndskrivning</text><text fill="#000000" font-family="sans-serif" font-size="14" lengthAdjust="spacing" textLength="121.5703" x="1873" y="421.7451">MeritIndskrivning</text><text fill="#000000" font-family="sans-serif" font-size="14" lengthAdjust="spacing" textLength="181.5352" x="1873" y="438.042">MeritSidefagsIndskrivning</text><text fill="#000000" font-family="sans-serif" font-size="14" lengthAdjust="spacing" textLength="174.8359" x="1873" y="454.3389">MeritTilvalgsIndskrivning</text><text fill="#000000" font-family="sans-serif" font-size="14" lengthAdjust="spacing" textLength="185.0967" x="1873" y="470.6357">S&#230;rskiltModulIndskrivning</text><text fill="#000000" font-family="sans-serif" font-size="14" lengthAdjust="spacing" textLength="154.0342" x="1873" y="486.9326">TompladsIndskrivning</text><text fill="#000000" font-family="sans-serif" font-size="14" lengthAdjust="spacing" textLength="170.0098" x="1873" y="503.2295">UdvekslingsIndskrivning</text><text fill="#000000" font-family="sans-serif" font-size="14" lengthAdjust="spacing" textLength="168.4785" x="1873" y="519.5264">SuppleringsIndskrivning</text></g><!--class UddannelsesindskrivningstypeEnum--><g id="elem_UddannelsesindskrivningstypeEnum"><rect codeLine="1383" fill="#90EE90" height="129.75" id="UddannelsesindskrivningstypeEnum" rx="2.5" ry="2.5" style="stroke:#181818;stroke-width:0.5;" width="286.3516" x="910" y="348.2969"/><ellipse cx="925" cy="368.4297" fill="#EB937F" rx="11" ry="11" style="stroke:#181818;stroke-width:1.0;"/><path d="M929.1094,374.4297 L921.3906,374.4297 L921.3906,362.0391 L929.1094,362.0391 L929.1094,364.1953 L923.8438,364.1953 L923.8438,366.8672 L928.6094,366.8672 L928.6094,369.0234 L923.8438,369.0234 L923.8438,372.2734 L929.1094,372.2734 L929.1094,374.4297 Z " fill="#000000"/><text fill="#000000" font-family="sans-serif" font-size="12" font-style="italic" lengthAdjust="spacing" textLength="49.0957" x="1041.6279" y="364.4355">&#171;enum&#187;</text><text fill="#000000" font-family="sans-serif" font-size="14" lengthAdjust="spacing" textLength="254.3516" x="939" y="380.2607">UddannelsesindskrivningstypeEnum</text><line style="stroke:#181818;stroke-width:0.5;" x1="911" x2="1195.3516" y1="388.5625" y2="388.5625"/><text fill="#000000" font-family="sans-serif" font-size="14" lengthAdjust="spacing" textLength="207.375" x="916" y="405.5576">AdministrativGenindskrivning</text><text fill="#000000" font-family="sans-serif" font-size="14" lengthAdjust="spacing" textLength="180.3252" x="916" y="421.8545">AdministrativOverflytning</text><text fill="#000000" font-family="sans-serif" font-size="14" lengthAdjust="spacing" textLength="167.8838" x="916" y="438.1514">AdministrativStudieskift</text><text fill="#000000" font-family="sans-serif" font-size="14" lengthAdjust="spacing" textLength="97.1523" x="916" y="454.4482">Genoptagelse</text><text fill="#000000" font-family="sans-serif" font-size="14" lengthAdjust="spacing" textLength="149.4404" x="916" y="470.7451">Standardindskrivning</text></g><!--class UdbudtEnkeltfag--><g id="elem_UdbudtEnkeltfag"><rect fill="#F1F1F1" height="32" id="UdbudtEnkeltfag" rx="2.5" ry="2.5" style="stroke:#181818;stroke-width:0.5;" width="149.4824" x="1427.5" y="125.7969"/><ellipse cx="1442.5" cy="141.7969" fill="#ADD1B2" rx="11" ry="11" style="stroke:#181818;stroke-width:1.0;"/><path d="M1445.4688,147.4375 Q1444.8906,147.7344 1444.25,147.875 Q1443.6094,148.0313 1442.9063,148.0313 Q1440.4063,148.0313 1439.0781,146.3906 Q1437.7656,144.7344 1437.7656,141.6094 Q1437.7656,138.4844 1439.0781,136.8281 Q1440.4063,135.1719 1442.9063,135.1719 Q1443.6094,135.1719 1444.25,135.3281 Q1444.9063,135.4844 1445.4688,135.7813 L1445.4688,138.5 Q1444.8438,137.9219 1444.25,137.6563 Q1443.6563,137.375 1443.0313,137.375 Q1441.6875,137.375 1441,138.4531 Q1440.3125,139.5156 1440.3125,141.6094 Q1440.3125,143.7031 1441,144.7813 Q1441.6875,145.8438 1443.0313,145.8438 Q1443.6563,145.8438 1444.25,145.5781 Q1444.8438,145.2969 1445.4688,144.7188 L1445.4688,147.4375 Z " fill="#000000"/><text fill="#000000" font-family="sans-serif" font-size="14" lengthAdjust="spacing" textLength="117.4824" x="1456.5" y="146.6436">UdbudtEnkeltfag</text></g><!--class UdbudtVidereg?endeUddannelse--><g id="elem_UdbudtVidereg&#229;endeUddannelse"><rect fill="#F1F1F1" height="32" id="UdbudtVidereg&#229;endeUddannelse" rx="2.5" ry="2.5" style="stroke:#181818;stroke-width:0.5;" width="263.8135" x="7" y="587.2969"/><ellipse cx="22" cy="603.2969" fill="#ADD1B2" rx="11" ry="11" style="stroke:#181818;stroke-width:1.0;"/><path d="M24.9688,608.9375 Q24.3906,609.2344 23.75,609.375 Q23.1094,609.5313 22.4063,609.5313 Q19.9063,609.5313 18.5781,607.8906 Q17.2656,606.2344 17.2656,603.1094 Q17.2656,599.9844 18.5781,598.3281 Q19.9063,596.6719 22.4063,596.6719 Q23.1094,596.6719 23.75,596.8281 Q24.4063,596.9844 24.9688,597.2813 L24.9688,600 Q24.3438,599.4219 23.75,599.1563 Q23.1563,598.875 22.5313,598.875 Q21.1875,598.875 20.5,599.9531 Q19.8125,601.0156 19.8125,603.1094 Q19.8125,605.2031 20.5,606.2813 Q21.1875,607.3438 22.5313,607.3438 Q23.1563,607.3438 23.75,607.0781 Q24.3438,606.7969 24.9688,606.2188 L24.9688,608.9375 Z " fill="#000000"/><text fill="#000000" font-family="sans-serif" font-size="14" lengthAdjust="spacing" textLength="231.8135" x="36" y="608.1436">UdbudtVidereg&#229;endeUddannelse</text></g><!--class Studieordning--><g id="elem_Studieordning"><rect fill="#F1F1F1" height="32" id="Studieordning" rx="2.5" ry="2.5" style="stroke:#181818;stroke-width:0.5;" width="130.3691" x="306" y="587.2969"/><ellipse cx="321" cy="603.2969" fill="#ADD1B2" rx="11" ry="11" style="stroke:#181818;stroke-width:1.0;"/><path d="M323.9688,608.9375 Q323.3906,609.2344 322.75,609.375 Q322.1094,609.5313 321.4063,609.5313 Q318.9063,609.5313 317.5781,607.8906 Q316.2656,606.2344 316.2656,603.1094 Q316.2656,599.9844 317.5781,598.3281 Q318.9063,596.6719 321.4063,596.6719 Q322.1094,596.6719 322.75,596.8281 Q323.4063,596.9844 323.9688,597.2813 L323.9688,600 Q323.3438,599.4219 322.75,599.1563 Q322.1563,598.875 321.5313,598.875 Q320.1875,598.875 319.5,599.9531 Q318.8125,601.0156 318.8125,603.1094 Q318.8125,605.2031 319.5,606.2813 Q320.1875,607.3438 321.5313,607.3438 Q322.1563,607.3438 322.75,607.0781 Q323.3438,606.7969 323.9688,606.2188 L323.9688,608.9375 Z " fill="#000000"/><text fill="#000000" font-family="sans-serif" font-size="14" lengthAdjust="spacing" textLength="98.3691" x="335" y="608.1436">Studieordning</text></g><!--class Studieforl?b--><g id="elem_Studieforl&#248;b"><rect fill="#F1F1F1" height="32" id="Studieforl&#248;b" rx="2.5" ry="2.5" style="stroke:#181818;stroke-width:0.5;" width="117.2305" x="471.5" y="587.2969"/><ellipse cx="486.5" cy="603.2969" fill="#ADD1B2" rx="11" ry="11" style="stroke:#181818;stroke-width:1.0;"/><path d="M489.4688,608.9375 Q488.8906,609.2344 488.25,609.375 Q487.6094,609.5313 486.9063,609.5313 Q484.4063,609.5313 483.0781,607.8906 Q481.7656,606.2344 481.7656,603.1094 Q481.7656,599.9844 483.0781,598.3281 Q484.4063,596.6719 486.9063,596.6719 Q487.6094,596.6719 488.25,596.8281 Q488.9063,596.9844 489.4688,597.2813 L489.4688,600 Q488.8438,599.4219 488.25,599.1563 Q487.6563,598.875 487.0313,598.875 Q485.6875,598.875 485,599.9531 Q484.3125,601.0156 484.3125,603.1094 Q484.3125,605.2031 485,606.2813 Q485.6875,607.3438 487.0313,607.3438 Q487.6563,607.3438 488.25,607.0781 Q488.8438,606.7969 489.4688,606.2188 L489.4688,608.9375 Z " fill="#000000"/><text fill="#000000" font-family="sans-serif" font-size="14" lengthAdjust="spacing" textLength="85.2305" x="500.5" y="608.1436">Studieforl&#248;b</text></g><!--class PersonligtStudieforl?b--><g id="elem_PersonligtStudieforl&#248;b"><rect fill="#F1F1F1" height="32" id="PersonligtStudieforl&#248;b" rx="2.5" ry="2.5" style="stroke:#181818;stroke-width:0.5;" width="186.9297" x="623.5" y="587.2969"/><ellipse cx="638.5" cy="603.2969" fill="#ADD1B2" rx="11" ry="11" style="stroke:#181818;stroke-width:1.0;"/><path d="M641.4688,608.9375 Q640.8906,609.2344 640.25,609.375 Q639.6094,609.5313 638.9063,609.5313 Q636.4063,609.5313 635.0781,607.8906 Q633.7656,606.2344 633.7656,603.1094 Q633.7656,599.9844 635.0781,598.3281 Q636.4063,596.6719 638.9063,596.6719 Q639.6094,596.6719 640.25,596.8281 Q640.9063,596.9844 641.4688,597.2813 L641.4688,600 Q640.8438,599.4219 640.25,599.1563 Q639.6563,598.875 639.0313,598.875 Q637.6875,598.875 637,599.9531 Q636.3125,601.0156 636.3125,603.1094 Q636.3125,605.2031 637,606.2813 Q637.6875,607.3438 639.0313,607.3438 Q639.6563,607.3438 640.25,607.0781 Q640.8438,606.7969 641.4688,606.2188 L641.4688,608.9375 Z " fill="#000000"/><text fill="#000000" font-family="sans-serif" font-size="14" lengthAdjust="spacing" textLength="154.9297" x="652.5" y="608.1436">PersonligtStudieforl&#248;b</text></g><!--class Eksamensbevis--><g id="elem_Eksamensbevis"><rect fill="#F1F1F1" height="32" id="Eksamensbevis" rx="2.5" ry="2.5" style="stroke:#181818;stroke-width:0.5;" width="140.2129" x="471" y="125.7969"/><ellipse cx="486" cy="141.7969" fill="#ADD1B2" rx="11" ry="11" style="stroke:#181818;stroke-width:1.0;"/><path d="M488.9688,147.4375 Q488.3906,147.7344 487.75,147.875 Q487.1094,148.0313 486.4063,148.0313 Q483.9063,148.0313 482.5781,146.3906 Q481.2656,144.7344 481.2656,141.6094 Q481.2656,138.4844 482.5781,136.8281 Q483.9063,135.1719 486.4063,135.1719 Q487.1094,135.1719 487.75,135.3281 Q488.4063,135.4844 488.9688,135.7813 L488.9688,138.5 Q488.3438,137.9219 487.75,137.6563 Q487.1563,137.375 486.5313,137.375 Q485.1875,137.375 484.5,138.4531 Q483.8125,139.5156 483.8125,141.6094 Q483.8125,143.7031 484.5,144.7813 Q485.1875,145.8438 486.5313,145.8438 Q487.1563,145.8438 487.75,145.5781 Q488.3438,145.2969 488.9688,144.7188 L488.9688,147.4375 Z " fill="#000000"/><text fill="#000000" font-family="sans-serif" font-size="14" lengthAdjust="spacing" textLength="108.2129" x="500" y="146.6436">Eksamensbevis</text></g><!--class Enkeltfagsbevis--><g id="elem_Enkeltfagsbevis"><rect fill="#F1F1F1" height="32" id="Enkeltfagsbevis" rx="2.5" ry="2.5" style="stroke:#181818;stroke-width:0.5;" width="142.4756" x="1612" y="125.7969"/><ellipse cx="1627" cy="141.7969" fill="#ADD1B2" rx="11" ry="11" style="stroke:#181818;stroke-width:1.0;"/><path d="M1629.9688,147.4375 Q1629.3906,147.7344 1628.75,147.875 Q1628.1094,148.0313 1627.4063,148.0313 Q1624.9063,148.0313 1623.5781,146.3906 Q1622.2656,144.7344 1622.2656,141.6094 Q1622.2656,138.4844 1623.5781,136.8281 Q1624.9063,135.1719 1627.4063,135.1719 Q1628.1094,135.1719 1628.75,135.3281 Q1629.4063,135.4844 1629.9688,135.7813 L1629.9688,138.5 Q1629.3438,137.9219 1628.75,137.6563 Q1628.1563,137.375 1627.5313,137.375 Q1626.1875,137.375 1625.5,138.4531 Q1624.8125,139.5156 1624.8125,141.6094 Q1624.8125,143.7031 1625.5,144.7813 Q1626.1875,145.8438 1627.5313,145.8438 Q1628.1563,145.8438 1628.75,145.5781 Q1629.3438,145.2969 1629.9688,144.7188 L1629.9688,147.4375 Z " fill="#000000"/><text fill="#000000" font-family="sans-serif" font-size="14" lengthAdjust="spacing" textLength="110.4756" x="1641" y="146.6436">Enkeltfagsbevis</text></g><!--class Ans?gningOmForh?ndsgodkendelse--><g id="elem_Ans&#248;gningOmForh&#229;ndsgodkendelse"><rect fill="#F1F1F1" height="32" id="Ans&#248;gningOmForh&#229;ndsgodkendelse" rx="2.5" ry="2.5" style="stroke:#181818;stroke-width:0.5;" width="284.4854" x="846" y="587.2969"/><ellipse cx="861" cy="603.2969" fill="#ADD1B2" rx="11" ry="11" style="stroke:#181818;stroke-width:1.0;"/><path d="M863.9688,608.9375 Q863.3906,609.2344 862.75,609.375 Q862.1094,609.5313 861.4063,609.5313 Q858.9063,609.5313 857.5781,607.8906 Q856.2656,606.2344 856.2656,603.1094 Q856.2656,599.9844 857.5781,598.3281 Q858.9063,596.6719 861.4063,596.6719 Q862.1094,596.6719 862.75,596.8281 Q863.4063,596.9844 863.9688,597.2813 L863.9688,600 Q863.3438,599.4219 862.75,599.1563 Q862.1563,598.875 861.5313,598.875 Q860.1875,598.875 859.5,599.9531 Q858.8125,601.0156 858.8125,603.1094 Q858.8125,605.2031 859.5,606.2813 Q860.1875,607.3438 861.5313,607.3438 Q862.1563,607.3438 862.75,607.0781 Q863.3438,606.7969 863.9688,606.2188 L863.9688,608.9375 Z " fill="#000000"/><text fill="#000000" font-family="sans-serif" font-size="14" lengthAdjust="spacing" textLength="252.4854" x="875" y="608.1436">Ans&#248;gningOmForh&#229;ndsgodkendelse</text></g><!--class Meritans?gning--><g id="elem_Meritans&#248;gning"><rect fill="#F1F1F1" height="32" id="Meritans&#248;gning" rx="2.5" ry="2.5" style="stroke:#181818;stroke-width:0.5;" width="140.5479" x="646.5" y="125.7969"/><ellipse cx="661.5" cy="141.7969" fill="#ADD1B2" rx="11" ry="11" style="stroke:#181818;stroke-width:1.0;"/><path d="M664.4688,147.4375 Q663.8906,147.7344 663.25,147.875 Q662.6094,148.0313 661.9063,148.0313 Q659.4063,148.0313 658.0781,146.3906 Q656.7656,144.7344 656.7656,141.6094 Q656.7656,138.4844 658.0781,136.8281 Q659.4063,135.1719 661.9063,135.1719 Q662.6094,135.1719 663.25,135.3281 Q663.9063,135.4844 664.4688,135.7813 L664.4688,138.5 Q663.8438,137.9219 663.25,137.6563 Q662.6563,137.375 662.0313,137.375 Q660.6875,137.375 660,138.4531 Q659.3125,139.5156 659.3125,141.6094 Q659.3125,143.7031 660,144.7813 Q660.6875,145.8438 662.0313,145.8438 Q662.6563,145.8438 663.25,145.5781 Q663.8438,145.2969 664.4688,144.7188 L664.4688,147.4375 Z " fill="#000000"/><text fill="#000000" font-family="sans-serif" font-size="14" lengthAdjust="spacing" textLength="108.5479" x="675.5" y="146.6436">Meritans&#248;gning</text></g><!--class TilbudOmStudiepladsP?Uddannelse--><g id="elem_TilbudOmStudiepladsP&#229;Uddannelse"><rect fill="#F1F1F1" height="32" id="TilbudOmStudiepladsP&#229;Uddannelse" rx="2.5" ry="2.5" style="stroke:#181818;stroke-width:0.5;" width="281.5869" x="823" y="125.7969"/><ellipse cx="838" cy="141.7969" fill="#ADD1B2" rx="11" ry="11" style="stroke:#181818;stroke-width:1.0;"/><path d="M840.9688,147.4375 Q840.3906,147.7344 839.75,147.875 Q839.1094,148.0313 838.4063,148.0313 Q835.9063,148.0313 834.5781,146.3906 Q833.2656,144.7344 833.2656,141.6094 Q833.2656,138.4844 834.5781,136.8281 Q835.9063,135.1719 838.4063,135.1719 Q839.1094,135.1719 839.75,135.3281 Q840.4063,135.4844 840.9688,135.7813 L840.9688,138.5 Q840.3438,137.9219 839.75,137.6563 Q839.1563,137.375 838.5313,137.375 Q837.1875,137.375 836.5,138.4531 Q835.8125,139.5156 835.8125,141.6094 Q835.8125,143.7031 836.5,144.7813 Q837.1875,145.8438 838.5313,145.8438 Q839.1563,145.8438 839.75,145.5781 Q840.3438,145.2969 840.9688,144.7188 L840.9688,147.4375 Z " fill="#000000"/><text fill="#000000" font-family="sans-serif" font-size="14" lengthAdjust="spacing" textLength="249.5869" x="852" y="146.6436">TilbudOmStudiepladsP&#229;Uddannelse</text></g><!--class TilbudOmStudiepladsP?Enkeltfag--><g id="elem_TilbudOmStudiepladsP&#229;Enkeltfag"><rect fill="#F1F1F1" height="32" id="TilbudOmStudiepladsP&#229;Enkeltfag" rx="2.5" ry="2.5" style="stroke:#181818;stroke-width:0.5;" width="265.0439" x="1789.5" y="125.7969"/><ellipse cx="1804.5" cy="141.7969" fill="#ADD1B2" rx="11" ry="11" style="stroke:#181818;stroke-width:1.0;"/><path d="M1807.4688,147.4375 Q1806.8906,147.7344 1806.25,147.875 Q1805.6094,148.0313 1804.9063,148.0313 Q1802.4063,148.0313 1801.0781,146.3906 Q1799.7656,144.7344 1799.7656,141.6094 Q1799.7656,138.4844 1801.0781,136.8281 Q1802.4063,135.1719 1804.9063,135.1719 Q1805.6094,135.1719 1806.25,135.3281 Q1806.9063,135.4844 1807.4688,135.7813 L1807.4688,138.5 Q1806.8438,137.9219 1806.25,137.6563 Q1805.6563,137.375 1805.0313,137.375 Q1803.6875,137.375 1803,138.4531 Q1802.3125,139.5156 1802.3125,141.6094 Q1802.3125,143.7031 1803,144.7813 Q1803.6875,145.8438 1805.0313,145.8438 Q1805.6563,145.8438 1806.25,145.5781 Q1806.8438,145.2969 1807.4688,144.7188 L1807.4688,147.4375 Z " fill="#000000"/><text fill="#000000" font-family="sans-serif" font-size="14" lengthAdjust="spacing" textLength="233.0439" x="1818.5" y="146.6436">TilbudOmStudiepladsP&#229;Enkeltfag</text></g><!--class PersonligtEnkeltfagsforl?b--><g id="elem_PersonligtEnkeltfagsforl&#248;b"><rect fill="#F1F1F1" height="32" id="PersonligtEnkeltfagsforl&#248;b" rx="2.5" ry="2.5" style="stroke:#181818;stroke-width:0.5;" width="215.7979" x="1575" y="587.2969"/><ellipse cx="1590" cy="603.2969" fill="#ADD1B2" rx="11" ry="11" style="stroke:#181818;stroke-width:1.0;"/><path d="M1592.9688,608.9375 Q1592.3906,609.2344 1591.75,609.375 Q1591.1094,609.5313 1590.4063,609.5313 Q1587.9063,609.5313 1586.5781,607.8906 Q1585.2656,606.2344 1585.2656,603.1094 Q1585.2656,599.9844 1586.5781,598.3281 Q1587.9063,596.6719 1590.4063,596.6719 Q1591.1094,596.6719 1591.75,596.8281 Q1592.4063,596.9844 1592.9688,597.2813 L1592.9688,600 Q1592.3438,599.4219 1591.75,599.1563 Q1591.1563,598.875 1590.5313,598.875 Q1589.1875,598.875 1588.5,599.9531 Q1587.8125,601.0156 1587.8125,603.1094 Q1587.8125,605.2031 1588.5,606.2813 Q1589.1875,607.3438 1590.5313,607.3438 Q1591.1563,607.3438 1591.75,607.0781 Q1592.3438,606.7969 1592.9688,606.2188 L1592.9688,608.9375 Z " fill="#000000"/><text fill="#000000" font-family="sans-serif" font-size="14" lengthAdjust="spacing" textLength="183.7979" x="1604" y="608.1436">PersonligtEnkeltfagsforl&#248;b</text></g><!--class EksterntOpholdsans?gning--><g id="elem_EksterntOpholdsans&#248;gning"><rect fill="#F1F1F1" height="32" id="EksterntOpholdsans&#248;gning" rx="2.5" ry="2.5" style="stroke:#181818;stroke-width:0.5;" width="220.6035" x="1165.5" y="587.2969"/><ellipse cx="1180.5" cy="603.2969" fill="#ADD1B2" rx="11" ry="11" style="stroke:#181818;stroke-width:1.0;"/><path d="M1183.4688,608.9375 Q1182.8906,609.2344 1182.25,609.375 Q1181.6094,609.5313 1180.9063,609.5313 Q1178.4063,609.5313 1177.0781,607.8906 Q1175.7656,606.2344 1175.7656,603.1094 Q1175.7656,599.9844 1177.0781,598.3281 Q1178.4063,596.6719 1180.9063,596.6719 Q1181.6094,596.6719 1182.25,596.8281 Q1182.9063,596.9844 1183.4688,597.2813 L1183.4688,600 Q1182.8438,599.4219 1182.25,599.1563 Q1181.6563,598.875 1181.0313,598.875 Q1179.6875,598.875 1179,599.9531 Q1178.3125,601.0156 1178.3125,603.1094 Q1178.3125,605.2031 1179,606.2813 Q1179.6875,607.3438 1181.0313,607.3438 Q1181.6563,607.3438 1182.25,607.0781 Q1182.8438,606.7969 1183.4688,606.2188 L1183.4688,608.9375 Z " fill="#000000"/><text fill="#000000" font-family="sans-serif" font-size="14" lengthAdjust="spacing" textLength="188.6035" x="1194.5" y="608.1436">EksterntOpholdsans&#248;gning</text></g><!--class Udvekslingsaftale--><g id="elem_Udvekslingsaftale"><rect fill="#F1F1F1" height="32" id="Udvekslingsaftale" rx="2.5" ry="2.5" style="stroke:#181818;stroke-width:0.5;" width="156.3457" x="1826" y="587.2969"/><ellipse cx="1841" cy="603.2969" fill="#ADD1B2" rx="11" ry="11" style="stroke:#181818;stroke-width:1.0;"/><path d="M1843.9688,608.9375 Q1843.3906,609.2344 1842.75,609.375 Q1842.1094,609.5313 1841.4063,609.5313 Q1838.9063,609.5313 1837.5781,607.8906 Q1836.2656,606.2344 1836.2656,603.1094 Q1836.2656,599.9844 1837.5781,598.3281 Q1838.9063,596.6719 1841.4063,596.6719 Q1842.1094,596.6719 1842.75,596.8281 Q1843.4063,596.9844 1843.9688,597.2813 L1843.9688,600 Q1843.3438,599.4219 1842.75,599.1563 Q1842.1563,598.875 1841.5313,598.875 Q1840.1875,598.875 1839.5,599.9531 Q1838.8125,601.0156 1838.8125,603.1094 Q1838.8125,605.2031 1839.5,606.2813 Q1840.1875,607.3438 1841.5313,607.3438 Q1842.1563,607.3438 1842.75,607.0781 Q1843.3438,606.7969 1843.9688,606.2188 L1843.9688,608.9375 Z " fill="#000000"/><text fill="#000000" font-family="sans-serif" font-size="14" lengthAdjust="spacing" textLength="124.3457" x="1855" y="608.1436">Udvekslingsaftale</text></g><!--link UdbudtEnkeltfag to IndskrivningTilEnkeltfag--><g id="link_UdbudtEnkeltfag_IndskrivningTilEnkeltfag"><path codeLine="1391" d="M1555.25,157.9669 C1555.25,198.7769 1555.25,307.0769 1555.25,368.7269 " fill="none" id="UdbudtEnkeltfag-IndskrivningTilEnkeltfag" style="stroke:#181818;stroke-width:1.0;"/><text fill="#000000" font-family="sans-serif" font-size="13" lengthAdjust="spacing" textLength="88.8862" x="1466.25" y="259.4138">indskrevet p&#229;</text><text fill="#000000" font-family="sans-serif" font-size="13" lengthAdjust="spacing" textLength="23.0356" x="1546.0057" y="177.8965">1..*</text><text fill="#000000" font-family="sans-serif" font-size="13" lengthAdjust="spacing" textLength="23.0356" x="1510.9011" y="357.8391">0..*</text></g><!--link IndskrivningTilVidereg?endeUddannelse to UdbudtVidereg?endeUddannelse--><g id="link_IndskrivningTilVidereg&#229;endeUddannelse_UdbudtVidereg&#229;endeUddannelse"><path codeLine="1392" d="M559.44,396.2969 C388.29,396.2969 139,396.2969 139,396.2969 C139,396.2969 139,538.2569 139,587.0569 " fill="none" id="IndskrivningTilVidereg&#229;endeUddannelse-UdbudtVidereg&#229;endeUddannelse" style="stroke:#181818;stroke-width:1.0;"/><text fill="#000000" font-family="sans-serif" font-size="13" lengthAdjust="spacing" textLength="88.8862" x="164.84" y="392.3638">indskrevet p&#229;</text><text fill="#000000" font-family="sans-serif" font-size="13" lengthAdjust="spacing" textLength="23.0356" x="528.2613" y="392.1757">0..*</text><text fill="#000000" font-family="sans-serif" font-size="13" lengthAdjust="spacing" textLength="8.271" x="129.7508" y="576.2819">1</text></g><!--link IndskrivningTilVidereg?endeUddannelse to Studieordning--><g id="link_IndskrivningTilVidereg&#229;endeUddannelse_Studieordning"><path codeLine="1393" d="M559.44,431.2969 C468.11,431.2969 371,431.2969 371,431.2969 C371,431.2969 371,544.2969 371,587.1169 " fill="none" id="IndskrivningTilVidereg&#229;endeUddannelse-Studieordning" style="stroke:#181818;stroke-width:1.0;"/><text fill="#000000" font-family="sans-serif" font-size="13" lengthAdjust="spacing" textLength="84.9888" x="302.31" y="427.3638">indskrevet til</text><text fill="#000000" font-family="sans-serif" font-size="13" lengthAdjust="spacing" textLength="23.0356" x="528.2613" y="428.871">0..*</text><text fill="#000000" font-family="sans-serif" font-size="13" lengthAdjust="spacing" textLength="8.271" x="361.6587" y="576.3618">1</text></g><!--link IndskrivningTilVidereg?endeUddannelse to Studieforl?b--><g id="link_IndskrivningTilVidereg&#229;endeUddannelse_Studieforl&#248;b"><path codeLine="1394" d="M574,465.9669 C574,506.8269 574,560.8069 574,587.2769 " fill="none" id="IndskrivningTilVidereg&#229;endeUddannelse-Studieforl&#248;b" style="stroke:#181818;stroke-width:1.0;"/><text fill="#000000" font-family="sans-serif" font-size="13" lengthAdjust="spacing" textLength="74.4453" x="499" y="522.6838">valgt forl&#248;b</text><text fill="#000000" font-family="sans-serif" font-size="13" lengthAdjust="spacing" textLength="23.0356" x="530.2671" y="486.1154">0..*</text><text fill="#000000" font-family="sans-serif" font-size="13" lengthAdjust="spacing" textLength="24.8066" x="561.099" y="576.2816">0..1</text></g><!--link IndskrivningTilVidereg?endeUddannelse to PersonligtStudieforl?b--><g id="link_IndskrivningTilVidereg&#229;endeUddannelse_PersonligtStudieforl&#248;b"><path codeLine="1395" d="M717,465.9669 C717,506.8269 717,560.8069 717,587.2769 " fill="none" id="IndskrivningTilVidereg&#229;endeUddannelse-PersonligtStudieforl&#248;b" style="stroke:#181818;stroke-width:1.0;"/><text fill="#000000" font-family="sans-serif" font-size="13" lengthAdjust="spacing" textLength="8.271" x="708.5064" y="486.1154">1</text><text fill="#000000" font-family="sans-serif" font-size="13" lengthAdjust="spacing" textLength="8.271" x="707.6837" y="576.2816">1</text></g><!--link Eksamensbevis to IndskrivningTilVidereg?endeUddannelse--><g id="link_Eksamensbevis_IndskrivningTilVidereg&#229;endeUddannelse"><path codeLine="1396" d="M585.25,157.9669 C585.25,197.0669 585.25,298.1169 585.25,360.7269 " fill="none" id="Eksamensbevis-IndskrivningTilVidereg&#229;endeUddannelse" style="stroke:#181818;stroke-width:1.0;"/><text fill="#000000" font-family="sans-serif" font-size="13" lengthAdjust="spacing" textLength="24.8066" x="572.0312" y="177.8965">0..1</text><text fill="#000000" font-family="sans-serif" font-size="13" lengthAdjust="spacing" textLength="8.271" x="559.0525" y="349.7182">1</text></g><!--link Enkeltfagsbevis to IndskrivningTilEnkeltfag--><g id="link_Enkeltfagsbevis_IndskrivningTilEnkeltfag"><path codeLine="1397" d="M1683,157.9669 C1683,198.7769 1683,307.0769 1683,368.7269 " fill="none" id="Enkeltfagsbevis-IndskrivningTilEnkeltfag" style="stroke:#181818;stroke-width:1.0;"/><text fill="#000000" font-family="sans-serif" font-size="13" lengthAdjust="spacing" textLength="24.8066" x="1655.0798" y="177.8965">0..1</text><text fill="#000000" font-family="sans-serif" font-size="13" lengthAdjust="spacing" textLength="8.271" x="1674.3793" y="357.8391">1</text></g><!--link IndskrivningTilVidereg?endeUddannelse to Ans?gningOmForh?ndsgodkendelse--><g id="link_IndskrivningTilVidereg&#229;endeUddannelse_Ans&#248;gningOmForh&#229;ndsgodkendelse"><path codeLine="1398" d="M853.12,465.9669 C853.12,506.8269 853.12,560.8069 853.12,587.2769 " fill="none" id="IndskrivningTilVidereg&#229;endeUddannelse-Ans&#248;gningOmForh&#229;ndsgodkendelse" style="stroke:#181818;stroke-width:1.0;"/><text fill="#000000" font-family="sans-serif" font-size="13" lengthAdjust="spacing" textLength="52.5269" x="800.12" y="522.6838">ans&#248;ger</text><text fill="#000000" font-family="sans-serif" font-size="13" lengthAdjust="spacing" textLength="8.271" x="862.9175" y="486.1154">1</text><text fill="#000000" font-family="sans-serif" font-size="13" lengthAdjust="spacing" textLength="23.0356" x="815.0014" y="581.9251">0..*</text></g><!--link Meritans?gning to IndskrivningTilVidereg?endeUddannelse--><g id="link_Meritans&#248;gning_IndskrivningTilVidereg&#229;endeUddannelse"><path codeLine="1399" d="M717,157.9669 C717,197.0669 717,298.1169 717,360.7269 " fill="none" id="Meritans&#248;gning-IndskrivningTilVidereg&#229;endeUddannelse" style="stroke:#181818;stroke-width:1.0;"/><text fill="#000000" font-family="sans-serif" font-size="13" lengthAdjust="spacing" textLength="52.5269" x="664" y="255.4138">ans&#248;ger</text><text fill="#000000" font-family="sans-serif" font-size="13" lengthAdjust="spacing" textLength="23.0356" x="690.2714" y="177.8965">0..*</text><text fill="#000000" font-family="sans-serif" font-size="13" lengthAdjust="spacing" textLength="8.271" x="708.5064" y="349.7182">1</text></g><!--link TilbudOmStudiepladsP?Uddannelse to IndskrivningTilVidereg?endeUddannelse--><g id="link_TilbudOmStudiepladsP&#229;Uddannelse_IndskrivningTilVidereg&#229;endeUddannelse"><path codeLine="1400" d="M848.75,157.9669 C848.75,197.0669 848.75,298.1169 848.75,360.7269 " fill="none" id="TilbudOmStudiepladsP&#229;Uddannelse-IndskrivningTilVidereg&#229;endeUddannelse" style="stroke:#181818;stroke-width:1.0;"/><text fill="#000000" font-family="sans-serif" font-size="13" lengthAdjust="spacing" textLength="107.8721" x="740.75" y="255.4138">accept medf&#248;rer</text><text fill="#000000" font-family="sans-serif" font-size="13" lengthAdjust="spacing" textLength="8.271" x="807.3071" y="176.7096">1</text><text fill="#000000" font-family="sans-serif" font-size="13" lengthAdjust="spacing" textLength="24.8066" x="840.9213" y="349.7182">0..1</text></g><!--link TilbudOmStudiepladsP?Enkeltfag to IndskrivningTilEnkeltfag--><g id="link_TilbudOmStudiepladsP&#229;Enkeltfag_IndskrivningTilEnkeltfag"><path codeLine="1401" d="M1810.75,157.9669 C1810.75,198.7769 1810.75,307.0769 1810.75,368.7269 " fill="none" id="TilbudOmStudiepladsP&#229;Enkeltfag-IndskrivningTilEnkeltfag" style="stroke:#181818;stroke-width:1.0;"/><text fill="#000000" font-family="sans-serif" font-size="13" lengthAdjust="spacing" textLength="107.8721" x="1702.75" y="259.4138">accept medf&#248;rer</text><text fill="#000000" font-family="sans-serif" font-size="13" lengthAdjust="spacing" textLength="23.0356" x="1757.8287" y="175.8195">0..*</text><text fill="#000000" font-family="sans-serif" font-size="13" lengthAdjust="spacing" textLength="24.8066" x="1804.507" y="357.8391">0..1</text></g><!--link IndskrivningTilEnkeltfag to PersonligtEnkeltfagsforl?b--><g id="link_IndskrivningTilEnkeltfag_PersonligtEnkeltfagsforl&#248;b"><path codeLine="1402" d="M1683,457.8469 C1683,499.3069 1683,558.8269 1683,587.1469 " fill="none" id="IndskrivningTilEnkeltfag-PersonligtEnkeltfagsforl&#248;b" style="stroke:#181818;stroke-width:1.0;"/><text fill="#000000" font-family="sans-serif" font-size="13" lengthAdjust="spacing" textLength="8.271" x="1674.3793" y="477.9025">1</text><text fill="#000000" font-family="sans-serif" font-size="13" lengthAdjust="spacing" textLength="8.271" x="1673.7063" y="576.1069">1</text></g><!--link IndskrivningTilVidereg?endeUddannelse to EksterntOpholdsans?gning--><g id="link_IndskrivningTilVidereg&#229;endeUddannelse_EksterntOpholdsans&#248;gning"><path codeLine="1403" d="M860.25,466.0269 C860.25,489.2269 860.25,511.2969 860.25,511.2969 C860.25,511.2969 1180.75,511.2969 1180.75,511.2969 C1180.75,511.2969 1180.75,560.9169 1180.75,587.2669 " fill="none" id="IndskrivningTilVidereg&#229;endeUddannelse-EksterntOpholdsans&#248;gning" style="stroke:#181818;stroke-width:1.0;"/><text fill="#000000" font-family="sans-serif" font-size="13" lengthAdjust="spacing" textLength="8.271" x="880.0806" y="486.1835">1</text><text fill="#000000" font-family="sans-serif" font-size="13" lengthAdjust="spacing" textLength="23.0356" x="1134.4457" y="579.2011">0..*</text></g><!--link AdgangsgivendeErhvervserfaring to Adgangsgrundlag--><g id="link_AdgangsgivendeErhvervserfaring_Adgangsgrundlag"><path codeLine="1404" d="M2299,186.3269 C2299,248.0069 2299,356.4469 2299,397.2069 " fill="none" id="AdgangsgivendeErhvervserfaring-Adgangsgrundlag" style="stroke:#181818;stroke-width:1.0;"/><text fill="#000000" font-family="sans-serif" font-size="13" lengthAdjust="spacing" textLength="23.0356" x="2274.2407" y="206.3794">0..*</text><text fill="#000000" font-family="sans-serif" font-size="13" lengthAdjust="spacing" textLength="8.271" x="2289.7379" y="386.1875">1</text></g><!--link IndskrivningTilEnkeltfag to Udvekslingsaftale--><g id="link_IndskrivningTilEnkeltfag_Udvekslingsaftale"><path codeLine="1405" d="M1808.5,457.8469 C1808.5,513.9969 1808.5,603.2969 1808.5,603.2969 C1808.5,603.2969 1815.44,603.2969 1825.57,603.2969 " fill="none" id="IndskrivningTilEnkeltfag-Udvekslingsaftale" style="stroke:#181818;stroke-width:1.0;"/><text fill="#000000" font-family="sans-serif" font-size="13" lengthAdjust="spacing" textLength="38.0732" x="1769.5" y="535.1738">under</text><text fill="#000000" font-family="sans-serif" font-size="13" lengthAdjust="spacing" textLength="23.0356" x="1802.93" y="477.9025">0..*</text><text fill="#000000" font-family="sans-serif" font-size="13" lengthAdjust="spacing" textLength="24.8066" x="1793.2547" y="599.6785">0..1</text></g><!--link IndskrivningTilVidereg?endeUddannelse to Indskrivning--><g id="link_IndskrivningTilVidereg&#229;endeUddannelse_Indskrivning"><path codeLine="1406" d="M867.38,466.1569 C867.38,482.0269 867.38,495.2969 867.38,495.2969 C867.38,495.2969 1480.75,495.2969 1480.75,495.2969 C1480.75,495.2969 1480.75,538.6769 1480.75,568.8969 " fill="none" id="IndskrivningTilVidereg&#229;endeUddannelse-to-Indskrivning" style="stroke:#181818;stroke-width:1.0;"/><polygon fill="none" points="1480.75,586.8969,1486.75,568.8969,1474.75,568.8969,1480.75,586.8969" style="stroke:#181818;stroke-width:1.0;"/></g><!--link IndskrivningTilEnkeltfag to Indskrivning--><g id="link_IndskrivningTilEnkeltfag_Indskrivning"><path codeLine="1407" d="M1557.5,457.8469 C1557.5,513.9969 1557.5,603.2969 1557.5,603.2969 C1557.5,603.2969 1568.21,603.2969 1558.14,603.2969 " fill="none" id="IndskrivningTilEnkeltfag-to-Indskrivning" style="stroke:#181818;stroke-width:1.0;"/><polygon fill="none" points="1540.14,603.2969,1558.14,609.2969,1558.14,597.2969,1540.14,603.2969" style="stroke:#181818;stroke-width:1.0;"/></g><!--link IndskrivningTilEnkeltfag to EnkeltfagsindskrivningstypeEnum--><g id="link_IndskrivningTilEnkeltfag_EnkeltfagsindskrivningstypeEnum"><path codeLine="1408" d="M1832.23,413.2969 C1843.74,413.2969 1849.32,413.2969 1860.74,413.2969 " fill="none" id="IndskrivningTilEnkeltfag-to-EnkeltfagsindskrivningstypeEnum" style="stroke:#181818;stroke-width:1.0;stroke-dasharray:7.0,7.0;"/><polygon fill="#181818" points="1866.74,413.2969,1857.74,409.2969,1861.74,413.2969,1857.74,417.2969,1866.74,413.2969" style="stroke:#181818;stroke-width:1.0;"/></g><!--link IndskrivningTilVidereg?endeUddannelse to UddannelsesindskrivningstypeEnum--><g id="link_IndskrivningTilVidereg&#229;endeUddannelse_UddannelsesindskrivningstypeEnum"><path codeLine="1409" d="M874.67,413.2969 C886.43,413.2969 892.27,413.2969 903.94,413.2969 " fill="none" id="IndskrivningTilVidereg&#229;endeUddannelse-to-UddannelsesindskrivningstypeEnum" style="stroke:#181818;stroke-width:1.0;stroke-dasharray:7.0,7.0;"/><polygon fill="#181818" points="909.94,413.2969,900.94,409.2969,904.94,413.2969,900.94,417.2969,909.94,413.2969" style="stroke:#181818;stroke-width:1.0;"/></g><!--SRC=[PSwn2i8m483XFKznnLrGrz919tVtaYP7UlJk4Yw9KCHtrr7mNx_bVr1ZXFDycY_pNMFTZ9vAcjnA4G6bj1q4PK6hhcwanPiNO59iUq78rjRy0u5zhV1oyEtgmvOiTustpDd64RNBDC61AQqj6QAwjtC3QU0UiVO5n9CUInSU_ey-]--></g></svg>