<svg xmlns="http://www.w3.org/2000/svg" xmlns:xlink="http://www.w3.org/1999/xlink" contentStyleType="text/css" height="500px" preserveAspectRatio="none" style="width:2741px;height:500px;background:#FFFFFF;" version="1.1" viewBox="0 0 2741 500" width="2741px" zoomAndPan="magnify"><defs/><g><text fill="#000000" font-family="sans-serif" font-size="14" font-weight="bold" lengthAdjust="spacing" textLength="125.624" x="1300.8774" y="22.9951">2_3_Studerende</text><!--class Studerende--><g id="elem_Studerende"><rect codeLine="887" fill="#F1F1F1" height="121.4844" id="Studerende" rx="2.5" ry="2.5" style="stroke:#181818;stroke-width:0.5;" width="273.8779" x="2209" y="156.7969"/><ellipse cx="2300.9434" cy="172.7969" fill="#ADD1B2" rx="11" ry="11" style="stroke:#181818;stroke-width:1.0;"/><path d="M2303.9121,178.4375 Q2303.334,178.7344 2302.6934,178.875 Q2302.0527,179.0313 2301.3496,179.0313 Q2298.8496,179.0313 2297.5215,177.3906 Q2296.209,175.7344 2296.209,172.6094 Q2296.209,169.4844 2297.5215,167.8281 Q2298.8496,166.1719 2301.3496,166.1719 Q2302.0527,166.1719 2302.6934,166.3281 Q2303.3496,166.4844 2303.9121,166.7813 L2303.9121,169.5 Q2303.2871,168.9219 2302.6934,168.6563 Q2302.0996,168.375 2301.4746,168.375 Q2300.1309,168.375 2299.4434,169.4531 Q2298.7559,170.5156 2298.7559,172.6094 Q2298.7559,174.7031 2299.4434,175.7813 Q2300.1309,176.8438 2301.4746,176.8438 Q2302.0996,176.8438 2302.6934,176.5781 Q2303.2871,176.2969 2303.9121,175.7188 L2303.9121,178.4375 Z " fill="#000000"/><text fill="#000000" font-family="sans-serif" font-size="14" lengthAdjust="spacing" textLength="81.4912" x="2321.4434" y="177.6436">Studerende</text><line style="stroke:#181818;stroke-width:0.5;" x1="2210" x2="2481.8779" y1="188.7969" y2="188.7969"/><text fill="#000000" font-family="sans-serif" font-size="14" lengthAdjust="spacing" textLength="89.6396" x="2215" y="205.792">studiemail: ?</text><a href="1..1" target="_top" title="1..1" xlink:actuate="onRequest" xlink:href="1..1" xlink:show="new" xlink:title="1..1" xlink:type="simple"><text fill="#0000FF" font-family="sans-serif" font-size="14" lengthAdjust="spacing" text-decoration="underline" textLength="26.7148" x="2309.0898" y="205.792">1..1</text></a><text fill="#000000" font-family="sans-serif" font-size="14" lengthAdjust="spacing" textLength="73.876" x="2215" y="222.0889">branche: ?</text><a href="0..1" target="_top" title="0..1" xlink:actuate="onRequest" xlink:href="0..1" xlink:show="new" xlink:title="0..1" xlink:type="simple"><text fill="#0000FF" font-family="sans-serif" font-size="14" lengthAdjust="spacing" text-decoration="underline" textLength="26.7148" x="2293.3262" y="222.0889">0..1</text></a><text fill="#000000" font-family="sans-serif" font-size="14" lengthAdjust="spacing" textLength="230.7129" x="2215" y="238.3857">/studieforholdsstadie: Calculated</text><a href="1..1" target="_top" title="1..1" xlink:actuate="onRequest" xlink:href="1..1" xlink:show="new" xlink:title="1..1" xlink:type="simple"><text fill="#0000FF" font-family="sans-serif" font-size="14" lengthAdjust="spacing" text-decoration="underline" textLength="26.7148" x="2450.1631" y="238.3857">1..1</text></a><text fill="#000000" font-family="sans-serif" font-size="14" lengthAdjust="spacing" textLength="35.916" x="2215" y="254.6826">&#171;BK&#187;</text><text fill="#000000" font-family="sans-serif" font-size="14" lengthAdjust="spacing" textLength="177.0918" x="2215" y="270.9795">studienummer: AutoNum</text><a href="1..1" target="_top" title="1..1" xlink:actuate="onRequest" xlink:href="1..1" xlink:show="new" xlink:title="1..1" xlink:type="simple"><text fill="#0000FF" font-family="sans-serif" font-size="14" lengthAdjust="spacing" text-decoration="underline" textLength="26.7148" x="2396.542" y="270.9795">1..1</text></a></g><!--class Ansat--><g id="elem_Ansat"><rect codeLine="895" fill="#F1F1F1" height="32" id="Ansat" rx="2.5" ry="2.5" style="stroke:#181818;stroke-width:0.5;" width="71.8125" x="943" y="450.2969"/><ellipse cx="958" cy="466.2969" fill="#ADD1B2" rx="11" ry="11" style="stroke:#181818;stroke-width:1.0;"/><path d="M960.9688,471.9375 Q960.3906,472.2344 959.75,472.375 Q959.1094,472.5313 958.4063,472.5313 Q955.9063,472.5313 954.5781,470.8906 Q953.2656,469.2344 953.2656,466.1094 Q953.2656,462.9844 954.5781,461.3281 Q955.9063,459.6719 958.4063,459.6719 Q959.1094,459.6719 959.75,459.8281 Q960.4063,459.9844 960.9688,460.2813 L960.9688,463 Q960.3438,462.4219 959.75,462.1563 Q959.1563,461.875 958.5313,461.875 Q957.1875,461.875 956.5,462.9531 Q955.8125,464.0156 955.8125,466.1094 Q955.8125,468.2031 956.5,469.2813 Q957.1875,470.3438 958.5313,470.3438 Q959.1563,470.3438 959.75,470.0781 Q960.3438,469.7969 960.9688,469.2188 L960.9688,471.9375 Z " fill="#000000"/><text fill="#000000" font-family="sans-serif" font-size="14" lengthAdjust="spacing" textLength="39.8125" x="972" y="471.1436">Ansat</text></g><!--class Ans?ger--><g id="elem_Ans&#248;ger"><rect codeLine="898" fill="#F1F1F1" height="32" id="Ans&#248;ger" rx="2.5" ry="2.5" style="stroke:#181818;stroke-width:0.5;" width="89.5654" x="2054" y="201.2969"/><ellipse cx="2069" cy="217.2969" fill="#ADD1B2" rx="11" ry="11" style="stroke:#181818;stroke-width:1.0;"/><path d="M2071.9688,222.9375 Q2071.3906,223.2344 2070.75,223.375 Q2070.1094,223.5313 2069.4063,223.5313 Q2066.9063,223.5313 2065.5781,221.8906 Q2064.2656,220.2344 2064.2656,217.1094 Q2064.2656,213.9844 2065.5781,212.3281 Q2066.9063,210.6719 2069.4063,210.6719 Q2070.1094,210.6719 2070.75,210.8281 Q2071.4063,210.9844 2071.9688,211.2813 L2071.9688,214 Q2071.3438,213.4219 2070.75,213.1563 Q2070.1563,212.875 2069.5313,212.875 Q2068.1875,212.875 2067.5,213.9531 Q2066.8125,215.0156 2066.8125,217.1094 Q2066.8125,219.2031 2067.5,220.2813 Q2068.1875,221.3438 2069.5313,221.3438 Q2070.1563,221.3438 2070.75,221.0781 Q2071.3438,220.7969 2071.9688,220.2188 L2071.9688,222.9375 Z " fill="#000000"/><text fill="#000000" font-family="sans-serif" font-size="14" lengthAdjust="spacing" textLength="57.5654" x="2083" y="222.1436">Ans&#248;ger</text></g><!--class EuropeanStudentIdentifier--><g id="elem_EuropeanStudentIdentifier"><rect codeLine="901" fill="#F1F1F1" height="32" id="EuropeanStudentIdentifier" rx="2.5" ry="2.5" style="stroke:#181818;stroke-width:0.5;" width="217.1719" x="2105.5" y="44.2969"/><ellipse cx="2120.5" cy="60.2969" fill="#ADD1B2" rx="11" ry="11" style="stroke:#181818;stroke-width:1.0;"/><path d="M2123.4688,65.9375 Q2122.8906,66.2344 2122.25,66.375 Q2121.6094,66.5313 2120.9063,66.5313 Q2118.4063,66.5313 2117.0781,64.8906 Q2115.7656,63.2344 2115.7656,60.1094 Q2115.7656,56.9844 2117.0781,55.3281 Q2118.4063,53.6719 2120.9063,53.6719 Q2121.6094,53.6719 2122.25,53.8281 Q2122.9063,53.9844 2123.4688,54.2813 L2123.4688,57 Q2122.8438,56.4219 2122.25,56.1563 Q2121.6563,55.875 2121.0313,55.875 Q2119.6875,55.875 2119,56.9531 Q2118.3125,58.0156 2118.3125,60.1094 Q2118.3125,62.2031 2119,63.2813 Q2119.6875,64.3438 2121.0313,64.3438 Q2121.6563,64.3438 2122.25,64.0781 Q2122.8438,63.7969 2123.4688,63.2188 L2123.4688,65.9375 Z " fill="#000000"/><text fill="#000000" font-family="sans-serif" font-size="14" lengthAdjust="spacing" textLength="185.1719" x="2134.5" y="65.1436">EuropeanStudentIdentifier</text></g><!--class StudieforholdsstadieEnum--><g id="elem_StudieforholdsstadieEnum"><rect codeLine="904" fill="#90EE90" height="162.3438" id="StudieforholdsstadieEnum" rx="2.5" ry="2.5" style="stroke:#181818;stroke-width:0.5;" width="216.3789" x="2518" y="136.2969"/><ellipse cx="2533" cy="156.4297" fill="#EB937F" rx="11" ry="11" style="stroke:#181818;stroke-width:1.0;"/><path d="M2537.1094,162.4297 L2529.3906,162.4297 L2529.3906,150.0391 L2537.1094,150.0391 L2537.1094,152.1953 L2531.8438,152.1953 L2531.8438,154.8672 L2536.6094,154.8672 L2536.6094,157.0234 L2531.8438,157.0234 L2531.8438,160.2734 L2537.1094,160.2734 L2537.1094,162.4297 Z " fill="#000000"/><text fill="#000000" font-family="sans-serif" font-size="12" font-style="italic" lengthAdjust="spacing" textLength="49.0957" x="2614.6416" y="152.4355">&#171;enum&#187;</text><text fill="#000000" font-family="sans-serif" font-size="14" lengthAdjust="spacing" textLength="184.3789" x="2547" y="168.2607">StudieforholdsstadieEnum</text><line style="stroke:#181818;stroke-width:0.5;" x1="2519" x2="2733.3789" y1="176.5625" y2="176.5625"/><text fill="#000000" font-family="sans-serif" font-size="14" lengthAdjust="spacing" textLength="116.8398" x="2524" y="193.5576">AktivStuderende</text><text fill="#000000" font-family="sans-serif" font-size="14" lengthAdjust="spacing" textLength="161.499" x="2524" y="209.8545">KommendeStuderende</text><text fill="#000000" font-family="sans-serif" font-size="14" lengthAdjust="spacing" textLength="69.5488" x="2524" y="226.1514">Dimittend</text><text fill="#000000" font-family="sans-serif" font-size="14" lengthAdjust="spacing" textLength="134.0186" x="2524" y="242.4482">MidlertidigtBortvist</text><text fill="#000000" font-family="sans-serif" font-size="14" lengthAdjust="spacing" textLength="142.4678" x="2524" y="258.7451">TidligereStuderende</text><text fill="#000000" font-family="sans-serif" font-size="14" lengthAdjust="spacing" textLength="37.5156" x="2524" y="275.042">Orlov</text><text fill="#000000" font-family="sans-serif" font-size="14" lengthAdjust="spacing" textLength="131.25" x="2524" y="291.3389">PermanentBortvist</text></g><!--class Indskrivning--><g id="elem_Indskrivning"><rect fill="#F1F1F1" height="32" id="Indskrivning" rx="2.5" ry="2.5" style="stroke:#181818;stroke-width:0.5;" width="117.7432" x="2317" y="358.2969"/><ellipse cx="2332" cy="374.2969" fill="#ADD1B2" rx="11" ry="11" style="stroke:#181818;stroke-width:1.0;"/><path d="M2334.9688,379.9375 Q2334.3906,380.2344 2333.75,380.375 Q2333.1094,380.5313 2332.4063,380.5313 Q2329.9063,380.5313 2328.5781,378.8906 Q2327.2656,377.2344 2327.2656,374.1094 Q2327.2656,370.9844 2328.5781,369.3281 Q2329.9063,367.6719 2332.4063,367.6719 Q2333.1094,367.6719 2333.75,367.8281 Q2334.4063,367.9844 2334.9688,368.2813 L2334.9688,371 Q2334.3438,370.4219 2333.75,370.1563 Q2333.1563,369.875 2332.5313,369.875 Q2331.1875,369.875 2330.5,370.9531 Q2329.8125,372.0156 2329.8125,374.1094 Q2329.8125,376.2031 2330.5,377.2813 Q2331.1875,378.3438 2332.5313,378.3438 Q2333.1563,378.3438 2333.75,378.0781 Q2334.3438,377.7969 2334.9688,377.2188 L2334.9688,379.9375 Z " fill="#000000"/><text fill="#000000" font-family="sans-serif" font-size="14" lengthAdjust="spacing" textLength="85.7432" x="2346" y="379.1436">Indskrivning</text></g><!--class Pr?vetilmelding--><g id="elem_Pr&#248;vetilmelding"><rect fill="#F1F1F1" height="32" id="Pr&#248;vetilmelding" rx="2.5" ry="2.5" style="stroke:#181818;stroke-width:0.5;" width="141.6074" x="7" y="358.2969"/><ellipse cx="22" cy="374.2969" fill="#ADD1B2" rx="11" ry="11" style="stroke:#181818;stroke-width:1.0;"/><path d="M24.9688,379.9375 Q24.3906,380.2344 23.75,380.375 Q23.1094,380.5313 22.4063,380.5313 Q19.9063,380.5313 18.5781,378.8906 Q17.2656,377.2344 17.2656,374.1094 Q17.2656,370.9844 18.5781,369.3281 Q19.9063,367.6719 22.4063,367.6719 Q23.1094,367.6719 23.75,367.8281 Q24.4063,367.9844 24.9688,368.2813 L24.9688,371 Q24.3438,370.4219 23.75,370.1563 Q23.1563,369.875 22.5313,369.875 Q21.1875,369.875 20.5,370.9531 Q19.8125,372.0156 19.8125,374.1094 Q19.8125,376.2031 20.5,377.2813 Q21.1875,378.3438 22.5313,378.3438 Q23.1563,378.3438 23.75,378.0781 Q24.3438,377.7969 24.9688,377.2188 L24.9688,379.9375 Z " fill="#000000"/><text fill="#000000" font-family="sans-serif" font-size="14" lengthAdjust="spacing" textLength="109.6074" x="36" y="379.1436">Pr&#248;vetilmelding</text></g><!--class Pr?vefors?gMedBed?mmelse--><g id="elem_Pr&#248;vefors&#248;gMedBed&#248;mmelse"><rect fill="#F1F1F1" height="32" id="Pr&#248;vefors&#248;gMedBed&#248;mmelse" rx="2.5" ry="2.5" style="stroke:#181818;stroke-width:0.5;" width="236.5928" x="184.5" y="358.2969"/><ellipse cx="199.5" cy="374.2969" fill="#ADD1B2" rx="11" ry="11" style="stroke:#181818;stroke-width:1.0;"/><path d="M202.4688,379.9375 Q201.8906,380.2344 201.25,380.375 Q200.6094,380.5313 199.9063,380.5313 Q197.4063,380.5313 196.0781,378.8906 Q194.7656,377.2344 194.7656,374.1094 Q194.7656,370.9844 196.0781,369.3281 Q197.4063,367.6719 199.9063,367.6719 Q200.6094,367.6719 201.25,367.8281 Q201.9063,367.9844 202.4688,368.2813 L202.4688,371 Q201.8438,370.4219 201.25,370.1563 Q200.6563,369.875 200.0313,369.875 Q198.6875,369.875 198,370.9531 Q197.3125,372.0156 197.3125,374.1094 Q197.3125,376.2031 198,377.2813 Q198.6875,378.3438 200.0313,378.3438 Q200.6563,378.3438 201.25,378.0781 Q201.8438,377.7969 202.4688,377.2188 L202.4688,379.9375 Z " fill="#000000"/><text fill="#000000" font-family="sans-serif" font-size="14" lengthAdjust="spacing" textLength="204.5928" x="213.5" y="379.1436">Pr&#248;vefors&#248;gMedBed&#248;mmelse</text></g><!--class FagelementansvarligPerson--><g id="elem_FagelementansvarligPerson"><rect fill="#F1F1F1" height="32" id="FagelementansvarligPerson" rx="2.5" ry="2.5" style="stroke:#181818;stroke-width:0.5;" width="226.8242" x="456.5" y="358.2969"/><ellipse cx="471.5" cy="374.2969" fill="#ADD1B2" rx="11" ry="11" style="stroke:#181818;stroke-width:1.0;"/><path d="M474.4688,379.9375 Q473.8906,380.2344 473.25,380.375 Q472.6094,380.5313 471.9063,380.5313 Q469.4063,380.5313 468.0781,378.8906 Q466.7656,377.2344 466.7656,374.1094 Q466.7656,370.9844 468.0781,369.3281 Q469.4063,367.6719 471.9063,367.6719 Q472.6094,367.6719 473.25,367.8281 Q473.9063,367.9844 474.4688,368.2813 L474.4688,371 Q473.8438,370.4219 473.25,370.1563 Q472.6563,369.875 472.0313,369.875 Q470.6875,369.875 470,370.9531 Q469.3125,372.0156 469.3125,374.1094 Q469.3125,376.2031 470,377.2813 Q470.6875,378.3438 472.0313,378.3438 Q472.6563,378.3438 473.25,378.0781 Q473.8438,377.7969 474.4688,377.2188 L474.4688,379.9375 Z " fill="#000000"/><text fill="#000000" font-family="sans-serif" font-size="14" lengthAdjust="spacing" textLength="194.8242" x="485.5" y="379.1436">FagelementansvarligPerson</text></g><!--class UdbudtFagelementansvarligPerson--><g id="elem_UdbudtFagelementansvarligPerson"><rect fill="#F1F1F1" height="32" id="UdbudtFagelementansvarligPerson" rx="2.5" ry="2.5" style="stroke:#181818;stroke-width:0.5;" width="278.0938" x="719" y="358.2969"/><ellipse cx="734" cy="374.2969" fill="#ADD1B2" rx="11" ry="11" style="stroke:#181818;stroke-width:1.0;"/><path d="M736.9688,379.9375 Q736.3906,380.2344 735.75,380.375 Q735.1094,380.5313 734.4063,380.5313 Q731.9063,380.5313 730.5781,378.8906 Q729.2656,377.2344 729.2656,374.1094 Q729.2656,370.9844 730.5781,369.3281 Q731.9063,367.6719 734.4063,367.6719 Q735.1094,367.6719 735.75,367.8281 Q736.4063,367.9844 736.9688,368.2813 L736.9688,371 Q736.3438,370.4219 735.75,370.1563 Q735.1563,369.875 734.5313,369.875 Q733.1875,369.875 732.5,370.9531 Q731.8125,372.0156 731.8125,374.1094 Q731.8125,376.2031 732.5,377.2813 Q733.1875,378.3438 734.5313,378.3438 Q735.1563,378.3438 735.75,378.0781 Q736.3438,377.7969 736.9688,377.2188 L736.9688,379.9375 Z " fill="#000000"/><text fill="#000000" font-family="sans-serif" font-size="14" lengthAdjust="spacing" textLength="246.0938" x="748" y="379.1436">UdbudtFagelementansvarligPerson</text></g><!--class Ans?gningOmOptagelse--><g id="elem_Ans&#248;gningOmOptagelse"><rect fill="#F1F1F1" height="32" id="Ans&#248;gningOmOptagelse" rx="2.5" ry="2.5" style="stroke:#181818;stroke-width:0.5;" width="201.6475" x="1939" y="358.2969"/><ellipse cx="1954" cy="374.2969" fill="#ADD1B2" rx="11" ry="11" style="stroke:#181818;stroke-width:1.0;"/><path d="M1956.9688,379.9375 Q1956.3906,380.2344 1955.75,380.375 Q1955.1094,380.5313 1954.4063,380.5313 Q1951.9063,380.5313 1950.5781,378.8906 Q1949.2656,377.2344 1949.2656,374.1094 Q1949.2656,370.9844 1950.5781,369.3281 Q1951.9063,367.6719 1954.4063,367.6719 Q1955.1094,367.6719 1955.75,367.8281 Q1956.4063,367.9844 1956.9688,368.2813 L1956.9688,371 Q1956.3438,370.4219 1955.75,370.1563 Q1955.1563,369.875 1954.5313,369.875 Q1953.1875,369.875 1952.5,370.9531 Q1951.8125,372.0156 1951.8125,374.1094 Q1951.8125,376.2031 1952.5,377.2813 Q1953.1875,378.3438 1954.5313,378.3438 Q1955.1563,378.3438 1955.75,378.0781 Q1956.3438,377.7969 1956.9688,377.2188 L1956.9688,379.9375 Z " fill="#000000"/><text fill="#000000" font-family="sans-serif" font-size="14" lengthAdjust="spacing" textLength="169.6475" x="1968" y="379.1436">Ans&#248;gningOmOptagelse</text></g><!--class OrgPerson--><g id="elem_OrgPerson"><rect fill="#F1F1F1" height="32" id="OrgPerson" rx="2.5" ry="2.5" style="stroke:#181818;stroke-width:0.5;" width="105.2061" x="2176.5" y="358.2969"/><ellipse cx="2191.5" cy="374.2969" fill="#ADD1B2" rx="11" ry="11" style="stroke:#181818;stroke-width:1.0;"/><path d="M2194.4688,379.9375 Q2193.8906,380.2344 2193.25,380.375 Q2192.6094,380.5313 2191.9063,380.5313 Q2189.4063,380.5313 2188.0781,378.8906 Q2186.7656,377.2344 2186.7656,374.1094 Q2186.7656,370.9844 2188.0781,369.3281 Q2189.4063,367.6719 2191.9063,367.6719 Q2192.6094,367.6719 2193.25,367.8281 Q2193.9063,367.9844 2194.4688,368.2813 L2194.4688,371 Q2193.8438,370.4219 2193.25,370.1563 Q2192.6563,369.875 2192.0313,369.875 Q2190.6875,369.875 2190,370.9531 Q2189.3125,372.0156 2189.3125,374.1094 Q2189.3125,376.2031 2190,377.2813 Q2190.6875,378.3438 2192.0313,378.3438 Q2192.6563,378.3438 2193.25,378.0781 Q2193.8438,377.7969 2194.4688,377.2188 L2194.4688,379.9375 Z " fill="#000000"/><text fill="#000000" font-family="sans-serif" font-size="14" lengthAdjust="spacing" textLength="73.2061" x="2205.5" y="379.1436">OrgPerson</text></g><!--class Aftalegrundlag--><g id="elem_Aftalegrundlag"><rect fill="#F1F1F1" height="32" id="Aftalegrundlag" rx="2.5" ry="2.5" style="stroke:#181818;stroke-width:0.5;" width="135.708" x="1032" y="358.2969"/><ellipse cx="1047" cy="374.2969" fill="#ADD1B2" rx="11" ry="11" style="stroke:#181818;stroke-width:1.0;"/><path d="M1049.9688,379.9375 Q1049.3906,380.2344 1048.75,380.375 Q1048.1094,380.5313 1047.4063,380.5313 Q1044.9063,380.5313 1043.5781,378.8906 Q1042.2656,377.2344 1042.2656,374.1094 Q1042.2656,370.9844 1043.5781,369.3281 Q1044.9063,367.6719 1047.4063,367.6719 Q1048.1094,367.6719 1048.75,367.8281 Q1049.4063,367.9844 1049.9688,368.2813 L1049.9688,371 Q1049.3438,370.4219 1048.75,370.1563 Q1048.1563,369.875 1047.5313,369.875 Q1046.1875,369.875 1045.5,370.9531 Q1044.8125,372.0156 1044.8125,374.1094 Q1044.8125,376.2031 1045.5,377.2813 Q1046.1875,378.3438 1047.5313,378.3438 Q1048.1563,378.3438 1048.75,378.0781 Q1049.3438,377.7969 1049.9688,377.2188 L1049.9688,379.9375 Z " fill="#000000"/><text fill="#000000" font-family="sans-serif" font-size="14" lengthAdjust="spacing" textLength="103.708" x="1061" y="379.1436">Aftalegrundlag</text></g><!--class UdbudtL?ringsaktivitetsansvarligPerson--><g id="elem_UdbudtL&#230;ringsaktivitetsansvarligPerson"><rect fill="#F1F1F1" height="32" id="UdbudtL&#230;ringsaktivitetsansvarligPerson" rx="2.5" ry="2.5" style="stroke:#181818;stroke-width:0.5;" width="316.2178" x="1203" y="358.2969"/><ellipse cx="1218" cy="374.2969" fill="#ADD1B2" rx="11" ry="11" style="stroke:#181818;stroke-width:1.0;"/><path d="M1220.9688,379.9375 Q1220.3906,380.2344 1219.75,380.375 Q1219.1094,380.5313 1218.4063,380.5313 Q1215.9063,380.5313 1214.5781,378.8906 Q1213.2656,377.2344 1213.2656,374.1094 Q1213.2656,370.9844 1214.5781,369.3281 Q1215.9063,367.6719 1218.4063,367.6719 Q1219.1094,367.6719 1219.75,367.8281 Q1220.4063,367.9844 1220.9688,368.2813 L1220.9688,371 Q1220.3438,370.4219 1219.75,370.1563 Q1219.1563,369.875 1218.5313,369.875 Q1217.1875,369.875 1216.5,370.9531 Q1215.8125,372.0156 1215.8125,374.1094 Q1215.8125,376.2031 1216.5,377.2813 Q1217.1875,378.3438 1218.5313,378.3438 Q1219.1563,378.3438 1219.75,378.0781 Q1220.3438,377.7969 1220.9688,377.2188 L1220.9688,379.9375 Z " fill="#000000"/><text fill="#000000" font-family="sans-serif" font-size="14" lengthAdjust="spacing" textLength="284.2178" x="1232" y="379.1436">UdbudtL&#230;ringsaktivitetsansvarligPerson</text></g><!--class UdbudtVidereg?endeUddannelseOgEnkeltfag--><g id="elem_UdbudtVidereg&#229;endeUddannelseOgEnkeltfag"><rect fill="#F1F1F1" height="32" id="UdbudtVidereg&#229;endeUddannelseOgEnkeltfag" rx="2.5" ry="2.5" style="stroke:#181818;stroke-width:0.5;" width="349.9326" x="1554" y="358.2969"/><ellipse cx="1569" cy="374.2969" fill="#ADD1B2" rx="11" ry="11" style="stroke:#181818;stroke-width:1.0;"/><path d="M1571.9688,379.9375 Q1571.3906,380.2344 1570.75,380.375 Q1570.1094,380.5313 1569.4063,380.5313 Q1566.9063,380.5313 1565.5781,378.8906 Q1564.2656,377.2344 1564.2656,374.1094 Q1564.2656,370.9844 1565.5781,369.3281 Q1566.9063,367.6719 1569.4063,367.6719 Q1570.1094,367.6719 1570.75,367.8281 Q1571.4063,367.9844 1571.9688,368.2813 L1571.9688,371 Q1571.3438,370.4219 1570.75,370.1563 Q1570.1563,369.875 1569.5313,369.875 Q1568.1875,369.875 1567.5,370.9531 Q1566.8125,372.0156 1566.8125,374.1094 Q1566.8125,376.2031 1567.5,377.2813 Q1568.1875,378.3438 1569.5313,378.3438 Q1570.1563,378.3438 1570.75,378.0781 Q1571.3438,377.7969 1571.9688,377.2188 L1571.9688,379.9375 Z " fill="#000000"/><text fill="#000000" font-family="sans-serif" font-size="14" lengthAdjust="spacing" textLength="317.9326" x="1583" y="379.1436">UdbudtVidereg&#229;endeUddannelseOgEnkeltfag</text></g><!--class PermanentPr?vedispensation--><g id="elem_PermanentPr&#248;vedispensation"><rect fill="#F1F1F1" height="32" id="PermanentPr&#248;vedispensation" rx="2.5" ry="2.5" style="stroke:#181818;stroke-width:0.5;" width="237.6729" x="2358" y="44.2969"/><ellipse cx="2373" cy="60.2969" fill="#ADD1B2" rx="11" ry="11" style="stroke:#181818;stroke-width:1.0;"/><path d="M2375.9688,65.9375 Q2375.3906,66.2344 2374.75,66.375 Q2374.1094,66.5313 2373.4063,66.5313 Q2370.9063,66.5313 2369.5781,64.8906 Q2368.2656,63.2344 2368.2656,60.1094 Q2368.2656,56.9844 2369.5781,55.3281 Q2370.9063,53.6719 2373.4063,53.6719 Q2374.1094,53.6719 2374.75,53.8281 Q2375.4063,53.9844 2375.9688,54.2813 L2375.9688,57 Q2375.3438,56.4219 2374.75,56.1563 Q2374.1563,55.875 2373.5313,55.875 Q2372.1875,55.875 2371.5,56.9531 Q2370.8125,58.0156 2370.8125,60.1094 Q2370.8125,62.2031 2371.5,63.2813 Q2372.1875,64.3438 2373.5313,64.3438 Q2374.1563,64.3438 2374.75,64.0781 Q2375.3438,63.7969 2375.9688,63.2188 L2375.9688,65.9375 Z " fill="#000000"/><text fill="#000000" font-family="sans-serif" font-size="14" lengthAdjust="spacing" textLength="205.6729" x="2387" y="65.1436">PermanentPr&#248;vedispensation</text></g><!--link Studerende to Indskrivning--><g id="link_Studerende_Indskrivning"><path codeLine="914" d="M2376,277.9969 C2376,306.9869 2376,339.4069 2376,358.2569 " fill="none" id="Studerende-Indskrivning" style="stroke:#181818;stroke-width:1.0;"/><text fill="#000000" font-family="sans-serif" font-size="13" lengthAdjust="spacing" textLength="8.271" x="2371.1927" y="298.3542">1</text><text fill="#000000" font-family="sans-serif" font-size="13" lengthAdjust="spacing" textLength="23.0356" x="2349.0971" y="347.2547">1..*</text></g><!--link Pr?vetilmelding to Ansat--><g id="link_Pr&#248;vetilmelding_Ansat"><path codeLine="915" d="M78,390.6869 C78,419.5169 78,476.2969 78,476.2969 C78,476.2969 774.77,476.2969 942.84,476.2969 " fill="none" id="Pr&#248;vetilmelding-Ansat" style="stroke:#181818;stroke-width:1.0;"/><text fill="#000000" font-family="sans-serif" font-size="13" lengthAdjust="spacing" textLength="89.2607" x="377.62" y="472.3638">valgt vejleder</text><text fill="#000000" font-family="sans-serif" font-size="13" lengthAdjust="spacing" textLength="23.0356" x="51.4026" y="410.3899">0..*</text><text fill="#000000" font-family="sans-serif" font-size="13" lengthAdjust="spacing" textLength="24.8066" x="910.0521" y="491.6026">0..1</text></g><!--link Pr?vefors?gMedBed?mmelse to Ansat--><g id="link_Pr&#248;vefors&#248;gMedBed&#248;mmelse_Ansat"><path codeLine="916" d="M342.5,390.6169 C342.5,416.3169 342.5,463.2969 342.5,463.2969 C342.5,463.2969 808.31,463.2969 942.96,463.2969 " fill="none" id="Pr&#248;vefors&#248;gMedBed&#248;mmelse-Ansat" style="stroke:#181818;stroke-width:1.0;"/><text fill="#000000" font-family="sans-serif" font-size="13" lengthAdjust="spacing" textLength="81.1421" x="524.39" y="459.3638">eksaminator</text><text fill="#000000" font-family="sans-serif" font-size="13" lengthAdjust="spacing" textLength="23.0356" x="328.4956" y="410.2976">0..*</text><text fill="#000000" font-family="sans-serif" font-size="13" lengthAdjust="spacing" textLength="23.0356" x="912.1047" y="458.6357">1..*</text></g><!--link Pr?vefors?gMedBed?mmelse to Ansat--><g id="link_Pr&#248;vefors&#248;gMedBed&#248;mmelse_Ansat"><path codeLine="917" d="M263.5,390.5869 C263.5,417.9669 263.5,470.2969 263.5,470.2969 C263.5,470.2969 796.73,470.2969 942.53,470.2969 " fill="none" id="Pr&#248;vefors&#248;gMedBed&#248;mmelse-Ansat-1" style="stroke:#181818;stroke-width:1.0;"/><text fill="#000000" font-family="sans-serif" font-size="13" lengthAdjust="spacing" textLength="100.0391" x="564.16" y="483.3638">medbed&#248;mmer</text><text fill="#000000" font-family="sans-serif" font-size="13" lengthAdjust="spacing" textLength="23.0356" x="224.3143" y="410.258">0..*</text><text fill="#000000" font-family="sans-serif" font-size="13" lengthAdjust="spacing" textLength="23.0356" x="911.9026" y="466.8165">0..*</text></g><!--link FagelementansvarligPerson to Ansat--><g id="link_FagelementansvarligPerson_Ansat"><path codeLine="918" d="M570,390.2969 C570,414.4169 570,457.2969 570,457.2969 C570,457.2969 842.61,457.2969 942.7,457.2969 " fill="none" id="FagelementansvarligPerson-Ansat" style="stroke:#181818;stroke-width:1.0;"/><text fill="#000000" font-family="sans-serif" font-size="13" lengthAdjust="spacing" textLength="23.0356" x="543.0832" y="410.4647">0..*</text><text fill="#000000" font-family="sans-serif" font-size="13" lengthAdjust="spacing" textLength="24.8066" x="920.6823" y="439.1627">0..1</text></g><!--link UdbudtFagelementansvarligPerson to Ansat--><g id="link_UdbudtFagelementansvarligPerson_Ansat"><path codeLine="919" d="M970,390.3269 C970,407.1069 970,433.3169 970,450.1469 " fill="none" id="UdbudtFagelementansvarligPerson-Ansat" style="stroke:#181818;stroke-width:1.0;"/><text fill="#000000" font-family="sans-serif" font-size="13" lengthAdjust="spacing" textLength="23.0356" x="981.5369" y="410.505">0..*</text><text fill="#000000" font-family="sans-serif" font-size="13" lengthAdjust="spacing" textLength="24.8066" x="971.2021" y="439.1069">0..1</text></g><!--link Ans?ger to Ans?gningOmOptagelse--><g id="link_Ans&#248;ger_Ans&#248;gningOmOptagelse"><path codeLine="920" d="M2097.5,233.5069 C2097.5,263.5969 2097.5,327.7469 2097.5,357.9369 " fill="none" id="Ans&#248;ger-Ans&#248;gningOmOptagelse" style="stroke:#181818;stroke-width:1.0;"/><text fill="#000000" font-family="sans-serif" font-size="13" lengthAdjust="spacing" textLength="52.5269" x="2044.5" y="291.7938">ans&#248;ger</text><text fill="#000000" font-family="sans-serif" font-size="13" lengthAdjust="spacing" textLength="8.271" x="2087.795" y="253.4497">1</text><text fill="#000000" font-family="sans-serif" font-size="13" lengthAdjust="spacing" textLength="23.0356" x="2089.8018" y="347.1221">1..*</text></g><!--link Studerende to OrgPerson--><g id="link_Studerende_OrgPerson"><path codeLine="921" d="M2245.25,277.9969 C2245.25,306.9869 2245.25,339.4069 2245.25,358.2569 " fill="none" id="Studerende-OrgPerson" style="stroke:#181818;stroke-width:1.0;"/><text fill="#000000" font-family="sans-serif" font-size="13" lengthAdjust="spacing" textLength="13.3428" x="2231.25" y="314.1938">er</text><text fill="#000000" font-family="sans-serif" font-size="13" lengthAdjust="spacing" textLength="24.8066" x="2207.5652" y="298.3542">0..1</text><text fill="#000000" font-family="sans-serif" font-size="13" lengthAdjust="spacing" textLength="8.271" x="2241.4721" y="347.2547">1</text></g><!--link Aftalegrundlag to Ansat--><g id="link_Aftalegrundlag_Ansat"><path codeLine="922" d="M1031.84,369.2969 C1015.66,369.2969 1003,369.2969 1003,369.2969 C1003,369.2969 1003,422.7269 1003,450.2769 " fill="none" id="Aftalegrundlag-Ansat" style="stroke:#181818;stroke-width:1.0;"/><text fill="#000000" font-family="sans-serif" font-size="13" lengthAdjust="spacing" textLength="126.9277" x="1004" y="408.4338">akademisk vejleder</text><text fill="#000000" font-family="sans-serif" font-size="13" lengthAdjust="spacing" textLength="23.0356" x="1001.0146" y="365.1398">0..*</text><text fill="#000000" font-family="sans-serif" font-size="13" lengthAdjust="spacing" textLength="8.271" x="1001.9538" y="439.2816">1</text></g><!--link Aftalegrundlag to Ansat--><g id="link_Aftalegrundlag_Ansat"><path codeLine="923" d="M1031.96,380.2969 C1018.8,380.2969 1009,380.2969 1009,380.2969 C1009,380.2969 1009,425.2069 1009,450.1169 " fill="none" id="Aftalegrundlag-Ansat-1" style="stroke:#181818;stroke-width:1.0;"/><text fill="#000000" font-family="sans-serif" font-size="13" lengthAdjust="spacing" textLength="155.8413" x="853" y="416.7938">akademisk medvejleder</text><text fill="#000000" font-family="sans-serif" font-size="13" lengthAdjust="spacing" textLength="23.0356" x="1000.7743" y="393.7628">0..*</text><text fill="#000000" font-family="sans-serif" font-size="13" lengthAdjust="spacing" textLength="23.0356" x="1022.7838" y="439.3618">0..*</text></g><!--link OrgPerson to Ansat--><g id="link_OrgPerson_Ansat"><path codeLine="924" d="M2229,390.3669 C2229,418.6269 2229,474.2969 2229,474.2969 C2229,474.2969 1220.01,474.2969 1015.06,474.2969 " fill="none" id="OrgPerson-Ansat" style="stroke:#181818;stroke-width:1.0;"/><text fill="#000000" font-family="sans-serif" font-size="13" lengthAdjust="spacing" textLength="13.3428" x="1650" y="470.3638">er</text><text fill="#000000" font-family="sans-serif" font-size="13" lengthAdjust="spacing" textLength="8.271" x="2219.6858" y="410.2633">1</text><text fill="#000000" font-family="sans-serif" font-size="13" lengthAdjust="spacing" textLength="24.8066" x="1022.7988" y="488.8447">0..1</text></g><!--link UdbudtL?ringsaktivitetsansvarligPerson to Ansat--><g id="link_UdbudtL&#230;ringsaktivitetsansvarligPerson_Ansat"><path codeLine="925" d="M1361,390.4969 C1361,414.9069 1361,458.2969 1361,458.2969 C1361,458.2969 1110.64,458.2969 1015.28,458.2969 " fill="none" id="UdbudtL&#230;ringsaktivitetsansvarligPerson-Ansat" style="stroke:#181818;stroke-width:1.0;"/><text fill="#000000" font-family="sans-serif" font-size="13" lengthAdjust="spacing" textLength="23.0356" x="1334.1605" y="410.4364">0..*</text><text fill="#000000" font-family="sans-serif" font-size="13" lengthAdjust="spacing" textLength="24.8066" x="1022.749" y="470.2974">0..1</text></g><!--link UdbudtVidereg?endeUddannelseOgEnkeltfag to Ansat--><g id="link_UdbudtVidereg&#229;endeUddannelseOgEnkeltfag_Ansat"><path codeLine="926" d="M1729,390.3269 C1729,416.6769 1729,466.2969 1729,466.2969 C1729,466.2969 1164.99,466.2969 1015.17,466.2969 " fill="none" id="UdbudtVidereg&#229;endeUddannelseOgEnkeltfag-Ansat" style="stroke:#181818;stroke-width:1.0;"/><text fill="#000000" font-family="sans-serif" font-size="13" lengthAdjust="spacing" textLength="133.5356" x="1276.07" y="462.3638">faglig bed&#248;mmer for</text><text fill="#000000" font-family="sans-serif" font-size="13" lengthAdjust="spacing" textLength="23.0356" x="1702.0646" y="410.505">0..*</text><text fill="#000000" font-family="sans-serif" font-size="13" lengthAdjust="spacing" textLength="23.0356" x="1022.7852" y="462.179">0..*</text></g><!--link Ans?ger to OrgPerson--><g id="link_Ans&#248;ger_OrgPerson"><path codeLine="927" d="M2144.23,217.2969 C2168.2,217.2969 2192.75,217.2969 2192.75,217.2969 C2192.75,217.2969 2192.75,317.9769 2192.75,358.0869 " fill="none" id="Ans&#248;ger-OrgPerson" style="stroke:#181818;stroke-width:1.0;"/><text fill="#000000" font-family="sans-serif" font-size="13" lengthAdjust="spacing" textLength="13.3428" x="2178.75" y="259.4938">er</text><text fill="#000000" font-family="sans-serif" font-size="13" lengthAdjust="spacing" textLength="24.8066" x="2151.6421" y="213.4113">0..1</text><text fill="#000000" font-family="sans-serif" font-size="13" lengthAdjust="spacing" textLength="8.271" x="2171.4279" y="347.3218">1</text></g><!--link PermanentPr?vedispensation to Studerende--><g id="link_PermanentPr&#248;vedispensation_Studerende"><path codeLine="928" d="M2420.5,76.5069 C2420.5,95.3869 2420.5,127.6869 2420.5,156.5869 " fill="none" id="PermanentPr&#248;vedispensation-Studerende" style="stroke:#181818;stroke-width:1.0;"/><text fill="#000000" font-family="sans-serif" font-size="13" lengthAdjust="spacing" textLength="23.0356" x="2375.0351" y="96.4497">0..*</text><text fill="#000000" font-family="sans-serif" font-size="13" lengthAdjust="spacing" textLength="8.271" x="2420.6743" y="145.7467">1</text></g><!--link EuropeanStudentIdentifier to Studerende--><g id="link_EuropeanStudentIdentifier_Studerende"><path codeLine="929" d="M2265.75,76.5069 C2265.75,95.3869 2265.75,127.6869 2265.75,156.5869 " fill="none" id="EuropeanStudentIdentifier-Studerende" style="stroke:#181818;stroke-width:1.0;"/><text fill="#000000" font-family="sans-serif" font-size="13" lengthAdjust="spacing" textLength="24.8066" x="2255.0223" y="96.4497">0..1</text><text fill="#000000" font-family="sans-serif" font-size="13" lengthAdjust="spacing" textLength="8.271" x="2248.0313" y="145.7467">1</text></g><!--link Studerende to StudieforholdsstadieEnum--><g id="link_Studerende_StudieforholdsstadieEnum"><path codeLine="930" d="M2483.13,217.2969 C2494.77,217.2969 2500.43,217.2969 2511.8,217.2969 " fill="none" id="Studerende-to-StudieforholdsstadieEnum" style="stroke:#181818;stroke-width:1.0;stroke-dasharray:7.0,7.0;"/><polygon fill="#181818" points="2517.8,217.2969,2508.8,213.2969,2512.8,217.2969,2508.8,221.2969,2517.8,217.2969" style="stroke:#181818;stroke-width:1.0;"/></g><!--SRC=[LOun3i8m303tlC8LEmEiLGTu0knLsbY9LTk9d6IeAlvEHxZrXhitDKQupVVvrNf0Gmte4WK4bD9s49G5hRgwaHPlNe19iUq58LjB-KUix6k5my79mwzRjDmrF3Dd6qVKBjC45wQOMZH4TH_d1jALpspj2uWdlPOkFFpVV040]--></g></svg>