<svg xmlns="http://www.w3.org/2000/svg" xmlns:xlink="http://www.w3.org/1999/xlink" contentStyleType="text/css" height="223px" preserveAspectRatio="none" style="width:1789px;height:223px;background:#FFFFFF;" version="1.1" viewBox="0 0 1789 223" width="1789px" zoomAndPan="magnify"><defs/><g><text fill="#000000" font-family="sans-serif" font-size="14" font-weight="bold" lengthAdjust="spacing" textLength="246.1348" x="764.9097" y="22.9951">3_1_3_Udbudt_laeringsaktivitet</text><!--class UdbudtL?ringsaktivitet--><g id="elem_UdbudtL&#230;ringsaktivitet"><rect codeLine="848" fill="#F1F1F1" height="32" id="UdbudtL&#230;ringsaktivitet" rx="2.5" ry="2.5" style="stroke:#181818;stroke-width:0.5;" width="197.5322" x="958" y="172.2969"/><ellipse cx="973" cy="188.2969" fill="#A9DCDF" rx="11" ry="11" style="stroke:#181818;stroke-width:1.0;"/><path d="M973.1094,183.6406 L971.9531,188.7188 L974.2813,188.7188 L973.1094,183.6406 Z M971.625,181.4063 L974.6094,181.4063 L977.9688,193.7969 L975.5156,193.7969 L974.75,190.7344 L971.4688,190.7344 L970.7188,193.7969 L968.2813,193.7969 L971.625,181.4063 Z " fill="#000000"/><text fill="#000000" font-family="sans-serif" font-size="14" font-style="italic" lengthAdjust="spacing" textLength="165.5322" x="987" y="193.1436">UdbudtL&#230;ringsaktivitet</text></g><!--class UdbudtUndervisning--><g id="elem_UdbudtUndervisning"><rect codeLine="851" fill="#F1F1F1" height="32" id="UdbudtUndervisning" rx="2.5" ry="2.5" style="stroke:#181818;stroke-width:0.5;" width="175.6367" x="1581" y="56.2969"/><ellipse cx="1596" cy="72.2969" fill="#ADD1B2" rx="11" ry="11" style="stroke:#181818;stroke-width:1.0;"/><path d="M1598.9688,77.9375 Q1598.3906,78.2344 1597.75,78.375 Q1597.1094,78.5313 1596.4063,78.5313 Q1593.9063,78.5313 1592.5781,76.8906 Q1591.2656,75.2344 1591.2656,72.1094 Q1591.2656,68.9844 1592.5781,67.3281 Q1593.9063,65.6719 1596.4063,65.6719 Q1597.1094,65.6719 1597.75,65.8281 Q1598.4063,65.9844 1598.9688,66.2813 L1598.9688,69 Q1598.3438,68.4219 1597.75,68.1563 Q1597.1563,67.875 1596.5313,67.875 Q1595.1875,67.875 1594.5,68.9531 Q1593.8125,70.0156 1593.8125,72.1094 Q1593.8125,74.2031 1594.5,75.2813 Q1595.1875,76.3438 1596.5313,76.3438 Q1597.1563,76.3438 1597.75,76.0781 Q1598.3438,75.7969 1598.9688,75.2188 L1598.9688,77.9375 Z " fill="#000000"/><text fill="#000000" font-family="sans-serif" font-size="14" lengthAdjust="spacing" textLength="143.6367" x="1610" y="77.1436">UdbudtUndervisning</text></g><!--class UdbudtFagligVejledning--><g id="elem_UdbudtFagligVejledning"><rect codeLine="854" fill="#F1F1F1" height="32" id="UdbudtFagligVejledning" rx="2.5" ry="2.5" style="stroke:#181818;stroke-width:0.5;" width="199.4463" x="625.5" y="56.2969"/><ellipse cx="640.5" cy="72.2969" fill="#ADD1B2" rx="11" ry="11" style="stroke:#181818;stroke-width:1.0;"/><path d="M643.4688,77.9375 Q642.8906,78.2344 642.25,78.375 Q641.6094,78.5313 640.9063,78.5313 Q638.4063,78.5313 637.0781,76.8906 Q635.7656,75.2344 635.7656,72.1094 Q635.7656,68.9844 637.0781,67.3281 Q638.4063,65.6719 640.9063,65.6719 Q641.6094,65.6719 642.25,65.8281 Q642.9063,65.9844 643.4688,66.2813 L643.4688,69 Q642.8438,68.4219 642.25,68.1563 Q641.6563,67.875 641.0313,67.875 Q639.6875,67.875 639,68.9531 Q638.3125,70.0156 638.3125,72.1094 Q638.3125,74.2031 639,75.2813 Q639.6875,76.3438 641.0313,76.3438 Q641.6563,76.3438 642.25,76.0781 Q642.8438,75.7969 643.4688,75.2188 L643.4688,77.9375 Z " fill="#000000"/><text fill="#000000" font-family="sans-serif" font-size="14" lengthAdjust="spacing" textLength="167.4463" x="654.5" y="77.1436">UdbudtFagligVejledning</text></g><!--class UdbudtPraktikophold--><g id="elem_UdbudtPraktikophold"><rect codeLine="857" fill="#F1F1F1" height="32" id="UdbudtPraktikophold" rx="2.5" ry="2.5" style="stroke:#181818;stroke-width:0.5;" width="179.3076" x="859.5" y="56.2969"/><ellipse cx="874.5" cy="72.2969" fill="#ADD1B2" rx="11" ry="11" style="stroke:#181818;stroke-width:1.0;"/><path d="M877.4688,77.9375 Q876.8906,78.2344 876.25,78.375 Q875.6094,78.5313 874.9063,78.5313 Q872.4063,78.5313 871.0781,76.8906 Q869.7656,75.2344 869.7656,72.1094 Q869.7656,68.9844 871.0781,67.3281 Q872.4063,65.6719 874.9063,65.6719 Q875.6094,65.6719 876.25,65.8281 Q876.9063,65.9844 877.4688,66.2813 L877.4688,69 Q876.8438,68.4219 876.25,68.1563 Q875.6563,67.875 875.0313,67.875 Q873.6875,67.875 873,68.9531 Q872.3125,70.0156 872.3125,72.1094 Q872.3125,74.2031 873,75.2813 Q873.6875,76.3438 875.0313,76.3438 Q875.6563,76.3438 876.25,76.0781 Q876.8438,75.7969 877.4688,75.2188 L877.4688,77.9375 Z " fill="#000000"/><text fill="#000000" font-family="sans-serif" font-size="14" lengthAdjust="spacing" textLength="147.3076" x="888.5" y="77.1436">UdbudtPraktikophold</text></g><!--class UdbudtProjektarbejde--><g id="elem_UdbudtProjektarbejde"><rect codeLine="860" fill="#F1F1F1" height="32" id="UdbudtProjektarbejde" rx="2.5" ry="2.5" style="stroke:#181818;stroke-width:0.5;" width="185.3574" x="1073.5" y="56.2969"/><ellipse cx="1088.5" cy="72.2969" fill="#ADD1B2" rx="11" ry="11" style="stroke:#181818;stroke-width:1.0;"/><path d="M1091.4688,77.9375 Q1090.8906,78.2344 1090.25,78.375 Q1089.6094,78.5313 1088.9063,78.5313 Q1086.4063,78.5313 1085.0781,76.8906 Q1083.7656,75.2344 1083.7656,72.1094 Q1083.7656,68.9844 1085.0781,67.3281 Q1086.4063,65.6719 1088.9063,65.6719 Q1089.6094,65.6719 1090.25,65.8281 Q1090.9063,65.9844 1091.4688,66.2813 L1091.4688,69 Q1090.8438,68.4219 1090.25,68.1563 Q1089.6563,67.875 1089.0313,67.875 Q1087.6875,67.875 1087,68.9531 Q1086.3125,70.0156 1086.3125,72.1094 Q1086.3125,74.2031 1087,75.2813 Q1087.6875,76.3438 1089.0313,76.3438 Q1089.6563,76.3438 1090.25,76.0781 Q1090.8438,75.7969 1091.4688,75.2188 L1091.4688,77.9375 Z " fill="#000000"/><text fill="#000000" font-family="sans-serif" font-size="14" lengthAdjust="spacing" textLength="153.3574" x="1102.5" y="77.1436">UdbudtProjektarbejde</text></g><!--class UdbudtProjektorienteretOphold--><g id="elem_UdbudtProjektorienteretOphold"><rect codeLine="863" fill="#F1F1F1" height="32" id="UdbudtProjektorienteretOphold" rx="2.5" ry="2.5" style="stroke:#181818;stroke-width:0.5;" width="251.9121" x="1294" y="56.2969"/><ellipse cx="1309" cy="72.2969" fill="#ADD1B2" rx="11" ry="11" style="stroke:#181818;stroke-width:1.0;"/><path d="M1311.9688,77.9375 Q1311.3906,78.2344 1310.75,78.375 Q1310.1094,78.5313 1309.4063,78.5313 Q1306.9063,78.5313 1305.5781,76.8906 Q1304.2656,75.2344 1304.2656,72.1094 Q1304.2656,68.9844 1305.5781,67.3281 Q1306.9063,65.6719 1309.4063,65.6719 Q1310.1094,65.6719 1310.75,65.8281 Q1311.4063,65.9844 1311.9688,66.2813 L1311.9688,69 Q1311.3438,68.4219 1310.75,68.1563 Q1310.1563,67.875 1309.5313,67.875 Q1308.1875,67.875 1307.5,68.9531 Q1306.8125,70.0156 1306.8125,72.1094 Q1306.8125,74.2031 1307.5,75.2813 Q1308.1875,76.3438 1309.5313,76.3438 Q1310.1563,76.3438 1310.75,76.0781 Q1311.3438,75.7969 1311.9688,75.2188 L1311.9688,77.9375 Z " fill="#000000"/><text fill="#000000" font-family="sans-serif" font-size="14" lengthAdjust="spacing" textLength="219.9121" x="1323" y="77.1436">UdbudtProjektorienteretOphold</text></g><!--class Saml?sning--><g id="elem_Saml&#230;sning"><rect codeLine="866" fill="#F1F1F1" height="56.2969" id="Saml&#230;sning" rx="2.5" ry="2.5" style="stroke:#181818;stroke-width:0.5;" width="227.9541" x="1555" y="160.2969"/><ellipse cx="1621.4487" cy="176.2969" fill="#ADD1B2" rx="11" ry="11" style="stroke:#181818;stroke-width:1.0;"/><path d="M1624.4175,181.9375 Q1623.8394,182.2344 1623.1987,182.375 Q1622.5581,182.5313 1621.855,182.5313 Q1619.355,182.5313 1618.0269,180.8906 Q1616.7144,179.2344 1616.7144,176.1094 Q1616.7144,172.9844 1618.0269,171.3281 Q1619.355,169.6719 1621.855,169.6719 Q1622.5581,169.6719 1623.1987,169.8281 Q1623.855,169.9844 1624.4175,170.2813 L1624.4175,173 Q1623.7925,172.4219 1623.1987,172.1563 Q1622.605,171.875 1621.98,171.875 Q1620.6362,171.875 1619.9487,172.9531 Q1619.2612,174.0156 1619.2612,176.1094 Q1619.2612,178.2031 1619.9487,179.2813 Q1620.6362,180.3438 1621.98,180.3438 Q1622.605,180.3438 1623.1987,180.0781 Q1623.7925,179.7969 1624.4175,179.2188 L1624.4175,181.9375 Z " fill="#000000"/><text fill="#000000" font-family="sans-serif" font-size="14" lengthAdjust="spacing" textLength="86.5566" x="1641.9487" y="181.1436">Saml&#230;sning</text><line style="stroke:#181818;stroke-width:0.5;" x1="1556" x2="1781.9541" y1="192.2969" y2="192.2969"/><text fill="#000000" font-family="sans-serif" font-size="14" lengthAdjust="spacing" textLength="184.7891" x="1561" y="209.292">saml&#230;sningsnavn: Text80</text><a href="1..1" target="_top" title="1..1" xlink:actuate="onRequest" xlink:href="1..1" xlink:show="new" xlink:title="1..1" xlink:type="simple"><text fill="#0000FF" font-family="sans-serif" font-size="14" lengthAdjust="spacing" text-decoration="underline" textLength="26.7148" x="1750.2393" y="209.292">1..1</text></a></g><!--class UdbudtL?ringsaktivitetsansvarligPerson--><g id="elem_UdbudtL&#230;ringsaktivitetsansvarligPerson"><rect codeLine="870" fill="#F1F1F1" height="56.2969" id="UdbudtL&#230;ringsaktivitetsansvarligPerson" rx="2.5" ry="2.5" style="stroke:#181818;stroke-width:0.5;" width="316.2178" x="7" y="44.2969"/><ellipse cx="22" cy="60.2969" fill="#ADD1B2" rx="11" ry="11" style="stroke:#181818;stroke-width:1.0;"/><path d="M24.9688,65.9375 Q24.3906,66.2344 23.75,66.375 Q23.1094,66.5313 22.4063,66.5313 Q19.9063,66.5313 18.5781,64.8906 Q17.2656,63.2344 17.2656,60.1094 Q17.2656,56.9844 18.5781,55.3281 Q19.9063,53.6719 22.4063,53.6719 Q23.1094,53.6719 23.75,53.8281 Q24.4063,53.9844 24.9688,54.2813 L24.9688,57 Q24.3438,56.4219 23.75,56.1563 Q23.1563,55.875 22.5313,55.875 Q21.1875,55.875 20.5,56.9531 Q19.8125,58.0156 19.8125,60.1094 Q19.8125,62.2031 20.5,63.2813 Q21.1875,64.3438 22.5313,64.3438 Q23.1563,64.3438 23.75,64.0781 Q24.3438,63.7969 24.9688,63.2188 L24.9688,65.9375 Z " fill="#000000"/><text fill="#000000" font-family="sans-serif" font-size="14" lengthAdjust="spacing" textLength="284.2178" x="36" y="65.1436">UdbudtL&#230;ringsaktivitetsansvarligPerson</text><line style="stroke:#181818;stroke-width:0.5;" x1="8" x2="322.2178" y1="76.2969" y2="76.2969"/><text fill="#000000" font-family="sans-serif" font-size="14" lengthAdjust="spacing" textLength="214.9902" x="13" y="93.292">orgPersonAnsvarsrolle: Picklist</text><a href="1..1" target="_top" title="1..1" xlink:actuate="onRequest" xlink:href="1..1" xlink:show="new" xlink:title="1..1" xlink:type="simple"><text fill="#0000FF" font-family="sans-serif" font-size="14" lengthAdjust="spacing" text-decoration="underline" textLength="26.7148" x="232.4404" y="93.292">1..1</text></a></g><!--class Ansat--><g id="elem_Ansat"><rect fill="#F1F1F1" height="32" id="Ansat" rx="2.5" ry="2.5" style="stroke:#181818;stroke-width:0.5;" width="71.8125" x="63" y="172.2969"/><ellipse cx="78" cy="188.2969" fill="#ADD1B2" rx="11" ry="11" style="stroke:#181818;stroke-width:1.0;"/><path d="M80.9688,193.9375 Q80.3906,194.2344 79.75,194.375 Q79.1094,194.5313 78.4063,194.5313 Q75.9063,194.5313 74.5781,192.8906 Q73.2656,191.2344 73.2656,188.1094 Q73.2656,184.9844 74.5781,183.3281 Q75.9063,181.6719 78.4063,181.6719 Q79.1094,181.6719 79.75,181.8281 Q80.4063,181.9844 80.9688,182.2813 L80.9688,185 Q80.3438,184.4219 79.75,184.1563 Q79.1563,183.875 78.5313,183.875 Q77.1875,183.875 76.5,184.9531 Q75.8125,186.0156 75.8125,188.1094 Q75.8125,190.2031 76.5,191.2813 Q77.1875,192.3438 78.5313,192.3438 Q79.1563,192.3438 79.75,192.0781 Q80.3438,191.7969 80.9688,191.2188 L80.9688,193.9375 Z " fill="#000000"/><text fill="#000000" font-family="sans-serif" font-size="14" lengthAdjust="spacing" textLength="39.8125" x="92" y="193.1436">Ansat</text></g><!--class Medlemskab--><g id="elem_Medlemskab"><rect fill="#F1F1F1" height="32" id="Medlemskab" rx="2.5" ry="2.5" style="stroke:#181818;stroke-width:0.5;" width="120.5869" x="170.5" y="172.2969"/><ellipse cx="185.5" cy="188.2969" fill="#ADD1B2" rx="11" ry="11" style="stroke:#181818;stroke-width:1.0;"/><path d="M188.4688,193.9375 Q187.8906,194.2344 187.25,194.375 Q186.6094,194.5313 185.9063,194.5313 Q183.4063,194.5313 182.0781,192.8906 Q180.7656,191.2344 180.7656,188.1094 Q180.7656,184.9844 182.0781,183.3281 Q183.4063,181.6719 185.9063,181.6719 Q186.6094,181.6719 187.25,181.8281 Q187.9063,181.9844 188.4688,182.2813 L188.4688,185 Q187.8438,184.4219 187.25,184.1563 Q186.6563,183.875 186.0313,183.875 Q184.6875,183.875 184,184.9531 Q183.3125,186.0156 183.3125,188.1094 Q183.3125,190.2031 184,191.2813 Q184.6875,192.3438 186.0313,192.3438 Q186.6563,192.3438 187.25,192.0781 Q187.8438,191.7969 188.4688,191.2188 L188.4688,193.9375 Z " fill="#000000"/><text fill="#000000" font-family="sans-serif" font-size="14" lengthAdjust="spacing" textLength="88.5869" x="199.5" y="193.1436">Medlemskab</text></g><!--class OrgPersonAnsvarsrolleEnum--><g id="elem_OrgPersonAnsvarsrolleEnum"><rect fill="#F1F1F1" height="32" id="OrgPersonAnsvarsrolleEnum" rx="2.5" ry="2.5" style="stroke:#181818;stroke-width:0.5;" width="231.8076" x="358" y="56.2969"/><ellipse cx="373" cy="72.2969" fill="#ADD1B2" rx="11" ry="11" style="stroke:#181818;stroke-width:1.0;"/><path d="M375.9688,77.9375 Q375.3906,78.2344 374.75,78.375 Q374.1094,78.5313 373.4063,78.5313 Q370.9063,78.5313 369.5781,76.8906 Q368.2656,75.2344 368.2656,72.1094 Q368.2656,68.9844 369.5781,67.3281 Q370.9063,65.6719 373.4063,65.6719 Q374.1094,65.6719 374.75,65.8281 Q375.4063,65.9844 375.9688,66.2813 L375.9688,69 Q375.3438,68.4219 374.75,68.1563 Q374.1563,67.875 373.5313,67.875 Q372.1875,67.875 371.5,68.9531 Q370.8125,70.0156 370.8125,72.1094 Q370.8125,74.2031 371.5,75.2813 Q372.1875,76.3438 373.5313,76.3438 Q374.1563,76.3438 374.75,76.0781 Q375.3438,75.7969 375.9688,75.2188 L375.9688,77.9375 Z " fill="#000000"/><text fill="#000000" font-family="sans-serif" font-size="14" lengthAdjust="spacing" textLength="199.8076" x="387" y="77.1436">OrgPersonAnsvarsrolleEnum</text></g><!--link UdbudtUndervisning to Saml?sning--><g id="link_UdbudtUndervisning_Saml&#230;sning"><path codeLine="874" d="M1669,88.4269 C1669,106.9769 1669,137.7669 1669,160.2669 " fill="none" id="UdbudtUndervisning-Saml&#230;sning" style="stroke:#181818;stroke-width:1.0;"/><text fill="#000000" font-family="sans-serif" font-size="13" lengthAdjust="spacing" textLength="23.0356" x="1642.2567" y="108.3432">0..*</text><text fill="#000000" font-family="sans-serif" font-size="13" lengthAdjust="spacing" textLength="24.8066" x="1642.3236" y="149.0985">0..1</text></g><!--link UdbudtL?ringsaktivitetsansvarligPerson to UdbudtL?ringsaktivitet--><g id="link_UdbudtL&#230;ringsaktivitetsansvarligPerson_UdbudtL&#230;ringsaktivitet"><path codeLine="875" d="M307.25,100.5969 C307.25,136.6369 307.25,194.2969 307.25,194.2969 C307.25,194.2969 754.06,194.2969 957.83,194.2969 " fill="none" id="UdbudtL&#230;ringsaktivitetsansvarligPerson-UdbudtL&#230;ringsaktivitet" style="stroke:#181818;stroke-width:1.0;"/><text fill="#000000" font-family="sans-serif" font-size="13" lengthAdjust="spacing" textLength="23.0356" x="312.8316" y="120.4771">0..*</text><text fill="#000000" font-family="sans-serif" font-size="13" lengthAdjust="spacing" textLength="8.271" x="941.6381" y="191.2495">1</text></g><!--link UdbudtL?ringsaktivitetsansvarligPerson to Ansat--><g id="link_UdbudtL&#230;ringsaktivitetsansvarligPerson_Ansat"><path codeLine="876" d="M99,100.3769 C99,122.9069 99,153.7269 99,172.2569 " fill="none" id="UdbudtL&#230;ringsaktivitetsansvarligPerson-Ansat" style="stroke:#181818;stroke-width:1.0;"/><text fill="#000000" font-family="sans-serif" font-size="13" lengthAdjust="spacing" textLength="23.0356" x="58.0571" y="120.6527">0..*</text><text fill="#000000" font-family="sans-serif" font-size="13" lengthAdjust="spacing" textLength="24.8066" x="71.0459" y="161.2547">0..1</text></g><!--link UdbudtL?ringsaktivitetsansvarligPerson to Medlemskab--><g id="link_UdbudtL&#230;ringsaktivitetsansvarligPerson_Medlemskab"><path codeLine="877" d="M231,100.3769 C231,122.9069 231,153.7269 231,172.2569 " fill="none" id="UdbudtL&#230;ringsaktivitetsansvarligPerson-Medlemskab" style="stroke:#181818;stroke-width:1.0;"/><text fill="#000000" font-family="sans-serif" font-size="13" lengthAdjust="spacing" textLength="23.0356" x="220.5821" y="120.6527">0..*</text><text fill="#000000" font-family="sans-serif" font-size="13" lengthAdjust="spacing" textLength="24.8066" x="203.0846" y="161.2547">0..1</text></g><!--link UdbudtUndervisning to UdbudtL?ringsaktivitet--><g id="link_UdbudtUndervisning_UdbudtL&#230;ringsaktivitet"><path codeLine="878" d="M1580.71,72.2969 C1563.41,72.2969 1550.5,72.2969 1550.5,72.2969 C1550.5,72.2969 1550.5,194.2969 1550.5,194.2969 C1550.5,194.2969 1318.38,194.2969 1174.27,194.2969 " fill="none" id="UdbudtUndervisning-to-UdbudtL&#230;ringsaktivitet" style="stroke:#181818;stroke-width:1.0;"/><polygon fill="none" points="1156.27,194.2969,1174.27,200.2969,1174.27,188.2969,1156.27,194.2969" style="stroke:#181818;stroke-width:1.0;"/></g><!--link UdbudtFagligVejledning to UdbudtL?ringsaktivitet--><g id="link_UdbudtFagligVejledning_UdbudtL&#230;ringsaktivitet"><path codeLine="879" d="M725,88.6769 C725,119.5469 725,183.2969 725,183.2969 C725,183.2969 842.01,183.2969 939.84,183.2969 " fill="none" id="UdbudtFagligVejledning-to-UdbudtL&#230;ringsaktivitet" style="stroke:#181818;stroke-width:1.0;"/><polygon fill="none" points="957.84,183.2969,939.84,177.2969,939.84,189.2969,957.84,183.2969" style="stroke:#181818;stroke-width:1.0;"/></g><!--link UdbudtPraktikophold to UdbudtL?ringsaktivitet--><g id="link_UdbudtPraktikophold_UdbudtL&#230;ringsaktivitet"><path codeLine="880" d="M998.25,88.4269 C998.25,110.4669 998.25,131.7669 998.25,153.9269 " fill="none" id="UdbudtPraktikophold-to-UdbudtL&#230;ringsaktivitet" style="stroke:#181818;stroke-width:1.0;"/><polygon fill="none" points="998.25,171.9269,1004.25,153.9269,992.25,153.9269,998.25,171.9269" style="stroke:#181818;stroke-width:1.0;"/></g><!--link UdbudtProjektarbejde to UdbudtL?ringsaktivitet--><g id="link_UdbudtProjektarbejde_UdbudtL&#230;ringsaktivitet"><path codeLine="881" d="M1114.75,88.4269 C1114.75,110.4669 1114.75,131.7669 1114.75,153.9269 " fill="none" id="UdbudtProjektarbejde-to-UdbudtL&#230;ringsaktivitet" style="stroke:#181818;stroke-width:1.0;"/><polygon fill="none" points="1114.75,171.9269,1120.75,153.9269,1108.75,153.9269,1114.75,171.9269" style="stroke:#181818;stroke-width:1.0;"/></g><!--link UdbudtProjektorienteretOphold to UdbudtL?ringsaktivitet--><g id="link_UdbudtProjektorienteretOphold_UdbudtL&#230;ringsaktivitet"><path codeLine="882" d="M1420,88.6769 C1420,119.5469 1420,183.2969 1420,183.2969 C1420,183.2969 1281.67,183.2969 1174.19,183.2969 " fill="none" id="UdbudtProjektorienteretOphold-to-UdbudtL&#230;ringsaktivitet" style="stroke:#181818;stroke-width:1.0;"/><polygon fill="none" points="1156.19,183.2969,1174.19,189.2969,1174.19,177.2969,1156.19,183.2969" style="stroke:#181818;stroke-width:1.0;"/></g><!--link UdbudtL?ringsaktivitetsansvarligPerson to OrgPersonAnsvarsrolleEnum--><g id="link_UdbudtL&#230;ringsaktivitetsansvarligPerson_OrgPersonAnsvarsrolleEnum"><path codeLine="883" d="M323.12,72.2969 C334.85,72.2969 340.55,72.2969 351.96,72.2969 " fill="none" id="UdbudtL&#230;ringsaktivitetsansvarligPerson-to-OrgPersonAnsvarsrolleEnum" style="stroke:#181818;stroke-width:1.0;stroke-dasharray:7.0,7.0;"/><polygon fill="#181818" points="357.96,72.2969,348.96,68.2969,352.96,72.2969,348.96,76.2969,357.96,72.2969" style="stroke:#181818;stroke-width:1.0;"/></g><!--SRC=[VSun3i8m343HFQTmnOw4kbOTu0emHsbZfLOT9t8Sf0fnTnYP-EjR_fsC4KP_yQD_nAL7ynnGIL8Bkz6J3Crj514mLpiWOrvGcsixIGqQCZ09sb4HYjfMVc3bq1gy77oxXdLFMhh4M-6YquJIypp3YIbjbXHHtDkvWMJb7h7r1N8WETUUUVX_zm40]--></g></svg>