<svg xmlns="http://www.w3.org/2000/svg" xmlns:xlink="http://www.w3.org/1999/xlink" contentStyleType="text/css" height="839px" preserveAspectRatio="none" style="width:1669px;height:839px;background:#FFFFFF;" version="1.1" viewBox="0 0 1669 839" width="1669px" zoomAndPan="magnify"><defs/><g><text fill="#000000" font-family="sans-serif" font-size="14" font-weight="bold" lengthAdjust="spacing" textLength="205.4063" x="724.9395" y="22.9951">3_1_1_Udbudt_fagelement</text><!--class UdbudtFagelement--><g id="elem_UdbudtFagelement"><rect codeLine="429" fill="#F1F1F1" height="268.1563" id="UdbudtFagelement" rx="2.5" ry="2.5" style="stroke:#181818;stroke-width:0.5;" width="300.5791" x="940.5" y="258.2969"/><ellipse cx="1019.2808" cy="274.2969" fill="#ADD1B2" rx="11" ry="11" style="stroke:#181818;stroke-width:1.0;"/><path d="M1022.2495,279.9375 Q1021.6714,280.2344 1021.0308,280.375 Q1020.3901,280.5313 1019.687,280.5313 Q1017.187,280.5313 1015.8589,278.8906 Q1014.5464,277.2344 1014.5464,274.1094 Q1014.5464,270.9844 1015.8589,269.3281 Q1017.187,267.6719 1019.687,267.6719 Q1020.3901,267.6719 1021.0308,267.8281 Q1021.687,267.9844 1022.2495,268.2813 L1022.2495,271 Q1021.6245,270.4219 1021.0308,270.1563 Q1020.437,269.875 1019.812,269.875 Q1018.4683,269.875 1017.7808,270.9531 Q1017.0933,272.0156 1017.0933,274.1094 Q1017.0933,276.2031 1017.7808,277.2813 Q1018.4683,278.3438 1019.812,278.3438 Q1020.437,278.3438 1021.0308,278.0781 Q1021.6245,277.7969 1022.2495,277.2188 L1022.2495,279.9375 Z " fill="#000000"/><text fill="#000000" font-family="sans-serif" font-size="14" lengthAdjust="spacing" textLength="134.5176" x="1039.7808" y="279.1436">UdbudtFagelement</text><line style="stroke:#181818;stroke-width:0.5;" x1="941.5" x2="1240.0791" y1="290.2969" y2="290.2969"/><text fill="#000000" font-family="sans-serif" font-size="14" lengthAdjust="spacing" textLength="208.9746" x="946.5" y="307.292">kapacitetMinimum: Number.0</text><a href="0..1" target="_top" title="0..1" xlink:actuate="onRequest" xlink:href="0..1" xlink:show="new" xlink:title="0..1" xlink:type="simple"><text fill="#0000FF" font-family="sans-serif" font-size="14" lengthAdjust="spacing" text-decoration="underline" textLength="26.7148" x="1159.9248" y="307.292">0..1</text></a><text fill="#000000" font-family="sans-serif" font-size="14" lengthAdjust="spacing" textLength="220.6572" x="946.5" y="323.5889">fagelementvarighed: Number.1</text><a href="1..1" target="_top" title="1..1" xlink:actuate="onRequest" xlink:href="1..1" xlink:show="new" xlink:title="1..1" xlink:type="simple"><text fill="#0000FF" font-family="sans-serif" font-size="14" lengthAdjust="spacing" text-decoration="underline" textLength="26.7148" x="1171.6074" y="323.5889">1..1</text></a><text fill="#000000" font-family="sans-serif" font-size="14" lengthAdjust="spacing" textLength="213.0762" x="946.5" y="339.8857">kapacitetMaximum: Number.0</text><a href="0..1" target="_top" title="0..1" xlink:actuate="onRequest" xlink:href="0..1" xlink:show="new" xlink:title="0..1" xlink:type="simple"><text fill="#0000FF" font-family="sans-serif" font-size="14" lengthAdjust="spacing" text-decoration="underline" textLength="26.7148" x="1164.0264" y="339.8857">0..1</text></a><text fill="#000000" font-family="sans-serif" font-size="14" lengthAdjust="spacing" textLength="257.4141" x="946.5" y="356.1826">anbefaledeFagligeForuds&#230;tninger: ?</text><a href="0..1" target="_top" title="0..1" xlink:actuate="onRequest" xlink:href="0..1" xlink:show="new" xlink:title="0..1" xlink:type="simple"><text fill="#0000FF" font-family="sans-serif" font-size="14" lengthAdjust="spacing" text-decoration="underline" textLength="26.7148" x="1208.3643" y="356.1826">0..1</text></a><text fill="#000000" font-family="sans-serif" font-size="14" lengthAdjust="spacing" textLength="148.7842" x="946.5" y="372.4795">anbefaletLitteratur: ?</text><a href="0..1" target="_top" title="0..1" xlink:actuate="onRequest" xlink:href="0..1" xlink:show="new" xlink:title="0..1" xlink:type="simple"><text fill="#0000FF" font-family="sans-serif" font-size="14" lengthAdjust="spacing" text-decoration="underline" textLength="26.7148" x="1099.7344" y="372.4795">0..1</text></a><text fill="#000000" font-family="sans-serif" font-size="14" lengthAdjust="spacing" textLength="189.2871" x="946.5" y="388.7764">feedbackform: PicklistMulti</text><a href="0..*" target="_top" title="0..*" xlink:actuate="onRequest" xlink:href="0..*" xlink:show="new" xlink:title="0..*" xlink:type="simple"><text fill="#0000FF" font-family="sans-serif" font-size="14" lengthAdjust="spacing" text-decoration="underline" textLength="24.8076" x="1140.2373" y="388.7764">0..*</text></a><text fill="#000000" font-family="sans-serif" font-size="14" lengthAdjust="spacing" textLength="141.7773" x="946.5" y="405.0732">arbejdsbelastning: ?</text><a href="1..1" target="_top" title="1..1" xlink:actuate="onRequest" xlink:href="1..1" xlink:show="new" xlink:title="1..1" xlink:type="simple"><text fill="#0000FF" font-family="sans-serif" font-size="14" lengthAdjust="spacing" text-decoration="underline" textLength="26.7148" x="1092.7275" y="405.0732">1..1</text></a><text fill="#000000" font-family="sans-serif" font-size="14" lengthAdjust="spacing" textLength="96.0723" x="946.5" y="421.3701">fagligeKrav: ?</text><a href="0..1" target="_top" title="0..1" xlink:actuate="onRequest" xlink:href="0..1" xlink:show="new" xlink:title="0..1" xlink:type="simple"><text fill="#0000FF" font-family="sans-serif" font-size="14" lengthAdjust="spacing" text-decoration="underline" textLength="26.7148" x="1047.0225" y="421.3701">0..1</text></a><text fill="#000000" font-family="sans-serif" font-size="14" lengthAdjust="spacing" textLength="163.8779" x="946.5" y="437.667">afviklingssprog: Picklist</text><a href="1..1" target="_top" title="1..1" xlink:actuate="onRequest" xlink:href="1..1" xlink:show="new" xlink:title="1..1" xlink:type="simple"><text fill="#0000FF" font-family="sans-serif" font-size="14" lengthAdjust="spacing" text-decoration="underline" textLength="26.7148" x="1114.8281" y="437.667">1..1</text></a><text fill="#000000" font-family="sans-serif" font-size="14" lengthAdjust="spacing" textLength="160.7402" x="946.5" y="453.9639">udv&#230;lgelseskriterier: ?</text><a href="0..1" target="_top" title="0..1" xlink:actuate="onRequest" xlink:href="0..1" xlink:show="new" xlink:title="0..1" xlink:type="simple"><text fill="#0000FF" font-family="sans-serif" font-size="14" lengthAdjust="spacing" text-decoration="underline" textLength="26.7148" x="1111.6904" y="453.9639">0..1</text></a><text fill="#000000" font-family="sans-serif" font-size="14" lengthAdjust="spacing" textLength="35.916" x="946.5" y="470.2607">&#171;BK&#187;</text><text fill="#000000" font-family="sans-serif" font-size="14" lengthAdjust="spacing" textLength="191.7891" x="946.5" y="486.5576">/fagelementkode: IgnoreBK</text><a href="1..1" target="_top" title="1..1" xlink:actuate="onRequest" xlink:href="1..1" xlink:show="new" xlink:title="1..1" xlink:type="simple"><text fill="#0000FF" font-family="sans-serif" font-size="14" lengthAdjust="spacing" text-decoration="underline" textLength="26.7148" x="1142.7393" y="486.5576">1..1</text></a><text fill="#000000" font-family="sans-serif" font-size="14" lengthAdjust="spacing" textLength="216.5762" x="946.5" y="502.8545">/udbudsperiodekode: IgnoreBK</text><a href="1..1" target="_top" title="1..1" xlink:actuate="onRequest" xlink:href="1..1" xlink:show="new" xlink:title="1..1" xlink:type="simple"><text fill="#0000FF" font-family="sans-serif" font-size="14" lengthAdjust="spacing" text-decoration="underline" textLength="26.7148" x="1167.5264" y="502.8545">1..1</text></a><text fill="#000000" font-family="sans-serif" font-size="14" lengthAdjust="spacing" textLength="193.6484" x="946.5" y="519.1514">/udbudsstedkode: IgnoreBK</text><a href="1..1" target="_top" title="1..1" xlink:actuate="onRequest" xlink:href="1..1" xlink:show="new" xlink:title="1..1" xlink:type="simple"><text fill="#0000FF" font-family="sans-serif" font-size="14" lengthAdjust="spacing" text-decoration="underline" textLength="26.7148" x="1144.5986" y="519.1514">1..1</text></a></g><!--class Skemagruppe--><g id="elem_Skemagruppe"><rect codeLine="446" fill="#F1F1F1" height="105.1875" id="Skemagruppe" rx="2.5" ry="2.5" style="stroke:#181818;stroke-width:0.5;" width="300.6064" x="587.5" y="610.7969"/><ellipse cx="684.6899" cy="626.7969" fill="#ADD1B2" rx="11" ry="11" style="stroke:#181818;stroke-width:1.0;"/><path d="M687.6587,632.4375 Q687.0806,632.7344 686.4399,632.875 Q685.7993,633.0313 685.0962,633.0313 Q682.5962,633.0313 681.2681,631.3906 Q679.9556,629.7344 679.9556,626.6094 Q679.9556,623.4844 681.2681,621.8281 Q682.5962,620.1719 685.0962,620.1719 Q685.7993,620.1719 686.4399,620.3281 Q687.0962,620.4844 687.6587,620.7813 L687.6587,623.5 Q687.0337,622.9219 686.4399,622.6563 Q685.8462,622.375 685.2212,622.375 Q683.8774,622.375 683.1899,623.4531 Q682.5024,624.5156 682.5024,626.6094 Q682.5024,628.7031 683.1899,629.7813 Q683.8774,630.8438 685.2212,630.8438 Q685.8462,630.8438 686.4399,630.5781 Q687.0337,630.2969 687.6587,629.7188 L687.6587,632.4375 Z " fill="#000000"/><text fill="#000000" font-family="sans-serif" font-size="14" lengthAdjust="spacing" textLength="97.7266" x="705.1899" y="631.6436">Skemagruppe</text><line style="stroke:#181818;stroke-width:0.5;" x1="588.5" x2="887.1064" y1="642.7969" y2="642.7969"/><text fill="#000000" font-family="sans-serif" font-size="14" lengthAdjust="spacing" textLength="190.2646" x="593.5" y="659.792">skemagruppeNavn: Text80</text><a href="1..1" target="_top" title="1..1" xlink:actuate="onRequest" xlink:href="1..1" xlink:show="new" xlink:title="1..1" xlink:type="simple"><text fill="#0000FF" font-family="sans-serif" font-size="14" lengthAdjust="spacing" text-decoration="underline" textLength="26.7148" x="788.2148" y="659.792">1..1</text></a><text fill="#000000" font-family="sans-serif" font-size="14" lengthAdjust="spacing" textLength="257.4414" x="593.5" y="676.0889">skemagruppeBeskrivelse: TekstLong</text><a href="1..1" target="_top" title="1..1" xlink:actuate="onRequest" xlink:href="1..1" xlink:show="new" xlink:title="1..1" xlink:type="simple"><text fill="#0000FF" font-family="sans-serif" font-size="14" lengthAdjust="spacing" text-decoration="underline" textLength="26.7148" x="855.3916" y="676.0889">1..1</text></a><text fill="#000000" font-family="sans-serif" font-size="14" lengthAdjust="spacing" textLength="35.916" x="593.5" y="692.3857">&#171;BK&#187;</text><text fill="#000000" font-family="sans-serif" font-size="14" lengthAdjust="spacing" textLength="204.9619" x="593.5" y="708.6826">skemagruppekode: AutoNum</text><a href="1..1" target="_top" title="1..1" xlink:actuate="onRequest" xlink:href="1..1" xlink:show="new" xlink:title="1..1" xlink:type="simple"><text fill="#0000FF" font-family="sans-serif" font-size="14" lengthAdjust="spacing" text-decoration="underline" textLength="26.7148" x="802.9121" y="708.6826">1..1</text></a></g><!--class UdbudtFagelementansvarligEnhed--><g id="elem_UdbudtFagelementansvarligEnhed"><rect codeLine="453" fill="#F1F1F1" height="154.0781" id="UdbudtFagelementansvarligEnhed" rx="2.5" ry="2.5" style="stroke:#181818;stroke-width:0.5;" width="274.6416" x="323.5" y="44.2969"/><ellipse cx="338.5" cy="60.2969" fill="#ADD1B2" rx="11" ry="11" style="stroke:#181818;stroke-width:1.0;"/><path d="M341.4688,65.9375 Q340.8906,66.2344 340.25,66.375 Q339.6094,66.5313 338.9063,66.5313 Q336.4063,66.5313 335.0781,64.8906 Q333.7656,63.2344 333.7656,60.1094 Q333.7656,56.9844 335.0781,55.3281 Q336.4063,53.6719 338.9063,53.6719 Q339.6094,53.6719 340.25,53.8281 Q340.9063,53.9844 341.4688,54.2813 L341.4688,57 Q340.8438,56.4219 340.25,56.1563 Q339.6563,55.875 339.0313,55.875 Q337.6875,55.875 337,56.9531 Q336.3125,58.0156 336.3125,60.1094 Q336.3125,62.2031 337,63.2813 Q337.6875,64.3438 339.0313,64.3438 Q339.6563,64.3438 340.25,64.0781 Q340.8438,63.7969 341.4688,63.2188 L341.4688,65.9375 Z " fill="#000000"/><text fill="#000000" font-family="sans-serif" font-size="14" lengthAdjust="spacing" textLength="242.6416" x="352.5" y="65.1436">UdbudtFagelementansvarligEnhed</text><line style="stroke:#181818;stroke-width:0.5;" x1="324.5" x2="597.1416" y1="76.2969" y2="76.2969"/><text fill="#000000" font-family="sans-serif" font-size="14" lengthAdjust="spacing" textLength="133.5469" x="329.5" y="93.292">ansvarsfordeling: ?</text><a href="1..1" target="_top" title="1..1" xlink:actuate="onRequest" xlink:href="1..1" xlink:show="new" xlink:title="1..1" xlink:type="simple"><text fill="#0000FF" font-family="sans-serif" font-size="14" lengthAdjust="spacing" text-decoration="underline" textLength="26.7148" x="467.4971" y="93.292">1..1</text></a><text fill="#000000" font-family="sans-serif" font-size="14" lengthAdjust="spacing" textLength="35.916" x="329.5" y="109.5889">&#171;BK&#187;</text><text fill="#000000" font-family="sans-serif" font-size="14" lengthAdjust="spacing" textLength="211.5381" x="329.5" y="125.8857">orgEnhedAnsvarsrolle: Picklist</text><a href="1..1" target="_top" title="1..1" xlink:actuate="onRequest" xlink:href="1..1" xlink:show="new" xlink:title="1..1" xlink:type="simple"><text fill="#0000FF" font-family="sans-serif" font-size="14" lengthAdjust="spacing" text-decoration="underline" textLength="26.7148" x="545.4883" y="125.8857">1..1</text></a><text fill="#000000" font-family="sans-serif" font-size="14" lengthAdjust="spacing" textLength="191.7891" x="329.5" y="142.1826">/fagelementkode: IgnoreBK</text><a href="1..1" target="_top" title="1..1" xlink:actuate="onRequest" xlink:href="1..1" xlink:show="new" xlink:title="1..1" xlink:type="simple"><text fill="#0000FF" font-family="sans-serif" font-size="14" lengthAdjust="spacing" text-decoration="underline" textLength="26.7148" x="525.7393" y="142.1826">1..1</text></a><text fill="#000000" font-family="sans-serif" font-size="14" lengthAdjust="spacing" textLength="182.4033" x="329.5" y="158.4795">/udbudsperiode: IgnoreBK</text><a href="1..1" target="_top" title="1..1" xlink:actuate="onRequest" xlink:href="1..1" xlink:show="new" xlink:title="1..1" xlink:type="simple"><text fill="#0000FF" font-family="sans-serif" font-size="14" lengthAdjust="spacing" text-decoration="underline" textLength="26.7148" x="516.3535" y="158.4795">1..1</text></a><text fill="#000000" font-family="sans-serif" font-size="14" lengthAdjust="spacing" textLength="193.6484" x="329.5" y="174.7764">/udbudsstedkode: IgnoreBK</text><a href="1..1" target="_top" title="1..1" xlink:actuate="onRequest" xlink:href="1..1" xlink:show="new" xlink:title="1..1" xlink:type="simple"><text fill="#0000FF" font-family="sans-serif" font-size="14" lengthAdjust="spacing" text-decoration="underline" textLength="26.7148" x="527.5986" y="174.7764">1..1</text></a><text fill="#000000" font-family="sans-serif" font-size="14" lengthAdjust="spacing" textLength="157.8076" x="329.5" y="191.0732">/orgEnhedId: IgnoreBK</text><a href="1..1" target="_top" title="1..1" xlink:actuate="onRequest" xlink:href="1..1" xlink:show="new" xlink:title="1..1" xlink:type="simple"><text fill="#0000FF" font-family="sans-serif" font-size="14" lengthAdjust="spacing" text-decoration="underline" textLength="26.7148" x="491.7578" y="191.0732">1..1</text></a></g><!--class UdbudtFagelementansvarligPerson--><g id="elem_UdbudtFagelementansvarligPerson"><rect codeLine="463" fill="#F1F1F1" height="154.0781" id="UdbudtFagelementansvarligPerson" rx="2.5" ry="2.5" style="stroke:#181818;stroke-width:0.5;" width="278.0938" x="7" y="586.2969"/><ellipse cx="22" cy="602.2969" fill="#ADD1B2" rx="11" ry="11" style="stroke:#181818;stroke-width:1.0;"/><path d="M24.9688,607.9375 Q24.3906,608.2344 23.75,608.375 Q23.1094,608.5313 22.4063,608.5313 Q19.9063,608.5313 18.5781,606.8906 Q17.2656,605.2344 17.2656,602.1094 Q17.2656,598.9844 18.5781,597.3281 Q19.9063,595.6719 22.4063,595.6719 Q23.1094,595.6719 23.75,595.8281 Q24.4063,595.9844 24.9688,596.2813 L24.9688,599 Q24.3438,598.4219 23.75,598.1563 Q23.1563,597.875 22.5313,597.875 Q21.1875,597.875 20.5,598.9531 Q19.8125,600.0156 19.8125,602.1094 Q19.8125,604.2031 20.5,605.2813 Q21.1875,606.3438 22.5313,606.3438 Q23.1563,606.3438 23.75,606.0781 Q24.3438,605.7969 24.9688,605.2188 L24.9688,607.9375 Z " fill="#000000"/><text fill="#000000" font-family="sans-serif" font-size="14" lengthAdjust="spacing" textLength="246.0938" x="36" y="607.1436">UdbudtFagelementansvarligPerson</text><line style="stroke:#181818;stroke-width:0.5;" x1="8" x2="284.0938" y1="618.2969" y2="618.2969"/><text fill="#000000" font-family="sans-serif" font-size="14" lengthAdjust="spacing" textLength="35.916" x="13" y="635.292">&#171;BK&#187;</text><text fill="#000000" font-family="sans-serif" font-size="14" lengthAdjust="spacing" textLength="229.8994" x="13" y="651.5889">orgPersonAnsvarsrolle: IgnoreBK</text><a href="1..1" target="_top" title="1..1" xlink:actuate="onRequest" xlink:href="1..1" xlink:show="new" xlink:title="1..1" xlink:type="simple"><text fill="#0000FF" font-family="sans-serif" font-size="14" lengthAdjust="spacing" text-decoration="underline" textLength="26.7148" x="247.3496" y="651.5889">1..1</text></a><text fill="#000000" font-family="sans-serif" font-size="14" lengthAdjust="spacing" textLength="191.7891" x="13" y="667.8857">/fagelementkode: IgnoreBK</text><a href="1..1" target="_top" title="1..1" xlink:actuate="onRequest" xlink:href="1..1" xlink:show="new" xlink:title="1..1" xlink:type="simple"><text fill="#0000FF" font-family="sans-serif" font-size="14" lengthAdjust="spacing" text-decoration="underline" textLength="26.7148" x="209.2393" y="667.8857">1..1</text></a><text fill="#000000" font-family="sans-serif" font-size="14" lengthAdjust="spacing" textLength="182.4033" x="13" y="684.1826">/udbudsperiode: IgnoreBK</text><a href="1..1" target="_top" title="1..1" xlink:actuate="onRequest" xlink:href="1..1" xlink:show="new" xlink:title="1..1" xlink:type="simple"><text fill="#0000FF" font-family="sans-serif" font-size="14" lengthAdjust="spacing" text-decoration="underline" textLength="26.7148" x="199.8535" y="684.1826">1..1</text></a><text fill="#000000" font-family="sans-serif" font-size="14" lengthAdjust="spacing" textLength="193.6484" x="13" y="700.4795">/udbudsstedkode: IgnoreBK</text><a href="1..1" target="_top" title="1..1" xlink:actuate="onRequest" xlink:href="1..1" xlink:show="new" xlink:title="1..1" xlink:type="simple"><text fill="#0000FF" font-family="sans-serif" font-size="14" lengthAdjust="spacing" text-decoration="underline" textLength="26.7148" x="211.0986" y="700.4795">1..1</text></a><text fill="#000000" font-family="sans-serif" font-size="14" lengthAdjust="spacing" textLength="159.6533" x="13" y="716.7764">/personkode: IgnoreBK</text><a href="1..1" target="_top" title="1..1" xlink:actuate="onRequest" xlink:href="1..1" xlink:show="new" xlink:title="1..1" xlink:type="simple"><text fill="#0000FF" font-family="sans-serif" font-size="14" lengthAdjust="spacing" text-decoration="underline" textLength="26.7148" x="177.1035" y="716.7764">1..1</text></a><text fill="#000000" font-family="sans-serif" font-size="14" lengthAdjust="spacing" textLength="206.1992" x="13" y="733.0732">/organisationskode: IgnoreBK</text><a href="1..1" target="_top" title="1..1" xlink:actuate="onRequest" xlink:href="1..1" xlink:show="new" xlink:title="1..1" xlink:type="simple"><text fill="#0000FF" font-family="sans-serif" font-size="14" lengthAdjust="spacing" text-decoration="underline" textLength="26.7148" x="223.6494" y="733.0732">1..1</text></a></g><!--class FeedbackformEnum--><g id="elem_FeedbackformEnum"><rect codeLine="473" fill="#90EE90" height="64.5625" id="FeedbackformEnum" rx="2.5" ry="2.5" style="stroke:#181818;stroke-width:0.5;" width="172.5537" x="1424.5" y="359.7969"/><ellipse cx="1439.5" cy="379.9297" fill="#EB937F" rx="11" ry="11" style="stroke:#181818;stroke-width:1.0;"/><path d="M1443.6094,385.9297 L1435.8906,385.9297 L1435.8906,373.5391 L1443.6094,373.5391 L1443.6094,375.6953 L1438.3438,375.6953 L1438.3438,378.3672 L1443.1094,378.3672 L1443.1094,380.5234 L1438.3438,380.5234 L1438.3438,383.7734 L1443.6094,383.7734 L1443.6094,385.9297 Z " fill="#000000"/><text fill="#000000" font-family="sans-serif" font-size="12" font-style="italic" lengthAdjust="spacing" textLength="49.0957" x="1499.229" y="375.9355">&#171;enum&#187;</text><text fill="#000000" font-family="sans-serif" font-size="14" lengthAdjust="spacing" textLength="140.5537" x="1453.5" y="391.7607">FeedbackformEnum</text><line style="stroke:#181818;stroke-width:0.5;" x1="1425.5" x2="1596.0537" y1="400.0625" y2="400.0625"/><text fill="#000000" font-family="sans-serif" font-size="14" lengthAdjust="spacing" textLength="140.2598" x="1430.5" y="417.0576">lokalt defineret liste</text></g><!--class Udbudssted--><g id="elem_Udbudssted"><rect fill="#F1F1F1" height="32" id="Udbudssted" rx="2.5" ry="2.5" style="stroke:#181818;stroke-width:0.5;" width="115.3574" x="923.5" y="647.2969"/><ellipse cx="938.5" cy="663.2969" fill="#ADD1B2" rx="11" ry="11" style="stroke:#181818;stroke-width:1.0;"/><path d="M941.4688,668.9375 Q940.8906,669.2344 940.25,669.375 Q939.6094,669.5313 938.9063,669.5313 Q936.4063,669.5313 935.0781,667.8906 Q933.7656,666.2344 933.7656,663.1094 Q933.7656,659.9844 935.0781,658.3281 Q936.4063,656.6719 938.9063,656.6719 Q939.6094,656.6719 940.25,656.8281 Q940.9063,656.9844 941.4688,657.2813 L941.4688,660 Q940.8438,659.4219 940.25,659.1563 Q939.6563,658.875 939.0313,658.875 Q937.6875,658.875 937,659.9531 Q936.3125,661.0156 936.3125,663.1094 Q936.3125,665.2031 937,666.2813 Q937.6875,667.3438 939.0313,667.3438 Q939.6563,667.3438 940.25,667.0781 Q940.8438,666.7969 941.4688,666.2188 L941.4688,668.9375 Z " fill="#000000"/><text fill="#000000" font-family="sans-serif" font-size="14" lengthAdjust="spacing" textLength="83.3574" x="952.5" y="668.1436">Udbudssted</text></g><!--class UdbudtL?ringsaktivitet--><g id="elem_UdbudtL&#230;ringsaktivitet"><rect fill="#F1F1F1" height="32" id="UdbudtL&#230;ringsaktivitet" rx="2.5" ry="2.5" style="stroke:#181818;stroke-width:0.5;" width="197.3477" x="897.5" y="105.2969"/><ellipse cx="912.5" cy="121.2969" fill="#ADD1B2" rx="11" ry="11" style="stroke:#181818;stroke-width:1.0;"/><path d="M915.4688,126.9375 Q914.8906,127.2344 914.25,127.375 Q913.6094,127.5313 912.9063,127.5313 Q910.4063,127.5313 909.0781,125.8906 Q907.7656,124.2344 907.7656,121.1094 Q907.7656,117.9844 909.0781,116.3281 Q910.4063,114.6719 912.9063,114.6719 Q913.6094,114.6719 914.25,114.8281 Q914.9063,114.9844 915.4688,115.2813 L915.4688,118 Q914.8438,117.4219 914.25,117.1563 Q913.6563,116.875 913.0313,116.875 Q911.6875,116.875 911,117.9531 Q910.3125,119.0156 910.3125,121.1094 Q910.3125,123.2031 911,124.2813 Q911.6875,125.3438 913.0313,125.3438 Q913.6563,125.3438 914.25,125.0781 Q914.8438,124.7969 915.4688,124.2188 L915.4688,126.9375 Z " fill="#000000"/><text fill="#000000" font-family="sans-serif" font-size="14" lengthAdjust="spacing" textLength="165.3477" x="926.5" y="126.1436">UdbudtL&#230;ringsaktivitet</text></g><!--class Fagelement--><g id="elem_Fagelement"><rect fill="#F1F1F1" height="32" id="Fagelement" rx="2.5" ry="2.5" style="stroke:#181818;stroke-width:0.5;" width="115.248" x="1129.5" y="105.2969"/><ellipse cx="1144.5" cy="121.2969" fill="#ADD1B2" rx="11" ry="11" style="stroke:#181818;stroke-width:1.0;"/><path d="M1147.4688,126.9375 Q1146.8906,127.2344 1146.25,127.375 Q1145.6094,127.5313 1144.9063,127.5313 Q1142.4063,127.5313 1141.0781,125.8906 Q1139.7656,124.2344 1139.7656,121.1094 Q1139.7656,117.9844 1141.0781,116.3281 Q1142.4063,114.6719 1144.9063,114.6719 Q1145.6094,114.6719 1146.25,114.8281 Q1146.9063,114.9844 1147.4688,115.2813 L1147.4688,118 Q1146.8438,117.4219 1146.25,117.1563 Q1145.6563,116.875 1145.0313,116.875 Q1143.6875,116.875 1143,117.9531 Q1142.3125,119.0156 1142.3125,121.1094 Q1142.3125,123.2031 1143,124.2813 Q1143.6875,125.3438 1145.0313,125.3438 Q1145.6563,125.3438 1146.25,125.0781 Q1146.8438,124.7969 1147.4688,124.2188 L1147.4688,126.9375 Z " fill="#000000"/><text fill="#000000" font-family="sans-serif" font-size="14" lengthAdjust="spacing" textLength="83.248" x="1158.5" y="126.1436">Fagelement</text></g><!--class TilmeldingTilUdbudtFagelement--><g id="elem_TilmeldingTilUdbudtFagelement"><rect fill="#F1F1F1" height="32" id="TilmeldingTilUdbudtFagelement" rx="2.5" ry="2.5" style="stroke:#181818;stroke-width:0.5;" width="255.8564" x="1074" y="647.2969"/><ellipse cx="1089" cy="663.2969" fill="#ADD1B2" rx="11" ry="11" style="stroke:#181818;stroke-width:1.0;"/><path d="M1091.9688,668.9375 Q1091.3906,669.2344 1090.75,669.375 Q1090.1094,669.5313 1089.4063,669.5313 Q1086.9063,669.5313 1085.5781,667.8906 Q1084.2656,666.2344 1084.2656,663.1094 Q1084.2656,659.9844 1085.5781,658.3281 Q1086.9063,656.6719 1089.4063,656.6719 Q1090.1094,656.6719 1090.75,656.8281 Q1091.4063,656.9844 1091.9688,657.2813 L1091.9688,660 Q1091.3438,659.4219 1090.75,659.1563 Q1090.1563,658.875 1089.5313,658.875 Q1088.1875,658.875 1087.5,659.9531 Q1086.8125,661.0156 1086.8125,663.1094 Q1086.8125,665.2031 1087.5,666.2813 Q1088.1875,667.3438 1089.5313,667.3438 Q1090.1563,667.3438 1090.75,667.0781 Q1091.3438,666.7969 1091.9688,666.2188 L1091.9688,668.9375 Z " fill="#000000"/><text fill="#000000" font-family="sans-serif" font-size="14" lengthAdjust="spacing" textLength="223.8564" x="1103" y="668.1436">TilmeldingTilUdbudtFagelement</text></g><!--class UdbudtEnkeltfag--><g id="elem_UdbudtEnkeltfag"><rect fill="#F1F1F1" height="32" id="UdbudtEnkeltfag" rx="2.5" ry="2.5" style="stroke:#181818;stroke-width:0.5;" width="149.4824" x="1279.5" y="105.2969"/><ellipse cx="1294.5" cy="121.2969" fill="#ADD1B2" rx="11" ry="11" style="stroke:#181818;stroke-width:1.0;"/><path d="M1297.4688,126.9375 Q1296.8906,127.2344 1296.25,127.375 Q1295.6094,127.5313 1294.9063,127.5313 Q1292.4063,127.5313 1291.0781,125.8906 Q1289.7656,124.2344 1289.7656,121.1094 Q1289.7656,117.9844 1291.0781,116.3281 Q1292.4063,114.6719 1294.9063,114.6719 Q1295.6094,114.6719 1296.25,114.8281 Q1296.9063,114.9844 1297.4688,115.2813 L1297.4688,118 Q1296.8438,117.4219 1296.25,117.1563 Q1295.6563,116.875 1295.0313,116.875 Q1293.6875,116.875 1293,117.9531 Q1292.3125,119.0156 1292.3125,121.1094 Q1292.3125,123.2031 1293,124.2813 Q1293.6875,125.3438 1295.0313,125.3438 Q1295.6563,125.3438 1296.25,125.0781 Q1296.8438,124.7969 1297.4688,124.2188 L1297.4688,126.9375 Z " fill="#000000"/><text fill="#000000" font-family="sans-serif" font-size="14" lengthAdjust="spacing" textLength="117.4824" x="1308.5" y="126.1436">UdbudtEnkeltfag</text></g><!--class UdbudtPr?ve--><g id="elem_UdbudtPr&#248;ve"><rect fill="#F1F1F1" height="32" id="UdbudtPr&#248;ve" rx="2.5" ry="2.5" style="stroke:#181818;stroke-width:0.5;" width="122.9316" x="1365.5" y="647.2969"/><ellipse cx="1380.5" cy="663.2969" fill="#ADD1B2" rx="11" ry="11" style="stroke:#181818;stroke-width:1.0;"/><path d="M1383.4688,668.9375 Q1382.8906,669.2344 1382.25,669.375 Q1381.6094,669.5313 1380.9063,669.5313 Q1378.4063,669.5313 1377.0781,667.8906 Q1375.7656,666.2344 1375.7656,663.1094 Q1375.7656,659.9844 1377.0781,658.3281 Q1378.4063,656.6719 1380.9063,656.6719 Q1381.6094,656.6719 1382.25,656.8281 Q1382.9063,656.9844 1383.4688,657.2813 L1383.4688,660 Q1382.8438,659.4219 1382.25,659.1563 Q1381.6563,658.875 1381.0313,658.875 Q1379.6875,658.875 1379,659.9531 Q1378.3125,661.0156 1378.3125,663.1094 Q1378.3125,665.2031 1379,666.2813 Q1379.6875,667.3438 1381.0313,667.3438 Q1381.6563,667.3438 1382.25,667.0781 Q1382.8438,666.7969 1383.4688,666.2188 L1383.4688,668.9375 Z " fill="#000000"/><text fill="#000000" font-family="sans-serif" font-size="14" lengthAdjust="spacing" textLength="90.9316" x="1394.5" y="668.1436">UdbudtPr&#248;ve</text></g><!--class OrgEnhed--><g id="elem_OrgEnhed"><rect fill="#F1F1F1" height="32" id="OrgEnhed" rx="2.5" ry="2.5" style="stroke:#181818;stroke-width:0.5;" width="101.7539" x="410" y="376.2969"/><ellipse cx="425" cy="392.2969" fill="#ADD1B2" rx="11" ry="11" style="stroke:#181818;stroke-width:1.0;"/><path d="M427.9688,397.9375 Q427.3906,398.2344 426.75,398.375 Q426.1094,398.5313 425.4063,398.5313 Q422.9063,398.5313 421.5781,396.8906 Q420.2656,395.2344 420.2656,392.1094 Q420.2656,388.9844 421.5781,387.3281 Q422.9063,385.6719 425.4063,385.6719 Q426.1094,385.6719 426.75,385.8281 Q427.4063,385.9844 427.9688,386.2813 L427.9688,389 Q427.3438,388.4219 426.75,388.1563 Q426.1563,387.875 425.5313,387.875 Q424.1875,387.875 423.5,388.9531 Q422.8125,390.0156 422.8125,392.1094 Q422.8125,394.2031 423.5,395.2813 Q424.1875,396.3438 425.5313,396.3438 Q426.1563,396.3438 426.75,396.0781 Q427.3438,395.7969 427.9688,395.2188 L427.9688,397.9375 Z " fill="#000000"/><text fill="#000000" font-family="sans-serif" font-size="14" lengthAdjust="spacing" textLength="69.7539" x="439" y="397.1436">OrgEnhed</text></g><!--class Ansat--><g id="elem_Ansat"><rect fill="#F1F1F1" height="32" id="Ansat" rx="2.5" ry="2.5" style="stroke:#181818;stroke-width:0.5;" width="71.8125" x="44" y="800.2969"/><ellipse cx="59" cy="816.2969" fill="#ADD1B2" rx="11" ry="11" style="stroke:#181818;stroke-width:1.0;"/><path d="M61.9688,821.9375 Q61.3906,822.2344 60.75,822.375 Q60.1094,822.5313 59.4063,822.5313 Q56.9063,822.5313 55.5781,820.8906 Q54.2656,819.2344 54.2656,816.1094 Q54.2656,812.9844 55.5781,811.3281 Q56.9063,809.6719 59.4063,809.6719 Q60.1094,809.6719 60.75,809.8281 Q61.4063,809.9844 61.9688,810.2813 L61.9688,813 Q61.3438,812.4219 60.75,812.1563 Q60.1563,811.875 59.5313,811.875 Q58.1875,811.875 57.5,812.9531 Q56.8125,814.0156 56.8125,816.1094 Q56.8125,818.2031 57.5,819.2813 Q58.1875,820.3438 59.5313,820.3438 Q60.1563,820.3438 60.75,820.0781 Q61.3438,819.7969 61.9688,819.2188 L61.9688,821.9375 Z " fill="#000000"/><text fill="#000000" font-family="sans-serif" font-size="14" lengthAdjust="spacing" textLength="39.8125" x="73" y="821.1436">Ansat</text></g><!--class Udbudsperiode--><g id="elem_Udbudsperiode"><rect fill="#F1F1F1" height="32" id="Udbudsperiode" rx="2.5" ry="2.5" style="stroke:#181818;stroke-width:0.5;" width="138.2852" x="1524" y="647.2969"/><ellipse cx="1539" cy="663.2969" fill="#ADD1B2" rx="11" ry="11" style="stroke:#181818;stroke-width:1.0;"/><path d="M1541.9688,668.9375 Q1541.3906,669.2344 1540.75,669.375 Q1540.1094,669.5313 1539.4063,669.5313 Q1536.9063,669.5313 1535.5781,667.8906 Q1534.2656,666.2344 1534.2656,663.1094 Q1534.2656,659.9844 1535.5781,658.3281 Q1536.9063,656.6719 1539.4063,656.6719 Q1540.1094,656.6719 1540.75,656.8281 Q1541.4063,656.9844 1541.9688,657.2813 L1541.9688,660 Q1541.3438,659.4219 1540.75,659.1563 Q1540.1563,658.875 1539.5313,658.875 Q1538.1875,658.875 1537.5,659.9531 Q1536.8125,661.0156 1536.8125,663.1094 Q1536.8125,665.2031 1537.5,666.2813 Q1538.1875,667.3438 1539.5313,667.3438 Q1540.1563,667.3438 1540.75,667.0781 Q1541.3438,666.7969 1541.9688,666.2188 L1541.9688,668.9375 Z " fill="#000000"/><text fill="#000000" font-family="sans-serif" font-size="14" lengthAdjust="spacing" textLength="106.2852" x="1553" y="668.1436">Udbudsperiode</text></g><!--class Medlemskab--><g id="elem_Medlemskab"><rect fill="#F1F1F1" height="32" id="Medlemskab" rx="2.5" ry="2.5" style="stroke:#181818;stroke-width:0.5;" width="120.5869" x="151.5" y="800.2969"/><ellipse cx="166.5" cy="816.2969" fill="#ADD1B2" rx="11" ry="11" style="stroke:#181818;stroke-width:1.0;"/><path d="M169.4688,821.9375 Q168.8906,822.2344 168.25,822.375 Q167.6094,822.5313 166.9063,822.5313 Q164.4063,822.5313 163.0781,820.8906 Q161.7656,819.2344 161.7656,816.1094 Q161.7656,812.9844 163.0781,811.3281 Q164.4063,809.6719 166.9063,809.6719 Q167.6094,809.6719 168.25,809.8281 Q168.9063,809.9844 169.4688,810.2813 L169.4688,813 Q168.8438,812.4219 168.25,812.1563 Q167.6563,811.875 167.0313,811.875 Q165.6875,811.875 165,812.9531 Q164.3125,814.0156 164.3125,816.1094 Q164.3125,818.2031 165,819.2813 Q165.6875,820.3438 167.0313,820.3438 Q167.6563,820.3438 168.25,820.0781 Q168.8438,819.7969 169.4688,819.2188 L169.4688,821.9375 Z " fill="#000000"/><text fill="#000000" font-family="sans-serif" font-size="14" lengthAdjust="spacing" textLength="88.5869" x="180.5" y="821.1436">Medlemskab</text></g><!--class SprogEnum--><g id="elem_SprogEnum"><rect fill="#F1F1F1" height="32" id="SprogEnum" rx="2.5" ry="2.5" style="stroke:#181818;stroke-width:0.5;" width="113.2109" x="1276.5" y="376.2969"/><ellipse cx="1291.5" cy="392.2969" fill="#ADD1B2" rx="11" ry="11" style="stroke:#181818;stroke-width:1.0;"/><path d="M1294.4688,397.9375 Q1293.8906,398.2344 1293.25,398.375 Q1292.6094,398.5313 1291.9063,398.5313 Q1289.4063,398.5313 1288.0781,396.8906 Q1286.7656,395.2344 1286.7656,392.1094 Q1286.7656,388.9844 1288.0781,387.3281 Q1289.4063,385.6719 1291.9063,385.6719 Q1292.6094,385.6719 1293.25,385.8281 Q1293.9063,385.9844 1294.4688,386.2813 L1294.4688,389 Q1293.8438,388.4219 1293.25,388.1563 Q1292.6563,387.875 1292.0313,387.875 Q1290.6875,387.875 1290,388.9531 Q1289.3125,390.0156 1289.3125,392.1094 Q1289.3125,394.2031 1290,395.2813 Q1290.6875,396.3438 1292.0313,396.3438 Q1292.6563,396.3438 1293.25,396.0781 Q1293.8438,395.7969 1294.4688,395.2188 L1294.4688,397.9375 Z " fill="#000000"/><text fill="#000000" font-family="sans-serif" font-size="14" lengthAdjust="spacing" textLength="81.2109" x="1305.5" y="397.1436">SprogEnum</text></g><!--class OrgPersonAnsvarsrolleEnum--><g id="elem_OrgPersonAnsvarsrolleEnum"><rect fill="#F1F1F1" height="32" id="OrgPersonAnsvarsrolleEnum" rx="2.5" ry="2.5" style="stroke:#181818;stroke-width:0.5;" width="231.8076" x="320" y="647.2969"/><ellipse cx="335" cy="663.2969" fill="#ADD1B2" rx="11" ry="11" style="stroke:#181818;stroke-width:1.0;"/><path d="M337.9688,668.9375 Q337.3906,669.2344 336.75,669.375 Q336.1094,669.5313 335.4063,669.5313 Q332.9063,669.5313 331.5781,667.8906 Q330.2656,666.2344 330.2656,663.1094 Q330.2656,659.9844 331.5781,658.3281 Q332.9063,656.6719 335.4063,656.6719 Q336.1094,656.6719 336.75,656.8281 Q337.4063,656.9844 337.9688,657.2813 L337.9688,660 Q337.3438,659.4219 336.75,659.1563 Q336.1563,658.875 335.5313,658.875 Q334.1875,658.875 333.5,659.9531 Q332.8125,661.0156 332.8125,663.1094 Q332.8125,665.2031 333.5,666.2813 Q334.1875,667.3438 335.5313,667.3438 Q336.1563,667.3438 336.75,667.0781 Q337.3438,666.7969 337.9688,666.2188 L337.9688,668.9375 Z " fill="#000000"/><text fill="#000000" font-family="sans-serif" font-size="14" lengthAdjust="spacing" textLength="199.8076" x="349" y="668.1436">OrgPersonAnsvarsrolleEnum</text></g><!--class OrgEnhedAnsvarsrolleEnum--><g id="elem_OrgEnhedAnsvarsrolleEnum"><rect fill="#F1F1F1" height="32" id="OrgEnhedAnsvarsrolleEnum" rx="2.5" ry="2.5" style="stroke:#181818;stroke-width:0.5;" width="228.3555" x="634" y="105.2969"/><ellipse cx="649" cy="121.2969" fill="#ADD1B2" rx="11" ry="11" style="stroke:#181818;stroke-width:1.0;"/><path d="M651.9688,126.9375 Q651.3906,127.2344 650.75,127.375 Q650.1094,127.5313 649.4063,127.5313 Q646.9063,127.5313 645.5781,125.8906 Q644.2656,124.2344 644.2656,121.1094 Q644.2656,117.9844 645.5781,116.3281 Q646.9063,114.6719 649.4063,114.6719 Q650.1094,114.6719 650.75,114.8281 Q651.4063,114.9844 651.9688,115.2813 L651.9688,118 Q651.3438,117.4219 650.75,117.1563 Q650.1563,116.875 649.5313,116.875 Q648.1875,116.875 647.5,117.9531 Q646.8125,119.0156 646.8125,121.1094 Q646.8125,123.2031 647.5,124.2813 Q648.1875,125.3438 649.5313,125.3438 Q650.1563,125.3438 650.75,125.0781 Q651.3438,124.7969 651.9688,124.2188 L651.9688,126.9375 Z " fill="#000000"/><text fill="#000000" font-family="sans-serif" font-size="14" lengthAdjust="spacing" textLength="196.3555" x="663" y="126.1436">OrgEnhedAnsvarsrolleEnum</text></g><!--link UdbudtFagelement to Udbudssted--><g id="link_UdbudtFagelement_Udbudssted"><path codeLine="477" d="M1014,526.6069 C1014,574.5169 1014,622.6369 1014,646.9769 " fill="none" id="UdbudtFagelement-Udbudssted" style="stroke:#181818;stroke-width:1.0;"/><text fill="#000000" font-family="sans-serif" font-size="13" lengthAdjust="spacing" textLength="23.0356" x="986.1726" y="546.4284">0..*</text><text fill="#000000" font-family="sans-serif" font-size="13" lengthAdjust="spacing" textLength="8.271" x="1015.5919" y="636.1754">1</text></g><!--link UdbudtL?ringsaktivitet to UdbudtFagelement--><g id="link_UdbudtL&#230;ringsaktivitet_UdbudtFagelement"><path codeLine="478" d="M1017.5,137.4369 C1017.5,161.7669 1017.5,210.1169 1017.5,258.2369 " fill="none" id="UdbudtL&#230;ringsaktivitet-UdbudtFagelement" style="stroke:#181818;stroke-width:1.0;"/><text fill="#000000" font-family="sans-serif" font-size="13" lengthAdjust="spacing" textLength="23.0356" x="997.7608" y="157.3565">0..*</text><text fill="#000000" font-family="sans-serif" font-size="13" lengthAdjust="spacing" textLength="8.271" x="1005.0395" y="247.1192">1</text></g><!--link Fagelement to UdbudtFagelement--><g id="link_Fagelement_UdbudtFagelement"><path codeLine="479" d="M1185.5,137.4369 C1185.5,161.7669 1185.5,210.1169 1185.5,258.2369 " fill="none" id="Fagelement-UdbudtFagelement" style="stroke:#181818;stroke-width:1.0;"/><text fill="#000000" font-family="sans-serif" font-size="13" lengthAdjust="spacing" textLength="77.854" x="1107.5" y="193.9038">udbudt som</text><text fill="#000000" font-family="sans-serif" font-size="13" lengthAdjust="spacing" textLength="8.271" x="1175.6819" y="157.3565">1</text><text fill="#000000" font-family="sans-serif" font-size="13" lengthAdjust="spacing" textLength="23.0356" x="1167.3116" y="247.1192">0..*</text></g><!--link UdbudtFagelement to TilmeldingTilUdbudtFagelement--><g id="link_UdbudtFagelement_TilmeldingTilUdbudtFagelement"><path codeLine="480" d="M1157.75,526.6069 C1157.75,574.5169 1157.75,622.6369 1157.75,646.9769 " fill="none" id="UdbudtFagelement-TilmeldingTilUdbudtFagelement" style="stroke:#181818;stroke-width:1.0;"/><text fill="#000000" font-family="sans-serif" font-size="13" lengthAdjust="spacing" textLength="66.3965" x="1090.75" y="582.8538">tilmeldt til</text><text fill="#000000" font-family="sans-serif" font-size="13" lengthAdjust="spacing" textLength="8.271" x="1153.2006" y="546.4284">1</text><text fill="#000000" font-family="sans-serif" font-size="13" lengthAdjust="spacing" textLength="23.0356" x="1116.3125" y="636.1754">0..*</text></g><!--link UdbudtEnkeltfag to UdbudtFagelement--><g id="link_UdbudtEnkeltfag_UdbudtFagelement"><path codeLine="481" d="M1334.5,137.3269 C1334.5,182.7869 1334.5,309.2969 1334.5,309.2969 C1334.5,309.2969 1291.56,309.2969 1241.75,309.2969 " fill="none" id="UdbudtEnkeltfag-UdbudtFagelement" style="stroke:#181818;stroke-width:1.0;"/><text fill="#000000" font-family="sans-serif" font-size="13" lengthAdjust="spacing" textLength="77.854" x="1256.5" y="265.7538">udbudt som</text><text fill="#000000" font-family="sans-serif" font-size="13" lengthAdjust="spacing" textLength="23.0356" x="1300.767" y="157.505">0..*</text><text fill="#000000" font-family="sans-serif" font-size="13" lengthAdjust="spacing" textLength="23.0356" x="1249.1123" y="302.2625">1..*</text></g><!--link UdbudtFagelementansvarligEnhed to UdbudtFagelement--><g id="link_UdbudtFagelementansvarligEnhed_UdbudtFagelement"><path codeLine="482" d="M593,198.4769 C593,253.3269 593,317.2969 593,317.2969 C593,317.2969 793.66,317.2969 940.23,317.2969 " fill="none" id="UdbudtFagelementansvarligEnhed-UdbudtFagelement" style="stroke:#181818;stroke-width:1.0;"/><text fill="#000000" font-family="sans-serif" font-size="13" lengthAdjust="spacing" textLength="23.0356" x="581.1268" y="218.3527">0..*</text><text fill="#000000" font-family="sans-serif" font-size="13" lengthAdjust="spacing" textLength="8.271" x="924.2675" y="310.1093">1</text></g><!--link UdbudtFagelement to UdbudtPr?ve--><g id="link_UdbudtFagelement_UdbudtPr&#248;ve"><path codeLine="483" d="M1241.8,493.2969 C1310.82,493.2969 1377.5,493.2969 1377.5,493.2969 C1377.5,493.2969 1377.5,604.4469 1377.5,646.9969 " fill="none" id="UdbudtFagelement-UdbudtPr&#248;ve" style="stroke:#181818;stroke-width:1.0;"/><text fill="#000000" font-family="sans-serif" font-size="13" lengthAdjust="spacing" textLength="8.271" x="1249.3149" y="494.8921">1</text><text fill="#000000" font-family="sans-serif" font-size="13" lengthAdjust="spacing" textLength="23.0356" x="1334.311" y="636.202">1..*</text></g><!--link UdbudtFagelement to Skemagruppe--><g id="link_UdbudtFagelement_Skemagruppe"><path codeLine="484" d="M989.5,526.3769 C989.5,580.0069 989.5,629.2969 989.5,629.2969 C989.5,629.2969 942.22,629.2969 888.65,629.2969 " fill="none" id="UdbudtFagelement-Skemagruppe" style="stroke:#181818;stroke-width:1.0;"/><text fill="#000000" font-family="sans-serif" font-size="13" lengthAdjust="spacing" textLength="23.0356" x="959.9804" y="546.6282">0..*</text><text fill="#000000" font-family="sans-serif" font-size="13" lengthAdjust="spacing" textLength="24.8066" x="896.0473" y="624.4821">0..1</text></g><!--link UdbudtFagelement to UdbudtFagelementansvarligPerson--><g id="link_UdbudtFagelement_UdbudtFagelementansvarligPerson"><path codeLine="485" d="M965,526.3169 C965,566.1169 965,599.2969 965,599.2969 C965,599.2969 519.19,599.2969 285.4,599.2969 " fill="none" id="UdbudtFagelement-UdbudtFagelementansvarligPerson" style="stroke:#181818;stroke-width:1.0;"/><text fill="#000000" font-family="sans-serif" font-size="13" lengthAdjust="spacing" textLength="8.271" x="949.5044" y="546.5647">1</text><text fill="#000000" font-family="sans-serif" font-size="13" lengthAdjust="spacing" textLength="23.0356" x="293.1793" y="592.6785">0..*</text></g><!--link UdbudtFagelementansvarligEnhed to OrgEnhed--><g id="link_UdbudtFagelementansvarligEnhed_OrgEnhed"><path codeLine="486" d="M461,198.5969 C461,260.3869 461,342.1269 461,376.2569 " fill="none" id="UdbudtFagelementansvarligEnhed-OrgEnhed" style="stroke:#181818;stroke-width:1.0;"/><text fill="#000000" font-family="sans-serif" font-size="13" lengthAdjust="spacing" textLength="23.0356" x="436.958" y="218.4838">0..*</text><text fill="#000000" font-family="sans-serif" font-size="13" lengthAdjust="spacing" textLength="8.271" x="451.7139" y="365.2547">1</text></g><!--link UdbudtFagelementansvarligPerson to Ansat--><g id="link_UdbudtFagelementansvarligPerson_Ansat"><path codeLine="487" d="M80,740.6969 C80,763.2269 80,785.6569 80,800.1569 " fill="none" id="UdbudtFagelementansvarligPerson-Ansat" style="stroke:#181818;stroke-width:1.0;"/><text fill="#000000" font-family="sans-serif" font-size="13" lengthAdjust="spacing" textLength="23.0356" x="50.0951" y="760.3276">0..*</text><text fill="#000000" font-family="sans-serif" font-size="13" lengthAdjust="spacing" textLength="24.8066" x="52.0459" y="789.1203">0..1</text></g><!--link UdbudtFagelement to Udbudsperiode--><g id="link_UdbudtFagelement_Udbudsperiode"><path codeLine="488" d="M1241.57,459.2969 C1378.97,459.2969 1560.75,459.2969 1560.75,459.2969 C1560.75,459.2969 1560.75,599.1969 1560.75,647.2869 " fill="none" id="UdbudtFagelement-Udbudsperiode" style="stroke:#181818;stroke-width:1.0;"/><text fill="#000000" font-family="sans-serif" font-size="13" lengthAdjust="spacing" textLength="23.0356" x="1248.9241" y="459.0593">0..*</text><text fill="#000000" font-family="sans-serif" font-size="13" lengthAdjust="spacing" textLength="8.271" x="1540.2866" y="636.295">1</text></g><!--link UdbudtFagelementansvarligPerson to Medlemskab--><g id="link_UdbudtFagelementansvarligPerson_Medlemskab"><path codeLine="489" d="M212,740.6969 C212,763.2269 212,785.6569 212,800.1569 " fill="none" id="UdbudtFagelementansvarligPerson-Medlemskab" style="stroke:#181818;stroke-width:1.0;"/><text fill="#000000" font-family="sans-serif" font-size="13" lengthAdjust="spacing" textLength="23.0356" x="193.8513" y="760.3276">0..*</text><text fill="#000000" font-family="sans-serif" font-size="13" lengthAdjust="spacing" textLength="24.8066" x="184.0846" y="789.1203">0..1</text></g><!--link UdbudtFagelement to FeedbackformEnum--><g id="link_UdbudtFagelement_FeedbackformEnum"><path codeLine="490" d="M1241.74,417.2969 C1303.03,417.2969 1365.65,417.2969 1418.28,417.2969 " fill="none" id="UdbudtFagelement-to-FeedbackformEnum" style="stroke:#181818;stroke-width:1.0;stroke-dasharray:7.0,7.0;"/><polygon fill="#181818" points="1424.28,417.2969,1415.28,413.2969,1419.28,417.2969,1415.28,421.2969,1424.28,417.2969" style="stroke:#181818;stroke-width:1.0;"/></g><!--link UdbudtFagelement to SprogEnum--><g id="link_UdbudtFagelement_SprogEnum"><path codeLine="491" d="M1241.51,392.2969 C1253.72,392.2969 1259.5,392.2969 1270.31,392.2969 " fill="none" id="UdbudtFagelement-to-SprogEnum" style="stroke:#181818;stroke-width:1.0;stroke-dasharray:7.0,7.0;"/><polygon fill="#181818" points="1276.31,392.2969,1267.31,388.2969,1271.31,392.2969,1267.31,396.2969,1276.31,392.2969" style="stroke:#181818;stroke-width:1.0;"/></g><!--link UdbudtFagelementansvarligPerson to OrgPersonAnsvarsrolleEnum--><g id="link_UdbudtFagelementansvarligPerson_OrgPersonAnsvarsrolleEnum"><path codeLine="492" d="M285.05,663.2969 C296.68,663.2969 302.36,663.2969 313.8,663.2969 " fill="none" id="UdbudtFagelementansvarligPerson-to-OrgPersonAnsvarsrolleEnum" style="stroke:#181818;stroke-width:1.0;stroke-dasharray:7.0,7.0;"/><polygon fill="#181818" points="319.8,663.2969,310.8,659.2969,314.8,663.2969,310.8,667.2969,319.8,663.2969" style="stroke:#181818;stroke-width:1.0;"/></g><!--link UdbudtFagelementansvarligEnhed to OrgEnhedAnsvarsrolleEnum--><g id="link_UdbudtFagelementansvarligEnhed_OrgEnhedAnsvarsrolleEnum"><path codeLine="493" d="M598.62,121.2969 C610.41,121.2969 616.26,121.2969 627.85,121.2969 " fill="none" id="UdbudtFagelementansvarligEnhed-to-OrgEnhedAnsvarsrolleEnum" style="stroke:#181818;stroke-width:1.0;stroke-dasharray:7.0,7.0;"/><polygon fill="#181818" points="633.85,121.2969,624.85,117.2969,628.85,121.2969,624.85,125.2969,633.85,121.2969" style="stroke:#181818;stroke-width:1.0;"/></g><!--SRC=[TOun3i8m303tlC8LEn9YhJh05s2kaiQaLcqdIfoXGloTZYpSZRVSWumHhlFby1b3ZpQ_V496GJMtKaH0ARQ3e0IipRMDjFZg1PWKRIy8kTgQVyB2lZLuEpYu-MLBDNUDzyovZYDgbsc24rDQBLL4TH_d1jA5UyJM0uWdFPSkFFpP-W80]--></g></svg>