<svg xmlns="http://www.w3.org/2000/svg" xmlns:xlink="http://www.w3.org/1999/xlink" contentStyleType="text/css" height="495px" preserveAspectRatio="none" style="width:1345px;height:495px;background:#FFFFFF;" version="1.1" viewBox="0 0 1345 495" width="1345px" zoomAndPan="magnify"><defs/><g><text fill="#000000" font-family="sans-serif" font-size="14" font-weight="bold" lengthAdjust="spacing" textLength="170.3105" x="580.3535" y="22.9951">3_1_4_Udbudsperiode</text><!--class Udbudsperiode--><g id="elem_Udbudsperiode"><rect codeLine="1767" fill="#F1F1F1" height="154.0781" id="Udbudsperiode" rx="2.5" ry="2.5" style="stroke:#181818;stroke-width:0.5;" width="256.9043" x="623.5" y="334.2969"/><ellipse cx="694.5596" cy="350.2969" fill="#ADD1B2" rx="11" ry="11" style="stroke:#181818;stroke-width:1.0;"/><path d="M697.5283,355.9375 Q696.9502,356.2344 696.3096,356.375 Q695.6689,356.5313 694.9658,356.5313 Q692.4658,356.5313 691.1377,354.8906 Q689.8252,353.2344 689.8252,350.1094 Q689.8252,346.9844 691.1377,345.3281 Q692.4658,343.6719 694.9658,343.6719 Q695.6689,343.6719 696.3096,343.8281 Q696.9658,343.9844 697.5283,344.2813 L697.5283,347 Q696.9033,346.4219 696.3096,346.1563 Q695.7158,345.875 695.0908,345.875 Q693.7471,345.875 693.0596,346.9531 Q692.3721,348.0156 692.3721,350.1094 Q692.3721,352.2031 693.0596,353.2813 Q693.7471,354.3438 695.0908,354.3438 Q695.7158,354.3438 696.3096,354.0781 Q696.9033,353.7969 697.5283,353.2188 L697.5283,355.9375 Z " fill="#000000"/><text fill="#000000" font-family="sans-serif" font-size="14" lengthAdjust="spacing" textLength="106.2852" x="715.0596" y="355.1436">Udbudsperiode</text><line style="stroke:#181818;stroke-width:0.5;" x1="624.5" x2="879.4043" y1="366.2969" y2="366.2969"/><text fill="#000000" font-family="sans-serif" font-size="14" lengthAdjust="spacing" textLength="197.4424" x="629.5" y="383.292">udbudsperiodenavn: Text80</text><a href="1..1" target="_top" title="1..1" xlink:actuate="onRequest" xlink:href="1..1" xlink:show="new" xlink:title="1..1" xlink:type="simple"><text fill="#0000FF" font-family="sans-serif" font-size="14" lengthAdjust="spacing" text-decoration="underline" textLength="26.7148" x="831.3926" y="383.292">1..1</text></a><text fill="#000000" font-family="sans-serif" font-size="14" lengthAdjust="spacing" textLength="213.2607" x="629.5" y="399.5889">udbudsperiodeStartdato: Date</text><a href="1..1" target="_top" title="1..1" xlink:actuate="onRequest" xlink:href="1..1" xlink:show="new" xlink:title="1..1" xlink:type="simple"><text fill="#0000FF" font-family="sans-serif" font-size="14" lengthAdjust="spacing" text-decoration="underline" textLength="26.7148" x="847.2109" y="399.5889">1..1</text></a><text fill="#000000" font-family="sans-serif" font-size="14" lengthAdjust="spacing" textLength="204.6064" x="629.5" y="415.8857">udbudsperiodeslutdato: Date</text><a href="1..1" target="_top" title="1..1" xlink:actuate="onRequest" xlink:href="1..1" xlink:show="new" xlink:title="1..1" xlink:type="simple"><text fill="#0000FF" font-family="sans-serif" font-size="14" lengthAdjust="spacing" text-decoration="underline" textLength="26.7148" x="838.5566" y="415.8857">1..1</text></a><text fill="#000000" font-family="sans-serif" font-size="14" lengthAdjust="spacing" textLength="147.0479" x="629.5" y="432.1826">tilmeldingsperiode: ?</text><a href="1..1" target="_top" title="1..1" xlink:actuate="onRequest" xlink:href="1..1" xlink:show="new" xlink:title="1..1" xlink:type="simple"><text fill="#0000FF" font-family="sans-serif" font-size="14" lengthAdjust="spacing" text-decoration="underline" textLength="26.7148" x="780.998" y="432.1826">1..1</text></a><text fill="#000000" font-family="sans-serif" font-size="14" lengthAdjust="spacing" textLength="153.043" x="629.5" y="448.4795">frameldingsperiode: ?</text><a href="1..1" target="_top" title="1..1" xlink:actuate="onRequest" xlink:href="1..1" xlink:show="new" xlink:title="1..1" xlink:type="simple"><text fill="#0000FF" font-family="sans-serif" font-size="14" lengthAdjust="spacing" text-decoration="underline" textLength="26.7148" x="786.9932" y="448.4795">1..1</text></a><text fill="#000000" font-family="sans-serif" font-size="14" lengthAdjust="spacing" textLength="35.916" x="629.5" y="464.7764">&#171;BK&#187;</text><text fill="#000000" font-family="sans-serif" font-size="14" lengthAdjust="spacing" textLength="213.7393" x="629.5" y="481.0732">udbudsperiodekode: AutoNum</text><a href="1..1" target="_top" title="1..1" xlink:actuate="onRequest" xlink:href="1..1" xlink:show="new" xlink:title="1..1" xlink:type="simple"><text fill="#0000FF" font-family="sans-serif" font-size="14" lengthAdjust="spacing" text-decoration="underline" textLength="26.7148" x="847.6895" y="481.0732">1..1</text></a></g><!--class L?ringsaktivitetsperiode--><g id="elem_L&#230;ringsaktivitetsperiode"><rect codeLine="1777" fill="#F1F1F1" height="105.1875" id="L&#230;ringsaktivitetsperiode" rx="2.5" ry="2.5" style="stroke:#181818;stroke-width:0.5;" width="321.7432" x="7" y="152.7969"/><ellipse cx="76.3301" cy="168.7969" fill="#ADD1B2" rx="11" ry="11" style="stroke:#181818;stroke-width:1.0;"/><path d="M79.2988,174.4375 Q78.7207,174.7344 78.0801,174.875 Q77.4395,175.0313 76.7363,175.0313 Q74.2363,175.0313 72.9082,173.3906 Q71.5957,171.7344 71.5957,168.6094 Q71.5957,165.4844 72.9082,163.8281 Q74.2363,162.1719 76.7363,162.1719 Q77.4395,162.1719 78.0801,162.3281 Q78.7363,162.4844 79.2988,162.7813 L79.2988,165.5 Q78.6738,164.9219 78.0801,164.6563 Q77.4863,164.375 76.8613,164.375 Q75.5176,164.375 74.8301,165.4531 Q74.1426,166.5156 74.1426,168.6094 Q74.1426,170.7031 74.8301,171.7813 Q75.5176,172.8438 76.8613,172.8438 Q77.4863,172.8438 78.0801,172.5781 Q78.6738,172.2969 79.2988,171.7188 L79.2988,174.4375 Z " fill="#000000"/><text fill="#000000" font-family="sans-serif" font-size="14" lengthAdjust="spacing" textLength="174.583" x="96.8301" y="173.6436">L&#230;ringsaktivitetsperiode</text><line style="stroke:#181818;stroke-width:0.5;" x1="8" x2="327.7432" y1="184.7969" y2="184.7969"/><text fill="#000000" font-family="sans-serif" font-size="14" lengthAdjust="spacing" textLength="271.5166" x="13" y="201.792">l&#230;ringsaktivitetsPeriodeSlutdato: Date</text><a href="1..1" target="_top" title="1..1" xlink:actuate="onRequest" xlink:href="1..1" xlink:show="new" xlink:title="1..1" xlink:type="simple"><text fill="#0000FF" font-family="sans-serif" font-size="14" lengthAdjust="spacing" text-decoration="underline" textLength="26.7148" x="288.9668" y="201.792">1..1</text></a><text fill="#000000" font-family="sans-serif" font-size="14" lengthAdjust="spacing" textLength="35.916" x="13" y="218.0889">&#171;BK&#187;</text><text fill="#000000" font-family="sans-serif" font-size="14" lengthAdjust="spacing" textLength="278.5781" x="13" y="234.3857">l&#230;ringsaktivitetsPeriodeStartdato: Date</text><a href="1..1" target="_top" title="1..1" xlink:actuate="onRequest" xlink:href="1..1" xlink:show="new" xlink:title="1..1" xlink:type="simple"><text fill="#0000FF" font-family="sans-serif" font-size="14" lengthAdjust="spacing" text-decoration="underline" textLength="26.7148" x="296.0283" y="234.3857">1..1</text></a><text fill="#000000" font-family="sans-serif" font-size="14" lengthAdjust="spacing" textLength="216.5762" x="13" y="250.6826">/udbudsperiodekode: IgnoreBK</text><a href="1..1" target="_top" title="1..1" xlink:actuate="onRequest" xlink:href="1..1" xlink:show="new" xlink:title="1..1" xlink:type="simple"><text fill="#0000FF" font-family="sans-serif" font-size="14" lengthAdjust="spacing" text-decoration="underline" textLength="26.7148" x="234.0264" y="250.6826">1..1</text></a></g><!--class Pr?veperiode--><g id="elem_Pr&#248;veperiode"><rect codeLine="1784" fill="#F1F1F1" height="137.7813" id="Pr&#248;veperiode" rx="2.5" ry="2.5" style="stroke:#181818;stroke-width:0.5;" width="259.7412" x="364" y="136.2969"/><ellipse cx="443.1841" cy="152.2969" fill="#ADD1B2" rx="11" ry="11" style="stroke:#181818;stroke-width:1.0;"/><path d="M446.1528,157.9375 Q445.5747,158.2344 444.9341,158.375 Q444.2935,158.5313 443.5903,158.5313 Q441.0903,158.5313 439.7622,156.8906 Q438.4497,155.2344 438.4497,152.1094 Q438.4497,148.9844 439.7622,147.3281 Q441.0903,145.6719 443.5903,145.6719 Q444.2935,145.6719 444.9341,145.8281 Q445.5903,145.9844 446.1528,146.2813 L446.1528,149 Q445.5278,148.4219 444.9341,148.1563 Q444.3403,147.875 443.7153,147.875 Q442.3716,147.875 441.6841,148.9531 Q440.9966,150.0156 440.9966,152.1094 Q440.9966,154.2031 441.6841,155.2813 Q442.3716,156.3438 443.7153,156.3438 Q444.3403,156.3438 444.9341,156.0781 Q445.5278,155.7969 446.1528,155.2188 L446.1528,157.9375 Z " fill="#000000"/><text fill="#000000" font-family="sans-serif" font-size="14" lengthAdjust="spacing" textLength="92.873" x="463.6841" y="157.1436">Pr&#248;veperiode</text><line style="stroke:#181818;stroke-width:0.5;" x1="365" x2="622.7412" y1="168.2969" y2="168.2969"/><text fill="#000000" font-family="sans-serif" font-size="14" lengthAdjust="spacing" textLength="193.0127" x="370" y="185.292">pr&#248;veperiodeslutdato: Date</text><a href="1..1" target="_top" title="1..1" xlink:actuate="onRequest" xlink:href="1..1" xlink:show="new" xlink:title="1..1" xlink:type="simple"><text fill="#0000FF" font-family="sans-serif" font-size="14" lengthAdjust="spacing" text-decoration="underline" textLength="26.7148" x="567.4629" y="185.292">1..1</text></a><text fill="#000000" font-family="sans-serif" font-size="14" lengthAdjust="spacing" textLength="147.0479" x="370" y="201.5889">tilmeldingsperiode: ?</text><a href="1..1" target="_top" title="1..1" xlink:actuate="onRequest" xlink:href="1..1" xlink:show="new" xlink:title="1..1" xlink:type="simple"><text fill="#0000FF" font-family="sans-serif" font-size="14" lengthAdjust="spacing" text-decoration="underline" textLength="26.7148" x="521.498" y="201.5889">1..1</text></a><text fill="#000000" font-family="sans-serif" font-size="14" lengthAdjust="spacing" textLength="153.043" x="370" y="217.8857">frameldingsperiode: ?</text><a href="1..1" target="_top" title="1..1" xlink:actuate="onRequest" xlink:href="1..1" xlink:show="new" xlink:title="1..1" xlink:type="simple"><text fill="#0000FF" font-family="sans-serif" font-size="14" lengthAdjust="spacing" text-decoration="underline" textLength="26.7148" x="527.4932" y="217.8857">1..1</text></a><text fill="#000000" font-family="sans-serif" font-size="14" lengthAdjust="spacing" textLength="35.916" x="370" y="234.1826">&#171;BK&#187;</text><text fill="#000000" font-family="sans-serif" font-size="14" lengthAdjust="spacing" textLength="200.0742" x="370" y="250.4795">pr&#248;veperiodestartdato: Date</text><a href="1..1" target="_top" title="1..1" xlink:actuate="onRequest" xlink:href="1..1" xlink:show="new" xlink:title="1..1" xlink:type="simple"><text fill="#0000FF" font-family="sans-serif" font-size="14" lengthAdjust="spacing" text-decoration="underline" textLength="26.7148" x="574.5244" y="250.4795">1..1</text></a><text fill="#000000" font-family="sans-serif" font-size="14" lengthAdjust="spacing" textLength="216.5762" x="370" y="266.7764">/udbudsperiodekode: IgnoreBK</text><a href="1..1" target="_top" title="1..1" xlink:actuate="onRequest" xlink:href="1..1" xlink:show="new" xlink:title="1..1" xlink:type="simple"><text fill="#0000FF" font-family="sans-serif" font-size="14" lengthAdjust="spacing" text-decoration="underline" textLength="26.7148" x="591.0264" y="266.7764">1..1</text></a></g><!--class PersonligtFagelement--><g id="elem_PersonligtFagelement"><rect fill="#F1F1F1" height="32" id="PersonligtFagelement" rx="2.5" ry="2.5" style="stroke:#181818;stroke-width:0.5;" width="184.9473" x="659.5" y="189.2969"/><ellipse cx="674.5" cy="205.2969" fill="#ADD1B2" rx="11" ry="11" style="stroke:#181818;stroke-width:1.0;"/><path d="M677.4688,210.9375 Q676.8906,211.2344 676.25,211.375 Q675.6094,211.5313 674.9063,211.5313 Q672.4063,211.5313 671.0781,209.8906 Q669.7656,208.2344 669.7656,205.1094 Q669.7656,201.9844 671.0781,200.3281 Q672.4063,198.6719 674.9063,198.6719 Q675.6094,198.6719 676.25,198.8281 Q676.9063,198.9844 677.4688,199.2813 L677.4688,202 Q676.8438,201.4219 676.25,201.1563 Q675.6563,200.875 675.0313,200.875 Q673.6875,200.875 673,201.9531 Q672.3125,203.0156 672.3125,205.1094 Q672.3125,207.2031 673,208.2813 Q673.6875,209.3438 675.0313,209.3438 Q675.6563,209.3438 676.25,209.0781 Q676.8438,208.7969 677.4688,208.2188 L677.4688,210.9375 Z " fill="#000000"/><text fill="#000000" font-family="sans-serif" font-size="14" lengthAdjust="spacing" textLength="152.9473" x="688.5" y="210.1436">PersonligtFagelement</text></g><!--class PersonligFagelementgruppering--><g id="elem_PersonligFagelementgruppering"><rect fill="#F1F1F1" height="32" id="PersonligFagelementgruppering" rx="2.5" ry="2.5" style="stroke:#181818;stroke-width:0.5;" width="256.7656" x="879.5" y="189.2969"/><ellipse cx="894.5" cy="205.2969" fill="#ADD1B2" rx="11" ry="11" style="stroke:#181818;stroke-width:1.0;"/><path d="M897.4688,210.9375 Q896.8906,211.2344 896.25,211.375 Q895.6094,211.5313 894.9063,211.5313 Q892.4063,211.5313 891.0781,209.8906 Q889.7656,208.2344 889.7656,205.1094 Q889.7656,201.9844 891.0781,200.3281 Q892.4063,198.6719 894.9063,198.6719 Q895.6094,198.6719 896.25,198.8281 Q896.9063,198.9844 897.4688,199.2813 L897.4688,202 Q896.8438,201.4219 896.25,201.1563 Q895.6563,200.875 895.0313,200.875 Q893.6875,200.875 893,201.9531 Q892.3125,203.0156 892.3125,205.1094 Q892.3125,207.2031 893,208.2813 Q893.6875,209.3438 895.0313,209.3438 Q895.6563,209.3438 896.25,209.0781 Q896.8438,208.7969 897.4688,208.2188 L897.4688,210.9375 Z " fill="#000000"/><text fill="#000000" font-family="sans-serif" font-size="14" lengthAdjust="spacing" textLength="224.7656" x="908.5" y="210.1436">PersonligFagelementgruppering</text></g><!--class UdbudtFagelement--><g id="elem_UdbudtFagelement"><rect fill="#F1F1F1" height="32" id="UdbudtFagelement" rx="2.5" ry="2.5" style="stroke:#181818;stroke-width:0.5;" width="166.5176" x="1171.5" y="189.2969"/><ellipse cx="1186.5" cy="205.2969" fill="#ADD1B2" rx="11" ry="11" style="stroke:#181818;stroke-width:1.0;"/><path d="M1189.4688,210.9375 Q1188.8906,211.2344 1188.25,211.375 Q1187.6094,211.5313 1186.9063,211.5313 Q1184.4063,211.5313 1183.0781,209.8906 Q1181.7656,208.2344 1181.7656,205.1094 Q1181.7656,201.9844 1183.0781,200.3281 Q1184.4063,198.6719 1186.9063,198.6719 Q1187.6094,198.6719 1188.25,198.8281 Q1188.9063,198.9844 1189.4688,199.2813 L1189.4688,202 Q1188.8438,201.4219 1188.25,201.1563 Q1187.6563,200.875 1187.0313,200.875 Q1185.6875,200.875 1185,201.9531 Q1184.3125,203.0156 1184.3125,205.1094 Q1184.3125,207.2031 1185,208.2813 Q1185.6875,209.3438 1187.0313,209.3438 Q1187.6563,209.3438 1188.25,209.0781 Q1188.8438,208.7969 1189.4688,208.2188 L1189.4688,210.9375 Z " fill="#000000"/><text fill="#000000" font-family="sans-serif" font-size="14" lengthAdjust="spacing" textLength="134.5176" x="1200.5" y="210.1436">UdbudtFagelement</text></g><!--class UdbudtL?ringsaktivitet--><g id="elem_UdbudtL&#230;ringsaktivitet"><rect fill="#F1F1F1" height="32" id="UdbudtL&#230;ringsaktivitet" rx="2.5" ry="2.5" style="stroke:#181818;stroke-width:0.5;" width="197.3477" x="69.5" y="44.2969"/><ellipse cx="84.5" cy="60.2969" fill="#ADD1B2" rx="11" ry="11" style="stroke:#181818;stroke-width:1.0;"/><path d="M87.4688,65.9375 Q86.8906,66.2344 86.25,66.375 Q85.6094,66.5313 84.9063,66.5313 Q82.4063,66.5313 81.0781,64.8906 Q79.7656,63.2344 79.7656,60.1094 Q79.7656,56.9844 81.0781,55.3281 Q82.4063,53.6719 84.9063,53.6719 Q85.6094,53.6719 86.25,53.8281 Q86.9063,53.9844 87.4688,54.2813 L87.4688,57 Q86.8438,56.4219 86.25,56.1563 Q85.6563,55.875 85.0313,55.875 Q83.6875,55.875 83,56.9531 Q82.3125,58.0156 82.3125,60.1094 Q82.3125,62.2031 83,63.2813 Q83.6875,64.3438 85.0313,64.3438 Q85.6563,64.3438 86.25,64.0781 Q86.8438,63.7969 87.4688,63.2188 L87.4688,65.9375 Z " fill="#000000"/><text fill="#000000" font-family="sans-serif" font-size="14" lengthAdjust="spacing" textLength="165.3477" x="98.5" y="65.1436">UdbudtL&#230;ringsaktivitet</text></g><!--class UdbudtPr?ve--><g id="elem_UdbudtPr&#248;ve"><rect fill="#F1F1F1" height="32" id="UdbudtPr&#248;ve" rx="2.5" ry="2.5" style="stroke:#181818;stroke-width:0.5;" width="122.9316" x="432.5" y="44.2969"/><ellipse cx="447.5" cy="60.2969" fill="#ADD1B2" rx="11" ry="11" style="stroke:#181818;stroke-width:1.0;"/><path d="M450.4688,65.9375 Q449.8906,66.2344 449.25,66.375 Q448.6094,66.5313 447.9063,66.5313 Q445.4063,66.5313 444.0781,64.8906 Q442.7656,63.2344 442.7656,60.1094 Q442.7656,56.9844 444.0781,55.3281 Q445.4063,53.6719 447.9063,53.6719 Q448.6094,53.6719 449.25,53.8281 Q449.9063,53.9844 450.4688,54.2813 L450.4688,57 Q449.8438,56.4219 449.25,56.1563 Q448.6563,55.875 448.0313,55.875 Q446.6875,55.875 446,56.9531 Q445.3125,58.0156 445.3125,60.1094 Q445.3125,62.2031 446,63.2813 Q446.6875,64.3438 448.0313,64.3438 Q448.6563,64.3438 449.25,64.0781 Q449.8438,63.7969 450.4688,63.2188 L450.4688,65.9375 Z " fill="#000000"/><text fill="#000000" font-family="sans-serif" font-size="14" lengthAdjust="spacing" textLength="90.9316" x="461.5" y="65.1436">UdbudtPr&#248;ve</text></g><!--link PersonligtFagelement to Udbudsperiode--><g id="link_PersonligtFagelement_Udbudsperiode"><path codeLine="1793" d="M752,221.4569 C752,245.6469 752,292.8269 752,334.1069 " fill="none" id="PersonligtFagelement-Udbudsperiode" style="stroke:#181818;stroke-width:1.0;"/><text fill="#000000" font-family="sans-serif" font-size="13" lengthAdjust="spacing" textLength="69.4497" x="682" y="273.8538">planlagt til</text><text fill="#000000" font-family="sans-serif" font-size="13" lengthAdjust="spacing" textLength="23.0356" x="725.2053" y="241.3831">0..*</text><text fill="#000000" font-family="sans-serif" font-size="13" lengthAdjust="spacing" textLength="24.8066" x="726.8993" y="323.1044">0..1</text></g><!--link PersonligFagelementgruppering to Udbudsperiode--><g id="link_PersonligFagelementgruppering_Udbudsperiode"><path codeLine="1794" d="M879.32,205.2969 C868.74,205.2969 862,205.2969 862,205.2969 C862,205.2969 862,275.5469 862,334.0069 " fill="none" id="PersonligFagelementgruppering-Udbudsperiode" style="stroke:#181818;stroke-width:1.0;"/><text fill="#000000" font-family="sans-serif" font-size="13" lengthAdjust="spacing" textLength="69.4497" x="792" y="257.0538">planlagt til</text><text fill="#000000" font-family="sans-serif" font-size="13" lengthAdjust="spacing" textLength="23.0356" x="848.6613" y="201.9572">0..*</text><text fill="#000000" font-family="sans-serif" font-size="13" lengthAdjust="spacing" textLength="23.0356" x="848.0865" y="323.2597">0..*</text></g><!--link L?ringsaktivitetsperiode to Udbudsperiode--><g id="link_L&#230;ringsaktivitetsperiode_Udbudsperiode"><path codeLine="1795" d="M168,257.8169 C168,318.8469 168,411.2969 168,411.2969 C168,411.2969 451.53,411.2969 623.48,411.2969 " fill="none" id="L&#230;ringsaktivitetsperiode-Udbudsperiode" style="stroke:#181818;stroke-width:1.0;"/><text fill="#000000" font-family="sans-serif" font-size="13" lengthAdjust="spacing" textLength="23.0356" x="143.4743" y="277.9453">1..*</text><text fill="#000000" font-family="sans-serif" font-size="13" lengthAdjust="spacing" textLength="8.271" x="607.4157" y="407.9084">1</text></g><!--link Pr?veperiode to Udbudsperiode--><g id="link_Pr&#248;veperiode_Udbudsperiode"><path codeLine="1796" d="M624.22,248.2969 C634.93,248.2969 641.75,248.2969 641.75,248.2969 C641.75,248.2969 641.75,291.9669 641.75,334.0969 " fill="none" id="Pr&#248;veperiode-Udbudsperiode" style="stroke:#181818;stroke-width:1.0;"/><text fill="#000000" font-family="sans-serif" font-size="13" lengthAdjust="spacing" textLength="23.0356" x="631.535" y="247.2033">1..*</text><text fill="#000000" font-family="sans-serif" font-size="13" lengthAdjust="spacing" textLength="8.271" x="623.2345" y="323.358">1</text></g><!--link UdbudtFagelement to Udbudsperiode--><g id="link_UdbudtFagelement_Udbudsperiode"><path codeLine="1797" d="M1255,221.4569 C1255,270.0269 1255,411.2969 1255,411.2969 C1255,411.2969 1029.58,411.2969 880.56,411.2969 " fill="none" id="UdbudtFagelement-Udbudsperiode" style="stroke:#181818;stroke-width:1.0;"/><text fill="#000000" font-family="sans-serif" font-size="13" lengthAdjust="spacing" textLength="23.0356" x="1228.2764" y="241.3831">0..*</text><text fill="#000000" font-family="sans-serif" font-size="13" lengthAdjust="spacing" textLength="8.271" x="888.2342" y="407.9318">1</text></g><!--link UdbudtL?ringsaktivitet to L?ringsaktivitetsperiode--><g id="link_UdbudtL&#230;ringsaktivitet_L&#230;ringsaktivitetsperiode"><path codeLine="1798" d="M168,76.3669 C168,94.7269 168,125.7269 168,152.7269 " fill="none" id="UdbudtL&#230;ringsaktivitet-L&#230;ringsaktivitetsperiode" style="stroke:#181818;stroke-width:1.0;"/><text fill="#000000" font-family="sans-serif" font-size="13" lengthAdjust="spacing" textLength="23.0356" x="141.1389" y="96.2633">0..*</text><text fill="#000000" font-family="sans-serif" font-size="13" lengthAdjust="spacing" textLength="8.271" x="159.498" y="141.7182">1</text></g><!--link UdbudtPr?ve to Pr?veperiode--><g id="link_UdbudtPr&#248;ve_Pr&#248;veperiode"><path codeLine="1799" d="M494,76.3669 C494,91.0369 494,113.7869 494,136.1069 " fill="none" id="UdbudtPr&#248;ve-Pr&#248;veperiode" style="stroke:#181818;stroke-width:1.0;"/><text fill="#000000" font-family="sans-serif" font-size="13" lengthAdjust="spacing" textLength="23.0356" x="467.2079" y="96.2633">0..*</text><text fill="#000000" font-family="sans-serif" font-size="13" lengthAdjust="spacing" textLength="8.271" x="485.6148" y="125.2832">1</text></g><!--SRC=[RSuz3i8m343XFQTmnOw4OAmwm1LWhl9ZjLPj9tAIeQguEumClFLRtfCQ8rpdotoRNodqL0iQvOHkfOI0KjeEWXBGggiRQV7c1PWKsruGihKr_q1aNoiS3hxTVTmMortJ8tEsSKJjCarmObhMjXYYkhTp0sdadh3s0E99pwKB3t-MFW00]--></g></svg>