<svg xmlns="http://www.w3.org/2000/svg" xmlns:xlink="http://www.w3.org/1999/xlink" contentStyleType="text/css" height="570px" preserveAspectRatio="none" style="width:1076px;height:570px;background:#FFFFFF;" version="1.1" viewBox="0 0 1076 570" width="1076px" zoomAndPan="magnify"><defs/><g><text fill="#000000" font-family="sans-serif" font-size="14" font-weight="bold" lengthAdjust="spacing" textLength="69.6377" x="496.6245" y="22.9951">3_3_Hold</text><!--class Holdbegivenhed--><g id="elem_Holdbegivenhed"><rect codeLine="1497" fill="#F1F1F1" height="105.1875" id="Holdbegivenhed" rx="2.5" ry="2.5" style="stroke:#181818;stroke-width:0.5;" width="185.0449" x="869" y="160.7969"/><ellipse cx="901.4397" cy="176.7969" fill="#ADD1B2" rx="11" ry="11" style="stroke:#181818;stroke-width:1.0;"/><path d="M904.4084,182.4375 Q903.8303,182.7344 903.1897,182.875 Q902.5491,183.0313 901.8459,183.0313 Q899.3459,183.0313 898.0178,181.3906 Q896.7053,179.7344 896.7053,176.6094 Q896.7053,173.4844 898.0178,171.8281 Q899.3459,170.1719 901.8459,170.1719 Q902.5491,170.1719 903.1897,170.3281 Q903.8459,170.4844 904.4084,170.7813 L904.4084,173.5 Q903.7834,172.9219 903.1897,172.6563 Q902.5959,172.375 901.9709,172.375 Q900.6272,172.375 899.9397,173.4531 Q899.2522,174.5156 899.2522,176.6094 Q899.2522,178.7031 899.9397,179.7813 Q900.6272,180.8438 901.9709,180.8438 Q902.5959,180.8438 903.1897,180.5781 Q903.7834,180.2969 904.4084,179.7188 L904.4084,182.4375 Z " fill="#000000"/><text fill="#000000" font-family="sans-serif" font-size="14" lengthAdjust="spacing" textLength="114.29" x="919.3152" y="181.6436">Holdbegivenhed</text><line style="stroke:#181818;stroke-width:0.5;" x1="870" x2="1053.0449" y1="192.7969" y2="192.7969"/><text fill="#000000" font-family="sans-serif" font-size="14" lengthAdjust="spacing" textLength="35.916" x="875" y="209.792">&#171;BK&#187;</text><text fill="#000000" font-family="sans-serif" font-size="14" lengthAdjust="spacing" textLength="128.4814" x="875" y="226.0889">tidsrum: AutoNum</text><a href="1..1" target="_top" title="1..1" xlink:actuate="onRequest" xlink:href="1..1" xlink:show="new" xlink:title="1..1" xlink:type="simple"><text fill="#0000FF" font-family="sans-serif" font-size="14" lengthAdjust="spacing" text-decoration="underline" textLength="26.7148" x="1007.9316" y="226.0889">1..1</text></a><text fill="#000000" font-family="sans-serif" font-size="14" lengthAdjust="spacing" textLength="46.8809" x="875" y="242.3857">sted: ?</text><a href="1..1" target="_top" title="1..1" xlink:actuate="onRequest" xlink:href="1..1" xlink:show="new" xlink:title="1..1" xlink:type="simple"><text fill="#0000FF" font-family="sans-serif" font-size="14" lengthAdjust="spacing" text-decoration="underline" textLength="26.7148" x="926.3311" y="242.3857">1..1</text></a><text fill="#000000" font-family="sans-serif" font-size="14" lengthAdjust="spacing" textLength="141.8799" x="875" y="258.6826">/holdkode: IgnoreBK</text><a href="1..1" target="_top" title="1..1" xlink:actuate="onRequest" xlink:href="1..1" xlink:show="new" xlink:title="1..1" xlink:type="simple"><text fill="#0000FF" font-family="sans-serif" font-size="14" lengthAdjust="spacing" text-decoration="underline" textLength="26.7148" x="1021.3301" y="258.6826">1..1</text></a></g><!--class Hold?nske--><g id="elem_Hold&#248;nske"><rect codeLine="1504" fill="#F1F1F1" height="154.0781" id="Hold&#248;nske" rx="2.5" ry="2.5" style="stroke:#181818;stroke-width:0.5;" width="272.8457" x="7" y="136.2969"/><ellipse cx="102.5117" cy="152.2969" fill="#ADD1B2" rx="11" ry="11" style="stroke:#181818;stroke-width:1.0;"/><path d="M105.4805,157.9375 Q104.9023,158.2344 104.2617,158.375 Q103.6211,158.5313 102.918,158.5313 Q100.418,158.5313 99.0898,156.8906 Q97.7773,155.2344 97.7773,152.1094 Q97.7773,148.9844 99.0898,147.3281 Q100.418,145.6719 102.918,145.6719 Q103.6211,145.6719 104.2617,145.8281 Q104.918,145.9844 105.4805,146.2813 L105.4805,149 Q104.8555,148.4219 104.2617,148.1563 Q103.668,147.875 103.043,147.875 Q101.6992,147.875 101.0117,148.9531 Q100.3242,150.0156 100.3242,152.1094 Q100.3242,154.2031 101.0117,155.2813 Q101.6992,156.3438 103.043,156.3438 Q103.668,156.3438 104.2617,156.0781 Q104.8555,155.7969 105.4805,155.2188 L105.4805,157.9375 Z " fill="#000000"/><text fill="#000000" font-family="sans-serif" font-size="14" lengthAdjust="spacing" textLength="73.3223" x="123.0117" y="157.1436">Hold&#248;nske</text><line style="stroke:#181818;stroke-width:0.5;" x1="8" x2="278.8457" y1="168.2969" y2="168.2969"/><text fill="#000000" font-family="sans-serif" font-size="14" lengthAdjust="spacing" textLength="165.3135" x="13" y="185.292">holdprioritet: Number.0</text><a href="1..1" target="_top" title="1..1" xlink:actuate="onRequest" xlink:href="1..1" xlink:show="new" xlink:title="1..1" xlink:type="simple"><text fill="#0000FF" font-family="sans-serif" font-size="14" lengthAdjust="spacing" text-decoration="underline" textLength="26.7148" x="182.7637" y="185.292">1..1</text></a><text fill="#000000" font-family="sans-serif" font-size="14" lengthAdjust="spacing" textLength="35.916" x="13" y="201.5889">&#171;BK&#187;</text><text fill="#000000" font-family="sans-serif" font-size="14" lengthAdjust="spacing" textLength="141.8799" x="13" y="217.8857">/holdkode: IgnoreBK</text><a href="1..1" target="_top" title="1..1" xlink:actuate="onRequest" xlink:href="1..1" xlink:show="new" xlink:title="1..1" xlink:type="simple"><text fill="#0000FF" font-family="sans-serif" font-size="14" lengthAdjust="spacing" text-decoration="underline" textLength="26.7148" x="159.3301" y="217.8857">1..1</text></a><text fill="#000000" font-family="sans-serif" font-size="14" lengthAdjust="spacing" textLength="191.7891" x="13" y="234.1826">/fagelementkode: IgnoreBK</text><a href="1..1" target="_top" title="1..1" xlink:actuate="onRequest" xlink:href="1..1" xlink:show="new" xlink:title="1..1" xlink:type="simple"><text fill="#0000FF" font-family="sans-serif" font-size="14" lengthAdjust="spacing" text-decoration="underline" textLength="26.7148" x="209.2393" y="234.1826">1..1</text></a><text fill="#000000" font-family="sans-serif" font-size="14" lengthAdjust="spacing" textLength="229.6807" x="13" y="250.4795">/indskrivningsnummer: IgnoreBK</text><a href="1..1" target="_top" title="1..1" xlink:actuate="onRequest" xlink:href="1..1" xlink:show="new" xlink:title="1..1" xlink:type="simple"><text fill="#0000FF" font-family="sans-serif" font-size="14" lengthAdjust="spacing" text-decoration="underline" textLength="26.7148" x="247.1309" y="250.4795">1..1</text></a><text fill="#000000" font-family="sans-serif" font-size="14" lengthAdjust="spacing" textLength="216.5762" x="13" y="266.7764">/udbudsperiodekode: IgnoreBK</text><a href="1..1" target="_top" title="1..1" xlink:actuate="onRequest" xlink:href="1..1" xlink:show="new" xlink:title="1..1" xlink:type="simple"><text fill="#0000FF" font-family="sans-serif" font-size="14" lengthAdjust="spacing" text-decoration="underline" textLength="26.7148" x="234.0264" y="266.7764">1..1</text></a><text fill="#000000" font-family="sans-serif" font-size="14" lengthAdjust="spacing" textLength="193.6484" x="13" y="283.0732">/udbudsstedkode: IgnoreBK</text><a href="1..1" target="_top" title="1..1" xlink:actuate="onRequest" xlink:href="1..1" xlink:show="new" xlink:title="1..1" xlink:type="simple"><text fill="#0000FF" font-family="sans-serif" font-size="14" lengthAdjust="spacing" text-decoration="underline" textLength="26.7148" x="211.0986" y="283.0732">1..1</text></a></g><!--class Hold--><g id="elem_Hold"><rect codeLine="1514" fill="#F1F1F1" height="121.4844" id="Hold" rx="2.5" ry="2.5" style="stroke:#181818;stroke-width:0.5;" width="278.2939" x="407.5" y="350.2969"/><ellipse cx="526.4624" cy="366.2969" fill="#ADD1B2" rx="11" ry="11" style="stroke:#181818;stroke-width:1.0;"/><path d="M529.4312,371.9375 Q528.853,372.2344 528.2124,372.375 Q527.5718,372.5313 526.8687,372.5313 Q524.3687,372.5313 523.0405,370.8906 Q521.728,369.2344 521.728,366.1094 Q521.728,362.9844 523.0405,361.3281 Q524.3687,359.6719 526.8687,359.6719 Q527.5718,359.6719 528.2124,359.8281 Q528.8687,359.9844 529.4312,360.2813 L529.4312,363 Q528.8062,362.4219 528.2124,362.1563 Q527.6187,361.875 526.9937,361.875 Q525.6499,361.875 524.9624,362.9531 Q524.2749,364.0156 524.2749,366.1094 Q524.2749,368.2031 524.9624,369.2813 Q525.6499,370.3438 526.9937,370.3438 Q527.6187,370.3438 528.2124,370.0781 Q528.8062,369.7969 529.4312,369.2188 L529.4312,371.9375 Z " fill="#000000"/><text fill="#000000" font-family="sans-serif" font-size="14" lengthAdjust="spacing" textLength="31.8691" x="546.9624" y="371.1436">Hold</text><line style="stroke:#181818;stroke-width:0.5;" x1="408.5" x2="684.7939" y1="382.2969" y2="382.2969"/><text fill="#000000" font-family="sans-serif" font-size="14" lengthAdjust="spacing" textLength="177.0645" x="413.5" y="399.292">holdst&#248;rrelseMaximum: ?</text><a href="0..1" target="_top" title="0..1" xlink:actuate="onRequest" xlink:href="0..1" xlink:show="new" xlink:title="0..1" xlink:type="simple"><text fill="#0000FF" font-family="sans-serif" font-size="14" lengthAdjust="spacing" text-decoration="underline" textLength="26.7148" x="595.0146" y="399.292">0..1</text></a><text fill="#000000" font-family="sans-serif" font-size="14" lengthAdjust="spacing" textLength="235.1289" x="413.5" y="415.5889">holdst&#248;rrelseMinimum: Number.0</text><a href="0..1" target="_top" title="0..1" xlink:actuate="onRequest" xlink:href="0..1" xlink:show="new" xlink:title="0..1" xlink:type="simple"><text fill="#0000FF" font-family="sans-serif" font-size="14" lengthAdjust="spacing" text-decoration="underline" textLength="26.7148" x="653.0791" y="415.5889">0..1</text></a><text fill="#000000" font-family="sans-serif" font-size="14" lengthAdjust="spacing" textLength="122.7461" x="413.5" y="431.8857">holdnavn: Text80</text><a href="1..1" target="_top" title="1..1" xlink:actuate="onRequest" xlink:href="1..1" xlink:show="new" xlink:title="1..1" xlink:type="simple"><text fill="#0000FF" font-family="sans-serif" font-size="14" lengthAdjust="spacing" text-decoration="underline" textLength="26.7148" x="540.6963" y="431.8857">1..1</text></a><text fill="#000000" font-family="sans-serif" font-size="14" lengthAdjust="spacing" textLength="35.916" x="413.5" y="448.1826">&#171;BK&#187;</text><text fill="#000000" font-family="sans-serif" font-size="14" lengthAdjust="spacing" textLength="139.043" x="413.5" y="464.4795">holdkode: AutoNum</text><a href="1..1" target="_top" title="1..1" xlink:actuate="onRequest" xlink:href="1..1" xlink:show="new" xlink:title="1..1" xlink:type="simple"><text fill="#0000FF" font-family="sans-serif" font-size="14" lengthAdjust="spacing" text-decoration="underline" textLength="26.7148" x="556.9932" y="464.4795">1..1</text></a></g><!--class HoldBegivenhedPerson--><g id="elem_HoldBegivenhedPerson"><rect codeLine="1522" fill="#F1F1F1" height="56.2969" id="HoldBegivenhedPerson" rx="2.5" ry="2.5" style="stroke:#181818;stroke-width:0.5;" width="216.8867" x="853" y="382.7969"/><ellipse cx="878.0507" cy="398.7969" fill="#ADD1B2" rx="11" ry="11" style="stroke:#181818;stroke-width:1.0;"/><path d="M881.0195,404.4375 Q880.4414,404.7344 879.8007,404.875 Q879.1601,405.0313 878.457,405.0313 Q875.957,405.0313 874.6289,403.3906 Q873.3164,401.7344 873.3164,398.6094 Q873.3164,395.4844 874.6289,393.8281 Q875.957,392.1719 878.457,392.1719 Q879.1601,392.1719 879.8007,392.3281 Q880.457,392.4844 881.0195,392.7813 L881.0195,395.5 Q880.3945,394.9219 879.8007,394.6563 Q879.207,394.375 878.582,394.375 Q877.2382,394.375 876.5507,395.4531 Q875.8632,396.5156 875.8632,398.6094 Q875.8632,400.7031 876.5507,401.7813 Q877.2382,402.8438 878.582,402.8438 Q879.207,402.8438 879.8007,402.5781 Q880.3945,402.2969 881.0195,401.7188 L881.0195,404.4375 Z " fill="#000000"/><text fill="#000000" font-family="sans-serif" font-size="14" lengthAdjust="spacing" textLength="162.5518" x="894.2842" y="403.6436">HoldBegivenhedPerson</text><line style="stroke:#181818;stroke-width:0.5;" x1="854" x2="1068.8867" y1="414.7969" y2="414.7969"/><text fill="#000000" font-family="sans-serif" font-size="14" lengthAdjust="spacing" textLength="173.7217" x="859" y="431.792">orgPersonAnsvarsrolle: ?</text><a href="1..1" target="_top" title="1..1" xlink:actuate="onRequest" xlink:href="1..1" xlink:show="new" xlink:title="1..1" xlink:type="simple"><text fill="#0000FF" font-family="sans-serif" font-size="14" lengthAdjust="spacing" text-decoration="underline" textLength="26.7148" x="1037.1719" y="431.792">1..1</text></a></g><!--class TilmeldingTilUdbudtFagelement--><g id="elem_TilmeldingTilUdbudtFagelement"><rect fill="#F1F1F1" height="32" id="TilmeldingTilUdbudtFagelement" rx="2.5" ry="2.5" style="stroke:#181818;stroke-width:0.5;" width="255.8564" x="15.5" y="44.2969"/><ellipse cx="30.5" cy="60.2969" fill="#ADD1B2" rx="11" ry="11" style="stroke:#181818;stroke-width:1.0;"/><path d="M33.4688,65.9375 Q32.8906,66.2344 32.25,66.375 Q31.6094,66.5313 30.9063,66.5313 Q28.4063,66.5313 27.0781,64.8906 Q25.7656,63.2344 25.7656,60.1094 Q25.7656,56.9844 27.0781,55.3281 Q28.4063,53.6719 30.9063,53.6719 Q31.6094,53.6719 32.25,53.8281 Q32.9063,53.9844 33.4688,54.2813 L33.4688,57 Q32.8438,56.4219 32.25,56.1563 Q31.6563,55.875 31.0313,55.875 Q29.6875,55.875 29,56.9531 Q28.3125,58.0156 28.3125,60.1094 Q28.3125,62.2031 29,63.2813 Q29.6875,64.3438 31.0313,64.3438 Q31.6563,64.3438 32.25,64.0781 Q32.8438,63.7969 33.4688,63.2188 L33.4688,65.9375 Z " fill="#000000"/><text fill="#000000" font-family="sans-serif" font-size="14" lengthAdjust="spacing" textLength="223.8564" x="44.5" y="65.1436">TilmeldingTilUdbudtFagelement</text></g><!--class UdbudtL?ringsaktivitet--><g id="elem_UdbudtL&#230;ringsaktivitet"><rect fill="#F1F1F1" height="32" id="UdbudtL&#230;ringsaktivitet" rx="2.5" ry="2.5" style="stroke:#181818;stroke-width:0.5;" width="197.3477" x="315" y="197.2969"/><ellipse cx="330" cy="213.2969" fill="#ADD1B2" rx="11" ry="11" style="stroke:#181818;stroke-width:1.0;"/><path d="M332.9688,218.9375 Q332.3906,219.2344 331.75,219.375 Q331.1094,219.5313 330.4063,219.5313 Q327.9063,219.5313 326.5781,217.8906 Q325.2656,216.2344 325.2656,213.1094 Q325.2656,209.9844 326.5781,208.3281 Q327.9063,206.6719 330.4063,206.6719 Q331.1094,206.6719 331.75,206.8281 Q332.4063,206.9844 332.9688,207.2813 L332.9688,210 Q332.3438,209.4219 331.75,209.1563 Q331.1563,208.875 330.5313,208.875 Q329.1875,208.875 328.5,209.9531 Q327.8125,211.0156 327.8125,213.1094 Q327.8125,215.2031 328.5,216.2813 Q329.1875,217.3438 330.5313,217.3438 Q331.1563,217.3438 331.75,217.0781 Q332.3438,216.7969 332.9688,216.2188 L332.9688,218.9375 Z " fill="#000000"/><text fill="#000000" font-family="sans-serif" font-size="14" lengthAdjust="spacing" textLength="165.3477" x="344" y="218.1436">UdbudtL&#230;ringsaktivitet</text></g><!--class TilmeldingTilUdbudtL?ringsaktivitet--><g id="elem_TilmeldingTilUdbudtL&#230;ringsaktivitet"><rect fill="#F1F1F1" height="32" id="TilmeldingTilUdbudtL&#230;ringsaktivitet" rx="2.5" ry="2.5" style="stroke:#181818;stroke-width:0.5;" width="286.6865" x="547" y="197.2969"/><ellipse cx="562" cy="213.2969" fill="#ADD1B2" rx="11" ry="11" style="stroke:#181818;stroke-width:1.0;"/><path d="M564.9688,218.9375 Q564.3906,219.2344 563.75,219.375 Q563.1094,219.5313 562.4063,219.5313 Q559.9063,219.5313 558.5781,217.8906 Q557.2656,216.2344 557.2656,213.1094 Q557.2656,209.9844 558.5781,208.3281 Q559.9063,206.6719 562.4063,206.6719 Q563.1094,206.6719 563.75,206.8281 Q564.4063,206.9844 564.9688,207.2813 L564.9688,210 Q564.3438,209.4219 563.75,209.1563 Q563.1563,208.875 562.5313,208.875 Q561.1875,208.875 560.5,209.9531 Q559.8125,211.0156 559.8125,213.1094 Q559.8125,215.2031 560.5,216.2813 Q561.1875,217.3438 562.5313,217.3438 Q563.1563,217.3438 563.75,217.0781 Q564.3438,216.7969 564.9688,216.2188 L564.9688,218.9375 Z " fill="#000000"/><text fill="#000000" font-family="sans-serif" font-size="14" lengthAdjust="spacing" textLength="254.6865" x="576" y="218.1436">TilmeldingTilUdbudtL&#230;ringsaktivitet</text></g><!--class OrgPerson--><g id="elem_OrgPerson"><rect fill="#F1F1F1" height="32" id="OrgPerson" rx="2.5" ry="2.5" style="stroke:#181818;stroke-width:0.5;" width="105.2061" x="909" y="531.2969"/><ellipse cx="924" cy="547.2969" fill="#ADD1B2" rx="11" ry="11" style="stroke:#181818;stroke-width:1.0;"/><path d="M926.9688,552.9375 Q926.3906,553.2344 925.75,553.375 Q925.1094,553.5313 924.4063,553.5313 Q921.9063,553.5313 920.5781,551.8906 Q919.2656,550.2344 919.2656,547.1094 Q919.2656,543.9844 920.5781,542.3281 Q921.9063,540.6719 924.4063,540.6719 Q925.1094,540.6719 925.75,540.8281 Q926.4063,540.9844 926.9688,541.2813 L926.9688,544 Q926.3438,543.4219 925.75,543.1563 Q925.1563,542.875 924.5313,542.875 Q923.1875,542.875 922.5,543.9531 Q921.8125,545.0156 921.8125,547.1094 Q921.8125,549.2031 922.5,550.2813 Q923.1875,551.3438 924.5313,551.3438 Q925.1563,551.3438 925.75,551.0781 Q926.3438,550.7969 926.9688,550.2188 L926.9688,552.9375 Z " fill="#000000"/><text fill="#000000" font-family="sans-serif" font-size="14" lengthAdjust="spacing" textLength="73.2061" x="938" y="552.1436">OrgPerson</text></g><!--link TilmeldingTilUdbudtFagelement to Hold?nske--><g id="link_TilmeldingTilUdbudtFagelement_Hold&#248;nske"><path codeLine="1526" d="M143.5,76.3769 C143.5,90.9569 143.5,113.5669 143.5,136.2469 " fill="none" id="TilmeldingTilUdbudtFagelement-Hold&#248;nske" style="stroke:#181818;stroke-width:1.0;"/><text fill="#000000" font-family="sans-serif" font-size="13" lengthAdjust="spacing" textLength="237.1294" x="144.5" y="102.3838">tilmelding kan indeholde hold&#248;nsker</text><text fill="#000000" font-family="sans-serif" font-size="13" lengthAdjust="spacing" textLength="8.271" x="134.2437" y="96.2766">1</text><text fill="#000000" font-family="sans-serif" font-size="13" lengthAdjust="spacing" textLength="23.0356" x="119.413" y="125.2577">0..*</text></g><!--link Hold?nske to Hold--><g id="link_Hold&#248;nske_Hold"><path codeLine="1527" d="M280.24,278.2969 C358.92,278.2969 442.33,278.2969 442.33,278.2969 C442.33,278.2969 442.33,315.1469 442.33,349.9769 " fill="none" id="Hold&#248;nske-Hold" style="stroke:#181818;stroke-width:1.0;"/><text fill="#000000" font-family="sans-serif" font-size="13" lengthAdjust="spacing" textLength="23.0356" x="287.8885" y="278.33">0..*</text><text fill="#000000" font-family="sans-serif" font-size="13" lengthAdjust="spacing" textLength="8.271" x="421.8215" y="339.1239">1</text></g><!--link UdbudtL?ringsaktivitet to Hold--><g id="link_UdbudtL&#230;ringsaktivitet_Hold"><path codeLine="1528" d="M477.17,229.4569 C477.17,255.5269 477.17,308.1869 477.17,350.0669 " fill="none" id="UdbudtL&#230;ringsaktivitet-Hold" style="stroke:#181818;stroke-width:1.0;"/><text fill="#000000" font-family="sans-serif" font-size="13" lengthAdjust="spacing" textLength="23.0356" x="471.3996" y="249.3831">1..*</text><text fill="#000000" font-family="sans-serif" font-size="13" lengthAdjust="spacing" textLength="23.0356" x="444.8091" y="339.2244">1..*</text></g><!--link Holdbegivenhed to Hold--><g id="link_Holdbegivenhed_Hold"><path codeLine="1529" d="M868.75,248.2969 C773.57,248.2969 639.33,248.2969 639.33,248.2969 C639.33,248.2969 639.33,304.0869 639.33,350.2869 " fill="none" id="Holdbegivenhed-Hold" style="stroke:#181818;stroke-width:1.0;"/><text fill="#000000" font-family="sans-serif" font-size="13" lengthAdjust="spacing" textLength="23.0356" x="841.8267" y="248.0747">1..*</text><text fill="#000000" font-family="sans-serif" font-size="13" lengthAdjust="spacing" textLength="8.271" x="642.1548" y="339.0436">1</text></g><!--link TilmeldingTilUdbudtL?ringsaktivitet to Hold--><g id="link_TilmeldingTilUdbudtL&#230;ringsaktivitet_Hold"><path codeLine="1530" d="M593.17,229.4569 C593.17,255.5269 593.17,308.1869 593.17,350.0669 " fill="none" id="TilmeldingTilUdbudtL&#230;ringsaktivitet-Hold" style="stroke:#181818;stroke-width:1.0;"/><text fill="#000000" font-family="sans-serif" font-size="13" lengthAdjust="spacing" textLength="88.48" x="504.17" y="285.8338">holdplacering</text><text fill="#000000" font-family="sans-serif" font-size="13" lengthAdjust="spacing" textLength="23.0356" x="534.1779" y="249.3831">0..*</text><text fill="#000000" font-family="sans-serif" font-size="13" lengthAdjust="spacing" textLength="23.0356" x="574.2216" y="339.2244">1..*</text></g><!--link Holdbegivenhed to HoldBegivenhedPerson--><g id="link_Holdbegivenhed_HoldBegivenhedPerson"><path codeLine="1531" d="M961.5,265.9669 C961.5,303.4469 961.5,352.3469 961.5,382.6469 " fill="none" id="Holdbegivenhed-HoldBegivenhedPerson" style="stroke:#181818;stroke-width:1.0;"/><text fill="#000000" font-family="sans-serif" font-size="13" lengthAdjust="spacing" textLength="8.271" x="952.9777" y="286.1154">1</text><text fill="#000000" font-family="sans-serif" font-size="13" lengthAdjust="spacing" textLength="23.0356" x="936.0007" y="371.8974">0..*</text></g><!--link HoldBegivenhedPerson to OrgPerson--><g id="link_HoldBegivenhedPerson_OrgPerson"><path codeLine="1532" d="M961.5,439.0769 C961.5,466.8769 961.5,508.3369 961.5,531.0269 " fill="none" id="HoldBegivenhedPerson-OrgPerson" style="stroke:#181818;stroke-width:1.0;"/><text fill="#000000" font-family="sans-serif" font-size="13" lengthAdjust="spacing" textLength="23.0356" x="936.0007" y="458.9527">0..*</text><text fill="#000000" font-family="sans-serif" font-size="13" lengthAdjust="spacing" textLength="8.271" x="952.1858" y="520.242">1</text></g><!--SRC=[JSuz3i8m343XtQTmnSxIjUe02mTWhzB4IgpQJfIVeKBS7HOatlejxybT2ETjtXvP0YGEXAIbdwYaEzK6xM0hhZf5OQD-5i9SUyf_uCMrXY_0RpVdZrZpi73Fakkoa0rTLxm8nzHZ9J9u0qniNaQWDdPKntOjGsNwVNm0]--></g></svg>