<svg xmlns="http://www.w3.org/2000/svg" xmlns:xlink="http://www.w3.org/1999/xlink" contentStyleType="text/css" height="633px" preserveAspectRatio="none" style="width:2350px;height:633px;background:#FFFFFF;" version="1.1" viewBox="0 0 2350 633" width="2350px" zoomAndPan="magnify"><defs/><g><text fill="#000000" font-family="sans-serif" font-size="14" font-weight="bold" lengthAdjust="spacing" textLength="228.2041" x="1054.2646" y="22.9951">3_4_2_Personligt_fagelement</text><!--class PersonligtFagelement--><g id="elem_PersonligtFagelement"><rect codeLine="1887" fill="#F1F1F1" height="32" id="PersonligtFagelement" rx="2.5" ry="2.5" style="stroke:#181818;stroke-width:0.5;" width="184.9473" x="536" y="331.2969"/><ellipse cx="551" cy="347.2969" fill="#A9DCDF" rx="11" ry="11" style="stroke:#181818;stroke-width:1.0;"/><path d="M551.1094,342.6406 L549.9531,347.7188 L552.2813,347.7188 L551.1094,342.6406 Z M549.625,340.4063 L552.6094,340.4063 L555.9688,352.7969 L553.5156,352.7969 L552.75,349.7344 L549.4688,349.7344 L548.7188,352.7969 L546.2813,352.7969 L549.625,340.4063 Z " fill="#000000"/><text fill="#000000" font-family="sans-serif" font-size="14" font-style="italic" lengthAdjust="spacing" textLength="152.9473" x="565" y="352.1436">PersonligtFagelement</text></g><!--class PersonligtProjektorienteretForl?b--><g id="elem_PersonligtProjektorienteretForl&#248;b"><rect codeLine="1890" fill="#F1F1F1" height="32" id="PersonligtProjektorienteretForl&#248;b" rx="2.5" ry="2.5" style="stroke:#181818;stroke-width:0.5;" width="263.9365" x="998.5" y="109.2969"/><ellipse cx="1013.5" cy="125.2969" fill="#ADD1B2" rx="11" ry="11" style="stroke:#181818;stroke-width:1.0;"/><path d="M1016.4688,130.9375 Q1015.8906,131.2344 1015.25,131.375 Q1014.6094,131.5313 1013.9063,131.5313 Q1011.4063,131.5313 1010.0781,129.8906 Q1008.7656,128.2344 1008.7656,125.1094 Q1008.7656,121.9844 1010.0781,120.3281 Q1011.4063,118.6719 1013.9063,118.6719 Q1014.6094,118.6719 1015.25,118.8281 Q1015.9063,118.9844 1016.4688,119.2813 L1016.4688,122 Q1015.8438,121.4219 1015.25,121.1563 Q1014.6563,120.875 1014.0313,120.875 Q1012.6875,120.875 1012,121.9531 Q1011.3125,123.0156 1011.3125,125.1094 Q1011.3125,127.2031 1012,128.2813 Q1012.6875,129.3438 1014.0313,129.3438 Q1014.6563,129.3438 1015.25,129.0781 Q1015.8438,128.7969 1016.4688,128.2188 L1016.4688,130.9375 Z " fill="#000000"/><text fill="#000000" font-family="sans-serif" font-size="14" lengthAdjust="spacing" textLength="231.9365" x="1027.5" y="130.1436">PersonligtProjektorienteretForl&#248;b</text></g><!--class PersonligPraktik--><g id="elem_PersonligPraktik"><rect codeLine="1893" fill="#F1F1F1" height="32" id="PersonligPraktik" rx="2.5" ry="2.5" style="stroke:#181818;stroke-width:0.5;" width="144.5811" x="1298" y="109.2969"/><ellipse cx="1313" cy="125.2969" fill="#ADD1B2" rx="11" ry="11" style="stroke:#181818;stroke-width:1.0;"/><path d="M1315.9688,130.9375 Q1315.3906,131.2344 1314.75,131.375 Q1314.1094,131.5313 1313.4063,131.5313 Q1310.9063,131.5313 1309.5781,129.8906 Q1308.2656,128.2344 1308.2656,125.1094 Q1308.2656,121.9844 1309.5781,120.3281 Q1310.9063,118.6719 1313.4063,118.6719 Q1314.1094,118.6719 1314.75,118.8281 Q1315.4063,118.9844 1315.9688,119.2813 L1315.9688,122 Q1315.3438,121.4219 1314.75,121.1563 Q1314.1563,120.875 1313.5313,120.875 Q1312.1875,120.875 1311.5,121.9531 Q1310.8125,123.0156 1310.8125,125.1094 Q1310.8125,127.2031 1311.5,128.2813 Q1312.1875,129.3438 1313.5313,129.3438 Q1314.1563,129.3438 1314.75,129.0781 Q1315.3438,128.7969 1315.9688,128.2188 L1315.9688,130.9375 Z " fill="#000000"/><text fill="#000000" font-family="sans-serif" font-size="14" lengthAdjust="spacing" textLength="112.5811" x="1327" y="130.1436">PersonligPraktik</text></g><!--class PersonligAfsluttendeOpgave--><g id="elem_PersonligAfsluttendeOpgave"><rect codeLine="1896" fill="#F1F1F1" height="56.2969" id="PersonligAfsluttendeOpgave" rx="2.5" ry="2.5" style="stroke:#181818;stroke-width:0.5;" width="266.1055" x="191.5" y="97.2969"/><ellipse cx="222.2939" cy="113.2969" fill="#ADD1B2" rx="11" ry="11" style="stroke:#181818;stroke-width:1.0;"/><path d="M225.2627,118.9375 Q224.6846,119.2344 224.0439,119.375 Q223.4033,119.5313 222.7002,119.5313 Q220.2002,119.5313 218.8721,117.8906 Q217.5596,116.2344 217.5596,113.1094 Q217.5596,109.9844 218.8721,108.3281 Q220.2002,106.6719 222.7002,106.6719 Q223.4033,106.6719 224.0439,106.8281 Q224.7002,106.9844 225.2627,107.2813 L225.2627,110 Q224.6377,109.4219 224.0439,109.1563 Q223.4502,108.875 222.8252,108.875 Q221.4814,108.875 220.7939,109.9531 Q220.1064,111.0156 220.1064,113.1094 Q220.1064,115.2031 220.7939,116.2813 Q221.4814,117.3438 222.8252,117.3438 Q223.4502,117.3438 224.0439,117.0781 Q224.6377,116.7969 225.2627,116.2188 L225.2627,118.9375 Z " fill="#000000"/><text fill="#000000" font-family="sans-serif" font-size="14" lengthAdjust="spacing" textLength="199.0078" x="239.8037" y="118.1436">PersonligAfsluttendeOpgave</text><line style="stroke:#181818;stroke-width:0.5;" x1="192.5" x2="456.6055" y1="129.2969" y2="129.2969"/><text fill="#000000" font-family="sans-serif" font-size="14" lengthAdjust="spacing" textLength="222.9404" x="197.5" y="146.292">afsluttendeOpgavetype: Picklist</text><a href="1..1" target="_top" title="1..1" xlink:actuate="onRequest" xlink:href="1..1" xlink:show="new" xlink:title="1..1" xlink:type="simple"><text fill="#0000FF" font-family="sans-serif" font-size="14" lengthAdjust="spacing" text-decoration="underline" textLength="26.7148" x="424.8906" y="146.292">1..1</text></a></g><!--class PersonligProjektopgave--><g id="elem_PersonligProjektopgave"><rect codeLine="1900" fill="#F1F1F1" height="32" id="PersonligProjektopgave" rx="2.5" ry="2.5" style="stroke:#181818;stroke-width:0.5;" width="196.8896" x="493" y="109.2969"/><ellipse cx="508" cy="125.2969" fill="#ADD1B2" rx="11" ry="11" style="stroke:#181818;stroke-width:1.0;"/><path d="M510.9688,130.9375 Q510.3906,131.2344 509.75,131.375 Q509.1094,131.5313 508.4063,131.5313 Q505.9063,131.5313 504.5781,129.8906 Q503.2656,128.2344 503.2656,125.1094 Q503.2656,121.9844 504.5781,120.3281 Q505.9063,118.6719 508.4063,118.6719 Q509.1094,118.6719 509.75,118.8281 Q510.4063,118.9844 510.9688,119.2813 L510.9688,122 Q510.3438,121.4219 509.75,121.1563 Q509.1563,120.875 508.5313,120.875 Q507.1875,120.875 506.5,121.9531 Q505.8125,123.0156 505.8125,125.1094 Q505.8125,127.2031 506.5,128.2813 Q507.1875,129.3438 508.5313,129.3438 Q509.1563,129.3438 509.75,129.0781 Q510.3438,128.7969 510.9688,128.2188 L510.9688,130.9375 Z " fill="#000000"/><text fill="#000000" font-family="sans-serif" font-size="14" lengthAdjust="spacing" textLength="164.8896" x="522" y="130.1436">PersonligProjektopgave</text></g><!--class PersonligtKursus--><g id="elem_PersonligtKursus"><rect codeLine="1903" fill="#F1F1F1" height="32" id="PersonligtKursus" rx="2.5" ry="2.5" style="stroke:#181818;stroke-width:0.5;" width="148.9697" x="7" y="109.2969"/><ellipse cx="22" cy="125.2969" fill="#ADD1B2" rx="11" ry="11" style="stroke:#181818;stroke-width:1.0;"/><path d="M24.9688,130.9375 Q24.3906,131.2344 23.75,131.375 Q23.1094,131.5313 22.4063,131.5313 Q19.9063,131.5313 18.5781,129.8906 Q17.2656,128.2344 17.2656,125.1094 Q17.2656,121.9844 18.5781,120.3281 Q19.9063,118.6719 22.4063,118.6719 Q23.1094,118.6719 23.75,118.8281 Q24.4063,118.9844 24.9688,119.2813 L24.9688,122 Q24.3438,121.4219 23.75,121.1563 Q23.1563,120.875 22.5313,120.875 Q21.1875,120.875 20.5,121.9531 Q19.8125,123.0156 19.8125,125.1094 Q19.8125,127.2031 20.5,128.2813 Q21.1875,129.3438 22.5313,129.3438 Q23.1563,129.3438 23.75,129.0781 Q24.3438,128.7969 24.9688,128.2188 L24.9688,130.9375 Z " fill="#000000"/><text fill="#000000" font-family="sans-serif" font-size="14" lengthAdjust="spacing" textLength="116.9697" x="36" y="130.1436">PersonligtKursus</text></g><!--class EksterntOphold--><g id="elem_EksterntOphold"><rect codeLine="1906" fill="#F1F1F1" height="154.0781" id="EksterntOphold" rx="2.5" ry="2.5" style="stroke:#181818;stroke-width:0.5;" width="272.8457" x="1215" y="270.2969"/><ellipse cx="1292.8784" cy="286.2969" fill="#ADD1B2" rx="11" ry="11" style="stroke:#181818;stroke-width:1.0;"/><path d="M1295.8472,291.9375 Q1295.269,292.2344 1294.6284,292.375 Q1293.9878,292.5313 1293.2847,292.5313 Q1290.7847,292.5313 1289.4565,290.8906 Q1288.144,289.2344 1288.144,286.1094 Q1288.144,282.9844 1289.4565,281.3281 Q1290.7847,279.6719 1293.2847,279.6719 Q1293.9878,279.6719 1294.6284,279.8281 Q1295.2847,279.9844 1295.8472,280.2813 L1295.8472,283 Q1295.2222,282.4219 1294.6284,282.1563 Q1294.0347,281.875 1293.4097,281.875 Q1292.0659,281.875 1291.3784,282.9531 Q1290.6909,284.0156 1290.6909,286.1094 Q1290.6909,288.2031 1291.3784,289.2813 Q1292.0659,290.3438 1293.4097,290.3438 Q1294.0347,290.3438 1294.6284,290.0781 Q1295.2222,289.7969 1295.8472,289.2188 L1295.8472,291.9375 Z " fill="#000000"/><text fill="#000000" font-family="sans-serif" font-size="14" lengthAdjust="spacing" textLength="108.5889" x="1313.3784" y="291.1436">EksterntOphold</text><line style="stroke:#181818;stroke-width:0.5;" x1="1216" x2="1486.8457" y1="302.2969" y2="302.2969"/><text fill="#000000" font-family="sans-serif" font-size="14" lengthAdjust="spacing" textLength="209.46" x="1221" y="319.292">opholdsperiodeSlutdato: Date</text><a href="1..1" target="_top" title="1..1" xlink:actuate="onRequest" xlink:href="1..1" xlink:show="new" xlink:title="1..1" xlink:type="simple"><text fill="#0000FF" font-family="sans-serif" font-size="14" lengthAdjust="spacing" text-decoration="underline" textLength="26.7148" x="1434.9102" y="319.292">1..1</text></a><text fill="#000000" font-family="sans-serif" font-size="14" lengthAdjust="spacing" textLength="204.791" x="1221" y="335.5889">eksterntOpholdstype: Picklist</text><a href="1..1" target="_top" title="1..1" xlink:actuate="onRequest" xlink:href="1..1" xlink:show="new" xlink:title="1..1" xlink:type="simple"><text fill="#0000FF" font-family="sans-serif" font-size="14" lengthAdjust="spacing" text-decoration="underline" textLength="26.7148" x="1430.2412" y="335.5889">1..1</text></a><text fill="#000000" font-family="sans-serif" font-size="14" lengthAdjust="spacing" textLength="206.4043" x="1221" y="351.8857">eksterntOpholdsform: Picklist</text><a href="1..1" target="_top" title="1..1" xlink:actuate="onRequest" xlink:href="1..1" xlink:show="new" xlink:title="1..1" xlink:type="simple"><text fill="#0000FF" font-family="sans-serif" font-size="14" lengthAdjust="spacing" text-decoration="underline" textLength="26.7148" x="1431.8545" y="351.8857">1..1</text></a><text fill="#000000" font-family="sans-serif" font-size="14" lengthAdjust="spacing" textLength="216.5215" x="1221" y="368.1826">opholdsperiodeStartdato: Date</text><a href="1..1" target="_top" title="1..1" xlink:actuate="onRequest" xlink:href="1..1" xlink:show="new" xlink:title="1..1" xlink:type="simple"><text fill="#0000FF" font-family="sans-serif" font-size="14" lengthAdjust="spacing" text-decoration="underline" textLength="26.7148" x="1441.9717" y="368.1826">1..1</text></a><text fill="#000000" font-family="sans-serif" font-size="14" lengthAdjust="spacing" textLength="35.916" x="1221" y="384.4795">&#171;BK&#187;</text><text fill="#000000" font-family="sans-serif" font-size="14" lengthAdjust="spacing" textLength="191.7891" x="1221" y="400.7764">/fagelementkode: IgnoreBK</text><a href="1..1" target="_top" title="1..1" xlink:actuate="onRequest" xlink:href="1..1" xlink:show="new" xlink:title="1..1" xlink:type="simple"><text fill="#0000FF" font-family="sans-serif" font-size="14" lengthAdjust="spacing" text-decoration="underline" textLength="26.7148" x="1417.2393" y="400.7764">1..1</text></a><text fill="#000000" font-family="sans-serif" font-size="14" lengthAdjust="spacing" textLength="229.6807" x="1221" y="417.0732">/indskrivningsnummer: IgnoreBK</text><a href="1..1" target="_top" title="1..1" xlink:actuate="onRequest" xlink:href="1..1" xlink:show="new" xlink:title="1..1" xlink:type="simple"><text fill="#0000FF" font-family="sans-serif" font-size="14" lengthAdjust="spacing" text-decoration="underline" textLength="26.7148" x="1455.1309" y="417.0732">1..1</text></a></g><!--class EksterntOpholdsans?gning--><g id="elem_EksterntOpholdsans&#248;gning"><rect codeLine="1916" fill="#F1F1F1" height="137.7813" id="EksterntOpholdsans&#248;gning" rx="2.5" ry="2.5" style="stroke:#181818;stroke-width:0.5;" width="260.0625" x="802.5" y="488.2969"/><ellipse cx="835.2565" cy="504.2969" fill="#ADD1B2" rx="11" ry="11" style="stroke:#181818;stroke-width:1.0;"/><path d="M838.2253,509.9375 Q837.6472,510.2344 837.0065,510.375 Q836.3659,510.5313 835.6628,510.5313 Q833.1628,510.5313 831.8347,508.8906 Q830.5222,507.2344 830.5222,504.1094 Q830.5222,500.9844 831.8347,499.3281 Q833.1628,497.6719 835.6628,497.6719 Q836.3659,497.6719 837.0065,497.8281 Q837.6628,497.9844 838.2253,498.2813 L838.2253,501 Q837.6003,500.4219 837.0065,500.1563 Q836.4128,499.875 835.7878,499.875 Q834.444,499.875 833.7565,500.9531 Q833.069,502.0156 833.069,504.1094 Q833.069,506.2031 833.7565,507.2813 Q834.444,508.3438 835.7878,508.3438 Q836.4128,508.3438 837.0065,508.0781 Q837.6003,507.7969 838.2253,507.2188 L838.2253,509.9375 Z " fill="#000000"/><text fill="#000000" font-family="sans-serif" font-size="14" lengthAdjust="spacing" textLength="188.6035" x="853.2024" y="509.1436">EksterntOpholdsans&#248;gning</text><line style="stroke:#181818;stroke-width:0.5;" x1="803.5" x2="1061.5625" y1="520.2969" y2="520.2969"/><text fill="#000000" font-family="sans-serif" font-size="14" lengthAdjust="spacing" textLength="171.8008" x="808.5" y="537.292">udvekslingsnomineret: ?</text><a href="0..1" target="_top" title="0..1" xlink:actuate="onRequest" xlink:href="0..1" xlink:show="new" xlink:title="0..1" xlink:type="simple"><text fill="#0000FF" font-family="sans-serif" font-size="14" lengthAdjust="spacing" text-decoration="underline" textLength="26.7148" x="984.751" y="537.292">0..1</text></a><text fill="#000000" font-family="sans-serif" font-size="14" lengthAdjust="spacing" textLength="152.0176" x="808.5" y="553.5889">learningAgreement: ?</text><a href="0..1" target="_top" title="0..1" xlink:actuate="onRequest" xlink:href="0..1" xlink:show="new" xlink:title="0..1" xlink:type="simple"><text fill="#0000FF" font-family="sans-serif" font-size="14" lengthAdjust="spacing" text-decoration="underline" textLength="26.7148" x="964.9678" y="553.5889">0..1</text></a><text fill="#000000" font-family="sans-serif" font-size="14" lengthAdjust="spacing" textLength="160.0771" x="808.5" y="569.8857">eksterntopholdssted: ?</text><a href="1..1" target="_top" title="1..1" xlink:actuate="onRequest" xlink:href="1..1" xlink:show="new" xlink:title="1..1" xlink:type="simple"><text fill="#0000FF" font-family="sans-serif" font-size="14" lengthAdjust="spacing" text-decoration="underline" textLength="26.7148" x="973.0273" y="569.8857">1..1</text></a><text fill="#000000" font-family="sans-serif" font-size="14" lengthAdjust="spacing" textLength="132.2412" x="808.5" y="586.1826">grantAgreement: ?</text><a href="0..1" target="_top" title="0..1" xlink:actuate="onRequest" xlink:href="0..1" xlink:show="new" xlink:title="0..1" xlink:type="simple"><text fill="#0000FF" font-family="sans-serif" font-size="14" lengthAdjust="spacing" text-decoration="underline" textLength="26.7148" x="945.1914" y="586.1826">0..1</text></a><text fill="#000000" font-family="sans-serif" font-size="14" lengthAdjust="spacing" textLength="35.916" x="808.5" y="602.4795">&#171;BK&#187;</text><text fill="#000000" font-family="sans-serif" font-size="14" lengthAdjust="spacing" textLength="216.8975" x="808.5" y="618.7764">/ans&#248;gningsnummer: IgnoreBK</text><a href="1..1" target="_top" title="1..1" xlink:actuate="onRequest" xlink:href="1..1" xlink:show="new" xlink:title="1..1" xlink:type="simple"><text fill="#0000FF" font-family="sans-serif" font-size="14" lengthAdjust="spacing" text-decoration="underline" textLength="26.7148" x="1029.8477" y="618.7764">1..1</text></a></g><!--class PersonligPr?veaktivitet--><g id="elem_PersonligPr&#248;veaktivitet"><rect codeLine="1925" fill="#F1F1F1" height="121.4844" id="PersonligPr&#248;veaktivitet" rx="2.5" ry="2.5" style="stroke:#181818;stroke-width:0.5;" width="362.7383" x="1478" y="64.7969"/><ellipse cx="1574.2671" cy="80.7969" fill="#ADD1B2" rx="11" ry="11" style="stroke:#181818;stroke-width:1.0;"/><path d="M1577.2358,86.4375 Q1576.6577,86.7344 1576.0171,86.875 Q1575.3765,87.0313 1574.6733,87.0313 Q1572.1733,87.0313 1570.8452,85.3906 Q1569.5327,83.7344 1569.5327,80.6094 Q1569.5327,77.4844 1570.8452,75.8281 Q1572.1733,74.1719 1574.6733,74.1719 Q1575.3765,74.1719 1576.0171,74.3281 Q1576.6733,74.4844 1577.2358,74.7813 L1577.2358,77.5 Q1576.6108,76.9219 1576.0171,76.6563 Q1575.4233,76.375 1574.7983,76.375 Q1573.4546,76.375 1572.7671,77.4531 Q1572.0796,78.5156 1572.0796,80.6094 Q1572.0796,82.7031 1572.7671,83.7813 Q1573.4546,84.8438 1574.7983,84.8438 Q1575.4233,84.8438 1576.0171,84.5781 Q1576.6108,84.2969 1577.2358,83.7188 L1577.2358,86.4375 Z " fill="#000000"/><text fill="#000000" font-family="sans-serif" font-size="14" lengthAdjust="spacing" textLength="161.7041" x="1594.7671" y="85.6436">PersonligPr&#248;veaktivitet</text><line style="stroke:#181818;stroke-width:0.5;" x1="1479" x2="1839.7383" y1="96.7969" y2="96.7969"/><text fill="#000000" font-family="sans-serif" font-size="14" lengthAdjust="spacing" textLength="319.5732" x="1484" y="113.792">/antalBrugtePr&#248;veaktivitetsfors&#248;g: Calculated</text><a href="1..1" target="_top" title="1..1" xlink:actuate="onRequest" xlink:href="1..1" xlink:show="new" xlink:title="1..1" xlink:type="simple"><text fill="#0000FF" font-family="sans-serif" font-size="14" lengthAdjust="spacing" text-decoration="underline" textLength="26.7148" x="1808.0234" y="113.792">1..1</text></a><text fill="#000000" font-family="sans-serif" font-size="14" lengthAdjust="spacing" textLength="35.916" x="1484" y="130.0889">&#171;BK&#187;</text><text fill="#000000" font-family="sans-serif" font-size="14" lengthAdjust="spacing" textLength="191.7891" x="1484" y="146.3857">/fagelementkode: IgnoreBK</text><a href="1..1" target="_top" title="1..1" xlink:actuate="onRequest" xlink:href="1..1" xlink:show="new" xlink:title="1..1" xlink:type="simple"><text fill="#0000FF" font-family="sans-serif" font-size="14" lengthAdjust="spacing" text-decoration="underline" textLength="26.7148" x="1680.2393" y="146.3857">1..1</text></a><text fill="#000000" font-family="sans-serif" font-size="14" lengthAdjust="spacing" textLength="229.6807" x="1484" y="162.6826">/indskrivningsnummer: IgnoreBK</text><a href="1..1" target="_top" title="1..1" xlink:actuate="onRequest" xlink:href="1..1" xlink:show="new" xlink:title="1..1" xlink:type="simple"><text fill="#0000FF" font-family="sans-serif" font-size="14" lengthAdjust="spacing" text-decoration="underline" textLength="26.7148" x="1718.1309" y="162.6826">1..1</text></a><text fill="#000000" font-family="sans-serif" font-size="14" lengthAdjust="spacing" textLength="216.8975" x="1484" y="178.9795">/pr&#248;veaktivitetskode: IgnoreBK</text><a href="1..1" target="_top" title="1..1" xlink:actuate="onRequest" xlink:href="1..1" xlink:show="new" xlink:title="1..1" xlink:type="simple"><text fill="#0000FF" font-family="sans-serif" font-size="14" lengthAdjust="spacing" text-decoration="underline" textLength="26.7148" x="1705.3477" y="178.9795">1..1</text></a></g><!--class PersonligtFagelementStatusEnum--><g id="elem_PersonligtFagelementStatusEnum"><rect codeLine="1933" fill="#90EE90" height="162.3438" id="PersonligtFagelementStatusEnum" rx="2.5" ry="2.5" style="stroke:#181818;stroke-width:0.5;" width="269.7881" x="2047.5" y="44.2969"/><ellipse cx="2062.5" cy="64.4297" fill="#EB937F" rx="11" ry="11" style="stroke:#181818;stroke-width:1.0;"/><path d="M2066.6094,70.4297 L2058.8906,70.4297 L2058.8906,58.0391 L2066.6094,58.0391 L2066.6094,60.1953 L2061.3438,60.1953 L2061.3438,62.8672 L2066.1094,62.8672 L2066.1094,65.0234 L2061.3438,65.0234 L2061.3438,68.2734 L2066.6094,68.2734 L2066.6094,70.4297 Z " fill="#000000"/><text fill="#000000" font-family="sans-serif" font-size="12" font-style="italic" lengthAdjust="spacing" textLength="49.0957" x="2170.8462" y="60.4355">&#171;enum&#187;</text><text fill="#000000" font-family="sans-serif" font-size="14" lengthAdjust="spacing" textLength="237.7881" x="2076.5" y="76.2607">PersonligtFagelementStatusEnum</text><line style="stroke:#181818;stroke-width:0.5;" x1="2048.5" x2="2316.2881" y1="84.5625" y2="84.5625"/><text fill="#000000" font-family="sans-serif" font-size="14" lengthAdjust="spacing" textLength="62.6445" x="2053.5" y="101.5576">anmodet</text><text fill="#000000" font-family="sans-serif" font-size="14" lengthAdjust="spacing" textLength="57.0732" x="2053.5" y="117.8545">planlagt</text><text fill="#000000" font-family="sans-serif" font-size="14" lengthAdjust="spacing" textLength="53.7852" x="2053.5" y="134.1514">tilmeldt</text><text fill="#000000" font-family="sans-serif" font-size="14" lengthAdjust="spacing" textLength="52.9648" x="2053.5" y="150.4482">best&#229;et</text><text fill="#000000" font-family="sans-serif" font-size="14" lengthAdjust="spacing" textLength="122.4863" x="2053.5" y="166.7451">skalGennemf&#248;res</text><text fill="#000000" font-family="sans-serif" font-size="14" lengthAdjust="spacing" textLength="82.4004" x="2053.5" y="183.042">ikkeBest&#229;et</text><text fill="#000000" font-family="sans-serif" font-size="14" lengthAdjust="spacing" textLength="182.875" x="2053.5" y="199.3389">fritagelsePgaDispensation</text></g><!--class EksterntOpholdstypeEnum--><g id="elem_EksterntOpholdstypeEnum"><rect codeLine="1943" fill="#90EE90" height="162.3438" id="EksterntOpholdstypeEnum" rx="2.5" ry="2.5" style="stroke:#181818;stroke-width:0.5;" width="321.9277" x="1779.5" y="266.2969"/><ellipse cx="1842.5205" cy="286.4297" fill="#EB937F" rx="11" ry="11" style="stroke:#181818;stroke-width:1.0;"/><path d="M1846.6299,292.4297 L1838.9111,292.4297 L1838.9111,280.0391 L1846.6299,280.0391 L1846.6299,282.1953 L1841.3643,282.1953 L1841.3643,284.8672 L1846.1299,284.8672 L1846.1299,287.0234 L1841.3643,287.0234 L1841.3643,290.2734 L1846.6299,290.2734 L1846.6299,292.4297 Z " fill="#000000"/><text fill="#000000" font-family="sans-serif" font-size="12" font-style="italic" lengthAdjust="spacing" textLength="49.0957" x="1932.166" y="282.4355">&#171;enum&#187;</text><text fill="#000000" font-family="sans-serif" font-size="14" lengthAdjust="spacing" textLength="187.3867" x="1863.0205" y="298.2607">EksterntOpholdstypeEnum</text><line style="stroke:#181818;stroke-width:0.5;" x1="1780.5" x2="2100.4277" y1="306.5625" y2="306.5625"/><text fill="#000000" font-family="sans-serif" font-size="14" lengthAdjust="spacing" textLength="131.9336" x="1785.5" y="323.5576">Udvekslingsophold</text><text fill="#000000" font-family="sans-serif" font-size="14" lengthAdjust="spacing" textLength="309.9277" x="1785.5" y="339.8545">UdlandsStudieopholdUdenUdvekslingsaftale</text><text fill="#000000" font-family="sans-serif" font-size="14" lengthAdjust="spacing" textLength="116.8125" x="1785.5" y="356.1514">PraktikIDanmark</text><text fill="#000000" font-family="sans-serif" font-size="14" lengthAdjust="spacing" textLength="115.9648" x="1785.5" y="372.4482">PraktikIUdlandet</text><text fill="#000000" font-family="sans-serif" font-size="14" lengthAdjust="spacing" textLength="230.6787" x="1785.5" y="388.7451">ProjektorienteretForl&#248;bIDanmark</text><text fill="#000000" font-family="sans-serif" font-size="14" lengthAdjust="spacing" textLength="232.2852" x="1785.5" y="405.042">ProjektorienteretFOrl&#248;bIUdlandet</text><text fill="#000000" font-family="sans-serif" font-size="14" lengthAdjust="spacing" textLength="160.7471" x="1785.5" y="421.3389">StudieopholdIDanmark</text></g><!--class EksterntOpholdsformEnum--><g id="elem_EksterntOpholdsformEnum"><rect codeLine="1953" fill="#90EE90" height="97.1563" id="EksterntOpholdsformEnum" rx="2.5" ry="2.5" style="stroke:#181818;stroke-width:0.5;" width="221" x="1523" y="298.7969"/><ellipse cx="1538" cy="318.9297" fill="#EB937F" rx="11" ry="11" style="stroke:#181818;stroke-width:1.0;"/><path d="M1542.1094,324.9297 L1534.3906,324.9297 L1534.3906,312.5391 L1542.1094,312.5391 L1542.1094,314.6953 L1536.8438,314.6953 L1536.8438,317.3672 L1541.6094,317.3672 L1541.6094,319.5234 L1536.8438,319.5234 L1536.8438,322.7734 L1542.1094,322.7734 L1542.1094,324.9297 Z " fill="#000000"/><text fill="#000000" font-family="sans-serif" font-size="12" font-style="italic" lengthAdjust="spacing" textLength="49.0957" x="1621.9521" y="314.9355">&#171;enum&#187;</text><text fill="#000000" font-family="sans-serif" font-size="14" lengthAdjust="spacing" textLength="189" x="1552" y="330.7607">EksterntOpholdsformEnum</text><line style="stroke:#181818;stroke-width:0.5;" x1="1524" x2="1743" y1="339.0625" y2="339.0625"/><text fill="#000000" font-family="sans-serif" font-size="14" lengthAdjust="spacing" textLength="89.9199" x="1529" y="356.0576">fysiskOphold</text><text fill="#000000" font-family="sans-serif" font-size="14" lengthAdjust="spacing" textLength="100.4063" x="1529" y="372.3545">virtueltOphold</text><text fill="#000000" font-family="sans-serif" font-size="14" lengthAdjust="spacing" textLength="94.6982" x="1529" y="388.6514">hybridOphold</text></g><!--class Uddannelsesinstitution--><g id="elem_Uddannelsesinstitution"><rect fill="#F1F1F1" height="32" id="Uddannelsesinstitution" rx="2.5" ry="2.5" style="stroke:#181818;stroke-width:0.5;" width="192.665" x="1255" y="541.2969"/><ellipse cx="1270" cy="557.2969" fill="#ADD1B2" rx="11" ry="11" style="stroke:#181818;stroke-width:1.0;"/><path d="M1272.9688,562.9375 Q1272.3906,563.2344 1271.75,563.375 Q1271.1094,563.5313 1270.4063,563.5313 Q1267.9063,563.5313 1266.5781,561.8906 Q1265.2656,560.2344 1265.2656,557.1094 Q1265.2656,553.9844 1266.5781,552.3281 Q1267.9063,550.6719 1270.4063,550.6719 Q1271.1094,550.6719 1271.75,550.8281 Q1272.4063,550.9844 1272.9688,551.2813 L1272.9688,554 Q1272.3438,553.4219 1271.75,553.1563 Q1271.1563,552.875 1270.5313,552.875 Q1269.1875,552.875 1268.5,553.9531 Q1267.8125,555.0156 1267.8125,557.1094 Q1267.8125,559.2031 1268.5,560.2813 Q1269.1875,561.3438 1270.5313,561.3438 Q1271.1563,561.3438 1271.75,561.0781 Q1272.3438,560.7969 1272.9688,560.2188 L1272.9688,562.9375 Z " fill="#000000"/><text fill="#000000" font-family="sans-serif" font-size="14" lengthAdjust="spacing" textLength="160.665" x="1284" y="562.1436">Uddannelsesinstitution</text></g><!--class EksterntFagelement--><g id="elem_EksterntFagelement"><rect fill="#F1F1F1" height="32" id="EksterntFagelement" rx="2.5" ry="2.5" style="stroke:#181818;stroke-width:0.5;" width="173.7158" x="1483.5" y="541.2969"/><ellipse cx="1498.5" cy="557.2969" fill="#ADD1B2" rx="11" ry="11" style="stroke:#181818;stroke-width:1.0;"/><path d="M1501.4688,562.9375 Q1500.8906,563.2344 1500.25,563.375 Q1499.6094,563.5313 1498.9063,563.5313 Q1496.4063,563.5313 1495.0781,561.8906 Q1493.7656,560.2344 1493.7656,557.1094 Q1493.7656,553.9844 1495.0781,552.3281 Q1496.4063,550.6719 1498.9063,550.6719 Q1499.6094,550.6719 1500.25,550.8281 Q1500.9063,550.9844 1501.4688,551.2813 L1501.4688,554 Q1500.8438,553.4219 1500.25,553.1563 Q1499.6563,552.875 1499.0313,552.875 Q1497.6875,552.875 1497,553.9531 Q1496.3125,555.0156 1496.3125,557.1094 Q1496.3125,559.2031 1497,560.2813 Q1497.6875,561.3438 1499.0313,561.3438 Q1499.6563,561.3438 1500.25,561.0781 Q1500.8438,560.7969 1501.4688,560.2188 L1501.4688,562.9375 Z " fill="#000000"/><text fill="#000000" font-family="sans-serif" font-size="14" lengthAdjust="spacing" textLength="141.7158" x="1512.5" y="562.1436">EksterntFagelement</text></g><!--class Aftalegrundlag--><g id="elem_Aftalegrundlag"><rect fill="#F1F1F1" height="32" id="Aftalegrundlag" rx="2.5" ry="2.5" style="stroke:#181818;stroke-width:0.5;" width="135.708" x="1876.5" y="109.2969"/><ellipse cx="1891.5" cy="125.2969" fill="#ADD1B2" rx="11" ry="11" style="stroke:#181818;stroke-width:1.0;"/><path d="M1894.4688,130.9375 Q1893.8906,131.2344 1893.25,131.375 Q1892.6094,131.5313 1891.9063,131.5313 Q1889.4063,131.5313 1888.0781,129.8906 Q1886.7656,128.2344 1886.7656,125.1094 Q1886.7656,121.9844 1888.0781,120.3281 Q1889.4063,118.6719 1891.9063,118.6719 Q1892.6094,118.6719 1893.25,118.8281 Q1893.9063,118.9844 1894.4688,119.2813 L1894.4688,122 Q1893.8438,121.4219 1893.25,121.1563 Q1892.6563,120.875 1892.0313,120.875 Q1890.6875,120.875 1890,121.9531 Q1889.3125,123.0156 1889.3125,125.1094 Q1889.3125,127.2031 1890,128.2813 Q1890.6875,129.3438 1892.0313,129.3438 Q1892.6563,129.3438 1893.25,129.0781 Q1893.8438,128.7969 1894.4688,128.2188 L1894.4688,130.9375 Z " fill="#000000"/><text fill="#000000" font-family="sans-serif" font-size="14" lengthAdjust="spacing" textLength="103.708" x="1905.5" y="130.1436">Aftalegrundlag</text></g><!--class Program--><g id="elem_Program"><rect fill="#F1F1F1" height="32" id="Program" rx="2.5" ry="2.5" style="stroke:#181818;stroke-width:0.5;" width="91.623" x="1692.5" y="541.2969"/><ellipse cx="1707.5" cy="557.2969" fill="#ADD1B2" rx="11" ry="11" style="stroke:#181818;stroke-width:1.0;"/><path d="M1710.4688,562.9375 Q1709.8906,563.2344 1709.25,563.375 Q1708.6094,563.5313 1707.9063,563.5313 Q1705.4063,563.5313 1704.0781,561.8906 Q1702.7656,560.2344 1702.7656,557.1094 Q1702.7656,553.9844 1704.0781,552.3281 Q1705.4063,550.6719 1707.9063,550.6719 Q1708.6094,550.6719 1709.25,550.8281 Q1709.9063,550.9844 1710.4688,551.2813 L1710.4688,554 Q1709.8438,553.4219 1709.25,553.1563 Q1708.6563,552.875 1708.0313,552.875 Q1706.6875,552.875 1706,553.9531 Q1705.3125,555.0156 1705.3125,557.1094 Q1705.3125,559.2031 1706,560.2813 Q1706.6875,561.3438 1708.0313,561.3438 Q1708.6563,561.3438 1709.25,561.0781 Q1709.8438,560.7969 1710.4688,560.2188 L1710.4688,562.9375 Z " fill="#000000"/><text fill="#000000" font-family="sans-serif" font-size="14" lengthAdjust="spacing" textLength="59.623" x="1721.5" y="562.1436">Program</text></g><!--class IndskrivningTilVidereg?endeUddannelse--><g id="elem_IndskrivningTilVidereg&#229;endeUddannelse"><rect fill="#F1F1F1" height="32" id="IndskrivningTilVidereg&#229;endeUddannelse" rx="2.5" ry="2.5" style="stroke:#181818;stroke-width:0.5;" width="314.6182" x="775" y="331.2969"/><ellipse cx="790" cy="347.2969" fill="#ADD1B2" rx="11" ry="11" style="stroke:#181818;stroke-width:1.0;"/><path d="M792.9688,352.9375 Q792.3906,353.2344 791.75,353.375 Q791.1094,353.5313 790.4063,353.5313 Q787.9063,353.5313 786.5781,351.8906 Q785.2656,350.2344 785.2656,347.1094 Q785.2656,343.9844 786.5781,342.3281 Q787.9063,340.6719 790.4063,340.6719 Q791.1094,340.6719 791.75,340.8281 Q792.4063,340.9844 792.9688,341.2813 L792.9688,344 Q792.3438,343.4219 791.75,343.1563 Q791.1563,342.875 790.5313,342.875 Q789.1875,342.875 788.5,343.9531 Q787.8125,345.0156 787.8125,347.1094 Q787.8125,349.2031 788.5,350.2813 Q789.1875,351.3438 790.5313,351.3438 Q791.1563,351.3438 791.75,351.0781 Q792.3438,350.7969 792.9688,350.2188 L792.9688,352.9375 Z " fill="#000000"/><text fill="#000000" font-family="sans-serif" font-size="14" lengthAdjust="spacing" textLength="282.6182" x="804" y="352.1436">IndskrivningTilVidereg&#229;endeUddannelse</text></g><!--class Pr?veaktivitetstilmelding--><g id="elem_Pr&#248;veaktivitetstilmelding"><rect fill="#F1F1F1" height="32" id="Pr&#248;veaktivitetstilmelding" rx="2.5" ry="2.5" style="stroke:#181818;stroke-width:0.5;" width="206.7334" x="2137" y="331.2969"/><ellipse cx="2152" cy="347.2969" fill="#ADD1B2" rx="11" ry="11" style="stroke:#181818;stroke-width:1.0;"/><path d="M2154.9688,352.9375 Q2154.3906,353.2344 2153.75,353.375 Q2153.1094,353.5313 2152.4063,353.5313 Q2149.9063,353.5313 2148.5781,351.8906 Q2147.2656,350.2344 2147.2656,347.1094 Q2147.2656,343.9844 2148.5781,342.3281 Q2149.9063,340.6719 2152.4063,340.6719 Q2153.1094,340.6719 2153.75,340.8281 Q2154.4063,340.9844 2154.9688,341.2813 L2154.9688,344 Q2154.3438,343.4219 2153.75,343.1563 Q2153.1563,342.875 2152.5313,342.875 Q2151.1875,342.875 2150.5,343.9531 Q2149.8125,345.0156 2149.8125,347.1094 Q2149.8125,349.2031 2150.5,350.2813 Q2151.1875,351.3438 2152.5313,351.3438 Q2153.1563,351.3438 2153.75,351.0781 Q2154.3438,350.7969 2154.9688,350.2188 L2154.9688,352.9375 Z " fill="#000000"/><text fill="#000000" font-family="sans-serif" font-size="14" lengthAdjust="spacing" textLength="174.7334" x="2166" y="352.1436">Pr&#248;veaktivitetstilmelding</text></g><!--class Organisation--><g id="elem_Organisation"><rect fill="#F1F1F1" height="32" id="Organisation" rx="2.5" ry="2.5" style="stroke:#181818;stroke-width:0.5;" width="121.6943" x="1097.5" y="541.2969"/><ellipse cx="1112.5" cy="557.2969" fill="#ADD1B2" rx="11" ry="11" style="stroke:#181818;stroke-width:1.0;"/><path d="M1115.4688,562.9375 Q1114.8906,563.2344 1114.25,563.375 Q1113.6094,563.5313 1112.9063,563.5313 Q1110.4063,563.5313 1109.0781,561.8906 Q1107.7656,560.2344 1107.7656,557.1094 Q1107.7656,553.9844 1109.0781,552.3281 Q1110.4063,550.6719 1112.9063,550.6719 Q1113.6094,550.6719 1114.25,550.8281 Q1114.9063,550.9844 1115.4688,551.2813 L1115.4688,554 Q1114.8438,553.4219 1114.25,553.1563 Q1113.6563,552.875 1113.0313,552.875 Q1111.6875,552.875 1111,553.9531 Q1110.3125,555.0156 1110.3125,557.1094 Q1110.3125,559.2031 1111,560.2813 Q1111.6875,561.3438 1113.0313,561.3438 Q1113.6563,561.3438 1114.25,561.0781 Q1114.8438,560.7969 1115.4688,560.2188 L1115.4688,562.9375 Z " fill="#000000"/><text fill="#000000" font-family="sans-serif" font-size="14" lengthAdjust="spacing" textLength="89.6943" x="1126.5" y="562.1436">Organisation</text></g><!--class AfsluttendeOpgavetypeEnum--><g id="elem_AfsluttendeOpgavetypeEnum"><rect fill="#F1F1F1" height="32" id="AfsluttendeOpgavetypeEnum" rx="2.5" ry="2.5" style="stroke:#181818;stroke-width:0.5;" width="238.3018" x="725.5" y="109.2969"/><ellipse cx="740.5" cy="125.2969" fill="#ADD1B2" rx="11" ry="11" style="stroke:#181818;stroke-width:1.0;"/><path d="M743.4688,130.9375 Q742.8906,131.2344 742.25,131.375 Q741.6094,131.5313 740.9063,131.5313 Q738.4063,131.5313 737.0781,129.8906 Q735.7656,128.2344 735.7656,125.1094 Q735.7656,121.9844 737.0781,120.3281 Q738.4063,118.6719 740.9063,118.6719 Q741.6094,118.6719 742.25,118.8281 Q742.9063,118.9844 743.4688,119.2813 L743.4688,122 Q742.8438,121.4219 742.25,121.1563 Q741.6563,120.875 741.0313,120.875 Q739.6875,120.875 739,121.9531 Q738.3125,123.0156 738.3125,125.1094 Q738.3125,127.2031 739,128.2813 Q739.6875,129.3438 741.0313,129.3438 Q741.6563,129.3438 742.25,129.0781 Q742.8438,128.7969 743.4688,128.2188 L743.4688,130.9375 Z " fill="#000000"/><text fill="#000000" font-family="sans-serif" font-size="14" lengthAdjust="spacing" textLength="206.3018" x="754.5" y="130.1436">AfsluttendeOpgavetypeEnum</text></g><!--link EksterntOphold to Uddannelsesinstitution--><g id="link_EksterntOphold_Uddannelsesinstitution"><path codeLine="1959" d="M1351.5,424.2969 C1351.5,466.9069 1351.5,516.1569 1351.5,541.0669 " fill="none" id="EksterntOphold-Uddannelsesinstitution" style="stroke:#181818;stroke-width:1.0;"/><text fill="#000000" font-family="sans-serif" font-size="13" lengthAdjust="spacing" textLength="23.0356" x="1327.413" y="444.4203">0..*</text><text fill="#000000" font-family="sans-serif" font-size="13" lengthAdjust="spacing" textLength="24.8066" x="1323.7141" y="530.2952">0..1</text></g><!--link EksterntOphold to EksterntFagelement--><g id="link_EksterntOphold_EksterntFagelement"><path codeLine="1960" d="M1488.13,417.2969 C1498.77,417.2969 1505.5,417.2969 1505.5,417.2969 C1505.5,417.2969 1505.5,504.4669 1505.5,541.2369 " fill="none" id="EksterntOphold-EksterntFagelement" style="stroke:#181818;stroke-width:1.0;"/><text fill="#000000" font-family="sans-serif" font-size="13" lengthAdjust="spacing" textLength="113.4009" x="1391.5" y="466.6538">i forbindelse med</text><text fill="#000000" font-family="sans-serif" font-size="13" lengthAdjust="spacing" textLength="24.8066" x="1495.8185" y="417.5878">0..1</text><text fill="#000000" font-family="sans-serif" font-size="13" lengthAdjust="spacing" textLength="23.0356" x="1456.2581" y="530.2278">1..*</text></g><!--link Aftalegrundlag to EksterntOphold--><g id="link_Aftalegrundlag_EksterntOphold"><path codeLine="1961" d="M1944.5,141.4069 C1944.5,162.3569 1944.5,196.2969 1944.5,196.2969 C1944.5,196.2969 1483,196.2969 1483,196.2969 C1483,196.2969 1483,232.8769 1483,270.0269 " fill="none" id="Aftalegrundlag-EksterntOphold" style="stroke:#181818;stroke-width:1.0;"/><text fill="#000000" font-family="sans-serif" font-size="13" lengthAdjust="spacing" textLength="24.8066" x="1916.707" y="161.3166">0..1</text><text fill="#000000" font-family="sans-serif" font-size="13" lengthAdjust="spacing" textLength="24.8066" x="1470.0607" y="259.2816">0..1</text></g><!--link EksterntOphold to EksterntOpholdsans?gning--><g id="link_EksterntOphold_EksterntOpholdsans&#248;gning"><path codeLine="1962" d="M1231.33,424.4169 C1231.33,468.5769 1231.33,515.2969 1231.33,515.2969 C1231.33,515.2969 1143.23,515.2969 1062.7,515.2969 " fill="none" id="EksterntOphold-EksterntOpholdsans&#248;gning" style="stroke:#181818;stroke-width:1.0;"/><text fill="#000000" font-family="sans-serif" font-size="13" lengthAdjust="spacing" textLength="60.1313" x="1131.46" y="511.3638">medf&#248;rer</text><text fill="#000000" font-family="sans-serif" font-size="13" lengthAdjust="spacing" textLength="24.8066" x="1194.7783" y="444.5517">0..1</text><text fill="#000000" font-family="sans-serif" font-size="13" lengthAdjust="spacing" textLength="24.8066" x="1070.4969" y="509.6664">0..1</text></g><!--link EksterntOphold to Program--><g id="link_EksterntOphold_Program"><path codeLine="1963" d="M1488.06,410.2969 C1592.34,410.2969 1718.25,410.2969 1718.25,410.2969 C1718.25,410.2969 1718.25,503.1869 1718.25,541.2869 " fill="none" id="EksterntOphold-Program" style="stroke:#181818;stroke-width:1.0;"/><text fill="#000000" font-family="sans-serif" font-size="13" lengthAdjust="spacing" textLength="77.0859" x="1590.65" y="423.3638">h&#248;rer under</text><text fill="#000000" font-family="sans-serif" font-size="13" lengthAdjust="spacing" textLength="23.0356" x="1495.6992" y="426.0003">0..*</text><text fill="#000000" font-family="sans-serif" font-size="13" lengthAdjust="spacing" textLength="24.8066" x="1683.3675" y="530.295">0..1</text></g><!--link IndskrivningTilVidereg?endeUddannelse to EksterntOpholdsans?gning--><g id="link_IndskrivningTilVidereg&#229;endeUddannelse_EksterntOpholdsans&#248;gning"><path codeLine="1964" d="M932.5,363.4269 C932.5,389.8369 932.5,443.8069 932.5,488.1069 " fill="none" id="IndskrivningTilVidereg&#229;endeUddannelse-EksterntOpholdsans&#248;gning" style="stroke:#181818;stroke-width:1.0;"/><text fill="#000000" font-family="sans-serif" font-size="13" lengthAdjust="spacing" textLength="8.271" x="923.2831" y="383.3432">1</text><text fill="#000000" font-family="sans-serif" font-size="13" lengthAdjust="spacing" textLength="23.0356" x="908.3127" y="477.2832">0..*</text></g><!--link PersonligPr?veaktivitet to PersonligtFagelement--><g id="link_PersonligPr&#248;veaktivitet_PersonligtFagelement"><path codeLine="1965" d="M1477.89,170.2969 C1203.08,170.2969 713.25,170.2969 713.25,170.2969 C713.25,170.2969 713.25,287.7069 713.25,331.2769 " fill="none" id="PersonligPr&#248;veaktivitet-PersonligtFagelement" style="stroke:#181818;stroke-width:1.0;"/><text fill="#000000" font-family="sans-serif" font-size="13" lengthAdjust="spacing" textLength="23.0356" x="1446.7494" y="168.9384">0..*</text><text fill="#000000" font-family="sans-serif" font-size="13" lengthAdjust="spacing" textLength="8.271" x="729.0179" y="321.4543">1</text></g><!--link PersonligPr?veaktivitet to Pr?veaktivitetstilmelding--><g id="link_PersonligPr&#248;veaktivitet_Pr&#248;veaktivitetstilmelding"><path codeLine="1966" d="M1810.25,185.9969 C1810.25,211.9069 1810.25,236.2969 1810.25,236.2969 C1810.25,236.2969 2227.25,236.2969 2227.25,236.2969 C2227.25,236.2969 2227.25,300.0469 2227.25,330.9169 " fill="none" id="PersonligPr&#248;veaktivitet-Pr&#248;veaktivitetstilmelding" style="stroke:#181818;stroke-width:1.0;"/><text fill="#000000" font-family="sans-serif" font-size="13" lengthAdjust="spacing" textLength="8.271" x="1820.1676" y="206.3542">1</text><text fill="#000000" font-family="sans-serif" font-size="13" lengthAdjust="spacing" textLength="23.0356" x="2196.1016" y="320.0955">1..*</text></g><!--link PersonligPraktik to EksterntOphold--><g id="link_PersonligPraktik_EksterntOphold"><path codeLine="1967" d="M1394.67,141.6169 C1394.67,168.5069 1394.67,223.7569 1394.67,270.2269 " fill="none" id="PersonligPraktik-EksterntOphold" style="stroke:#181818;stroke-width:1.0;"/><text fill="#000000" font-family="sans-serif" font-size="13" lengthAdjust="spacing" textLength="24.8066" x="1374.7445" y="161.2976">0..1</text><text fill="#000000" font-family="sans-serif" font-size="13" lengthAdjust="spacing" textLength="8.271" x="1390.4237" y="259.2358">1</text></g><!--link PersonligtProjektorienteretForl?b to EksterntOphold--><g id="link_PersonligtProjektorienteretForl&#248;b_EksterntOphold"><path codeLine="1968" d="M1238.75,141.6169 C1238.75,168.5069 1238.75,223.7569 1238.75,270.2269 " fill="none" id="PersonligtProjektorienteretForl&#248;b-EksterntOphold" style="stroke:#181818;stroke-width:1.0;"/><text fill="#000000" font-family="sans-serif" font-size="13" lengthAdjust="spacing" textLength="24.8066" x="1245.5684" y="161.2976">0..1</text><text fill="#000000" font-family="sans-serif" font-size="13" lengthAdjust="spacing" textLength="8.271" x="1219.6425" y="259.2358">1</text></g><!--link EksterntOphold to Organisation--><g id="link_EksterntOphold_Organisation"><path codeLine="1969" d="M1243.17,424.2969 C1243.17,484.2369 1243.17,557.2969 1243.17,557.2969 C1243.17,557.2969 1232.93,557.2969 1219.58,557.2969 " fill="none" id="EksterntOphold-Organisation" style="stroke:#181818;stroke-width:1.0;"/><text fill="#000000" font-family="sans-serif" font-size="13" lengthAdjust="spacing" textLength="22.9658" x="1220.17" y="498.6538">hos</text><text fill="#000000" font-family="sans-serif" font-size="13" lengthAdjust="spacing" textLength="24.8066" x="1234.0343" y="444.4203">0..1</text><text fill="#000000" font-family="sans-serif" font-size="13" lengthAdjust="spacing" textLength="24.8066" x="1227.1737" y="553.5972">0..1</text></g><!--link PersonligtProjektorienteretForl?b to PersonligtFagelement--><g id="link_PersonligtProjektorienteretForl&#248;b_PersonligtFagelement"><path codeLine="1970" d="M1044.25,141.4269 C1044.25,144.2469 1044.25,146.2969 1044.25,146.2969 C1044.25,146.2969 697.75,146.2969 697.75,146.2969 C697.75,146.2969 697.75,265.4869 697.75,313.1869 " fill="none" id="PersonligtProjektorienteretForl&#248;b-to-PersonligtFagelement" style="stroke:#181818;stroke-width:1.0;"/><polygon fill="none" points="697.75,331.1869,703.75,313.1869,691.75,313.1869,697.75,331.1869" style="stroke:#181818;stroke-width:1.0;"/></g><!--link PersonligPraktik to PersonligtFagelement--><g id="link_PersonligPraktik_PersonligtFagelement"><path codeLine="1971" d="M1346.33,141.4369 C1346.33,145.7769 1346.33,149.2969 1346.33,149.2969 C1346.33,149.2969 705.5,149.2969 705.5,149.2969 C705.5,149.2969 705.5,265.8069 705.5,313.0969 " fill="none" id="PersonligPraktik-to-PersonligtFagelement" style="stroke:#181818;stroke-width:1.0;"/><polygon fill="none" points="705.5,331.0969,711.5,313.0969,699.5,313.0969,705.5,331.0969" style="stroke:#181818;stroke-width:1.0;"/></g><!--link PersonligAfsluttendeOpgave to PersonligtFagelement--><g id="link_PersonligAfsluttendeOpgave_PersonligtFagelement"><path codeLine="1972" d="M457.84,151.2969 C522.9,151.2969 587.33,151.2969 587.33,151.2969 C587.33,151.2969 587.33,266.4469 587.33,313.2569 " fill="none" id="PersonligAfsluttendeOpgave-to-PersonligtFagelement" style="stroke:#181818;stroke-width:1.0;"/><polygon fill="none" points="587.33,331.2569,593.33,313.2569,581.33,313.2569,587.33,331.2569" style="stroke:#181818;stroke-width:1.0;"/></g><!--link PersonligProjektopgave to PersonligtFagelement--><g id="link_PersonligProjektopgave_PersonligtFagelement"><path codeLine="1973" d="M638.67,141.6169 C638.67,182.7769 638.67,272.3869 638.67,313.2469 " fill="none" id="PersonligProjektopgave-to-PersonligtFagelement" style="stroke:#181818;stroke-width:1.0;"/><polygon fill="none" points="638.67,331.2469,644.67,313.2469,632.67,313.2469,638.67,331.2469" style="stroke:#181818;stroke-width:1.0;"/></g><!--link PersonligtKursus to PersonligtFagelement--><g id="link_PersonligtKursus_PersonligtFagelement"><path codeLine="1974" d="M81.5,141.6169 C81.5,192.8869 81.5,347.2969 81.5,347.2969 C81.5,347.2969 361.65,347.2969 517.71,347.2969 " fill="none" id="PersonligtKursus-to-PersonligtFagelement" style="stroke:#181818;stroke-width:1.0;"/><polygon fill="none" points="535.71,347.2969,517.71,341.2969,517.71,353.2969,535.71,347.2969" style="stroke:#181818;stroke-width:1.0;"/></g><!--link PersonligAfsluttendeOpgave to AfsluttendeOpgavetypeEnum--><g id="link_PersonligAfsluttendeOpgave_AfsluttendeOpgavetypeEnum"><path codeLine="1975" d="M457.75,144.2969 C582.64,144.2969 750.25,144.2969 750.25,144.2969 C750.25,144.2969 750.25,149.1069 750.25,147.3269 " fill="none" id="PersonligAfsluttendeOpgave-to-AfsluttendeOpgavetypeEnum" style="stroke:#181818;stroke-width:1.0;stroke-dasharray:7.0,7.0;"/><polygon fill="#181818" points="750.25,141.3269,746.25,150.3269,750.25,146.3269,754.25,150.3269,750.25,141.3269" style="stroke:#181818;stroke-width:1.0;"/></g><!--link EksterntOphold to EksterntOpholdstypeEnum--><g id="link_EksterntOphold_EksterntOpholdstypeEnum"><path codeLine="1976" d="M1488.11,403.2969 C1575.02,403.2969 1681.98,403.2969 1773.29,403.2969 " fill="none" id="EksterntOphold-to-EksterntOpholdstypeEnum" style="stroke:#181818;stroke-width:1.0;stroke-dasharray:7.0,7.0;"/><polygon fill="#181818" points="1779.29,403.2969,1770.29,399.2969,1774.29,403.2969,1770.29,407.2969,1779.29,403.2969" style="stroke:#181818;stroke-width:1.0;"/></g><!--link EksterntOphold to EksterntOpholdsformEnum--><g id="link_EksterntOphold_EksterntOpholdsformEnum"><path codeLine="1977" d="M1488.37,347.2969 C1499.88,347.2969 1505.42,347.2969 1516.69,347.2969 " fill="none" id="EksterntOphold-to-EksterntOpholdsformEnum" style="stroke:#181818;stroke-width:1.0;stroke-dasharray:7.0,7.0;"/><polygon fill="#181818" points="1522.69,347.2969,1513.69,343.2969,1517.69,347.2969,1513.69,351.2969,1522.69,347.2969" style="stroke:#181818;stroke-width:1.0;"/></g><!--SRC=[VOun3i8m34NtdC8LEmDqh3h01HZOexGrgLNRYH9dg11tfoCJVtrFUlz9nWXNt_kBVs2fIPcY-LU8o2YevbPQ452oxI0eq-6ukf7cK880awBj6I4LMzCFc3dK2cy7nsvXtc99JPTxubI60RN9ECBfIAqM2wAwZtCTwSnjmTeca41wpasu-tFj2m00]--></g></svg>