<svg xmlns="http://www.w3.org/2000/svg" xmlns:xlink="http://www.w3.org/1999/xlink" contentStyleType="text/css" height="816px" preserveAspectRatio="none" style="width:3039px;height:816px;background:#FFFFFF;" version="1.1" viewBox="0 0 3039 816" width="3039px" zoomAndPan="magnify"><defs/><g><text fill="#000000" font-family="sans-serif" font-size="14" font-weight="bold" lengthAdjust="spacing" textLength="202.7744" x="1411.4526" y="22.9951">3_4_3_Studiedispensation</text><!--class Studiedispensation--><g id="elem_Studiedispensation"><rect codeLine="2439" fill="#F1F1F1" height="32" id="Studiedispensation" rx="2.5" ry="2.5" style="stroke:#181818;stroke-width:0.5;" width="165.7725" x="1436" y="777.2969"/><ellipse cx="1451" cy="793.2969" fill="#A9DCDF" rx="11" ry="11" style="stroke:#181818;stroke-width:1.0;"/><path d="M1451.1094,788.6406 L1449.9531,793.7188 L1452.2813,793.7188 L1451.1094,788.6406 Z M1449.625,786.4063 L1452.6094,786.4063 L1455.9688,798.7969 L1453.5156,798.7969 L1452.75,795.7344 L1449.4688,795.7344 L1448.7188,798.7969 L1446.2813,798.7969 L1449.625,786.4063 Z " fill="#000000"/><text fill="#000000" font-family="sans-serif" font-size="14" font-style="italic" lengthAdjust="spacing" textLength="133.7725" x="1465" y="798.1436">Studiedispensation</text></g><!--class Pr?vedispensation--><g id="elem_Pr&#248;vedispensation"><rect codeLine="2442" fill="#F1F1F1" height="56.2969" id="Pr&#248;vedispensation" rx="2.5" ry="2.5" style="stroke:#181818;stroke-width:0.5;" width="268.8398" x="674.5" y="279.2969"/><ellipse cx="740.272" cy="295.2969" fill="#ADD1B2" rx="11" ry="11" style="stroke:#181818;stroke-width:1.0;"/><path d="M743.2407,300.9375 Q742.6626,301.2344 742.022,301.375 Q741.3813,301.5313 740.6782,301.5313 Q738.1782,301.5313 736.8501,299.8906 Q735.5376,298.2344 735.5376,295.1094 Q735.5376,291.9844 736.8501,290.3281 Q738.1782,288.6719 740.6782,288.6719 Q741.3813,288.6719 742.022,288.8281 Q742.6782,288.9844 743.2407,289.2813 L743.2407,292 Q742.6157,291.4219 742.022,291.1563 Q741.4282,290.875 740.8032,290.875 Q739.4595,290.875 738.772,291.9531 Q738.0845,293.0156 738.0845,295.1094 Q738.0845,297.2031 738.772,298.2813 Q739.4595,299.3438 740.8032,299.3438 Q741.4282,299.3438 742.022,299.0781 Q742.6157,298.7969 743.2407,298.2188 L743.2407,300.9375 Z " fill="#000000"/><text fill="#000000" font-family="sans-serif" font-size="14" lengthAdjust="spacing" textLength="128.7959" x="760.772" y="300.1436">Pr&#248;vedispensation</text><line style="stroke:#181818;stroke-width:0.5;" x1="675.5" x2="942.3398" y1="311.2969" y2="311.2969"/><text fill="#000000" font-family="sans-serif" font-size="14" lengthAdjust="spacing" textLength="225.6748" x="680.5" y="328.292">pr&#248;vedispensationstype: Picklist</text><a href="1..1" target="_top" title="1..1" xlink:actuate="onRequest" xlink:href="1..1" xlink:show="new" xlink:title="1..1" xlink:type="simple"><text fill="#0000FF" font-family="sans-serif" font-size="14" lengthAdjust="spacing" text-decoration="underline" textLength="26.7148" x="910.625" y="328.292">1..1</text></a></g><!--class Studieforl?bsdispensation--><g id="elem_Studieforl&#248;bsdispensation"><rect codeLine="2446" fill="#F1F1F1" height="56.2969" id="Studieforl&#248;bsdispensation" rx="2.5" ry="2.5" style="stroke:#181818;stroke-width:0.5;" width="319.665" x="739" y="599.7969"/><ellipse cx="803.7534" cy="615.7969" fill="#ADD1B2" rx="11" ry="11" style="stroke:#181818;stroke-width:1.0;"/><path d="M806.7222,621.4375 Q806.144,621.7344 805.5034,621.875 Q804.8628,622.0313 804.1597,622.0313 Q801.6597,622.0313 800.3315,620.3906 Q799.019,618.7344 799.019,615.6094 Q799.019,612.4844 800.3315,610.8281 Q801.6597,609.1719 804.1597,609.1719 Q804.8628,609.1719 805.5034,609.3281 Q806.1597,609.4844 806.7222,609.7813 L806.7222,612.5 Q806.0972,611.9219 805.5034,611.6563 Q804.9097,611.375 804.2847,611.375 Q802.9409,611.375 802.2534,612.4531 Q801.5659,613.5156 801.5659,615.6094 Q801.5659,617.7031 802.2534,618.7813 Q802.9409,619.8438 804.2847,619.8438 Q804.9097,619.8438 805.5034,619.5781 Q806.0972,619.2969 806.7222,618.7188 L806.7222,621.4375 Z " fill="#000000"/><text fill="#000000" font-family="sans-serif" font-size="14" lengthAdjust="spacing" textLength="181.6582" x="824.2534" y="620.6436">Studieforl&#248;bsdispensation</text><line style="stroke:#181818;stroke-width:0.5;" x1="740" x2="1057.665" y1="631.7969" y2="631.7969"/><text fill="#000000" font-family="sans-serif" font-size="14" lengthAdjust="spacing" textLength="276.5" x="745" y="648.792">studieforl&#248;bsdispensationstype: Picklist</text><a href="1..1" target="_top" title="1..1" xlink:actuate="onRequest" xlink:href="1..1" xlink:show="new" xlink:title="1..1" xlink:type="simple"><text fill="#0000FF" font-family="sans-serif" font-size="14" lengthAdjust="spacing" text-decoration="underline" textLength="26.7148" x="1025.9502" y="648.792">1..1</text></a></g><!--class PermanentPr?vedispensation--><g id="elem_PermanentPr&#248;vedispensation"><rect codeLine="2450" fill="#F1F1F1" height="56.2969" id="PermanentPr&#248;vedispensation" rx="2.5" ry="2.5" style="stroke:#181818;stroke-width:0.5;" width="346.1611" x="7" y="599.7969"/><ellipse cx="72.9941" cy="615.7969" fill="#ADD1B2" rx="11" ry="11" style="stroke:#181818;stroke-width:1.0;"/><path d="M75.9629,621.4375 Q75.3848,621.7344 74.7441,621.875 Q74.1035,622.0313 73.4004,622.0313 Q70.9004,622.0313 69.5723,620.3906 Q68.2598,618.7344 68.2598,615.6094 Q68.2598,612.4844 69.5723,610.8281 Q70.9004,609.1719 73.4004,609.1719 Q74.1035,609.1719 74.7441,609.3281 Q75.4004,609.4844 75.9629,609.7813 L75.9629,612.5 Q75.3379,611.9219 74.7441,611.6563 Q74.1504,611.375 73.5254,611.375 Q72.1816,611.375 71.4941,612.4531 Q70.8066,613.5156 70.8066,615.6094 Q70.8066,617.7031 71.4941,618.7813 Q72.1816,619.8438 73.5254,619.8438 Q74.1504,619.8438 74.7441,619.5781 Q75.3379,619.2969 75.9629,618.7188 L75.9629,621.4375 Z " fill="#000000"/><text fill="#000000" font-family="sans-serif" font-size="14" lengthAdjust="spacing" textLength="205.6729" x="93.4941" y="620.6436">PermanentPr&#248;vedispensation</text><line style="stroke:#181818;stroke-width:0.5;" x1="8" x2="352.1611" y1="631.7969" y2="631.7969"/><text fill="#000000" font-family="sans-serif" font-size="14" lengthAdjust="spacing" textLength="302.9961" x="13" y="648.792">permanentpr&#248;vedispensationstype: Picklist</text><a href="1..1" target="_top" title="1..1" xlink:actuate="onRequest" xlink:href="1..1" xlink:show="new" xlink:title="1..1" xlink:type="simple"><text fill="#0000FF" font-family="sans-serif" font-size="14" lengthAdjust="spacing" text-decoration="underline" textLength="26.7148" x="320.4463" y="648.792">1..1</text></a></g><!--class Fagelementdispensation--><g id="elem_Fagelementdispensation"><rect codeLine="2454" fill="#F1F1F1" height="56.2969" id="Fagelementdispensation" rx="2.5" ry="2.5" style="stroke:#181818;stroke-width:0.5;" width="308.8574" x="2405.5" y="599.7969"/><ellipse cx="2469.4878" cy="615.7969" fill="#ADD1B2" rx="11" ry="11" style="stroke:#181818;stroke-width:1.0;"/><path d="M2472.4565,621.4375 Q2471.8784,621.7344 2471.2378,621.875 Q2470.5972,622.0313 2469.894,622.0313 Q2467.394,622.0313 2466.0659,620.3906 Q2464.7534,618.7344 2464.7534,615.6094 Q2464.7534,612.4844 2466.0659,610.8281 Q2467.394,609.1719 2469.894,609.1719 Q2470.5972,609.1719 2471.2378,609.3281 Q2471.894,609.4844 2472.4565,609.7813 L2472.4565,612.5 Q2471.8315,611.9219 2471.2378,611.6563 Q2470.644,611.375 2470.019,611.375 Q2468.6753,611.375 2467.9878,612.4531 Q2467.3003,613.5156 2467.3003,615.6094 Q2467.3003,617.7031 2467.9878,618.7813 Q2468.6753,619.8438 2470.019,619.8438 Q2470.644,619.8438 2471.2378,619.5781 Q2471.8315,619.2969 2472.4565,618.7188 L2472.4565,621.4375 Z " fill="#000000"/><text fill="#000000" font-family="sans-serif" font-size="14" lengthAdjust="spacing" textLength="172.3818" x="2489.9878" y="620.6436">Fagelementdispensation</text><line style="stroke:#181818;stroke-width:0.5;" x1="2406.5" x2="2713.3574" y1="631.7969" y2="631.7969"/><text fill="#000000" font-family="sans-serif" font-size="14" lengthAdjust="spacing" textLength="265.6924" x="2411.5" y="648.792">fagelementdispensationstype: Picklist</text><a href="1..1" target="_top" title="1..1" xlink:actuate="onRequest" xlink:href="1..1" xlink:show="new" xlink:title="1..1" xlink:type="simple"><text fill="#0000FF" font-family="sans-serif" font-size="14" lengthAdjust="spacing" text-decoration="underline" textLength="26.7148" x="2681.6426" y="648.792">1..1</text></a></g><!--class StudiedispensationsAns?gning--><g id="elem_StudiedispensationsAns&#248;gning"><rect codeLine="2458" fill="#F1F1F1" height="121.4844" id="StudiedispensationsAns&#248;gning" rx="2.5" ry="2.5" style="stroke:#181818;stroke-width:0.5;" width="380.1973" x="1741" y="567.2969"/><ellipse cx="1819.4561" cy="583.2969" fill="#ADD1B2" rx="11" ry="11" style="stroke:#181818;stroke-width:1.0;"/><path d="M1822.4248,588.9375 Q1821.8467,589.2344 1821.2061,589.375 Q1820.5654,589.5313 1819.8623,589.5313 Q1817.3623,589.5313 1816.0342,587.8906 Q1814.7217,586.2344 1814.7217,583.1094 Q1814.7217,579.9844 1816.0342,578.3281 Q1817.3623,576.6719 1819.8623,576.6719 Q1820.5654,576.6719 1821.2061,576.8281 Q1821.8623,576.9844 1822.4248,577.2813 L1822.4248,580 Q1821.7998,579.4219 1821.2061,579.1563 Q1820.6123,578.875 1819.9873,578.875 Q1818.6436,578.875 1817.9561,579.9531 Q1817.2686,581.0156 1817.2686,583.1094 Q1817.2686,585.2031 1817.9561,586.2813 Q1818.6436,587.3438 1819.9873,587.3438 Q1820.6123,587.3438 1821.2061,587.0781 Q1821.7998,586.7969 1822.4248,586.2188 L1822.4248,588.9375 Z " fill="#000000"/><text fill="#000000" font-family="sans-serif" font-size="14" lengthAdjust="spacing" textLength="214.7852" x="1839.9561" y="588.1436">StudiedispensationsAns&#248;gning</text><line style="stroke:#181818;stroke-width:0.5;" x1="1742" x2="2120.1973" y1="599.2969" y2="599.2969"/><text fill="#000000" font-family="sans-serif" font-size="14" lengthAdjust="spacing" textLength="197.4082" x="1747" y="616.292">godkendelsesstatus: Picklist</text><a href="1..1" target="_top" title="1..1" xlink:actuate="onRequest" xlink:href="1..1" xlink:show="new" xlink:title="1..1" xlink:type="simple"><text fill="#0000FF" font-family="sans-serif" font-size="14" lengthAdjust="spacing" text-decoration="underline" textLength="26.7148" x="1948.8584" y="616.292">1..1</text></a><text fill="#000000" font-family="sans-serif" font-size="14" lengthAdjust="spacing" textLength="220.9648" x="1747" y="632.5889">afvisnings&#229;rsagsbegrundelse: ?</text><a href="1..1" target="_top" title="1..1" xlink:actuate="onRequest" xlink:href="1..1" xlink:show="new" xlink:title="1..1" xlink:type="simple"><text fill="#0000FF" font-family="sans-serif" font-size="14" lengthAdjust="spacing" text-decoration="underline" textLength="26.7148" x="1972.415" y="632.5889">1..1</text></a><text fill="#000000" font-family="sans-serif" font-size="14" lengthAdjust="spacing" textLength="337.0322" x="1747" y="648.8857">dispensationsans&#248;gningsbeskrivelse: TekstLong</text><a href="1..1" target="_top" title="1..1" xlink:actuate="onRequest" xlink:href="1..1" xlink:show="new" xlink:title="1..1" xlink:type="simple"><text fill="#0000FF" font-family="sans-serif" font-size="14" lengthAdjust="spacing" text-decoration="underline" textLength="26.7148" x="2088.4824" y="648.8857">1..1</text></a><text fill="#000000" font-family="sans-serif" font-size="14" lengthAdjust="spacing" textLength="35.916" x="1747" y="665.1826">&#171;BK&#187;</text><text fill="#000000" font-family="sans-serif" font-size="14" lengthAdjust="spacing" textLength="216.8975" x="1747" y="681.4795">/ans&#248;gningsnummer: IgnoreBK</text><a href="1..1" target="_top" title="1..1" xlink:actuate="onRequest" xlink:href="1..1" xlink:show="new" xlink:title="1..1" xlink:type="simple"><text fill="#0000FF" font-family="sans-serif" font-size="14" lengthAdjust="spacing" text-decoration="underline" textLength="26.7148" x="1968.3477" y="681.4795">1..1</text></a></g><!--class Indskrivningsdispensation--><g id="elem_Indskrivningsdispensation"><rect codeLine="2466" fill="#F1F1F1" height="32" id="Indskrivningsdispensation" rx="2.5" ry="2.5" style="stroke:#181818;stroke-width:0.5;" width="214.1709" x="1492" y="611.7969"/><ellipse cx="1507" cy="627.7969" fill="#ADD1B2" rx="11" ry="11" style="stroke:#181818;stroke-width:1.0;"/><path d="M1509.9688,633.4375 Q1509.3906,633.7344 1508.75,633.875 Q1508.1094,634.0313 1507.4063,634.0313 Q1504.9063,634.0313 1503.5781,632.3906 Q1502.2656,630.7344 1502.2656,627.6094 Q1502.2656,624.4844 1503.5781,622.8281 Q1504.9063,621.1719 1507.4063,621.1719 Q1508.1094,621.1719 1508.75,621.3281 Q1509.4063,621.4844 1509.9688,621.7813 L1509.9688,624.5 Q1509.3438,623.9219 1508.75,623.6563 Q1508.1563,623.375 1507.5313,623.375 Q1506.1875,623.375 1505.5,624.4531 Q1504.8125,625.5156 1504.8125,627.6094 Q1504.8125,629.7031 1505.5,630.7813 Q1506.1875,631.8438 1507.5313,631.8438 Q1508.1563,631.8438 1508.75,631.5781 Q1509.3438,631.2969 1509.9688,630.7188 L1509.9688,633.4375 Z " fill="#000000"/><text fill="#000000" font-family="sans-serif" font-size="14" lengthAdjust="spacing" textLength="182.1709" x="1521" y="632.6436">Indskrivningsdispensation</text></g><!--class FagelementdispensationstypeEnum--><g id="elem_FagelementdispensationstypeEnum"><rect codeLine="2469" fill="#90EE90" height="146.0469" id="FagelementdispensationstypeEnum" rx="2.5" ry="2.5" style="stroke:#181818;stroke-width:0.5;" width="283.1797" x="2749.5" y="554.7969"/><ellipse cx="2764.5" cy="574.9297" fill="#EB937F" rx="11" ry="11" style="stroke:#181818;stroke-width:1.0;"/><path d="M2768.6094,580.9297 L2760.8906,580.9297 L2760.8906,568.5391 L2768.6094,568.5391 L2768.6094,570.6953 L2763.3438,570.6953 L2763.3438,573.3672 L2768.1094,573.3672 L2768.1094,575.5234 L2763.3438,575.5234 L2763.3438,578.7734 L2768.6094,578.7734 L2768.6094,580.9297 Z " fill="#000000"/><text fill="#000000" font-family="sans-serif" font-size="12" font-style="italic" lengthAdjust="spacing" textLength="49.0957" x="2879.542" y="570.9355">&#171;enum&#187;</text><text fill="#000000" font-family="sans-serif" font-size="14" lengthAdjust="spacing" textLength="251.1797" x="2778.5" y="586.7607">FagelementdispensationstypeEnum</text><line style="stroke:#181818;stroke-width:0.5;" x1="2750.5" x2="3031.6797" y1="595.0625" y2="595.0625"/><text fill="#000000" font-family="sans-serif" font-size="14" lengthAdjust="spacing" textLength="186.9629" x="2755.5" y="612.0576">AfvigelseFagelementemne</text><text fill="#000000" font-family="sans-serif" font-size="14" lengthAdjust="spacing" textLength="146.5762" x="2755.5" y="628.3545">AfvigelseFagligeKrav</text><text fill="#000000" font-family="sans-serif" font-size="14" lengthAdjust="spacing" textLength="236.5645" x="2755.5" y="644.6514">FritagelseObligatoriskFagelement</text><text fill="#000000" font-family="sans-serif" font-size="14" lengthAdjust="spacing" textLength="200.1494" x="2755.5" y="660.9482">OverskredetFrameldingsfrist</text><text fill="#000000" font-family="sans-serif" font-size="14" lengthAdjust="spacing" textLength="194.0928" x="2755.5" y="677.2451">OverskredetTilmeldingsfrist</text><text fill="#000000" font-family="sans-serif" font-size="14" lengthAdjust="spacing" textLength="201.5508" x="2755.5" y="693.542">FritagelseTilmeldingsbinding</text></g><!--class PermanentPr?vedispensationstypeEnum--><g id="elem_PermanentPr&#248;vedispensationstypeEnum"><rect codeLine="2478" fill="#90EE90" height="162.3438" id="PermanentPr&#248;vedispensationstypeEnum" rx="2.5" ry="2.5" style="stroke:#181818;stroke-width:0.5;" width="316.4707" x="388" y="546.7969"/><ellipse cx="403" cy="566.9297" fill="#EB937F" rx="11" ry="11" style="stroke:#181818;stroke-width:1.0;"/><path d="M407.1094,572.9297 L399.3906,572.9297 L399.3906,560.5391 L407.1094,560.5391 L407.1094,562.6953 L401.8438,562.6953 L401.8438,565.3672 L406.6094,565.3672 L406.6094,567.5234 L401.8438,567.5234 L401.8438,570.7734 L407.1094,570.7734 L407.1094,572.9297 Z " fill="#000000"/><text fill="#000000" font-family="sans-serif" font-size="12" font-style="italic" lengthAdjust="spacing" textLength="49.0957" x="534.6875" y="562.9355">&#171;enum&#187;</text><text fill="#000000" font-family="sans-serif" font-size="14" lengthAdjust="spacing" textLength="284.4707" x="417" y="578.7607">PermanentPr&#248;vedispensationstypeEnum</text><line style="stroke:#181818;stroke-width:0.5;" x1="389" x2="703.4707" y1="587.0625" y2="587.0625"/><text fill="#000000" font-family="sans-serif" font-size="14" lengthAdjust="spacing" textLength="191.0713" x="394" y="604.0576">S&#230;rligeHj&#230;lpemidlerTilladt</text><text fill="#000000" font-family="sans-serif" font-size="14" lengthAdjust="spacing" textLength="168.3555" x="394" y="620.3545">&#198;ndretForberedelsestid</text><text fill="#000000" font-family="sans-serif" font-size="14" lengthAdjust="spacing" textLength="213.5205" x="394" y="636.6514">&#198;ndretPr&#248;vebegivenhedsform</text><text fill="#000000" font-family="sans-serif" font-size="14" lengthAdjust="spacing" textLength="109.1836" x="394" y="652.9482">&#198;ndretPr&#248;vetid</text><text fill="#000000" font-family="sans-serif" font-size="14" lengthAdjust="spacing" textLength="197.5859" x="394" y="669.2451">IndividuellePraktiskeForhold</text><text fill="#000000" font-family="sans-serif" font-size="14" lengthAdjust="spacing" textLength="107.8779" x="394" y="685.542">IndividuelPr&#248;ve</text><text fill="#000000" font-family="sans-serif" font-size="14" lengthAdjust="spacing" textLength="46.4502" x="394" y="701.8389">&#216;vrige</text></g><!--class Studieforl?bsdispensationstypeEnum--><g id="elem_Studieforl&#248;bsdispensationstypeEnum"><rect codeLine="2488" fill="#90EE90" height="178.6406" id="Studieforl&#248;bsdispensationstypeEnum" rx="2.5" ry="2.5" style="stroke:#181818;stroke-width:0.5;" width="292.4561" x="1094" y="538.2969"/><ellipse cx="1109" cy="558.4297" fill="#EB937F" rx="11" ry="11" style="stroke:#181818;stroke-width:1.0;"/><path d="M1113.1094,564.4297 L1105.3906,564.4297 L1105.3906,552.0391 L1113.1094,552.0391 L1113.1094,554.1953 L1107.8438,554.1953 L1107.8438,556.8672 L1112.6094,556.8672 L1112.6094,559.0234 L1107.8438,559.0234 L1107.8438,562.2734 L1113.1094,562.2734 L1113.1094,564.4297 Z " fill="#000000"/><text fill="#000000" font-family="sans-serif" font-size="12" font-style="italic" lengthAdjust="spacing" textLength="49.0957" x="1228.6802" y="554.4355">&#171;enum&#187;</text><text fill="#000000" font-family="sans-serif" font-size="14" lengthAdjust="spacing" textLength="260.4561" x="1123" y="570.2607">Studieforl&#248;bsdispensationstypeEnum</text><line style="stroke:#181818;stroke-width:0.5;" x1="1095" x2="1385.4561" y1="578.5625" y2="578.5625"/><text fill="#000000" font-family="sans-serif" font-size="14" lengthAdjust="spacing" textLength="107.543" x="1100" y="595.5576">ECTS-pointkrav</text><text fill="#000000" font-family="sans-serif" font-size="14" lengthAdjust="spacing" textLength="171.4111" x="1100" y="611.8545">Forl&#230;ngelseStudieforl&#248;b</text><text fill="#000000" font-family="sans-serif" font-size="14" lengthAdjust="spacing" textLength="185.0693" x="1100" y="628.1514">F&#248;rste&#229;rspr&#248;veUds&#230;ttelse</text><text fill="#000000" font-family="sans-serif" font-size="14" lengthAdjust="spacing" textLength="204.21" x="1100" y="644.4482">Studiestartspr&#248;veUds&#230;ttelse</text><text fill="#000000" font-family="sans-serif" font-size="14" lengthAdjust="spacing" textLength="114.9873" x="1100" y="660.7451">SUaktivitetskrav</text><text fill="#000000" font-family="sans-serif" font-size="14" lengthAdjust="spacing" textLength="186.9834" x="1100" y="677.042">TilladelseEkstraECTS-point</text><text fill="#000000" font-family="sans-serif" font-size="14" lengthAdjust="spacing" textLength="111.0293" x="1100" y="693.3389">Tilmeldingskrav</text><text fill="#000000" font-family="sans-serif" font-size="14" lengthAdjust="spacing" textLength="246.1963" x="1100" y="709.6357">TilmeldingTilKandidatfagelementer</text></g><!--class Pr?veDispensationstypeEnum--><g id="elem_Pr&#248;veDispensationstypeEnum"><rect codeLine="2499" fill="#90EE90" height="341.6094" id="Pr&#248;veDispensationstypeEnum" rx="2.5" ry="2.5" style="stroke:#181818;stroke-width:0.5;" width="241.4873" x="978.5" y="136.2969"/><ellipse cx="993.5" cy="156.4297" fill="#EB937F" rx="11" ry="11" style="stroke:#181818;stroke-width:1.0;"/><path d="M997.6094,162.4297 L989.8906,162.4297 L989.8906,150.0391 L997.6094,150.0391 L997.6094,152.1953 L992.3438,152.1953 L992.3438,154.8672 L997.1094,154.8672 L997.1094,157.0234 L992.3438,157.0234 L992.3438,160.2734 L997.6094,160.2734 L997.6094,162.4297 Z " fill="#000000"/><text fill="#000000" font-family="sans-serif" font-size="12" font-style="italic" lengthAdjust="spacing" textLength="49.0957" x="1087.6958" y="152.4355">&#171;enum&#187;</text><text fill="#000000" font-family="sans-serif" font-size="14" lengthAdjust="spacing" textLength="209.4873" x="1007.5" y="168.2607">Pr&#248;veDispensationstypeEnum</text><line style="stroke:#181818;stroke-width:0.5;" x1="979.5" x2="1218.9873" y1="176.5625" y2="176.5625"/><text fill="#000000" font-family="sans-serif" font-size="14" lengthAdjust="spacing" textLength="169.9414" x="984.5" y="193.5576">AfvigelseAfleveringsfrist</text><text fill="#000000" font-family="sans-serif" font-size="14" lengthAdjust="spacing" textLength="229.2842" x="984.5" y="209.8545">AfvigelseEksamensforuds&#230;tning</text><text fill="#000000" font-family="sans-serif" font-size="14" lengthAdjust="spacing" textLength="177.1123" x="984.5" y="226.1514">AfvigelseGruppest&#248;rrelse</text><text fill="#000000" font-family="sans-serif" font-size="14" lengthAdjust="spacing" textLength="143.377" x="984.5" y="242.4482">AfvigelsePr&#248;veemne</text><text fill="#000000" font-family="sans-serif" font-size="14" lengthAdjust="spacing" textLength="135.6865" x="984.5" y="258.7451">AfvigelseSprogkrav</text><text fill="#000000" font-family="sans-serif" font-size="14" lengthAdjust="spacing" textLength="127.7295" x="984.5" y="275.042">EkstraPr&#248;vefors&#248;g</text><text fill="#000000" font-family="sans-serif" font-size="14" lengthAdjust="spacing" textLength="109.1836" x="984.5" y="291.3389">&#198;ndretPr&#248;vetid</text><text fill="#000000" font-family="sans-serif" font-size="14" lengthAdjust="spacing" textLength="107.8779" x="984.5" y="307.6357">IndividuelPr&#248;ve</text><text fill="#000000" font-family="sans-serif" font-size="14" lengthAdjust="spacing" textLength="200.1494" x="984.5" y="323.9326">OverskredetFrameldingsfrist</text><text fill="#000000" font-family="sans-serif" font-size="14" lengthAdjust="spacing" textLength="194.0928" x="984.5" y="340.2295">OverskredetTilmeldingsfrist</text><text fill="#000000" font-family="sans-serif" font-size="14" lengthAdjust="spacing" textLength="191.0713" x="984.5" y="356.5264">S&#230;rligeHj&#230;lpemidlerTilladt</text><text fill="#000000" font-family="sans-serif" font-size="14" lengthAdjust="spacing" textLength="182.793" x="984.5" y="372.8232">&#198;ndretBed&#248;mmelsesform</text><text fill="#000000" font-family="sans-serif" font-size="14" lengthAdjust="spacing" textLength="133.3281" x="984.5" y="389.1201">&#198;ndretCensurform</text><text fill="#000000" font-family="sans-serif" font-size="14" lengthAdjust="spacing" textLength="168.3555" x="984.5" y="405.417">&#198;ndretForberedelsestid</text><text fill="#000000" font-family="sans-serif" font-size="14" lengthAdjust="spacing" textLength="166.7969" x="984.5" y="421.7139">&#198;ndretOpgavest&#248;rrelse</text><text fill="#000000" font-family="sans-serif" font-size="14" lengthAdjust="spacing" textLength="213.5205" x="984.5" y="438.0107">&#198;ndretPr&#248;vebegivenhedsform</text><text fill="#000000" font-family="sans-serif" font-size="14" lengthAdjust="spacing" textLength="197.5859" x="984.5" y="454.3076">IndividuellePraktiskeForhold</text><text fill="#000000" font-family="sans-serif" font-size="14" lengthAdjust="spacing" textLength="46.4502" x="984.5" y="470.6045">&#216;vrige</text></g><!--class PersonligtStudieforl?b--><g id="elem_PersonligtStudieforl&#248;b"><rect fill="#F1F1F1" height="32" id="PersonligtStudieforl&#248;b" rx="2.5" ry="2.5" style="stroke:#181818;stroke-width:0.5;" width="186.9297" x="805.5" y="777.2969"/><ellipse cx="820.5" cy="793.2969" fill="#ADD1B2" rx="11" ry="11" style="stroke:#181818;stroke-width:1.0;"/><path d="M823.4688,798.9375 Q822.8906,799.2344 822.25,799.375 Q821.6094,799.5313 820.9063,799.5313 Q818.4063,799.5313 817.0781,797.8906 Q815.7656,796.2344 815.7656,793.1094 Q815.7656,789.9844 817.0781,788.3281 Q818.4063,786.6719 820.9063,786.6719 Q821.6094,786.6719 822.25,786.8281 Q822.9063,786.9844 823.4688,787.2813 L823.4688,790 Q822.8438,789.4219 822.25,789.1563 Q821.6563,788.875 821.0313,788.875 Q819.6875,788.875 819,789.9531 Q818.3125,791.0156 818.3125,793.1094 Q818.3125,795.2031 819,796.2813 Q819.6875,797.3438 821.0313,797.3438 Q821.6563,797.3438 822.25,797.0781 Q822.8438,796.7969 823.4688,796.2188 L823.4688,798.9375 Z " fill="#000000"/><text fill="#000000" font-family="sans-serif" font-size="14" lengthAdjust="spacing" textLength="154.9297" x="834.5" y="798.1436">PersonligtStudieforl&#248;b</text></g><!--class Pr?vetilmelding--><g id="elem_Pr&#248;vetilmelding"><rect fill="#F1F1F1" height="32" id="Pr&#248;vetilmelding" rx="2.5" ry="2.5" style="stroke:#181818;stroke-width:0.5;" width="141.6074" x="738" y="44.2969"/><ellipse cx="753" cy="60.2969" fill="#ADD1B2" rx="11" ry="11" style="stroke:#181818;stroke-width:1.0;"/><path d="M755.9688,65.9375 Q755.3906,66.2344 754.75,66.375 Q754.1094,66.5313 753.4063,66.5313 Q750.9063,66.5313 749.5781,64.8906 Q748.2656,63.2344 748.2656,60.1094 Q748.2656,56.9844 749.5781,55.3281 Q750.9063,53.6719 753.4063,53.6719 Q754.1094,53.6719 754.75,53.8281 Q755.4063,53.9844 755.9688,54.2813 L755.9688,57 Q755.3438,56.4219 754.75,56.1563 Q754.1563,55.875 753.5313,55.875 Q752.1875,55.875 751.5,56.9531 Q750.8125,58.0156 750.8125,60.1094 Q750.8125,62.2031 751.5,63.2813 Q752.1875,64.3438 753.5313,64.3438 Q754.1563,64.3438 754.75,64.0781 Q755.3438,63.7969 755.9688,63.2188 L755.9688,65.9375 Z " fill="#000000"/><text fill="#000000" font-family="sans-serif" font-size="14" lengthAdjust="spacing" textLength="109.6074" x="767" y="65.1436">Pr&#248;vetilmelding</text></g><!--class PersonligtFagelement--><g id="elem_PersonligtFagelement"><rect fill="#F1F1F1" height="32" id="PersonligtFagelement" rx="2.5" ry="2.5" style="stroke:#181818;stroke-width:0.5;" width="184.9473" x="2339.5" y="777.2969"/><ellipse cx="2354.5" cy="793.2969" fill="#ADD1B2" rx="11" ry="11" style="stroke:#181818;stroke-width:1.0;"/><path d="M2357.4688,798.9375 Q2356.8906,799.2344 2356.25,799.375 Q2355.6094,799.5313 2354.9063,799.5313 Q2352.4063,799.5313 2351.0781,797.8906 Q2349.7656,796.2344 2349.7656,793.1094 Q2349.7656,789.9844 2351.0781,788.3281 Q2352.4063,786.6719 2354.9063,786.6719 Q2355.6094,786.6719 2356.25,786.8281 Q2356.9063,786.9844 2357.4688,787.2813 L2357.4688,790 Q2356.8438,789.4219 2356.25,789.1563 Q2355.6563,788.875 2355.0313,788.875 Q2353.6875,788.875 2353,789.9531 Q2352.3125,791.0156 2352.3125,793.1094 Q2352.3125,795.2031 2353,796.2813 Q2353.6875,797.3438 2355.0313,797.3438 Q2355.6563,797.3438 2356.25,797.0781 Q2356.8438,796.7969 2357.4688,796.2188 L2357.4688,798.9375 Z " fill="#000000"/><text fill="#000000" font-family="sans-serif" font-size="14" lengthAdjust="spacing" textLength="152.9473" x="2368.5" y="798.1436">PersonligtFagelement</text></g><!--class PersonligFagelementgruppering--><g id="elem_PersonligFagelementgruppering"><rect fill="#F1F1F1" height="32" id="PersonligFagelementgruppering" rx="2.5" ry="2.5" style="stroke:#181818;stroke-width:0.5;" width="256.7656" x="2559.5" y="777.2969"/><ellipse cx="2574.5" cy="793.2969" fill="#ADD1B2" rx="11" ry="11" style="stroke:#181818;stroke-width:1.0;"/><path d="M2577.4688,798.9375 Q2576.8906,799.2344 2576.25,799.375 Q2575.6094,799.5313 2574.9063,799.5313 Q2572.4063,799.5313 2571.0781,797.8906 Q2569.7656,796.2344 2569.7656,793.1094 Q2569.7656,789.9844 2571.0781,788.3281 Q2572.4063,786.6719 2574.9063,786.6719 Q2575.6094,786.6719 2576.25,786.8281 Q2576.9063,786.9844 2577.4688,787.2813 L2577.4688,790 Q2576.8438,789.4219 2576.25,789.1563 Q2575.6563,788.875 2575.0313,788.875 Q2573.6875,788.875 2573,789.9531 Q2572.3125,791.0156 2572.3125,793.1094 Q2572.3125,795.2031 2573,796.2813 Q2573.6875,797.3438 2575.0313,797.3438 Q2575.6563,797.3438 2576.25,797.0781 Q2576.8438,796.7969 2577.4688,796.2188 L2577.4688,798.9375 Z " fill="#000000"/><text fill="#000000" font-family="sans-serif" font-size="14" lengthAdjust="spacing" textLength="224.7656" x="2588.5" y="798.1436">PersonligFagelementgruppering</text></g><!--class Indskrivning--><g id="elem_Indskrivning"><rect fill="#F1F1F1" height="32" id="Indskrivning" rx="2.5" ry="2.5" style="stroke:#181818;stroke-width:0.5;" width="117.7432" x="1872" y="777.2969"/><ellipse cx="1887" cy="793.2969" fill="#ADD1B2" rx="11" ry="11" style="stroke:#181818;stroke-width:1.0;"/><path d="M1889.9688,798.9375 Q1889.3906,799.2344 1888.75,799.375 Q1888.1094,799.5313 1887.4063,799.5313 Q1884.9063,799.5313 1883.5781,797.8906 Q1882.2656,796.2344 1882.2656,793.1094 Q1882.2656,789.9844 1883.5781,788.3281 Q1884.9063,786.6719 1887.4063,786.6719 Q1888.1094,786.6719 1888.75,786.8281 Q1889.4063,786.9844 1889.9688,787.2813 L1889.9688,790 Q1889.3438,789.4219 1888.75,789.1563 Q1888.1563,788.875 1887.5313,788.875 Q1886.1875,788.875 1885.5,789.9531 Q1884.8125,791.0156 1884.8125,793.1094 Q1884.8125,795.2031 1885.5,796.2813 Q1886.1875,797.3438 1887.5313,797.3438 Q1888.1563,797.3438 1888.75,797.0781 Q1889.3438,796.7969 1889.9688,796.2188 L1889.9688,798.9375 Z " fill="#000000"/><text fill="#000000" font-family="sans-serif" font-size="14" lengthAdjust="spacing" textLength="85.7432" x="1901" y="798.1436">Indskrivning</text></g><!--class Studerende--><g id="elem_Studerende"><rect fill="#F1F1F1" height="32" id="Studerende" rx="2.5" ry="2.5" style="stroke:#181818;stroke-width:0.5;" width="113.4912" x="123.5" y="777.2969"/><ellipse cx="138.5" cy="793.2969" fill="#ADD1B2" rx="11" ry="11" style="stroke:#181818;stroke-width:1.0;"/><path d="M141.4688,798.9375 Q140.8906,799.2344 140.25,799.375 Q139.6094,799.5313 138.9063,799.5313 Q136.4063,799.5313 135.0781,797.8906 Q133.7656,796.2344 133.7656,793.1094 Q133.7656,789.9844 135.0781,788.3281 Q136.4063,786.6719 138.9063,786.6719 Q139.6094,786.6719 140.25,786.8281 Q140.9063,786.9844 141.4688,787.2813 L141.4688,790 Q140.8438,789.4219 140.25,789.1563 Q139.6563,788.875 139.0313,788.875 Q137.6875,788.875 137,789.9531 Q136.3125,791.0156 136.3125,793.1094 Q136.3125,795.2031 137,796.2813 Q137.6875,797.3438 139.0313,797.3438 Q139.6563,797.3438 140.25,797.0781 Q140.8438,796.7969 141.4688,796.2188 L141.4688,798.9375 Z " fill="#000000"/><text fill="#000000" font-family="sans-serif" font-size="14" lengthAdjust="spacing" textLength="81.4912" x="152.5" y="798.1436">Studerende</text></g><!--class GodkendelsesstatusEnum--><g id="elem_GodkendelsesstatusEnum"><rect fill="#F1F1F1" height="32" id="GodkendelsesstatusEnum" rx="2.5" ry="2.5" style="stroke:#181818;stroke-width:0.5;" width="213.7334" x="2156" y="611.7969"/><ellipse cx="2171" cy="627.7969" fill="#ADD1B2" rx="11" ry="11" style="stroke:#181818;stroke-width:1.0;"/><path d="M2173.9688,633.4375 Q2173.3906,633.7344 2172.75,633.875 Q2172.1094,634.0313 2171.4063,634.0313 Q2168.9063,634.0313 2167.5781,632.3906 Q2166.2656,630.7344 2166.2656,627.6094 Q2166.2656,624.4844 2167.5781,622.8281 Q2168.9063,621.1719 2171.4063,621.1719 Q2172.1094,621.1719 2172.75,621.3281 Q2173.4063,621.4844 2173.9688,621.7813 L2173.9688,624.5 Q2173.3438,623.9219 2172.75,623.6563 Q2172.1563,623.375 2171.5313,623.375 Q2170.1875,623.375 2169.5,624.4531 Q2168.8125,625.5156 2168.8125,627.6094 Q2168.8125,629.7031 2169.5,630.7813 Q2170.1875,631.8438 2171.5313,631.8438 Q2172.1563,631.8438 2172.75,631.5781 Q2173.3438,631.2969 2173.9688,630.7188 L2173.9688,633.4375 Z " fill="#000000"/><text fill="#000000" font-family="sans-serif" font-size="14" lengthAdjust="spacing" textLength="181.7334" x="2185" y="632.6436">GodkendelsesstatusEnum</text></g><!--link Studieforl?bsdispensation to PersonligtStudieforl?b--><g id="link_Studieforl&#248;bsdispensation_PersonligtStudieforl&#248;b"><path codeLine="2520" d="M899,655.8669 C899,690.7269 899,749.0269 899,777.1469 " fill="none" id="Studieforl&#248;bsdispensation-PersonligtStudieforl&#248;b" style="stroke:#181818;stroke-width:1.0;"/><text fill="#000000" font-family="sans-serif" font-size="13" lengthAdjust="spacing" textLength="23.0356" x="873.3835" y="676.1404">0..*</text><text fill="#000000" font-family="sans-serif" font-size="13" lengthAdjust="spacing" textLength="8.271" x="889.6837" y="766.1069">1</text></g><!--link Pr?vetilmelding to Pr?vedispensation--><g id="link_Pr&#248;vetilmelding_Pr&#248;vedispensation"><path codeLine="2521" d="M809,76.5069 C809,117.7169 809,226.9269 809,278.9669 " fill="none" id="Pr&#248;vetilmelding-Pr&#248;vedispensation" style="stroke:#181818;stroke-width:1.0;"/><text fill="#000000" font-family="sans-serif" font-size="13" lengthAdjust="spacing" textLength="8.271" x="799.7849" y="96.4497">1</text><text fill="#000000" font-family="sans-serif" font-size="13" lengthAdjust="spacing" textLength="23.0356" x="783.5058" y="268.178">0..*</text></g><!--link Pr?vedispensation to PermanentPr?vedispensation--><g id="link_Pr&#248;vedispensation_PermanentPr&#248;vedispensation"><path codeLine="2522" d="M674.45,307.2969 C489.67,307.2969 180,307.2969 180,307.2969 C180,307.2969 180,521.4269 180,599.6369 " fill="none" id="Pr&#248;vedispensation-PermanentPr&#248;vedispensation" style="stroke:#181818;stroke-width:1.0;"/><text fill="#000000" font-family="sans-serif" font-size="13" lengthAdjust="spacing" textLength="72.96" x="208.06" y="303.3638">udm&#248;ntes i</text><text fill="#000000" font-family="sans-serif" font-size="13" lengthAdjust="spacing" textLength="23.0356" x="643.4682" y="303.9491">0..*</text><text fill="#000000" font-family="sans-serif" font-size="13" lengthAdjust="spacing" textLength="24.8066" x="153.4456" y="588.8852">0..1</text></g><!--link Fagelementdispensation to PersonligtFagelement--><g id="link_Fagelementdispensation_PersonligtFagelement"><path codeLine="2523" d="M2484.83,655.8669 C2484.83,690.7269 2484.83,749.0269 2484.83,777.1469 " fill="none" id="Fagelementdispensation-PersonligtFagelement" style="stroke:#181818;stroke-width:1.0;"/><text fill="#000000" font-family="sans-serif" font-size="13" lengthAdjust="spacing" textLength="23.0356" x="2441.8082" y="676.1404">0..*</text><text fill="#000000" font-family="sans-serif" font-size="13" lengthAdjust="spacing" textLength="24.8066" x="2475.013" y="766.1069">0..1</text></g><!--link Fagelementdispensation to PersonligFagelementgruppering--><g id="link_Fagelementdispensation_PersonligFagelementgruppering"><path codeLine="2524" d="M2637,655.8669 C2637,690.7269 2637,749.0269 2637,777.1469 " fill="none" id="Fagelementdispensation-PersonligFagelementgruppering" style="stroke:#181818;stroke-width:1.0;"/><text fill="#000000" font-family="sans-serif" font-size="13" lengthAdjust="spacing" textLength="23.0356" x="2629.1675" y="676.1404">0..*</text><text fill="#000000" font-family="sans-serif" font-size="13" lengthAdjust="spacing" textLength="24.8066" x="2591.5227" y="766.1069">0..1</text></g><!--link StudiedispensationsAns?gning to Indskrivning--><g id="link_StudiedispensationsAns&#248;gning_Indskrivning"><path codeLine="2525" d="M1931,688.4869 C1931,720.2169 1931,756.6269 1931,777.0969 " fill="none" id="StudiedispensationsAns&#248;gning-Indskrivning" style="stroke:#181818;stroke-width:1.0;"/><text fill="#000000" font-family="sans-serif" font-size="13" lengthAdjust="spacing" textLength="23.0356" x="1906.5886" y="708.843">0..*</text><text fill="#000000" font-family="sans-serif" font-size="13" lengthAdjust="spacing" textLength="8.271" x="1921.7624" y="766.3351">1</text></g><!--link StudiedispensationsAns?gning to Studiedispensation--><g id="link_StudiedispensationsAns&#248;gning_Studiedispensation"><path codeLine="2526" d="M1740.97,666.2969 C1644.32,666.2969 1547,666.2969 1547,666.2969 C1547,666.2969 1547,743.0369 1547,777.2169 " fill="none" id="StudiedispensationsAns&#248;gning-Studiedispensation" style="stroke:#181818;stroke-width:1.0;"/><text fill="#000000" font-family="sans-serif" font-size="13" lengthAdjust="spacing" textLength="8.271" x="1724.7859" y="664.6642">1</text><text fill="#000000" font-family="sans-serif" font-size="13" lengthAdjust="spacing" textLength="24.8066" x="1528.6777" y="766.201">0..1</text></g><!--link PermanentPr?vedispensation to Studerende--><g id="link_PermanentPr&#248;vedispensation_Studerende"><path codeLine="2527" d="M180,655.8669 C180,690.7269 180,749.0269 180,777.1469 " fill="none" id="PermanentPr&#248;vedispensation-Studerende" style="stroke:#181818;stroke-width:1.0;"/><text fill="#000000" font-family="sans-serif" font-size="13" lengthAdjust="spacing" textLength="23.0356" x="154.3261" y="676.1404">0..*</text><text fill="#000000" font-family="sans-serif" font-size="13" lengthAdjust="spacing" textLength="8.271" x="170.5872" y="766.1069">1</text></g><!--link Pr?vedispensation to Studiedispensation--><g id="link_Pr&#248;vedispensation_Studiedispensation"><path codeLine="2528" d="M841.25,335.6669 C841.25,391.0769 841.25,508.2969 841.25,508.2969 C841.25,508.2969 1473.33,508.2969 1473.33,508.2969 C1473.33,508.2969 1473.33,698.8669 1473.33,759.1569 " fill="none" id="Pr&#248;vedispensation-to-Studiedispensation" style="stroke:#181818;stroke-width:1.0;"/><polygon fill="none" points="1473.33,777.1569,1479.33,759.1569,1467.33,759.1569,1473.33,777.1569" style="stroke:#181818;stroke-width:1.0;"/></g><!--link Studieforl?bsdispensation to Studiedispensation--><g id="link_Studieforl&#248;bsdispensation_Studiedispensation"><path codeLine="2529" d="M1025.75,655.8669 C1025.75,703.0869 1025.75,793.2969 1025.75,793.2969 C1025.75,793.2969 1277.31,793.2969 1417.88,793.2969 " fill="none" id="Studieforl&#248;bsdispensation-to-Studiedispensation" style="stroke:#181818;stroke-width:1.0;"/><polygon fill="none" points="1435.88,793.2969,1417.88,787.2969,1417.88,799.2969,1435.88,793.2969" style="stroke:#181818;stroke-width:1.0;"/></g><!--link PermanentPr?vedispensation to Studiedispensation--><g id="link_PermanentPr&#248;vedispensation_Studiedispensation"><path codeLine="2530" d="M294.75,655.8169 C294.75,691.1369 294.75,747.2969 294.75,747.2969 C294.75,747.2969 1454.67,747.2969 1454.67,747.2969 C1454.67,747.2969 1454.67,745.9469 1454.67,759.2069 " fill="none" id="PermanentPr&#248;vedispensation-to-Studiedispensation" style="stroke:#181818;stroke-width:1.0;"/><polygon fill="none" points="1454.67,777.2069,1460.67,759.2069,1448.67,759.2069,1454.67,777.2069" style="stroke:#181818;stroke-width:1.0;"/></g><!--link Fagelementdispensation to Studiedispensation--><g id="link_Fagelementdispensation_Studiedispensation"><path codeLine="2531" d="M2445.17,656.0269 C2445.17,674.5269 2445.17,695.2969 2445.17,695.2969 C2445.17,695.2969 1574.5,695.2969 1574.5,695.2969 C1574.5,695.2969 1574.5,731.2769 1574.5,759.1169 " fill="none" id="Fagelementdispensation-to-Studiedispensation" style="stroke:#181818;stroke-width:1.0;"/><polygon fill="none" points="1574.5,777.1169,1580.5,759.1169,1568.5,759.1169,1574.5,777.1169" style="stroke:#181818;stroke-width:1.0;"/></g><!--link Indskrivningsdispensation to Studiedispensation--><g id="link_Indskrivningsdispensation_Studiedispensation"><path codeLine="2532" d="M1519.5,643.9669 C1519.5,675.5269 1519.5,727.0069 1519.5,758.8169 " fill="none" id="Indskrivningsdispensation-to-Studiedispensation" style="stroke:#181818;stroke-width:1.0;"/><polygon fill="none" points="1519.5,776.8169,1525.5,758.8169,1513.5,758.8169,1519.5,776.8169" style="stroke:#181818;stroke-width:1.0;"/></g><!--link Fagelementdispensation to FagelementdispensationstypeEnum--><g id="link_Fagelementdispensation_FagelementdispensationstypeEnum"><path codeLine="2533" d="M2714.84,628.2969 C2726.37,628.2969 2731.96,628.2969 2743.4,628.2969 " fill="none" id="Fagelementdispensation-to-FagelementdispensationstypeEnum" style="stroke:#181818;stroke-width:1.0;stroke-dasharray:7.0,7.0;"/><polygon fill="#181818" points="2749.4,628.2969,2740.4,624.2969,2744.4,628.2969,2740.4,632.2969,2749.4,628.2969" style="stroke:#181818;stroke-width:1.0;"/></g><!--link PermanentPr?vedispensation to PermanentPr?vedispensationstypeEnum--><g id="link_PermanentPr&#248;vedispensation_PermanentPr&#248;vedispensationstypeEnum"><path codeLine="2534" d="M353.09,628.2969 C364.64,628.2969 370.25,628.2969 381.73,628.2969 " fill="none" id="PermanentPr&#248;vedispensation-to-PermanentPr&#248;vedispensationstypeEnum" style="stroke:#181818;stroke-width:1.0;stroke-dasharray:7.0,7.0;"/><polygon fill="#181818" points="387.73,628.2969,378.73,624.2969,382.73,628.2969,378.73,632.2969,387.73,628.2969" style="stroke:#181818;stroke-width:1.0;"/></g><!--link Studieforl?bsdispensation to Studieforl?bsdispensationstypeEnum--><g id="link_Studieforl&#248;bsdispensation_Studieforl&#248;bsdispensationstypeEnum"><path codeLine="2535" d="M1059.02,628.2969 C1070.61,628.2969 1076.27,628.2969 1087.78,628.2969 " fill="none" id="Studieforl&#248;bsdispensation-to-Studieforl&#248;bsdispensationstypeEnum" style="stroke:#181818;stroke-width:1.0;stroke-dasharray:7.0,7.0;"/><polygon fill="#181818" points="1093.78,628.2969,1084.78,624.2969,1088.78,628.2969,1084.78,632.2969,1093.78,628.2969" style="stroke:#181818;stroke-width:1.0;"/></g><!--link Pr?vedispensation to Pr?veDispensationstypeEnum--><g id="link_Pr&#248;vedispensation_Pr&#248;veDispensationstypeEnum"><path codeLine="2536" d="M943.81,307.2969 C955.35,307.2969 960.97,307.2969 972.39,307.2969 " fill="none" id="Pr&#248;vedispensation-to-Pr&#248;veDispensationstypeEnum" style="stroke:#181818;stroke-width:1.0;stroke-dasharray:7.0,7.0;"/><polygon fill="#181818" points="978.39,307.2969,969.39,303.2969,973.39,307.2969,969.39,311.2969,978.39,307.2969" style="stroke:#181818;stroke-width:1.0;"/></g><!--link StudiedispensationsAns?gning to GodkendelsesstatusEnum--><g id="link_StudiedispensationsAns&#248;gning_GodkendelsesstatusEnum"><path codeLine="2537" d="M2121.24,628.2969 C2132.97,628.2969 2138.55,628.2969 2149.71,628.2969 " fill="none" id="StudiedispensationsAns&#248;gning-to-GodkendelsesstatusEnum" style="stroke:#181818;stroke-width:1.0;stroke-dasharray:7.0,7.0;"/><polygon fill="#181818" points="2155.71,628.2969,2146.71,624.2969,2150.71,628.2969,2146.71,632.2969,2155.71,628.2969" style="stroke:#181818;stroke-width:1.0;"/></g><!--SRC=[TSun3i8m343HFQTmnSvInge3707sAcsirghjHB4pL1LtXv65lxxblyWPePzkKpyzlIN2H5PGBJfb3Hib19JY1mZAZDM2xQGbrYZ0fEX7GSZLj_m32qSpE0DykyTbNsjkcXwPSnq6r2RZ21UcTVEr8cfuXz2HBjmIMfj18kcrDE7ktzS7]--></g></svg>