<svg xmlns="http://www.w3.org/2000/svg" xmlns:xlink="http://www.w3.org/1999/xlink" contentStyleType="text/css" height="736px" preserveAspectRatio="none" style="width:1311px;height:736px;background:#FFFFFF;" version="1.1" viewBox="0 0 1311 736" width="1311px" zoomAndPan="magnify"><defs/><g><text fill="#000000" font-family="sans-serif" font-size="14" font-weight="bold" lengthAdjust="spacing" textLength="243.9678" x="526.6597" y="22.9951">3_4_1_Personligt_studieforloeb</text><!--class PersonligtStudieforl?b--><g id="elem_PersonligtStudieforl&#248;b"><rect codeLine="1830" fill="#F1F1F1" height="105.1875" id="PersonligtStudieforl&#248;b" rx="2.5" ry="2.5" style="stroke:#181818;stroke-width:0.5;" width="273.3516" x="333.5" y="334.2969"/><ellipse cx="388.4609" cy="350.2969" fill="#ADD1B2" rx="11" ry="11" style="stroke:#181818;stroke-width:1.0;"/><path d="M391.4297,355.9375 Q390.8516,356.2344 390.2109,356.375 Q389.5703,356.5313 388.8672,356.5313 Q386.3672,356.5313 385.0391,354.8906 Q383.7266,353.2344 383.7266,350.1094 Q383.7266,346.9844 385.0391,345.3281 Q386.3672,343.6719 388.8672,343.6719 Q389.5703,343.6719 390.2109,343.8281 Q390.8672,343.9844 391.4297,344.2813 L391.4297,347 Q390.8047,346.4219 390.2109,346.1563 Q389.6172,345.875 388.9922,345.875 Q387.6484,345.875 386.9609,346.9531 Q386.2734,348.0156 386.2734,350.1094 Q386.2734,352.2031 386.9609,353.2813 Q387.6484,354.3438 388.9922,354.3438 Q389.6172,354.3438 390.2109,354.0781 Q390.8047,353.7969 391.4297,353.2188 L391.4297,355.9375 Z " fill="#000000"/><text fill="#000000" font-family="sans-serif" font-size="14" lengthAdjust="spacing" textLength="154.9297" x="408.9609" y="355.1436">PersonligtStudieforl&#248;b</text><line style="stroke:#181818;stroke-width:0.5;" x1="334.5" x2="605.8516" y1="366.2969" y2="366.2969"/><text fill="#000000" font-family="sans-serif" font-size="14" lengthAdjust="spacing" textLength="205.5156" x="339.5" y="383.292">/fortolketResultat: Calculated</text><a href="1..1" target="_top" title="1..1" xlink:actuate="onRequest" xlink:href="1..1" xlink:show="new" xlink:title="1..1" xlink:type="simple"><text fill="#0000FF" font-family="sans-serif" font-size="14" lengthAdjust="spacing" text-decoration="underline" textLength="26.7148" x="549.4658" y="383.292">1..1</text></a><text fill="#000000" font-family="sans-serif" font-size="14" lengthAdjust="spacing" textLength="230.1865" x="339.5" y="399.5889">/karaktergennemsnit: Calculated</text><a href="1..1" target="_top" title="1..1" xlink:actuate="onRequest" xlink:href="1..1" xlink:show="new" xlink:title="1..1" xlink:type="simple"><text fill="#0000FF" font-family="sans-serif" font-size="14" lengthAdjust="spacing" text-decoration="underline" textLength="26.7148" x="574.1367" y="399.5889">1..1</text></a><text fill="#000000" font-family="sans-serif" font-size="14" lengthAdjust="spacing" textLength="35.916" x="339.5" y="415.8857">&#171;BK&#187;</text><text fill="#000000" font-family="sans-serif" font-size="14" lengthAdjust="spacing" textLength="229.6807" x="339.5" y="432.1826">/indskrivningsnummer: IgnoreBK</text><a href="1..1" target="_top" title="1..1" xlink:actuate="onRequest" xlink:href="1..1" xlink:show="new" xlink:title="1..1" xlink:type="simple"><text fill="#0000FF" font-family="sans-serif" font-size="14" lengthAdjust="spacing" text-decoration="underline" textLength="26.7148" x="573.6309" y="432.1826">1..1</text></a></g><!--class PersonligFagelementgruppering--><g id="elem_PersonligFagelementgruppering"><rect codeLine="1837" fill="#F1F1F1" height="137.7813" id="PersonligFagelementgruppering" rx="2.5" ry="2.5" style="stroke:#181818;stroke-width:0.5;" width="319.5557" x="607" y="136.2969"/><ellipse cx="650.2555" cy="152.2969" fill="#ADD1B2" rx="11" ry="11" style="stroke:#181818;stroke-width:1.0;"/><path d="M653.2243,157.9375 Q652.6461,158.2344 652.0055,158.375 Q651.3649,158.5313 650.6618,158.5313 Q648.1618,158.5313 646.8336,156.8906 Q645.5211,155.2344 645.5211,152.1094 Q645.5211,148.9844 646.8336,147.3281 Q648.1618,145.6719 650.6618,145.6719 Q651.3649,145.6719 652.0055,145.8281 Q652.6618,145.9844 653.2243,146.2813 L653.2243,149 Q652.5993,148.4219 652.0055,148.1563 Q651.4118,147.875 650.7868,147.875 Q649.443,147.875 648.7555,148.9531 Q648.068,150.0156 648.068,152.1094 Q648.068,154.2031 648.7555,155.2813 Q649.443,156.3438 650.7868,156.3438 Q651.4118,156.3438 652.0055,156.0781 Q652.5993,155.7969 653.2243,155.2188 L653.2243,157.9375 Z " fill="#000000"/><text fill="#000000" font-family="sans-serif" font-size="14" lengthAdjust="spacing" textLength="224.7656" x="670.5345" y="157.1436">PersonligFagelementgruppering</text><line style="stroke:#181818;stroke-width:0.5;" x1="608" x2="925.5557" y1="168.2969" y2="168.2969"/><text fill="#000000" font-family="sans-serif" font-size="14" lengthAdjust="spacing" textLength="205.5156" x="613" y="185.292">/fortolketResultat: Calculated</text><a href="1..1" target="_top" title="1..1" xlink:actuate="onRequest" xlink:href="1..1" xlink:show="new" xlink:title="1..1" xlink:type="simple"><text fill="#0000FF" font-family="sans-serif" font-size="14" lengthAdjust="spacing" text-decoration="underline" textLength="26.7148" x="822.9658" y="185.292">1..1</text></a><text fill="#000000" font-family="sans-serif" font-size="14" lengthAdjust="spacing" textLength="230.1865" x="613" y="201.5889">/karaktergennemsnit: Calculated</text><a href="1..1" target="_top" title="1..1" xlink:actuate="onRequest" xlink:href="1..1" xlink:show="new" xlink:title="1..1" xlink:type="simple"><text fill="#0000FF" font-family="sans-serif" font-size="14" lengthAdjust="spacing" text-decoration="underline" textLength="26.7148" x="847.6367" y="201.5889">1..1</text></a><text fill="#000000" font-family="sans-serif" font-size="14" lengthAdjust="spacing" textLength="164.9717" x="613" y="217.8857">/ECTS-point: Calculated</text><a href="1..1" target="_top" title="1..1" xlink:actuate="onRequest" xlink:href="1..1" xlink:show="new" xlink:title="1..1" xlink:type="simple"><text fill="#0000FF" font-family="sans-serif" font-size="14" lengthAdjust="spacing" text-decoration="underline" textLength="26.7148" x="782.4219" y="217.8857">1..1</text></a><text fill="#000000" font-family="sans-serif" font-size="14" lengthAdjust="spacing" textLength="35.916" x="613" y="234.1826">&#171;BK&#187;</text><text fill="#000000" font-family="sans-serif" font-size="14" lengthAdjust="spacing" textLength="229.6807" x="613" y="250.4795">/indskrivningsnummer: IgnoreBK</text><a href="1..1" target="_top" title="1..1" xlink:actuate="onRequest" xlink:href="1..1" xlink:show="new" xlink:title="1..1" xlink:type="simple"><text fill="#0000FF" font-family="sans-serif" font-size="14" lengthAdjust="spacing" text-decoration="underline" textLength="26.7148" x="847.1309" y="250.4795">1..1</text></a><text fill="#000000" font-family="sans-serif" font-size="14" lengthAdjust="spacing" textLength="276.3906" x="613" y="266.7764">/fagelementgrupperingskode: IgnoreBK</text><a href="1..1" target="_top" title="1..1" xlink:actuate="onRequest" xlink:href="1..1" xlink:show="new" xlink:title="1..1" xlink:type="simple"><text fill="#0000FF" font-family="sans-serif" font-size="14" lengthAdjust="spacing" text-decoration="underline" textLength="26.7148" x="893.8408" y="266.7764">1..1</text></a></g><!--class Studiefremdrift--><g id="elem_Studiefremdrift"><rect codeLine="1846" fill="#F1F1F1" height="121.4844" id="Studiefremdrift" rx="2.5" ry="2.5" style="stroke:#181818;stroke-width:0.5;" width="303.8945" x="156" y="507.7969"/><ellipse cx="250.4351" cy="523.7969" fill="#ADD1B2" rx="11" ry="11" style="stroke:#181818;stroke-width:1.0;"/><path d="M253.4038,529.4375 Q252.8257,529.7344 252.1851,529.875 Q251.5444,530.0313 250.8413,530.0313 Q248.3413,530.0313 247.0132,528.3906 Q245.7007,526.7344 245.7007,523.6094 Q245.7007,520.4844 247.0132,518.8281 Q248.3413,517.1719 250.8413,517.1719 Q251.5444,517.1719 252.1851,517.3281 Q252.8413,517.4844 253.4038,517.7813 L253.4038,520.5 Q252.7788,519.9219 252.1851,519.6563 Q251.5913,519.375 250.9663,519.375 Q249.6226,519.375 248.9351,520.4531 Q248.2476,521.5156 248.2476,523.6094 Q248.2476,525.7031 248.9351,526.7813 Q249.6226,527.8438 250.9663,527.8438 Q251.5913,527.8438 252.1851,527.5781 Q252.7788,527.2969 253.4038,526.7188 L253.4038,529.4375 Z " fill="#000000"/><text fill="#000000" font-family="sans-serif" font-size="14" lengthAdjust="spacing" textLength="106.5244" x="270.9351" y="528.6436">Studiefremdrift</text><line style="stroke:#181818;stroke-width:0.5;" x1="157" x2="458.8945" y1="539.7969" y2="539.7969"/><text fill="#000000" font-family="sans-serif" font-size="14" lengthAdjust="spacing" textLength="225.9893" x="162" y="556.792">/opn&#229;edeECTS-point: Calculated</text><a href="1..1" target="_top" title="1..1" xlink:actuate="onRequest" xlink:href="1..1" xlink:show="new" xlink:title="1..1" xlink:type="simple"><text fill="#0000FF" font-family="sans-serif" font-size="14" lengthAdjust="spacing" text-decoration="underline" textLength="26.7148" x="392.4395" y="556.792">1..1</text></a><text fill="#000000" font-family="sans-serif" font-size="14" lengthAdjust="spacing" textLength="241.5957" x="162" y="573.0889">/forventedeECTS-point: Calculated</text><a href="1..1" target="_top" title="1..1" xlink:actuate="onRequest" xlink:href="1..1" xlink:show="new" xlink:title="1..1" xlink:type="simple"><text fill="#0000FF" font-family="sans-serif" font-size="14" lengthAdjust="spacing" text-decoration="underline" textLength="26.7148" x="408.0459" y="573.0889">1..1</text></a><text fill="#000000" font-family="sans-serif" font-size="14" lengthAdjust="spacing" textLength="260.7295" x="162" y="589.3857">/forventedeECTS-pointSU: Calculated</text><a href="1..1" target="_top" title="1..1" xlink:actuate="onRequest" xlink:href="1..1" xlink:show="new" xlink:title="1..1" xlink:type="simple"><text fill="#0000FF" font-family="sans-serif" font-size="14" lengthAdjust="spacing" text-decoration="underline" textLength="26.7148" x="427.1797" y="589.3857">1..1</text></a><text fill="#000000" font-family="sans-serif" font-size="14" lengthAdjust="spacing" textLength="35.916" x="162" y="605.6826">&#171;BK&#187;</text><text fill="#000000" font-family="sans-serif" font-size="14" lengthAdjust="spacing" textLength="229.6807" x="162" y="621.9795">/indskrivningsnummer: IgnoreBK</text><a href="1..1" target="_top" title="1..1" xlink:actuate="onRequest" xlink:href="1..1" xlink:show="new" xlink:title="1..1" xlink:type="simple"><text fill="#0000FF" font-family="sans-serif" font-size="14" lengthAdjust="spacing" text-decoration="underline" textLength="26.7148" x="396.1309" y="621.9795">1..1</text></a></g><!--class PersonligtEnkeltfagsforl?b--><g id="elem_PersonligtEnkeltfagsforl&#248;b"><rect codeLine="1854" fill="#F1F1F1" height="72.5938" id="PersonligtEnkeltfagsforl&#248;b" rx="2.5" ry="2.5" style="stroke:#181818;stroke-width:0.5;" width="272.8457" x="914.5" y="350.2969"/><ellipse cx="955.1715" cy="366.2969" fill="#ADD1B2" rx="11" ry="11" style="stroke:#181818;stroke-width:1.0;"/><path d="M958.1403,371.9375 Q957.5622,372.2344 956.9215,372.375 Q956.2809,372.5313 955.5778,372.5313 Q953.0778,372.5313 951.7497,370.8906 Q950.4372,369.2344 950.4372,366.1094 Q950.4372,362.9844 951.7497,361.3281 Q953.0778,359.6719 955.5778,359.6719 Q956.2809,359.6719 956.9215,359.8281 Q957.5778,359.9844 958.1403,360.2813 L958.1403,363 Q957.5153,362.4219 956.9215,362.1563 Q956.3278,361.875 955.7028,361.875 Q954.359,361.875 953.6715,362.9531 Q952.984,364.0156 952.984,366.1094 Q952.984,368.2031 953.6715,369.2813 Q954.359,370.3438 955.7028,370.3438 Q956.3278,370.3438 956.9215,370.0781 Q957.5153,369.7969 958.1403,369.2188 L958.1403,371.9375 Z " fill="#000000"/><text fill="#000000" font-family="sans-serif" font-size="14" lengthAdjust="spacing" textLength="183.7979" x="974.8763" y="371.1436">PersonligtEnkeltfagsforl&#248;b</text><line style="stroke:#181818;stroke-width:0.5;" x1="915.5" x2="1186.3457" y1="382.2969" y2="382.2969"/><text fill="#000000" font-family="sans-serif" font-size="14" lengthAdjust="spacing" textLength="35.916" x="920.5" y="399.292">&#171;BK&#187;</text><text fill="#000000" font-family="sans-serif" font-size="14" lengthAdjust="spacing" textLength="229.6807" x="920.5" y="415.5889">/indskrivningsnummer: IgnoreBK</text><a href="1..1" target="_top" title="1..1" xlink:actuate="onRequest" xlink:href="1..1" xlink:show="new" xlink:title="1..1" xlink:type="simple"><text fill="#0000FF" font-family="sans-serif" font-size="14" lengthAdjust="spacing" text-decoration="underline" textLength="26.7148" x="1154.6309" y="415.5889">1..1</text></a></g><!--class PersonligForl?bspr?ve--><g id="elem_PersonligForl&#248;bspr&#248;ve"><rect codeLine="1859" fill="#F1F1F1" height="137.7813" id="PersonligForl&#248;bspr&#248;ve" rx="2.5" ry="2.5" style="stroke:#181818;stroke-width:0.5;" width="272.8457" x="495.5" y="499.2969"/><ellipse cx="550.0098" cy="515.2969" fill="#ADD1B2" rx="11" ry="11" style="stroke:#181818;stroke-width:1.0;"/><path d="M552.9785,520.9375 Q552.4004,521.2344 551.7598,521.375 Q551.1191,521.5313 550.416,521.5313 Q547.916,521.5313 546.5879,519.8906 Q545.2754,518.2344 545.2754,515.1094 Q545.2754,511.9844 546.5879,510.3281 Q547.916,508.6719 550.416,508.6719 Q551.1191,508.6719 551.7598,508.8281 Q552.416,508.9844 552.9785,509.2813 L552.9785,512 Q552.3535,511.4219 551.7598,511.1563 Q551.166,510.875 550.541,510.875 Q549.1973,510.875 548.5098,511.9531 Q547.8223,513.0156 547.8223,515.1094 Q547.8223,517.2031 548.5098,518.2813 Q549.1973,519.3438 550.541,519.3438 Q551.166,519.3438 551.7598,519.0781 Q552.3535,518.7969 552.9785,518.2188 L552.9785,520.9375 Z " fill="#000000"/><text fill="#000000" font-family="sans-serif" font-size="14" lengthAdjust="spacing" textLength="155.3262" x="570.5098" y="520.1436">PersonligForl&#248;bspr&#248;ve</text><line style="stroke:#181818;stroke-width:0.5;" x1="496.5" x2="767.3457" y1="531.2969" y2="531.2969"/><text fill="#000000" font-family="sans-serif" font-size="14" lengthAdjust="spacing" textLength="146.0225" x="501.5" y="548.292">erBest&#229;et: Checkbox</text><a href="1..1" target="_top" title="1..1" xlink:actuate="onRequest" xlink:href="1..1" xlink:show="new" xlink:title="1..1" xlink:type="simple"><text fill="#0000FF" font-family="sans-serif" font-size="14" lengthAdjust="spacing" text-decoration="underline" textLength="26.7148" x="651.9727" y="548.292">1..1</text></a><text fill="#000000" font-family="sans-serif" font-size="14" lengthAdjust="spacing" textLength="148.7158" x="501.5" y="564.5889">best&#229;elsesdato: Date</text><a href="1..1" target="_top" title="1..1" xlink:actuate="onRequest" xlink:href="1..1" xlink:show="new" xlink:title="1..1" xlink:type="simple"><text fill="#0000FF" font-family="sans-serif" font-size="14" lengthAdjust="spacing" text-decoration="underline" textLength="26.7148" x="654.666" y="564.5889">1..1</text></a><text fill="#000000" font-family="sans-serif" font-size="14" lengthAdjust="spacing" textLength="35.916" x="501.5" y="580.8857">&#171;BK&#187;</text><text fill="#000000" font-family="sans-serif" font-size="14" lengthAdjust="spacing" textLength="229.6807" x="501.5" y="597.1826">/indskrivningsnummer: IgnoreBK</text><a href="1..1" target="_top" title="1..1" xlink:actuate="onRequest" xlink:href="1..1" xlink:show="new" xlink:title="1..1" xlink:type="simple"><text fill="#0000FF" font-family="sans-serif" font-size="14" lengthAdjust="spacing" text-decoration="underline" textLength="26.7148" x="735.6309" y="597.1826">1..1</text></a><text fill="#000000" font-family="sans-serif" font-size="14" lengthAdjust="spacing" textLength="202.5967" x="501.5" y="613.4795">/studieforl&#248;bskode: IgnoreBK</text><a href="1..1" target="_top" title="1..1" xlink:actuate="onRequest" xlink:href="1..1" xlink:show="new" xlink:title="1..1" xlink:type="simple"><text fill="#0000FF" font-family="sans-serif" font-size="14" lengthAdjust="spacing" text-decoration="underline" textLength="26.7148" x="708.5469" y="613.4795">1..1</text></a><text fill="#000000" font-family="sans-serif" font-size="14" lengthAdjust="spacing" textLength="180.1133" x="501.5" y="629.7764">/forl&#248;bspr&#248;venr: IgnoreBK</text><a href="1..1" target="_top" title="1..1" xlink:actuate="onRequest" xlink:href="1..1" xlink:show="new" xlink:title="1..1" xlink:type="simple"><text fill="#0000FF" font-family="sans-serif" font-size="14" lengthAdjust="spacing" text-decoration="underline" textLength="26.7148" x="686.0635" y="629.7764">1..1</text></a></g><!--class IndskrivningTilVidereg?endeUddannelse--><g id="elem_IndskrivningTilVidereg&#229;endeUddannelse"><rect fill="#F1F1F1" height="32" id="IndskrivningTilVidereg&#229;endeUddannelse" rx="2.5" ry="2.5" style="stroke:#181818;stroke-width:0.5;" width="314.6182" x="256.5" y="189.2969"/><ellipse cx="271.5" cy="205.2969" fill="#ADD1B2" rx="11" ry="11" style="stroke:#181818;stroke-width:1.0;"/><path d="M274.4688,210.9375 Q273.8906,211.2344 273.25,211.375 Q272.6094,211.5313 271.9063,211.5313 Q269.4063,211.5313 268.0781,209.8906 Q266.7656,208.2344 266.7656,205.1094 Q266.7656,201.9844 268.0781,200.3281 Q269.4063,198.6719 271.9063,198.6719 Q272.6094,198.6719 273.25,198.8281 Q273.9063,198.9844 274.4688,199.2813 L274.4688,202 Q273.8438,201.4219 273.25,201.1563 Q272.6563,200.875 272.0313,200.875 Q270.6875,200.875 270,201.9531 Q269.3125,203.0156 269.3125,205.1094 Q269.3125,207.2031 270,208.2813 Q270.6875,209.3438 272.0313,209.3438 Q272.6563,209.3438 273.25,209.0781 Q273.8438,208.7969 274.4688,208.2188 L274.4688,210.9375 Z " fill="#000000"/><text fill="#000000" font-family="sans-serif" font-size="14" lengthAdjust="spacing" textLength="282.6182" x="285.5" y="210.1436">IndskrivningTilVidereg&#229;endeUddannelse</text></g><!--class GrupperingAfFagelement--><g id="elem_GrupperingAfFagelement"><rect fill="#F1F1F1" height="32" id="GrupperingAfFagelement" rx="2.5" ry="2.5" style="stroke:#181818;stroke-width:0.5;" width="209.0234" x="86.5" y="44.2969"/><ellipse cx="101.5" cy="60.2969" fill="#ADD1B2" rx="11" ry="11" style="stroke:#181818;stroke-width:1.0;"/><path d="M104.4688,65.9375 Q103.8906,66.2344 103.25,66.375 Q102.6094,66.5313 101.9063,66.5313 Q99.4063,66.5313 98.0781,64.8906 Q96.7656,63.2344 96.7656,60.1094 Q96.7656,56.9844 98.0781,55.3281 Q99.4063,53.6719 101.9063,53.6719 Q102.6094,53.6719 103.25,53.8281 Q103.9063,53.9844 104.4688,54.2813 L104.4688,57 Q103.8438,56.4219 103.25,56.1563 Q102.6563,55.875 102.0313,55.875 Q100.6875,55.875 100,56.9531 Q99.3125,58.0156 99.3125,60.1094 Q99.3125,62.2031 100,63.2813 Q100.6875,64.3438 102.0313,64.3438 Q102.6563,64.3438 103.25,64.0781 Q103.8438,63.7969 104.4688,63.2188 L104.4688,65.9375 Z " fill="#000000"/><text fill="#000000" font-family="sans-serif" font-size="14" lengthAdjust="spacing" textLength="177.0234" x="115.5" y="65.1436">GrupperingAfFagelement</text></g><!--class PersonligtFagelement--><g id="elem_PersonligtFagelement"><rect fill="#F1F1F1" height="32" id="PersonligtFagelement" rx="2.5" ry="2.5" style="stroke:#181818;stroke-width:0.5;" width="184.9473" x="958.5" y="44.2969"/><ellipse cx="973.5" cy="60.2969" fill="#ADD1B2" rx="11" ry="11" style="stroke:#181818;stroke-width:1.0;"/><path d="M976.4688,65.9375 Q975.8906,66.2344 975.25,66.375 Q974.6094,66.5313 973.9063,66.5313 Q971.4063,66.5313 970.0781,64.8906 Q968.7656,63.2344 968.7656,60.1094 Q968.7656,56.9844 970.0781,55.3281 Q971.4063,53.6719 973.9063,53.6719 Q974.6094,53.6719 975.25,53.8281 Q975.9063,53.9844 976.4688,54.2813 L976.4688,57 Q975.8438,56.4219 975.25,56.1563 Q974.6563,55.875 974.0313,55.875 Q972.6875,55.875 972,56.9531 Q971.3125,58.0156 971.3125,60.1094 Q971.3125,62.2031 972,63.2813 Q972.6875,64.3438 974.0313,64.3438 Q974.6563,64.3438 975.25,64.0781 Q975.8438,63.7969 976.4688,63.2188 L976.4688,65.9375 Z " fill="#000000"/><text fill="#000000" font-family="sans-serif" font-size="14" lengthAdjust="spacing" textLength="152.9473" x="987.5" y="65.1436">PersonligtFagelement</text></g><!--class Omfangsmerit--><g id="elem_Omfangsmerit"><rect fill="#F1F1F1" height="32" id="Omfangsmerit" rx="2.5" ry="2.5" style="stroke:#181818;stroke-width:0.5;" width="132.6045" x="330.5" y="44.2969"/><ellipse cx="345.5" cy="60.2969" fill="#ADD1B2" rx="11" ry="11" style="stroke:#181818;stroke-width:1.0;"/><path d="M348.4688,65.9375 Q347.8906,66.2344 347.25,66.375 Q346.6094,66.5313 345.9063,66.5313 Q343.4063,66.5313 342.0781,64.8906 Q340.7656,63.2344 340.7656,60.1094 Q340.7656,56.9844 342.0781,55.3281 Q343.4063,53.6719 345.9063,53.6719 Q346.6094,53.6719 347.25,53.8281 Q347.9063,53.9844 348.4688,54.2813 L348.4688,57 Q347.8438,56.4219 347.25,56.1563 Q346.6563,55.875 346.0313,55.875 Q344.6875,55.875 344,56.9531 Q343.3125,58.0156 343.3125,60.1094 Q343.3125,62.2031 344,63.2813 Q344.6875,64.3438 346.0313,64.3438 Q346.6563,64.3438 347.25,64.0781 Q347.8438,63.7969 348.4688,63.2188 L348.4688,65.9375 Z " fill="#000000"/><text fill="#000000" font-family="sans-serif" font-size="14" lengthAdjust="spacing" textLength="100.6045" x="359.5" y="65.1436">Omfangsmerit</text></g><!--class Studieforl?bsdispensation--><g id="elem_Studieforl&#248;bsdispensation"><rect fill="#F1F1F1" height="32" id="Studieforl&#248;bsdispensation" rx="2.5" ry="2.5" style="stroke:#181818;stroke-width:0.5;" width="213.6582" x="7" y="189.2969"/><ellipse cx="22" cy="205.2969" fill="#ADD1B2" rx="11" ry="11" style="stroke:#181818;stroke-width:1.0;"/><path d="M24.9688,210.9375 Q24.3906,211.2344 23.75,211.375 Q23.1094,211.5313 22.4063,211.5313 Q19.9063,211.5313 18.5781,209.8906 Q17.2656,208.2344 17.2656,205.1094 Q17.2656,201.9844 18.5781,200.3281 Q19.9063,198.6719 22.4063,198.6719 Q23.1094,198.6719 23.75,198.8281 Q24.4063,198.9844 24.9688,199.2813 L24.9688,202 Q24.3438,201.4219 23.75,201.1563 Q23.1563,200.875 22.5313,200.875 Q21.1875,200.875 20.5,201.9531 Q19.8125,203.0156 19.8125,205.1094 Q19.8125,207.2031 20.5,208.2813 Q21.1875,209.3438 22.5313,209.3438 Q23.1563,209.3438 23.75,209.0781 Q24.3438,208.7969 24.9688,208.2188 L24.9688,210.9375 Z " fill="#000000"/><text fill="#000000" font-family="sans-serif" font-size="14" lengthAdjust="spacing" textLength="181.6582" x="36" y="210.1436">Studieforl&#248;bsdispensation</text></g><!--class Fagelementdispensation--><g id="elem_Fagelementdispensation"><rect fill="#F1F1F1" height="32" id="Fagelementdispensation" rx="2.5" ry="2.5" style="stroke:#181818;stroke-width:0.5;" width="204.3818" x="499" y="44.2969"/><ellipse cx="514" cy="60.2969" fill="#ADD1B2" rx="11" ry="11" style="stroke:#181818;stroke-width:1.0;"/><path d="M516.9688,65.9375 Q516.3906,66.2344 515.75,66.375 Q515.1094,66.5313 514.4063,66.5313 Q511.9063,66.5313 510.5781,64.8906 Q509.2656,63.2344 509.2656,60.1094 Q509.2656,56.9844 510.5781,55.3281 Q511.9063,53.6719 514.4063,53.6719 Q515.1094,53.6719 515.75,53.8281 Q516.4063,53.9844 516.9688,54.2813 L516.9688,57 Q516.3438,56.4219 515.75,56.1563 Q515.1563,55.875 514.5313,55.875 Q513.1875,55.875 512.5,56.9531 Q511.8125,58.0156 511.8125,60.1094 Q511.8125,62.2031 512.5,63.2813 Q513.1875,64.3438 514.5313,64.3438 Q515.1563,64.3438 515.75,64.0781 Q516.3438,63.7969 516.9688,63.2188 L516.9688,65.9375 Z " fill="#000000"/><text fill="#000000" font-family="sans-serif" font-size="14" lengthAdjust="spacing" textLength="172.3818" x="528" y="65.1436">Fagelementdispensation</text></g><!--class Udbudsperiode--><g id="elem_Udbudsperiode"><rect fill="#F1F1F1" height="32" id="Udbudsperiode" rx="2.5" ry="2.5" style="stroke:#181818;stroke-width:0.5;" width="138.2852" x="698" y="370.7969"/><ellipse cx="713" cy="386.7969" fill="#ADD1B2" rx="11" ry="11" style="stroke:#181818;stroke-width:1.0;"/><path d="M715.9688,392.4375 Q715.3906,392.7344 714.75,392.875 Q714.1094,393.0313 713.4063,393.0313 Q710.9063,393.0313 709.5781,391.3906 Q708.2656,389.7344 708.2656,386.6094 Q708.2656,383.4844 709.5781,381.8281 Q710.9063,380.1719 713.4063,380.1719 Q714.1094,380.1719 714.75,380.3281 Q715.4063,380.4844 715.9688,380.7813 L715.9688,383.5 Q715.3438,382.9219 714.75,382.6563 Q714.1563,382.375 713.5313,382.375 Q712.1875,382.375 711.5,383.4531 Q710.8125,384.5156 710.8125,386.6094 Q710.8125,388.7031 711.5,389.7813 Q712.1875,390.8438 713.5313,390.8438 Q714.1563,390.8438 714.75,390.5781 Q715.3438,390.2969 715.9688,389.7188 L715.9688,392.4375 Z " fill="#000000"/><text fill="#000000" font-family="sans-serif" font-size="14" lengthAdjust="spacing" textLength="106.2852" x="727" y="391.6436">Udbudsperiode</text></g><!--class IndskrivningTilEnkeltfag--><g id="elem_IndskrivningTilEnkeltfag"><rect fill="#F1F1F1" height="32" id="IndskrivningTilEnkeltfag" rx="2.5" ry="2.5" style="stroke:#181818;stroke-width:0.5;" width="200.2871" x="1104" y="189.2969"/><ellipse cx="1119" cy="205.2969" fill="#ADD1B2" rx="11" ry="11" style="stroke:#181818;stroke-width:1.0;"/><path d="M1121.9688,210.9375 Q1121.3906,211.2344 1120.75,211.375 Q1120.1094,211.5313 1119.4063,211.5313 Q1116.9063,211.5313 1115.5781,209.8906 Q1114.2656,208.2344 1114.2656,205.1094 Q1114.2656,201.9844 1115.5781,200.3281 Q1116.9063,198.6719 1119.4063,198.6719 Q1120.1094,198.6719 1120.75,198.8281 Q1121.4063,198.9844 1121.9688,199.2813 L1121.9688,202 Q1121.3438,201.4219 1120.75,201.1563 Q1120.1563,200.875 1119.5313,200.875 Q1118.1875,200.875 1117.5,201.9531 Q1116.8125,203.0156 1116.8125,205.1094 Q1116.8125,207.2031 1117.5,208.2813 Q1118.1875,209.3438 1119.5313,209.3438 Q1120.1563,209.3438 1120.75,209.0781 Q1121.3438,208.7969 1121.9688,208.2188 L1121.9688,210.9375 Z " fill="#000000"/><text fill="#000000" font-family="sans-serif" font-size="14" lengthAdjust="spacing" textLength="168.2871" x="1133" y="210.1436">IndskrivningTilEnkeltfag</text></g><!--class Forl?bspr?ve--><g id="elem_Forl&#248;bspr&#248;ve"><rect fill="#F1F1F1" height="32" id="Forl&#248;bspr&#248;ve" rx="2.5" ry="2.5" style="stroke:#181818;stroke-width:0.5;" width="123.1162" x="570.5" y="697.2969"/><ellipse cx="585.5" cy="713.2969" fill="#ADD1B2" rx="11" ry="11" style="stroke:#181818;stroke-width:1.0;"/><path d="M588.4688,718.9375 Q587.8906,719.2344 587.25,719.375 Q586.6094,719.5313 585.9063,719.5313 Q583.4063,719.5313 582.0781,717.8906 Q580.7656,716.2344 580.7656,713.1094 Q580.7656,709.9844 582.0781,708.3281 Q583.4063,706.6719 585.9063,706.6719 Q586.6094,706.6719 587.25,706.8281 Q587.9063,706.9844 588.4688,707.2813 L588.4688,710 Q587.8438,709.4219 587.25,709.1563 Q586.6563,708.875 586.0313,708.875 Q584.6875,708.875 584,709.9531 Q583.3125,711.0156 583.3125,713.1094 Q583.3125,715.2031 584,716.2813 Q584.6875,717.3438 586.0313,717.3438 Q586.6563,717.3438 587.25,717.0781 Q587.8438,716.7969 588.4688,716.2188 L588.4688,718.9375 Z " fill="#000000"/><text fill="#000000" font-family="sans-serif" font-size="14" lengthAdjust="spacing" textLength="91.1162" x="599.5" y="718.1436">Forl&#248;bspr&#248;ve</text></g><!--class Forh?ndsgodkendelse--><g id="elem_Forh&#229;ndsgodkendelse"><rect fill="#F1F1F1" height="32" id="Forh&#229;ndsgodkendelse" rx="2.5" ry="2.5" style="stroke:#181818;stroke-width:0.5;" width="186.1094" x="738" y="44.2969"/><ellipse cx="753" cy="60.2969" fill="#ADD1B2" rx="11" ry="11" style="stroke:#181818;stroke-width:1.0;"/><path d="M755.9688,65.9375 Q755.3906,66.2344 754.75,66.375 Q754.1094,66.5313 753.4063,66.5313 Q750.9063,66.5313 749.5781,64.8906 Q748.2656,63.2344 748.2656,60.1094 Q748.2656,56.9844 749.5781,55.3281 Q750.9063,53.6719 753.4063,53.6719 Q754.1094,53.6719 754.75,53.8281 Q755.4063,53.9844 755.9688,54.2813 L755.9688,57 Q755.3438,56.4219 754.75,56.1563 Q754.1563,55.875 753.5313,55.875 Q752.1875,55.875 751.5,56.9531 Q750.8125,58.0156 750.8125,60.1094 Q750.8125,62.2031 751.5,63.2813 Q752.1875,64.3438 753.5313,64.3438 Q754.1563,64.3438 754.75,64.0781 Q755.3438,63.7969 755.9688,63.2188 L755.9688,65.9375 Z " fill="#000000"/><text fill="#000000" font-family="sans-serif" font-size="14" lengthAdjust="spacing" textLength="154.1094" x="767" y="65.1436">Forh&#229;ndsgodkendelse</text></g><!--link IndskrivningTilVidereg?endeUddannelse to PersonligtStudieforl?b--><g id="link_IndskrivningTilVidereg&#229;endeUddannelse_PersonligtStudieforl&#248;b"><path codeLine="1868" d="M452.5,221.4069 C452.5,246.4769 452.5,295.9369 452.5,334.2669 " fill="none" id="IndskrivningTilVidereg&#229;endeUddannelse-PersonligtStudieforl&#248;b" style="stroke:#181818;stroke-width:1.0;"/><text fill="#000000" font-family="sans-serif" font-size="13" lengthAdjust="spacing" textLength="8.271" x="456.0363" y="241.3166">1</text><text fill="#000000" font-family="sans-serif" font-size="13" lengthAdjust="spacing" textLength="8.271" x="441.6055" y="323.2636">1</text></g><!--link GrupperingAfFagelement to PersonligFagelementgruppering--><g id="link_GrupperingAfFagelement_PersonligFagelementgruppering"><path codeLine="1869" d="M276,76.3469 C276,107.3169 276,172.2969 276,172.2969 C276,172.2969 463.62,172.2969 606.91,172.2969 " fill="none" id="GrupperingAfFagelement-PersonligFagelementgruppering" style="stroke:#181818;stroke-width:1.0;"/><text fill="#000000" font-family="sans-serif" font-size="13" lengthAdjust="spacing" textLength="8.271" x="294.8723" y="96.2367">1</text><text fill="#000000" font-family="sans-serif" font-size="13" lengthAdjust="spacing" textLength="23.0356" x="576.1457" y="167.5366">0..*</text></g><!--link PersonligtFagelement to PersonligFagelementgruppering--><g id="link_PersonligtFagelement_PersonligFagelementgruppering"><path codeLine="1870" d="M994.88,76.3869 C994.88,105.3569 994.88,163.2969 994.88,163.2969 C994.88,163.2969 965.12,163.2969 927.12,163.2969 " fill="none" id="PersonligtFagelement-PersonligFagelementgruppering" style="stroke:#181818;stroke-width:1.0;"/><text fill="#000000" font-family="sans-serif" font-size="13" lengthAdjust="spacing" textLength="23.0356" x="949.4955" y="96.29">1..*</text><text fill="#000000" font-family="sans-serif" font-size="13" lengthAdjust="spacing" textLength="24.8066" x="934.4077" y="158.2829">0..1</text></g><!--link PersonligFagelementgruppering to PersonligtStudieforl?b--><g id="link_PersonligFagelementgruppering_PersonligtStudieforl&#248;b"><path codeLine="1871" d="M606.72,248.2969 C595.79,248.2969 589,248.2969 589,248.2969 C589,248.2969 589,294.8969 589,334.0369 " fill="none" id="PersonligFagelementgruppering-PersonligtStudieforl&#248;b" style="stroke:#181818;stroke-width:1.0;"/><text fill="#000000" font-family="sans-serif" font-size="13" lengthAdjust="spacing" textLength="23.0356" x="575.9471" y="246.9803">0..*</text><text fill="#000000" font-family="sans-serif" font-size="13" lengthAdjust="spacing" textLength="24.8066" x="578.7385" y="323.3795">0..1</text></g><!--link Omfangsmerit to PersonligFagelementgruppering--><g id="link_Omfangsmerit_PersonligFagelementgruppering"><path codeLine="1872" d="M397,76.6669 C397,103.6069 397,154.2969 397,154.2969 C397,154.2969 506.87,154.2969 606.86,154.2969 " fill="none" id="Omfangsmerit-PersonligFagelementgruppering" style="stroke:#181818;stroke-width:1.0;"/><text fill="#000000" font-family="sans-serif" font-size="13" lengthAdjust="spacing" textLength="231.5625" x="231.12" y="150.3638">d&#230;kker en del af valgfri gruppering</text><text fill="#000000" font-family="sans-serif" font-size="13" lengthAdjust="spacing" textLength="23.0356" x="370.4031" y="96.3635">0..*</text><text fill="#000000" font-family="sans-serif" font-size="13" lengthAdjust="spacing" textLength="8.271" x="590.9268" y="148.5387">1</text></g><!--link PersonligtStudieforl?b to Studiefremdrift--><g id="link_PersonligtStudieforl&#248;b_Studiefremdrift"><path codeLine="1873" d="M396.75,439.7869 C396.75,461.0269 396.75,485.6269 396.75,507.5769 " fill="none" id="PersonligtStudieforl&#248;b-Studiefremdrift" style="stroke:#181818;stroke-width:1.0;"/><text fill="#000000" font-family="sans-serif" font-size="13" lengthAdjust="spacing" textLength="8.271" x="378.8472" y="459.6005">1</text><text fill="#000000" font-family="sans-serif" font-size="13" lengthAdjust="spacing" textLength="8.271" x="398.571" y="496.7355">1</text></g><!--link Studieforl?bsdispensation to PersonligtStudieforl?b--><g id="link_Studieforl&#248;bsdispensation_PersonligtStudieforl&#248;b"><path codeLine="1874" d="M188.5,221.4469 C188.5,265.9869 188.5,387.2969 188.5,387.2969 C188.5,387.2969 261.65,387.2969 333.37,387.2969 " fill="none" id="Studieforl&#248;bsdispensation-PersonligtStudieforl&#248;b" style="stroke:#181818;stroke-width:1.0;"/><text fill="#000000" font-family="sans-serif" font-size="13" lengthAdjust="spacing" textLength="23.0356" x="186.4313" y="241.3698">0..*</text><text fill="#000000" font-family="sans-serif" font-size="13" lengthAdjust="spacing" textLength="8.271" x="317.2375" y="383.9575">1</text></g><!--link Fagelementdispensation to PersonligFagelementgruppering--><g id="link_Fagelementdispensation_PersonligFagelementgruppering"><path codeLine="1875" d="M655,76.3669 C655,91.0369 655,113.7869 655,136.1069 " fill="none" id="Fagelementdispensation-PersonligFagelementgruppering" style="stroke:#181818;stroke-width:1.0;"/><text fill="#000000" font-family="sans-serif" font-size="13" lengthAdjust="spacing" textLength="23.0356" x="646.0208" y="96.2633">0..*</text><text fill="#000000" font-family="sans-serif" font-size="13" lengthAdjust="spacing" textLength="24.8066" x="618.277" y="125.2832">0..1</text></g><!--link PersonligFagelementgruppering to Udbudsperiode--><g id="link_PersonligFagelementgruppering_Udbudsperiode"><path codeLine="1876" d="M767,274.4369 C767,309.4969 767,349.1269 767,370.6969 " fill="none" id="PersonligFagelementgruppering-Udbudsperiode" style="stroke:#181818;stroke-width:1.0;"/><text fill="#000000" font-family="sans-serif" font-size="13" lengthAdjust="spacing" textLength="69.4497" x="697" y="318.6338">planlagt til</text><text fill="#000000" font-family="sans-serif" font-size="13" lengthAdjust="spacing" textLength="23.0356" x="742.8916" y="294.0653">0..*</text><text fill="#000000" font-family="sans-serif" font-size="13" lengthAdjust="spacing" textLength="23.0356" x="740.004" y="359.6741">0..*</text></g><!--link PersonligtFagelement to PersonligtStudieforl?b--><g id="link_PersonligtFagelement_PersonligtStudieforl&#248;b"><path codeLine="1877" d="M1031.25,76.6769 C1031.25,136.8669 1031.25,342.2969 1031.25,342.2969 C1031.25,342.2969 772.71,342.2969 606.58,342.2969 " fill="none" id="PersonligtFagelement-PersonligtStudieforl&#248;b" style="stroke:#181818;stroke-width:1.0;"/><text fill="#000000" font-family="sans-serif" font-size="13" lengthAdjust="spacing" textLength="23.0356" x="998.3031" y="96.3767">0..*</text><text fill="#000000" font-family="sans-serif" font-size="13" lengthAdjust="spacing" textLength="24.8066" x="614.7179" y="336.5185">0..1</text></g><!--link IndskrivningTilEnkeltfag to PersonligtEnkeltfagsforl?b--><g id="link_IndskrivningTilEnkeltfag_PersonligtEnkeltfagsforl&#248;b"><path codeLine="1878" d="M1145.75,221.4069 C1145.75,250.1169 1145.75,310.8369 1145.75,350.1669 " fill="none" id="IndskrivningTilEnkeltfag-PersonligtEnkeltfagsforl&#248;b" style="stroke:#181818;stroke-width:1.0;"/><text fill="#000000" font-family="sans-serif" font-size="13" lengthAdjust="spacing" textLength="8.271" x="1117.127" y="241.3166">1</text><text fill="#000000" font-family="sans-serif" font-size="13" lengthAdjust="spacing" textLength="8.271" x="1154.5212" y="339.147">1</text></g><!--link PersonligFagelementgruppering to PersonligtEnkeltfagsforl?b--><g id="link_PersonligFagelementgruppering_PersonligtEnkeltfagsforl&#248;b"><path codeLine="1879" d="M920.75,274.4369 C920.75,300.1769 920.75,328.3869 920.75,350.1069 " fill="none" id="PersonligFagelementgruppering-PersonligtEnkeltfagsforl&#248;b" style="stroke:#181818;stroke-width:1.0;"/><text fill="#000000" font-family="sans-serif" font-size="13" lengthAdjust="spacing" textLength="23.0356" x="911.7764" y="294.0653">0..*</text><text fill="#000000" font-family="sans-serif" font-size="13" lengthAdjust="spacing" textLength="24.8066" x="882.13" y="342.6445">0..1</text></g><!--link PersonligtFagelement to PersonligtEnkeltfagsforl?b--><g id="link_PersonligtFagelement_PersonligtEnkeltfagsforl&#248;b"><path codeLine="1880" d="M1067.62,76.4869 C1067.62,126.4769 1067.62,279.2669 1067.62,350.0669 " fill="none" id="PersonligtFagelement-PersonligtEnkeltfagsforl&#248;b" style="stroke:#181818;stroke-width:1.0;"/><text fill="#000000" font-family="sans-serif" font-size="13" lengthAdjust="spacing" textLength="23.0356" x="1046.3306" y="96.4231">0..*</text><text fill="#000000" font-family="sans-serif" font-size="13" lengthAdjust="spacing" textLength="24.8066" x="1044.5285" y="339.3033">0..1</text></g><!--link PersonligtStudieforl?b to PersonligForl?bspr?ve--><g id="link_PersonligtStudieforl&#248;b_PersonligForl&#248;bspr&#248;ve"><path codeLine="1881" d="M551,439.7869 C551,458.3069 551,479.3769 551,499.0269 " fill="none" id="PersonligtStudieforl&#248;b-PersonligForl&#248;bspr&#248;ve" style="stroke:#181818;stroke-width:1.0;"/><text fill="#000000" font-family="sans-serif" font-size="13" lengthAdjust="spacing" textLength="8.271" x="552.8605" y="459.6005">1</text><text fill="#000000" font-family="sans-serif" font-size="13" lengthAdjust="spacing" textLength="23.0356" x="518.4707" y="488.195">0..*</text></g><!--link PersonligForl?bspr?ve to Forl?bspr?ve--><g id="link_PersonligForl&#248;bspr&#248;ve_Forl&#248;bspr&#248;ve"><path codeLine="1882" d="M632,637.3969 C632,659.7169 632,682.4669 632,697.1669 " fill="none" id="PersonligForl&#248;bspr&#248;ve-Forl&#248;bspr&#248;ve" style="stroke:#181818;stroke-width:1.0;"/><text fill="#000000" font-family="sans-serif" font-size="13" lengthAdjust="spacing" textLength="23.0356" x="607.8239" y="657.3813">0..*</text><text fill="#000000" font-family="sans-serif" font-size="13" lengthAdjust="spacing" textLength="8.271" x="622.6516" y="686.1338">1</text></g><!--link Forh?ndsgodkendelse to PersonligFagelementgruppering--><g id="link_Forh&#229;ndsgodkendelse_PersonligFagelementgruppering"><path codeLine="1883" d="M831,76.3669 C831,91.0369 831,113.7869 831,136.1069 " fill="none" id="Forh&#229;ndsgodkendelse-PersonligFagelementgruppering" style="stroke:#181818;stroke-width:1.0;"/><text fill="#000000" font-family="sans-serif" font-size="13" lengthAdjust="spacing" textLength="24.8066" x="803.1405" y="96.2633">0..1</text><text fill="#000000" font-family="sans-serif" font-size="13" lengthAdjust="spacing" textLength="24.8066" x="812.427" y="125.2832">0..1</text></g><!--SRC=[VOun3i8m34NtdC8LEnAYOzK1Bi307gMDQQqwTfGuGuMuEnsP-EjxqljFCaQu-jvV_0DBLM5Qp5ThaV2bXHKdjr94m9HjXuHfEZHNDv8SIaZ096XxHj1Yg_w0cKEjy7Pmx1RcRIdQ9DwLjGm3IalZ2AUZjjfI4CLzdEj8PcuHQviW1P9pRecx_- - -]--></g></svg>