<svg xmlns="http://www.w3.org/2000/svg" xmlns:xlink="http://www.w3.org/1999/xlink" contentStyleType="text/css" height="774px" preserveAspectRatio="none" style="width:1430px;height:774px;background:#FFFFFF;" version="1.1" viewBox="0 0 1430 774" width="1430px" zoomAndPan="magnify"><defs/><g><text fill="#000000" font-family="sans-serif" font-size="14" font-weight="bold" lengthAdjust="spacing" textLength="144.0811" x="636.3618" y="22.9951">3_6_Bedoemmelse</text><!--class Pr?veresultat--><g id="elem_Pr&#248;veresultat"><rect codeLine="1584" fill="#F1F1F1" height="202.9688" id="Pr&#248;veresultat" rx="2.5" ry="2.5" style="stroke:#181818;stroke-width:0.5;" width="283.3594" x="337" y="136.2969"/><ellipse cx="427.6069" cy="152.2969" fill="#ADD1B2" rx="11" ry="11" style="stroke:#181818;stroke-width:1.0;"/><path d="M430.5757,157.9375 Q429.9976,158.2344 429.3569,158.375 Q428.7163,158.5313 428.0132,158.5313 Q425.5132,158.5313 424.1851,156.8906 Q422.8726,155.2344 422.8726,152.1094 Q422.8726,148.9844 424.1851,147.3281 Q425.5132,145.6719 428.0132,145.6719 Q428.7163,145.6719 429.3569,145.8281 Q430.0132,145.9844 430.5757,146.2813 L430.5757,149 Q429.9507,148.4219 429.3569,148.1563 Q428.7632,147.875 428.1382,147.875 Q426.7944,147.875 426.1069,148.9531 Q425.4194,150.0156 425.4194,152.1094 Q425.4194,154.2031 426.1069,155.2813 Q426.7944,156.3438 428.1382,156.3438 Q428.7632,156.3438 429.3569,156.0781 Q429.9507,155.7969 430.5757,155.2188 L430.5757,157.9375 Z " fill="#000000"/><text fill="#000000" font-family="sans-serif" font-size="14" lengthAdjust="spacing" textLength="93.6455" x="448.1069" y="157.1436">Pr&#248;veresultat</text><line style="stroke:#181818;stroke-width:0.5;" x1="338" x2="619.3594" y1="168.2969" y2="168.2969"/><text fill="#000000" font-family="sans-serif" font-size="14" lengthAdjust="spacing" textLength="217.6084" x="343" y="185.292">/bed&#248;mmelsesdato: Calculated</text><a href="1..1" target="_top" title="1..1" xlink:actuate="onRequest" xlink:href="1..1" xlink:show="new" xlink:title="1..1" xlink:type="simple"><text fill="#0000FF" font-family="sans-serif" font-size="14" lengthAdjust="spacing" text-decoration="underline" textLength="26.7148" x="565.0586" y="185.292">1..1</text></a><text fill="#000000" font-family="sans-serif" font-size="14" lengthAdjust="spacing" textLength="182.2461" x="343" y="201.5889">/pr&#248;veresultat: Calculated</text><a href="1..1" target="_top" title="1..1" xlink:actuate="onRequest" xlink:href="1..1" xlink:show="new" xlink:title="1..1" xlink:type="simple"><text fill="#0000FF" font-family="sans-serif" font-size="14" lengthAdjust="spacing" text-decoration="underline" textLength="26.7148" x="529.6963" y="201.5889">1..1</text></a><text fill="#000000" font-family="sans-serif" font-size="14" lengthAdjust="spacing" textLength="240.1943" x="343" y="217.8857">/g&#230;ldendeOpgavetitel: Calculated</text><a href="1..1" target="_top" title="1..1" xlink:actuate="onRequest" xlink:href="1..1" xlink:show="new" xlink:title="1..1" xlink:type="simple"><text fill="#0000FF" font-family="sans-serif" font-size="14" lengthAdjust="spacing" text-decoration="underline" textLength="26.7148" x="587.6445" y="217.8857">1..1</text></a><text fill="#000000" font-family="sans-serif" font-size="14" lengthAdjust="spacing" textLength="35.916" x="343" y="234.1826">&#171;BK&#187;</text><text fill="#000000" font-family="sans-serif" font-size="14" lengthAdjust="spacing" textLength="191.7891" x="343" y="250.4795">/fagelementkode: IgnoreBK</text><a href="1..1" target="_top" title="1..1" xlink:actuate="onRequest" xlink:href="1..1" xlink:show="new" xlink:title="1..1" xlink:type="simple"><text fill="#0000FF" font-family="sans-serif" font-size="14" lengthAdjust="spacing" text-decoration="underline" textLength="26.7148" x="539.2393" y="250.4795">1..1</text></a><text fill="#000000" font-family="sans-serif" font-size="14" lengthAdjust="spacing" textLength="176.2236" x="343" y="266.7764">/pr&#248;vefors&#248;gnr: IgnoreBK</text><a href="1..1" target="_top" title="1..1" xlink:actuate="onRequest" xlink:href="1..1" xlink:show="new" xlink:title="1..1" xlink:type="simple"><text fill="#0000FF" font-family="sans-serif" font-size="14" lengthAdjust="spacing" text-decoration="underline" textLength="26.7148" x="523.6738" y="266.7764">1..1</text></a><text fill="#000000" font-family="sans-serif" font-size="14" lengthAdjust="spacing" textLength="234.9375" x="343" y="283.0732">/pr&#248;veperiodestartdato: IgnoreBK</text><a href="1..1" target="_top" title="1..1" xlink:actuate="onRequest" xlink:href="1..1" xlink:show="new" xlink:title="1..1" xlink:type="simple"><text fill="#0000FF" font-family="sans-serif" font-size="14" lengthAdjust="spacing" text-decoration="underline" textLength="26.7148" x="582.3877" y="283.0732">1..1</text></a><text fill="#000000" font-family="sans-serif" font-size="14" lengthAdjust="spacing" textLength="229.6807" x="343" y="299.3701">/indskrivningsnummer: IgnoreBK</text><a href="1..1" target="_top" title="1..1" xlink:actuate="onRequest" xlink:href="1..1" xlink:show="new" xlink:title="1..1" xlink:type="simple"><text fill="#0000FF" font-family="sans-serif" font-size="14" lengthAdjust="spacing" text-decoration="underline" textLength="26.7148" x="577.1309" y="299.3701">1..1</text></a><text fill="#000000" font-family="sans-serif" font-size="14" lengthAdjust="spacing" textLength="216.5762" x="343" y="315.667">/udbudsperiodekode: IgnoreBK</text><a href="1..1" target="_top" title="1..1" xlink:actuate="onRequest" xlink:href="1..1" xlink:show="new" xlink:title="1..1" xlink:type="simple"><text fill="#0000FF" font-family="sans-serif" font-size="14" lengthAdjust="spacing" text-decoration="underline" textLength="26.7148" x="564.0264" y="315.667">1..1</text></a><text fill="#000000" font-family="sans-serif" font-size="14" lengthAdjust="spacing" textLength="193.6484" x="343" y="331.9639">/udbudsstedkode: IgnoreBK</text><a href="1..1" target="_top" title="1..1" xlink:actuate="onRequest" xlink:href="1..1" xlink:show="new" xlink:title="1..1" xlink:type="simple"><text fill="#0000FF" font-family="sans-serif" font-size="14" lengthAdjust="spacing" text-decoration="underline" textLength="26.7148" x="541.0986" y="331.9639">1..1</text></a></g><!--class Pr?vefors?gMedBed?mmelse--><g id="elem_Pr&#248;vefors&#248;gMedBed&#248;mmelse"><rect codeLine="1597" fill="#F1F1F1" height="72.5938" id="Pr&#248;vefors&#248;gMedBed&#248;mmelse" rx="2.5" ry="2.5" style="stroke:#181818;stroke-width:0.5;" width="236.5928" x="65" y="201.2969"/><ellipse cx="80" cy="217.2969" fill="#ADD1B2" rx="11" ry="11" style="stroke:#181818;stroke-width:1.0;"/><path d="M82.9688,222.9375 Q82.3906,223.2344 81.75,223.375 Q81.1094,223.5313 80.4063,223.5313 Q77.9063,223.5313 76.5781,221.8906 Q75.2656,220.2344 75.2656,217.1094 Q75.2656,213.9844 76.5781,212.3281 Q77.9063,210.6719 80.4063,210.6719 Q81.1094,210.6719 81.75,210.8281 Q82.4063,210.9844 82.9688,211.2813 L82.9688,214 Q82.3438,213.4219 81.75,213.1563 Q81.1563,212.875 80.5313,212.875 Q79.1875,212.875 78.5,213.9531 Q77.8125,215.0156 77.8125,217.1094 Q77.8125,219.2031 78.5,220.2813 Q79.1875,221.3438 80.5313,221.3438 Q81.1563,221.3438 81.75,221.0781 Q82.3438,220.7969 82.9688,220.2188 L82.9688,222.9375 Z " fill="#000000"/><text fill="#000000" font-family="sans-serif" font-size="14" lengthAdjust="spacing" textLength="204.5928" x="94" y="222.1436">Pr&#248;vefors&#248;gMedBed&#248;mmelse</text><line style="stroke:#181818;stroke-width:0.5;" x1="66" x2="300.5928" y1="233.2969" y2="233.2969"/><text fill="#000000" font-family="sans-serif" font-size="14" lengthAdjust="spacing" textLength="151.8262" x="71" y="250.292">bed&#248;mmelsesnoter: ?</text><a href="1..1" target="_top" title="1..1" xlink:actuate="onRequest" xlink:href="1..1" xlink:show="new" xlink:title="1..1" xlink:type="simple"><text fill="#0000FF" font-family="sans-serif" font-size="14" lengthAdjust="spacing" text-decoration="underline" textLength="26.7148" x="227.2764" y="250.292">1..1</text></a><text fill="#000000" font-family="sans-serif" font-size="14" lengthAdjust="spacing" textLength="148.6885" x="71" y="266.5889">personligFeedback: ?</text><a href="0..1" target="_top" title="0..1" xlink:actuate="onRequest" xlink:href="0..1" xlink:show="new" xlink:title="0..1" xlink:type="simple"><text fill="#0000FF" font-family="sans-serif" font-size="14" lengthAdjust="spacing" text-decoration="underline" textLength="26.7148" x="224.1387" y="266.5889">0..1</text></a></g><!--class Pr?vefors?gUdenBed?mmelse--><g id="elem_Pr&#248;vefors&#248;gUdenBed&#248;mmelse"><rect codeLine="1602" fill="#F1F1F1" height="56.2969" id="Pr&#248;vefors&#248;gUdenBed&#248;mmelse" rx="2.5" ry="2.5" style="stroke:#181818;stroke-width:0.5;" width="325.1064" x="767" y="209.7969"/><ellipse cx="819.4863" cy="225.7969" fill="#ADD1B2" rx="11" ry="11" style="stroke:#181818;stroke-width:1.0;"/><path d="M822.4551,231.4375 Q821.877,231.7344 821.2363,231.875 Q820.5957,232.0313 819.8926,232.0313 Q817.3926,232.0313 816.0645,230.3906 Q814.752,228.7344 814.752,225.6094 Q814.752,222.4844 816.0645,220.8281 Q817.3926,219.1719 819.8926,219.1719 Q820.5957,219.1719 821.2363,219.3281 Q821.8926,219.4844 822.4551,219.7813 L822.4551,222.5 Q821.8301,221.9219 821.2363,221.6563 Q820.6426,221.375 820.0176,221.375 Q818.6738,221.375 817.9863,222.4531 Q817.2988,223.5156 817.2988,225.6094 Q817.2988,227.7031 817.9863,228.7813 Q818.6738,229.8438 820.0176,229.8438 Q820.6426,229.8438 821.2363,229.5781 Q821.8301,229.2969 822.4551,228.7188 L822.4551,231.4375 Z " fill="#000000"/><text fill="#000000" font-family="sans-serif" font-size="14" lengthAdjust="spacing" textLength="211.6338" x="839.9863" y="230.6436">Pr&#248;vefors&#248;gUdenBed&#248;mmelse</text><line style="stroke:#181818;stroke-width:0.5;" x1="768" x2="1091.1064" y1="241.7969" y2="241.7969"/><text fill="#000000" font-family="sans-serif" font-size="14" lengthAdjust="spacing" textLength="281.9414" x="773" y="258.792">&#229;rsagTilManglendeBed&#248;mmelse: Picklist</text><a href="1..1" target="_top" title="1..1" xlink:actuate="onRequest" xlink:href="1..1" xlink:show="new" xlink:title="1..1" xlink:type="simple"><text fill="#0000FF" font-family="sans-serif" font-size="14" lengthAdjust="spacing" text-decoration="underline" textLength="26.7148" x="1059.3916" y="258.792">1..1</text></a></g><!--class Pr?veaktivitetsfors?g--><g id="elem_Pr&#248;veaktivitetsfors&#248;g"><rect codeLine="1606" fill="#F1F1F1" height="32" id="Pr&#248;veaktivitetsfors&#248;g" rx="2.5" ry="2.5" style="stroke:#181818;stroke-width:0.5;" width="180.7842" x="716" y="501.2969"/><ellipse cx="731" cy="517.2969" fill="#A9DCDF" rx="11" ry="11" style="stroke:#181818;stroke-width:1.0;"/><path d="M731.1094,512.6406 L729.9531,517.7188 L732.2813,517.7188 L731.1094,512.6406 Z M729.625,510.4063 L732.6094,510.4063 L735.9688,522.7969 L733.5156,522.7969 L732.75,519.7344 L729.4688,519.7344 L728.7188,522.7969 L726.2813,522.7969 L729.625,510.4063 Z " fill="#000000"/><text fill="#000000" font-family="sans-serif" font-size="14" font-style="italic" lengthAdjust="spacing" textLength="148.7842" x="745" y="522.1436">Pr&#248;veaktivitetsfors&#248;g</text></g><!--class Pr?veaktivitetsresultat--><g id="elem_Pr&#248;veaktivitetsresultat"><rect codeLine="1609" fill="#F1F1F1" height="235.5625" id="Pr&#248;veaktivitetsresultat" rx="2.5" ry="2.5" style="stroke:#181818;stroke-width:0.5;" width="278.1025" x="254.5" y="399.2969"/><ellipse cx="309.9155" cy="415.2969" fill="#ADD1B2" rx="11" ry="11" style="stroke:#181818;stroke-width:1.0;"/><path d="M312.8843,420.9375 Q312.3062,421.2344 311.6655,421.375 Q311.0249,421.5313 310.3218,421.5313 Q307.8218,421.5313 306.4937,419.8906 Q305.1812,418.2344 305.1812,415.1094 Q305.1812,411.9844 306.4937,410.3281 Q307.8218,408.6719 310.3218,408.6719 Q311.0249,408.6719 311.6655,408.8281 Q312.3218,408.9844 312.8843,409.2813 L312.8843,412 Q312.2593,411.4219 311.6655,411.1563 Q311.0718,410.875 310.4468,410.875 Q309.103,410.875 308.4155,411.9531 Q307.728,413.0156 307.728,415.1094 Q307.728,417.2031 308.4155,418.2813 Q309.103,419.3438 310.4468,419.3438 Q311.0718,419.3438 311.6655,419.0781 Q312.2593,418.7969 312.8843,418.2188 L312.8843,420.9375 Z " fill="#000000"/><text fill="#000000" font-family="sans-serif" font-size="14" lengthAdjust="spacing" textLength="158.7715" x="330.4155" y="420.1436">Pr&#248;veaktivitetsresultat</text><line style="stroke:#181818;stroke-width:0.5;" x1="255.5" x2="531.6025" y1="431.2969" y2="431.2969"/><text fill="#000000" font-family="sans-serif" font-size="14" lengthAdjust="spacing" textLength="172.0811" x="260.5" y="448.292">bed&#248;mmelsesdato: Date</text><a href="1..1" target="_top" title="1..1" xlink:actuate="onRequest" xlink:href="1..1" xlink:show="new" xlink:title="1..1" xlink:type="simple"><text fill="#0000FF" font-family="sans-serif" font-size="14" lengthAdjust="spacing" text-decoration="underline" textLength="26.7148" x="437.0313" y="448.292">1..1</text></a><text fill="#000000" font-family="sans-serif" font-size="14" lengthAdjust="spacing" textLength="209.959" x="260.5" y="464.5889">g&#230;ldendeOpgavetitel: Text80</text><a href="0..1" target="_top" title="0..1" xlink:actuate="onRequest" xlink:href="0..1" xlink:show="new" xlink:title="0..1" xlink:type="simple"><text fill="#0000FF" font-family="sans-serif" font-size="14" lengthAdjust="spacing" text-decoration="underline" textLength="26.7148" x="474.9092" y="464.5889">0..1</text></a><text fill="#000000" font-family="sans-serif" font-size="14" lengthAdjust="spacing" textLength="168.2666" x="260.5" y="480.8857">eksamenssprog: Picklist</text><a href="1..1" target="_top" title="1..1" xlink:actuate="onRequest" xlink:href="1..1" xlink:show="new" xlink:title="1..1" xlink:type="simple"><text fill="#0000FF" font-family="sans-serif" font-size="14" lengthAdjust="spacing" text-decoration="underline" textLength="26.7148" x="433.2168" y="480.8857">1..1</text></a><text fill="#000000" font-family="sans-serif" font-size="14" lengthAdjust="spacing" textLength="35.916" x="260.5" y="497.1826">&#171;BK&#187;</text><text fill="#000000" font-family="sans-serif" font-size="14" lengthAdjust="spacing" textLength="191.7891" x="260.5" y="513.4795">/fagelementkode: IgnoreBK</text><a href="1..1" target="_top" title="1..1" xlink:actuate="onRequest" xlink:href="1..1" xlink:show="new" xlink:title="1..1" xlink:type="simple"><text fill="#0000FF" font-family="sans-serif" font-size="14" lengthAdjust="spacing" text-decoration="underline" textLength="26.7148" x="456.7393" y="513.4795">1..1</text></a><text fill="#000000" font-family="sans-serif" font-size="14" lengthAdjust="spacing" textLength="229.6807" x="260.5" y="529.7764">/indskrivningsnummer: IgnoreBK</text><a href="1..1" target="_top" title="1..1" xlink:actuate="onRequest" xlink:href="1..1" xlink:show="new" xlink:title="1..1" xlink:type="simple"><text fill="#0000FF" font-family="sans-serif" font-size="14" lengthAdjust="spacing" text-decoration="underline" textLength="26.7148" x="494.6309" y="529.7764">1..1</text></a><text fill="#000000" font-family="sans-serif" font-size="14" lengthAdjust="spacing" textLength="216.8975" x="260.5" y="546.0732">/pr&#248;veaktivitetskode: IgnoreBK</text><a href="1..1" target="_top" title="1..1" xlink:actuate="onRequest" xlink:href="1..1" xlink:show="new" xlink:title="1..1" xlink:type="simple"><text fill="#0000FF" font-family="sans-serif" font-size="14" lengthAdjust="spacing" text-decoration="underline" textLength="26.7148" x="481.8477" y="546.0732">1..1</text></a><text fill="#000000" font-family="sans-serif" font-size="14" lengthAdjust="spacing" textLength="183.5176" x="260.5" y="562.3701">/pr&#248;vefors&#248;gsnr: IgnoreBK</text><a href="1..1" target="_top" title="1..1" xlink:actuate="onRequest" xlink:href="1..1" xlink:show="new" xlink:title="1..1" xlink:type="simple"><text fill="#0000FF" font-family="sans-serif" font-size="14" lengthAdjust="spacing" text-decoration="underline" textLength="26.7148" x="448.4678" y="562.3701">1..1</text></a><text fill="#000000" font-family="sans-serif" font-size="14" lengthAdjust="spacing" textLength="234.9375" x="260.5" y="578.667">/pr&#248;veperiodestartdato: IgnoreBK</text><a href="1..1" target="_top" title="1..1" xlink:actuate="onRequest" xlink:href="1..1" xlink:show="new" xlink:title="1..1" xlink:type="simple"><text fill="#0000FF" font-family="sans-serif" font-size="14" lengthAdjust="spacing" text-decoration="underline" textLength="26.7148" x="499.8877" y="578.667">1..1</text></a><text fill="#000000" font-family="sans-serif" font-size="14" lengthAdjust="spacing" textLength="201.2227" x="260.5" y="594.9639">/pr&#248;vevariantkode: IgnoreBK</text><a href="1..1" target="_top" title="1..1" xlink:actuate="onRequest" xlink:href="1..1" xlink:show="new" xlink:title="1..1" xlink:type="simple"><text fill="#0000FF" font-family="sans-serif" font-size="14" lengthAdjust="spacing" text-decoration="underline" textLength="26.7148" x="466.1729" y="594.9639">1..1</text></a><text fill="#000000" font-family="sans-serif" font-size="14" lengthAdjust="spacing" textLength="216.5762" x="260.5" y="611.2607">/udbudsperiodekode: IgnoreBK</text><a href="1..1" target="_top" title="1..1" xlink:actuate="onRequest" xlink:href="1..1" xlink:show="new" xlink:title="1..1" xlink:type="simple"><text fill="#0000FF" font-family="sans-serif" font-size="14" lengthAdjust="spacing" text-decoration="underline" textLength="26.7148" x="481.5264" y="611.2607">1..1</text></a><text fill="#000000" font-family="sans-serif" font-size="14" lengthAdjust="spacing" textLength="193.6484" x="260.5" y="627.5576">/udbudsstedkode: IgnoreBK</text><a href="1..1" target="_top" title="1..1" xlink:actuate="onRequest" xlink:href="1..1" xlink:show="new" xlink:title="1..1" xlink:type="simple"><text fill="#0000FF" font-family="sans-serif" font-size="14" lengthAdjust="spacing" text-decoration="underline" textLength="26.7148" x="458.5986" y="627.5576">1..1</text></a></g><!--class Resultat--><g id="elem_Resultat"><rect codeLine="1624" fill="#F1F1F1" height="72.5938" id="Resultat" rx="2.5" ry="2.5" style="stroke:#181818;stroke-width:0.5;" width="118.75" x="334" y="695.2969"/><ellipse cx="361.9577" cy="711.2969" fill="#ADD1B2" rx="11" ry="11" style="stroke:#181818;stroke-width:1.0;"/><path d="M364.9265,716.9375 Q364.3483,717.2344 363.7077,717.375 Q363.0671,717.5313 362.364,717.5313 Q359.864,717.5313 358.5358,715.8906 Q357.2233,714.2344 357.2233,711.1094 Q357.2233,707.9844 358.5358,706.3281 Q359.864,704.6719 362.364,704.6719 Q363.0671,704.6719 363.7077,704.8281 Q364.364,704.9844 364.9265,705.2813 L364.9265,708 Q364.3015,707.4219 363.7077,707.1563 Q363.114,706.875 362.489,706.875 Q361.1452,706.875 360.4577,707.9531 Q359.7702,709.0156 359.7702,711.1094 Q359.7702,713.2031 360.4577,714.2813 Q361.1452,715.3438 362.489,715.3438 Q363.114,715.3438 363.7077,715.0781 Q364.3015,714.7969 364.9265,714.2188 L364.9265,716.9375 Z " fill="#000000"/><text fill="#000000" font-family="sans-serif" font-size="14" lengthAdjust="spacing" textLength="57.9551" x="378.8372" y="716.1436">Resultat</text><line style="stroke:#181818;stroke-width:0.5;" x1="335" x2="451.75" y1="727.2969" y2="727.2969"/><text fill="#000000" font-family="sans-serif" font-size="14" lengthAdjust="spacing" textLength="53.0469" x="340" y="744.292">skala: ?</text><a href="1..1" target="_top" title="1..1" xlink:actuate="onRequest" xlink:href="1..1" xlink:show="new" xlink:title="1..1" xlink:type="simple"><text fill="#0000FF" font-family="sans-serif" font-size="14" lengthAdjust="spacing" text-decoration="underline" textLength="26.7148" x="397.4971" y="744.292">1..1</text></a><text fill="#000000" font-family="sans-serif" font-size="14" lengthAdjust="spacing" textLength="75.585" x="340" y="760.5889">karakter: ?</text><a href="1..1" target="_top" title="1..1" xlink:actuate="onRequest" xlink:href="1..1" xlink:show="new" xlink:title="1..1" xlink:type="simple"><text fill="#0000FF" font-family="sans-serif" font-size="14" lengthAdjust="spacing" text-decoration="underline" textLength="26.7148" x="420.0352" y="760.5889">1..1</text></a></g><!--class ?rsagTilManglendeBed?mmelseEnum--><g id="elem_&#229;rsagTilManglendeBed&#248;mmelseEnum"><rect codeLine="1629" fill="#90EE90" height="129.75" id="&#229;rsagTilManglendeBed&#248;mmelseEnum" rx="2.5" ry="2.5" style="stroke:#181818;stroke-width:0.5;" width="296.3047" x="1127.5" y="172.7969"/><ellipse cx="1142.5" cy="192.9297" fill="#EB937F" rx="11" ry="11" style="stroke:#181818;stroke-width:1.0;"/><path d="M1146.6094,198.9297 L1138.8906,198.9297 L1138.8906,186.5391 L1146.6094,186.5391 L1146.6094,188.6953 L1141.3438,188.6953 L1141.3438,191.3672 L1146.1094,191.3672 L1146.1094,193.5234 L1141.3438,193.5234 L1141.3438,196.7734 L1146.6094,196.7734 L1146.6094,198.9297 Z " fill="#000000"/><text fill="#000000" font-family="sans-serif" font-size="12" font-style="italic" lengthAdjust="spacing" textLength="49.0957" x="1264.1045" y="188.9355">&#171;enum&#187;</text><text fill="#000000" font-family="sans-serif" font-size="14" lengthAdjust="spacing" textLength="264.3047" x="1156.5" y="204.7607">&#229;rsagTilManglendeBed&#248;mmelseEnum</text><line style="stroke:#181818;stroke-width:0.5;" x1="1128.5" x2="1422.8047" y1="213.0625" y2="213.0625"/><text fill="#000000" font-family="sans-serif" font-size="14" lengthAdjust="spacing" textLength="55.5557" x="1133.5" y="230.0576">sygdom</text><text fill="#000000" font-family="sans-serif" font-size="14" lengthAdjust="spacing" textLength="79.7344" x="1133.5" y="246.3545">udeblivelse</text><text fill="#000000" font-family="sans-serif" font-size="14" lengthAdjust="spacing" textLength="150.165" x="1133.5" y="262.6514">manglendeAflevering</text><text fill="#000000" font-family="sans-serif" font-size="14" lengthAdjust="spacing" textLength="33.3389" x="1133.5" y="278.9482">snyd</text><text fill="#000000" font-family="sans-serif" font-size="14" lengthAdjust="spacing" textLength="122.4248" x="1133.5" y="295.2451">forSentAflevering</text></g><!--class Ansat--><g id="elem_Ansat"><rect fill="#F1F1F1" height="32" id="Ansat" rx="2.5" ry="2.5" style="stroke:#181818;stroke-width:0.5;" width="71.8125" x="147.5" y="501.2969"/><ellipse cx="162.5" cy="517.2969" fill="#ADD1B2" rx="11" ry="11" style="stroke:#181818;stroke-width:1.0;"/><path d="M165.4688,522.9375 Q164.8906,523.2344 164.25,523.375 Q163.6094,523.5313 162.9063,523.5313 Q160.4063,523.5313 159.0781,521.8906 Q157.7656,520.2344 157.7656,517.1094 Q157.7656,513.9844 159.0781,512.3281 Q160.4063,510.6719 162.9063,510.6719 Q163.6094,510.6719 164.25,510.8281 Q164.9063,510.9844 165.4688,511.2813 L165.4688,514 Q164.8438,513.4219 164.25,513.1563 Q163.6563,512.875 163.0313,512.875 Q161.6875,512.875 161,513.9531 Q160.3125,515.0156 160.3125,517.1094 Q160.3125,519.2031 161,520.2813 Q161.6875,521.3438 163.0313,521.3438 Q163.6563,521.3438 164.25,521.0781 Q164.8438,520.7969 165.4688,520.2188 L165.4688,522.9375 Z " fill="#000000"/><text fill="#000000" font-family="sans-serif" font-size="14" lengthAdjust="spacing" textLength="39.8125" x="176.5" y="522.1436">Ansat</text></g><!--class OrgPerson--><g id="elem_OrgPerson"><rect fill="#F1F1F1" height="32" id="OrgPerson" rx="2.5" ry="2.5" style="stroke:#181818;stroke-width:0.5;" width="105.2061" x="7" y="501.2969"/><ellipse cx="22" cy="517.2969" fill="#ADD1B2" rx="11" ry="11" style="stroke:#181818;stroke-width:1.0;"/><path d="M24.9688,522.9375 Q24.3906,523.2344 23.75,523.375 Q23.1094,523.5313 22.4063,523.5313 Q19.9063,523.5313 18.5781,521.8906 Q17.2656,520.2344 17.2656,517.1094 Q17.2656,513.9844 18.5781,512.3281 Q19.9063,510.6719 22.4063,510.6719 Q23.1094,510.6719 23.75,510.8281 Q24.4063,510.9844 24.9688,511.2813 L24.9688,514 Q24.3438,513.4219 23.75,513.1563 Q23.1563,512.875 22.5313,512.875 Q21.1875,512.875 20.5,513.9531 Q19.8125,515.0156 19.8125,517.1094 Q19.8125,519.2031 20.5,520.2813 Q21.1875,521.3438 22.5313,521.3438 Q23.1563,521.3438 23.75,521.0781 Q24.3438,520.7969 24.9688,520.2188 L24.9688,522.9375 Z " fill="#000000"/><text fill="#000000" font-family="sans-serif" font-size="14" lengthAdjust="spacing" textLength="73.2061" x="36" y="522.1436">OrgPerson</text></g><!--class PersonligtFagelement--><g id="elem_PersonligtFagelement"><rect fill="#F1F1F1" height="32" id="PersonligtFagelement" rx="2.5" ry="2.5" style="stroke:#181818;stroke-width:0.5;" width="184.9473" x="386" y="44.2969"/><ellipse cx="401" cy="60.2969" fill="#ADD1B2" rx="11" ry="11" style="stroke:#181818;stroke-width:1.0;"/><path d="M403.9688,65.9375 Q403.3906,66.2344 402.75,66.375 Q402.1094,66.5313 401.4063,66.5313 Q398.9063,66.5313 397.5781,64.8906 Q396.2656,63.2344 396.2656,60.1094 Q396.2656,56.9844 397.5781,55.3281 Q398.9063,53.6719 401.4063,53.6719 Q402.1094,53.6719 402.75,53.8281 Q403.4063,53.9844 403.9688,54.2813 L403.9688,57 Q403.3438,56.4219 402.75,56.1563 Q402.1563,55.875 401.5313,55.875 Q400.1875,55.875 399.5,56.9531 Q398.8125,58.0156 398.8125,60.1094 Q398.8125,62.2031 399.5,63.2813 Q400.1875,64.3438 401.5313,64.3438 Q402.1563,64.3438 402.75,64.0781 Q403.3438,63.7969 403.9688,63.2188 L403.9688,65.9375 Z " fill="#000000"/><text fill="#000000" font-family="sans-serif" font-size="14" lengthAdjust="spacing" textLength="152.9473" x="415" y="65.1436">PersonligtFagelement</text></g><!--class PersonligPr?vebegivenhed--><g id="elem_PersonligPr&#248;vebegivenhed"><rect fill="#F1F1F1" height="32" id="PersonligPr&#248;vebegivenhed" rx="2.5" ry="2.5" style="stroke:#181818;stroke-width:0.5;" width="218.293" x="932.5" y="501.2969"/><ellipse cx="947.5" cy="517.2969" fill="#ADD1B2" rx="11" ry="11" style="stroke:#181818;stroke-width:1.0;"/><path d="M950.4688,522.9375 Q949.8906,523.2344 949.25,523.375 Q948.6094,523.5313 947.9063,523.5313 Q945.4063,523.5313 944.0781,521.8906 Q942.7656,520.2344 942.7656,517.1094 Q942.7656,513.9844 944.0781,512.3281 Q945.4063,510.6719 947.9063,510.6719 Q948.6094,510.6719 949.25,510.8281 Q949.9063,510.9844 950.4688,511.2813 L950.4688,514 Q949.8438,513.4219 949.25,513.1563 Q948.6563,512.875 948.0313,512.875 Q946.6875,512.875 946,513.9531 Q945.3125,515.0156 945.3125,517.1094 Q945.3125,519.2031 946,520.2813 Q946.6875,521.3438 948.0313,521.3438 Q948.6563,521.3438 949.25,521.0781 Q949.8438,520.7969 950.4688,520.2188 L950.4688,522.9375 Z " fill="#000000"/><text fill="#000000" font-family="sans-serif" font-size="14" lengthAdjust="spacing" textLength="186.293" x="961.5" y="522.1436">PersonligPr&#248;vebegivenhed</text></g><!--class SprogEnum--><g id="elem_SprogEnum"><rect fill="#F1F1F1" height="32" id="SprogEnum" rx="2.5" ry="2.5" style="stroke:#181818;stroke-width:0.5;" width="113.2109" x="568" y="501.2969"/><ellipse cx="583" cy="517.2969" fill="#ADD1B2" rx="11" ry="11" style="stroke:#181818;stroke-width:1.0;"/><path d="M585.9688,522.9375 Q585.3906,523.2344 584.75,523.375 Q584.1094,523.5313 583.4063,523.5313 Q580.9063,523.5313 579.5781,521.8906 Q578.2656,520.2344 578.2656,517.1094 Q578.2656,513.9844 579.5781,512.3281 Q580.9063,510.6719 583.4063,510.6719 Q584.1094,510.6719 584.75,510.8281 Q585.4063,510.9844 585.9688,511.2813 L585.9688,514 Q585.3438,513.4219 584.75,513.1563 Q584.1563,512.875 583.5313,512.875 Q582.1875,512.875 581.5,513.9531 Q580.8125,515.0156 580.8125,517.1094 Q580.8125,519.2031 581.5,520.2813 Q582.1875,521.3438 583.5313,521.3438 Q584.1563,521.3438 584.75,521.0781 Q585.3438,520.7969 585.9688,520.2188 L585.9688,522.9375 Z " fill="#000000"/><text fill="#000000" font-family="sans-serif" font-size="14" lengthAdjust="spacing" textLength="81.2109" x="597" y="522.1436">SprogEnum</text></g><!--link Pr?vefors?gMedBed?mmelse to Ansat--><g id="link_Pr&#248;vefors&#248;gMedBed&#248;mmelse_Ansat"><path codeLine="1637" d="M171.5,274.3369 C171.5,335.7469 171.5,457.2269 171.5,501.0569 " fill="none" id="Pr&#248;vefors&#248;gMedBed&#248;mmelse-Ansat" style="stroke:#181818;stroke-width:1.0;"/><text fill="#000000" font-family="sans-serif" font-size="13" lengthAdjust="spacing" textLength="81.1421" x="89.5" y="383.7638">eksaminator</text><text fill="#000000" font-family="sans-serif" font-size="13" lengthAdjust="spacing" textLength="23.0356" x="144.499" y="294.0195">0..*</text><text fill="#000000" font-family="sans-serif" font-size="13" lengthAdjust="spacing" textLength="23.0356" x="140.7526" y="490.2819">1..*</text></g><!--link Pr?vefors?gMedBed?mmelse to Ansat--><g id="link_Pr&#248;vefors&#248;gMedBed&#248;mmelse_Ansat"><path codeLine="1639" d="M195.5,274.3369 C195.5,335.7469 195.5,457.2269 195.5,501.0569 " fill="none" id="Pr&#248;vefors&#248;gMedBed&#248;mmelse-Ansat-1" style="stroke:#181818;stroke-width:1.0;"/><text fill="#000000" font-family="sans-serif" font-size="13" lengthAdjust="spacing" textLength="100.0391" x="94.5" y="400.7638">medbed&#248;mmer</text><text fill="#000000" font-family="sans-serif" font-size="13" lengthAdjust="spacing" textLength="23.0356" x="172.624" y="294.0195">0..*</text><text fill="#000000" font-family="sans-serif" font-size="13" lengthAdjust="spacing" textLength="23.0356" x="172.7026" y="490.2819">0..*</text></g><!--link Pr?vefors?gMedBed?mmelse to OrgPerson--><g id="link_Pr&#248;vefors&#248;gMedBed&#248;mmelse_OrgPerson"><path codeLine="1638" d="M88.5,274.3369 C88.5,335.7469 88.5,457.2269 88.5,501.0569 " fill="none" id="Pr&#248;vefors&#248;gMedBed&#248;mmelse-OrgPerson" style="stroke:#181818;stroke-width:1.0;"/><text fill="#000000" font-family="sans-serif" font-size="13" lengthAdjust="spacing" textLength="43.4561" x="44.5" y="383.7638">censor</text><text fill="#000000" font-family="sans-serif" font-size="13" lengthAdjust="spacing" textLength="23.0356" x="47.2334" y="294.0195">0..*</text><text fill="#000000" font-family="sans-serif" font-size="13" lengthAdjust="spacing" textLength="23.0356" x="71.2687" y="490.2819">0..*</text></g><!--link PersonligtFagelement to Pr?veresultat--><g id="link_PersonligtFagelement_Pr&#248;veresultat"><path codeLine="1640" d="M478.5,76.3669 C478.5,90.6169 478.5,112.7469 478.5,136.0969 " fill="none" id="PersonligtFagelement-Pr&#248;veresultat" style="stroke:#181818;stroke-width:1.0;"/><text fill="#000000" font-family="sans-serif" font-size="13" lengthAdjust="spacing" textLength="8.271" x="469.2286" y="96.2633">1</text><text fill="#000000" font-family="sans-serif" font-size="13" lengthAdjust="spacing" textLength="23.0356" x="454.6436" y="125.1504">0..*</text></g><!--link Pr?vefors?gMedBed?mmelse to Pr?veaktivitetsresultat--><g id="link_Pr&#248;vefors&#248;gMedBed&#248;mmelse_Pr&#248;veaktivitetsresultat"><path codeLine="1641" d="M270.33,274.3369 C270.33,306.1469 270.33,354.0869 270.33,398.9969 " fill="none" id="Pr&#248;vefors&#248;gMedBed&#248;mmelse-Pr&#248;veaktivitetsresultat" style="stroke:#181818;stroke-width:1.0;"/><text fill="#000000" font-family="sans-serif" font-size="13" lengthAdjust="spacing" textLength="8.271" x="276.6247" y="294.0195">1</text><text fill="#000000" font-family="sans-serif" font-size="13" lengthAdjust="spacing" textLength="8.271" x="254.5857" y="388.4152">1</text></g><!--link Pr?veresultat to Pr?veaktivitetsresultat--><g id="link_Pr&#248;veresultat_Pr&#248;veaktivitetsresultat"><path codeLine="1642" d="M434.75,339.4969 C434.75,358.8469 434.75,379.2569 434.75,399.0769 " fill="none" id="Pr&#248;veresultat-Pr&#248;veaktivitetsresultat" style="stroke:#181818;stroke-width:1.0;"/><text fill="#000000" font-family="sans-serif" font-size="13" lengthAdjust="spacing" textLength="49.4102" x="435.75" y="365.3538">indg&#229;r i</text><text fill="#000000" font-family="sans-serif" font-size="13" lengthAdjust="spacing" textLength="23.0356" x="407.8539" y="359.2477">1..*</text><text fill="#000000" font-family="sans-serif" font-size="13" lengthAdjust="spacing" textLength="23.0356" x="413.6537" y="388.1081">0..*</text></g><!--link Pr?vefors?gUdenBed?mmelse to PersonligPr?vebegivenhed--><g id="link_Pr&#248;vefors&#248;gUdenBed&#248;mmelse_PersonligPr&#248;vebegivenhed"><path codeLine="1643" d="M1012.25,265.8769 C1012.25,323.8769 1012.25,455.3269 1012.25,501.1669 " fill="none" id="Pr&#248;vefors&#248;gUdenBed&#248;mmelse-PersonligPr&#248;vebegivenhed" style="stroke:#181818;stroke-width:1.0;"/><text fill="#000000" font-family="sans-serif" font-size="13" lengthAdjust="spacing" textLength="24.8066" x="1004.6919" y="286.1527">0..1</text><text fill="#000000" font-family="sans-serif" font-size="13" lengthAdjust="spacing" textLength="8.271" x="992.8165" y="490.1338">1</text></g><!--link Pr?veaktivitetsresultat to Resultat--><g id="link_Pr&#248;veaktivitetsresultat_Resultat"><path codeLine="1644" d="M393.5,635.5269 C393.5,657.0869 393.5,678.0469 393.5,694.8769 " fill="none" id="Pr&#248;veaktivitetsresultat-Resultat" style="stroke:#181818;stroke-width:1.0;"/><text fill="#000000" font-family="sans-serif" font-size="13" lengthAdjust="spacing" textLength="8.271" x="385.2736" y="654.879">1</text><text fill="#000000" font-family="sans-serif" font-size="13" lengthAdjust="spacing" textLength="23.0356" x="368.548" y="684.3554">1..*</text></g><!--link Pr?vefors?gUdenBed?mmelse to Pr?veaktivitetsfors?g--><g id="link_Pr&#248;vefors&#248;gUdenBed&#248;mmelse_Pr&#248;veaktivitetsfors&#248;g"><path codeLine="1645" d="M832,265.8769 C832,323.8769 832,437.3269 832,483.1669 " fill="none" id="Pr&#248;vefors&#248;gUdenBed&#248;mmelse-to-Pr&#248;veaktivitetsfors&#248;g" style="stroke:#181818;stroke-width:1.0;"/><polygon fill="none" points="832,501.1669,838,483.1669,826,483.1669,832,501.1669" style="stroke:#181818;stroke-width:1.0;"/></g><!--link Pr?vefors?gMedBed?mmelse to Pr?veaktivitetsfors?g--><g id="link_Pr&#248;vefors&#248;gMedBed&#248;mmelse_Pr&#248;veaktivitetsfors&#248;g"><path codeLine="1646" d="M286.17,274.4269 C286.17,313.3369 286.17,369.2969 286.17,369.2969 C286.17,369.2969 741.5,369.2969 741.5,369.2969 C741.5,369.2969 741.5,444.8169 741.5,483.1769 " fill="none" id="Pr&#248;vefors&#248;gMedBed&#248;mmelse-to-Pr&#248;veaktivitetsfors&#248;g" style="stroke:#181818;stroke-width:1.0;"/><polygon fill="none" points="741.5,501.1769,747.5,483.1769,735.5,483.1769,741.5,501.1769" style="stroke:#181818;stroke-width:1.0;"/></g><!--link Pr?vefors?gUdenBed?mmelse to ?rsagTilManglendeBed?mmelseEnum--><g id="link_Pr&#248;vefors&#248;gUdenBed&#248;mmelse_&#229;rsagTilManglendeBed&#248;mmelseEnum"><path codeLine="1647" d="M1092.12,238.2969 C1103.87,238.2969 1109.69,238.2969 1121.35,238.2969 " fill="none" id="Pr&#248;vefors&#248;gUdenBed&#248;mmelse-to-&#229;rsagTilManglendeBed&#248;mmelseEnum" style="stroke:#181818;stroke-width:1.0;stroke-dasharray:7.0,7.0;"/><polygon fill="#181818" points="1127.35,238.2969,1118.35,234.2969,1122.35,238.2969,1118.35,242.2969,1127.35,238.2969" style="stroke:#181818;stroke-width:1.0;"/></g><!--link Pr?veaktivitetsresultat to SprogEnum--><g id="link_Pr&#248;veaktivitetsresultat_SprogEnum"><path codeLine="1648" d="M532.54,517.2969 C544.87,517.2969 550.82,517.2969 561.8,517.2969 " fill="none" id="Pr&#248;veaktivitetsresultat-to-SprogEnum" style="stroke:#181818;stroke-width:1.0;stroke-dasharray:7.0,7.0;"/><polygon fill="#181818" points="567.8,517.2969,558.8,513.2969,562.8,517.2969,558.8,521.2969,567.8,517.2969" style="stroke:#181818;stroke-width:1.0;"/></g><!--SRC=[NSux3i8m44NHtgkOY9u6YIfA4RP07pdnKppApDZofuWGUuSISTlJt2St0TsM-p8Z9AX2Abpa08BcTf92LvJgwi6MVV5AmePsPb0gBQOVsCJNIYz7tsQ_7Nj9tS8ZIIhZ2EiwJNGHtcFR2s3kxTp0jaaFg7qbzMpNt5M6lvqF]--></g></svg>