<svg xmlns="http://www.w3.org/2000/svg" xmlns:xlink="http://www.w3.org/1999/xlink" contentStyleType="text/css" height="232px" preserveAspectRatio="none" style="width:893px;height:232px;background:#FFFFFF;" version="1.1" viewBox="0 0 893 232" width="893px" zoomAndPan="magnify"><defs/><g><text fill="#000000" font-family="sans-serif" font-size="14" font-weight="bold" lengthAdjust="spacing" textLength="75.9063" x="401.9697" y="22.9951">3_7_Bevis</text><!--class Bevis--><g id="elem_Bevis"><rect codeLine="1803" fill="#F1F1F1" height="32" id="Bevis" rx="2.5" ry="2.5" style="stroke:#181818;stroke-width:0.5;" width="69.6865" x="422.5" y="193.2969"/><ellipse cx="437.5" cy="209.2969" fill="#A9DCDF" rx="11" ry="11" style="stroke:#181818;stroke-width:1.0;"/><path d="M437.6094,204.6406 L436.4531,209.7188 L438.7813,209.7188 L437.6094,204.6406 Z M436.125,202.4063 L439.1094,202.4063 L442.4688,214.7969 L440.0156,214.7969 L439.25,211.7344 L435.9688,211.7344 L435.2188,214.7969 L432.7813,214.7969 L436.125,202.4063 Z " fill="#000000"/><text fill="#000000" font-family="sans-serif" font-size="14" font-style="italic" lengthAdjust="spacing" textLength="37.6865" x="451.5" y="214.1436">Bevis</text></g><!--class Eksamensbevis--><g id="elem_Eksamensbevis"><rect codeLine="1806" fill="#F1F1F1" height="88.8906" id="Eksamensbevis" rx="2.5" ry="2.5" style="stroke:#181818;stroke-width:0.5;" width="272.8457" x="28" y="44.2969"/><ellipse cx="106.0664" cy="60.2969" fill="#ADD1B2" rx="11" ry="11" style="stroke:#181818;stroke-width:1.0;"/><path d="M109.0352,65.9375 Q108.457,66.2344 107.8164,66.375 Q107.1758,66.5313 106.4727,66.5313 Q103.9727,66.5313 102.6445,64.8906 Q101.332,63.2344 101.332,60.1094 Q101.332,56.9844 102.6445,55.3281 Q103.9727,53.6719 106.4727,53.6719 Q107.1758,53.6719 107.8164,53.8281 Q108.4727,53.9844 109.0352,54.2813 L109.0352,57 Q108.4102,56.4219 107.8164,56.1563 Q107.2227,55.875 106.5977,55.875 Q105.2539,55.875 104.5664,56.9531 Q103.8789,58.0156 103.8789,60.1094 Q103.8789,62.2031 104.5664,63.2813 Q105.2539,64.3438 106.5977,64.3438 Q107.2227,64.3438 107.8164,64.0781 Q108.4102,63.7969 109.0352,63.2188 L109.0352,65.9375 Z " fill="#000000"/><text fill="#000000" font-family="sans-serif" font-size="14" lengthAdjust="spacing" textLength="108.2129" x="126.5664" y="65.1436">Eksamensbevis</text><line style="stroke:#181818;stroke-width:0.5;" x1="29" x2="299.8457" y1="76.2969" y2="76.2969"/><text fill="#000000" font-family="sans-serif" font-size="14" lengthAdjust="spacing" textLength="147.6631" x="34" y="93.292">dimissionsdato: Date</text><a href="1..1" target="_top" title="1..1" xlink:actuate="onRequest" xlink:href="1..1" xlink:show="new" xlink:title="1..1" xlink:type="simple"><text fill="#0000FF" font-family="sans-serif" font-size="14" lengthAdjust="spacing" text-decoration="underline" textLength="26.7148" x="186.1133" y="93.292">1..1</text></a><text fill="#000000" font-family="sans-serif" font-size="14" lengthAdjust="spacing" textLength="35.916" x="34" y="109.5889">&#171;BK&#187;</text><text fill="#000000" font-family="sans-serif" font-size="14" lengthAdjust="spacing" textLength="229.6807" x="34" y="125.8857">/indskrivningsnummer: IgnoreBK</text><a href="1..1" target="_top" title="1..1" xlink:actuate="onRequest" xlink:href="1..1" xlink:show="new" xlink:title="1..1" xlink:type="simple"><text fill="#0000FF" font-family="sans-serif" font-size="14" lengthAdjust="spacing" text-decoration="underline" textLength="26.7148" x="268.1309" y="125.8857">1..1</text></a></g><!--class Uddannelsescertifikat--><g id="elem_Uddannelsescertifikat"><rect codeLine="1812" fill="#F1F1F1" height="72.5938" id="Uddannelsescertifikat" rx="2.5" ry="2.5" style="stroke:#181818;stroke-width:0.5;" width="242.4873" x="336.5" y="52.2969"/><ellipse cx="377.5991" cy="68.2969" fill="#ADD1B2" rx="11" ry="11" style="stroke:#181818;stroke-width:1.0;"/><path d="M380.5679,73.9375 Q379.9897,74.2344 379.3491,74.375 Q378.7085,74.5313 378.0054,74.5313 Q375.5054,74.5313 374.1772,72.8906 Q372.8647,71.2344 372.8647,68.1094 Q372.8647,64.9844 374.1772,63.3281 Q375.5054,61.6719 378.0054,61.6719 Q378.7085,61.6719 379.3491,61.8281 Q380.0054,61.9844 380.5679,62.2813 L380.5679,65 Q379.9429,64.4219 379.3491,64.1563 Q378.7554,63.875 378.1304,63.875 Q376.7866,63.875 376.0991,64.9531 Q375.4116,66.0156 375.4116,68.1094 Q375.4116,70.2031 376.0991,71.2813 Q376.7866,72.3438 378.1304,72.3438 Q378.7554,72.3438 379.3491,72.0781 Q379.9429,71.7969 380.5679,71.2188 L380.5679,73.9375 Z " fill="#000000"/><text fill="#000000" font-family="sans-serif" font-size="14" lengthAdjust="spacing" textLength="152.4893" x="397.3989" y="73.1436">Uddannelsescertifikat</text><line style="stroke:#181818;stroke-width:0.5;" x1="337.5" x2="577.9873" y1="84.2969" y2="84.2969"/><text fill="#000000" font-family="sans-serif" font-size="14" lengthAdjust="spacing" textLength="35.916" x="342.5" y="101.292">&#171;BK&#187;</text><text fill="#000000" font-family="sans-serif" font-size="14" lengthAdjust="spacing" textLength="199.3223" x="342.5" y="117.5889">/certifikatnummer: IgnoreBK</text><a href="1..1" target="_top" title="1..1" xlink:actuate="onRequest" xlink:href="1..1" xlink:show="new" xlink:title="1..1" xlink:type="simple"><text fill="#0000FF" font-family="sans-serif" font-size="14" lengthAdjust="spacing" text-decoration="underline" textLength="26.7148" x="546.2725" y="117.5889">1..1</text></a></g><!--class Enkeltfagsbevis--><g id="elem_Enkeltfagsbevis"><rect codeLine="1817" fill="#F1F1F1" height="72.5938" id="Enkeltfagsbevis" rx="2.5" ry="2.5" style="stroke:#181818;stroke-width:0.5;" width="272.8457" x="614" y="52.2969"/><ellipse cx="690.9351" cy="68.2969" fill="#ADD1B2" rx="11" ry="11" style="stroke:#181818;stroke-width:1.0;"/><path d="M693.9038,73.9375 Q693.3257,74.2344 692.6851,74.375 Q692.0444,74.5313 691.3413,74.5313 Q688.8413,74.5313 687.5132,72.8906 Q686.2007,71.2344 686.2007,68.1094 Q686.2007,64.9844 687.5132,63.3281 Q688.8413,61.6719 691.3413,61.6719 Q692.0444,61.6719 692.6851,61.8281 Q693.3413,61.9844 693.9038,62.2813 L693.9038,65 Q693.2788,64.4219 692.6851,64.1563 Q692.0913,63.875 691.4663,63.875 Q690.1226,63.875 689.4351,64.9531 Q688.7476,66.0156 688.7476,68.1094 Q688.7476,70.2031 689.4351,71.2813 Q690.1226,72.3438 691.4663,72.3438 Q692.0913,72.3438 692.6851,72.0781 Q693.2788,71.7969 693.9038,71.2188 L693.9038,73.9375 Z " fill="#000000"/><text fill="#000000" font-family="sans-serif" font-size="14" lengthAdjust="spacing" textLength="110.4756" x="711.4351" y="73.1436">Enkeltfagsbevis</text><line style="stroke:#181818;stroke-width:0.5;" x1="615" x2="885.8457" y1="84.2969" y2="84.2969"/><text fill="#000000" font-family="sans-serif" font-size="14" lengthAdjust="spacing" textLength="35.916" x="620" y="101.292">&#171;BK&#187;</text><text fill="#000000" font-family="sans-serif" font-size="14" lengthAdjust="spacing" textLength="229.6807" x="620" y="117.5889">/indskrivningsnummer: IgnoreBK</text><a href="1..1" target="_top" title="1..1" xlink:actuate="onRequest" xlink:href="1..1" xlink:show="new" xlink:title="1..1" xlink:type="simple"><text fill="#0000FF" font-family="sans-serif" font-size="14" lengthAdjust="spacing" text-decoration="underline" textLength="26.7148" x="854.1309" y="117.5889">1..1</text></a></g><!--class IndskrivningTilVidereg?endeUddannelse--><g id="elem_IndskrivningTilVidereg&#229;endeUddannelse"><rect fill="#F1F1F1" height="32" id="IndskrivningTilVidereg&#229;endeUddannelse" rx="2.5" ry="2.5" style="stroke:#181818;stroke-width:0.5;" width="314.6182" x="7" y="193.2969"/><ellipse cx="22" cy="209.2969" fill="#ADD1B2" rx="11" ry="11" style="stroke:#181818;stroke-width:1.0;"/><path d="M24.9688,214.9375 Q24.3906,215.2344 23.75,215.375 Q23.1094,215.5313 22.4063,215.5313 Q19.9063,215.5313 18.5781,213.8906 Q17.2656,212.2344 17.2656,209.1094 Q17.2656,205.9844 18.5781,204.3281 Q19.9063,202.6719 22.4063,202.6719 Q23.1094,202.6719 23.75,202.8281 Q24.4063,202.9844 24.9688,203.2813 L24.9688,206 Q24.3438,205.4219 23.75,205.1563 Q23.1563,204.875 22.5313,204.875 Q21.1875,204.875 20.5,205.9531 Q19.8125,207.0156 19.8125,209.1094 Q19.8125,211.2031 20.5,212.2813 Q21.1875,213.3438 22.5313,213.3438 Q23.1563,213.3438 23.75,213.0781 Q24.3438,212.7969 24.9688,212.2188 L24.9688,214.9375 Z " fill="#000000"/><text fill="#000000" font-family="sans-serif" font-size="14" lengthAdjust="spacing" textLength="282.6182" x="36" y="214.1436">IndskrivningTilVidereg&#229;endeUddannelse</text></g><!--class IndskrivningTilEnkeltfag--><g id="elem_IndskrivningTilEnkeltfag"><rect fill="#F1F1F1" height="32" id="IndskrivningTilEnkeltfag" rx="2.5" ry="2.5" style="stroke:#181818;stroke-width:0.5;" width="200.2871" x="650.5" y="193.2969"/><ellipse cx="665.5" cy="209.2969" fill="#ADD1B2" rx="11" ry="11" style="stroke:#181818;stroke-width:1.0;"/><path d="M668.4688,214.9375 Q667.8906,215.2344 667.25,215.375 Q666.6094,215.5313 665.9063,215.5313 Q663.4063,215.5313 662.0781,213.8906 Q660.7656,212.2344 660.7656,209.1094 Q660.7656,205.9844 662.0781,204.3281 Q663.4063,202.6719 665.9063,202.6719 Q666.6094,202.6719 667.25,202.8281 Q667.9063,202.9844 668.4688,203.2813 L668.4688,206 Q667.8438,205.4219 667.25,205.1563 Q666.6563,204.875 666.0313,204.875 Q664.6875,204.875 664,205.9531 Q663.3125,207.0156 663.3125,209.1094 Q663.3125,211.2031 664,212.2813 Q664.6875,213.3438 666.0313,213.3438 Q666.6563,213.3438 667.25,213.0781 Q667.8438,212.7969 668.4688,212.2188 L668.4688,214.9375 Z " fill="#000000"/><text fill="#000000" font-family="sans-serif" font-size="14" lengthAdjust="spacing" textLength="168.2871" x="679.5" y="214.1436">IndskrivningTilEnkeltfag</text></g><!--link Eksamensbevis to IndskrivningTilVidereg?endeUddannelse--><g id="link_Eksamensbevis_IndskrivningTilVidereg&#229;endeUddannelse"><path codeLine="1822" d="M164.5,133.3269 C164.5,154.2369 164.5,177.8769 164.5,193.1469 " fill="none" id="Eksamensbevis-IndskrivningTilVidereg&#229;endeUddannelse" style="stroke:#181818;stroke-width:1.0;"/><text fill="#000000" font-family="sans-serif" font-size="13" lengthAdjust="spacing" textLength="24.8066" x="138.7361" y="153.3794">0..1</text><text fill="#000000" font-family="sans-serif" font-size="13" lengthAdjust="spacing" textLength="8.271" x="155.2372" y="182.1069">1</text></g><!--link Enkeltfagsbevis to IndskrivningTilEnkeltfag--><g id="link_Enkeltfagsbevis_IndskrivningTilEnkeltfag"><path codeLine="1823" d="M750.5,125.6069 C750.5,148.1669 750.5,175.9269 750.5,193.1169 " fill="none" id="Enkeltfagsbevis-IndskrivningTilEnkeltfag" style="stroke:#181818;stroke-width:1.0;"/><text fill="#000000" font-family="sans-serif" font-size="13" lengthAdjust="spacing" textLength="24.8066" x="724.5921" y="145.0573">0..1</text><text fill="#000000" font-family="sans-serif" font-size="13" lengthAdjust="spacing" textLength="8.271" x="741.1723" y="182.3618">1</text></g><!--link Uddannelsescertifikat to Bevis--><g id="link_Uddannelsescertifikat_Bevis"><path codeLine="1824" d="M469.17,125.6069 C469.17,148.1669 469.17,175.9269 469.17,193.1169 " fill="none" id="Uddannelsescertifikat-Bevis" style="stroke:#181818;stroke-width:1.0;"/><text fill="#000000" font-family="sans-serif" font-size="13" lengthAdjust="spacing" textLength="48.8706" x="420.17" y="155.4338">vedlagt</text><text fill="#000000" font-family="sans-serif" font-size="13" lengthAdjust="spacing" textLength="23.0356" x="446.1608" y="145.0573">0..*</text><text fill="#000000" font-family="sans-serif" font-size="13" lengthAdjust="spacing" textLength="8.271" x="463.8075" y="182.3618">1</text></g><!--link Enkeltfagsbevis to Bevis--><g id="link_Enkeltfagsbevis_Bevis"><path codeLine="1825" d="M632.25,125.6069 C632.25,161.0469 632.25,209.2969 632.25,209.2969 C632.25,209.2969 561.93,209.2969 510.86,209.2969 " fill="none" id="Enkeltfagsbevis-to-Bevis" style="stroke:#181818;stroke-width:1.0;"/><polygon fill="none" points="492.86,209.2969,510.86,215.2969,510.86,203.2969,492.86,209.2969" style="stroke:#181818;stroke-width:1.0;"/></g><!--link Eksamensbevis to Bevis--><g id="link_Eksamensbevis_Bevis"><path codeLine="1826" d="M301.05,129.2969 C372.73,129.2969 445.83,129.2969 445.83,129.2969 C445.83,129.2969 445.83,151.7269 445.83,175.1069 " fill="none" id="Eksamensbevis-to-Bevis" style="stroke:#181818;stroke-width:1.0;"/><polygon fill="none" points="445.83,193.1069,451.83,175.1069,439.83,175.1069,445.83,193.1069" style="stroke:#181818;stroke-width:1.0;"/></g><!--SRC=[JSun3i8m343HFQTmnSx2m59rA5TWhzB6IgpQJkGabIh4tM52_FKj_qcD4MxBVPdneEeI1GIKqauGb1MjkhgJ5czUW4cndGKXMqlv3pRsjSBBmRVPRtkqt3KyCcSRHzGkqmGNffXQD4HrR-S6qerxmDfN44zwBLru-8ry0000]--></g></svg>