<svg xmlns="http://www.w3.org/2000/svg" xmlns:xlink="http://www.w3.org/1999/xlink" contentStyleType="text/css" height="570px" preserveAspectRatio="none" style="width:1191px;height:570px;background:#FFFFFF;" version="1.1" viewBox="0 0 1191 570" width="1191px" zoomAndPan="magnify"><defs/><g><text fill="#000000" font-family="sans-serif" font-size="14" font-weight="bold" lengthAdjust="spacing" textLength="120.7227" x="528.2524" y="22.9951">4_2_Udveksling</text><!--class Udvekslingsaftale--><g id="elem_Udvekslingsaftale"><rect codeLine="1981" fill="#F1F1F1" height="154.0781" id="Udvekslingsaftale" rx="2.5" ry="2.5" style="stroke:#181818;stroke-width:0.5;" width="349.5654" x="484" y="136.4552"/><ellipse cx="592.3599" cy="152.4552" fill="#ADD1B2" rx="11" ry="11" style="stroke:#181818;stroke-width:1.0;"/><path d="M595.3286,158.0958 Q594.7505,158.3927 594.1099,158.5333 Q593.4692,158.6895 592.7661,158.6895 Q590.2661,158.6895 588.938,157.0489 Q587.6255,155.3927 587.6255,152.2677 Q587.6255,149.1427 588.938,147.4864 Q590.2661,145.8302 592.7661,145.8302 Q593.4692,145.8302 594.1099,145.9864 Q594.7661,146.1427 595.3286,146.4395 L595.3286,149.1583 Q594.7036,148.5802 594.1099,148.3145 Q593.5161,148.0333 592.8911,148.0333 Q591.5474,148.0333 590.8599,149.1114 Q590.1724,150.1739 590.1724,152.2677 Q590.1724,154.3614 590.8599,155.4395 Q591.5474,156.502 592.8911,156.502 Q593.5161,156.502 594.1099,156.2364 Q594.7036,155.9552 595.3286,155.377 L595.3286,158.0958 Z " fill="#000000"/><text fill="#000000" font-family="sans-serif" font-size="14" lengthAdjust="spacing" textLength="124.3457" x="612.8599" y="157.3018">Udvekslingsaftale</text><line style="stroke:#181818;stroke-width:0.5;" x1="485" x2="832.5654" y1="168.4552" y2="168.4552"/><text fill="#000000" font-family="sans-serif" font-size="14" lengthAdjust="spacing" textLength="306.4004" x="490" y="185.4503">antalUdvekslingspladserIndrejse: Number.0</text><a href="0..1" target="_top" title="0..1" xlink:actuate="onRequest" xlink:href="0..1" xlink:show="new" xlink:title="0..1" xlink:type="simple"><text fill="#0000FF" font-family="sans-serif" font-size="14" lengthAdjust="spacing" text-decoration="underline" textLength="26.7148" x="800.8506" y="185.4503">0..1</text></a><text fill="#000000" font-family="sans-serif" font-size="14" lengthAdjust="spacing" textLength="303.6455" x="490" y="201.7471">antalUdvekslingspladserUdrejse: Number.0</text><a href="0..1" target="_top" title="0..1" xlink:actuate="onRequest" xlink:href="0..1" xlink:show="new" xlink:title="0..1" xlink:type="simple"><text fill="#0000FF" font-family="sans-serif" font-size="14" lengthAdjust="spacing" text-decoration="underline" textLength="26.7148" x="798.0957" y="201.7471">0..1</text></a><text fill="#000000" font-family="sans-serif" font-size="14" lengthAdjust="spacing" textLength="192.3359" x="490" y="218.044">udvekslingsaftalePeriode: ?</text><a href="0..1" target="_top" title="0..1" xlink:actuate="onRequest" xlink:href="0..1" xlink:show="new" xlink:title="0..1" xlink:type="simple"><text fill="#0000FF" font-family="sans-serif" font-size="14" lengthAdjust="spacing" text-decoration="underline" textLength="26.7148" x="686.7861" y="218.044">0..1</text></a><text fill="#000000" font-family="sans-serif" font-size="14" lengthAdjust="spacing" textLength="240.0371" x="490" y="234.3409">udvekslingAftaletype: PicklistMulti</text><a href="1..2" target="_top" title="1..2" xlink:actuate="onRequest" xlink:href="1..2" xlink:show="new" xlink:title="1..2" xlink:type="simple"><text fill="#0000FF" font-family="sans-serif" font-size="14" lengthAdjust="spacing" text-decoration="underline" textLength="26.7148" x="734.4873" y="234.3409">1..2</text></a><text fill="#000000" font-family="sans-serif" font-size="14" lengthAdjust="spacing" textLength="35.916" x="490" y="250.6378">&#171;BK&#187;</text><text fill="#000000" font-family="sans-serif" font-size="14" lengthAdjust="spacing" textLength="172.1699" x="490" y="266.9346">/programnavn: IgnoreBK</text><a href="1..1" target="_top" title="1..1" xlink:actuate="onRequest" xlink:href="1..1" xlink:show="new" xlink:title="1..1" xlink:type="simple"><text fill="#0000FF" font-family="sans-serif" font-size="14" lengthAdjust="spacing" text-decoration="underline" textLength="26.7148" x="666.6201" y="266.9346">1..1</text></a><text fill="#000000" font-family="sans-serif" font-size="14" lengthAdjust="spacing" textLength="206.1992" x="490" y="283.2315">/organisationskode: IgnoreBK</text><a href="1..1" target="_top" title="1..1" xlink:actuate="onRequest" xlink:href="1..1" xlink:show="new" xlink:title="1..1" xlink:type="simple"><text fill="#0000FF" font-family="sans-serif" font-size="14" lengthAdjust="spacing" text-decoration="underline" textLength="26.7148" x="700.6494" y="283.2315">1..1</text></a></g><!--class Udvekslingsprogram--><g id="elem_Udvekslingsprogram"><rect codeLine="1991" fill="#F1F1F1" height="32" id="Udvekslingsprogram" rx="2.5" ry="2.5" style="stroke:#181818;stroke-width:0.5;" width="176.334" x="542" y="394.9552"/><ellipse cx="557" cy="410.9552" fill="#ADD1B2" rx="11" ry="11" style="stroke:#181818;stroke-width:1.0;"/><path d="M559.9688,416.5958 Q559.3906,416.8927 558.75,417.0333 Q558.1094,417.1895 557.4063,417.1895 Q554.9063,417.1895 553.5781,415.5489 Q552.2656,413.8927 552.2656,410.7677 Q552.2656,407.6427 553.5781,405.9864 Q554.9063,404.3302 557.4063,404.3302 Q558.1094,404.3302 558.75,404.4864 Q559.4063,404.6427 559.9688,404.9395 L559.9688,407.6583 Q559.3438,407.0802 558.75,406.8145 Q558.1563,406.5333 557.5313,406.5333 Q556.1875,406.5333 555.5,407.6114 Q554.8125,408.6739 554.8125,410.7677 Q554.8125,412.8614 555.5,413.9395 Q556.1875,415.002 557.5313,415.002 Q558.1563,415.002 558.75,414.7364 Q559.3438,414.4552 559.9688,413.877 L559.9688,416.5958 Z " fill="#000000"/><text fill="#000000" font-family="sans-serif" font-size="14" lengthAdjust="spacing" textLength="144.334" x="571" y="415.8018">Udvekslingsprogram</text></g><!--class Udvekslingsans?gning--><g id="elem_Udvekslingsans&#248;gning"><rect codeLine="1994" fill="#F1F1F1" height="121.4844" id="Udvekslingsans&#248;gning" rx="2.5" ry="2.5" style="stroke:#181818;stroke-width:0.5;" width="282.0742" x="866" y="350.4552"/><ellipse cx="924.2935" cy="366.4552" fill="#ADD1B2" rx="11" ry="11" style="stroke:#181818;stroke-width:1.0;"/><path d="M927.2622,372.0958 Q926.6841,372.3927 926.0435,372.5333 Q925.4028,372.6895 924.6997,372.6895 Q922.1997,372.6895 920.8716,371.0489 Q919.5591,369.3927 919.5591,366.2677 Q919.5591,363.1427 920.8716,361.4864 Q922.1997,359.8302 924.6997,359.8302 Q925.4028,359.8302 926.0435,359.9864 Q926.6997,360.1427 927.2622,360.4395 L927.2622,363.1583 Q926.6372,362.5802 926.0435,362.3145 Q925.4497,362.0333 924.8247,362.0333 Q923.481,362.0333 922.7935,363.1114 Q922.106,364.1739 922.106,366.2677 Q922.106,368.3614 922.7935,369.4395 Q923.481,370.502 924.8247,370.502 Q925.4497,370.502 926.0435,370.2364 Q926.6372,369.9552 927.2622,369.377 L927.2622,372.0958 Z " fill="#000000"/><text fill="#000000" font-family="sans-serif" font-size="14" lengthAdjust="spacing" textLength="156.9873" x="944.7935" y="371.3018">Udvekslingsans&#248;gning</text><line style="stroke:#181818;stroke-width:0.5;" x1="867" x2="1147.0742" y1="382.4552" y2="382.4552"/><text fill="#000000" font-family="sans-serif" font-size="14" lengthAdjust="spacing" textLength="152.2705" x="872" y="399.4503">indrejsenominering: ?</text><a href="1..1" target="_top" title="1..1" xlink:actuate="onRequest" xlink:href="1..1" xlink:show="new" xlink:title="1..1" xlink:type="simple"><text fill="#0000FF" font-family="sans-serif" font-size="14" lengthAdjust="spacing" text-decoration="underline" textLength="26.7148" x="1028.7207" y="399.4503">1..1</text></a><text fill="#000000" font-family="sans-serif" font-size="14" lengthAdjust="spacing" textLength="152.0176" x="872" y="415.7471">learningAgreement: ?</text><a href="0..1" target="_top" title="0..1" xlink:actuate="onRequest" xlink:href="0..1" xlink:show="new" xlink:title="0..1" xlink:type="simple"><text fill="#0000FF" font-family="sans-serif" font-size="14" lengthAdjust="spacing" text-decoration="underline" textLength="26.7148" x="1028.4678" y="415.7471">0..1</text></a><text fill="#000000" font-family="sans-serif" font-size="14" lengthAdjust="spacing" textLength="198.6592" x="872" y="432.044">praktiskeForhold: TekstLong</text><a href="0..1" target="_top" title="0..1" xlink:actuate="onRequest" xlink:href="0..1" xlink:show="new" xlink:title="0..1" xlink:type="simple"><text fill="#0000FF" font-family="sans-serif" font-size="14" lengthAdjust="spacing" text-decoration="underline" textLength="26.7148" x="1075.1094" y="432.044">0..1</text></a><text fill="#000000" font-family="sans-serif" font-size="14" lengthAdjust="spacing" textLength="238.9092" x="872" y="448.3409">udvekslingsopholdStartdato: Date</text><a href="1..1" target="_top" title="1..1" xlink:actuate="onRequest" xlink:href="1..1" xlink:show="new" xlink:title="1..1" xlink:type="simple"><text fill="#0000FF" font-family="sans-serif" font-size="14" lengthAdjust="spacing" text-decoration="underline" textLength="26.7148" x="1115.3594" y="448.3409">1..1</text></a><text fill="#000000" font-family="sans-serif" font-size="14" lengthAdjust="spacing" textLength="231.8477" x="872" y="464.6378">udvekslingsopholdSlutdato: Date</text><a href="1..1" target="_top" title="1..1" xlink:actuate="onRequest" xlink:href="1..1" xlink:show="new" xlink:title="1..1" xlink:type="simple"><text fill="#0000FF" font-family="sans-serif" font-size="14" lengthAdjust="spacing" text-decoration="underline" textLength="26.7148" x="1108.2979" y="464.6378">1..1</text></a></g><!--class Program--><g id="elem_Program"><rect codeLine="2002" fill="#F1F1F1" height="72.5938" id="Program" rx="2.5" ry="2.5" style="stroke:#181818;stroke-width:0.5;" width="195.7637" x="253" y="176.9552"/><ellipse cx="316.8203" cy="192.9552" fill="#ADD1B2" rx="11" ry="11" style="stroke:#181818;stroke-width:1.0;"/><path d="M319.7891,198.5958 Q319.2109,198.8927 318.5703,199.0333 Q317.9297,199.1895 317.2266,199.1895 Q314.7266,199.1895 313.3984,197.5489 Q312.0859,195.8927 312.0859,192.7677 Q312.0859,189.6427 313.3984,187.9864 Q314.7266,186.3302 317.2266,186.3302 Q317.9297,186.3302 318.5703,186.4864 Q319.2266,186.6427 319.7891,186.9395 L319.7891,189.6583 Q319.1641,189.0802 318.5703,188.8145 Q317.9766,188.5333 317.3516,188.5333 Q316.0078,188.5333 315.3203,189.6114 Q314.6328,190.6739 314.6328,192.7677 Q314.6328,194.8614 315.3203,195.9395 Q316.0078,197.002 317.3516,197.002 Q317.9766,197.002 318.5703,196.7364 Q319.1641,196.4552 319.7891,195.877 L319.7891,198.5958 Z " fill="#000000"/><text fill="#000000" font-family="sans-serif" font-size="14" lengthAdjust="spacing" textLength="59.623" x="337.3203" y="197.8018">Program</text><line style="stroke:#181818;stroke-width:0.5;" x1="254" x2="447.7637" y1="208.9552" y2="208.9552"/><text fill="#000000" font-family="sans-serif" font-size="14" lengthAdjust="spacing" textLength="35.916" x="259" y="225.9503">&#171;BK&#187;</text><text fill="#000000" font-family="sans-serif" font-size="14" lengthAdjust="spacing" textLength="152.5986" x="259" y="242.2471">programnavn: Text80</text><a href="1..1" target="_top" title="1..1" xlink:actuate="onRequest" xlink:href="1..1" xlink:show="new" xlink:title="1..1" xlink:type="simple"><text fill="#0000FF" font-family="sans-serif" font-size="14" lengthAdjust="spacing" text-decoration="underline" textLength="26.7148" x="416.0488" y="242.2471">1..1</text></a></g><!--class ProjektorienteretOpholdsprogram--><g id="elem_ProjektorienteretOpholdsprogram"><rect codeLine="2007" fill="#F1F1F1" height="32" id="ProjektorienteretOpholdsprogram" rx="2.5" ry="2.5" style="stroke:#181818;stroke-width:0.5;" width="268.0039" x="7" y="394.9552"/><ellipse cx="22" cy="410.9552" fill="#ADD1B2" rx="11" ry="11" style="stroke:#181818;stroke-width:1.0;"/><path d="M24.9688,416.5958 Q24.3906,416.8927 23.75,417.0333 Q23.1094,417.1895 22.4063,417.1895 Q19.9063,417.1895 18.5781,415.5489 Q17.2656,413.8927 17.2656,410.7677 Q17.2656,407.6427 18.5781,405.9864 Q19.9063,404.3302 22.4063,404.3302 Q23.1094,404.3302 23.75,404.4864 Q24.4063,404.6427 24.9688,404.9395 L24.9688,407.6583 Q24.3438,407.0802 23.75,406.8145 Q23.1563,406.5333 22.5313,406.5333 Q21.1875,406.5333 20.5,407.6114 Q19.8125,408.6739 19.8125,410.7677 Q19.8125,412.8614 20.5,413.9395 Q21.1875,415.002 22.5313,415.002 Q23.1563,415.002 23.75,414.7364 Q24.3438,414.4552 24.9688,413.877 L24.9688,416.5958 Z " fill="#000000"/><text fill="#000000" font-family="sans-serif" font-size="14" lengthAdjust="spacing" textLength="236.0039" x="36" y="415.8018">ProjektorienteretOpholdsprogram</text></g><!--class Praktikprogram--><g id="elem_Praktikprogram"><rect codeLine="2010" fill="#F1F1F1" height="32" id="Praktikprogram" rx="2.5" ry="2.5" style="stroke:#181818;stroke-width:0.5;" width="140.4385" x="310" y="394.9552"/><ellipse cx="325" cy="410.9552" fill="#ADD1B2" rx="11" ry="11" style="stroke:#181818;stroke-width:1.0;"/><path d="M327.9688,416.5958 Q327.3906,416.8927 326.75,417.0333 Q326.1094,417.1895 325.4063,417.1895 Q322.9063,417.1895 321.5781,415.5489 Q320.2656,413.8927 320.2656,410.7677 Q320.2656,407.6427 321.5781,405.9864 Q322.9063,404.3302 325.4063,404.3302 Q326.1094,404.3302 326.75,404.4864 Q327.4063,404.6427 327.9688,404.9395 L327.9688,407.6583 Q327.3438,407.0802 326.75,406.8145 Q326.1563,406.5333 325.5313,406.5333 Q324.1875,406.5333 323.5,407.6114 Q322.8125,408.6739 322.8125,410.7677 Q322.8125,412.8614 323.5,413.9395 Q324.1875,415.002 325.5313,415.002 Q326.1563,415.002 326.75,414.7364 Q327.3438,414.4552 327.9688,413.877 L327.9688,416.5958 Z " fill="#000000"/><text fill="#000000" font-family="sans-serif" font-size="14" lengthAdjust="spacing" textLength="108.4385" x="339" y="415.8018">Praktikprogram</text></g><!--class UdvekslingsaftaletypeEnum--><g id="elem_UdvekslingsaftaletypeEnum"><rect codeLine="2013" fill="#90EE90" height="80.8594" id="UdvekslingsaftaletypeEnum" rx="2.5" ry="2.5" style="stroke:#181818;stroke-width:0.5;" width="227.8496" x="869" y="172.9552"/><ellipse cx="884" cy="193.088" fill="#EB937F" rx="11" ry="11" style="stroke:#181818;stroke-width:1.0;"/><path d="M888.1094,199.088 L880.3906,199.088 L880.3906,186.6973 L888.1094,186.6973 L888.1094,188.8536 L882.8438,188.8536 L882.8438,191.5255 L887.6094,191.5255 L887.6094,193.6817 L882.8438,193.6817 L882.8438,196.9317 L888.1094,196.9317 L888.1094,199.088 Z " fill="#000000"/><text fill="#000000" font-family="sans-serif" font-size="12" font-style="italic" lengthAdjust="spacing" textLength="49.0957" x="971.377" y="189.0938">&#171;enum&#187;</text><text fill="#000000" font-family="sans-serif" font-size="14" lengthAdjust="spacing" textLength="195.8496" x="898" y="204.919">UdvekslingsaftaletypeEnum</text><line style="stroke:#181818;stroke-width:0.5;" x1="870" x2="1095.8496" y1="213.2208" y2="213.2208"/><text fill="#000000" font-family="sans-serif" font-size="14" lengthAdjust="spacing" textLength="100.1465" x="875" y="230.2159">programaftale</text><text fill="#000000" font-family="sans-serif" font-size="14" lengthAdjust="spacing" textLength="117.9883" x="875" y="246.5128">institutionsaftale</text></g><!--class Uddannelsesinstitution--><g id="elem_Uddannelsesinstitution"><rect fill="#F1F1F1" height="32" id="Uddannelsesinstitution" rx="2.5" ry="2.5" style="stroke:#181818;stroke-width:0.5;" width="192.665" x="923.5" y="44.4552"/><ellipse cx="938.5" cy="60.4552" fill="#ADD1B2" rx="11" ry="11" style="stroke:#181818;stroke-width:1.0;"/><path d="M941.4688,66.0958 Q940.8906,66.3927 940.25,66.5333 Q939.6094,66.6895 938.9063,66.6895 Q936.4063,66.6895 935.0781,65.0489 Q933.7656,63.3927 933.7656,60.2677 Q933.7656,57.1427 935.0781,55.4864 Q936.4063,53.8302 938.9063,53.8302 Q939.6094,53.8302 940.25,53.9864 Q940.9063,54.1427 941.4688,54.4395 L941.4688,57.1583 Q940.8438,56.5802 940.25,56.3145 Q939.6563,56.0333 939.0313,56.0333 Q937.6875,56.0333 937,57.1114 Q936.3125,58.1739 936.3125,60.2677 Q936.3125,62.3614 937,63.4395 Q937.6875,64.502 939.0313,64.502 Q939.6563,64.502 940.25,64.2364 Q940.8438,63.9552 941.4688,63.377 L941.4688,66.0958 Z " fill="#000000"/><text fill="#000000" font-family="sans-serif" font-size="14" lengthAdjust="spacing" textLength="160.665" x="952.5" y="65.3018">Uddannelsesinstitution</text></g><!--class EksterntOphold--><g id="elem_EksterntOphold"><rect fill="#F1F1F1" height="32" id="EksterntOphold" rx="2.5" ry="2.5" style="stroke:#181818;stroke-width:0.5;" width="140.5889" x="280.5" y="44.4552"/><ellipse cx="295.5" cy="60.4552" fill="#ADD1B2" rx="11" ry="11" style="stroke:#181818;stroke-width:1.0;"/><path d="M298.4688,66.0958 Q297.8906,66.3927 297.25,66.5333 Q296.6094,66.6895 295.9063,66.6895 Q293.4063,66.6895 292.0781,65.0489 Q290.7656,63.3927 290.7656,60.2677 Q290.7656,57.1427 292.0781,55.4864 Q293.4063,53.8302 295.9063,53.8302 Q296.6094,53.8302 297.25,53.9864 Q297.9063,54.1427 298.4688,54.4395 L298.4688,57.1583 Q297.8438,56.5802 297.25,56.3145 Q296.6563,56.0333 296.0313,56.0333 Q294.6875,56.0333 294,57.1114 Q293.3125,58.1739 293.3125,60.2677 Q293.3125,62.3614 294,63.4395 Q294.6875,64.502 296.0313,64.502 Q296.6563,64.502 297.25,64.2364 Q297.8438,63.9552 298.4688,63.377 L298.4688,66.0958 Z " fill="#000000"/><text fill="#000000" font-family="sans-serif" font-size="14" lengthAdjust="spacing" textLength="108.5889" x="309.5" y="65.3018">EksterntOphold</text></g><!--class IndskrivningTilEnkeltfag--><g id="elem_IndskrivningTilEnkeltfag"><rect fill="#F1F1F1" height="32" id="IndskrivningTilEnkeltfag" rx="2.5" ry="2.5" style="stroke:#181818;stroke-width:0.5;" width="200.2871" x="559" y="44.4552"/><ellipse cx="574" cy="60.4552" fill="#ADD1B2" rx="11" ry="11" style="stroke:#181818;stroke-width:1.0;"/><path d="M576.9688,66.0958 Q576.3906,66.3927 575.75,66.5333 Q575.1094,66.6895 574.4063,66.6895 Q571.9063,66.6895 570.5781,65.0489 Q569.2656,63.3927 569.2656,60.2677 Q569.2656,57.1427 570.5781,55.4864 Q571.9063,53.8302 574.4063,53.8302 Q575.1094,53.8302 575.75,53.9864 Q576.4063,54.1427 576.9688,54.4395 L576.9688,57.1583 Q576.3438,56.5802 575.75,56.3145 Q575.1563,56.0333 574.5313,56.0333 Q573.1875,56.0333 572.5,57.1114 Q571.8125,58.1739 571.8125,60.2677 Q571.8125,62.3614 572.5,63.4395 Q573.1875,64.502 574.5313,64.502 Q575.1563,64.502 575.75,64.2364 Q576.3438,63.9552 576.9688,63.377 L576.9688,66.0958 Z " fill="#000000"/><text fill="#000000" font-family="sans-serif" font-size="14" lengthAdjust="spacing" textLength="168.2871" x="588" y="65.3018">IndskrivningTilEnkeltfag</text></g><!--class OrgPerson--><g id="elem_OrgPerson"><rect fill="#F1F1F1" height="32" id="OrgPerson" rx="2.5" ry="2.5" style="stroke:#181818;stroke-width:0.5;" width="105.2061" x="865.5" y="531.4552"/><ellipse cx="880.5" cy="547.4552" fill="#ADD1B2" rx="11" ry="11" style="stroke:#181818;stroke-width:1.0;"/><path d="M883.4688,553.0958 Q882.8906,553.3927 882.25,553.5333 Q881.6094,553.6895 880.9063,553.6895 Q878.4063,553.6895 877.0781,552.0489 Q875.7656,550.3927 875.7656,547.2677 Q875.7656,544.1427 877.0781,542.4864 Q878.4063,540.8302 880.9063,540.8302 Q881.6094,540.8302 882.25,540.9864 Q882.9063,541.1427 883.4688,541.4395 L883.4688,544.1583 Q882.8438,543.5802 882.25,543.3145 Q881.6563,543.0333 881.0313,543.0333 Q879.6875,543.0333 879,544.1114 Q878.3125,545.1739 878.3125,547.2677 Q878.3125,549.3614 879,550.4395 Q879.6875,551.502 881.0313,551.502 Q881.6563,551.502 882.25,551.2364 Q882.8438,550.9552 883.4688,550.377 L883.4688,553.0958 Z " fill="#000000"/><text fill="#000000" font-family="sans-serif" font-size="14" lengthAdjust="spacing" textLength="73.2061" x="894.5" y="552.3018">OrgPerson</text></g><!--class Enkeltfagsans?gning--><g id="elem_Enkeltfagsans&#248;gning"><rect fill="#F1F1F1" height="32" id="Enkeltfagsans&#248;gning" rx="2.5" ry="2.5" style="stroke:#181818;stroke-width:0.5;" width="178.2275" x="1006" y="531.4552"/><ellipse cx="1021" cy="547.4552" fill="#ADD1B2" rx="11" ry="11" style="stroke:#181818;stroke-width:1.0;"/><path d="M1023.9688,553.0958 Q1023.3906,553.3927 1022.75,553.5333 Q1022.1094,553.6895 1021.4063,553.6895 Q1018.9063,553.6895 1017.5781,552.0489 Q1016.2656,550.3927 1016.2656,547.2677 Q1016.2656,544.1427 1017.5781,542.4864 Q1018.9063,540.8302 1021.4063,540.8302 Q1022.1094,540.8302 1022.75,540.9864 Q1023.4063,541.1427 1023.9688,541.4395 L1023.9688,544.1583 Q1023.3438,543.5802 1022.75,543.3145 Q1022.1563,543.0333 1021.5313,543.0333 Q1020.1875,543.0333 1019.5,544.1114 Q1018.8125,545.1739 1018.8125,547.2677 Q1018.8125,549.3614 1019.5,550.4395 Q1020.1875,551.502 1021.5313,551.502 Q1022.1563,551.502 1022.75,551.2364 Q1023.3438,550.9552 1023.9688,550.377 L1023.9688,553.0958 Z " fill="#000000"/><text fill="#000000" font-family="sans-serif" font-size="14" lengthAdjust="spacing" textLength="146.2275" x="1035" y="552.3018">Enkeltfagsans&#248;gning</text></g><!--link Udvekslingsaftale to Udvekslingsprogram--><g id="link_Udvekslingsaftale_Udvekslingsprogram"><path codeLine="2018" d="M630,290.6652 C630,328.9652 630,371.8052 630,394.6052 " fill="none" id="Udvekslingsaftale-Udvekslingsprogram" style="stroke:#181818;stroke-width:1.0;"/><text fill="#000000" font-family="sans-serif" font-size="13" lengthAdjust="spacing" textLength="77.0859" x="552" y="338.7021">h&#248;rer under</text><text fill="#000000" font-family="sans-serif" font-size="13" lengthAdjust="spacing" textLength="23.0356" x="603.2881" y="310.5438">0..*</text><text fill="#000000" font-family="sans-serif" font-size="13" lengthAdjust="spacing" textLength="24.8066" x="602.1033" y="383.7937">0..1</text></g><!--link Uddannelsesinstitution to Udvekslingsaftale--><g id="link_Uddannelsesinstitution_Udvekslingsaftale"><path codeLine="2019" d="M923.27,60.4552 C862.87,60.4552 796.5,60.4552 796.5,60.4552 C796.5,60.4552 796.5,98.1052 796.5,136.0552 " fill="none" id="Uddannelsesinstitution-Udvekslingsaftale" style="stroke:#181818;stroke-width:1.0;"/><text fill="#000000" font-family="sans-serif" font-size="13" lengthAdjust="spacing" textLength="117.9458" x="793.33" y="73.5221">partner institution</text><text fill="#000000" font-family="sans-serif" font-size="13" lengthAdjust="spacing" textLength="8.271" x="907.2672" y="56.9297">1</text><text fill="#000000" font-family="sans-serif" font-size="13" lengthAdjust="spacing" textLength="23.0356" x="785.1373" y="125.2979">0..*</text></g><!--link Uddannelsesinstitution to Udvekslingsans?gning--><g id="link_Uddannelsesinstitution_Udvekslingsans&#248;gning"><path codeLine="2020" d="M1106.75,76.8952 C1106.75,125.0752 1106.75,267.7552 1106.75,350.2352 " fill="none" id="Uddannelsesinstitution-Udvekslingsans&#248;gning" style="stroke:#181818;stroke-width:1.0;"/><text fill="#000000" font-family="sans-serif" font-size="13" lengthAdjust="spacing" textLength="17.8877" x="1107.75" y="209.6321">fra</text><text fill="#000000" font-family="sans-serif" font-size="13" lengthAdjust="spacing" textLength="8.271" x="1124.185" y="96.314">1</text><text fill="#000000" font-family="sans-serif" font-size="13" lengthAdjust="spacing" textLength="23.0356" x="1093.9517" y="339.3938">0..*</text></g><!--link EksterntOphold to Program--><g id="link_EksterntOphold_Program"><path codeLine="2021" d="M351,76.5352 C351,100.1752 351,144.9152 351,176.8252 " fill="none" id="EksterntOphold-Program" style="stroke:#181818;stroke-width:1.0;"/><text fill="#000000" font-family="sans-serif" font-size="13" lengthAdjust="spacing" textLength="77.0859" x="273" y="122.7521">h&#248;rer under</text><text fill="#000000" font-family="sans-serif" font-size="13" lengthAdjust="spacing" textLength="23.0356" x="324.2646" y="96.4349">0..*</text><text fill="#000000" font-family="sans-serif" font-size="13" lengthAdjust="spacing" textLength="24.8066" x="324.8836" y="165.8053">0..1</text></g><!--link Udvekslingsaftale to Udvekslingsans?gning--><g id="link_Udvekslingsaftale_Udvekslingsans&#248;gning"><path codeLine="2022" d="M776,290.6452 C776,331.5552 776,373.4552 776,373.4552 C776,373.4552 817.88,373.4552 865.97,373.4552 " fill="none" id="Udvekslingsaftale-Udvekslingsans&#248;gning" style="stroke:#181818;stroke-width:1.0;"/><text fill="#000000" font-family="sans-serif" font-size="13" lengthAdjust="spacing" textLength="38.0732" x="740.58" y="369.5221">under</text><text fill="#000000" font-family="sans-serif" font-size="13" lengthAdjust="spacing" textLength="24.8066" x="761.7369" y="310.5219">0..1</text><text fill="#000000" font-family="sans-serif" font-size="13" lengthAdjust="spacing" textLength="23.0356" x="835.1042" y="368.1927">0..*</text></g><!--link Program to Udvekslingsprogram--><g id="link_Program_Udvekslingsprogram"><path codeLine="2023" d="M449.13,213.4552 C459.86,213.4552 467,213.4552 467,213.4552 C467,213.4552 467,411.4552 467,411.4552 C467,411.4552 503.41,411.4552 541.82,411.4552 " fill="none" id="Program-Udvekslingsprogram" style="stroke:#181818;stroke-width:1.0;"/><text fill="#000000" font-family="sans-serif" font-size="13" lengthAdjust="spacing" textLength="8.271" x="456.6488" y="209.9911">1</text><text fill="#000000" font-family="sans-serif" font-size="13" lengthAdjust="spacing" textLength="24.8066" x="509.2311" y="407.9262">0..1</text></g><!--link Program to ProjektorienteretOpholdsprogram--><g id="link_Program_ProjektorienteretOpholdsprogram"><path codeLine="2024" d="M264,250.1452 C264,293.4252 264,363.4552 264,394.8452 " fill="none" id="Program-ProjektorienteretOpholdsprogram" style="stroke:#181818;stroke-width:1.0;"/><text fill="#000000" font-family="sans-serif" font-size="13" lengthAdjust="spacing" textLength="8.271" x="240.9701" y="269.5757">1</text><text fill="#000000" font-family="sans-serif" font-size="13" lengthAdjust="spacing" textLength="24.8066" x="278.2942" y="383.8189">0..1</text></g><!--link Program to Praktikprogram--><g id="link_Program_Praktikprogram"><path codeLine="2025" d="M379.5,250.1452 C379.5,293.4252 379.5,363.4552 379.5,394.8452 " fill="none" id="Program-Praktikprogram" style="stroke:#181818;stroke-width:1.0;"/><text fill="#000000" font-family="sans-serif" font-size="13" lengthAdjust="spacing" textLength="8.271" x="375.5998" y="269.5757">1</text><text fill="#000000" font-family="sans-serif" font-size="13" lengthAdjust="spacing" textLength="24.8066" x="351.2664" y="383.8189">0..1</text></g><!--link IndskrivningTilEnkeltfag to Udvekslingsaftale--><g id="link_IndskrivningTilEnkeltfag_Udvekslingsaftale"><path codeLine="2026" d="M659,76.5352 C659,91.1152 659,113.7252 659,136.4052 " fill="none" id="IndskrivningTilEnkeltfag-Udvekslingsaftale" style="stroke:#181818;stroke-width:1.0;"/><text fill="#000000" font-family="sans-serif" font-size="13" lengthAdjust="spacing" textLength="38.0732" x="660" y="102.5421">under</text><text fill="#000000" font-family="sans-serif" font-size="13" lengthAdjust="spacing" textLength="23.0356" x="632.149" y="96.4349">0..*</text><text fill="#000000" font-family="sans-serif" font-size="13" lengthAdjust="spacing" textLength="24.8066" x="633.9154" y="125.416">0..1</text></g><!--link Udvekslingsans?gning to OrgPerson--><g id="link_Udvekslingsans&#248;gning_OrgPerson"><path codeLine="2027" d="M918.25,471.6252 C918.25,493.5552 918.25,516.5352 918.25,531.3752 " fill="none" id="Udvekslingsans&#248;gning-OrgPerson" style="stroke:#181818;stroke-width:1.0;"/><text fill="#000000" font-family="sans-serif" font-size="13" lengthAdjust="spacing" textLength="102.521" x="919.25" y="497.5621">ekstern kontakt</text><text fill="#000000" font-family="sans-serif" font-size="13" lengthAdjust="spacing" textLength="23.0356" x="883.0297" y="491.9788">0..*</text><text fill="#000000" font-family="sans-serif" font-size="13" lengthAdjust="spacing" textLength="24.8066" x="890.3142" y="520.3593">0..1</text></g><!--link Udvekslingsans?gning to Enkeltfagsans?gning--><g id="link_Udvekslingsans&#248;gning_Enkeltfagsans&#248;gning"><path codeLine="2028" d="M1077,471.6252 C1077,493.5552 1077,498.5352 1077,513.3752 " fill="none" id="Udvekslingsans&#248;gning-to-Enkeltfagsans&#248;gning" style="stroke:#181818;stroke-width:1.0;"/><polygon fill="none" points="1077,531.3752,1083,513.3752,1071,513.3752,1077,531.3752" style="stroke:#181818;stroke-width:1.0;"/></g><!--link Udvekslingsaftale to UdvekslingsaftaletypeEnum--><g id="link_Udvekslingsaftale_UdvekslingsaftaletypeEnum"><path codeLine="2029" d="M834.28,213.4552 C845.91,213.4552 851.44,213.4552 862.65,213.4552 " fill="none" id="Udvekslingsaftale-to-UdvekslingsaftaletypeEnum" style="stroke:#181818;stroke-width:1.0;stroke-dasharray:7.0,7.0;"/><polygon fill="#181818" points="868.65,213.4552,859.65,209.4552,863.65,213.4552,859.65,217.4552,868.65,213.4552" style="stroke:#181818;stroke-width:1.0;"/></g><!--SRC=[LOwx3i8m303tV8KhTWR4M7M0Nu2vIXChiM8xKHv85UBVwGYttWtteCu8r_MoFlqBKsFIO29v19JITn2K3MipBP4MMwt0KM3V2qAkFUOVuTYs1cy31pVhKgXvgBzdpdMUKOSi2voOGkoX8ghv63EHEXuUszX0BEcv3E7f_-OB]--></g></svg>